<svg width="1520" height="573" viewBox="0 0 1520 573" fill="none" xmlns="http://www.w3.org/2000/svg">
<g filter="url(#filter0_d_1276_659)">
<path d="M117 160.5L19 15L219.5 160.5H1413C1492.2 160.5 1511.33 225.833 1511 258.5V462C1511 538.4 1445.67 559.167 1413 560H117C41.8 560 20.3333 494.667 19 462V258.5C19 192.1 84.3333 165.5 117 160.5Z" fill="black"/>
<path d="M117 160.5L19 15L219.5 160.5H1413C1492.2 160.5 1511.33 225.833 1511 258.5V462C1511 538.4 1445.67 559.167 1413 560H117C41.8 560 20.3333 494.667 19 462V258.5C19 192.1 84.3333 165.5 117 160.5Z" stroke="black" stroke-width="10" stroke-linecap="round"/>
</g>
<g filter="url(#filter1_d_1276_659)">
<path d="M107 150.5L9 5L209.5 150.5H1403C1482.2 150.5 1501.33 215.833 1501 248.5V452C1501 528.4 1435.67 549.166 1403 550H107C31.8 550 10.3333 484.666 9 452V248.5C9 182.1 74.3333 155.5 107 150.5Z" fill="#FF2828"/>
<path d="M107 150.5L9 5L209.5 150.5H1403C1482.2 150.5 1501.33 215.833 1501 248.5V452C1501 528.4 1435.67 549.166 1403 550H107C31.8 550 10.3333 484.666 9 452V248.5C9 182.1 74.3333 155.5 107 150.5Z" stroke="black" stroke-width="10" stroke-linecap="round"/>
</g>
<mask id="path-3-outside-1_1276_659" maskUnits="userSpaceOnUse" x="312" y="245.5" width="900" height="221" fill="black">
<rect fill="white" x="312" y="245.5" width="900" height="221"/>
<path d="M313.521 463.5V248.656H371.749C387.374 248.656 398.727 252.481 405.807 260.131C412.968 267.699 416.549 280.232 416.549 297.729V307.128C416.549 317.219 414.718 325.398 411.056 331.664C407.475 337.93 401.982 342.04 394.576 343.993C404.26 346.435 410.73 352.172 413.985 361.205C417.322 370.157 418.99 381.103 418.99 394.042C418.99 407.958 417.688 420.124 415.084 430.541C412.48 440.958 407.76 449.055 400.924 454.833C394.088 460.611 384.363 463.5 371.749 463.5H313.521ZM355.514 329.589H364.303C368.29 329.589 370.854 328.043 371.993 324.95C373.132 321.858 373.702 318.155 373.702 313.842V292.235C373.702 285.318 370.65 281.859 364.547 281.859H355.514V329.589ZM359.786 425.658C370.935 425.658 376.51 420.368 376.51 409.789V382.934C376.51 376.83 375.574 372.029 373.702 368.529C371.912 364.949 368.494 363.158 363.448 363.158H355.514V425.414C357.304 425.577 358.728 425.658 359.786 425.658ZM431.197 463.5V248.656H472.701V463.5H431.197ZM534.103 465.453C503.422 465.453 488.082 443.48 488.082 399.535V306.884C488.082 266.763 505.66 246.703 540.816 246.703C555.302 246.703 566.41 249.633 574.142 255.492C581.873 261.27 587.203 269.734 590.133 280.883C593.062 292.032 594.527 305.622 594.527 321.654H552.535V302.611C552.535 297.973 551.884 294.107 550.582 291.015C549.361 287.841 546.757 286.254 542.77 286.254C537.805 286.254 534.509 287.922 532.882 291.259C531.336 294.595 530.562 298.257 530.562 302.245V406.371C530.562 412.149 531.295 416.869 532.76 420.531C534.306 424.112 537.276 425.902 541.671 425.902C546.228 425.902 549.239 424.112 550.704 420.531C552.25 416.869 553.023 412.068 553.023 406.127V375.487H541.549V338.378H594.039V463.5H576.827L569.503 445.434C562.016 458.78 550.216 465.453 534.103 465.453ZM669.723 463.5V248.656H727.95C743.575 248.656 754.928 252.481 762.008 260.131C769.169 267.699 772.75 280.232 772.75 297.729V307.128C772.75 317.219 770.919 325.398 767.257 331.664C763.676 337.93 758.183 342.04 750.777 343.993C760.462 346.435 766.931 352.172 770.187 361.205C773.523 370.157 775.191 381.103 775.191 394.042C775.191 407.958 773.889 420.124 771.285 430.541C768.681 440.958 763.961 449.055 757.125 454.833C750.289 460.611 740.564 463.5 727.95 463.5H669.723ZM711.715 329.589H720.504C724.492 329.589 727.055 328.043 728.194 324.95C729.334 321.858 729.903 318.155 729.903 313.842V292.235C729.903 285.318 726.852 281.859 720.748 281.859H711.715V329.589ZM715.987 425.658C727.136 425.658 732.711 420.368 732.711 409.789V382.934C732.711 376.83 731.775 372.029 729.903 368.529C728.113 364.949 724.695 363.158 719.649 363.158H711.715V425.414C713.505 425.577 714.929 425.658 715.987 425.658ZM783.492 463.5L804.244 248.656H877.12L897.506 463.5H856.856L853.805 428.832H827.926L825.24 463.5H783.492ZM830.978 394.53H850.509L841.109 285.277H839.156L830.978 394.53ZM910.689 463.5V248.656H953.658V426.879H997.848V463.5H910.689ZM1010.05 463.5V248.656H1053.02V426.879H1097.21V463.5H1010.05ZM1160.45 465.453C1140.83 465.453 1126.67 460.57 1117.96 450.805C1109.34 441.039 1105.03 425.495 1105.03 404.174V383.178H1147.51V410.033C1147.51 414.997 1148.24 418.904 1149.7 421.752C1151.25 424.519 1153.89 425.902 1157.64 425.902C1161.54 425.902 1164.23 424.763 1165.69 422.484C1167.24 420.206 1168.01 416.462 1168.01 411.254C1168.01 404.662 1167.36 399.169 1166.06 394.774C1164.76 390.299 1162.48 386.067 1159.22 382.079C1156.05 378.01 1151.62 373.29 1145.92 367.919L1126.63 349.608C1112.23 336.018 1105.03 320.474 1105.03 302.978C1105.03 284.667 1109.26 270.71 1117.72 261.107C1126.27 251.505 1138.59 246.703 1154.71 246.703C1174.4 246.703 1188.36 251.952 1196.58 262.45C1204.88 272.948 1209.03 288.899 1209.03 310.302H1165.33V295.531C1165.33 292.602 1164.47 290.323 1162.76 288.695C1161.14 287.068 1158.9 286.254 1156.05 286.254C1152.63 286.254 1150.11 287.23 1148.48 289.184C1146.94 291.055 1146.16 293.497 1146.16 296.508C1146.16 299.519 1146.98 302.774 1148.6 306.273C1150.23 309.773 1153.45 313.801 1158.25 318.358L1183.03 342.162C1187.99 346.882 1192.55 351.887 1196.7 357.177C1200.85 362.385 1204.19 368.489 1206.71 375.487C1209.23 382.405 1210.49 390.868 1210.49 400.878C1210.49 421.06 1206.75 436.889 1199.26 448.363C1191.86 459.757 1178.92 465.453 1160.45 465.453Z"/>
</mask>
<path d="M313.521 463.5V248.656H371.749C387.374 248.656 398.727 252.481 405.807 260.131C412.968 267.699 416.549 280.232 416.549 297.729V307.128C416.549 317.219 414.718 325.398 411.056 331.664C407.475 337.93 401.982 342.04 394.576 343.993C404.26 346.435 410.73 352.172 413.985 361.205C417.322 370.157 418.99 381.103 418.99 394.042C418.99 407.958 417.688 420.124 415.084 430.541C412.48 440.958 407.76 449.055 400.924 454.833C394.088 460.611 384.363 463.5 371.749 463.5H313.521ZM355.514 329.589H364.303C368.29 329.589 370.854 328.043 371.993 324.95C373.132 321.858 373.702 318.155 373.702 313.842V292.235C373.702 285.318 370.65 281.859 364.547 281.859H355.514V329.589ZM359.786 425.658C370.935 425.658 376.51 420.368 376.51 409.789V382.934C376.51 376.83 375.574 372.029 373.702 368.529C371.912 364.949 368.494 363.158 363.448 363.158H355.514V425.414C357.304 425.577 358.728 425.658 359.786 425.658ZM431.197 463.5V248.656H472.701V463.5H431.197ZM534.103 465.453C503.422 465.453 488.082 443.48 488.082 399.535V306.884C488.082 266.763 505.66 246.703 540.816 246.703C555.302 246.703 566.41 249.633 574.142 255.492C581.873 261.27 587.203 269.734 590.133 280.883C593.062 292.032 594.527 305.622 594.527 321.654H552.535V302.611C552.535 297.973 551.884 294.107 550.582 291.015C549.361 287.841 546.757 286.254 542.77 286.254C537.805 286.254 534.509 287.922 532.882 291.259C531.336 294.595 530.562 298.257 530.562 302.245V406.371C530.562 412.149 531.295 416.869 532.76 420.531C534.306 424.112 537.276 425.902 541.671 425.902C546.228 425.902 549.239 424.112 550.704 420.531C552.25 416.869 553.023 412.068 553.023 406.127V375.487H541.549V338.378H594.039V463.5H576.827L569.503 445.434C562.016 458.78 550.216 465.453 534.103 465.453ZM669.723 463.5V248.656H727.95C743.575 248.656 754.928 252.481 762.008 260.131C769.169 267.699 772.75 280.232 772.75 297.729V307.128C772.75 317.219 770.919 325.398 767.257 331.664C763.676 337.93 758.183 342.04 750.777 343.993C760.462 346.435 766.931 352.172 770.187 361.205C773.523 370.157 775.191 381.103 775.191 394.042C775.191 407.958 773.889 420.124 771.285 430.541C768.681 440.958 763.961 449.055 757.125 454.833C750.289 460.611 740.564 463.5 727.95 463.5H669.723ZM711.715 329.589H720.504C724.492 329.589 727.055 328.043 728.194 324.95C729.334 321.858 729.903 318.155 729.903 313.842V292.235C729.903 285.318 726.852 281.859 720.748 281.859H711.715V329.589ZM715.987 425.658C727.136 425.658 732.711 420.368 732.711 409.789V382.934C732.711 376.83 731.775 372.029 729.903 368.529C728.113 364.949 724.695 363.158 719.649 363.158H711.715V425.414C713.505 425.577 714.929 425.658 715.987 425.658ZM783.492 463.5L804.244 248.656H877.12L897.506 463.5H856.856L853.805 428.832H827.926L825.24 463.5H783.492ZM830.978 394.53H850.509L841.109 285.277H839.156L830.978 394.53ZM910.689 463.5V248.656H953.658V426.879H997.848V463.5H910.689ZM1010.05 463.5V248.656H1053.02V426.879H1097.21V463.5H1010.05ZM1160.45 465.453C1140.83 465.453 1126.67 460.57 1117.96 450.805C1109.34 441.039 1105.03 425.495 1105.03 404.174V383.178H1147.51V410.033C1147.51 414.997 1148.24 418.904 1149.7 421.752C1151.25 424.519 1153.89 425.902 1157.64 425.902C1161.54 425.902 1164.23 424.763 1165.69 422.484C1167.24 420.206 1168.01 416.462 1168.01 411.254C1168.01 404.662 1167.36 399.169 1166.06 394.774C1164.76 390.299 1162.48 386.067 1159.22 382.079C1156.05 378.01 1151.62 373.29 1145.92 367.919L1126.63 349.608C1112.23 336.018 1105.03 320.474 1105.03 302.978C1105.03 284.667 1109.26 270.71 1117.72 261.107C1126.27 251.505 1138.59 246.703 1154.71 246.703C1174.4 246.703 1188.36 251.952 1196.58 262.45C1204.88 272.948 1209.03 288.899 1209.03 310.302H1165.33V295.531C1165.33 292.602 1164.47 290.323 1162.76 288.695C1161.14 287.068 1158.9 286.254 1156.05 286.254C1152.63 286.254 1150.11 287.23 1148.48 289.184C1146.94 291.055 1146.16 293.497 1146.16 296.508C1146.16 299.519 1146.98 302.774 1148.6 306.273C1150.23 309.773 1153.45 313.801 1158.25 318.358L1183.03 342.162C1187.99 346.882 1192.55 351.887 1196.7 357.177C1200.85 362.385 1204.19 368.489 1206.71 375.487C1209.23 382.405 1210.49 390.868 1210.49 400.878C1210.49 421.06 1206.75 436.889 1199.26 448.363C1191.86 459.757 1178.92 465.453 1160.45 465.453Z" fill="black"/>
<path d="M313.521 463.5H312.521V464.5H313.521V463.5ZM313.521 248.656V247.656H312.521V248.656H313.521ZM405.807 260.131L405.073 260.81L405.08 260.818L405.807 260.131ZM411.056 331.664L410.192 331.159L410.187 331.168L411.056 331.664ZM394.576 343.993L394.321 343.026L394.332 344.963L394.576 343.993ZM413.985 361.205L413.045 361.544L413.048 361.554L413.985 361.205ZM415.084 430.541L414.114 430.298L415.084 430.541ZM355.514 329.589H354.514V330.589H355.514V329.589ZM355.514 281.859V280.859H354.514V281.859H355.514ZM373.702 368.529L372.808 368.977L372.814 368.989L372.82 369.001L373.702 368.529ZM355.514 363.158V362.158H354.514V363.158H355.514ZM355.514 425.414H354.514V426.327L355.423 426.41L355.514 425.414ZM313.521 463.5H314.521V248.656H313.521H312.521V463.5H313.521ZM313.521 248.656V249.656H371.749V248.656V247.656H313.521V248.656ZM371.749 248.656V249.656C387.235 249.656 398.259 253.448 405.073 260.81L405.807 260.131L406.541 259.452C399.194 251.514 387.514 247.656 371.749 247.656V248.656ZM405.807 260.131L405.08 260.818C411.979 268.109 415.549 280.325 415.549 297.729H416.549H417.549C417.549 280.138 413.957 267.289 406.533 259.444L405.807 260.131ZM416.549 297.729H415.549V307.128H416.549H417.549V297.729H416.549ZM416.549 307.128H415.549C415.549 317.108 413.737 325.095 410.192 331.159L411.056 331.664L411.919 332.169C415.699 325.701 417.549 317.33 417.549 307.128H416.549ZM411.056 331.664L410.187 331.168C406.749 337.186 401.485 341.137 394.321 343.026L394.576 343.993L394.831 344.96C402.478 342.943 408.201 338.675 411.924 332.16L411.056 331.664ZM394.576 343.993L394.332 344.963C403.709 347.327 409.907 352.839 413.045 361.544L413.985 361.205L414.926 360.866C411.553 351.505 404.812 345.542 394.821 343.024L394.576 343.993ZM413.985 361.205L413.048 361.554C416.331 370.363 417.99 381.182 417.99 394.042H418.99H419.99C419.99 381.023 418.312 369.951 414.922 360.856L413.985 361.205ZM418.99 394.042H417.99C417.99 407.899 416.693 419.98 414.114 430.298L415.084 430.541L416.054 430.784C418.683 420.268 419.99 408.017 419.99 394.042H418.99ZM415.084 430.541L414.114 430.298C411.55 440.553 406.924 448.452 400.278 454.069L400.924 454.833L401.569 455.597C408.595 449.658 413.409 441.362 416.054 430.784L415.084 430.541ZM400.924 454.833L400.278 454.069C393.684 459.643 384.222 462.5 371.749 462.5V463.5V464.5C384.504 464.5 394.491 461.579 401.569 455.597L400.924 454.833ZM371.749 463.5V462.5H313.521V463.5V464.5H371.749V463.5ZM355.514 329.589V330.589H364.303V329.589V328.589H355.514V329.589ZM364.303 329.589V330.589C366.42 330.589 368.251 330.179 369.733 329.285C371.229 328.383 372.292 327.032 372.932 325.296L371.993 324.95L371.055 324.604C370.555 325.96 369.767 326.929 368.7 327.573C367.617 328.226 366.173 328.589 364.303 328.589V329.589ZM371.993 324.95L372.932 325.296C374.122 322.064 374.702 318.238 374.702 313.842H373.702H372.702C372.702 318.071 372.143 321.651 371.055 324.604L371.993 324.95ZM373.702 313.842H374.702V292.235H373.702H372.702V313.842H373.702ZM373.702 292.235H374.702C374.702 288.651 373.914 285.776 372.163 283.792C370.391 281.783 367.788 280.859 364.547 280.859V281.859V282.859C367.41 282.859 369.384 283.665 370.663 285.115C371.964 286.589 372.702 288.902 372.702 292.235H373.702ZM364.547 281.859V280.859H355.514V281.859V282.859H364.547V281.859ZM355.514 281.859H354.514V329.589H355.514H356.514V281.859H355.514ZM359.786 425.658V426.658C365.502 426.658 369.975 425.303 373.017 422.416C376.069 419.52 377.51 415.247 377.51 409.789H376.51H375.51C375.51 414.911 374.163 418.572 371.641 420.966C369.108 423.368 365.219 424.658 359.786 424.658V425.658ZM376.51 409.789H377.51V382.934H376.51H375.51V409.789H376.51ZM376.51 382.934H377.51C377.51 376.746 376.564 371.76 374.584 368.058L373.702 368.529L372.82 369.001C374.584 372.298 375.51 376.914 375.51 382.934H376.51ZM373.702 368.529L374.597 368.082C372.59 364.069 368.755 362.158 363.448 362.158V363.158V364.158C368.233 364.158 371.234 365.828 372.808 368.977L373.702 368.529ZM363.448 363.158V362.158H355.514V363.158V364.158H363.448V363.158ZM355.514 363.158H354.514V425.414H355.514H356.514V363.158H355.514ZM355.514 425.414L355.423 426.41C357.226 426.574 358.684 426.658 359.786 426.658V425.658V424.658C358.772 424.658 357.382 424.58 355.604 424.418L355.514 425.414ZM431.197 463.5H430.197V464.5H431.197V463.5ZM431.197 248.656V247.656H430.197V248.656H431.197ZM472.701 248.656H473.701V247.656H472.701V248.656ZM472.701 463.5V464.5H473.701V463.5H472.701ZM431.197 463.5H432.197V248.656H431.197H430.197V463.5H431.197ZM431.197 248.656V249.656H472.701V248.656V247.656H431.197V248.656ZM472.701 248.656H471.701V463.5H472.701H473.701V248.656H472.701ZM472.701 463.5V462.5H431.197V463.5V464.5H472.701V463.5ZM574.142 255.492L573.538 256.289L573.543 256.293L574.142 255.492ZM594.527 321.654V322.654H595.527V321.654H594.527ZM552.535 321.654H551.535V322.654H552.535V321.654ZM550.582 291.015L549.649 291.374L549.654 291.388L549.66 291.403L550.582 291.015ZM532.882 291.259L531.983 290.82L531.979 290.829L531.975 290.838L532.882 291.259ZM532.76 420.531L531.831 420.903L531.836 420.915L531.842 420.928L532.76 420.531ZM550.704 420.531L549.783 420.142L549.779 420.153L550.704 420.531ZM553.023 375.487H554.023V374.487H553.023V375.487ZM541.549 375.487H540.549V376.487H541.549V375.487ZM541.549 338.378V337.378H540.549V338.378H541.549ZM594.039 338.378H595.039V337.378H594.039V338.378ZM594.039 463.5V464.5H595.039V463.5H594.039ZM576.827 463.5L575.9 463.876L576.154 464.5H576.827V463.5ZM569.503 445.434L570.43 445.058L569.648 443.131L568.631 444.944L569.503 445.434ZM534.103 465.453V464.453C519.034 464.453 507.861 459.078 500.407 448.401C492.908 437.659 489.082 421.422 489.082 399.535H488.082H487.082C487.082 421.593 490.926 438.315 498.767 449.546C506.654 460.842 518.49 466.453 534.103 466.453V465.453ZM488.082 399.535H489.082V306.884H488.082H487.082V399.535H488.082ZM488.082 306.884H489.082C489.082 286.948 493.452 272.182 502.018 262.407C510.561 252.658 523.429 247.703 540.816 247.703V246.703V245.703C523.047 245.703 509.548 250.779 500.514 261.089C491.501 271.374 487.082 286.699 487.082 306.884H488.082ZM540.816 246.703V247.703C555.187 247.703 566.047 250.612 573.538 256.289L574.142 255.492L574.746 254.695C566.774 248.653 555.418 245.703 540.816 245.703V246.703ZM574.142 255.492L573.543 256.293C581.06 261.911 586.282 270.162 589.166 281.137L590.133 280.883L591.1 280.629C588.124 269.305 582.686 260.63 574.74 254.691L574.142 255.492ZM590.133 280.883L589.166 281.137C592.067 292.178 593.527 305.677 593.527 321.654H594.527H595.527C595.527 305.567 594.058 291.886 591.1 280.629L590.133 280.883ZM594.527 321.654V320.654H552.535V321.654V322.654H594.527V321.654ZM552.535 321.654H553.535V302.611H552.535H551.535V321.654H552.535ZM552.535 302.611H553.535C553.535 297.887 552.873 293.879 551.504 290.627L550.582 291.015L549.66 291.403C550.895 294.335 551.535 298.058 551.535 302.611H552.535ZM550.582 291.015L551.515 290.656C550.835 288.888 549.746 287.512 548.234 286.59C546.734 285.676 544.892 285.254 542.77 285.254V286.254V287.254C544.635 287.254 546.089 287.625 547.193 288.298C548.285 288.963 549.108 289.968 549.649 291.374L550.582 291.015ZM542.77 286.254V285.254C537.574 285.254 533.836 287.022 531.983 290.82L532.882 291.259L533.781 291.697C535.183 288.822 538.036 287.254 542.77 287.254V286.254ZM532.882 291.259L531.975 290.838C530.362 294.318 529.562 298.125 529.562 302.245H530.562H531.562C531.562 298.39 532.309 294.873 533.789 291.679L532.882 291.259ZM530.562 302.245H529.562V406.371H530.562H531.562V302.245H530.562ZM530.562 406.371H529.562C529.562 412.222 530.303 417.081 531.831 420.903L532.76 420.531L533.688 420.16C532.287 416.657 531.562 412.076 531.562 406.371H530.562ZM532.76 420.531L531.842 420.928C532.687 422.885 533.945 424.4 535.631 425.416C537.309 426.427 539.34 426.902 541.671 426.902V425.902V424.902C539.608 424.902 537.956 424.482 536.663 423.703C535.379 422.929 534.379 421.759 533.678 420.135L532.76 420.531ZM541.671 425.902V426.902C544.077 426.902 546.158 426.43 547.858 425.419C549.57 424.401 550.824 422.879 551.63 420.91L550.704 420.531L549.779 420.153C549.119 421.764 548.135 422.928 546.836 423.7C545.525 424.48 543.823 424.902 541.671 424.902V425.902ZM550.704 420.531L551.625 420.92C553.243 417.09 554.023 412.141 554.023 406.127H553.023H552.023C552.023 411.994 551.258 416.649 549.783 420.142L550.704 420.531ZM553.023 406.127H554.023V375.487H553.023H552.023V406.127H553.023ZM553.023 375.487V374.487H541.549V375.487V376.487H553.023V375.487ZM541.549 375.487H542.549V338.378H541.549H540.549V375.487H541.549ZM541.549 338.378V339.378H594.039V338.378V337.378H541.549V338.378ZM594.039 338.378H593.039V463.5H594.039H595.039V338.378H594.039ZM594.039 463.5V462.5H576.827V463.5V464.5H594.039V463.5ZM576.827 463.5L577.754 463.124L570.43 445.058L569.503 445.434L568.576 445.809L575.9 463.876L576.827 463.5ZM569.503 445.434L568.631 444.944C561.332 457.955 549.878 464.453 534.103 464.453V465.453V466.453C550.554 466.453 562.7 459.605 570.375 445.923L569.503 445.434ZM669.723 463.5H668.723V464.5H669.723V463.5ZM669.723 248.656V247.656H668.723V248.656H669.723ZM762.008 260.131L761.274 260.81L761.281 260.818L762.008 260.131ZM767.257 331.664L766.393 331.159L766.389 331.168L767.257 331.664ZM750.777 343.993L750.522 343.026L750.533 344.963L750.777 343.993ZM770.187 361.205L769.246 361.544L769.249 361.554L770.187 361.205ZM771.285 430.541L770.315 430.298L771.285 430.541ZM711.715 329.589H710.715V330.589H711.715V329.589ZM711.715 281.859V280.859H710.715V281.859H711.715ZM729.903 368.529L729.009 368.977L729.015 368.989L729.022 369.001L729.903 368.529ZM711.715 363.158V362.158H710.715V363.158H711.715ZM711.715 425.414H710.715V426.327L711.624 426.41L711.715 425.414ZM669.723 463.5H670.723V248.656H669.723H668.723V463.5H669.723ZM669.723 248.656V249.656H727.95V248.656V247.656H669.723V248.656ZM727.95 248.656V249.656C743.436 249.656 754.46 253.448 761.274 260.81L762.008 260.131L762.742 259.452C755.395 251.514 743.715 247.656 727.95 247.656V248.656ZM762.008 260.131L761.281 260.818C768.181 268.109 771.75 280.325 771.75 297.729H772.75H773.75C773.75 280.138 770.158 267.289 762.734 259.444L762.008 260.131ZM772.75 297.729H771.75V307.128H772.75H773.75V297.729H772.75ZM772.75 307.128H771.75C771.75 317.108 769.938 325.095 766.393 331.159L767.257 331.664L768.12 332.169C771.9 325.701 773.75 317.33 773.75 307.128H772.75ZM767.257 331.664L766.389 331.168C762.95 337.186 757.686 341.137 750.522 343.026L750.777 343.993L751.032 344.96C758.68 342.943 764.403 338.675 768.125 332.16L767.257 331.664ZM750.777 343.993L750.533 344.963C759.91 347.327 766.109 352.839 769.246 361.544L770.187 361.205L771.127 360.866C767.754 351.505 761.013 345.542 751.022 343.024L750.777 343.993ZM770.187 361.205L769.249 361.554C772.533 370.363 774.191 381.182 774.191 394.042H775.191H776.191C776.191 381.023 774.514 369.951 771.124 360.856L770.187 361.205ZM775.191 394.042H774.191C774.191 407.899 772.895 419.98 770.315 430.298L771.285 430.541L772.255 430.784C774.884 420.268 776.191 408.017 776.191 394.042H775.191ZM771.285 430.541L770.315 430.298C767.751 440.553 763.125 448.452 756.479 454.069L757.125 454.833L757.771 455.597C764.797 449.658 769.611 441.362 772.255 430.784L771.285 430.541ZM757.125 454.833L756.479 454.069C749.886 459.643 740.423 462.5 727.95 462.5V463.5V464.5C740.705 464.5 750.693 461.579 757.771 455.597L757.125 454.833ZM727.95 463.5V462.5H669.723V463.5V464.5H727.95V463.5ZM711.715 329.589V330.589H720.504V329.589V328.589H711.715V329.589ZM720.504 329.589V330.589C722.621 330.589 724.453 330.179 725.934 329.285C727.43 328.383 728.493 327.032 729.133 325.296L728.194 324.95L727.256 324.604C726.756 325.96 725.968 326.929 724.901 327.573C723.818 328.226 722.374 328.589 720.504 328.589V329.589ZM728.194 324.95L729.133 325.296C730.323 322.064 730.903 318.238 730.903 313.842H729.903H728.903C728.903 318.071 728.344 321.651 727.256 324.604L728.194 324.95ZM729.903 313.842H730.903V292.235H729.903H728.903V313.842H729.903ZM729.903 292.235H730.903C730.903 288.651 730.115 285.776 728.364 283.792C726.592 281.783 723.989 280.859 720.748 280.859V281.859V282.859C723.611 282.859 725.585 283.665 726.865 285.115C728.165 286.589 728.903 288.902 728.903 292.235H729.903ZM720.748 281.859V280.859H711.715V281.859V282.859H720.748V281.859ZM711.715 281.859H710.715V329.589H711.715H712.715V281.859H711.715ZM715.987 425.658V426.658C721.703 426.658 726.176 425.303 729.218 422.416C732.27 419.52 733.711 415.247 733.711 409.789H732.711H731.711C731.711 414.911 730.364 418.572 727.842 420.966C725.309 423.368 721.42 424.658 715.987 424.658V425.658ZM732.711 409.789H733.711V382.934H732.711H731.711V409.789H732.711ZM732.711 382.934H733.711C733.711 376.746 732.765 371.76 730.785 368.058L729.903 368.529L729.022 369.001C730.785 372.298 731.711 376.914 731.711 382.934H732.711ZM729.903 368.529L730.798 368.082C728.791 364.069 724.956 362.158 719.649 362.158V363.158V364.158C724.434 364.158 727.435 365.828 729.009 368.977L729.903 368.529ZM719.649 363.158V362.158H711.715V363.158V364.158H719.649V363.158ZM711.715 363.158H710.715V425.414H711.715H712.715V363.158H711.715ZM711.715 425.414L711.624 426.41C713.427 426.574 714.885 426.658 715.987 426.658V425.658V424.658C714.973 424.658 713.583 424.58 711.805 424.418L711.715 425.414ZM783.492 463.5L782.497 463.404L782.391 464.5H783.492V463.5ZM804.244 248.656V247.656H803.336L803.249 248.56L804.244 248.656ZM877.12 248.656L878.116 248.562L878.03 247.656H877.12V248.656ZM897.506 463.5V464.5H898.605L898.501 463.406L897.506 463.5ZM856.856 463.5L855.86 463.588L855.941 464.5H856.856V463.5ZM853.805 428.832L854.801 428.744L854.721 427.832H853.805V428.832ZM827.926 428.832V427.832H827L826.929 428.755L827.926 428.832ZM825.24 463.5V464.5H826.166L826.237 463.577L825.24 463.5ZM830.978 394.53L829.98 394.456L829.9 395.53H830.978V394.53ZM850.509 394.53V395.53H851.599L851.505 394.445L850.509 394.53ZM841.109 285.277L842.106 285.192L842.027 284.277H841.109V285.277ZM839.156 285.277V284.277H838.228L838.159 285.203L839.156 285.277ZM783.492 463.5L784.488 463.596L805.24 248.752L804.244 248.656L803.249 248.56L782.497 463.404L783.492 463.5ZM804.244 248.656V249.656H877.12V248.656V247.656H804.244V248.656ZM877.12 248.656L876.125 248.751L896.51 463.594L897.506 463.5L898.501 463.406L878.116 248.562L877.12 248.656ZM897.506 463.5V462.5H856.856V463.5V464.5H897.506V463.5ZM856.856 463.5L857.853 463.412L854.801 428.744L853.805 428.832L852.809 428.92L855.86 463.588L856.856 463.5ZM853.805 428.832V427.832H827.926V428.832V429.832H853.805V428.832ZM827.926 428.832L826.929 428.755L824.243 463.423L825.24 463.5L826.237 463.577L828.923 428.909L827.926 428.832ZM825.24 463.5V462.5H783.492V463.5V464.5H825.24V463.5ZM830.978 394.53V395.53H850.509V394.53V393.53H830.978V394.53ZM850.509 394.53L851.505 394.445L842.106 285.192L841.109 285.277L840.113 285.363L849.512 394.616L850.509 394.53ZM841.109 285.277V284.277H839.156V285.277V286.277H841.109V285.277ZM839.156 285.277L838.159 285.203L829.98 394.456L830.978 394.53L831.975 394.605L840.153 285.352L839.156 285.277ZM910.689 463.5H909.689V464.5H910.689V463.5ZM910.689 248.656V247.656H909.689V248.656H910.689ZM953.658 248.656H954.658V247.656H953.658V248.656ZM953.658 426.879H952.658V427.879H953.658V426.879ZM997.848 426.879H998.848V425.879H997.848V426.879ZM997.848 463.5V464.5H998.848V463.5H997.848ZM910.689 463.5H911.689V248.656H910.689H909.689V463.5H910.689ZM910.689 248.656V249.656H953.658V248.656V247.656H910.689V248.656ZM953.658 248.656H952.658V426.879H953.658H954.658V248.656H953.658ZM953.658 426.879V427.879H997.848V426.879V425.879H953.658V426.879ZM997.848 426.879H996.848V463.5H997.848H998.848V426.879H997.848ZM997.848 463.5V462.5H910.689V463.5V464.5H997.848V463.5ZM1010.05 463.5H1009.05V464.5H1010.05V463.5ZM1010.05 248.656V247.656H1009.05V248.656H1010.05ZM1053.02 248.656H1054.02V247.656H1053.02V248.656ZM1053.02 426.879H1052.02V427.879H1053.02V426.879ZM1097.21 426.879H1098.21V425.879H1097.21V426.879ZM1097.21 463.5V464.5H1098.21V463.5H1097.21ZM1010.05 463.5H1011.05V248.656H1010.05H1009.05V463.5H1010.05ZM1010.05 248.656V249.656H1053.02V248.656V247.656H1010.05V248.656ZM1053.02 248.656H1052.02V426.879H1053.02H1054.02V248.656H1053.02ZM1053.02 426.879V427.879H1097.21V426.879V425.879H1053.02V426.879ZM1097.21 426.879H1096.21V463.5H1097.21H1098.21V426.879H1097.21ZM1097.21 463.5V462.5H1010.05V463.5V464.5H1097.21V463.5ZM1117.96 450.805L1117.22 451.467L1117.22 451.47L1117.96 450.805ZM1105.03 383.178V382.178H1104.03V383.178H1105.03ZM1147.51 383.178H1148.51V382.178H1147.51V383.178ZM1149.7 421.752L1148.81 422.209L1148.82 422.225L1148.83 422.24L1149.7 421.752ZM1165.69 422.484L1164.87 421.923L1164.86 421.933L1164.85 421.944L1165.69 422.484ZM1166.06 394.774L1165.1 395.054L1165.1 395.059L1166.06 394.774ZM1159.22 382.079L1158.44 382.694L1158.44 382.703L1158.45 382.711L1159.22 382.079ZM1145.92 367.919L1145.23 368.644L1145.23 368.647L1145.92 367.919ZM1126.63 349.608L1127.32 348.883L1127.32 348.881L1126.63 349.608ZM1117.72 261.107L1116.97 260.443L1116.97 260.446L1117.72 261.107ZM1196.58 262.45L1195.79 263.067L1195.79 263.07L1196.58 262.45ZM1209.03 310.302V311.302H1210.03V310.302H1209.03ZM1165.33 310.302H1164.33V311.302H1165.33V310.302ZM1162.76 288.695L1162.06 289.402L1162.07 289.411L1162.07 289.419L1162.76 288.695ZM1148.48 289.184L1147.71 288.543L1147.71 288.547L1148.48 289.184ZM1158.25 318.358L1158.94 317.637L1158.94 317.633L1158.25 318.358ZM1183.03 342.162L1182.34 342.883L1182.34 342.887L1183.03 342.162ZM1196.7 357.177L1195.91 357.794L1195.92 357.8L1196.7 357.177ZM1206.71 375.487L1205.77 375.826L1205.77 375.83L1206.71 375.487ZM1199.26 448.363L1198.43 447.817L1198.43 447.818L1199.26 448.363ZM1160.45 465.453V464.453C1140.97 464.453 1127.15 459.604 1118.71 450.139L1117.96 450.805L1117.22 451.47C1126.19 461.536 1140.69 466.453 1160.45 466.453V465.453ZM1117.96 450.805L1118.71 450.143C1110.32 440.645 1106.03 425.397 1106.03 404.174H1105.03H1104.03C1104.03 425.594 1108.35 441.433 1117.22 451.467L1117.96 450.805ZM1105.03 404.174H1106.03V383.178H1105.03H1104.03V404.174H1105.03ZM1105.03 383.178V384.178H1147.51V383.178V382.178H1105.03V383.178ZM1147.51 383.178H1146.51V410.033H1147.51H1148.51V383.178H1147.51ZM1147.51 410.033H1146.51C1146.51 415.077 1147.25 419.163 1148.81 422.209L1149.7 421.752L1150.59 421.295C1149.23 418.645 1148.51 414.918 1148.51 410.033H1147.51ZM1149.7 421.752L1148.83 422.24C1150.59 425.386 1153.61 426.902 1157.64 426.902V425.902V424.902C1154.18 424.902 1151.91 423.652 1150.58 421.264L1149.7 421.752ZM1157.64 425.902V426.902C1161.72 426.902 1164.81 425.704 1166.54 423.025L1165.69 422.484L1164.85 421.944C1163.65 423.822 1161.37 424.902 1157.64 424.902V425.902ZM1165.69 422.484L1166.52 423.046C1168.24 420.509 1169.01 416.511 1169.01 411.254H1168.01H1167.01C1167.01 416.414 1166.24 419.902 1164.87 421.923L1165.69 422.484ZM1168.01 411.254H1169.01C1169.01 404.604 1168.36 399.008 1167.02 394.49L1166.06 394.774L1165.1 395.059C1166.37 399.33 1167.01 404.72 1167.01 411.254H1168.01ZM1166.06 394.774L1167.02 394.495C1165.68 389.877 1163.33 385.527 1160 381.447L1159.22 382.079L1158.45 382.711C1161.63 386.606 1163.84 390.72 1165.1 395.054L1166.06 394.774ZM1159.22 382.079L1160.01 381.464C1156.8 377.34 1152.32 372.581 1146.6 367.191L1145.92 367.919L1145.23 368.647C1150.91 373.999 1155.31 378.68 1158.44 382.694L1159.22 382.079ZM1145.92 367.919L1146.61 367.194L1127.32 348.883L1126.63 349.608L1125.94 350.334L1145.23 368.644L1145.92 367.919ZM1126.63 349.608L1127.32 348.881C1113.09 335.452 1106.03 320.161 1106.03 302.978H1105.03H1104.03C1104.03 320.787 1111.37 336.584 1125.95 350.336L1126.63 349.608ZM1105.03 302.978H1106.03C1106.03 284.807 1110.23 271.124 1118.47 261.769L1117.72 261.107L1116.97 260.446C1108.29 270.297 1104.03 284.527 1104.03 302.978H1105.03ZM1117.72 261.107L1118.47 261.772C1126.78 252.435 1138.8 247.703 1154.71 247.703V246.703V245.703C1138.39 245.703 1125.75 250.575 1116.97 260.443L1117.72 261.107ZM1154.71 246.703V247.703C1174.25 247.703 1187.84 252.909 1195.79 263.067L1196.58 262.45L1197.37 261.834C1188.88 250.995 1174.56 245.703 1154.71 245.703V246.703ZM1196.58 262.45L1195.79 263.07C1203.89 273.314 1208.03 288.998 1208.03 310.302H1209.03H1210.03C1210.03 288.799 1205.86 272.583 1197.36 261.83L1196.58 262.45ZM1209.03 310.302V309.302H1165.33V310.302V311.302H1209.03V310.302ZM1165.33 310.302H1166.33V295.531H1165.33H1164.33V310.302H1165.33ZM1165.33 295.531H1166.33C1166.33 292.398 1165.41 289.831 1163.45 287.971L1162.76 288.695L1162.07 289.419C1163.54 290.815 1164.33 292.805 1164.33 295.531H1165.33ZM1162.76 288.695L1163.47 287.988C1161.61 286.131 1159.1 285.254 1156.05 285.254V286.254V287.254C1158.7 287.254 1160.66 288.005 1162.06 289.402L1162.76 288.695ZM1156.05 286.254V285.254C1152.44 285.254 1149.59 286.29 1147.71 288.543L1148.48 289.184L1149.25 289.824C1150.63 288.171 1152.82 287.254 1156.05 287.254V286.254ZM1148.48 289.184L1147.71 288.547C1145.98 290.638 1145.16 293.322 1145.16 296.508H1146.16H1147.16C1147.16 293.672 1147.89 291.473 1149.25 289.82L1148.48 289.184ZM1146.16 296.508H1145.16C1145.16 299.7 1146.03 303.1 1147.7 306.695L1148.6 306.273L1149.51 305.852C1147.93 302.449 1147.16 299.338 1147.16 296.508H1146.16ZM1148.6 306.273L1147.7 306.695C1149.4 310.362 1152.72 314.493 1157.56 319.084L1158.25 318.358L1158.94 317.633C1154.17 313.109 1151.06 309.184 1149.51 305.852L1148.6 306.273ZM1158.25 318.358L1157.56 319.08L1182.34 342.883L1183.03 342.162L1183.72 341.441L1158.94 317.637L1158.25 318.358ZM1183.03 342.162L1182.34 342.887C1187.27 347.574 1191.79 352.543 1195.91 357.794L1196.7 357.177L1197.49 356.559C1193.31 351.231 1188.72 346.19 1183.72 341.437L1183.03 342.162ZM1196.7 357.177L1195.92 357.8C1199.99 362.914 1203.28 368.919 1205.77 375.826L1206.71 375.487L1207.65 375.148C1205.1 368.059 1201.71 361.857 1197.48 356.554L1196.7 357.177ZM1206.71 375.487L1205.77 375.83C1208.24 382.606 1209.49 390.946 1209.49 400.878H1210.49H1211.49C1211.49 390.79 1210.22 382.203 1207.65 375.145L1206.71 375.487ZM1210.49 400.878H1209.49C1209.49 420.953 1205.77 436.565 1198.43 447.817L1199.26 448.363L1200.1 448.91C1207.73 437.213 1211.49 421.168 1211.49 400.878H1210.49ZM1199.26 448.363L1198.43 447.818C1191.27 458.831 1178.71 464.453 1160.45 464.453V465.453V466.453C1179.12 466.453 1192.45 460.682 1200.1 448.908L1199.26 448.363Z" fill="black" mask="url(#path-3-outside-1_1276_659)"/>
<defs>
<filter id="filter0_d_1276_659" x="10" y="10.9531" width="1510" height="562.047" filterUnits="userSpaceOnUse" color-interpolation-filters="sRGB">
<feFlood flood-opacity="0" result="BackgroundImageFix"/>
<feColorMatrix in="SourceAlpha" type="matrix" values="0 0 0 0 0 0 0 0 0 0 0 0 0 0 0 0 0 0 127 0" result="hardAlpha"/>
<feOffset dy="4"/>
<feGaussianBlur stdDeviation="2"/>
<feComposite in2="hardAlpha" operator="out"/>
<feColorMatrix type="matrix" values="0 0 0 0 0 0 0 0 0 0 0 0 0 0 0 0 0 0 0.25 0"/>
<feBlend mode="normal" in2="BackgroundImageFix" result="effect1_dropShadow_1276_659"/>
<feBlend mode="normal" in="SourceGraphic" in2="effect1_dropShadow_1276_659" result="shape"/>
</filter>
<filter id="filter1_d_1276_659" x="0" y="0.953125" width="1510" height="562.047" filterUnits="userSpaceOnUse" color-interpolation-filters="sRGB">
<feFlood flood-opacity="0" result="BackgroundImageFix"/>
<feColorMatrix in="SourceAlpha" type="matrix" values="0 0 0 0 0 0 0 0 0 0 0 0 0 0 0 0 0 0 127 0" result="hardAlpha"/>
<feOffset dy="4"/>
<feGaussianBlur stdDeviation="2"/>
<feComposite in2="hardAlpha" operator="out"/>
<feColorMatrix type="matrix" values="0 0 0 0 0 0 0 0 0 0 0 0 0 0 0 0 0 0 0.25 0"/>
<feBlend mode="normal" in2="BackgroundImageFix" result="effect1_dropShadow_1276_659"/>
<feBlend mode="normal" in="SourceGraphic" in2="effect1_dropShadow_1276_659" result="shape"/>
</filter>
</defs>
</svg>
