<svg width="1520" height="544" viewBox="0 0 1520 544" fill="none" xmlns="http://www.w3.org/2000/svg">
<g filter="url(#filter0_d_1276_671)">
<path d="M117 131.5L12 7L219.5 131.5H1413C1492.2 131.5 1511.33 196.833 1511 229.5V433C1511 509.4 1445.67 530.167 1413 531H117C41.8 531 20.3333 465.667 19 433V229.5C19 163.1 84.3333 136.5 117 131.5Z" fill="white"/>
<path d="M117 131.5L12 7L219.5 131.5H1413C1492.2 131.5 1511.33 196.833 1511 229.5V433C1511 509.4 1445.67 530.167 1413 531H117C41.8 531 20.3333 465.667 19 433V229.5C19 163.1 84.3333 136.5 117 131.5Z" stroke="white" stroke-width="10" stroke-linecap="round"/>
</g>
<g filter="url(#filter1_d_1276_671)">
<path d="M107 121.5L9 4.5L209.5 121.5H1403C1482.2 121.5 1501.33 186.834 1501 219.5V423C1501 499.4 1435.67 520.167 1403 521H107C31.8 521 10.3333 455.667 9 423V219.5C9 153.1 74.3333 126.5 107 121.5Z" fill="#080303"/>
<path d="M107 121.5L9 4.5L209.5 121.5H1403C1482.2 121.5 1501.33 186.834 1501 219.5V423C1501 499.4 1435.67 520.167 1403 521H107C31.8 521 10.3333 455.667 9 423V219.5C9 153.1 74.3333 126.5 107 121.5Z" stroke="black" stroke-width="10" stroke-linecap="round"/>
</g>
<path d="M429.568 439V224.156H471.072V439H429.568ZM539.432 440.953C522.26 440.953 509.118 435.785 500.003 425.45C490.97 415.034 486.453 400.019 486.453 380.406V278.355C486.453 259.964 490.929 246.007 499.881 236.485C508.914 226.964 522.098 222.203 539.432 222.203C556.766 222.203 569.909 226.964 578.86 236.485C587.894 246.007 592.41 259.964 592.41 278.355V380.406C592.41 400.019 587.853 415.034 578.738 425.45C569.705 435.785 556.603 440.953 539.432 440.953ZM539.798 401.402C546.308 401.402 549.563 395.095 549.563 382.481V277.623C549.563 267.044 546.39 261.754 540.042 261.754C532.881 261.754 529.3 267.166 529.3 277.989V382.726C529.3 389.399 530.114 394.2 531.741 397.13C533.369 399.978 536.054 401.402 539.798 401.402ZM659.427 440.953C641.523 440.953 628.34 435.948 619.876 425.938C611.412 415.847 607.181 401.036 607.181 381.505V224.156H648.929V379.796C648.929 383.377 649.132 386.835 649.539 390.172C649.946 393.427 650.882 396.113 652.347 398.229C653.812 400.344 656.172 401.402 659.427 401.402C662.763 401.402 665.164 400.385 666.629 398.351C668.094 396.235 668.989 393.508 669.314 390.172C669.721 386.835 669.925 383.377 669.925 379.796V224.156H711.673V381.505C711.673 401.036 707.441 415.847 698.978 425.938C690.514 435.948 677.33 440.953 659.427 440.953ZM786.746 439V224.156H829.715V402.379H873.904V439H786.746ZM937.381 440.953C920.21 440.953 907.067 435.785 897.952 425.45C888.919 415.034 884.402 400.019 884.402 380.406V278.355C884.402 259.964 888.878 246.007 897.83 236.485C906.863 226.964 920.047 222.203 937.381 222.203C954.715 222.203 967.858 226.964 976.81 236.485C985.843 246.007 990.359 259.964 990.359 278.355V380.406C990.359 400.019 985.802 415.034 976.688 425.45C967.654 435.785 954.552 440.953 937.381 440.953ZM937.747 401.402C944.257 401.402 947.513 395.095 947.513 382.481V277.623C947.513 267.044 944.339 261.754 937.991 261.754C930.83 261.754 927.249 267.166 927.249 277.989V382.726C927.249 389.399 928.063 394.2 929.69 397.13C931.318 399.978 934.004 401.402 937.747 401.402ZM1007.69 439V224.156H1050.66V402.379H1094.85V439H1007.69Z" fill="white"/>
<defs>
<filter id="filter0_d_1276_671" x="4.17773" y="2.71289" width="1515.83" height="541.287" filterUnits="userSpaceOnUse" color-interpolation-filters="sRGB">
<feFlood flood-opacity="0" result="BackgroundImageFix"/>
<feColorMatrix in="SourceAlpha" type="matrix" values="0 0 0 0 0 0 0 0 0 0 0 0 0 0 0 0 0 0 127 0" result="hardAlpha"/>
<feOffset dy="4"/>
<feGaussianBlur stdDeviation="2"/>
<feComposite in2="hardAlpha" operator="out"/>
<feColorMatrix type="matrix" values="0 0 0 0 0 0 0 0 0 0 0 0 0 0 0 0 0 0 0.25 0"/>
<feBlend mode="normal" in2="BackgroundImageFix" result="effect1_dropShadow_1276_671"/>
<feBlend mode="normal" in="SourceGraphic" in2="effect1_dropShadow_1276_671" result="shape"/>
</filter>
<filter id="filter1_d_1276_671" x="0" y="0.181641" width="1510" height="533.818" filterUnits="userSpaceOnUse" color-interpolation-filters="sRGB">
<feFlood flood-opacity="0" result="BackgroundImageFix"/>
<feColorMatrix in="SourceAlpha" type="matrix" values="0 0 0 0 0 0 0 0 0 0 0 0 0 0 0 0 0 0 127 0" result="hardAlpha"/>
<feOffset dy="4"/>
<feGaussianBlur stdDeviation="2"/>
<feComposite in2="hardAlpha" operator="out"/>
<feColorMatrix type="matrix" values="0 0 0 0 0 0 0 0 0 0 0 0 0 0 0 0 0 0 0.25 0"/>
<feBlend mode="normal" in2="BackgroundImageFix" result="effect1_dropShadow_1276_671"/>
<feBlend mode="normal" in="SourceGraphic" in2="effect1_dropShadow_1276_671" result="shape"/>
</filter>
</defs>
</svg>
