<svg width="1520" height="545" viewBox="0 0 1520 545" fill="none" xmlns="http://www.w3.org/2000/svg">
<g filter="url(#filter0_d_1276_667)">
<path d="M117 132.5L23.5 16.5L219.5 132.5H1413C1492.2 132.5 1511.33 197.833 1511 230.5V434C1511 510.4 1445.67 531.167 1413 532H117C41.8 532 20.3333 466.667 19 434V230.5C19 164.1 84.3333 137.5 117 132.5Z" fill="black"/>
<path d="M117 132.5L23.5 16.5L219.5 132.5H1413C1492.2 132.5 1511.33 197.833 1511 230.5V434C1511 510.4 1445.67 531.167 1413 532H117C41.8 532 20.3333 466.667 19 434V230.5C19 164.1 84.3333 137.5 117 132.5Z" stroke="black" stroke-width="10" stroke-linecap="round"/>
</g>
<g filter="url(#filter1_d_1276_667)">
<path d="M107 122.5L9 4.5L209.5 122.5H1403C1482.2 122.5 1501.33 187.833 1501 220.5V424C1501 500.4 1435.67 521.167 1403 522H107C31.8 522 10.3333 456.667 9 424V220.5C9 154.1 74.3333 127.5 107 122.5Z" fill="#EA3524"/>
<path d="M107 122.5L9 4.5L209.5 122.5H1403C1482.2 122.5 1501.33 187.833 1501 220.5V424C1501 500.4 1435.67 521.167 1403 522H107C31.8 522 10.3333 456.667 9 424V220.5C9 154.1 74.3333 127.5 107 122.5Z" stroke="black" stroke-width="10" stroke-linecap="round"/>
</g>
<path d="M352.514 189.333C349.085 172.797 360.066 171.095 365.985 172.311C382.64 173.283 396.191 185.685 400.885 191.764C402.926 195.412 405.416 204.287 399.048 210.61C392.68 216.932 384.557 230.266 381.292 236.142C384.557 235.94 395.252 235.413 411.907 234.926C432.725 234.319 463.952 230.063 474.973 223.984C485.995 217.905 493.342 227.024 503.139 236.142C512.936 245.261 508.038 259.243 505.588 261.675C503.139 264.107 492.73 280.52 490.281 290.247C487.832 299.974 459.054 351.647 457.217 355.902C455.38 360.158 453.543 357.118 470.075 374.748C486.607 392.378 471.912 414.263 467.014 419.126C462.115 423.989 454.155 422.166 448.645 418.518C443.134 414.871 435.174 400.888 431.5 397.849C428.561 395.417 425.377 397.241 424.153 398.457C393.783 434.932 334.349 463.099 308.428 472.623C301.081 476.068 285.038 481.377 279.65 475.055C274.262 468.732 282.712 462.693 287.61 460.464C331.695 442.47 383.537 389.338 403.947 365.021C392.925 347.391 353.126 320.035 348.228 316.388C343.329 312.74 348.84 303.013 352.514 301.798C355.454 300.825 363.535 303.013 367.209 304.229C397.824 312.132 414.356 326.722 419.254 330.37C424.153 334.017 424.765 334.017 425.377 334.017C432.725 332.072 448.849 291.058 455.992 270.794V261.675C434.562 264.917 388.762 270.915 377.006 268.97C365.249 267.025 357.82 271.807 355.575 274.441C339.655 291.463 269.241 357.726 260.057 352.863C252.709 348.972 256.995 341.11 260.057 337.665C286.386 323.683 356.8 210.002 352.514 189.333Z" fill="black"/>
<path d="M838.787 194.727C830.027 191.809 811.615 198.375 803.504 202.024C777.897 205.887 716.597 206.075 688.529 205.68L664.196 204.456C639.376 204.456 653.854 234.452 664.196 249.45C666.832 251.274 673.077 254.557 676.971 253.098C680.864 251.638 694.004 248.436 700.087 247.017C734.641 241.18 784.646 236.884 805.329 235.465C805.329 249.45 782.212 294.443 780.995 298.091C779.779 301.74 773.087 307.82 765.179 301.74C757.271 295.659 717.121 281.675 713.471 282.283C709.821 282.891 704.954 292.011 717.121 301.74C726.854 309.522 745.915 328.087 754.229 336.397C728.922 377.256 669.468 417.872 642.904 433.073C635.198 436.518 620.761 445.355 624.654 453.138C628.547 460.921 647.771 455.165 656.896 451.314C708.482 436.721 764.368 388.079 785.862 365.582C801.679 376.527 813.845 403.888 827.837 410.576C841.829 417.264 853.387 406.32 854.604 385.039C855.577 368.014 824.593 340.653 808.979 329.101C814.819 322.777 837.368 279.445 847.912 258.57C849.534 254.111 855.212 242.396 864.945 231.209C877.112 217.224 849.737 198.375 838.787 194.727Z" fill="black"/>
<path d="M1063.9 196.936C1046.94 183.681 1058.04 175.867 1065.71 173.617C1078.31 171.653 1097.61 174.844 1105.68 176.685C1110.93 177.912 1120.58 183.313 1117.19 195.095C1113.79 206.877 1117.79 228.233 1120.21 237.438C1129.5 235.801 1152.43 231.178 1169.87 225.778C1191.67 219.028 1200.75 221.482 1211.65 239.892C1222.55 258.302 1200.75 266.28 1186.82 265.666C1175.68 265.175 1142.62 270.78 1127.48 273.644C1128.49 286.326 1131.48 313.041 1135.35 318.441C1143.22 318.441 1189.25 305.554 1213.47 300.031C1237.69 294.508 1244.35 323.964 1244.96 329.487C1245.56 335.01 1240.11 346.056 1219.52 346.056C1198.93 346.056 1143.22 352.192 1142.01 355.261C1140.8 358.329 1150.49 421.536 1155.94 440.559C1161.39 459.583 1149.28 472.47 1145.65 474.924C1142.01 477.379 1132.32 478.606 1123.24 473.083C1115.97 468.665 1112.14 459.787 1111.13 455.901C1108.1 426.036 1101.08 365.815 1097.2 363.852C1092.36 361.397 1042.1 377.966 1036.65 378.58C1031.2 379.193 1016.66 389.626 1006.98 387.171C997.287 384.716 983.36 366.92 982.149 355.261C980.938 343.601 986.993 342.374 1005.16 342.374C1019.69 342.374 1069.75 332.555 1092.96 327.646L1085.09 282.849C1073.99 285.303 1048.03 290.949 1033.01 293.894C1014.24 297.576 1003.34 298.804 993.049 285.917C982.754 273.03 976.699 256.461 1008.19 255.847C1033.38 255.357 1065.51 248.688 1078.43 245.415C1075.04 211.541 1067.33 198.982 1063.9 196.936Z" fill="black"/>
<defs>
<filter id="filter0_d_1276_667" x="10" y="12.1973" width="1510" height="532.803" filterUnits="userSpaceOnUse" color-interpolation-filters="sRGB">
<feFlood flood-opacity="0" result="BackgroundImageFix"/>
<feColorMatrix in="SourceAlpha" type="matrix" values="0 0 0 0 0 0 0 0 0 0 0 0 0 0 0 0 0 0 127 0" result="hardAlpha"/>
<feOffset dy="4"/>
<feGaussianBlur stdDeviation="2"/>
<feComposite in2="hardAlpha" operator="out"/>
<feColorMatrix type="matrix" values="0 0 0 0 0 0 0 0 0 0 0 0 0 0 0 0 0 0 0.25 0"/>
<feBlend mode="normal" in2="BackgroundImageFix" result="effect1_dropShadow_1276_667"/>
<feBlend mode="normal" in="SourceGraphic" in2="effect1_dropShadow_1276_667" result="shape"/>
</filter>
<filter id="filter1_d_1276_667" x="0" y="0.19043" width="1510" height="534.81" filterUnits="userSpaceOnUse" color-interpolation-filters="sRGB">
<feFlood flood-opacity="0" result="BackgroundImageFix"/>
<feColorMatrix in="SourceAlpha" type="matrix" values="0 0 0 0 0 0 0 0 0 0 0 0 0 0 0 0 0 0 127 0" result="hardAlpha"/>
<feOffset dy="4"/>
<feGaussianBlur stdDeviation="2"/>
<feComposite in2="hardAlpha" operator="out"/>
<feColorMatrix type="matrix" values="0 0 0 0 0 0 0 0 0 0 0 0 0 0 0 0 0 0 0.25 0"/>
<feBlend mode="normal" in2="BackgroundImageFix" result="effect1_dropShadow_1276_667"/>
<feBlend mode="normal" in="SourceGraphic" in2="effect1_dropShadow_1276_667" result="shape"/>
</filter>
</defs>
</svg>
