<svg width="1520" height="573" viewBox="0 0 1520 573" fill="none" xmlns="http://www.w3.org/2000/svg">
<g filter="url(#filter0_d_1276_655)">
<path d="M117 160.5L19 15L219.5 160.5H1413C1492.2 160.5 1511.33 225.833 1511 258.5V462C1511 538.4 1445.67 559.167 1413 560H117C41.8 560 20.3333 494.667 19 462V258.5C19 192.1 84.3333 165.5 117 160.5Z" fill="black"/>
<path d="M117 160.5L19 15L219.5 160.5H1413C1492.2 160.5 1511.33 225.833 1511 258.5V462C1511 538.4 1445.67 559.167 1413 560H117C41.8 560 20.3333 494.667 19 462V258.5C19 192.1 84.3333 165.5 117 160.5Z" stroke="black" stroke-width="10" stroke-linecap="round"/>
</g>
<g filter="url(#filter1_d_1276_655)">
<path d="M107 150.5L9 5L209.5 150.5H1403C1482.2 150.5 1501.33 215.834 1501 248.5V452C1501 528.4 1435.67 549.167 1403 550H107C31.8 550 10.3333 484.667 9 452V248.5C9 182.1 74.3333 155.5 107 150.5Z" fill="#316967"/>
<path d="M107 150.5L9 5L209.5 150.5H1403C1482.2 150.5 1501.33 215.834 1501 248.5V452C1501 528.4 1435.67 549.167 1403 550H107C31.8 550 10.3333 484.667 9 452V248.5C9 182.1 74.3333 155.5 107 150.5Z" stroke="black" stroke-width="10" stroke-linecap="round"/>
</g>
<path d="M263.547 465.453C243.934 465.453 229.774 460.57 221.066 450.805C212.44 441.039 208.127 425.495 208.127 404.174V383.178H250.607V410.033C250.607 414.997 251.34 418.904 252.805 421.752C254.351 424.519 256.996 425.902 260.739 425.902C264.646 425.902 267.331 424.763 268.796 422.484C270.342 420.206 271.115 416.462 271.115 411.254C271.115 404.662 270.464 399.169 269.162 394.774C267.86 390.299 265.581 386.067 262.326 382.079C259.152 378.01 254.717 373.29 249.021 367.919L229.733 349.608C215.329 336.018 208.127 320.474 208.127 302.978C208.127 284.667 212.359 270.71 220.822 261.107C229.367 251.505 241.696 246.703 257.81 246.703C277.504 246.703 291.46 251.952 299.68 262.45C307.98 272.948 312.131 288.899 312.131 310.302H268.43V295.531C268.43 292.602 267.575 290.323 265.866 288.695C264.239 287.068 262.001 286.254 259.152 286.254C255.734 286.254 253.212 287.23 251.584 289.184C250.038 291.055 249.265 293.497 249.265 296.508C249.265 299.519 250.078 302.774 251.706 306.273C253.334 309.773 256.548 313.801 261.35 318.358L286.13 342.162C291.094 346.882 295.651 351.887 299.802 357.177C303.952 362.385 307.289 368.489 309.812 375.487C312.334 382.405 313.596 390.868 313.596 400.878C313.596 421.06 309.852 436.889 302.365 448.363C294.96 459.757 282.02 465.453 263.547 465.453ZM328 463.5V248.656H384.763C396.644 248.656 406.044 251.301 412.961 256.591C419.96 261.881 424.965 269.408 427.976 279.174C430.987 288.939 432.492 300.577 432.492 314.086C432.492 327.107 431.231 338.459 428.708 348.144C426.185 357.746 421.669 365.193 415.158 370.482C408.729 375.772 399.574 378.417 387.692 378.417H370.236V463.5H328ZM370.236 339.843H372.678C380.653 339.843 385.536 337.605 387.326 333.129C389.117 328.653 390.012 322.061 390.012 313.354C390.012 305.215 389.117 298.949 387.326 294.555C385.617 290.079 381.507 287.841 374.997 287.841H370.236V339.843ZM444.211 463.5V248.656H485.715V463.5H444.211ZM502.805 463.5V248.656H568.723C579.709 248.656 588.01 251.179 593.625 256.225C599.24 261.189 602.984 268.188 604.855 277.221C606.809 286.173 607.785 296.711 607.785 308.837C607.785 320.556 606.28 329.914 603.269 336.913C600.339 343.912 594.764 348.754 586.545 351.439C593.299 352.823 598.02 356.2 600.705 361.571C603.472 366.861 604.855 373.738 604.855 382.201V463.5H562.497V379.394C562.497 373.127 561.195 369.262 558.591 367.797C556.068 366.251 551.958 365.478 546.262 365.478V463.5H502.805ZM546.506 328.246H556.882C562.823 328.246 565.793 321.776 565.793 308.837C565.793 300.455 565.142 294.962 563.84 292.357C562.538 289.753 560.096 288.451 556.516 288.451H546.506V328.246ZM619.992 463.5V248.656H661.496V463.5H619.992ZM697.019 463.5V289.916H671.506V248.656H765.5V289.916H739.987V463.5H697.019ZM836.057 463.5V248.656H901.486L919.553 379.638L937.497 248.656H1003.54V463.5H964.23V308.715L939.572 463.5H900.998L874.875 308.715V463.5H836.057ZM1073.85 465.453C1056.68 465.453 1043.54 460.285 1034.42 449.95C1025.39 439.534 1020.87 424.519 1020.87 404.906V302.855C1020.87 284.464 1025.35 270.507 1034.3 260.985C1043.33 251.464 1056.52 246.703 1073.85 246.703C1091.18 246.703 1104.33 251.464 1113.28 260.985C1122.31 270.507 1126.83 284.464 1126.83 302.855V404.906C1126.83 424.519 1122.27 439.534 1113.16 449.95C1104.12 460.285 1091.02 465.453 1073.85 465.453ZM1074.22 425.902C1080.73 425.902 1083.98 419.595 1083.98 406.981V302.123C1083.98 291.544 1080.81 286.254 1074.46 286.254C1067.3 286.254 1063.72 291.666 1063.72 302.489V407.226C1063.72 413.899 1064.53 418.7 1066.16 421.63C1067.79 424.478 1070.47 425.902 1074.22 425.902ZM1195.43 465.453C1178.26 465.453 1165.12 460.285 1156 449.95C1146.97 439.534 1142.45 424.519 1142.45 404.906V302.855C1142.45 284.464 1146.93 270.507 1155.88 260.985C1164.91 251.464 1178.1 246.703 1195.43 246.703C1212.77 246.703 1225.91 251.464 1234.86 260.985C1243.89 270.507 1248.41 284.464 1248.41 302.855V404.906C1248.41 424.519 1243.85 439.534 1234.74 449.95C1225.71 460.285 1212.6 465.453 1195.43 465.453ZM1195.8 425.902C1202.31 425.902 1205.56 419.595 1205.56 406.981V302.123C1205.56 291.544 1202.39 286.254 1196.04 286.254C1188.88 286.254 1185.3 291.666 1185.3 302.489V407.226C1185.3 413.899 1186.11 418.7 1187.74 421.63C1189.37 424.478 1192.05 425.902 1195.8 425.902ZM1265.74 463.5V248.656H1309.93L1329.71 351.562V248.656H1371.21V463.5H1329.22L1307.74 356.078V463.5H1265.74Z" fill="white"/>
<defs>
<filter id="filter0_d_1276_655" x="10" y="10.9531" width="1510" height="562.047" filterUnits="userSpaceOnUse" color-interpolation-filters="sRGB">
<feFlood flood-opacity="0" result="BackgroundImageFix"/>
<feColorMatrix in="SourceAlpha" type="matrix" values="0 0 0 0 0 0 0 0 0 0 0 0 0 0 0 0 0 0 127 0" result="hardAlpha"/>
<feOffset dy="4"/>
<feGaussianBlur stdDeviation="2"/>
<feComposite in2="hardAlpha" operator="out"/>
<feColorMatrix type="matrix" values="0 0 0 0 0 0 0 0 0 0 0 0 0 0 0 0 0 0 0.25 0"/>
<feBlend mode="normal" in2="BackgroundImageFix" result="effect1_dropShadow_1276_655"/>
<feBlend mode="normal" in="SourceGraphic" in2="effect1_dropShadow_1276_655" result="shape"/>
</filter>
<filter id="filter1_d_1276_655" x="0" y="0.953125" width="1510" height="562.047" filterUnits="userSpaceOnUse" color-interpolation-filters="sRGB">
<feFlood flood-opacity="0" result="BackgroundImageFix"/>
<feColorMatrix in="SourceAlpha" type="matrix" values="0 0 0 0 0 0 0 0 0 0 0 0 0 0 0 0 0 0 127 0" result="hardAlpha"/>
<feOffset dy="4"/>
<feGaussianBlur stdDeviation="2"/>
<feComposite in2="hardAlpha" operator="out"/>
<feColorMatrix type="matrix" values="0 0 0 0 0 0 0 0 0 0 0 0 0 0 0 0 0 0 0.25 0"/>
<feBlend mode="normal" in2="BackgroundImageFix" result="effect1_dropShadow_1276_655"/>
<feBlend mode="normal" in="SourceGraphic" in2="effect1_dropShadow_1276_655" result="shape"/>
</filter>
</defs>
</svg>
