<svg width="1520" height="573" viewBox="0 0 1520 573" fill="none" xmlns="http://www.w3.org/2000/svg">
<g filter="url(#filter0_d_1276_663)">
<path d="M117 160.5L19 15L219.5 160.5H1413C1492.2 160.5 1511.33 225.833 1511 258.5V462C1511 538.4 1445.67 559.167 1413 560H117C41.8 560 20.3333 494.667 19 462V258.5C19 192.1 84.3333 165.5 117 160.5Z" fill="black"/>
<path d="M117 160.5L19 15L219.5 160.5H1413C1492.2 160.5 1511.33 225.833 1511 258.5V462C1511 538.4 1445.67 559.167 1413 560H117C41.8 560 20.3333 494.667 19 462V258.5C19 192.1 84.3333 165.5 117 160.5Z" stroke="black" stroke-width="10" stroke-linecap="round"/>
</g>
<g filter="url(#filter1_d_1276_663)">
<path d="M107 150.5L9 5L209.5 150.5H1403C1482.2 150.5 1501.33 215.833 1501 248.5V452C1501 528.4 1435.67 549.166 1403 550H107C31.8 550 10.3333 484.666 9 452V248.5C9 182.1 74.3333 155.5 107 150.5Z" fill="#5E281C"/>
<path d="M107 150.5L9 5L209.5 150.5H1403C1482.2 150.5 1501.33 215.833 1501 248.5V452C1501 528.4 1435.67 549.166 1403 550H107C31.8 550 10.3333 484.666 9 452V248.5C9 182.1 74.3333 155.5 107 150.5Z" stroke="black" stroke-width="10" stroke-linecap="round"/>
</g>
<path d="M104.954 463.5V289.916H79.4414V248.656H173.436V289.916H147.923V463.5H104.954ZM185.398 463.5V248.656H251.316C262.303 248.656 270.604 251.179 276.219 256.225C281.834 261.189 285.577 268.188 287.449 277.221C289.402 286.173 290.379 296.711 290.379 308.837C290.379 320.556 288.873 329.914 285.862 336.913C282.933 343.912 277.358 348.754 269.139 351.439C275.893 352.823 280.613 356.2 283.299 361.571C286.066 366.861 287.449 373.738 287.449 382.201V463.5H245.091V379.394C245.091 373.127 243.789 369.262 241.185 367.797C238.662 366.251 234.552 365.478 228.855 365.478V463.5H185.398ZM229.1 328.246H239.476C245.416 328.246 248.387 321.776 248.387 308.837C248.387 300.455 247.736 294.962 246.434 292.357C245.132 289.753 242.69 288.451 239.109 288.451H229.1V328.246ZM354.222 465.453C336.318 465.453 323.134 460.448 314.671 450.438C306.207 440.347 301.976 425.536 301.976 406.005V248.656H343.724V404.296C343.724 407.877 343.927 411.335 344.334 414.672C344.741 417.927 345.677 420.613 347.142 422.729C348.606 424.844 350.966 425.902 354.222 425.902C357.558 425.902 359.959 424.885 361.424 422.851C362.889 420.735 363.784 418.008 364.109 414.672C364.516 411.335 364.72 407.877 364.72 404.296V248.656H406.468V406.005C406.468 425.536 402.236 440.347 393.772 450.438C385.309 460.448 372.125 465.453 354.222 465.453ZM473.973 465.453C454.36 465.453 440.2 460.57 431.492 450.805C422.866 441.039 418.553 425.495 418.553 404.174V383.178H461.033V410.033C461.033 414.997 461.766 418.904 463.23 421.752C464.777 424.519 467.422 425.902 471.165 425.902C475.071 425.902 477.757 424.763 479.222 422.484C480.768 420.206 481.541 416.462 481.541 411.254C481.541 404.662 480.89 399.169 479.588 394.774C478.286 390.299 476.007 386.067 472.752 382.079C469.578 378.01 465.143 373.29 459.446 367.919L440.159 349.608C425.755 336.018 418.553 320.474 418.553 302.978C418.553 284.667 422.785 270.71 431.248 261.107C439.793 251.505 452.122 246.703 468.235 246.703C487.929 246.703 501.886 251.952 510.105 262.45C518.406 272.948 522.557 288.899 522.557 310.302H478.855V295.531C478.855 292.602 478.001 290.323 476.292 288.695C474.664 287.068 472.426 286.254 469.578 286.254C466.16 286.254 463.637 287.23 462.01 289.184C460.464 291.055 459.69 293.497 459.69 296.508C459.69 299.519 460.504 302.774 462.132 306.273C463.759 309.773 466.974 313.801 471.775 318.358L496.556 342.162C501.52 346.882 506.077 351.887 510.228 357.177C514.378 362.385 517.715 368.489 520.237 375.487C522.76 382.405 524.021 390.868 524.021 400.878C524.021 421.06 520.278 436.889 512.791 448.363C505.385 459.757 492.446 465.453 473.973 465.453ZM556.858 463.5V289.916H531.346V248.656H625.34V289.916H599.827V463.5H556.858ZM695.896 463.5V248.656H761.326L779.393 379.638L797.337 248.656H863.377V463.5H824.07V308.715L799.412 463.5H760.838L734.715 308.715V463.5H695.896ZM882.42 463.5V248.656H968.357V290.16H926.121V332.03H966.648V372.436H926.121V421.63H971.165V463.5H882.42ZM1044.04 463.5V248.656H1102.27C1117.89 248.656 1129.25 252.481 1136.33 260.131C1143.49 267.699 1147.07 280.232 1147.07 297.729V307.128C1147.07 317.219 1145.24 325.398 1141.58 331.664C1137.99 337.93 1132.5 342.04 1125.1 343.993C1134.78 346.435 1141.25 352.172 1144.5 361.205C1147.84 370.157 1149.51 381.103 1149.51 394.042C1149.51 407.958 1148.21 420.124 1145.6 430.541C1143 440.958 1138.28 449.055 1131.44 454.833C1124.61 460.611 1114.88 463.5 1102.27 463.5H1044.04ZM1086.03 329.589H1094.82C1098.81 329.589 1101.37 328.043 1102.51 324.95C1103.65 321.858 1104.22 318.155 1104.22 313.842V292.235C1104.22 285.318 1101.17 281.859 1095.07 281.859H1086.03V329.589ZM1090.31 425.658C1101.45 425.658 1107.03 420.368 1107.03 409.789V382.934C1107.03 376.83 1106.09 372.029 1104.22 368.529C1102.43 364.949 1099.01 363.158 1093.97 363.158H1086.03V425.414C1087.82 425.577 1089.25 425.658 1090.31 425.658ZM1163.67 463.5V248.656H1229.59C1240.57 248.656 1248.88 251.179 1254.49 256.225C1260.11 261.189 1263.85 268.188 1265.72 277.221C1267.67 286.173 1268.65 296.711 1268.65 308.837C1268.65 320.556 1267.14 329.914 1264.13 336.913C1261.2 343.912 1255.63 348.754 1247.41 351.439C1254.16 352.823 1258.88 356.2 1261.57 361.571C1264.34 366.861 1265.72 373.738 1265.72 382.201V463.5H1223.36V379.394C1223.36 373.127 1222.06 369.262 1219.46 367.797C1216.93 366.251 1212.82 365.478 1207.13 365.478V463.5H1163.67ZM1207.37 328.246H1217.75C1223.69 328.246 1226.66 321.776 1226.66 308.837C1226.66 300.455 1226.01 294.962 1224.71 292.357C1223.4 289.753 1220.96 288.451 1217.38 288.451H1207.37V328.246ZM1334.08 465.453C1316.91 465.453 1303.77 460.285 1294.65 449.95C1285.62 439.534 1281.1 424.519 1281.1 404.906V302.855C1281.1 284.464 1285.58 270.507 1294.53 260.985C1303.56 251.464 1316.75 246.703 1334.08 246.703C1351.41 246.703 1364.56 251.464 1373.51 260.985C1382.54 270.507 1387.06 284.464 1387.06 302.855V404.906C1387.06 424.519 1382.5 439.534 1373.39 449.95C1364.35 460.285 1351.25 465.453 1334.08 465.453ZM1334.45 425.902C1340.96 425.902 1344.21 419.595 1344.21 406.981V302.123C1344.21 291.544 1341.04 286.254 1334.69 286.254C1327.53 286.254 1323.95 291.666 1323.95 302.489V407.226C1323.95 413.899 1324.76 418.7 1326.39 421.63C1328.02 424.478 1330.7 425.902 1334.45 425.902ZM1410.13 405.028L1401.58 273.07H1445.29L1436.74 405.028H1410.13ZM1401.58 463.378V427.001H1445.29V463.378H1401.58Z" fill="white"/>
<defs>
<filter id="filter0_d_1276_663" x="10" y="10.9531" width="1510" height="562.047" filterUnits="userSpaceOnUse" color-interpolation-filters="sRGB">
<feFlood flood-opacity="0" result="BackgroundImageFix"/>
<feColorMatrix in="SourceAlpha" type="matrix" values="0 0 0 0 0 0 0 0 0 0 0 0 0 0 0 0 0 0 127 0" result="hardAlpha"/>
<feOffset dy="4"/>
<feGaussianBlur stdDeviation="2"/>
<feComposite in2="hardAlpha" operator="out"/>
<feColorMatrix type="matrix" values="0 0 0 0 0 0 0 0 0 0 0 0 0 0 0 0 0 0 0.25 0"/>
<feBlend mode="normal" in2="BackgroundImageFix" result="effect1_dropShadow_1276_663"/>
<feBlend mode="normal" in="SourceGraphic" in2="effect1_dropShadow_1276_663" result="shape"/>
</filter>
<filter id="filter1_d_1276_663" x="0" y="0.953125" width="1510" height="562.047" filterUnits="userSpaceOnUse" color-interpolation-filters="sRGB">
<feFlood flood-opacity="0" result="BackgroundImageFix"/>
<feColorMatrix in="SourceAlpha" type="matrix" values="0 0 0 0 0 0 0 0 0 0 0 0 0 0 0 0 0 0 127 0" result="hardAlpha"/>
<feOffset dy="4"/>
<feGaussianBlur stdDeviation="2"/>
<feComposite in2="hardAlpha" operator="out"/>
<feColorMatrix type="matrix" values="0 0 0 0 0 0 0 0 0 0 0 0 0 0 0 0 0 0 0.25 0"/>
<feBlend mode="normal" in2="BackgroundImageFix" result="effect1_dropShadow_1276_663"/>
<feBlend mode="normal" in="SourceGraphic" in2="effect1_dropShadow_1276_663" result="shape"/>
</filter>
</defs>
</svg>
