<svg width="1520" height="573" viewBox="0 0 1520 573" fill="none" xmlns="http://www.w3.org/2000/svg">
<g filter="url(#filter0_d_1276_729)">
<path d="M117 160.5L19 15L219.5 160.5H1413C1492.2 160.5 1511.33 225.834 1511 258.5V462C1511 538.4 1445.67 559.167 1413 560H117C41.8 560 20.3333 494.667 19 462V258.5C19 192.1 84.3333 165.5 117 160.5Z" fill="black"/>
<path d="M117 160.5L19 15L219.5 160.5H1413C1492.2 160.5 1511.33 225.834 1511 258.5V462C1511 538.4 1445.67 559.167 1413 560H117C41.8 560 20.3333 494.667 19 462V258.5C19 192.1 84.3333 165.5 117 160.5Z" stroke="black" stroke-width="10" stroke-linecap="round"/>
</g>
<g filter="url(#filter1_d_1276_729)">
<path d="M107 150.5L9 5L209.5 150.5H1403C1482.2 150.5 1501.33 215.833 1501 248.5V452C1501 528.4 1435.67 549.167 1403 550H107C31.8 550 10.3333 484.667 9 452V248.5C9 182.1 74.3333 155.5 107 150.5Z" fill="#D9D9D9"/>
<path d="M107 150.5L9 5L209.5 150.5H1403C1482.2 150.5 1501.33 215.833 1501 248.5V452C1501 528.4 1435.67 549.167 1403 550H107C31.8 550 10.3333 484.667 9 452V248.5C9 182.1 74.3333 155.5 107 150.5Z" stroke="black" stroke-width="10" stroke-linecap="round"/>
</g>
<path d="M206.522 468V397.321L172.221 253.156H214.823L226.786 325.91L238.749 253.156H281.229L247.05 397.321V468H206.522ZM343.363 469.953C326.192 469.953 313.049 464.785 303.935 454.45C294.901 444.034 290.385 429.019 290.385 409.406V307.355C290.385 288.964 294.861 275.007 303.812 265.485C312.846 255.964 326.029 251.203 343.363 251.203C360.697 251.203 373.84 255.964 382.792 265.485C391.825 275.007 396.342 288.964 396.342 307.355V409.406C396.342 429.019 391.785 444.034 382.67 454.45C373.637 464.785 360.535 469.953 343.363 469.953ZM343.729 430.402C350.24 430.402 353.495 424.095 353.495 411.481V306.623C353.495 296.044 350.321 290.754 343.974 290.754C336.812 290.754 333.231 296.166 333.231 306.989V411.726C333.231 418.399 334.045 423.2 335.673 426.13C337.3 428.978 339.986 430.402 343.729 430.402ZM413.676 468V253.156H456.156V339.216L476.176 253.156H519.389L495.341 351.545L524.394 468H479.838L456.4 363.996V468H413.676ZM525.98 468L546.732 253.156H619.608L639.994 468H599.345L596.293 433.332H570.414L567.729 468H525.98ZM573.466 399.03H592.997L583.598 289.777H581.645L573.466 399.03ZM651.225 468V253.156H692.729V468H651.225ZM768.412 468V253.156H825.175C837.056 253.156 846.456 255.801 853.373 261.091C860.372 266.381 865.377 273.908 868.388 283.674C871.399 293.439 872.904 305.077 872.904 318.586C872.904 331.607 871.643 342.959 869.12 352.644C866.597 362.246 862.081 369.693 855.57 374.982C849.141 380.272 839.986 382.917 828.104 382.917H810.648V468H768.412ZM810.648 344.343H813.09C821.065 344.343 825.948 342.105 827.738 337.629C829.529 333.153 830.424 326.561 830.424 317.854C830.424 309.715 829.529 303.449 827.738 299.055C826.029 294.579 821.92 292.341 815.409 292.341H810.648V344.343ZM936.259 469.953C918.355 469.953 905.172 464.948 896.708 454.938C888.244 444.847 884.013 430.036 884.013 410.505V253.156H925.761V408.796C925.761 412.377 925.964 415.835 926.371 419.172C926.778 422.427 927.714 425.113 929.179 427.229C930.644 429.344 933.004 430.402 936.259 430.402C939.595 430.402 941.996 429.385 943.461 427.351C944.926 425.235 945.821 422.508 946.146 419.172C946.553 415.835 946.757 412.377 946.757 408.796V253.156H988.505V410.505C988.505 430.036 984.273 444.847 975.81 454.938C967.346 464.948 954.162 469.953 936.259 469.953ZM1004.98 468V253.156H1070.41L1088.48 384.138L1106.42 253.156H1172.46V468H1133.16V313.215L1108.5 468H1069.93L1043.8 313.215V468H1004.98ZM1191.51 468V253.156H1248.27C1260.15 253.156 1269.55 255.801 1276.47 261.091C1283.47 266.381 1288.47 273.908 1291.48 283.674C1294.49 293.439 1296 305.077 1296 318.586C1296 331.607 1294.74 342.959 1292.22 352.644C1289.69 362.246 1285.18 369.693 1278.67 374.982C1272.24 380.272 1263.08 382.917 1251.2 382.917H1233.74V468H1191.51ZM1233.74 344.343H1236.19C1244.16 344.343 1249.04 342.105 1250.83 337.629C1252.62 333.153 1253.52 326.561 1253.52 317.854C1253.52 309.715 1252.62 303.449 1250.83 299.055C1249.12 294.579 1245.02 292.341 1238.5 292.341H1233.74V344.343ZM1315.41 409.528L1306.86 277.57H1350.57L1342.02 409.528H1315.41ZM1306.86 467.878V431.501H1350.57V467.878H1306.86Z" fill="black"/>
<defs>
<filter id="filter0_d_1276_729" x="10" y="10.9531" width="1510" height="562.047" filterUnits="userSpaceOnUse" color-interpolation-filters="sRGB">
<feFlood flood-opacity="0" result="BackgroundImageFix"/>
<feColorMatrix in="SourceAlpha" type="matrix" values="0 0 0 0 0 0 0 0 0 0 0 0 0 0 0 0 0 0 127 0" result="hardAlpha"/>
<feOffset dy="4"/>
<feGaussianBlur stdDeviation="2"/>
<feComposite in2="hardAlpha" operator="out"/>
<feColorMatrix type="matrix" values="0 0 0 0 0 0 0 0 0 0 0 0 0 0 0 0 0 0 0.25 0"/>
<feBlend mode="normal" in2="BackgroundImageFix" result="effect1_dropShadow_1276_729"/>
<feBlend mode="normal" in="SourceGraphic" in2="effect1_dropShadow_1276_729" result="shape"/>
</filter>
<filter id="filter1_d_1276_729" x="0" y="0.953125" width="1510" height="562.047" filterUnits="userSpaceOnUse" color-interpolation-filters="sRGB">
<feFlood flood-opacity="0" result="BackgroundImageFix"/>
<feColorMatrix in="SourceAlpha" type="matrix" values="0 0 0 0 0 0 0 0 0 0 0 0 0 0 0 0 0 0 127 0" result="hardAlpha"/>
<feOffset dy="4"/>
<feGaussianBlur stdDeviation="2"/>
<feComposite in2="hardAlpha" operator="out"/>
<feColorMatrix type="matrix" values="0 0 0 0 0 0 0 0 0 0 0 0 0 0 0 0 0 0 0.25 0"/>
<feBlend mode="normal" in2="BackgroundImageFix" result="effect1_dropShadow_1276_729"/>
<feBlend mode="normal" in="SourceGraphic" in2="effect1_dropShadow_1276_729" result="shape"/>
</filter>
</defs>
</svg>
