<svg width="741" height="612" viewBox="0 0 741 612" fill="none" xmlns="http://www.w3.org/2000/svg">
<path d="M225 11.8156C165.4 28.6156 165.167 114.482 172.5 155.316L278 113.816C279.333 99.9822 279.3 65.5156 268.5 38.3156C257.7 11.1156 235 9.31556 225 11.8156Z" fill="black"/>
<path d="M495.5 13.8156C463.1 23.4156 456.333 76.4822 457 101.816C500.5 156.982 589.7 257.616 598.5 218.816C609.5 170.316 597 133.816 589.5 104.316C582 74.8156 536 1.81555 495.5 13.8156Z" fill="black"/>
<path d="M11 264.816C29.1667 268.316 73.1 266.016 103.5 228.816C141.5 182.316 179.5 142.316 204.5 131.816C200 109.149 196.1 61.7156 216.5 53.3156C236.9 44.9156 250 87.1489 254 109.316C289.5 93.6489 385.9 71.7156 487.5 109.316C489.5 95.3156 498 67.9156 516 70.3156C538.5 73.3156 547.5 129.316 547.5 148.816C567 165.316 608 205.316 633 238.816C662.112 277.825 718.5 295.816 733 291.816C726.833 301.816 709.8 322.916 691 327.316C699.833 328.816 720.1 331.116 730.5 328.316C718.167 360.592 665.4 445.063 553 524.731C428.097 613.28 313.403 608.788 264 590.893C177.988 562.586 103.25 477.024 57.2322 405.325C48.6081 392.27 39.415 377.016 31.5006 361.316C20.8561 340.2 12.5244 318.277 11 299.816C17.5 303.649 33.1 310.716 43.5 308.316C24.7 291.916 14 272.482 11 264.816Z" fill="url(#paint0_linear_1093_380)"/>
<path d="M103.5 291.816C102.7 309.416 117.834 321.482 125.5 325.316C146.667 328.482 191.4 329.316 201 307.316C213 279.816 249 267.816 261.5 265.816C271.5 264.216 278.333 257.482 280.5 254.316C297 219.816 270.5 174.816 239.5 169.316C214.7 164.916 190.833 172.816 182 177.316C114.5 212.316 104.5 269.816 103.5 291.816Z" fill="black" fill-opacity="0.79"/>
<path d="M435.5 169.316C367.5 162.916 337.5 217.316 331 245.316C322 287.316 372.5 317.316 416.5 314.816C440.544 313.449 502.5 330.982 530.5 337.816C546.667 335.816 576.5 321.416 566.5 279.816C554 227.816 520.5 177.316 435.5 169.316Z" fill="black" fill-opacity="0.79"/>
<path d="M220.001 83.8156C218.001 84.2156 218.167 87.3156 218.501 88.8156L223.501 113.816C224.001 115.982 225.501 120.216 227.501 119.816C229.501 119.416 229.001 115.649 228.501 113.816L223.001 88.8156C222.834 86.9822 222.001 83.4156 220.001 83.8156Z" fill="#692F1E"/>
<path d="M197.501 305.815C121.501 283.415 109.167 344.482 112.501 377.815C114 390.816 116.424 398.227 121.466 411.315C125.977 422.05 141.6 449.149 168 471.667C192.667 493.593 232.667 517.816 308 525.816C465.5 529.816 527 418.815 534 405.815C541 392.815 558 344.815 537.5 316.315C517 287.815 478.5 290.315 434 310.815C398.4 327.215 358.167 328.315 342.5 326.815L319.5 322.815C306.667 328.149 278.7 338.015 269.5 334.815C260.3 331.615 217.667 314.149 197.501 305.815Z" fill="white"/>
<path d="M517.82 94.7702C519.85 94.7328 520.195 97.4055 520.114 98.7465L519.306 120.992C519.17 122.932 518.392 126.823 516.362 126.86C514.333 126.897 514.206 123.594 514.396 121.937L515.695 99.5975C515.558 98.004 515.791 94.8076 517.82 94.7702Z" fill="#692F1E"/>
<path d="M169 356.316C170.2 354.716 171.166 356.316 171.5 357.316C192 412.316 256 409.316 266.5 407.316C274.9 405.716 279.666 405.982 281 406.316C385.5 437.316 476 373.816 487 334.316C490 333.316 497.5 342.316 499.5 344.816C501.5 347.316 506.5 356.316 506.5 347.316C506.5 338.316 496 323.316 483.5 320.816C471 318.316 463 324.316 460.5 328.316C458 332.316 461.5 334.816 467 332.816C471.4 331.216 477.5 331.149 480 331.316C432.5 423.816 290 402.316 285.5 395.816C281.523 390.072 277.166 367.649 277 355.316C311.5 345.316 327 316.816 328.5 311.316C330 305.816 322 291.816 283.5 288.316C245 284.816 231 293.816 225 298.316C219 302.816 216.5 307.816 228 324.816C237.2 338.416 257.5 350.816 266.5 355.316C264.9 366.116 268.166 386.816 270 395.816C221.2 402.216 192 375.482 183.5 361.316C181.166 357.982 176.8 350.916 178 349.316C179.5 347.316 194 348.816 195.5 348.316C197 347.816 193.5 342.316 186.5 339.316C179.5 336.316 170.5 339.316 164.5 344.816C158.5 350.316 158 372.816 161 373.816C164 374.816 167.5 358.316 169 356.316Z" fill="black"/>
<path d="M359 267.184C357.4 271.584 361 272.351 363 272.184C364 271.517 365.7 270.484 364.5 271.684C363.3 272.884 364 273.184 364.5 273.184C400.5 266.684 480 268.184 489 269.684C496.2 270.884 498.334 269.184 498.5 268.184C500.5 248.684 464.5 234.135 420 234.684C379.5 235.184 361 261.684 359 267.184Z" fill="white"/>
<path d="M144.065 258.684C144.865 261.884 150.065 261.351 152.565 260.684C152.165 261.084 152.398 261.517 152.565 261.684C178.065 260.184 241.565 260.684 255.565 264.184C266.765 266.984 267.232 261.017 266.065 257.684C261.265 242.484 241.398 234.684 232.065 232.684C190.865 227.084 162.565 240.017 153.565 247.184C150.065 249.684 143.265 255.484 144.065 258.684Z" fill="white"/>
<path d="M144.065 258.684C144.865 261.884 150.065 261.351 152.565 260.684C172.63 246.053 187 242.316 191.5 241.316C196 240.316 217.5 238.316 213 241.316C208.5 244.316 204.5 256.816 204 258.816C203.6 260.416 204.699 260.944 205.298 261.008C227.255 261.338 248.221 262.348 255.565 264.184C266.765 266.984 267.232 261.017 266.065 257.684C261.265 242.484 241.398 234.684 232.065 232.684C190.865 227.084 162.565 240.017 153.565 247.184C150.065 249.684 143.265 255.484 144.065 258.684Z" fill="black"/>
<path d="M359 267.184C357.4 271.584 361 272.351 363 272.184C363.167 272.198 363.7 272.036 364.5 271.271C384.974 248.256 416.42 244.326 420.485 243.818L420.501 243.816C424.501 243.316 435.001 242.816 432.001 244.816C429.001 246.816 424.001 261.316 424.001 265.316C424.001 268.516 425.001 268.846 425.501 268.611C455.518 267.964 483.842 268.824 489 269.684C496.2 270.884 498.334 269.184 498.5 268.184C500.5 248.684 464.5 234.135 420 234.684C379.5 235.184 361 261.684 359 267.184Z" fill="black"/>
<defs>
<linearGradient id="paint0_linear_1093_380" x1="372" y1="52.2261" x2="372" y2="601.371" gradientUnits="userSpaceOnUse">
<stop stop-color="#EEA57F"/>
<stop offset="1" stop-color="#560000"/>
</linearGradient>
</defs>
</svg>
