<svg width="1000" height="349" viewBox="0 0 1000 349" fill="none" xmlns="http://www.w3.org/2000/svg">
<g clip-path="url(#clip0_1092_228)">
<rect width="1000" height="349" rx="35" fill="#080808"/>
<rect width="1088" height="113" transform="translate(-64 58)" fill="black"/>
<path d="M-40 71H-17.993C-11.0416 71 -5.78438 71.5439 -2.22134 72.6316C1.37663 73.7193 4.27596 75.9298 6.47666 79.2632C8.67736 82.5614 9.77771 87.8947 9.77771 95.2632C9.77771 100.246 8.99174 103.719 7.41982 105.684C5.88282 107.649 2.82629 109.158 -1.74976 110.211C3.35027 111.368 6.80851 113.298 8.62496 116C10.4414 118.667 11.3496 122.772 11.3496 128.316V136.211C11.3496 141.965 10.6859 146.228 9.35852 149C8.06605 151.772 5.98761 153.667 3.12321 154.684C0.258812 155.702 -5.60972 156.211 -14.4824 156.211H-40V71ZM-17.9406 85.5789V104.526C-16.9975 104.491 -16.2639 104.474 -15.7399 104.474C-13.5742 104.474 -12.1943 103.947 -11.6005 102.895C-11.0067 101.807 -10.7097 98.7368 -10.7097 93.6842C-10.7097 91.0175 -10.9543 89.1579 -11.4433 88.1053C-11.9324 87.0175 -12.5786 86.3333 -13.382 86.0526C-14.1505 85.7719 -15.6701 85.614 -17.9406 85.5789ZM-17.9406 117.789V141.632C-14.8317 141.526 -12.8581 141.035 -12.0197 140.158C-11.1464 139.281 -10.7097 137.123 -10.7097 133.684V125.737C-10.7097 122.088 -11.094 119.877 -11.8625 119.105C-12.631 118.333 -14.657 117.895 -17.9406 117.789Z" fill="#BC0000"/>
<path d="M69.4586 71V127.947C69.4586 134.404 69.249 138.947 68.8298 141.579C68.4106 144.175 67.1705 146.86 65.1096 149.632C63.0486 152.368 60.3239 154.456 56.9355 155.895C53.5821 157.298 49.6173 158 45.0413 158C39.9762 158 35.5049 157.158 31.6275 155.474C27.7501 153.789 24.8507 151.596 22.9295 148.895C21.0083 146.193 19.873 143.351 19.5237 140.368C19.1743 137.351 18.9997 131.035 18.9997 121.421V71H41.0591V134.895C41.0591 138.614 41.2512 141 41.6354 142.053C42.0546 143.07 42.8755 143.579 44.0981 143.579C45.4954 143.579 46.3862 143.018 46.7704 141.895C47.1896 140.737 47.3992 138.035 47.3992 133.789V71H69.4586Z" fill="#BC0000"/>
<path d="M125 71L108.914 125.368V156.211H88.4789V125.368L72.9692 71H93.2471C96.4258 87.5965 98.2074 98.7719 98.5916 104.526C99.8142 95.4386 101.858 84.2632 104.722 71H125Z" fill="#BC0000"/>
<path d="M135 71H157.007C163.958 71 169.216 71.5439 172.779 72.6316C176.377 73.7193 179.276 75.9298 181.477 79.2632C183.677 82.5614 184.778 87.8947 184.778 95.2632C184.778 100.246 183.992 103.719 182.42 105.684C180.883 107.649 177.826 109.158 173.25 110.211C178.35 111.368 181.809 113.298 183.625 116C185.441 118.667 186.35 122.772 186.35 128.316V136.211C186.35 141.965 185.686 146.228 184.359 149C183.066 151.772 180.988 153.667 178.123 154.684C175.259 155.702 169.39 156.211 160.518 156.211H135V71ZM157.059 85.5789V104.526C158.003 104.491 158.736 104.474 159.26 104.474C161.426 104.474 162.806 103.947 163.399 102.895C163.993 101.807 164.29 98.7368 164.29 93.6842C164.29 91.0175 164.046 89.1579 163.557 88.1053C163.068 87.0175 162.421 86.3333 161.618 86.0526C160.849 85.7719 159.33 85.614 157.059 85.5789ZM157.059 117.789V141.632C160.168 141.526 162.142 141.035 162.98 140.158C163.854 139.281 164.29 137.123 164.29 133.684V125.737C164.29 122.088 163.906 119.877 163.138 119.105C162.369 118.333 160.343 117.895 157.059 117.789Z" fill="#BC0000"/>
<path d="M244.459 71V127.947C244.459 134.404 244.249 138.947 243.83 141.579C243.411 144.175 242.171 146.86 240.11 149.632C238.049 152.368 235.324 154.456 231.936 155.895C228.582 157.298 224.617 158 220.041 158C214.976 158 210.505 157.158 206.628 155.474C202.75 153.789 199.851 151.596 197.93 148.895C196.008 146.193 194.873 143.351 194.524 140.368C194.174 137.351 194 131.035 194 121.421V71H216.059V134.895C216.059 138.614 216.251 141 216.635 142.053C217.055 143.07 217.876 143.579 219.098 143.579C220.495 143.579 221.386 143.018 221.77 141.895C222.19 140.737 222.399 138.035 222.399 133.789V71H244.459Z" fill="#BC0000"/>
<path d="M300 71L283.914 125.368V156.211H263.479V125.368L247.969 71H268.247C271.426 87.5965 273.207 98.7719 273.592 104.526C274.814 95.4386 276.858 84.2632 279.722 71H300Z" fill="#BC0000"/>
<path d="M310 71H332.007C338.958 71 344.216 71.5439 347.779 72.6316C351.377 73.7193 354.276 75.9298 356.477 79.2632C358.677 82.5614 359.778 87.8947 359.778 95.2632C359.778 100.246 358.992 103.719 357.42 105.684C355.883 107.649 352.826 109.158 348.25 110.211C353.35 111.368 356.809 113.298 358.625 116C360.441 118.667 361.35 122.772 361.35 128.316V136.211C361.35 141.965 360.686 146.228 359.359 149C358.066 151.772 355.988 153.667 353.123 154.684C350.259 155.702 344.39 156.211 335.518 156.211H310V71ZM332.059 85.5789V104.526C333.003 104.491 333.736 104.474 334.26 104.474C336.426 104.474 337.806 103.947 338.399 102.895C338.993 101.807 339.29 98.7368 339.29 93.6842C339.29 91.0175 339.046 89.1579 338.557 88.1053C338.068 87.0175 337.421 86.3333 336.618 86.0526C335.849 85.7719 334.33 85.614 332.059 85.5789ZM332.059 117.789V141.632C335.168 141.526 337.142 141.035 337.98 140.158C338.854 139.281 339.29 137.123 339.29 133.684V125.737C339.29 122.088 338.906 119.877 338.138 119.105C337.369 118.333 335.343 117.895 332.059 117.789Z" fill="#BC0000"/>
<path d="M419.459 71V127.947C419.459 134.404 419.249 138.947 418.83 141.579C418.411 144.175 417.171 146.86 415.11 149.632C413.049 152.368 410.324 154.456 406.936 155.895C403.582 157.298 399.617 158 395.041 158C389.976 158 385.505 157.158 381.628 155.474C377.75 153.789 374.851 151.596 372.93 148.895C371.008 146.193 369.873 143.351 369.524 140.368C369.174 137.351 369 131.035 369 121.421V71H391.059V134.895C391.059 138.614 391.251 141 391.635 142.053C392.055 143.07 392.876 143.579 394.098 143.579C395.495 143.579 396.386 143.018 396.77 141.895C397.19 140.737 397.399 138.035 397.399 133.789V71H419.459Z" fill="#BC0000"/>
<path d="M475 71L458.914 125.368V156.211H438.479V125.368L422.969 71H443.247C446.426 87.5965 448.207 98.7719 448.592 104.526C449.814 95.4386 451.858 84.2632 454.722 71H475Z" fill="#BC0000"/>
<path d="M485 71H507.007C513.958 71 519.216 71.5439 522.779 72.6316C526.377 73.7193 529.276 75.9298 531.477 79.2632C533.677 82.5614 534.778 87.8947 534.778 95.2632C534.778 100.246 533.992 103.719 532.42 105.684C530.883 107.649 527.826 109.158 523.25 110.211C528.35 111.368 531.809 113.298 533.625 116C535.441 118.667 536.35 122.772 536.35 128.316V136.211C536.35 141.965 535.686 146.228 534.359 149C533.066 151.772 530.988 153.667 528.123 154.684C525.259 155.702 519.39 156.211 510.518 156.211H485V71ZM507.059 85.5789V104.526C508.003 104.491 508.736 104.474 509.26 104.474C511.426 104.474 512.806 103.947 513.399 102.895C513.993 101.807 514.29 98.7368 514.29 93.6842C514.29 91.0175 514.046 89.1579 513.557 88.1053C513.068 87.0175 512.421 86.3333 511.618 86.0526C510.849 85.7719 509.33 85.614 507.059 85.5789ZM507.059 117.789V141.632C510.168 141.526 512.142 141.035 512.98 140.158C513.854 139.281 514.29 137.123 514.29 133.684V125.737C514.29 122.088 513.906 119.877 513.138 119.105C512.369 118.333 510.343 117.895 507.059 117.789Z" fill="#BC0000"/>
<path d="M594.459 71V127.947C594.459 134.404 594.249 138.947 593.83 141.579C593.411 144.175 592.171 146.86 590.11 149.632C588.049 152.368 585.324 154.456 581.936 155.895C578.582 157.298 574.617 158 570.041 158C564.976 158 560.505 157.158 556.628 155.474C552.75 153.789 549.851 151.596 547.93 148.895C546.008 146.193 544.873 143.351 544.524 140.368C544.174 137.351 544 131.035 544 121.421V71H566.059V134.895C566.059 138.614 566.251 141 566.635 142.053C567.055 143.07 567.876 143.579 569.098 143.579C570.495 143.579 571.386 143.018 571.77 141.895C572.19 140.737 572.399 138.035 572.399 133.789V71H594.459Z" fill="#BC0000"/>
<path d="M650 71L633.914 125.368V156.211H613.479V125.368L597.969 71H618.247C621.426 87.5965 623.207 98.7719 623.592 104.526C624.814 95.4386 626.858 84.2632 629.722 71H650Z" fill="#BC0000"/>
<path d="M660 71H682.007C688.958 71 694.216 71.5439 697.779 72.6316C701.377 73.7193 704.276 75.9298 706.477 79.2632C708.677 82.5614 709.778 87.8947 709.778 95.2632C709.778 100.246 708.992 103.719 707.42 105.684C705.883 107.649 702.826 109.158 698.25 110.211C703.35 111.368 706.809 113.298 708.625 116C710.441 118.667 711.35 122.772 711.35 128.316V136.211C711.35 141.965 710.686 146.228 709.359 149C708.066 151.772 705.988 153.667 703.123 154.684C700.259 155.702 694.39 156.211 685.518 156.211H660V71ZM682.059 85.5789V104.526C683.003 104.491 683.736 104.474 684.26 104.474C686.426 104.474 687.806 103.947 688.399 102.895C688.993 101.807 689.29 98.7368 689.29 93.6842C689.29 91.0175 689.046 89.1579 688.557 88.1053C688.068 87.0175 687.421 86.3333 686.618 86.0526C685.849 85.7719 684.33 85.614 682.059 85.5789ZM682.059 117.789V141.632C685.168 141.526 687.142 141.035 687.98 140.158C688.854 139.281 689.29 137.123 689.29 133.684V125.737C689.29 122.088 688.906 119.877 688.138 119.105C687.369 118.333 685.343 117.895 682.059 117.789Z" fill="#BC0000"/>
<path d="M769.459 71V127.947C769.459 134.404 769.249 138.947 768.83 141.579C768.411 144.175 767.171 146.86 765.11 149.632C763.049 152.368 760.324 154.456 756.936 155.895C753.582 157.298 749.617 158 745.041 158C739.976 158 735.505 157.158 731.628 155.474C727.75 153.789 724.851 151.596 722.93 148.895C721.008 146.193 719.873 143.351 719.524 140.368C719.174 137.351 719 131.035 719 121.421V71H741.059V134.895C741.059 138.614 741.251 141 741.635 142.053C742.055 143.07 742.876 143.579 744.098 143.579C745.495 143.579 746.386 143.018 746.77 141.895C747.19 140.737 747.399 138.035 747.399 133.789V71H769.459Z" fill="#BC0000"/>
<path d="M825 71L808.914 125.368V156.211H788.479V125.368L772.969 71H793.247C796.426 87.5965 798.207 98.7719 798.592 104.526C799.814 95.4386 801.858 84.2632 804.722 71H825Z" fill="#BC0000"/>
<path d="M835 71H857.007C863.958 71 869.216 71.5439 872.779 72.6316C876.377 73.7193 879.276 75.9298 881.477 79.2632C883.677 82.5614 884.778 87.8947 884.778 95.2632C884.778 100.246 883.992 103.719 882.42 105.684C880.883 107.649 877.826 109.158 873.25 110.211C878.35 111.368 881.809 113.298 883.625 116C885.441 118.667 886.35 122.772 886.35 128.316V136.211C886.35 141.965 885.686 146.228 884.359 149C883.066 151.772 880.988 153.667 878.123 154.684C875.259 155.702 869.39 156.211 860.518 156.211H835V71ZM857.059 85.5789V104.526C858.003 104.491 858.736 104.474 859.26 104.474C861.426 104.474 862.806 103.947 863.399 102.895C863.993 101.807 864.29 98.7368 864.29 93.6842C864.29 91.0175 864.046 89.1579 863.557 88.1053C863.068 87.0175 862.421 86.3333 861.618 86.0526C860.849 85.7719 859.33 85.614 857.059 85.5789ZM857.059 117.789V141.632C860.168 141.526 862.142 141.035 862.98 140.158C863.854 139.281 864.29 137.123 864.29 133.684V125.737C864.29 122.088 863.906 119.877 863.138 119.105C862.369 118.333 860.343 117.895 857.059 117.789Z" fill="#BC0000"/>
<path d="M944.459 71V127.947C944.459 134.404 944.249 138.947 943.83 141.579C943.411 144.175 942.171 146.86 940.11 149.632C938.049 152.368 935.324 154.456 931.936 155.895C928.582 157.298 924.617 158 920.041 158C914.976 158 910.505 157.158 906.628 155.474C902.75 153.789 899.851 151.596 897.93 148.895C896.008 146.193 894.873 143.351 894.524 140.368C894.174 137.351 894 131.035 894 121.421V71H916.059V134.895C916.059 138.614 916.251 141 916.635 142.053C917.055 143.07 917.876 143.579 919.098 143.579C920.495 143.579 921.386 143.018 921.77 141.895C922.19 140.737 922.399 138.035 922.399 133.789V71H944.459Z" fill="#BC0000"/>
<path d="M1000 71L983.914 125.368V156.211H963.479V125.368L947.969 71H968.247C971.426 87.5965 973.207 98.7719 973.592 104.526C974.814 95.4386 976.858 84.2632 979.722 71H1000Z" fill="#BC0000"/>
<rect width="1438" height="113" transform="translate(-173 178)" fill="black"/>
<path d="M-149 191H-126.993C-120.042 191 -114.784 191.544 -111.221 192.632C-107.623 193.719 -104.724 195.93 -102.523 199.263C-100.323 202.561 -99.2223 207.895 -99.2223 215.263C-99.2223 220.246 -100.008 223.719 -101.58 225.684C-103.117 227.649 -106.174 229.158 -110.75 230.211C-105.65 231.368 -102.191 233.298 -100.375 236C-98.5586 238.667 -97.6504 242.772 -97.6504 248.316V256.211C-97.6504 261.965 -98.3141 266.228 -99.6415 269C-100.934 271.772 -103.012 273.667 -105.877 274.684C-108.741 275.702 -114.61 276.211 -123.482 276.211H-149V191ZM-126.941 205.579V224.526C-125.997 224.491 -125.264 224.474 -124.74 224.474C-122.574 224.474 -121.194 223.947 -120.601 222.895C-120.007 221.807 -119.71 218.737 -119.71 213.684C-119.71 211.018 -119.954 209.158 -120.443 208.105C-120.932 207.018 -121.579 206.333 -122.382 206.053C-123.151 205.772 -124.67 205.614 -126.941 205.579ZM-126.941 237.789V261.632C-123.832 261.526 -121.858 261.035 -121.02 260.158C-120.146 259.281 -119.71 257.123 -119.71 253.684V245.737C-119.71 242.088 -120.094 239.877 -120.862 239.105C-121.631 238.333 -123.657 237.895 -126.941 237.789Z" fill="#BC0000"/>
<path d="M-39.5414 191V247.947C-39.5414 254.404 -39.751 258.947 -40.1702 261.579C-40.5894 264.175 -41.8295 266.86 -43.8904 269.632C-45.9514 272.368 -48.6761 274.456 -52.0645 275.895C-55.4179 277.298 -59.3827 278 -63.9587 278C-69.0238 278 -73.4951 277.158 -77.3725 275.474C-81.2499 273.789 -84.1493 271.596 -86.0705 268.895C-87.9917 266.193 -89.127 263.351 -89.4763 260.368C-89.8257 257.351 -90.0003 251.035 -90.0003 241.421V191H-67.9409V254.895C-67.9409 258.614 -67.7488 261 -67.3646 262.053C-66.9454 263.07 -66.1245 263.579 -64.9019 263.579C-63.5046 263.579 -62.6138 263.018 -62.2296 261.895C-61.8104 260.737 -61.6008 258.035 -61.6008 253.789V191H-39.5414Z" fill="#BC0000"/>
<path d="M16 191L-0.0860596 245.368V276.211H-20.5211V245.368L-36.0308 191H-15.7529C-12.5742 207.596 -10.7926 218.772 -10.4084 224.526C-9.18578 215.439 -7.14227 204.263 -4.27786 191H16Z" fill="#BC0000"/>
<path d="M26 191H48.007C54.9584 191 60.2156 191.544 63.7787 192.632C67.3766 193.719 70.276 195.93 72.4767 199.263C74.6774 202.561 75.7777 207.895 75.7777 215.263C75.7777 220.246 74.9917 223.719 73.4198 225.684C71.8828 227.649 68.8263 229.158 64.2502 230.211C69.3503 231.368 72.8085 233.298 74.625 236C76.4414 238.667 77.3496 242.772 77.3496 248.316V256.211C77.3496 261.965 76.6859 266.228 75.3585 269C74.0661 271.772 71.9876 273.667 69.1232 274.684C66.2588 275.702 60.3903 276.211 51.5176 276.211H26V191ZM48.0594 205.579V224.526C49.0025 224.491 49.7361 224.474 50.2601 224.474C52.4258 224.474 53.8057 223.947 54.3995 222.895C54.9933 221.807 55.2903 218.737 55.2903 213.684C55.2903 211.018 55.0457 209.158 54.5567 208.105C54.0676 207.018 53.4214 206.333 52.618 206.053C51.8495 205.772 50.3299 205.614 48.0594 205.579ZM48.0594 237.789V261.632C51.1683 261.526 53.1419 261.035 53.9803 260.158C54.8536 259.281 55.2903 257.123 55.2903 253.684V245.737C55.2903 242.088 54.906 239.877 54.1375 239.105C53.369 238.333 51.343 237.895 48.0594 237.789Z" fill="#BC0000"/>
<path d="M135.459 191V247.947C135.459 254.404 135.249 258.947 134.83 261.579C134.411 264.175 133.171 266.86 131.11 269.632C129.049 272.368 126.324 274.456 122.936 275.895C119.582 277.298 115.617 278 111.041 278C105.976 278 101.505 277.158 97.6275 275.474C93.7501 273.789 90.8507 271.596 88.9295 268.895C87.0083 266.193 85.873 263.351 85.5237 260.368C85.1743 257.351 84.9997 251.035 84.9997 241.421V191H107.059V254.895C107.059 258.614 107.251 261 107.635 262.053C108.055 263.07 108.876 263.579 110.098 263.579C111.495 263.579 112.386 263.018 112.77 261.895C113.19 260.737 113.399 258.035 113.399 253.789V191H135.459Z" fill="#BC0000"/>
<path d="M191 191L174.914 245.368V276.211H154.479V245.368L138.969 191H159.247C162.426 207.596 164.207 218.772 164.592 224.526C165.814 215.439 167.858 204.263 170.722 191H191Z" fill="#BC0000"/>
<path d="M201 191H223.007C229.958 191 235.216 191.544 238.779 192.632C242.377 193.719 245.276 195.93 247.477 199.263C249.677 202.561 250.778 207.895 250.778 215.263C250.778 220.246 249.992 223.719 248.42 225.684C246.883 227.649 243.826 229.158 239.25 230.211C244.35 231.368 247.809 233.298 249.625 236C251.441 238.667 252.35 242.772 252.35 248.316V256.211C252.35 261.965 251.686 266.228 250.359 269C249.066 271.772 246.988 273.667 244.123 274.684C241.259 275.702 235.39 276.211 226.518 276.211H201V191ZM223.059 205.579V224.526C224.003 224.491 224.736 224.474 225.26 224.474C227.426 224.474 228.806 223.947 229.399 222.895C229.993 221.807 230.29 218.737 230.29 213.684C230.29 211.018 230.046 209.158 229.557 208.105C229.068 207.018 228.421 206.333 227.618 206.053C226.849 205.772 225.33 205.614 223.059 205.579ZM223.059 237.789V261.632C226.168 261.526 228.142 261.035 228.98 260.158C229.854 259.281 230.29 257.123 230.29 253.684V245.737C230.29 242.088 229.906 239.877 229.138 239.105C228.369 238.333 226.343 237.895 223.059 237.789Z" fill="#BC0000"/>
<path d="M310.459 191V247.947C310.459 254.404 310.249 258.947 309.83 261.579C309.411 264.175 308.171 266.86 306.11 269.632C304.049 272.368 301.324 274.456 297.936 275.895C294.582 277.298 290.617 278 286.041 278C280.976 278 276.505 277.158 272.628 275.474C268.75 273.789 265.851 271.596 263.93 268.895C262.008 266.193 260.873 263.351 260.524 260.368C260.174 257.351 260 251.035 260 241.421V191H282.059V254.895C282.059 258.614 282.251 261 282.635 262.053C283.055 263.07 283.876 263.579 285.098 263.579C286.495 263.579 287.386 263.018 287.77 261.895C288.19 260.737 288.399 258.035 288.399 253.789V191H310.459Z" fill="#BC0000"/>
<path d="M366 191L349.914 245.368V276.211H329.479V245.368L313.969 191H334.247C337.426 207.596 339.207 218.772 339.592 224.526C340.814 215.439 342.858 204.263 345.722 191H366Z" fill="#BC0000"/>
<path d="M376 191H398.007C404.958 191 410.216 191.544 413.779 192.632C417.377 193.719 420.276 195.93 422.477 199.263C424.677 202.561 425.778 207.895 425.778 215.263C425.778 220.246 424.992 223.719 423.42 225.684C421.883 227.649 418.826 229.158 414.25 230.211C419.35 231.368 422.809 233.298 424.625 236C426.441 238.667 427.35 242.772 427.35 248.316V256.211C427.35 261.965 426.686 266.228 425.359 269C424.066 271.772 421.988 273.667 419.123 274.684C416.259 275.702 410.39 276.211 401.518 276.211H376V191ZM398.059 205.579V224.526C399.003 224.491 399.736 224.474 400.26 224.474C402.426 224.474 403.806 223.947 404.399 222.895C404.993 221.807 405.29 218.737 405.29 213.684C405.29 211.018 405.046 209.158 404.557 208.105C404.068 207.018 403.421 206.333 402.618 206.053C401.849 205.772 400.33 205.614 398.059 205.579ZM398.059 237.789V261.632C401.168 261.526 403.142 261.035 403.98 260.158C404.854 259.281 405.29 257.123 405.29 253.684V245.737C405.29 242.088 404.906 239.877 404.138 239.105C403.369 238.333 401.343 237.895 398.059 237.789Z" fill="#BC0000"/>
<path d="M485.459 191V247.947C485.459 254.404 485.249 258.947 484.83 261.579C484.411 264.175 483.171 266.86 481.11 269.632C479.049 272.368 476.324 274.456 472.936 275.895C469.582 277.298 465.617 278 461.041 278C455.976 278 451.505 277.158 447.628 275.474C443.75 273.789 440.851 271.596 438.93 268.895C437.008 266.193 435.873 263.351 435.524 260.368C435.174 257.351 435 251.035 435 241.421V191H457.059V254.895C457.059 258.614 457.251 261 457.635 262.053C458.055 263.07 458.876 263.579 460.098 263.579C461.495 263.579 462.386 263.018 462.77 261.895C463.19 260.737 463.399 258.035 463.399 253.789V191H485.459Z" fill="#BC0000"/>
<path d="M541 191L524.914 245.368V276.211H504.479V245.368L488.969 191H509.247C512.426 207.596 514.207 218.772 514.592 224.526C515.814 215.439 517.858 204.263 520.722 191H541Z" fill="#BC0000"/>
<path d="M551 191H573.007C579.958 191 585.216 191.544 588.779 192.632C592.377 193.719 595.276 195.93 597.477 199.263C599.677 202.561 600.778 207.895 600.778 215.263C600.778 220.246 599.992 223.719 598.42 225.684C596.883 227.649 593.826 229.158 589.25 230.211C594.35 231.368 597.809 233.298 599.625 236C601.441 238.667 602.35 242.772 602.35 248.316V256.211C602.35 261.965 601.686 266.228 600.359 269C599.066 271.772 596.988 273.667 594.123 274.684C591.259 275.702 585.39 276.211 576.518 276.211H551V191ZM573.059 205.579V224.526C574.003 224.491 574.736 224.474 575.26 224.474C577.426 224.474 578.806 223.947 579.399 222.895C579.993 221.807 580.29 218.737 580.29 213.684C580.29 211.018 580.046 209.158 579.557 208.105C579.068 207.018 578.421 206.333 577.618 206.053C576.849 205.772 575.33 205.614 573.059 205.579ZM573.059 237.789V261.632C576.168 261.526 578.142 261.035 578.98 260.158C579.854 259.281 580.29 257.123 580.29 253.684V245.737C580.29 242.088 579.906 239.877 579.138 239.105C578.369 238.333 576.343 237.895 573.059 237.789Z" fill="#BC0000"/>
<path d="M660.459 191V247.947C660.459 254.404 660.249 258.947 659.83 261.579C659.411 264.175 658.171 266.86 656.11 269.632C654.049 272.368 651.324 274.456 647.936 275.895C644.582 277.298 640.617 278 636.041 278C630.976 278 626.505 277.158 622.628 275.474C618.75 273.789 615.851 271.596 613.93 268.895C612.008 266.193 610.873 263.351 610.524 260.368C610.174 257.351 610 251.035 610 241.421V191H632.059V254.895C632.059 258.614 632.251 261 632.635 262.053C633.055 263.07 633.876 263.579 635.098 263.579C636.495 263.579 637.386 263.018 637.77 261.895C638.19 260.737 638.399 258.035 638.399 253.789V191H660.459Z" fill="#BC0000"/>
<path d="M716 191L699.914 245.368V276.211H679.479V245.368L663.969 191H684.247C687.426 207.596 689.207 218.772 689.592 224.526C690.814 215.439 692.858 204.263 695.722 191H716Z" fill="#BC0000"/>
<path d="M726 191H748.007C754.958 191 760.216 191.544 763.779 192.632C767.377 193.719 770.276 195.93 772.477 199.263C774.677 202.561 775.778 207.895 775.778 215.263C775.778 220.246 774.992 223.719 773.42 225.684C771.883 227.649 768.826 229.158 764.25 230.211C769.35 231.368 772.809 233.298 774.625 236C776.441 238.667 777.35 242.772 777.35 248.316V256.211C777.35 261.965 776.686 266.228 775.359 269C774.066 271.772 771.988 273.667 769.123 274.684C766.259 275.702 760.39 276.211 751.518 276.211H726V191ZM748.059 205.579V224.526C749.003 224.491 749.736 224.474 750.26 224.474C752.426 224.474 753.806 223.947 754.399 222.895C754.993 221.807 755.29 218.737 755.29 213.684C755.29 211.018 755.046 209.158 754.557 208.105C754.068 207.018 753.421 206.333 752.618 206.053C751.849 205.772 750.33 205.614 748.059 205.579ZM748.059 237.789V261.632C751.168 261.526 753.142 261.035 753.98 260.158C754.854 259.281 755.29 257.123 755.29 253.684V245.737C755.29 242.088 754.906 239.877 754.138 239.105C753.369 238.333 751.343 237.895 748.059 237.789Z" fill="#BC0000"/>
<path d="M835.459 191V247.947C835.459 254.404 835.249 258.947 834.83 261.579C834.411 264.175 833.171 266.86 831.11 269.632C829.049 272.368 826.324 274.456 822.936 275.895C819.582 277.298 815.617 278 811.041 278C805.976 278 801.505 277.158 797.628 275.474C793.75 273.789 790.851 271.596 788.93 268.895C787.008 266.193 785.873 263.351 785.524 260.368C785.174 257.351 785 251.035 785 241.421V191H807.059V254.895C807.059 258.614 807.251 261 807.635 262.053C808.055 263.07 808.876 263.579 810.098 263.579C811.495 263.579 812.386 263.018 812.77 261.895C813.19 260.737 813.399 258.035 813.399 253.789V191H835.459Z" fill="#BC0000"/>
<path d="M891 191L874.914 245.368V276.211H854.479V245.368L838.969 191H859.247C862.426 207.596 864.207 218.772 864.592 224.526C865.814 215.439 867.858 204.263 870.722 191H891Z" fill="#BC0000"/>
<path d="M901 191H923.007C929.958 191 935.216 191.544 938.779 192.632C942.377 193.719 945.276 195.93 947.477 199.263C949.677 202.561 950.778 207.895 950.778 215.263C950.778 220.246 949.992 223.719 948.42 225.684C946.883 227.649 943.826 229.158 939.25 230.211C944.35 231.368 947.809 233.298 949.625 236C951.441 238.667 952.35 242.772 952.35 248.316V256.211C952.35 261.965 951.686 266.228 950.359 269C949.066 271.772 946.988 273.667 944.123 274.684C941.259 275.702 935.39 276.211 926.518 276.211H901V191ZM923.059 205.579V224.526C924.003 224.491 924.736 224.474 925.26 224.474C927.426 224.474 928.806 223.947 929.399 222.895C929.993 221.807 930.29 218.737 930.29 213.684C930.29 211.018 930.046 209.158 929.557 208.105C929.068 207.018 928.421 206.333 927.618 206.053C926.849 205.772 925.33 205.614 923.059 205.579ZM923.059 237.789V261.632C926.168 261.526 928.142 261.035 928.98 260.158C929.854 259.281 930.29 257.123 930.29 253.684V245.737C930.29 242.088 929.906 239.877 929.138 239.105C928.369 238.333 926.343 237.895 923.059 237.789Z" fill="#BC0000"/>
<path d="M1010.46 191V247.947C1010.46 254.404 1010.25 258.947 1009.83 261.579C1009.41 264.175 1008.17 266.86 1006.11 269.632C1004.05 272.368 1001.32 274.456 997.936 275.895C994.582 277.298 990.617 278 986.041 278C980.976 278 976.505 277.158 972.628 275.474C968.75 273.789 965.851 271.596 963.93 268.895C962.008 266.193 960.873 263.351 960.524 260.368C960.174 257.351 960 251.035 960 241.421V191H982.059V254.895C982.059 258.614 982.251 261 982.635 262.053C983.055 263.07 983.876 263.579 985.098 263.579C986.495 263.579 987.386 263.018 987.77 261.895C988.19 260.737 988.399 258.035 988.399 253.789V191H1010.46Z" fill="#BC0000"/>
<path d="M1066 191L1049.91 245.368V276.211H1029.48V245.368L1013.97 191H1034.25C1037.43 207.596 1039.21 218.772 1039.59 224.526C1040.81 215.439 1042.86 204.263 1045.72 191H1066Z" fill="#BC0000"/>
<rect width="1088" height="113" transform="translate(-64 298)" fill="black"/>
<path d="M-40 311H-17.993C-11.0416 311 -5.78438 311.544 -2.22134 312.632C1.37663 313.719 4.27596 315.93 6.47666 319.263C8.67736 322.561 9.77771 327.895 9.77771 335.263C9.77771 340.246 8.99174 343.719 7.41982 345.684C5.88282 347.649 2.82629 349.158 -1.74976 350.211C3.35027 351.368 6.80851 353.298 8.62496 356C10.4414 358.667 11.3496 362.772 11.3496 368.316V376.211C11.3496 381.965 10.6859 386.228 9.35852 389C8.06605 391.772 5.98761 393.667 3.12321 394.684C0.258812 395.702 -5.60972 396.211 -14.4824 396.211H-40V311ZM-17.9406 325.579V344.526C-16.9975 344.491 -16.2639 344.474 -15.7399 344.474C-13.5742 344.474 -12.1943 343.947 -11.6005 342.895C-11.0067 341.807 -10.7097 338.737 -10.7097 333.684C-10.7097 331.018 -10.9543 329.158 -11.4433 328.105C-11.9324 327.018 -12.5786 326.333 -13.382 326.053C-14.1505 325.772 -15.6701 325.614 -17.9406 325.579ZM-17.9406 357.789V381.632C-14.8317 381.526 -12.8581 381.035 -12.0197 380.158C-11.1464 379.281 -10.7097 377.123 -10.7097 373.684V365.737C-10.7097 362.088 -11.094 359.877 -11.8625 359.105C-12.631 358.333 -14.657 357.895 -17.9406 357.789Z" fill="#BC0000"/>
<path d="M69.4586 311V367.947C69.4586 374.404 69.249 378.947 68.8298 381.579C68.4106 384.175 67.1705 386.86 65.1096 389.632C63.0486 392.368 60.3239 394.456 56.9355 395.895C53.5821 397.298 49.6173 398 45.0413 398C39.9762 398 35.5049 397.158 31.6275 395.474C27.7501 393.789 24.8507 391.596 22.9295 388.895C21.0083 386.193 19.873 383.351 19.5237 380.368C19.1743 377.351 18.9997 371.035 18.9997 361.421V311H41.0591V374.895C41.0591 378.614 41.2512 381 41.6354 382.053C42.0546 383.07 42.8755 383.579 44.0981 383.579C45.4954 383.579 46.3862 383.018 46.7704 381.895C47.1896 380.737 47.3992 378.035 47.3992 373.789V311H69.4586Z" fill="#BC0000"/>
<path d="M125 311L108.914 365.368V396.211H88.4789V365.368L72.9692 311H93.2471C96.4258 327.596 98.2074 338.772 98.5916 344.526C99.8142 335.439 101.858 324.263 104.722 311H125Z" fill="#BC0000"/>
<path d="M135 311H157.007C163.958 311 169.216 311.544 172.779 312.632C176.377 313.719 179.276 315.93 181.477 319.263C183.677 322.561 184.778 327.895 184.778 335.263C184.778 340.246 183.992 343.719 182.42 345.684C180.883 347.649 177.826 349.158 173.25 350.211C178.35 351.368 181.809 353.298 183.625 356C185.441 358.667 186.35 362.772 186.35 368.316V376.211C186.35 381.965 185.686 386.228 184.359 389C183.066 391.772 180.988 393.667 178.123 394.684C175.259 395.702 169.39 396.211 160.518 396.211H135V311ZM157.059 325.579V344.526C158.003 344.491 158.736 344.474 159.26 344.474C161.426 344.474 162.806 343.947 163.399 342.895C163.993 341.807 164.29 338.737 164.29 333.684C164.29 331.018 164.046 329.158 163.557 328.105C163.068 327.018 162.421 326.333 161.618 326.053C160.849 325.772 159.33 325.614 157.059 325.579ZM157.059 357.789V381.632C160.168 381.526 162.142 381.035 162.98 380.158C163.854 379.281 164.29 377.123 164.29 373.684V365.737C164.29 362.088 163.906 359.877 163.138 359.105C162.369 358.333 160.343 357.895 157.059 357.789Z" fill="#BC0000"/>
<path d="M244.459 311V367.947C244.459 374.404 244.249 378.947 243.83 381.579C243.411 384.175 242.171 386.86 240.11 389.632C238.049 392.368 235.324 394.456 231.936 395.895C228.582 397.298 224.617 398 220.041 398C214.976 398 210.505 397.158 206.628 395.474C202.75 393.789 199.851 391.596 197.93 388.895C196.008 386.193 194.873 383.351 194.524 380.368C194.174 377.351 194 371.035 194 361.421V311H216.059V374.895C216.059 378.614 216.251 381 216.635 382.053C217.055 383.07 217.876 383.579 219.098 383.579C220.495 383.579 221.386 383.018 221.77 381.895C222.19 380.737 222.399 378.035 222.399 373.789V311H244.459Z" fill="#BC0000"/>
<path d="M300 311L283.914 365.368V396.211H263.479V365.368L247.969 311H268.247C271.426 327.596 273.207 338.772 273.592 344.526C274.814 335.439 276.858 324.263 279.722 311H300Z" fill="#BC0000"/>
<path d="M310 311H332.007C338.958 311 344.216 311.544 347.779 312.632C351.377 313.719 354.276 315.93 356.477 319.263C358.677 322.561 359.778 327.895 359.778 335.263C359.778 340.246 358.992 343.719 357.42 345.684C355.883 347.649 352.826 349.158 348.25 350.211C353.35 351.368 356.809 353.298 358.625 356C360.441 358.667 361.35 362.772 361.35 368.316V376.211C361.35 381.965 360.686 386.228 359.359 389C358.066 391.772 355.988 393.667 353.123 394.684C350.259 395.702 344.39 396.211 335.518 396.211H310V311ZM332.059 325.579V344.526C333.003 344.491 333.736 344.474 334.26 344.474C336.426 344.474 337.806 343.947 338.399 342.895C338.993 341.807 339.29 338.737 339.29 333.684C339.29 331.018 339.046 329.158 338.557 328.105C338.068 327.018 337.421 326.333 336.618 326.053C335.849 325.772 334.33 325.614 332.059 325.579ZM332.059 357.789V381.632C335.168 381.526 337.142 381.035 337.98 380.158C338.854 379.281 339.29 377.123 339.29 373.684V365.737C339.29 362.088 338.906 359.877 338.138 359.105C337.369 358.333 335.343 357.895 332.059 357.789Z" fill="#BC0000"/>
<path d="M419.459 311V367.947C419.459 374.404 419.249 378.947 418.83 381.579C418.411 384.175 417.171 386.86 415.11 389.632C413.049 392.368 410.324 394.456 406.936 395.895C403.582 397.298 399.617 398 395.041 398C389.976 398 385.505 397.158 381.628 395.474C377.75 393.789 374.851 391.596 372.93 388.895C371.008 386.193 369.873 383.351 369.524 380.368C369.174 377.351 369 371.035 369 361.421V311H391.059V374.895C391.059 378.614 391.251 381 391.635 382.053C392.055 383.07 392.876 383.579 394.098 383.579C395.495 383.579 396.386 383.018 396.77 381.895C397.19 380.737 397.399 378.035 397.399 373.789V311H419.459Z" fill="#BC0000"/>
<path d="M475 311L458.914 365.368V396.211H438.479V365.368L422.969 311H443.247C446.426 327.596 448.207 338.772 448.592 344.526C449.814 335.439 451.858 324.263 454.722 311H475Z" fill="#BC0000"/>
<path d="M485 311H507.007C513.958 311 519.216 311.544 522.779 312.632C526.377 313.719 529.276 315.93 531.477 319.263C533.677 322.561 534.778 327.895 534.778 335.263C534.778 340.246 533.992 343.719 532.42 345.684C530.883 347.649 527.826 349.158 523.25 350.211C528.35 351.368 531.809 353.298 533.625 356C535.441 358.667 536.35 362.772 536.35 368.316V376.211C536.35 381.965 535.686 386.228 534.359 389C533.066 391.772 530.988 393.667 528.123 394.684C525.259 395.702 519.39 396.211 510.518 396.211H485V311ZM507.059 325.579V344.526C508.003 344.491 508.736 344.474 509.26 344.474C511.426 344.474 512.806 343.947 513.399 342.895C513.993 341.807 514.29 338.737 514.29 333.684C514.29 331.018 514.046 329.158 513.557 328.105C513.068 327.018 512.421 326.333 511.618 326.053C510.849 325.772 509.33 325.614 507.059 325.579ZM507.059 357.789V381.632C510.168 381.526 512.142 381.035 512.98 380.158C513.854 379.281 514.29 377.123 514.29 373.684V365.737C514.29 362.088 513.906 359.877 513.138 359.105C512.369 358.333 510.343 357.895 507.059 357.789Z" fill="#BC0000"/>
<path d="M594.459 311V367.947C594.459 374.404 594.249 378.947 593.83 381.579C593.411 384.175 592.171 386.86 590.11 389.632C588.049 392.368 585.324 394.456 581.936 395.895C578.582 397.298 574.617 398 570.041 398C564.976 398 560.505 397.158 556.628 395.474C552.75 393.789 549.851 391.596 547.93 388.895C546.008 386.193 544.873 383.351 544.524 380.368C544.174 377.351 544 371.035 544 361.421V311H566.059V374.895C566.059 378.614 566.251 381 566.635 382.053C567.055 383.07 567.876 383.579 569.098 383.579C570.495 383.579 571.386 383.018 571.77 381.895C572.19 380.737 572.399 378.035 572.399 373.789V311H594.459Z" fill="#BC0000"/>
<path d="M650 311L633.914 365.368V396.211H613.479V365.368L597.969 311H618.247C621.426 327.596 623.207 338.772 623.592 344.526C624.814 335.439 626.858 324.263 629.722 311H650Z" fill="#BC0000"/>
<path d="M660 311H682.007C688.958 311 694.216 311.544 697.779 312.632C701.377 313.719 704.276 315.93 706.477 319.263C708.677 322.561 709.778 327.895 709.778 335.263C709.778 340.246 708.992 343.719 707.42 345.684C705.883 347.649 702.826 349.158 698.25 350.211C703.35 351.368 706.809 353.298 708.625 356C710.441 358.667 711.35 362.772 711.35 368.316V376.211C711.35 381.965 710.686 386.228 709.359 389C708.066 391.772 705.988 393.667 703.123 394.684C700.259 395.702 694.39 396.211 685.518 396.211H660V311ZM682.059 325.579V344.526C683.003 344.491 683.736 344.474 684.26 344.474C686.426 344.474 687.806 343.947 688.399 342.895C688.993 341.807 689.29 338.737 689.29 333.684C689.29 331.018 689.046 329.158 688.557 328.105C688.068 327.018 687.421 326.333 686.618 326.053C685.849 325.772 684.33 325.614 682.059 325.579ZM682.059 357.789V381.632C685.168 381.526 687.142 381.035 687.98 380.158C688.854 379.281 689.29 377.123 689.29 373.684V365.737C689.29 362.088 688.906 359.877 688.138 359.105C687.369 358.333 685.343 357.895 682.059 357.789Z" fill="#BC0000"/>
<path d="M769.459 311V367.947C769.459 374.404 769.249 378.947 768.83 381.579C768.411 384.175 767.171 386.86 765.11 389.632C763.049 392.368 760.324 394.456 756.936 395.895C753.582 397.298 749.617 398 745.041 398C739.976 398 735.505 397.158 731.628 395.474C727.75 393.789 724.851 391.596 722.93 388.895C721.008 386.193 719.873 383.351 719.524 380.368C719.174 377.351 719 371.035 719 361.421V311H741.059V374.895C741.059 378.614 741.251 381 741.635 382.053C742.055 383.07 742.876 383.579 744.098 383.579C745.495 383.579 746.386 383.018 746.77 381.895C747.19 380.737 747.399 378.035 747.399 373.789V311H769.459Z" fill="#BC0000"/>
<path d="M825 311L808.914 365.368V396.211H788.479V365.368L772.969 311H793.247C796.426 327.596 798.207 338.772 798.592 344.526C799.814 335.439 801.858 324.263 804.722 311H825Z" fill="#BC0000"/>
<path d="M835 311H857.007C863.958 311 869.216 311.544 872.779 312.632C876.377 313.719 879.276 315.93 881.477 319.263C883.677 322.561 884.778 327.895 884.778 335.263C884.778 340.246 883.992 343.719 882.42 345.684C880.883 347.649 877.826 349.158 873.25 350.211C878.35 351.368 881.809 353.298 883.625 356C885.441 358.667 886.35 362.772 886.35 368.316V376.211C886.35 381.965 885.686 386.228 884.359 389C883.066 391.772 880.988 393.667 878.123 394.684C875.259 395.702 869.39 396.211 860.518 396.211H835V311ZM857.059 325.579V344.526C858.003 344.491 858.736 344.474 859.26 344.474C861.426 344.474 862.806 343.947 863.399 342.895C863.993 341.807 864.29 338.737 864.29 333.684C864.29 331.018 864.046 329.158 863.557 328.105C863.068 327.018 862.421 326.333 861.618 326.053C860.849 325.772 859.33 325.614 857.059 325.579ZM857.059 357.789V381.632C860.168 381.526 862.142 381.035 862.98 380.158C863.854 379.281 864.29 377.123 864.29 373.684V365.737C864.29 362.088 863.906 359.877 863.138 359.105C862.369 358.333 860.343 357.895 857.059 357.789Z" fill="#BC0000"/>
<path d="M944.459 311V367.947C944.459 374.404 944.249 378.947 943.83 381.579C943.411 384.175 942.171 386.86 940.11 389.632C938.049 392.368 935.324 394.456 931.936 395.895C928.582 397.298 924.617 398 920.041 398C914.976 398 910.505 397.158 906.628 395.474C902.75 393.789 899.851 391.596 897.93 388.895C896.008 386.193 894.873 383.351 894.524 380.368C894.174 377.351 894 371.035 894 361.421V311H916.059V374.895C916.059 378.614 916.251 381 916.635 382.053C917.055 383.07 917.876 383.579 919.098 383.579C920.495 383.579 921.386 383.018 921.77 381.895C922.19 380.737 922.399 378.035 922.399 373.789V311H944.459Z" fill="#BC0000"/>
<path d="M1000 311L983.914 365.368V396.211H963.479V365.368L947.969 311H968.247C971.426 327.596 973.207 338.772 973.592 344.526C974.814 335.439 976.858 324.263 979.722 311H1000Z" fill="#BC0000"/>
<rect width="1438" height="113" transform="translate(-136 -62)" fill="black"/>
<path d="M-112 -49H-89.993C-83.0416 -49 -77.7844 -48.4561 -74.2213 -47.3684C-70.6234 -46.2807 -67.724 -44.0702 -65.5233 -40.7368C-63.3226 -37.4386 -62.2223 -32.1053 -62.2223 -24.7368C-62.2223 -19.7544 -63.0083 -16.2807 -64.5802 -14.3158C-66.1172 -12.3509 -69.1737 -10.8421 -73.7498 -9.78947C-68.6497 -8.63158 -65.1915 -6.70175 -63.375 -4C-61.5586 -1.33333 -60.6504 2.77193 -60.6504 8.31579V16.2105C-60.6504 21.9649 -61.3141 26.2281 -62.6415 29C-63.9339 31.7719 -66.0124 33.6667 -68.8768 34.6842C-71.7412 35.7018 -77.6097 36.2105 -86.4824 36.2105H-112V-49ZM-89.9406 -34.4211V-15.4737C-88.9975 -15.5088 -88.2639 -15.5263 -87.7399 -15.5263C-85.5742 -15.5263 -84.1943 -16.0526 -83.6005 -17.1053C-83.0067 -18.193 -82.7097 -21.2632 -82.7097 -26.3158C-82.7097 -28.9825 -82.9543 -30.8421 -83.4433 -31.8947C-83.9324 -32.9825 -84.5786 -33.6667 -85.382 -33.9474C-86.1505 -34.2281 -87.6701 -34.386 -89.9406 -34.4211ZM-89.9406 -2.21053V21.6316C-86.8317 21.5263 -84.8581 21.0351 -84.0197 20.1579C-83.1464 19.2807 -82.7097 17.1228 -82.7097 13.6842V5.73684C-82.7097 2.08772 -83.094 -0.122807 -83.8625 -0.894737C-84.631 -1.66666 -86.657 -2.10526 -89.9406 -2.21053Z" fill="#BC0000"/>
<path d="M-2.54144 -49V7.94737C-2.54144 14.4035 -2.75104 18.9474 -3.17021 21.5789C-3.58939 24.1754 -4.82948 26.8596 -6.89044 29.6316C-8.95142 32.3684 -11.6761 34.4561 -15.0645 35.8947C-18.4179 37.2982 -22.3827 38 -26.9587 38C-32.0238 38 -36.4951 37.1579 -40.3725 35.4737C-44.2499 33.7895 -47.1493 31.5965 -49.0705 28.8947C-50.9917 26.193 -52.127 23.3509 -52.4763 20.3684C-52.8257 17.3509 -53.0003 11.0351 -53.0003 1.42105V-49H-30.9409V14.8947C-30.9409 18.614 -30.7488 21 -30.3646 22.0526C-29.9454 23.0702 -29.1245 23.5789 -27.9019 23.5789C-26.5046 23.5789 -25.6138 23.0175 -25.2296 21.8947C-24.8104 20.7368 -24.6008 18.0351 -24.6008 13.7895V-49H-2.54144Z" fill="#BC0000"/>
<path d="M53 -49L36.9139 5.36842V36.2105H16.4789V5.36842L0.969193 -49H21.2471C24.4258 -32.4035 26.2074 -21.2281 26.5916 -15.4737C27.8142 -24.5614 29.8577 -35.7368 32.7221 -49H53Z" fill="#BC0000"/>
<path d="M63 -49H85.007C91.9584 -49 97.2156 -48.4561 100.779 -47.3684C104.377 -46.2807 107.276 -44.0702 109.477 -40.7368C111.677 -37.4386 112.778 -32.1053 112.778 -24.7368C112.778 -19.7544 111.992 -16.2807 110.42 -14.3158C108.883 -12.3509 105.826 -10.8421 101.25 -9.78947C106.35 -8.63158 109.809 -6.70175 111.625 -4C113.441 -1.33333 114.35 2.77193 114.35 8.31579V16.2105C114.35 21.9649 113.686 26.2281 112.359 29C111.066 31.7719 108.988 33.6667 106.123 34.6842C103.259 35.7018 97.3903 36.2105 88.5176 36.2105H63V-49ZM85.0594 -34.4211V-15.4737C86.0025 -15.5088 86.7361 -15.5263 87.2601 -15.5263C89.4258 -15.5263 90.8057 -16.0526 91.3995 -17.1053C91.9933 -18.193 92.2903 -21.2632 92.2903 -26.3158C92.2903 -28.9825 92.0457 -30.8421 91.5567 -31.8947C91.0676 -32.9825 90.4214 -33.6667 89.618 -33.9474C88.8495 -34.2281 87.3299 -34.386 85.0594 -34.4211ZM85.0594 -2.21053V21.6316C88.1683 21.5263 90.1419 21.0351 90.9803 20.1579C91.8536 19.2807 92.2903 17.1228 92.2903 13.6842V5.73684C92.2903 2.08772 91.906 -0.122807 91.1375 -0.894737C90.369 -1.66666 88.343 -2.10526 85.0594 -2.21053Z" fill="#BC0000"/>
<path d="M172.459 -49V7.94737C172.459 14.4035 172.249 18.9474 171.83 21.5789C171.411 24.1754 170.171 26.8596 168.11 29.6316C166.049 32.3684 163.324 34.4561 159.936 35.8947C156.582 37.2982 152.617 38 148.041 38C142.976 38 138.505 37.1579 134.628 35.4737C130.75 33.7895 127.851 31.5965 125.93 28.8947C124.008 26.193 122.873 23.3509 122.524 20.3684C122.174 17.3509 122 11.0351 122 1.42105V-49H144.059V14.8947C144.059 18.614 144.251 21 144.635 22.0526C145.055 23.0702 145.876 23.5789 147.098 23.5789C148.495 23.5789 149.386 23.0175 149.77 21.8947C150.19 20.7368 150.399 18.0351 150.399 13.7895V-49H172.459Z" fill="#BC0000"/>
<path d="M228 -49L211.914 5.36842V36.2105H191.479V5.36842L175.969 -49H196.247C199.426 -32.4035 201.207 -21.2281 201.592 -15.4737C202.814 -24.5614 204.858 -35.7368 207.722 -49H228Z" fill="#BC0000"/>
<path d="M238 -49H260.007C266.958 -49 272.216 -48.4561 275.779 -47.3684C279.377 -46.2807 282.276 -44.0702 284.477 -40.7368C286.677 -37.4386 287.778 -32.1053 287.778 -24.7368C287.778 -19.7544 286.992 -16.2807 285.42 -14.3158C283.883 -12.3509 280.826 -10.8421 276.25 -9.78947C281.35 -8.63158 284.809 -6.70175 286.625 -4C288.441 -1.33333 289.35 2.77193 289.35 8.31579V16.2105C289.35 21.9649 288.686 26.2281 287.359 29C286.066 31.7719 283.988 33.6667 281.123 34.6842C278.259 35.7018 272.39 36.2105 263.518 36.2105H238V-49ZM260.059 -34.4211V-15.4737C261.003 -15.5088 261.736 -15.5263 262.26 -15.5263C264.426 -15.5263 265.806 -16.0526 266.399 -17.1053C266.993 -18.193 267.29 -21.2632 267.29 -26.3158C267.29 -28.9825 267.046 -30.8421 266.557 -31.8947C266.068 -32.9825 265.421 -33.6667 264.618 -33.9474C263.849 -34.2281 262.33 -34.386 260.059 -34.4211ZM260.059 -2.21053V21.6316C263.168 21.5263 265.142 21.0351 265.98 20.1579C266.854 19.2807 267.29 17.1228 267.29 13.6842V5.73684C267.29 2.08772 266.906 -0.122807 266.138 -0.894737C265.369 -1.66666 263.343 -2.10526 260.059 -2.21053Z" fill="#BC0000"/>
<path d="M347.459 -49V7.94737C347.459 14.4035 347.249 18.9474 346.83 21.5789C346.411 24.1754 345.171 26.8596 343.11 29.6316C341.049 32.3684 338.324 34.4561 334.936 35.8947C331.582 37.2982 327.617 38 323.041 38C317.976 38 313.505 37.1579 309.628 35.4737C305.75 33.7895 302.851 31.5965 300.93 28.8947C299.008 26.193 297.873 23.3509 297.524 20.3684C297.174 17.3509 297 11.0351 297 1.42105V-49H319.059V14.8947C319.059 18.614 319.251 21 319.635 22.0526C320.055 23.0702 320.876 23.5789 322.098 23.5789C323.495 23.5789 324.386 23.0175 324.77 21.8947C325.19 20.7368 325.399 18.0351 325.399 13.7895V-49H347.459Z" fill="#BC0000"/>
<path d="M403 -49L386.914 5.36842V36.2105H366.479V5.36842L350.969 -49H371.247C374.426 -32.4035 376.207 -21.2281 376.592 -15.4737C377.814 -24.5614 379.858 -35.7368 382.722 -49H403Z" fill="#BC0000"/>
<path d="M413 -49H435.007C441.958 -49 447.216 -48.4561 450.779 -47.3684C454.377 -46.2807 457.276 -44.0702 459.477 -40.7368C461.677 -37.4386 462.778 -32.1053 462.778 -24.7368C462.778 -19.7544 461.992 -16.2807 460.42 -14.3158C458.883 -12.3509 455.826 -10.8421 451.25 -9.78947C456.35 -8.63158 459.809 -6.70175 461.625 -4C463.441 -1.33333 464.35 2.77193 464.35 8.31579V16.2105C464.35 21.9649 463.686 26.2281 462.359 29C461.066 31.7719 458.988 33.6667 456.123 34.6842C453.259 35.7018 447.39 36.2105 438.518 36.2105H413V-49ZM435.059 -34.4211V-15.4737C436.003 -15.5088 436.736 -15.5263 437.26 -15.5263C439.426 -15.5263 440.806 -16.0526 441.399 -17.1053C441.993 -18.193 442.29 -21.2632 442.29 -26.3158C442.29 -28.9825 442.046 -30.8421 441.557 -31.8947C441.068 -32.9825 440.421 -33.6667 439.618 -33.9474C438.849 -34.2281 437.33 -34.386 435.059 -34.4211ZM435.059 -2.21053V21.6316C438.168 21.5263 440.142 21.0351 440.98 20.1579C441.854 19.2807 442.29 17.1228 442.29 13.6842V5.73684C442.29 2.08772 441.906 -0.122807 441.138 -0.894737C440.369 -1.66666 438.343 -2.10526 435.059 -2.21053Z" fill="#BC0000"/>
<path d="M522.459 -49V7.94737C522.459 14.4035 522.249 18.9474 521.83 21.5789C521.411 24.1754 520.171 26.8596 518.11 29.6316C516.049 32.3684 513.324 34.4561 509.936 35.8947C506.582 37.2982 502.617 38 498.041 38C492.976 38 488.505 37.1579 484.628 35.4737C480.75 33.7895 477.851 31.5965 475.93 28.8947C474.008 26.193 472.873 23.3509 472.524 20.3684C472.174 17.3509 472 11.0351 472 1.42105V-49H494.059V14.8947C494.059 18.614 494.251 21 494.635 22.0526C495.055 23.0702 495.876 23.5789 497.098 23.5789C498.495 23.5789 499.386 23.0175 499.77 21.8947C500.19 20.7368 500.399 18.0351 500.399 13.7895V-49H522.459Z" fill="#BC0000"/>
<path d="M578 -49L561.914 5.36842V36.2105H541.479V5.36842L525.969 -49H546.247C549.426 -32.4035 551.207 -21.2281 551.592 -15.4737C552.814 -24.5614 554.858 -35.7368 557.722 -49H578Z" fill="#BC0000"/>
<path d="M588 -49H610.007C616.958 -49 622.216 -48.4561 625.779 -47.3684C629.377 -46.2807 632.276 -44.0702 634.477 -40.7368C636.677 -37.4386 637.778 -32.1053 637.778 -24.7368C637.778 -19.7544 636.992 -16.2807 635.42 -14.3158C633.883 -12.3509 630.826 -10.8421 626.25 -9.78947C631.35 -8.63158 634.809 -6.70175 636.625 -4C638.441 -1.33333 639.35 2.77193 639.35 8.31579V16.2105C639.35 21.9649 638.686 26.2281 637.359 29C636.066 31.7719 633.988 33.6667 631.123 34.6842C628.259 35.7018 622.39 36.2105 613.518 36.2105H588V-49ZM610.059 -34.4211V-15.4737C611.003 -15.5088 611.736 -15.5263 612.26 -15.5263C614.426 -15.5263 615.806 -16.0526 616.399 -17.1053C616.993 -18.193 617.29 -21.2632 617.29 -26.3158C617.29 -28.9825 617.046 -30.8421 616.557 -31.8947C616.068 -32.9825 615.421 -33.6667 614.618 -33.9474C613.849 -34.2281 612.33 -34.386 610.059 -34.4211ZM610.059 -2.21053V21.6316C613.168 21.5263 615.142 21.0351 615.98 20.1579C616.854 19.2807 617.29 17.1228 617.29 13.6842V5.73684C617.29 2.08772 616.906 -0.122807 616.138 -0.894737C615.369 -1.66666 613.343 -2.10526 610.059 -2.21053Z" fill="#BC0000"/>
<path d="M697.459 -49V7.94737C697.459 14.4035 697.249 18.9474 696.83 21.5789C696.411 24.1754 695.171 26.8596 693.11 29.6316C691.049 32.3684 688.324 34.4561 684.936 35.8947C681.582 37.2982 677.617 38 673.041 38C667.976 38 663.505 37.1579 659.628 35.4737C655.75 33.7895 652.851 31.5965 650.93 28.8947C649.008 26.193 647.873 23.3509 647.524 20.3684C647.174 17.3509 647 11.0351 647 1.42105V-49H669.059V14.8947C669.059 18.614 669.251 21 669.635 22.0526C670.055 23.0702 670.876 23.5789 672.098 23.5789C673.495 23.5789 674.386 23.0175 674.77 21.8947C675.19 20.7368 675.399 18.0351 675.399 13.7895V-49H697.459Z" fill="#BC0000"/>
<path d="M753 -49L736.914 5.36842V36.2105H716.479V5.36842L700.969 -49H721.247C724.426 -32.4035 726.207 -21.2281 726.592 -15.4737C727.814 -24.5614 729.858 -35.7368 732.722 -49H753Z" fill="#BC0000"/>
<path d="M763 -49H785.007C791.958 -49 797.216 -48.4561 800.779 -47.3684C804.377 -46.2807 807.276 -44.0702 809.477 -40.7368C811.677 -37.4386 812.778 -32.1053 812.778 -24.7368C812.778 -19.7544 811.992 -16.2807 810.42 -14.3158C808.883 -12.3509 805.826 -10.8421 801.25 -9.78947C806.35 -8.63158 809.809 -6.70175 811.625 -4C813.441 -1.33333 814.35 2.77193 814.35 8.31579V16.2105C814.35 21.9649 813.686 26.2281 812.359 29C811.066 31.7719 808.988 33.6667 806.123 34.6842C803.259 35.7018 797.39 36.2105 788.518 36.2105H763V-49ZM785.059 -34.4211V-15.4737C786.003 -15.5088 786.736 -15.5263 787.26 -15.5263C789.426 -15.5263 790.806 -16.0526 791.399 -17.1053C791.993 -18.193 792.29 -21.2632 792.29 -26.3158C792.29 -28.9825 792.046 -30.8421 791.557 -31.8947C791.068 -32.9825 790.421 -33.6667 789.618 -33.9474C788.849 -34.2281 787.33 -34.386 785.059 -34.4211ZM785.059 -2.21053V21.6316C788.168 21.5263 790.142 21.0351 790.98 20.1579C791.854 19.2807 792.29 17.1228 792.29 13.6842V5.73684C792.29 2.08772 791.906 -0.122807 791.138 -0.894737C790.369 -1.66666 788.343 -2.10526 785.059 -2.21053Z" fill="#BC0000"/>
<path d="M872.459 -49V7.94737C872.459 14.4035 872.249 18.9474 871.83 21.5789C871.411 24.1754 870.171 26.8596 868.11 29.6316C866.049 32.3684 863.324 34.4561 859.936 35.8947C856.582 37.2982 852.617 38 848.041 38C842.976 38 838.505 37.1579 834.628 35.4737C830.75 33.7895 827.851 31.5965 825.93 28.8947C824.008 26.193 822.873 23.3509 822.524 20.3684C822.174 17.3509 822 11.0351 822 1.42105V-49H844.059V14.8947C844.059 18.614 844.251 21 844.635 22.0526C845.055 23.0702 845.876 23.5789 847.098 23.5789C848.495 23.5789 849.386 23.0175 849.77 21.8947C850.19 20.7368 850.399 18.0351 850.399 13.7895V-49H872.459Z" fill="#BC0000"/>
<path d="M928 -49L911.914 5.36842V36.2105H891.479V5.36842L875.969 -49H896.247C899.426 -32.4035 901.207 -21.2281 901.592 -15.4737C902.814 -24.5614 904.858 -35.7368 907.722 -49H928Z" fill="#BC0000"/>
<path d="M938 -49H960.007C966.958 -49 972.216 -48.4561 975.779 -47.3684C979.377 -46.2807 982.276 -44.0702 984.477 -40.7368C986.677 -37.4386 987.778 -32.1053 987.778 -24.7368C987.778 -19.7544 986.992 -16.2807 985.42 -14.3158C983.883 -12.3509 980.826 -10.8421 976.25 -9.78947C981.35 -8.63158 984.809 -6.70175 986.625 -4C988.441 -1.33333 989.35 2.77193 989.35 8.31579V16.2105C989.35 21.9649 988.686 26.2281 987.359 29C986.066 31.7719 983.988 33.6667 981.123 34.6842C978.259 35.7018 972.39 36.2105 963.518 36.2105H938V-49ZM960.059 -34.4211V-15.4737C961.003 -15.5088 961.736 -15.5263 962.26 -15.5263C964.426 -15.5263 965.806 -16.0526 966.399 -17.1053C966.993 -18.193 967.29 -21.2632 967.29 -26.3158C967.29 -28.9825 967.046 -30.8421 966.557 -31.8947C966.068 -32.9825 965.421 -33.6667 964.618 -33.9474C963.849 -34.2281 962.33 -34.386 960.059 -34.4211ZM960.059 -2.21053V21.6316C963.168 21.5263 965.142 21.0351 965.98 20.1579C966.854 19.2807 967.29 17.1228 967.29 13.6842V5.73684C967.29 2.08772 966.906 -0.122807 966.138 -0.894737C965.369 -1.66666 963.343 -2.10526 960.059 -2.21053Z" fill="#BC0000"/>
<path d="M1047.46 -49V7.94737C1047.46 14.4035 1047.25 18.9474 1046.83 21.5789C1046.41 24.1754 1045.17 26.8596 1043.11 29.6316C1041.05 32.3684 1038.32 34.4561 1034.94 35.8947C1031.58 37.2982 1027.62 38 1023.04 38C1017.98 38 1013.5 37.1579 1009.63 35.4737C1005.75 33.7895 1002.85 31.5965 1000.93 28.8947C999.008 26.193 997.873 23.3509 997.524 20.3684C997.174 17.3509 997 11.0351 997 1.42105V-49H1019.06V14.8947C1019.06 18.614 1019.25 21 1019.64 22.0526C1020.05 23.0702 1020.88 23.5789 1022.1 23.5789C1023.5 23.5789 1024.39 23.0175 1024.77 21.8947C1025.19 20.7368 1025.4 18.0351 1025.4 13.7895V-49H1047.46Z" fill="#BC0000"/>
<path d="M1103 -49L1086.91 5.36842V36.2105H1066.48V5.36842L1050.97 -49H1071.25C1074.43 -32.4035 1076.21 -21.2281 1076.59 -15.4737C1077.81 -24.5614 1079.86 -35.7368 1082.72 -49H1103Z" fill="#BC0000"/>
<path d="M418.615 9.44824C385.859 18.6816 385.731 65.8741 389.761 88.3162L447.744 65.5077C448.477 57.9049 448.459 38.9619 442.523 24.0127C436.587 9.06351 424.111 8.07423 418.615 9.44824Z" fill="url(#paint0_linear_1092_228)"/>
<path d="M567.283 10.5474C549.476 15.8236 545.757 44.9892 546.123 58.9125C570.031 89.2322 619.055 144.541 623.892 123.216C629.938 96.5603 623.067 76.4998 618.945 60.2865C614.823 44.0732 589.542 3.9522 567.283 10.5474Z" fill="url(#paint1_linear_1092_228)"/>
<path d="M351.838 128.712C335.13 149.157 310.984 150.421 301 148.498C302.649 152.711 308.53 163.392 318.862 172.405C313.146 173.724 304.572 169.841 301 167.734C302.979 191.697 325.824 226.266 336.999 240.556C351.267 259.398 378.768 279.011 403.776 294.774C422.645 308.029 476.268 328.438 539.802 304.035C603.336 279.633 661.76 228.831 683.03 206.481C689.889 197.989 694.221 190.233 696.439 183.397C690.723 184.936 679.585 183.672 674.73 182.848C685.062 180.43 694.424 168.833 697.813 163.337C689.844 165.535 658.853 155.648 642.853 134.208C629.113 115.796 606.579 93.8122 595.862 84.7438C595.862 74.0266 590.915 43.2488 578.549 41.6C568.657 40.2809 563.985 55.3401 562.886 63.0345C507.046 42.3694 454.064 54.4241 434.553 63.0345C432.355 50.8516 425.155 27.6401 413.943 32.2567C402.731 36.8734 404.875 62.9429 407.348 75.4006C393.608 81.1714 372.723 103.156 351.838 128.712Z" fill="url(#paint2_linear_1092_228)"/>
<path d="M351.839 163.337C351.399 173.01 359.717 179.642 363.93 181.749C375.564 183.489 400.149 183.947 405.425 171.856C412.02 156.742 431.806 150.146 438.676 149.047C444.172 148.168 447.928 144.467 449.119 142.727C458.187 123.766 443.623 99.0334 426.585 96.0106C412.955 93.5923 399.838 97.9342 394.983 100.407C357.885 119.643 352.389 151.246 351.839 163.337Z" fill="#69301F"/>
<path d="M534.307 96.0106C496.934 92.4931 480.446 122.391 476.874 137.78C471.927 160.864 499.682 177.352 523.865 175.978C537.079 175.227 571.13 184.863 586.519 188.619C595.405 187.519 611.801 179.605 606.305 156.742C599.435 128.162 581.023 100.407 534.307 96.0106Z" fill="#69301F"/>
<path d="M415.868 49.0195C414.769 49.2393 414.86 50.9431 415.044 51.7675L417.792 65.5076C418.066 66.6984 418.891 69.025 419.99 68.8052C421.089 68.5854 420.814 66.5152 420.54 65.5076L417.517 51.7675C417.425 50.7599 416.967 48.7997 415.868 49.0195Z" fill="#692F1E"/>
<path d="M403.502 171.031C361.732 158.72 354.954 192.283 356.786 210.603C357.61 217.748 358.942 221.821 361.713 229.014C364.193 234.914 372.779 249.808 387.289 262.184C400.846 274.235 422.83 287.547 464.233 291.944C550.796 294.142 584.596 233.137 588.444 225.992C592.291 218.847 601.634 192.466 590.367 176.802C579.1 161.139 557.941 162.513 533.483 173.779C513.917 182.793 491.805 183.397 483.195 182.573L470.554 180.375C463.501 183.306 448.13 188.729 443.074 186.97C438.017 185.211 414.586 175.611 403.502 171.031Z" fill="#F0CA94"/>
<path d="M579.55 55.0402C580.666 55.0197 580.855 56.4886 580.811 57.2256L580.366 69.4516C580.292 70.5182 579.864 72.6563 578.749 72.6769C577.633 72.6975 577.564 70.8817 577.668 69.9713L578.382 57.6933C578.307 56.8175 578.435 55.0608 579.55 55.0402Z" fill="#692F1E"/>
<path d="M387.836 198.786C388.496 197.907 389.027 198.786 389.21 199.336C400.477 229.564 435.652 227.915 441.422 226.816C446.039 225.937 448.659 226.083 449.392 226.267C506.825 243.304 556.564 208.404 562.61 186.695C564.259 186.146 568.381 191.092 569.48 192.466C570.579 193.84 573.327 198.786 573.327 193.84C573.327 188.894 567.556 180.65 560.686 179.275C553.816 177.901 549.419 181.199 548.045 183.398C546.671 185.596 548.595 186.97 551.618 185.871C554.036 184.991 557.389 184.955 558.763 185.046C532.656 235.885 454.338 224.068 451.865 220.496C449.679 217.339 447.285 205.015 447.193 198.237C466.155 192.741 474.673 177.077 475.498 174.054C476.322 171.031 471.925 163.337 450.766 161.413C429.606 159.49 421.912 164.436 418.614 166.909C415.316 169.383 413.942 172.131 420.263 181.474C425.319 188.949 436.476 195.764 441.422 198.237C440.543 204.173 442.338 215.549 443.346 220.496C416.525 224.013 400.477 209.32 395.805 201.534C394.523 199.702 392.123 195.819 392.783 194.939C393.607 193.84 401.576 194.664 402.401 194.39C403.225 194.115 401.301 191.092 397.454 189.443C393.607 187.794 388.661 189.443 385.363 192.466C382.065 195.489 381.791 207.855 383.439 208.404C385.088 208.954 387.012 199.886 387.836 198.786Z" fill="#38231D"/>
<path d="M492.262 149.8C491.383 152.218 493.361 152.639 494.461 152.548C495.01 152.181 495.945 151.613 495.285 152.273C494.626 152.932 495.01 153.097 495.285 153.097C515.071 149.525 558.764 150.349 563.711 151.174C567.668 151.833 568.84 150.899 568.932 150.349C570.031 139.632 550.245 131.636 525.788 131.937C503.529 132.212 493.361 146.777 492.262 149.8Z" fill="white"/>
<path d="M374.131 145.128C374.571 146.886 377.429 146.593 378.803 146.227C378.583 146.447 378.711 146.685 378.803 146.777C392.818 145.952 427.718 146.227 435.412 148.151C441.568 149.689 441.824 146.41 441.183 144.578C438.545 136.224 427.626 131.937 422.496 130.838C399.853 127.76 384.299 134.869 379.353 138.807C377.429 140.181 373.692 143.369 374.131 145.128Z" fill="white"/>
<path d="M374.131 145.128C374.571 146.886 377.429 146.593 378.803 146.227C389.831 138.185 397.729 136.132 400.202 135.582C402.675 135.032 414.492 133.933 412.018 135.582C409.545 137.231 407.347 144.101 407.072 145.2C406.852 146.079 407.456 146.37 407.785 146.405C419.853 146.586 431.376 147.141 435.412 148.151C441.568 149.689 441.824 146.41 441.183 144.578C438.545 136.224 427.626 131.937 422.496 130.838C399.853 127.76 384.299 134.869 379.353 138.807C377.429 140.181 373.692 143.369 374.131 145.128Z" fill="url(#paint3_linear_1092_228)"/>
<path d="M492.262 149.8C491.383 152.218 493.361 152.639 494.461 152.548C494.552 152.555 494.845 152.466 495.285 152.046C506.537 139.397 523.82 137.236 526.054 136.957L526.063 136.956C528.261 136.681 534.032 136.407 532.383 137.506C530.734 138.605 527.986 146.574 527.986 148.773C527.986 150.531 528.536 150.713 528.811 150.584C545.308 150.228 560.875 150.701 563.711 151.174C567.668 151.833 568.84 150.899 568.932 150.349C570.031 139.632 550.245 131.636 525.788 131.937C503.529 132.212 493.361 146.777 492.262 149.8Z" fill="url(#paint4_linear_1092_228)"/>
</g>
<defs>
<linearGradient id="paint0_linear_1092_228" x1="553.543" y1="111.4" x2="553.543" y2="-174.943" gradientUnits="userSpaceOnUse">
<stop offset="0.13693" stop-color="#67311F"/>
<stop offset="1" stop-color="#CD623E"/>
</linearGradient>
<linearGradient id="paint1_linear_1092_228" x1="553.543" y1="111.4" x2="553.543" y2="-174.943" gradientUnits="userSpaceOnUse">
<stop offset="0.13693" stop-color="#67311F"/>
<stop offset="1" stop-color="#CD623E"/>
</linearGradient>
<linearGradient id="paint2_linear_1092_228" x1="499.407" y1="31.658" x2="499.407" y2="332.801" gradientUnits="userSpaceOnUse">
<stop offset="0.33342" stop-color="#BE3A27"/>
<stop offset="1" stop-color="#581B12"/>
</linearGradient>
<linearGradient id="paint3_linear_1092_228" x1="374.096" y1="139.318" x2="441.423" y2="139.318" gradientUnits="userSpaceOnUse">
<stop stop-color="#3A211A"/>
<stop offset="1" stop-color="#0D0B0A"/>
</linearGradient>
<linearGradient id="paint4_linear_1092_228" x1="492.043" y1="142.244" x2="568.975" y2="142.244" gradientUnits="userSpaceOnUse">
<stop stop-color="#392019"/>
<stop offset="1" stop-color="#080808"/>
</linearGradient>
<clipPath id="clip0_1092_228">
<rect width="1000" height="349" rx="35" fill="white"/>
</clipPath>
</defs>
</svg>
