<svg width="1000" height="349" viewBox="0 0 1000 349" fill="none" xmlns="http://www.w3.org/2000/svg">
<g clip-path="url(#clip0_1089_69)">
<rect width="1000" height="349" rx="35" fill="#BC0000"/>
<rect width="1000" height="11" transform="translate(0 161)" fill="#E5E5E5"/>
<path d="M536.94 -460.825C582.647 -425.026 650.584 -369.527 705.849 -319.379C733.479 -294.306 757.955 -270.56 774.9 -251.277C783.371 -241.638 789.976 -233.098 794.152 -226.054C796.24 -222.532 797.731 -219.366 798.541 -216.612C799.349 -213.865 799.496 -211.474 798.823 -209.537C796.266 -202.173 789.863 -196.415 781.272 -191.938C772.676 -187.458 761.823 -184.225 750.249 -181.939C727.448 -177.437 701.748 -176.596 684.729 -177.209C700.698 -138.385 728.907 -126.43 740.96 -125.29L741.835 -125.207L741.316 -124.497C737.439 -119.191 730.133 -114.819 722.659 -111.512C715.665 -108.416 708.447 -106.222 703.568 -105.059C707.251 -102.223 712.334 -99.9611 717.323 -98.2695C722.672 -96.4563 727.864 -95.3147 731.001 -94.8193L731.686 -94.7109L731.367 -94.0957C725.118 -82.0005 711.093 -69.04 696.175 -57.7773C681.486 -46.6881 665.859 -37.1953 655.747 -31.7275C665.506 -18.4286 666.991 -6.66556 664.794 2.67285C662.627 11.8832 656.89 18.6719 652.126 22.2148L685.887 99.3828C685.598 90.0258 685.46 80.5238 685.453 71.4941L685.905 70.8691C691.304 63.3842 701.604 57.8044 714.288 55.4199C726.959 53.0379 741.947 53.859 756.645 59.1104C786.008 69.6021 814.272 97.8019 820.503 153.632L820.555 154.102C811.479 173.555 800.663 190.239 788.951 204.45C792.494 166.636 778.459 141.682 761.593 125.763C744.136 109.286 723.669 102.501 716.598 101.087C702.404 98.2484 693.381 104.627 690.603 108.273L690.432 108.497L690.534 108.759C693.529 116.412 700.012 135.501 702.004 150.642L702.046 150.961L702.354 151.055C712.064 154.017 725.732 163.007 734.535 179.363C743.11 195.296 747.087 218.259 738.225 249.518C716.047 263.654 694.678 271.354 678.757 274.235C665.294 291.634 645.076 303.494 625.295 311.255C605.455 319.039 586.005 322.72 574.139 323.724C525.972 330.717 494.651 329.268 475.057 324.587C465.257 322.246 458.371 319.091 453.777 315.765C449.887 312.948 447.617 309.988 446.641 307.277C443.949 313.602 440.554 317.981 436.817 320.853C432.819 323.925 428.455 325.251 424.209 325.411C415.995 325.72 408.213 321.665 404.252 317.45C400.068 321.388 389.512 327.656 377.645 323.7C371.478 321.645 367.563 316.854 365.176 311.764C362.952 307.02 362.031 301.97 361.848 298.496C357.51 300.303 351.233 301.948 343.893 303.421C336.155 304.974 327.204 306.346 318.043 307.526C299.72 309.888 280.53 311.488 268.451 312.237L268.436 312.238H268.42C243.326 312.238 226.48 309.7 215.79 305.54C205.089 301.377 200.45 295.538 200.031 288.92C199.617 282.375 203.356 275.264 208.909 268.574C214.368 261.999 221.655 255.744 228.744 250.701C208.578 225.215 204.333 203.16 207.317 185.9C210.247 168.959 220.129 156.712 228.587 150.433C214.51 141.029 208.508 129.305 208.199 116.48C207.887 103.515 213.395 89.4949 222.07 75.6885C239.304 48.2629 269.181 21.4572 291.629 5.00977C284.854 -1.92267 284.484 -11.2675 286.728 -20.0664C288.958 -28.8104 293.792 -37.1245 297.684 -42.2773C241.969 -82.9836 216.699 -124.714 211.011 -140.606L210.73 -141.392L211.555 -141.27C216.827 -140.488 222.686 -141.789 227.898 -143.765C232.497 -145.508 236.551 -147.762 239.19 -149.511C232.677 -150.976 226.299 -154.988 220.926 -159.458C215.223 -164.202 210.6 -169.502 208.081 -172.945L207.541 -173.684L208.454 -173.739C236.722 -175.475 259.494 -194.015 275.34 -212.179C283.256 -221.252 289.427 -230.212 293.673 -236.892C295.795 -240.23 297.436 -242.999 298.574 -244.928C299.142 -245.89 299.59 -246.651 299.907 -247.165C299.954 -247.24 299.999 -247.311 300.041 -247.378C260.728 -258.351 232.069 -287.147 222.577 -300.292L222.163 -300.828C220.147 -303.513 218.954 -306.269 218.545 -309.087C218.109 -312.093 218.571 -315.141 219.833 -318.215C222.351 -324.346 228.067 -330.612 236.302 -336.985C252.781 -349.74 279.574 -363.096 311.953 -376.782C376.709 -404.153 464.075 -432.946 536.452 -460.898L536.717 -461L536.94 -460.825ZM709.477 -26.252C724.843 -47.7641 749.235 -66.1388 785.941 -60.3564C815.358 -55.7224 831.454 -34.8462 839.618 -10.751C847.776 13.3257 848.049 40.6948 845.797 58.5596L845.798 58.5605C845.309 63.4282 844.728 68.1971 844.062 72.8682C837.563 45.6147 809.028 -1.04462 737.003 -1.42383H736.986C730.872 -1.25632 721.182 -0.252563 711.958 2.21777C702.942 4.63245 694.244 8.48309 689.847 14.4375C693.134 3.4566 699.362 -12.0911 709.477 -26.252ZM688.818 18.0791C688.063 21.743 687.202 26.8183 686.468 32.876C686.62 30.6775 686.789 28.7038 686.973 26.9912C687.173 25.1221 687.769 22.0238 688.818 18.0791ZM383.322 -156.757C378.043 -157.008 369.493 -156.633 361.932 -154.428C354.403 -152.232 347.648 -148.154 346.346 -140.862C345.689 -137.187 347.043 -133.34 349.407 -129.679C351.776 -126.01 355.201 -122.463 358.811 -119.355C362.423 -116.246 366.238 -113.561 369.403 -111.621C370.986 -110.651 372.412 -109.864 373.572 -109.302C374.658 -108.776 375.565 -108.423 376.159 -108.327L379.275 -106.992C378.862 -101.493 380.357 -95.5772 381.951 -90.916C382.768 -88.5282 383.617 -86.4557 384.258 -84.9229C384.58 -84.1533 384.846 -83.528 385.033 -83.0605C385.076 -82.9542 385.114 -82.8569 385.146 -82.7705C368.001 -80.9552 355.831 -85.4702 347.568 -91.8477C339.201 -98.3062 334.814 -106.694 333.339 -112.421H333.34C332.919 -114.188 332.135 -116.797 331.145 -118.876C330.652 -119.91 330.09 -120.852 329.471 -121.489C328.858 -122.12 328.074 -122.559 327.201 -122.269C325.794 -121.799 325.044 -120.631 324.672 -119.461C324.306 -118.309 324.277 -117.08 324.361 -116.277C324.37 -101.586 332.866 -91.0966 342.488 -84.1787C352.104 -77.2655 362.923 -73.8582 367.763 -73.3486C375.353 -72.5497 388.164 -73.0092 393.715 -73.3418C412.79 -66.5477 440.341 -65.5216 451.74 -65.8545H451.748L451.757 -65.8555C479.824 -67.6098 499.886 -76.7587 513.062 -85.542C519.648 -89.9328 524.512 -94.2305 527.792 -97.4639C529.432 -99.0805 530.676 -100.431 531.541 -101.392C531.98 -101.879 532.303 -102.247 532.55 -102.521C532.671 -102.654 532.764 -102.754 532.832 -102.822C532.857 -102.848 532.877 -102.866 532.891 -102.879C533.133 -102.986 533.539 -102.98 534.269 -102.419C535.02 -101.841 535.985 -100.766 537.226 -99.0283C539.292 -96.1353 541.595 -95.3223 542.628 -95.3223C544.489 -95.3224 545.742 -95.8169 546.348 -96.8203C546.937 -97.7969 546.789 -99.063 546.358 -100.296C545.487 -102.788 543.257 -105.721 541.498 -107.647C538.899 -110.753 530.779 -116.801 518.653 -116.801C514.864 -116.801 512.071 -116.233 510.159 -115.367C508.26 -114.507 507.151 -113.309 506.923 -112.018C506.69 -110.695 507.411 -109.484 508.703 -108.708C509.993 -107.934 511.89 -107.554 514.213 -107.812C517.779 -108.209 520.23 -108.122 521.833 -107.865C522.635 -107.737 523.215 -107.566 523.614 -107.398C523.744 -107.344 523.851 -107.29 523.937 -107.241C520.474 -103.196 511.349 -95.5219 498.688 -88.709C485.623 -81.6788 468.845 -75.5931 450.72 -75.3447C421.786 -74.9484 402.311 -80.1028 396.102 -82.7471C392.821 -87.0381 391.076 -92.1541 390.234 -96.835C389.434 -101.29 389.456 -105.321 389.735 -107.815C395.253 -107.934 405.624 -110.216 414.548 -115.113C423.711 -120.142 431.516 -128.028 430.747 -139.31C430.451 -143.657 427.902 -146.884 424.181 -149.269C420.47 -151.646 415.55 -153.22 410.384 -154.281C400.05 -156.404 388.539 -156.508 383.322 -156.757ZM469.217 -182.624C471.252 -173.127 482.387 -153.697 510.593 -151.268C545.633 -146.15 562.767 -162.476 567.296 -171.963C567.3 -171.971 567.303 -171.98 567.307 -171.988C567.403 -172.183 567.491 -172.37 567.564 -172.551L566.643 -172.939C566.566 -172.764 566.484 -172.584 566.397 -172.402C564.564 -168.751 557.881 -161.88 543.587 -160.752C536.163 -160.166 531.238 -162.966 528.074 -166.684C524.891 -170.423 523.472 -175.116 523.146 -178.285L523.104 -178.697L522.691 -178.732L469.748 -183.228L469.075 -183.284L469.217 -182.624ZM311.877 -199.662C312.303 -195.32 314.465 -188.773 319.559 -183.155C324.665 -177.523 332.699 -172.846 344.815 -172.24C356.843 -171.639 365.066 -172.848 370.469 -174.625C373.17 -175.514 375.175 -176.547 376.599 -177.574C378.015 -178.596 378.883 -179.632 379.265 -180.537L379.681 -181.525L378.656 -181.209C367.771 -177.845 361.461 -179.824 357.936 -183.464C354.371 -187.145 353.502 -192.671 353.829 -196.674L353.87 -197.176L353.367 -197.213L312.411 -200.21L311.819 -200.253L311.877 -199.662Z" fill="#080808"/>
<path d="M701 151.5C699 136.3 693.734 116.243 690.734 108.577C693.401 105.077 702.234 98.7768 716.234 101.577C730.234 104.377 799 124.576 789 204.576C777.667 216.243 750.066 243.199 737.266 249.999C756.866 184.799 720.667 157.5 701 151.5Z" fill="url(#paint0_linear_1089_69)"/>
<path d="M820.734 153.577C808.234 41.5768 707.234 40.0762 685.234 70.5768C684.034 45.7768 687.734 23.2431 689.734 15.0762C698.134 3.07617 724.568 -0.590495 736.734 -0.923828C812.734 -0.523828 840.068 51.5762 844.234 77.5762C841.834 100.376 827.568 137.743 820.734 153.577Z" fill="url(#paint1_linear_1089_69)"/>
<circle cx="386" cy="302" r="24" fill="#2B2B2B"/>
<circle cx="422.5" cy="302.5" r="24.5" fill="#131313"/>
<circle cx="385.396" cy="297.324" r="31.3237" fill="url(#paint2_linear_1089_69)"/>
<circle cx="422.677" cy="297.324" r="31.3237" fill="url(#paint3_linear_1089_69)"/>
<path d="M362.52 318.906C345.974 299.842 356.975 278.589 366.567 272.295C350.38 320.404 387.849 323.402 391.746 322.503C394.863 321.783 394.149 317.906 393.402 316.058C389.89 307.695 390.664 297.996 391.746 293.427C389.828 308.894 399.04 319.255 403.886 322.503C385.751 335.242 368.965 325.8 362.52 318.906Z" fill="black" fill-opacity="0.37"/>
<path d="M399.965 319.205C383.419 300.141 394.421 278.889 404.012 272.594C387.825 320.704 425.295 323.702 429.191 322.802C436.443 322.153 451.545 316.628 453.943 299.722C452.264 312.551 444.85 320.254 441.353 322.503C423.518 334.942 406.41 326.1 399.965 319.205Z" fill="black" fill-opacity="0.37"/>
<path d="M447.35 306.466C451.306 298.313 444.452 283.785 440.905 276.941C439.306 274.143 437.668 270.226 443.902 276.941C451.696 285.334 452.895 300.771 448.549 306.916C446.151 308.714 447 306.966 447.35 306.466Z" fill="white" fill-opacity="0.37"/>
</g>
<defs>
<linearGradient id="paint0_linear_1089_69" x1="764.617" y1="-0.923828" x2="764.617" y2="249.999" gradientUnits="userSpaceOnUse">
<stop stop-color="#C72B2B"/>
<stop offset="1" stop-color="#611515"/>
</linearGradient>
<linearGradient id="paint1_linear_1089_69" x1="764.617" y1="-0.923828" x2="764.617" y2="249.999" gradientUnits="userSpaceOnUse">
<stop stop-color="#C72B2B"/>
<stop offset="1" stop-color="#611515"/>
</linearGradient>
<linearGradient id="paint2_linear_1089_69" x1="385.396" y1="266" x2="385.396" y2="328.647" gradientUnits="userSpaceOnUse">
<stop stop-color="#BB0101"/>
<stop offset="1" stop-color="#550000"/>
</linearGradient>
<linearGradient id="paint3_linear_1089_69" x1="431.487" y1="270.405" x2="398.695" y2="305.644" gradientUnits="userSpaceOnUse">
<stop stop-color="#BB0101"/>
<stop offset="1" stop-color="#550000"/>
</linearGradient>
<clipPath id="clip0_1089_69">
<rect width="1000" height="349" rx="35" fill="white"/>
</clipPath>
</defs>
</svg>
