<svg width="1000" height="349" viewBox="0 0 1000 349" fill="none" xmlns="http://www.w3.org/2000/svg">
<rect width="1000" height="349" rx="35" fill="#BC0000"/>
<path d="M184.389 46V97.5499H144.609V303.59H77.6205V97.5499H38V46H184.389Z" fill="black"/>
<path d="M315.343 46L353.691 303.59H285.111L281.769 257.291H257.742L253.764 303.59H184.389L218.44 46H315.343ZM279.86 211.628C276.465 182.459 273.071 146.448 269.676 103.596C262.887 152.812 258.644 188.823 256.947 211.628H279.86Z" fill="black"/>
<path d="M514.718 46V303.59H456.004L421.157 186.489V303.59H365.147V46H421.157L458.709 161.987V46H514.718Z" fill="black"/>
<path d="M694.045 46V218.151C694.045 237.668 693.408 251.404 692.135 259.359C690.862 267.209 687.097 275.323 680.838 283.702C674.579 291.976 666.305 298.287 656.016 302.636C645.832 306.879 633.792 309 619.896 309C604.514 309 590.936 306.454 579.161 301.363C567.387 296.272 558.582 289.642 552.748 281.475C546.913 273.308 543.466 264.716 542.405 255.7C541.344 246.578 540.814 227.485 540.814 198.422V46H607.803V239.153C607.803 250.396 608.386 257.609 609.553 260.791C610.826 263.867 613.319 265.405 617.031 265.405C621.275 265.405 623.98 263.708 625.147 260.314C626.419 256.814 627.056 248.646 627.056 235.812V46H694.045Z" fill="black"/>
<path d="M879.577 46L841.229 162.306L883.236 303.59H814.02L786.97 193.172V303.59H719.981V46H786.97V146.077L816.725 46H879.577Z" fill="black"/>
<path d="M962 46V303.59H895.011V46H962Z" fill="black"/>
</svg>
