<svg width="1000" height="349" viewBox="0 0 1000 349" fill="none" xmlns="http://www.w3.org/2000/svg">
<g clip-path="url(#clip0_1151_2312)">
<rect width="1000" height="349" rx="35" fill="black"/>
<circle cx="499" cy="175" r="261" fill="#BC0000"/>
<path d="M224.386 111.846C224.066 114.086 220.786 115.712 219.185 116.245C199.985 123.443 183.585 129.042 173.585 125.043C165.585 121.844 166.518 127.176 167.985 130.242C183.985 157.836 205.185 158.236 207.985 157.036C210.225 156.076 210.252 156.903 209.985 157.436C211.265 165.754 193.985 210.224 185.185 231.419C181.318 240.883 173.425 261.652 172.785 269.01C171.985 278.208 176.785 296.204 186.785 297.803C196.785 299.403 200.785 291.005 201.585 281.407C202.225 273.729 209.052 250.481 212.385 239.817C220.919 214.223 238.466 161.515 240.386 155.436C242.306 149.358 245.719 147.305 247.186 147.038C265.586 141.84 302.627 130.242 303.587 125.443C304.787 119.445 291.987 105.448 286.787 101.449C281.586 97.4498 263.186 105.448 260.386 106.248C258.146 106.888 258.386 105.448 258.786 104.648C264.786 89.0518 266.786 93.8507 269.586 79.454C272.386 65.0574 244.386 53.4599 243.186 53.06C241.986 52.6601 235.986 54.2597 237.986 57.8589C239.586 60.7382 239.452 61.7246 239.186 61.8579C231.986 75.4548 224.786 109.047 224.386 111.846Z" fill="white"/>
<path d="M268.786 190.228C274.546 190.228 276.519 191.028 276.786 191.428C280.786 193.827 283.186 191.828 285.186 191.828C287.186 191.828 289.586 192.628 291.586 192.628C293.586 192.628 295.986 191.428 298.786 192.228C301.026 192.868 308.253 192.228 311.587 191.828C315.32 191.828 322.947 192.228 323.587 193.827C324.387 195.827 309.987 208.624 309.987 209.424C309.987 210.224 309.187 211.823 321.987 206.624C334.787 201.426 347.987 203.825 355.587 201.426C363.187 199.026 365.987 188.629 357.587 179.031C349.187 169.433 333.987 165.434 320.787 162.635C307.587 159.835 268.786 183.03 266.386 184.23C263.986 185.429 261.586 190.228 268.786 190.228Z" fill="white"/>
<path d="M269.586 236.618C266.706 229.259 263.319 234.351 261.986 237.817C257.586 284.206 311.587 294.604 316.787 295.804C321.987 297.003 351.987 299.403 361.587 289.405C369.268 281.407 356.787 268.743 349.587 263.411C345.427 259.892 333.187 263.039 323.587 263.411C282.386 265.011 273.186 245.815 269.586 236.618Z" fill="white"/>
<path d="M697.061 226.53C695.465 217.268 690.012 225.333 687.485 230.523C674.718 285.616 750.527 299.589 770.477 299.988C790.427 300.387 812.771 290.806 797.21 276.434C781.649 262.061 798.008 267.651 750.527 265.255C703.319 262.874 699.104 238.391 697.096 226.731L697.061 226.53Z" fill="white"/>
<path d="M735.764 96.3825C736.722 98.9375 734.833 99.8424 733.769 99.9755L725.39 103.169C677.91 119.138 677.91 95.584 676.713 107.96C675.516 120.336 709.43 141.495 715.814 141.495C722.198 141.495 744.143 128.72 748.532 129.119C752.043 129.438 758.773 145.753 761.699 153.871C729.141 170.16 708.233 170.772 701.849 169.042C697.061 168.11 688.523 167.525 692.672 172.635L692.736 172.713C697.982 179.174 713.092 197.783 730.577 196.988C748.133 196.189 770.477 182.216 776.861 182.615C783.245 183.015 792.023 205.771 792.023 206.968C792.023 208.166 775.265 211.36 767.684 212.158C761.619 212.797 763.827 215.884 765.689 217.348C773.536 220.143 790.427 226.051 795.215 227.329C801.2 228.926 804.392 236.112 811.574 238.906C818.755 241.701 827.932 238.906 829.129 234.914C830.326 230.922 837.508 219.344 818.755 198.584C803.753 181.977 800.003 174.365 800.003 172.635C819.474 164.97 828.065 157.996 829.927 155.468C838.705 141.096 811.973 131.914 806.387 130.317C800.801 128.72 786.437 146.286 781.649 143.89C777.818 141.974 772.871 128.188 770.876 121.534C776.462 119.138 789.15 113.469 795.215 109.956C802.796 105.565 805.988 100.774 804.392 96.3825C802.796 91.991 797.21 86.0026 792.422 82.8088C787.634 79.615 775.664 83.6072 767.684 87.2003C761.3 90.0747 759.438 89.7287 759.305 89.1964C756.645 80.4134 749.889 61.1707 744.143 54.4637C736.961 46.0799 723.794 50.8707 720.602 57.6575C717.41 64.4444 719.804 68.0374 723.794 71.6304C727.784 75.2235 734.567 93.1887 735.764 96.3825Z" fill="white"/>
<path d="M515.381 73.0831C517.049 72.8746 520.409 73.0832 523.555 73.4328C525.138 73.6087 526.687 73.8231 527.969 74.0441C529.233 74.262 530.283 74.4945 530.84 74.7169C531.161 74.8454 531.533 75.0963 531.922 75.4113C532.318 75.7329 532.762 76.1457 533.228 76.6281C534.162 77.5932 535.204 78.8537 536.17 80.2511C537.135 81.6476 538.03 83.1929 538.66 84.7296C539.288 86.2601 539.668 87.8194 539.559 89.2296C539.356 91.8717 538.142 97.1347 537.199 101.849C536.724 104.225 536.315 106.471 536.124 108.217C536.028 109.092 535.99 109.822 536.019 110.372C536.034 110.647 536.065 110.862 536.108 111.019C536.153 111.182 536.199 111.242 536.212 111.255C536.227 111.271 536.296 111.322 536.478 111.378C536.652 111.431 536.887 111.477 537.188 111.512C537.79 111.582 538.594 111.606 539.572 111.603C540.547 111.6 541.677 111.57 542.925 111.538C544.171 111.506 545.532 111.472 546.963 111.459C552.667 111.409 559.566 111.704 564.875 113.95C570.066 116.146 579.143 119.575 588.116 126.985C597.099 134.404 605.967 145.801 610.799 163.92C618.438 192.567 612.795 219.632 608.897 229.963C611.914 232.813 616.244 237.53 619.747 242.73C621.546 245.401 623.135 248.212 624.215 250.971C625.293 253.726 625.875 256.462 625.624 258.971C625.014 265.074 622.864 268.525 620.317 270.383C617.783 272.231 614.943 272.437 613.062 272.228C612.237 272.136 611.345 271.745 610.468 271.217C609.583 270.684 608.673 269.986 607.807 269.236C606.073 267.737 604.472 265.994 603.524 264.843L603.515 264.831L603.506 264.818C602.117 262.901 599.838 260.128 597.521 258.041C596.361 256.996 595.214 256.144 594.182 255.651C593.135 255.15 592.317 255.069 591.725 255.365C591.292 255.582 590.742 256.015 590.044 256.652C589.353 257.284 588.557 258.078 587.63 258.989C585.782 260.806 583.447 263.053 580.542 265.226C574.724 269.577 566.611 273.634 555.464 273.432C544.323 273.229 535.216 268.772 528.699 263.771C525.44 261.27 522.823 258.629 520.917 256.305C519.021 253.993 517.799 251.961 517.37 250.673C516.564 248.255 514.735 242.269 515.346 235.608C515.958 228.918 519.033 221.552 528.006 216.454C545.758 206.368 565.485 209.574 582.342 217.956C582.886 217.759 584.064 216.953 584.611 214.766C585.012 213.164 588.595 200.12 587.699 184.894C586.803 169.667 581.438 152.351 564.025 142.062L564.013 142.054L564 142.045C560.012 139.344 547.586 134.905 530.227 139.251C522.063 160.785 503.389 208.031 493.143 226.987C493.339 228.235 494.488 231.84 497.849 237.033C500.029 240.403 502.609 243.379 504.665 245.786C505.687 246.983 506.589 248.051 507.235 248.946C507.559 249.395 507.829 249.813 508.018 250.194C508.205 250.568 508.337 250.952 508.337 251.316C508.337 252.27 508.537 255.732 508.336 259.151C508.235 260.866 508.032 262.605 507.644 264.054C507.265 265.472 506.674 266.742 505.7 267.351C504.075 268.366 501.732 269.591 499.323 270.309C496.937 271.019 494.367 271.268 492.383 270.166C491.967 269.935 491.479 269.541 490.949 269.044C490.413 268.542 489.809 267.912 489.161 267.193C487.864 265.752 486.37 263.929 484.846 261.982C481.971 258.31 478.975 254.18 476.961 251.311C472.442 256.247 465.255 263.249 457.828 268.789C453.998 271.646 450.088 274.127 446.437 275.734C442.801 277.334 439.348 278.099 436.468 277.421C429.481 275.777 426.262 271.744 424.56 267.567C423.716 265.494 423.246 263.391 422.864 261.556C422.476 259.689 422.188 258.162 421.717 257.126C421.227 256.048 420.454 254.822 419.558 253.202C418.674 251.605 417.709 249.688 416.895 247.324C415.266 242.589 414.26 236.103 415.673 226.821C418.483 208.355 429.691 181.519 443.719 163.836C444.097 161.829 444.403 157.128 444.069 149.44C443.73 141.625 442.733 130.752 440.5 116.543C439.622 114.358 438.847 111.006 439.403 107.995C439.685 106.467 440.315 105.006 441.468 103.841C442.623 102.674 444.268 101.84 446.517 101.507C449.388 101.082 451.862 101.995 453.967 103.949C456.054 105.887 457.777 108.843 459.216 112.527C462.094 119.899 463.9 130.364 465.101 141.981L465.104 142.006V142.031C465.104 142.04 465.105 142.046 465.106 142.051C465.109 142.052 465.113 142.055 465.118 142.056C465.217 142.079 465.569 142.07 466.349 141.603C466.574 141.468 467.137 141.062 468.014 140.419C468.878 139.786 470.023 138.941 471.385 137.955C474.109 135.982 477.707 133.437 481.695 130.854C489.646 125.703 499.233 120.341 506.554 119.121C507.071 119.035 508.815 118.043 509.754 114.289C510.345 111.925 511.243 105.951 511.793 100.103C512.067 97.1831 512.254 94.3094 512.272 91.9464C512.282 90.7646 512.249 89.7183 512.166 88.8624C512.082 87.994 511.949 87.3658 511.783 86.9923C511.344 86.0047 511.141 84.6776 511.115 83.2706C511.089 81.8546 511.244 80.3155 511.552 78.879C511.859 77.4465 512.324 76.0894 512.935 75.0519C513.536 74.034 514.345 73.2126 515.381 73.0831ZM555.188 230.413C547.54 228.596 542.628 231.29 539.91 233.968L539.893 233.985L539.878 234.003C538.614 235.509 537.242 238.282 537.18 241.36C537.116 244.477 538.398 247.872 542.386 250.53C547.423 253.889 552.853 252.487 557.417 249.951C561.968 247.423 565.846 243.657 567.794 242.099C569.119 241.039 570.009 239.965 570.254 238.852C570.511 237.679 570.027 236.608 568.967 235.655C567.922 234.716 566.264 233.835 564 232.98C561.727 232.121 558.802 231.272 555.188 230.413ZM451.409 192.217C450.837 191.93 450.285 192.11 449.867 192.418C449.461 192.717 449.111 193.178 448.829 193.644C448.542 194.118 448.3 194.637 448.125 195.093L440.522 213.9L440.518 213.91C438.643 218.868 436.347 226.436 435.566 233.023C435.177 236.311 435.158 239.402 435.789 241.813C436.423 244.235 437.744 246.061 440.073 246.599C445.553 247.863 450.734 244.376 454.748 240.412C456.772 238.413 458.539 236.254 459.946 234.426C461.374 232.571 462.391 231.115 462.982 230.425C464.03 229.202 464.52 227.593 464.72 226.124C464.92 224.65 464.838 223.258 464.697 222.411L464.687 222.353L464.664 222.298L461.504 214.872C457.939 206.486 453.618 196.283 452.659 193.886C452.327 193.055 451.924 192.475 451.409 192.217ZM500.117 145.933C499.814 145.79 499.46 145.784 499.121 145.832C498.44 145.929 497.553 146.285 496.544 146.8C494.506 147.839 491.773 149.63 488.791 151.763C482.818 156.033 475.762 161.728 471.087 165.668L471.049 165.699L471.018 165.738C470.468 166.427 469.684 167.56 469.117 168.735C468.834 169.323 468.596 169.939 468.473 170.527C468.351 171.107 468.331 171.711 468.543 172.24C469.18 173.833 476.006 192.897 479.345 202.246L479.382 202.352L479.462 202.432C479.796 202.766 480.392 202.977 481.042 202.629C481.636 202.311 482.192 201.567 482.685 200.252C483.284 198.657 487.991 186.439 492.445 174.076C494.673 167.895 496.839 161.669 498.399 156.712C499.179 154.234 499.81 152.065 500.222 150.374C500.427 149.529 500.579 148.795 500.668 148.197C500.754 147.616 500.788 147.109 500.723 146.746C500.657 146.386 500.455 146.092 500.117 145.933Z" fill="white"/>
</g>
<defs>
<clipPath id="clip0_1151_2312">
<rect width="1000" height="349" rx="35" fill="white"/>
</clipPath>
</defs>
</svg>
