<svg width="1000" height="349" viewBox="0 0 1000 349" fill="none" xmlns="http://www.w3.org/2000/svg">
<g clip-path="url(#clip0_1151_2359)">
<rect width="1000" height="349" rx="35" fill="#E5E5E5"/>
<circle cx="499" cy="175" r="261" fill="black"/>
<path d="M274.029 78.11C271.647 66.5569 279.273 65.3676 283.384 66.2171C294.951 66.8967 304.362 75.5616 307.622 79.809C309.04 82.3575 310.769 88.5588 306.346 92.9761C301.924 97.3935 296.282 106.71 294.014 110.815C296.282 110.674 303.71 110.306 315.276 109.966C329.734 109.541 351.422 106.568 359.076 102.321C366.73 98.0731 371.833 104.444 378.637 110.815C385.441 117.187 382.039 126.956 380.338 128.655C378.637 130.354 371.408 141.822 369.707 148.618C368.006 155.414 348.02 191.517 346.744 194.49C345.468 197.464 344.193 195.34 355.674 207.658C367.155 219.975 356.95 235.266 353.548 238.664C350.146 242.062 344.618 240.788 340.791 238.239C336.964 235.691 331.435 225.922 328.884 223.798C326.843 222.099 324.632 223.373 323.781 224.223C302.689 249.707 261.413 269.387 243.411 276.042C238.308 278.449 227.167 282.158 223.425 277.741C219.683 273.323 225.551 269.104 228.953 267.547C259.57 254.974 295.574 217.851 309.748 200.862C302.094 188.544 274.453 169.43 271.052 166.882C267.65 164.333 271.477 157.538 274.029 156.688C276.07 156.008 281.683 157.538 284.234 158.387C305.496 163.909 316.977 174.103 320.379 176.651C323.781 179.2 324.206 179.2 324.632 179.2C329.734 177.84 340.932 149.184 345.894 135.026V128.655C331.01 130.92 299.202 135.111 291.038 133.752C282.873 132.393 277.714 135.734 276.154 137.574C265.098 149.467 216.196 195.765 209.818 192.367C204.715 189.648 207.691 184.155 209.818 181.748C228.103 171.979 277.005 92.5514 274.029 78.11Z" fill="#BC0000"/>
<path d="M552.56 92.1267C546.436 90.0879 533.566 94.6751 527.896 97.2236C509.996 99.9223 467.145 100.053 447.526 99.7782L430.516 98.9226C413.166 98.9226 423.287 119.877 430.516 130.354C432.359 131.628 436.725 133.922 439.446 132.902C442.168 131.883 451.353 129.646 455.605 128.655C479.759 124.577 514.713 121.576 529.171 120.585C529.171 130.354 513.012 161.785 512.162 164.333C511.311 166.882 506.634 171.129 501.106 166.882C495.578 162.634 467.512 152.865 464.96 153.29C462.409 153.715 459.007 160.086 467.512 166.882C474.316 172.319 487.64 185.288 493.451 191.092C475.761 219.635 434.201 248.008 415.633 258.627C410.246 261.034 400.154 267.207 402.876 272.644C405.597 278.08 419.035 274.06 425.413 271.369C461.473 261.176 500.539 227.196 515.564 211.48C526.62 219.126 535.125 238.239 544.905 242.912C554.686 247.584 562.765 239.938 563.616 225.072C564.296 213.179 542.637 194.066 531.723 185.996C535.805 181.578 551.567 151.308 558.938 136.725C560.072 133.61 564.041 125.427 570.845 117.611C579.35 107.842 560.214 94.6751 552.56 92.1267Z" fill="#BC0000"/>
<path d="M664.823 89.1534C652.916 79.9789 660.712 74.5705 666.098 73.0131C674.943 71.6539 688.494 73.8626 694.164 75.1368C697.849 75.9863 704.625 79.7241 702.244 87.8792C699.862 96.0343 702.669 110.815 704.37 117.187C710.89 116.054 726.992 112.854 739.239 109.116C754.548 104.444 760.926 106.143 768.581 118.886C776.235 131.628 760.926 137.15 751.146 136.725C743.322 136.385 720.104 140.265 709.473 142.247C710.181 151.025 712.279 169.515 715.001 173.253C720.529 173.253 752.847 164.333 769.856 160.511C786.866 156.688 791.544 177.076 791.969 180.899C792.394 184.721 788.567 192.367 774.109 192.367C759.651 192.367 720.529 196.614 719.678 198.738C718.828 200.862 725.632 244.61 729.459 257.778C733.286 270.945 724.781 279.864 722.23 281.563C719.678 283.262 712.874 284.112 706.496 280.289C701.393 277.231 698.7 271.086 697.991 268.396C695.865 247.725 690.932 206.044 688.211 204.684C684.809 202.985 649.514 214.454 645.687 214.878C641.86 215.303 631.654 222.524 624.85 220.825C618.046 219.126 608.266 206.808 607.415 198.738C606.565 190.668 610.817 189.818 623.574 189.818C633.78 189.818 668.933 183.022 685.234 179.624L679.706 148.618C671.91 150.317 653.681 154.225 643.135 156.263C629.953 158.812 622.299 159.661 615.07 150.742C607.841 141.822 603.588 130.354 625.701 129.929C643.391 129.589 665.956 124.974 675.028 122.708C672.647 99.2624 667.232 90.5693 664.823 89.1534Z" fill="#BC0000"/>
</g>
<defs>
<clipPath id="clip0_1151_2359">
<rect width="1000" height="349" rx="35" fill="white"/>
</clipPath>
</defs>
</svg>
