<svg width="1000" height="349" viewBox="0 0 1000 349" fill="none" xmlns="http://www.w3.org/2000/svg">
<rect width="1000" height="349" rx="35" fill="#BC0000"/>
<path d="M195.402 12.1514C209.778 21.2454 230.952 35.3365 247.749 48.0518C256.144 54.4068 263.464 60.4315 268.295 65.3242C270.706 67.7663 272.524 69.954 273.54 71.7773C274.048 72.6883 274.374 73.5416 274.454 74.3125C274.536 75.0981 274.362 75.8143 273.858 76.3867C269.796 81.0017 261.814 85.4299 242.629 86.9092C240.058 87.1074 237.282 87.2503 234.287 87.3359C234.828 90.1658 235.237 93.578 235.237 97.334C235.237 102.37 236.349 105.972 237.855 108.816C239.291 111.53 241.083 113.565 242.722 115.566C241.338 116.762 239.958 118.472 239.368 120.524C238.976 121.891 238.936 123.406 239.476 125C239.819 126.013 240.393 127.046 241.241 128.088C240.387 128.818 239.517 129.464 238.618 130.032C233.647 131.618 220.506 131.009 212.241 115.268C209.585 110.208 206.465 107.571 203.917 106.862C202.639 106.507 201.457 106.629 200.59 107.255C199.715 107.886 199.264 108.955 199.299 110.264C199.367 112.849 201.308 116.532 205.983 120.656C210.465 124.609 217.522 129.024 228.071 133.342C222.33 133.837 215.133 133.045 205.329 131.696C201.138 131.12 198.385 131.932 196.61 133.485C194.822 135.051 193.891 137.487 193.602 140.432C193.039 146.151 194.935 153.413 196.962 158.573L197.159 159.068L197.162 159.075L197.168 159.091L197.17 159.096C212.103 201.505 208.002 233.975 203.39 247.207C208.332 243.335 217.583 235.295 226.485 225.023C236.872 213.039 251.955 204.338 258.215 201.475L258.22 201.472L258.223 201.471L258.245 201.461L258.254 201.457C310.141 180.109 342.524 204.061 352.542 219.2L352.544 219.203L352.766 219.542L352.789 219.575L352.806 219.609C366.072 244.784 362.926 265.69 353.542 281.566C344.186 297.395 328.666 308.175 317.217 313.267L316.588 313.546L315.001 314.252L315.97 312.811L316.354 312.238H316.355C323.553 301.537 333.171 271.523 313.36 237.718C303.472 220.845 291.022 213.428 279.517 210.962C268.775 208.66 258.804 210.664 252.436 213.409C281.468 227.307 294.182 248.455 298.193 269.358C302.132 289.882 297.676 310.123 292.16 322.983L291.624 324.204L291.585 324.291L291.486 324.511L291.253 324.57L264.464 331.419L263.572 331.647L263.866 330.774L263.983 330.429C282.87 274.549 252.498 238.89 234.62 227.739C231.629 230.475 227.351 234.469 223.764 237.996C221.889 239.839 220.211 241.548 219.004 242.88C218.4 243.547 217.924 244.109 217.604 244.539C217.515 244.658 217.441 244.762 217.382 244.853C236.008 258.261 243.362 276.03 244.959 292.811C246.567 309.704 242.346 325.604 237.945 335.104V335.105L237.898 335.208L237.778 335.467L237.494 335.494L237.382 335.506C110.073 348.347 61.1714 300.349 52.6632 274.266C33.6787 231.212 37.0056 193.4 47.3819 164.809C57.7472 136.248 75.1605 116.856 84.4142 110.619C97.1353 102.046 113.778 83.8828 123.052 72.8809C122.343 72.5849 121.645 72.2875 120.966 71.9834C117.353 70.3643 114.192 68.6218 112.138 66.8496C111.112 65.9643 110.327 65.0418 109.917 64.0918C109.498 63.1212 109.474 62.1225 109.966 61.1562C110.212 60.673 110.669 60.1314 111.269 59.5479C111.876 58.9569 112.662 58.2935 113.602 57.5684C115.481 56.1174 118.004 54.3959 121.01 52.4805C127.023 48.6484 135.003 44.0163 143.709 39.1689C161.124 29.4731 181.479 18.9021 194.909 12.1279L195.162 12L195.402 12.1514ZM200.662 259.148C193.997 264.546 184.531 270.822 180.317 273.486C183.106 277.072 187.537 285.196 190.026 295.539C192.552 306.033 193.084 318.839 187.855 331.53C190.621 331.492 205.059 331.267 212.733 331.146C215.415 323.495 217.138 309.608 215.814 295.563C214.486 281.484 210.106 267.336 200.662 259.148ZM159.563 288.3C151.804 293.333 141.437 296.411 136.87 297.405C137.687 300.496 138.674 305.981 138.647 311.417C138.632 314.227 138.348 317.036 137.621 319.5C136.961 321.74 135.927 323.71 134.386 325.131C138.356 325.951 144.257 327.11 149.78 328.062C152.684 328.562 155.483 329.006 157.84 329.314C160.065 329.606 161.88 329.771 163.021 329.758C164.263 326.277 165.386 319.526 165.207 311.838C165.027 304.109 163.532 295.475 159.563 288.3ZM65.963 267.507L64.2911 264.249L60.0685 266.416L66.2228 278.405L70.4454 276.238L68.7794 272.993L85.6554 264.329L82.839 258.844L65.963 267.507ZM63.7589 234.336C60.6439 235.123 58.614 235.741 57.67 236.19C56.7166 236.643 56.023 237.448 55.5899 238.604C55.1476 239.764 55.172 241.314 55.6622 243.255C56.0711 244.874 56.7067 246.114 57.5685 246.974C58.4301 247.833 59.3015 248.334 60.1827 248.474C61.0523 248.607 62.2168 248.488 63.6749 248.12L64.9386 247.801L63.5792 242.419L61.6046 242.917C60.5537 243.182 59.8932 243.299 59.6231 243.267C59.3436 243.236 59.1548 243.027 59.0567 242.639C58.9708 242.298 59.0612 242.018 59.3282 241.8C59.5835 241.574 60.2039 241.338 61.1886 241.089C61.9744 240.89 62.5118 240.825 62.8009 240.893C63.09 240.961 63.8415 241.844 65.0558 243.541C66.1823 245.13 67.0581 246.083 67.6817 246.398C68.3054 246.714 69.323 246.694 70.7335 246.338L72.2813 245.946C74.1842 245.466 75.3143 244.737 75.672 243.761C76.0178 242.777 76.0641 241.783 75.8106 240.779C75.6169 240.013 75.2855 239.396 74.8155 238.931C74.3336 238.458 73.7119 238.132 72.9513 237.951L74.6271 237.528L73.2169 231.946L63.7589 234.336ZM69.5821 238.969C70.5287 238.73 71.1298 238.638 71.3858 238.694C71.6299 238.743 71.7979 238.948 71.8888 239.308C71.9843 239.686 71.9066 239.977 71.6563 240.182C71.4034 240.376 70.7888 240.597 69.8136 240.844C68.9616 241.059 68.2902 241.153 67.7999 241.126C67.3072 241.089 66.6092 240.696 65.7052 239.947L69.5821 238.969ZM58.6612 205.593C56.9626 205.628 55.754 205.745 55.0353 205.945C54.3068 206.146 53.7094 206.573 53.2442 207.228C52.7792 207.882 52.5565 208.716 52.5772 209.731C52.5939 210.542 52.7901 211.256 53.1642 211.873C53.5282 212.481 54.0707 212.992 54.7921 213.407L53.003 213.342L53.1271 219.361L72.5616 218.963L72.4396 213.046L59.3028 213.315C57.8384 213.345 56.9387 213.31 56.6046 213.209C56.2609 213.109 56.0849 212.848 56.0763 212.429C56.0681 212.029 56.2092 211.781 56.5001 211.688C56.7912 211.594 57.6059 211.533 58.9435 211.506L72.4024 211.229L72.2813 205.313L58.6612 205.593ZM57.6554 181.028L70.4591 183.709C72.0171 184.035 72.9306 184.272 73.1993 184.418C73.4699 184.555 73.5608 184.838 73.4708 185.268C73.3867 185.669 73.1957 185.888 72.8985 185.926C72.6033 185.954 71.7149 185.813 70.2335 185.503L57.2862 182.792L56.0733 188.584L68.9063 191.271C70.5405 191.613 71.6417 191.809 72.2101 191.858C72.7689 191.906 73.33 191.848 73.8927 191.687C74.4571 191.515 74.9522 191.175 75.378 190.666C75.804 190.157 76.108 189.466 76.2901 188.597C76.4502 187.832 76.4337 187.125 76.2403 186.476C76.0394 185.815 75.6608 185.217 75.1046 184.682L76.6603 185.112L77.8946 179.22L58.8683 175.236L57.6554 181.028ZM66.4806 154.542L70.8644 158.604L61.8243 154.421L59.339 159.792L80.8634 169.75L83.3478 164.379L75.6642 160.824L84.1231 162.703L86.5157 157.532L74.5968 155.456L68.5724 150.021L66.4806 154.542ZM78.3116 135.864L93.6661 147.785L97.4034 142.972L82.0489 131.051L78.3116 135.864ZM74.9337 133.241L77.3751 135.137L81.1114 130.323L78.67 128.428L74.9337 133.241ZM201.175 108.066C201.725 107.669 202.568 107.526 203.649 107.826C205.82 108.43 208.762 110.793 211.356 115.732C218.384 129.12 228.934 131.972 235.434 131.586C234.552 131.878 233.658 132.093 232.825 132.26C231.897 132.445 231.072 132.568 230.418 132.68C230.097 132.734 229.809 132.788 229.582 132.847C229.568 132.85 229.554 132.854 229.54 132.857C218.451 128.427 211.17 123.898 206.646 119.906C202.04 115.844 200.356 112.402 200.299 110.237C200.271 109.172 200.632 108.459 201.175 108.066ZM243.342 116.351C245.839 119.763 245.345 123.158 244.677 124.569V124.57L244.665 124.595L244.636 124.656L244.592 124.707L244.574 124.725L244.575 124.726C243.719 125.721 242.86 126.616 241.988 127.422C241.221 126.472 240.719 125.554 240.423 124.679C239.954 123.293 239.988 121.988 240.329 120.801C240.848 118.995 242.079 117.45 243.342 116.351ZM215.083 91.7764C214.96 91.7989 214.821 91.873 214.735 92.0176C214.663 92.1403 214.662 92.2589 214.665 92.3135C214.671 92.4167 214.707 92.4993 214.718 92.5244C214.735 92.5635 214.756 92.6021 214.775 92.6348C214.812 92.7009 214.863 92.7821 214.923 92.874L214.94 92.8984L214.958 92.9209C216.939 95.3102 219.285 96.1123 221.409 96.1211C223.511 96.1296 225.379 95.3637 226.473 94.6455L226.472 94.6445C226.689 94.5074 227.001 94.2727 227.244 93.9883C227.449 93.7495 227.732 93.3266 227.628 92.8477L227.602 92.751L227.559 92.6465C227.441 92.4212 227.223 92.3092 227.09 92.2549C226.913 92.1828 226.703 92.1396 226.495 92.1123C226.074 92.0569 225.552 92.0528 225.048 92.0811C224.542 92.1094 224.029 92.1721 223.621 92.2559C223.419 92.2974 223.226 92.3478 223.068 92.4082C222.991 92.4382 222.906 92.4764 222.829 92.5254C222.778 92.5579 222.701 92.6128 222.635 92.6982L222.574 92.7949C222.514 92.9143 222.486 93.041 222.471 93.1338C222.454 93.2313 222.445 93.3382 222.436 93.4297C222.416 93.6291 222.398 93.799 222.354 93.9512C222.311 94.0964 222.256 94.1868 222.187 94.2441C222.12 94.2985 221.988 94.3666 221.712 94.3711C219.66 94.4045 217.928 93.5326 216.801 92.7979C216.227 92.424 215.855 92.1187 215.61 91.9443C215.562 91.9098 215.486 91.8559 215.41 91.8213C215.388 91.8111 215.352 91.7963 215.309 91.7852C215.27 91.7754 215.186 91.7577 215.083 91.7764Z" fill="black"/>
<path d="M426.434 116.043C426.141 118.099 423.144 119.593 421.682 120.082C404.139 126.693 389.154 131.835 380.017 128.162C372.707 125.224 373.56 130.121 374.9 132.937C389.519 158.278 408.89 158.645 411.449 157.543C413.495 156.662 413.52 157.421 413.276 157.911C414.446 165.55 398.656 206.389 390.616 225.854C387.083 234.546 379.87 253.619 379.286 260.377C378.555 268.824 382.94 285.35 392.078 286.819C401.215 288.288 404.87 280.576 405.601 271.762C406.185 264.71 412.423 243.36 415.469 233.566C423.266 210.062 439.299 161.657 441.053 156.074C442.807 150.492 445.926 148.607 447.266 148.362C464.079 143.587 497.923 132.937 498.8 128.53C499.897 123.021 488.201 110.167 483.45 106.494C478.698 102.821 461.886 110.167 459.327 110.901C457.281 111.489 457.5 110.167 457.865 109.432C463.348 95.1088 465.175 99.5159 467.734 86.2945C470.292 73.0731 444.708 62.4224 443.611 62.0551C442.515 61.6878 437.033 63.1569 438.86 66.4622C440.322 69.1065 440.2 70.0124 439.957 70.1348C433.378 82.6217 426.799 113.472 426.434 116.043Z" fill="black"/>
<path d="M467.002 188.026C472.265 188.026 474.069 188.76 474.312 189.128C477.967 191.331 480.16 189.495 481.987 189.495C483.815 189.495 486.008 190.23 487.835 190.23C489.663 190.23 491.856 189.128 494.414 189.862C496.461 190.45 503.064 189.862 506.11 189.495C509.521 189.495 516.489 189.862 517.074 191.331C517.805 193.168 504.648 204.92 504.648 205.655C504.648 206.389 503.917 207.858 515.612 203.084C527.308 198.309 539.369 200.513 546.313 198.309C553.258 196.106 555.816 186.557 548.141 177.743C540.465 168.928 526.577 165.256 514.516 162.685C502.455 160.114 467.002 181.415 464.809 182.517C462.617 183.619 460.424 188.026 467.002 188.026Z" fill="black"/>
<path d="M467.733 230.628C465.102 223.871 462.007 228.547 460.789 231.73C456.769 274.332 506.11 283.881 510.861 284.983C515.612 286.085 543.024 288.288 551.796 279.107C558.813 271.762 547.41 260.132 540.831 255.235C537.03 252.003 525.846 254.893 517.074 255.235C479.429 256.704 471.023 239.075 467.733 230.628Z" fill="black"/>
<path d="M826.802 220.996C825.33 212.549 820.299 219.903 817.967 224.637C806.188 274.882 876.128 287.625 894.534 287.989C912.939 288.353 933.553 279.615 919.197 266.507C904.841 253.4 919.933 258.497 876.128 256.313C832.575 254.141 828.686 231.813 826.834 221.179L826.802 220.996Z" fill="black"/>
<path d="M862.508 102.301C863.392 104.631 861.649 105.456 860.668 105.578L852.938 108.49C809.133 123.054 809.133 101.573 808.029 112.86C806.924 124.146 838.213 143.444 844.103 143.444C849.993 143.444 870.239 131.792 874.288 132.157C877.527 132.448 883.736 147.327 886.435 154.73C856.398 169.585 837.109 170.144 831.219 168.566C826.802 167.716 818.924 167.182 822.753 171.843L822.811 171.914C827.651 177.807 841.592 194.778 857.723 194.053C873.92 193.324 894.534 180.581 900.423 180.945C906.313 181.309 914.411 202.063 914.411 203.155C914.411 204.247 898.951 207.16 891.957 207.888C886.362 208.471 888.399 211.286 890.116 212.621C897.356 215.17 912.939 220.559 917.356 221.724C922.878 223.18 925.823 229.734 932.449 232.283C939.075 234.831 947.541 232.283 948.645 228.642C949.75 225.001 956.376 214.442 939.075 195.509C925.234 180.363 921.774 173.421 921.774 171.843C939.737 164.852 947.664 158.493 949.382 156.187C957.48 143.079 932.817 134.705 927.663 133.249C922.51 131.792 909.258 147.813 904.841 145.628C901.307 143.88 896.742 131.307 894.902 125.239C900.055 123.054 911.761 117.884 917.356 114.68C924.35 110.675 927.295 106.306 925.823 102.301C924.35 98.2958 919.197 92.8344 914.78 89.9216C910.362 87.0088 899.319 90.6498 891.957 93.9266C886.067 96.5481 884.349 96.2326 884.227 95.7471C881.773 87.737 875.539 70.1877 870.239 64.0709C863.613 56.4249 851.465 60.794 848.52 66.9836C845.575 73.1733 847.784 76.4501 851.465 79.727C855.146 83.0038 861.404 99.3881 862.508 102.301Z" fill="black"/>
<path d="M676.851 80.5333C678.386 80.3415 681.471 80.5333 684.354 80.8536C685.806 81.015 687.227 81.2105 688.403 81.4132C689.561 81.6129 690.529 81.8265 691.043 82.0323C691.343 82.1525 691.688 82.3864 692.045 82.6759C692.41 82.972 692.818 83.352 693.246 83.795C694.103 84.6813 695.061 85.8376 695.947 87.1202C696.833 88.4022 697.655 89.8222 698.235 91.2345C698.811 92.6404 699.162 94.0771 699.062 95.379C698.875 97.8044 697.761 102.634 696.898 106.951C696.462 109.129 696.088 111.187 695.913 112.785C695.826 113.586 695.789 114.253 695.817 114.754C695.83 115.004 695.859 115.198 695.898 115.338C695.916 115.407 695.935 115.457 695.952 115.49C695.961 115.507 695.969 115.518 695.974 115.525C695.979 115.533 695.982 115.536 695.982 115.536C695.982 115.537 695.983 115.538 695.985 115.539C695.987 115.541 695.99 115.543 695.994 115.546C696.003 115.552 696.017 115.561 696.036 115.571C696.075 115.592 696.132 115.614 696.208 115.638C696.364 115.686 696.577 115.727 696.852 115.759C697.401 115.823 698.136 115.846 699.032 115.843C699.925 115.84 700.96 115.813 702.104 115.783C703.246 115.754 704.495 115.723 705.807 115.711C711.035 115.665 717.368 115.936 722.243 117.998C727.001 120.011 735.328 123.156 743.559 129.953C751.799 136.759 759.933 147.214 764.364 163.832C771.363 190.078 766.205 214.876 762.63 224.372C765.397 226.989 769.357 231.305 772.562 236.063C774.212 238.513 775.67 241.092 776.661 243.625C777.651 246.154 778.187 248.669 777.956 250.979C777.396 256.582 775.421 259.758 773.074 261.47C770.74 263.172 768.125 263.36 766.395 263.168C765.63 263.083 764.805 262.722 763.999 262.236C763.185 261.746 762.349 261.104 761.554 260.416C759.963 259.039 758.494 257.44 757.624 256.384L757.614 256.372L757.605 256.359C756.333 254.603 754.246 252.064 752.125 250.153C751.063 249.196 750.014 248.418 749.073 247.968C748.119 247.512 747.384 247.444 746.859 247.706C746.468 247.902 745.967 248.296 745.327 248.88C744.695 249.458 743.965 250.185 743.114 251.022C741.42 252.687 739.279 254.748 736.613 256.741C731.275 260.734 723.829 264.457 713.6 264.272C703.376 264.086 695.019 259.996 689.039 255.407C686.049 253.113 683.648 250.689 681.899 248.557C680.16 246.437 679.037 244.568 678.641 243.381C677.901 241.163 676.222 235.669 676.782 229.554C677.345 223.411 680.17 216.645 688.408 211.964C704.692 202.712 722.786 205.65 738.241 213.331C738.732 213.145 739.786 212.414 740.278 210.442C740.646 208.974 743.928 197.022 743.108 183.071C742.287 169.121 737.371 153.264 721.427 143.842L721.414 143.834L721.402 143.825C717.759 141.358 706.388 137.292 690.497 141.265C683.011 161.009 665.907 204.28 656.515 221.663C656.699 222.811 657.753 226.102 660.82 230.842C662.817 233.928 665.179 236.654 667.065 238.861C668.002 239.958 668.83 240.938 669.423 241.761C669.72 242.173 669.969 242.558 670.145 242.911C670.316 243.256 670.441 243.613 670.442 243.956C670.442 244.826 670.625 248.007 670.441 251.142C670.348 252.715 670.161 254.313 669.805 255.645C669.456 256.946 668.911 258.124 668.004 258.691C666.513 259.624 664.361 260.748 662.149 261.407C659.959 262.06 657.588 262.292 655.754 261.274C655.369 261.06 654.918 260.695 654.432 260.239C653.939 259.778 653.385 259.2 652.79 258.539C651.601 257.218 650.231 255.545 648.833 253.76C646.212 250.412 643.48 246.647 641.634 244.019C637.488 248.543 630.915 254.942 624.123 260.008C620.611 262.628 617.024 264.905 613.674 266.379C610.338 267.847 607.162 268.553 604.509 267.929C598.088 266.418 595.129 262.709 593.565 258.869C592.789 256.966 592.357 255.035 592.007 253.353C591.65 251.639 591.387 250.245 590.958 249.301C590.51 248.315 589.803 247.195 588.98 245.707C588.169 244.242 587.283 242.483 586.536 240.313C585.04 235.965 584.119 230.012 585.414 221.497C587.991 204.565 598.265 179.964 611.125 163.749C611.47 161.909 611.75 157.606 611.444 150.57C611.134 143.41 610.22 133.446 608.174 120.425C607.368 118.418 606.657 115.339 607.168 112.569C607.428 111.162 608.008 109.815 609.071 108.74C610.138 107.663 611.655 106.894 613.724 106.588C616.369 106.196 618.651 107.039 620.588 108.838C622.507 110.62 624.09 113.337 625.409 116.717C628.05 123.48 629.706 133.078 630.808 143.727L630.81 143.752V143.759C630.91 143.771 631.225 143.747 631.888 143.35C632.092 143.227 632.607 142.855 633.411 142.266C634.203 141.686 635.253 140.912 636.501 140.008C638.999 138.199 642.299 135.865 645.955 133.496C653.243 128.775 662.038 123.855 668.758 122.735C669.209 122.66 670.799 121.769 671.657 118.337C672.198 116.173 673.022 110.699 673.526 105.339C673.777 102.663 673.948 100.03 673.965 97.8653C673.974 96.7827 673.943 95.8246 673.867 95.0421C673.79 94.2473 673.67 93.6778 673.521 93.3419C673.115 92.4293 672.928 91.2065 672.904 89.9141C672.881 88.6127 673.022 87.1978 673.305 85.878C673.587 84.5623 674.015 83.3136 674.579 82.3575C675.131 81.4213 675.882 80.6546 676.851 80.5333ZM713.358 224.756C706.331 223.086 701.814 225.562 699.314 228.025L699.297 228.042L699.282 228.06C698.119 229.446 696.856 231.998 696.798 234.831C696.74 237.702 697.922 240.828 701.589 243.273C706.227 246.364 711.223 245.07 715.411 242.743C719.588 240.423 723.149 236.965 724.93 235.54C726.146 234.567 726.972 233.576 727.199 232.541C727.44 231.446 726.986 230.45 726.007 229.57C725.043 228.704 723.517 227.895 721.441 227.11C719.354 226.322 716.671 225.543 713.358 224.756ZM618.235 189.745C617.691 189.473 617.168 189.646 616.778 189.934C616.399 190.212 616.074 190.64 615.815 191.068C615.552 191.503 615.331 191.978 615.17 192.396L608.197 209.643L608.194 209.653C606.473 214.2 604.367 221.141 603.651 227.184C603.293 230.2 603.277 233.039 603.857 235.256C604.44 237.485 605.658 239.176 607.815 239.674C612.861 240.838 617.624 237.627 621.305 233.992C623.162 232.158 624.784 230.177 626.074 228.5C627.385 226.797 628.315 225.466 628.857 224.834C629.825 223.705 630.274 222.221 630.458 220.87C630.643 219.514 630.568 218.234 630.438 217.454L630.428 217.396L630.404 217.341L627.507 210.533C624.239 202.846 620.278 193.494 619.4 191.297C619.094 190.533 618.72 189.989 618.235 189.745ZM662.883 147.316C662.594 147.18 662.261 147.176 661.946 147.221C661.314 147.311 660.496 147.639 659.57 148.111C657.7 149.065 655.193 150.71 652.459 152.665C646.983 156.581 640.513 161.802 636.227 165.414L636.19 165.445L636.158 165.483C635.652 166.116 634.932 167.158 634.41 168.239C634.15 168.78 633.93 169.348 633.817 169.891C633.704 170.427 633.685 170.99 633.883 171.486C634.467 172.947 640.723 190.42 643.784 198.99L643.821 199.096L643.902 199.176C644.219 199.493 644.785 199.692 645.399 199.363C645.957 199.065 646.472 198.37 646.925 197.162C647.474 195.699 651.788 184.499 655.871 173.167C657.913 167.5 659.9 161.793 661.331 157.248C662.046 154.977 662.625 152.987 663.002 151.436C663.191 150.661 663.331 149.986 663.412 149.437C663.491 148.903 663.523 148.432 663.461 148.093C663.399 147.751 663.206 147.469 662.883 147.316Z" fill="black"/>
</svg>
