<svg width="1000" height="349" viewBox="0 0 1000 349" fill="none" xmlns="http://www.w3.org/2000/svg">
<rect width="1000" height="349" rx="35" fill="#BC0000"/>
<rect width="116" height="65" transform="translate(413 117)" fill="#E5E5E5"/>
<path d="M176.389 46V97.5499H136.609V303.59H69.6205V97.5499H30V46H176.389Z" fill="#E5E5E5"/>
<path d="M307.343 46L345.691 303.59H277.111L273.769 257.291H249.742L245.764 303.59H176.389L210.44 46H307.343ZM271.86 211.628C268.465 182.459 265.071 146.448 261.676 103.596C254.887 152.812 250.644 188.823 248.947 211.628H271.86Z" fill="#E5E5E5"/>
<path d="M506.718 46V303.59H448.004L413.157 186.489V303.59H357.147V46H413.157L450.709 161.987V46H506.718Z" fill="#E5E5E5"/>
<path d="M686.045 46V218.151C686.045 237.668 685.408 251.404 684.135 259.359C682.862 267.209 679.097 275.323 672.838 283.702C666.579 291.976 658.305 298.287 648.016 302.636C637.832 306.879 625.792 309 611.896 309C596.514 309 582.936 306.454 571.161 301.363C559.387 296.272 550.582 289.642 544.748 281.475C538.913 273.308 535.466 264.716 534.405 255.7C533.344 246.578 532.814 227.485 532.814 198.422V46H599.803V239.153C599.803 250.396 600.386 257.609 601.553 260.791C602.826 263.867 605.319 265.405 609.031 265.405C613.275 265.405 615.98 263.708 617.147 260.314C618.419 256.814 619.056 248.646 619.056 235.812V46H686.045Z" fill="#E5E5E5"/>
<path d="M871.577 46L833.229 162.306L875.236 303.59H806.02L778.97 193.172V303.59H711.981V46H778.97V146.077L808.725 46H871.577Z" fill="#E5E5E5"/>
<path d="M954 46V303.59H887.011V46H954Z" fill="#E5E5E5"/>
<path d="M505.156 23.1748C522.748 36.9534 548.898 58.3146 570.172 77.6191C580.807 87.2697 590.235 96.4171 596.768 103.851C600.032 107.565 602.589 110.869 604.21 113.604C605.02 114.97 605.608 116.213 605.93 117.307C606.249 118.394 606.322 119.386 606.033 120.217C605.012 123.157 602.469 125.421 599.131 127.161C595.786 128.904 591.578 130.155 587.11 131.037C578.518 132.734 568.867 133.082 562.305 132.878C568.438 147.368 579.03 151.806 583.505 152.229L584.38 152.312L583.861 153.021C582.319 155.132 579.444 156.842 576.559 158.119C574.141 159.189 571.656 159.977 569.804 160.456C571.121 161.343 572.803 162.073 574.479 162.642C576.52 163.333 578.5 163.769 579.691 163.957L580.376 164.065L580.058 164.681C577.618 169.401 572.172 174.424 566.428 178.761C560.909 182.927 555.047 186.508 551.14 188.642C554.757 193.707 555.318 198.224 554.466 201.848C553.642 205.349 551.51 207.96 549.67 209.396L561.932 237.423C561.655 226.863 561.859 216.111 562.395 211.103C562.692 208.332 565.171 198.783 571.11 190.468C577.066 182.129 586.557 174.97 600.834 177.219C612.306 179.026 618.569 187.176 621.732 196.513C624.892 205.837 624.995 216.422 624.124 223.327C618.271 281.499 578.931 303.023 559.709 306.559C554.481 313.264 546.682 317.826 539.079 320.81C531.418 323.815 523.907 325.239 519.312 325.628C500.765 328.32 488.673 327.767 481.082 325.953C477.284 325.046 474.594 323.818 472.784 322.508C471.547 321.612 470.706 320.666 470.217 319.745C469.212 321.884 467.983 323.418 466.626 324.461C465.032 325.686 463.29 326.215 461.598 326.278C458.48 326.395 455.527 324.932 453.894 323.331C452.107 324.89 448.087 327.11 443.57 325.604C441.091 324.778 439.531 322.855 438.591 320.85C437.803 319.169 437.433 317.393 437.314 316.056C435.642 316.701 433.357 317.285 430.74 317.811C427.753 318.41 424.301 318.94 420.771 319.395C413.713 320.304 406.321 320.92 401.668 321.209L401.652 321.21H401.637C391.968 321.21 385.44 320.233 381.272 318.611C377.095 316.986 375.184 314.661 375.013 311.948C374.846 309.308 376.349 306.493 378.499 303.903C380.555 301.427 383.27 299.075 385.93 297.157C378.297 287.402 376.664 278.92 377.82 272.233C378.924 265.852 382.555 261.176 385.783 258.65C380.544 255.022 378.274 250.514 378.155 245.579C378.033 240.502 380.188 235.046 383.54 229.711C390.13 219.224 401.486 208.99 410.106 202.634C407.627 199.887 407.534 196.282 408.384 192.951C409.219 189.675 410.986 186.562 412.466 184.543C391.163 168.909 381.46 152.907 379.255 146.745L378.974 145.96L379.799 146.082C381.753 146.371 383.95 145.891 385.935 145.139C387.366 144.596 388.657 143.921 389.626 143.332C387.298 142.647 385.058 141.2 383.163 139.624C380.948 137.781 379.152 135.722 378.169 134.379L377.629 133.641L378.542 133.584C389.295 132.924 397.988 125.866 404.067 118.897C407.1 115.421 409.466 111.987 411.095 109.425C411.909 108.144 412.538 107.082 412.976 106.341C413.112 106.11 413.231 105.909 413.332 105.74C398.33 101.417 387.412 90.4423 383.755 85.3838L383.435 84.9561C382.726 83.9543 382.294 82.9184 382.14 81.8516C381.963 80.6323 382.152 79.4043 382.655 78.1787C383.655 75.7446 385.906 73.2928 389.089 70.8291C395.464 65.8945 405.807 60.7417 418.269 55.4746C443.188 44.9417 476.844 33.8473 504.668 23.1016L504.933 23L505.156 23.1748ZM445.866 140.119C443.813 140.021 440.487 140.166 437.534 141.027C434.614 141.879 431.853 143.499 431.319 146.489C431.047 148.014 431.613 149.575 432.542 151.014C433.476 152.459 434.818 153.847 436.219 155.053C437.622 156.261 439.104 157.303 440.334 158.058C440.949 158.435 441.508 158.743 441.966 158.965C442.359 159.155 442.727 159.305 443.003 159.358L443.974 159.774C443.864 161.889 444.436 164.119 445.033 165.863C445.351 166.792 445.68 167.597 445.928 168.188C445.998 168.356 446.059 168.504 446.112 168.632C439.805 169.21 435.328 167.514 432.28 165.161C429.315 162.872 427.677 159.944 427.03 157.821L426.914 157.408C426.749 156.717 426.442 155.695 426.05 154.872C425.855 154.464 425.622 154.065 425.349 153.784C425.082 153.51 424.661 153.238 424.157 153.406C423.488 153.63 423.149 154.184 422.989 154.686C422.839 155.159 422.824 155.655 422.854 155.995L422.864 156.533C423.065 162.044 426.324 165.993 429.958 168.605C433.698 171.294 437.912 172.627 439.832 172.829C442.753 173.136 447.639 172.964 449.808 172.836C457.2 175.451 467.803 175.843 472.188 175.715H472.196L472.205 175.714C483.066 175.035 490.838 171.493 495.947 168.087C498.501 166.385 500.387 164.717 501.661 163.462C502.298 162.834 502.781 162.31 503.116 161.938C503.29 161.744 503.407 161.611 503.504 161.504C503.519 161.487 503.533 161.472 503.545 161.459C503.583 161.473 503.65 161.504 503.75 161.581C504.002 161.775 504.352 162.158 504.825 162.82C505.663 163.993 506.634 164.375 507.154 164.375C507.909 164.375 508.531 164.175 508.849 163.65C509.149 163.152 509.053 162.549 508.88 162.053C508.523 161.033 507.63 159.866 506.946 159.117C505.884 157.856 502.681 155.495 497.929 155.495C496.444 155.495 495.322 155.717 494.533 156.074C493.757 156.426 493.224 156.951 493.111 157.59C492.993 158.259 493.369 158.837 493.941 159.181C494.511 159.522 495.313 159.672 496.254 159.567C497.608 159.417 498.522 159.452 499.103 159.545C499.228 159.565 499.336 159.588 499.429 159.611C497.945 161.197 494.62 163.91 490.1 166.342C485.1 169.032 478.693 171.353 471.782 171.447C460.793 171.598 453.385 169.659 450.965 168.653C449.773 167.066 449.127 165.177 448.813 163.431C448.538 161.896 448.522 160.497 448.6 159.558C450.83 159.447 454.683 158.551 458.016 156.722C461.58 154.766 464.716 151.641 464.408 147.12C464.285 145.32 463.225 144.001 461.74 143.05C460.266 142.105 458.33 141.49 456.327 141.078C452.32 140.255 447.857 140.214 445.866 140.119ZM478.603 130.537C479.41 134.299 483.785 141.889 494.784 142.844C508.362 144.826 515.092 138.513 516.913 134.728C516.915 134.724 516.918 134.72 516.92 134.717C516.921 134.714 516.922 134.711 516.924 134.708C516.961 134.63 516.996 134.552 517.029 134.476C517.031 134.472 517.033 134.469 517.034 134.466L516.113 134.076C516.086 134.139 516.057 134.203 516.026 134.268C515.375 135.564 512.907 138.156 507.499 138.583C504.745 138.8 502.945 137.766 501.788 136.407C500.612 135.026 500.084 133.283 499.964 132.111L499.921 131.699L499.509 131.664L479.135 129.934L478.463 129.877L478.603 130.537ZM418.052 123.946C418.221 125.677 419.078 128.26 421.086 130.475C423.107 132.703 426.276 134.538 431.018 134.775C435.671 135.008 438.876 134.542 441.001 133.843C442.064 133.493 442.866 133.082 443.444 132.665C444.015 132.253 444.397 131.814 444.573 131.396L444.989 130.406L443.965 130.724C439.84 131.999 437.549 131.223 436.303 129.936C435.017 128.608 434.687 126.585 434.809 125.092L434.85 124.589L434.347 124.552L418.586 123.398L417.994 123.355L418.052 123.946Z" fill="#080808"/>
</svg>
