<svg width="1000" height="349" viewBox="0 0 1000 349" fill="none" xmlns="http://www.w3.org/2000/svg">
<rect width="1000" height="349" rx="35" fill="#E5E5E5"/>
<rect width="116" height="65" transform="translate(413 117)" fill="#E5E5E5"/>
<path d="M176.389 46V97.5499H136.609V303.59H69.6205V97.5499H30V46H176.389Z" fill="#BC0000"/>
<path d="M307.343 46L345.691 303.59H277.111L273.769 257.291H249.742L245.764 303.59H176.389L210.44 46H307.343ZM271.86 211.628C268.465 182.459 265.071 146.448 261.676 103.596C254.887 152.812 250.644 188.823 248.947 211.628H271.86Z" fill="#BC0000"/>
<path d="M506.718 46V303.59H448.004L413.157 186.489V303.59H357.147V46H413.157L450.709 161.987V46H506.718Z" fill="#BC0000"/>
<path d="M686.045 46V218.151C686.045 237.668 685.408 251.404 684.135 259.359C682.862 267.209 679.097 275.323 672.838 283.702C666.579 291.976 658.305 298.287 648.016 302.636C637.832 306.879 625.792 309 611.896 309C596.514 309 582.936 306.454 571.161 301.363C559.387 296.272 550.582 289.642 544.748 281.475C538.913 273.308 535.466 264.716 534.405 255.7C533.344 246.578 532.814 227.485 532.814 198.422V46H599.803V239.153C599.803 250.396 600.386 257.609 601.553 260.791C602.826 263.867 605.319 265.405 609.031 265.405C613.275 265.405 615.98 263.708 617.147 260.314C618.419 256.814 619.056 248.646 619.056 235.812V46H686.045Z" fill="#BC0000"/>
<path d="M871.577 46L833.229 162.306L875.236 303.59H806.02L778.97 193.172V303.59H711.981V46H778.97V146.077L808.725 46H871.577Z" fill="#BC0000"/>
<path d="M954 46V303.59H887.011V46H954Z" fill="#BC0000"/>
</svg>
