<svg width="1000" height="349" viewBox="0 0 1000 349" fill="none" xmlns="http://www.w3.org/2000/svg">
<g clip-path="url(#clip0_1151_2321)">
<rect width="1000" height="349" rx="35" fill="#E5E5E5"/>
<rect width="116" height="65" transform="translate(413 117)" fill="#E5E5E5"/>
<path d="M710.883 -279.65C797.809 -255.147 798.149 -129.911 787.453 -70.3566L633.583 -130.884C631.638 -151.06 631.687 -201.329 647.438 -241C663.19 -280.671 696.298 -283.296 710.883 -279.65Z" fill="black"/>
<path d="M316.362 -276.733C363.617 -262.731 373.486 -185.334 372.513 -148.386C309.069 -67.9258 178.972 78.8468 166.137 22.2574C150.094 -48.4792 168.325 -101.714 179.264 -144.739C190.202 -187.765 257.293 -294.235 316.362 -276.733Z" fill="black"/>
<path d="M1023 89.3478C996.504 94.4525 932.428 91.098 888.09 36.8423C832.667 -30.9774 777.245 -89.317 740.783 -104.631C747.346 -137.69 753.034 -206.871 723.281 -219.122C693.527 -231.374 674.421 -169.777 668.587 -137.447C616.811 -160.297 476.213 -192.286 328.03 -137.447C325.113 -157.866 312.716 -197.829 286.463 -194.328C253.647 -189.953 240.521 -108.277 240.521 -79.8368C212.081 -55.7718 152.282 2.56778 115.82 51.4271C73.3611 108.322 -8.88049 134.561 -30.0286 128.727C-21.0345 143.312 3.80835 174.086 31.2279 180.503C18.3446 182.691 -11.2141 186.046 -26.3823 181.962C-8.39429 229.037 68.5652 352.236 232.499 468.431C414.669 597.58 581.949 591.027 654.002 564.928C779.45 523.642 888.455 398.851 955.571 294.279C968.149 275.238 981.557 252.99 993.1 230.092C1008.63 199.295 1020.78 167.321 1023 140.395C1013.52 145.986 990.767 156.292 975.599 152.792C1003.02 128.873 1018.62 100.53 1023 89.3478Z" fill="url(#paint0_linear_1151_2321)"/>
<path d="M888.09 128.727C889.257 154.396 867.185 171.995 856.004 177.586C825.132 182.205 759.889 183.42 745.888 151.334C728.386 111.225 675.881 93.7233 657.649 90.8063C643.065 88.4727 633.098 78.6522 629.938 74.0337C605.873 23.7159 644.523 -41.9161 689.736 -49.9378C725.907 -56.3552 760.716 -44.8331 773.599 -38.2699C872.047 12.7772 886.632 96.6403 888.09 128.727Z" fill="black" fill-opacity="0.79"/>
<path d="M403.872 -49.9378C503.05 -59.2721 546.804 20.0696 556.285 60.9073C569.411 122.164 495.757 165.918 431.584 162.272C396.515 160.28 306.154 185.851 265.316 195.817C241.737 192.9 198.226 171.898 212.81 111.225C231.042 35.3838 279.901 -38.2699 403.872 -49.9378Z" fill="black" fill-opacity="0.79"/>
<path d="M750.991 149.146C861.836 116.476 879.824 205.541 874.963 254.157C872.775 273.118 869.241 283.928 861.887 303.017C855.307 318.673 832.521 358.196 794.017 391.039C758.041 423.018 699.701 458.346 589.828 470.014C360.116 475.848 270.419 313.955 260.21 294.995C250.001 276.035 225.206 206.027 255.105 164.46C285.004 122.893 341.156 126.54 406.059 156.439C457.981 180.358 516.661 181.962 539.51 179.774L573.056 173.94C591.773 181.719 632.562 196.109 645.98 191.442C659.398 186.775 721.578 161.3 750.991 149.146Z" fill="white"/>
<path d="M792.559 222.799C790.808 220.465 789.399 222.799 788.912 224.258C759.013 304.474 665.67 300.099 650.356 297.182C638.105 294.848 631.153 295.237 629.208 295.723C476.796 340.937 344.803 248.323 328.759 190.712C324.384 189.254 313.445 202.38 310.528 206.026C307.611 209.673 300.319 222.799 300.319 209.673C300.319 196.546 315.633 174.669 333.864 171.023C352.095 167.377 363.763 176.127 367.409 181.961C371.056 187.795 365.951 191.442 357.929 188.525C351.512 186.191 342.615 186.094 338.969 186.337C408.247 321.247 616.082 289.89 622.645 280.409C628.444 272.032 634.799 239.329 635.042 221.341C584.724 206.756 562.118 165.189 559.93 157.167C557.742 149.145 569.41 128.727 625.562 123.622C681.714 118.517 702.132 131.644 710.883 138.207C719.634 144.77 723.28 152.062 706.508 176.857C693.09 196.692 663.482 214.777 650.356 221.341C652.69 237.092 647.925 267.283 645.251 280.409C716.426 289.744 759.013 250.753 771.411 230.092C774.814 225.23 781.182 214.923 779.432 212.59C777.245 209.673 756.096 211.86 753.909 211.131C751.721 210.402 756.826 202.38 767.035 198.005C777.245 193.629 790.371 198.005 799.122 206.026C807.873 214.048 808.602 246.864 804.226 248.323C799.851 249.781 794.746 225.716 792.559 222.799Z" fill="black"/>
<path d="M515.446 92.8022C517.779 99.2196 512.529 100.338 509.612 100.095C508.153 99.1223 505.674 97.6152 507.424 99.3654C509.174 101.116 508.153 101.553 507.424 101.553C454.918 92.073 338.968 94.2607 325.842 96.4484C315.341 98.1986 312.229 95.7192 311.986 94.2607C309.069 65.8202 361.575 44.6001 426.478 45.4014C485.546 46.1306 512.529 84.7805 515.446 92.8022Z" fill="white"/>
<path d="M828.927 80.405C827.76 85.0721 820.176 84.2943 816.53 83.322C817.113 83.9054 816.773 84.5374 816.53 84.7804C779.338 82.5927 686.724 83.322 666.305 88.4267C649.97 92.5104 649.29 83.8081 650.991 78.9465C657.992 56.7775 686.967 45.4013 700.58 42.4843C760.67 34.3168 801.945 53.1799 815.071 63.6324C820.176 67.2786 830.094 75.7378 828.927 80.405Z" fill="white"/>
<path d="M828.927 80.405C827.76 85.0721 820.176 84.2943 816.53 83.322C787.265 61.9822 766.306 56.5317 759.743 55.0732C753.18 53.6147 721.823 50.6977 728.386 55.0732C734.949 59.4486 740.783 77.6797 741.512 80.5967C742.096 82.9303 740.493 83.7011 739.619 83.7948C707.596 84.275 677.017 85.7488 666.305 88.4267C649.97 92.5104 649.29 83.8081 650.991 78.9465C657.992 56.7775 686.967 45.4013 700.58 42.4843C760.67 34.3168 801.945 53.1799 815.071 63.6324C820.176 67.2786 830.094 75.7378 828.927 80.405Z" fill="black"/>
<path d="M515.446 92.8022C517.779 99.2196 512.529 100.338 509.612 100.095C509.369 100.115 508.591 99.8779 507.424 98.763C477.563 65.1959 431.7 59.4633 425.771 58.7223L425.748 58.7195C419.914 57.9902 404.6 57.261 408.976 60.1779C413.351 63.0949 420.644 84.243 420.644 90.077C420.644 94.7441 419.185 95.2263 418.456 94.8839C374.676 93.9403 333.366 95.1944 325.842 96.4484C315.341 98.1986 312.229 95.7192 311.986 94.2607C309.069 65.8202 361.575 44.6001 426.478 45.4014C485.546 46.1306 512.529 84.7805 515.446 92.8022Z" fill="black"/>
</g>
<defs>
<linearGradient id="paint0_linear_1151_2321" x1="496.486" y1="580.21" x2="496.486" y2="-220.711" gradientUnits="userSpaceOnUse">
<stop stop-color="#BE3A27"/>
<stop offset="1" stop-color="#581B12"/>
</linearGradient>
<clipPath id="clip0_1151_2321">
<rect width="1000" height="349" rx="35" fill="white"/>
</clipPath>
</defs>
</svg>
