<svg width="1000" height="349" viewBox="0 0 1000 349" fill="none" xmlns="http://www.w3.org/2000/svg">
<g clip-path="url(#clip0_1092_154)">
<rect width="1000" height="349" rx="35" fill="#BC0000"/>
<path d="M531.105 -109.825C563.102 -84.764 610.662 -45.9118 649.352 -10.8037C668.695 6.74861 685.833 23.3752 697.701 36.8799C703.633 43.6301 708.263 49.6169 711.193 54.5596C712.658 57.0305 713.709 59.2589 714.281 61.2031C714.851 63.1409 714.961 64.8493 714.476 66.2471C712.668 71.454 708.147 75.5083 702.118 78.6504C696.082 81.7958 688.47 84.0628 680.361 85.6641C664.49 88.7983 646.617 89.3967 634.695 88.9834C645.869 115.942 665.486 124.232 673.843 125.022L674.718 125.105L674.2 125.815C671.461 129.563 666.316 132.637 661.08 134.954C656.32 137.06 651.414 138.571 648 139.404C650.536 141.285 653.957 142.8 657.332 143.944C661.067 145.211 664.693 146.009 666.882 146.354L667.565 146.462L667.248 147.077C662.856 155.576 653.014 164.667 642.569 172.552C632.352 180.265 621.487 186.875 614.399 190.718C621.163 200.002 622.2 208.23 620.658 214.782C619.146 221.208 615.169 225.961 611.83 228.478L635.106 281.681C634.519 261.816 634.88 241.17 635.888 231.755C636.422 226.78 640.908 209.478 651.669 194.413C662.446 179.325 679.571 166.419 705.341 170.479C726.007 173.734 737.307 188.405 743.033 205.304C748.754 222.189 748.945 241.377 747.365 253.897C736.726 359.676 665.126 398.666 630.369 404.983C620.921 417.167 606.759 425.468 592.917 430.899C579.025 436.35 565.406 438.929 557.084 439.635C523.351 444.533 501.402 443.522 487.659 440.238C480.786 438.596 475.946 436.382 472.71 434.038C470.13 432.17 468.551 430.203 467.794 428.365C465.924 432.634 463.59 435.619 461.016 437.597C458.19 439.768 455.106 440.706 452.105 440.819C446.379 441.035 440.953 438.246 438.123 435.306C435.1 438.088 427.735 442.374 419.456 439.614C415.087 438.158 412.321 434.766 410.639 431.18C409.118 427.934 408.464 424.487 408.309 422.048C405.267 423.287 400.938 424.413 395.906 425.423C390.485 426.511 384.215 427.472 377.8 428.299C364.971 429.953 351.534 431.073 343.076 431.598L343.06 431.599H343.045C325.473 431.599 313.659 429.82 306.149 426.898C298.629 423.972 295.321 419.848 295.022 415.134C294.729 410.493 297.377 405.477 301.271 400.787C305.07 396.211 310.126 391.86 315.055 388.341C301.001 370.526 298.031 355.089 300.124 342.984C302.163 331.194 308.994 322.638 314.903 318.186C305.139 311.598 300.956 303.396 300.74 294.419C300.52 285.3 304.392 275.456 310.472 265.78C322.515 246.615 343.359 227.891 359.064 216.364C354.385 211.471 354.151 204.925 355.715 198.793C357.264 192.716 360.602 186.939 363.318 183.312C324.384 154.833 306.706 125.648 302.717 114.501L302.435 113.716L303.26 113.838C306.915 114.379 310.987 113.479 314.626 112.1C317.669 110.946 320.369 109.471 322.209 108.283C317.735 107.19 313.378 104.426 309.703 101.369C305.7 98.0396 302.455 94.3206 300.685 91.9014L300.145 91.1631L301.058 91.1074C320.786 89.8961 336.692 76.9545 347.776 64.25C353.311 57.9058 357.626 51.6401 360.595 46.9688C362.08 44.6335 363.227 42.6974 364.024 41.3477C364.414 40.6871 364.723 40.1602 364.946 39.7988C337.49 32.067 317.483 11.9631 310.837 2.76172L310.545 2.38281C309.12 0.486053 308.273 -1.46528 307.983 -3.4668C307.674 -5.60198 308.002 -7.76271 308.894 -9.93555C310.672 -14.2637 314.698 -18.6689 320.469 -23.1357C332.022 -32.0771 350.794 -41.4338 373.461 -51.0146C418.791 -70.1747 479.966 -90.3366 530.617 -109.898L530.882 -110L531.105 -109.825ZM423.486 102.995C419.78 102.819 413.777 103.081 408.463 104.631C403.181 106.171 398.375 109.051 397.447 114.245C396.978 116.871 397.947 119.603 399.611 122.181C401.28 124.765 403.69 127.259 406.222 129.439C408.758 131.622 411.435 133.506 413.657 134.868C414.768 135.549 415.77 136.103 416.588 136.499C417.334 136.86 417.979 137.114 418.42 137.19L420.487 138.076C420.223 141.926 421.269 146.045 422.377 149.283C422.95 150.959 423.546 152.413 423.995 153.487C424.221 154.028 424.406 154.463 424.537 154.789C424.539 154.794 424.541 154.8 424.543 154.806C412.68 156.018 404.262 152.878 398.542 148.463C392.892 144.102 389.85 138.48 388.735 134.516L388.634 134.137C388.337 132.895 387.786 131.062 387.089 129.598C386.741 128.868 386.339 128.192 385.888 127.729C385.445 127.272 384.838 126.914 384.145 127.145C383.098 127.494 382.548 128.362 382.279 129.206C382.016 130.033 381.995 130.911 382.055 131.488C382.065 141.834 388.05 149.215 394.806 154.072C401.557 158.926 409.155 161.321 412.571 161.681C417.884 162.24 426.83 161.92 430.732 161.688C444.11 166.444 463.397 167.161 471.376 166.928H471.384L471.392 166.927C491.069 165.697 505.139 159.282 514.381 153.121C519 150.041 522.413 147.026 524.715 144.757C525.865 143.623 526.738 142.675 527.344 142.001C527.654 141.657 527.878 141.404 528.051 141.212C528.136 141.119 528.199 141.05 528.244 141.005C528.25 140.998 528.256 140.992 528.261 140.987C528.369 140.952 528.596 140.95 529.051 141.301C529.559 141.692 530.224 142.429 531.091 143.643C532.558 145.696 534.211 146.3 534.994 146.3C536.315 146.3 537.261 145.949 537.726 145.179C538.175 144.436 538.053 143.493 537.748 142.619C537.13 140.852 535.561 138.79 534.329 137.438H534.33C532.496 135.237 526.765 130.965 518.212 130.965C515.546 130.965 513.568 131.364 512.204 131.981C510.852 132.594 510.025 133.463 509.853 134.437C509.676 135.44 510.228 136.343 511.17 136.908C512.108 137.471 513.472 137.739 515.121 137.556C517.608 137.279 519.309 137.34 520.414 137.518C520.966 137.606 521.361 137.722 521.627 137.834C521.641 137.84 521.655 137.847 521.669 137.854C519.17 140.702 512.868 145.964 504.165 150.647C495.033 155.561 483.312 159.811 470.655 159.984C450.476 160.261 436.887 156.676 432.522 154.83C430.259 151.857 429.049 148.315 428.465 145.064C427.92 142.036 427.923 139.291 428.103 137.551C432.024 137.434 439.213 135.828 445.409 132.428C451.842 128.897 457.37 123.333 456.826 115.348C456.614 112.243 454.791 109.947 452.161 108.261C449.541 106.582 446.076 105.475 442.452 104.73C435.204 103.242 427.13 103.169 423.486 102.995ZM483.459 85.0684C484.894 91.7685 492.733 105.426 512.549 107.136C537.098 110.72 549.159 99.3045 552.382 92.5947C552.385 92.5879 552.39 92.5811 552.393 92.5742C552.464 92.4341 552.526 92.2971 552.58 92.166C552.581 92.1628 552.582 92.1584 552.584 92.1553C552.585 92.1521 552.587 92.1487 552.589 92.1455L551.668 91.7559C551.614 91.8792 551.556 92.0058 551.495 92.1338C550.231 94.6386 545.604 99.4126 535.654 100.198C530.507 100.605 527.106 98.6659 524.921 96.0986C522.716 93.5088 521.732 90.2549 521.507 88.0596L521.464 87.6475L521.051 87.6123L483.99 84.4658L483.318 84.4082L483.459 85.0684ZM373.316 73.125C373.617 76.194 375.143 80.808 378.732 84.7666C382.334 88.7389 387.995 92.03 396.515 92.4561C404.947 92.8776 410.724 92.0306 414.528 90.7793C416.43 90.1537 417.848 89.424 418.859 88.6943C419.863 87.9698 420.495 87.2245 420.776 86.5566L421.192 85.5674L420.168 85.8848C412.579 88.2304 408.229 86.8375 405.815 84.3447C403.361 81.8109 402.755 77.994 402.982 75.2148L403.023 74.7119L402.52 74.6748L373.85 72.5771L373.259 72.5342L373.316 73.125Z" fill="white"/>
<path d="M1000 349H0V0H1000V349ZM540.813 46V198.422C540.813 227.485 541.344 246.578 542.405 255.7C543.466 264.716 546.914 273.307 552.748 281.475C558.582 289.642 567.386 296.272 579.161 301.363C590.936 306.455 604.514 309 619.896 309C633.792 309 645.832 306.879 656.016 302.636C666.305 298.287 674.579 291.976 680.838 283.702C687.096 275.323 690.863 267.208 692.136 259.359C693.409 251.404 694.045 237.668 694.045 218.151V46H627.056V235.812C627.056 248.646 626.419 256.814 625.146 260.314C623.98 263.708 621.274 265.405 617.031 265.405C613.319 265.405 610.826 263.867 609.553 260.791C608.386 257.609 607.803 250.396 607.803 239.153V46H540.813ZM38 46V97.5498H77.6201V303.591H144.609V97.5498H184.389V46H38ZM218.44 46L184.389 303.591H253.765L257.742 257.291H281.77L285.11 303.591H353.69L315.343 46H218.44ZM365.147 46V303.591H421.157V186.489L456.004 303.591H514.719V46H458.709V161.987L421.157 46H365.147ZM719.981 46V303.591H786.97V193.172L814.02 303.591H883.236L841.229 162.306L879.577 46H816.725L786.97 146.077V46H719.981ZM895.011 46V303.591H962V46H895.011ZM269.676 103.596C273.07 146.448 276.465 182.459 279.859 211.628H256.947C258.645 188.823 262.887 152.812 269.676 103.596Z" fill="black"/>
</g>
<defs>
<clipPath id="clip0_1092_154">
<rect width="1000" height="349" rx="35" fill="white"/>
</clipPath>
</defs>
</svg>
