<svg width="724" height="778" viewBox="0 0 724 778" fill="none" xmlns="http://www.w3.org/2000/svg">
<rect x="10" y="10" width="704" height="758" stroke="white" stroke-width="20"/>
<path d="M260.153 231.795C259.36 237.343 251.235 241.372 247.272 242.693C199.71 260.527 159.084 274.399 134.312 264.491C114.494 256.565 116.806 269.775 120.439 277.372C160.075 345.736 212.591 346.727 219.527 343.754C225.076 341.377 225.142 343.424 224.482 344.745C227.652 365.354 184.846 475.53 163.047 528.041C153.469 551.49 133.915 602.945 132.33 621.176C130.348 643.964 142.239 688.549 167.01 692.513C191.782 696.476 201.691 675.669 203.673 651.89C205.258 632.867 222.169 575.269 230.427 548.848C251.565 485.437 295.032 354.851 299.788 339.791C304.544 324.731 313 319.645 316.633 318.985C362.214 306.104 453.969 277.372 456.347 265.482C459.32 250.62 427.612 215.943 414.73 206.035C401.849 196.127 356.268 215.943 349.332 217.924C343.783 219.509 344.378 215.943 345.369 213.961C360.232 175.32 365.186 187.21 372.122 151.541C379.058 115.873 309.697 87.1394 306.724 86.1486C303.752 85.1578 288.889 89.121 293.843 98.0381C297.806 105.172 297.476 107.616 296.816 107.946C278.98 141.633 261.144 224.859 260.153 231.795Z" fill="white"/>
<path d="M370.14 425.99C384.409 425.99 389.297 427.972 389.957 428.962C399.866 434.907 405.811 429.953 410.766 429.953C415.72 429.953 421.666 431.935 426.62 431.935C431.574 431.935 437.52 428.962 444.456 430.944C450.005 432.529 467.907 430.944 476.164 429.953C485.412 429.953 504.305 430.944 505.89 434.907C507.872 439.861 472.2 471.566 472.2 473.548C472.2 475.53 470.219 479.493 501.927 466.612C533.635 453.732 566.334 459.677 585.16 453.732C603.987 447.787 610.923 422.027 590.115 398.248C569.306 374.469 531.653 364.561 498.954 357.626C466.255 350.69 370.14 408.156 364.195 411.128C358.249 414.101 352.304 425.99 370.14 425.99Z" fill="white"/>
<path d="M372.122 540.922C364.987 522.691 356.598 535.307 353.295 543.894C342.395 658.826 476.164 684.586 489.045 687.559C501.927 690.531 576.243 696.476 600.024 671.706C619.049 651.89 588.133 620.515 570.297 607.305C559.992 598.586 529.671 606.381 505.89 607.305C403.83 611.268 381.04 563.71 372.122 540.922Z" fill="white"/>
<path d="M260.153 231.795C259.36 237.343 251.235 241.372 247.272 242.693C199.71 260.527 159.084 274.399 134.312 264.491C114.494 256.565 116.806 269.775 120.439 277.372C160.075 345.736 212.591 346.727 219.527 343.754C225.076 341.377 225.142 343.424 224.482 344.745C227.652 365.354 184.846 475.53 163.047 528.041C153.469 551.49 133.915 602.945 132.33 621.176C130.348 643.964 142.239 688.549 167.01 692.513C191.782 696.476 201.691 675.669 203.673 651.89C205.258 632.867 222.169 575.269 230.427 548.848C251.565 485.437 295.032 354.851 299.788 339.791C304.544 324.731 313 319.645 316.633 318.985C362.214 306.104 453.969 277.372 456.347 265.482C459.32 250.62 427.612 215.943 414.73 206.035C401.849 196.127 356.268 215.943 349.332 217.924C343.783 219.509 344.378 215.943 345.369 213.961C360.232 175.32 365.186 187.21 372.122 151.541C379.058 115.873 309.697 87.1394 306.724 86.1486C303.752 85.1578 288.889 89.121 293.843 98.0381C297.806 105.172 297.476 107.616 296.816 107.946C278.98 141.633 261.144 224.859 260.153 231.795Z" stroke="black"/>
<path d="M370.14 425.99C384.409 425.99 389.297 427.972 389.957 428.962C399.866 434.907 405.811 429.953 410.766 429.953C415.72 429.953 421.666 431.935 426.62 431.935C431.574 431.935 437.52 428.962 444.456 430.944C450.005 432.529 467.907 430.944 476.164 429.953C485.412 429.953 504.305 430.944 505.89 434.907C507.872 439.861 472.2 471.566 472.2 473.548C472.2 475.53 470.219 479.493 501.927 466.612C533.635 453.732 566.334 459.677 585.16 453.732C603.987 447.787 610.923 422.027 590.115 398.248C569.306 374.469 531.653 364.561 498.954 357.626C466.255 350.69 370.14 408.156 364.195 411.128C358.249 414.101 352.304 425.99 370.14 425.99Z" stroke="black"/>
<path d="M372.122 540.922C364.987 522.691 356.598 535.307 353.295 543.894C342.395 658.826 476.164 684.586 489.045 687.559C501.927 690.531 576.243 696.476 600.024 671.706C619.049 651.89 588.133 620.515 570.297 607.305C559.992 598.586 529.671 606.381 505.89 607.305C403.83 611.268 381.04 563.71 372.122 540.922Z" stroke="black"/>
</svg>
