<svg width="724" height="778" viewBox="0 0 724 778" fill="none" xmlns="http://www.w3.org/2000/svg">
<rect x="10" y="10" width="704" height="758" stroke="white" stroke-width="20"/>
<path d="M349.652 137.308C353.68 136.805 361.905 137.309 369.696 138.174C373.602 138.608 377.419 139.136 380.571 139.679C383.706 140.22 386.232 140.784 387.526 141.301C388.216 141.577 389.067 142.141 390.01 142.907C390.962 143.679 392.037 144.68 393.176 145.858C395.455 148.215 398.01 151.3 400.377 154.725C402.742 158.149 404.928 161.925 406.462 165.664C407.992 169.398 408.888 173.132 408.633 176.459C408.134 182.936 405.151 195.868 402.807 207.586C401.632 213.465 400.614 219.046 400.137 223.401C399.899 225.58 399.798 227.432 399.875 228.852C399.913 229.562 399.995 230.149 400.12 230.606C400.246 231.069 400.406 231.358 400.566 231.518C400.729 231.681 401.033 231.852 401.53 232.004C402.018 232.154 402.648 232.273 403.416 232.363C404.951 232.543 406.976 232.601 409.401 232.593C411.823 232.585 414.625 232.512 417.71 232.433C420.792 232.354 424.153 232.269 427.685 232.238C441.795 232.114 458.723 232.852 471.7 238.342C484.559 243.783 506.909 252.225 529.007 270.474C551.114 288.731 572.959 316.792 584.869 361.456C603.833 432.571 589.62 499.747 580.019 524.83C587.462 531.812 598.338 543.604 607.103 556.617C611.535 563.196 615.436 570.099 618.081 576.858C620.724 583.613 622.124 590.258 621.519 596.306C620.024 611.257 614.778 619.575 608.692 624.013C602.619 628.442 595.796 628.943 591.261 628.439C589.374 628.229 587.275 627.324 585.142 626.039C583.001 624.75 580.787 623.054 578.662 621.215C574.412 617.538 570.481 613.258 568.157 610.436L568.146 610.424L568.137 610.412C564.684 605.643 559.014 598.741 553.231 593.533C550.338 590.927 547.439 588.766 544.795 587.501C542.136 586.23 539.843 585.916 538.071 586.801C536.901 587.386 535.475 588.52 533.746 590.1C532.024 591.674 530.042 593.653 527.755 595.901C523.188 600.39 517.443 605.918 510.298 611.261C496 621.953 476.091 631.909 448.722 631.412C421.36 630.914 398.981 619.969 382.952 607.668C374.937 601.518 368.504 595.023 363.824 589.317C359.154 583.623 356.2 578.678 355.18 575.621C353.195 569.663 348.711 554.977 350.206 538.657C351.703 522.308 359.203 504.324 381.152 491.853C424.863 467.018 473.5 474.946 515.133 495.72C516.65 495.321 520.027 493.184 521.519 487.215C522.509 483.255 531.402 450.893 529.179 413.103C526.957 375.314 513.627 332.191 470.26 306.565L470.248 306.557L470.235 306.548C460.153 299.718 429.047 288.673 385.734 299.625C365.574 352.819 319.136 470.342 293.79 517.138C294.186 520.162 297.03 529.307 305.576 542.515C311 550.898 317.414 558.299 322.493 564.246C325.027 567.212 327.238 569.827 328.815 572.013C329.604 573.106 330.244 574.106 330.688 574.999C331.129 575.885 331.4 576.71 331.4 577.443C331.4 579.872 331.895 588.349 331.399 596.781C331.151 601.002 330.654 605.249 329.713 608.762C328.78 612.245 327.378 615.138 325.224 616.484C321.24 618.974 315.504 621.968 309.631 623.717C303.779 625.46 297.669 626.005 293.031 623.428C292.085 622.903 290.931 621.976 289.632 620.758C288.326 619.535 286.848 617.996 285.253 616.224C282.061 612.679 278.377 608.182 274.611 603.372C267.257 593.978 259.576 583.365 254.605 576.259C243.494 588.475 225.425 606.15 206.758 620.075C197.307 627.125 187.687 633.226 178.729 637.168C169.784 641.105 161.426 642.922 154.535 641.3C137.52 637.297 129.73 627.512 125.594 617.362C123.534 612.303 122.381 607.159 121.437 602.623C120.486 598.057 119.756 594.17 118.548 591.512C117.32 588.812 115.368 585.705 113.181 581.753C111.007 577.825 108.641 573.125 106.648 567.332C102.659 555.74 100.179 539.815 103.656 516.966C110.595 471.365 138.32 405.006 172.994 361.37C173.961 356.411 174.738 344.662 173.903 325.415C173.063 306.039 170.591 279.092 165.054 243.883C162.899 238.552 161.004 230.364 162.351 223.067C163.029 219.395 164.532 215.929 167.256 213.176C169.982 210.422 173.896 208.418 179.33 207.613C186.181 206.598 192.086 208.765 197.149 213.465C202.194 218.149 206.406 225.345 209.946 234.413C217.027 252.549 221.487 278.35 224.459 307.073L224.462 307.099V307.124C224.462 307.294 224.504 307.465 224.593 307.599C224.676 307.723 224.815 307.842 225.065 307.9C225.607 308.026 226.696 307.871 228.655 306.696C229.249 306.339 230.678 305.307 232.831 303.73C234.97 302.163 237.8 300.076 241.167 297.638C247.9 292.762 256.789 286.475 266.638 280.094C286.312 267.349 309.909 254.171 327.847 251.181C329.544 250.898 334.002 248.097 336.356 238.681C337.832 232.778 340.058 217.956 341.419 203.481C342.099 196.248 342.561 189.115 342.607 183.241C342.63 180.303 342.549 177.688 342.341 175.536C342.131 173.371 341.797 171.72 341.336 170.683C340.307 168.368 339.807 165.198 339.745 161.763C339.682 158.319 340.058 154.568 340.808 151.067C341.558 147.57 342.686 144.296 344.146 141.821C345.594 139.365 347.437 137.585 349.652 137.308ZM447.858 526.457C429.216 522.028 417.321 528.59 410.755 535.058L410.738 535.075L410.722 535.092C407.689 538.706 404.371 545.41 404.219 552.834C404.068 560.297 407.119 568.455 416.769 574.888C428.885 582.965 441.984 579.646 453.183 573.424C464.371 567.209 473.853 557.987 478.75 554.069C481.991 551.475 484.024 548.955 484.573 546.456C485.134 543.896 484.116 541.499 481.619 539.254C479.136 537.023 475.136 534.885 469.563 532.779C463.981 530.669 456.78 528.577 447.858 526.457ZM190.996 431.919C189.914 431.378 188.85 431.687 187.947 432.351C187.057 433.006 186.251 434.051 185.573 435.171C184.891 436.297 184.314 437.538 183.893 438.63L165.081 485.169H165.08L165.076 485.18C160.447 497.413 154.789 516.07 152.868 532.282C151.908 540.382 151.876 547.919 153.401 553.749C154.93 559.592 158.054 563.813 163.451 565.058C176.599 568.092 189.153 559.739 199.066 549.951C204.04 545.039 208.387 539.728 211.859 535.217C215.351 530.68 217.917 527.012 219.393 525.289C221.857 522.415 223.034 518.594 223.519 515.031C224.005 511.463 223.805 508.095 223.467 506.069L223.458 506.009L223.434 505.955L215.617 487.588C206.799 466.842 196.108 441.598 193.733 435.662C192.929 433.651 192.02 432.432 190.996 431.919ZM311.494 317.439C310.932 317.174 310.224 317.144 309.447 317.254C307.889 317.476 305.787 318.307 303.302 319.574C298.315 322.117 291.593 326.524 284.221 331.794C269.469 342.342 252.03 356.413 240.473 366.154L240.435 366.185L240.405 366.223C239.068 367.895 237.164 370.65 235.791 373.498C235.104 374.921 234.541 376.384 234.254 377.758C233.967 379.125 233.943 380.455 234.39 381.574C235.971 385.526 252.863 432.707 261.118 455.82L261.156 455.925L261.236 456.005C261.865 456.634 262.992 457.051 264.276 456.365C265.504 455.708 266.798 454.078 267.999 450.876C269.482 446.922 281.119 416.713 292.136 386.137C297.645 370.85 303.001 355.463 306.856 343.215C308.783 337.093 310.339 331.746 311.35 327.586C311.856 325.507 312.227 323.715 312.441 322.267C312.653 320.836 312.719 319.685 312.58 318.917C312.455 318.233 312.09 317.72 311.494 317.439Z" fill="white"/>
</svg>
