<svg width="724" height="778" viewBox="0 0 724 778" fill="none" xmlns="http://www.w3.org/2000/svg">
<rect x="10" y="10" width="704" height="758" stroke="white" stroke-width="20"/>
<path d="M220.489 516.795C216.535 493.825 203.026 513.825 196.766 526.696C165.134 663.327 352.946 697.98 402.37 698.97C451.794 699.96 507.149 676.198 468.598 640.555C430.048 604.912 470.575 618.774 352.946 612.833C235.992 606.927 225.549 546.211 220.575 517.293L220.489 516.795Z" fill="white"/>
<path d="M316.372 194.029C318.744 200.365 314.066 202.609 311.43 202.939L290.672 210.86C173.042 250.463 173.042 192.048 170.077 222.741C167.111 253.433 251.132 305.908 266.948 305.908C282.764 305.908 337.13 274.225 348.004 275.215C356.702 276.007 373.375 316.469 380.623 336.6C299.963 376.996 248.167 378.514 232.351 374.223C220.489 371.913 199.336 370.461 209.616 383.134L209.773 383.328C222.77 399.351 260.204 445.501 303.522 443.529C347.015 441.549 402.37 406.896 418.186 407.886C434.001 408.876 455.748 465.311 455.748 468.281C455.748 471.251 414.232 479.172 395.451 481.152C380.426 482.736 385.895 490.393 390.508 494.023C409.948 500.954 451.794 515.607 463.656 518.775C478.483 522.736 486.391 540.557 504.184 547.488C521.977 554.418 544.712 547.488 547.677 537.587C550.642 527.686 568.435 498.974 521.977 447.489C484.81 406.302 475.518 387.424 475.518 383.134C523.756 364.125 545.041 346.831 549.654 340.561C571.401 304.918 505.172 282.146 491.334 278.186C477.495 274.225 441.909 317.789 430.048 311.848C420.558 307.096 408.301 272.905 403.359 256.404C417.197 250.463 448.631 236.404 463.656 227.691C482.437 216.8 490.345 204.919 486.391 194.029C482.437 183.138 468.598 168.286 456.737 160.366C444.875 152.445 415.22 162.346 395.451 171.257C379.635 178.385 375.022 177.527 374.693 176.207C368.103 154.425 351.364 106.703 337.13 90.07C319.338 69.2783 286.718 81.1592 278.81 97.9906C270.902 114.822 276.833 123.733 286.718 132.643C296.602 141.554 313.407 186.108 316.372 194.029Z" fill="white"/>
<path d="M220.489 516.795C216.535 493.825 203.026 513.825 196.766 526.696C165.134 663.327 352.946 697.98 402.37 698.97C451.794 699.96 507.149 676.198 468.598 640.555C430.048 604.912 470.575 618.774 352.946 612.833C235.992 606.927 225.549 546.211 220.575 517.293L220.489 516.795Z" stroke="black"/>
<path d="M316.372 194.029C318.744 200.365 314.066 202.609 311.43 202.939L290.672 210.86C173.042 250.463 173.042 192.048 170.077 222.741C167.111 253.433 251.132 305.908 266.948 305.908C282.764 305.908 337.13 274.225 348.004 275.215C356.702 276.007 373.375 316.469 380.623 336.6C299.963 376.996 248.167 378.514 232.351 374.223C220.489 371.913 199.336 370.461 209.616 383.134L209.773 383.328C222.77 399.351 260.204 445.501 303.522 443.529C347.015 441.549 402.37 406.896 418.186 407.886C434.001 408.876 455.748 465.311 455.748 468.281C455.748 471.251 414.232 479.172 395.451 481.152C380.426 482.736 385.895 490.393 390.508 494.023C409.948 500.954 451.794 515.607 463.656 518.775C478.483 522.736 486.391 540.557 504.184 547.488C521.977 554.418 544.712 547.488 547.677 537.587C550.642 527.686 568.435 498.974 521.977 447.489C484.81 406.302 475.518 387.424 475.518 383.134C523.756 364.125 545.041 346.831 549.654 340.561C571.401 304.918 505.172 282.146 491.334 278.186C477.495 274.225 441.909 317.789 430.048 311.848C420.558 307.096 408.301 272.905 403.359 256.404C417.197 250.463 448.631 236.404 463.656 227.691C482.437 216.8 490.345 204.919 486.391 194.029C482.437 183.138 468.598 168.286 456.737 160.366C444.875 152.445 415.22 162.346 395.451 171.257C379.635 178.385 375.022 177.527 374.693 176.207C368.103 154.425 351.364 106.703 337.13 90.07C319.338 69.2783 286.718 81.1592 278.81 97.9906C270.902 114.822 276.833 123.733 286.718 132.643C296.602 141.554 313.407 186.108 316.372 194.029Z" stroke="black"/>
</svg>
