<svg width="839" height="419" viewBox="0 0 839 419" fill="none" xmlns="http://www.w3.org/2000/svg">
<path d="M10.4648 96L18.7656 10.0625H47.916L56.0703 96H39.8105L38.5898 82.1328H28.2383L27.1641 96H10.4648ZM29.459 68.4121H37.2715L33.5117 24.7109H32.7305L29.459 68.4121Z" fill="black"/>
<path d="M63.3438 96V10.0625H80.5312V81.3516H98.207V96H63.3438Z" fill="black"/>
<path d="M105.09 96V10.0625H131.457C135.852 10.0625 139.172 11.0716 141.418 13.0898C143.664 15.0755 145.161 17.875 145.91 21.4883C146.691 25.069 147.082 29.2845 147.082 34.1348C147.082 38.8223 146.48 42.5658 145.275 45.3652C144.104 48.1647 141.874 50.1016 138.586 51.1758C141.288 51.7292 143.176 53.0801 144.25 55.2285C145.357 57.3444 145.91 60.0951 145.91 63.4805V96H128.967V62.3574C128.967 59.8509 128.446 58.3047 127.404 57.7188C126.395 57.1003 124.751 56.791 122.473 56.791V96H105.09ZM122.57 41.8984H126.721C129.097 41.8984 130.285 39.3105 130.285 34.1348C130.285 30.7819 130.025 28.5846 129.504 27.543C128.983 26.5013 128.007 25.9805 126.574 25.9805H122.57V41.8984Z" fill="black"/>
<path d="M154.746 96V10.0625H189.121V26.6641H172.227V43.4121H188.438V59.5742H172.227V79.252H190.244V96H154.746Z" fill="black"/>
<path d="M195.613 96L203.914 10.0625H233.064L241.219 96H224.959L223.738 82.1328H213.387L212.312 96H195.613ZM214.607 68.4121H222.42L218.66 24.7109H217.879L214.607 68.4121Z" fill="black"/>
<path d="M248.492 96V10.0625H272.125C278.31 10.0625 282.965 11.7878 286.09 15.2383C289.215 18.6562 290.777 23.6693 290.777 30.2773V70.5117C290.777 78.6497 289.345 84.9323 286.48 89.3594C283.648 93.7865 278.668 96 271.539 96H248.492ZM265.777 80.8145H268.756C271.913 80.8145 273.492 79.2845 273.492 76.2246V31.8887C273.492 29.0241 273.102 27.1849 272.32 26.3711C271.572 25.5247 270.025 25.1016 267.682 25.1016H265.777V80.8145Z" fill="black"/>
<path d="M310.209 96V67.7285L296.488 10.0625H313.529L318.314 39.1641L323.1 10.0625H340.092L326.42 67.7285V96H310.209Z" fill="black"/>
<path d="M369.531 96L377.832 10.0625H406.982L415.137 96H398.877L397.656 82.1328H387.305L386.23 96H369.531ZM388.525 68.4121H396.338L392.578 24.7109H391.797L388.525 68.4121Z" fill="black"/>
<path d="M20.4258 416V158.188H71.9883V372.055H125.016V416H20.4258Z" fill="black"/>
<path d="M145.664 416V158.188H248.789V207.992H198.105V258.236H246.738V306.723H198.105V365.756H252.158V416H145.664Z" fill="black"/>
<path d="M328.471 418.344C291.654 418.344 273.246 391.977 273.246 339.242V228.061C273.246 179.916 294.34 155.844 336.527 155.844C353.91 155.844 367.24 159.359 376.518 166.391C385.795 173.324 392.191 183.48 395.707 196.859C399.223 210.238 400.98 226.547 400.98 245.785H350.59V222.934C350.59 217.367 349.809 212.729 348.246 209.018C346.781 205.209 343.656 203.305 338.871 203.305C332.914 203.305 328.959 205.307 327.006 209.311C325.15 213.314 324.223 217.709 324.223 222.494V347.445C324.223 354.379 325.102 360.043 326.859 364.438C328.715 368.734 332.279 370.883 337.553 370.883C343.021 370.883 346.635 368.734 348.393 364.438C350.248 360.043 351.176 354.281 351.176 347.152V310.385H337.406V265.854H400.395V416H379.74L370.951 394.32C361.967 410.336 347.807 418.344 328.471 418.344Z" fill="black"/>
<path d="M426.902 416V158.188H530.027V207.992H479.344V258.236H527.977V306.723H479.344V365.756H533.396V416H426.902Z" fill="black"/>
<path d="M556.535 416V158.188H609.562L633.293 281.674V158.188H683.098V416H632.707L606.926 287.094V416H556.535Z" fill="black"/>
<path d="M711.949 416V158.188H782.848C801.402 158.188 815.367 163.363 824.742 173.715C834.117 183.969 838.805 199.008 838.805 218.832V339.535C838.805 363.949 834.508 382.797 825.914 396.078C817.418 409.359 802.477 416 781.09 416H711.949ZM763.805 370.443H772.74C782.213 370.443 786.949 365.854 786.949 356.674V223.666C786.949 215.072 785.777 209.555 783.434 207.113C781.188 204.574 776.549 203.305 769.518 203.305H763.805V370.443Z" fill="black"/>
<path d="M0.464844 86L8.76562 0.0625H37.916L46.0703 86H29.8105L28.5898 72.1328H18.2383L17.1641 86H0.464844ZM19.459 58.4121H27.2715L23.5117 14.7109H22.7305L19.459 58.4121Z" fill="white"/>
<path d="M53.3438 86V0.0625H70.5312V71.3516H88.207V86H53.3438Z" fill="white"/>
<path d="M95.0898 86V0.0625H121.457C125.852 0.0625 129.172 1.07161 131.418 3.08984C133.664 5.07552 135.161 7.875 135.91 11.4883C136.691 15.069 137.082 19.2845 137.082 24.1348C137.082 28.8223 136.48 32.5658 135.275 35.3652C134.104 38.1647 131.874 40.1016 128.586 41.1758C131.288 41.7292 133.176 43.0801 134.25 45.2285C135.357 47.3444 135.91 50.0951 135.91 53.4805V86H118.967V52.3574C118.967 49.8509 118.446 48.3047 117.404 47.7188C116.395 47.1003 114.751 46.791 112.473 46.791V86H95.0898ZM112.57 31.8984H116.721C119.097 31.8984 120.285 29.3105 120.285 24.1348C120.285 20.7819 120.025 18.5846 119.504 17.543C118.983 16.5013 118.007 15.9805 116.574 15.9805H112.57V31.8984Z" fill="white"/>
<path d="M144.746 86V0.0625H179.121V16.6641H162.227V33.4121H178.438V49.5742H162.227V69.252H180.244V86H144.746Z" fill="white"/>
<path d="M185.613 86L193.914 0.0625H223.064L231.219 86H214.959L213.738 72.1328H203.387L202.312 86H185.613ZM204.607 58.4121H212.42L208.66 14.7109H207.879L204.607 58.4121Z" fill="white"/>
<path d="M238.492 86V0.0625H262.125C268.31 0.0625 272.965 1.78776 276.09 5.23828C279.215 8.65625 280.777 13.6693 280.777 20.2773V60.5117C280.777 68.6497 279.345 74.9323 276.48 79.3594C273.648 83.7865 268.668 86 261.539 86H238.492ZM255.777 70.8145H258.756C261.913 70.8145 263.492 69.2845 263.492 66.2246V21.8887C263.492 19.0241 263.102 17.1849 262.32 16.3711C261.572 15.5247 260.025 15.1016 257.682 15.1016H255.777V70.8145Z" fill="white"/>
<path d="M300.209 86V57.7285L286.488 0.0625H303.529L308.314 29.1641L313.1 0.0625H330.092L316.42 57.7285V86H300.209Z" fill="white"/>
<path d="M359.531 86L367.832 0.0625H396.982L405.137 86H388.877L387.656 72.1328H377.305L376.23 86H359.531ZM378.525 58.4121H386.338L382.578 14.7109H381.797L378.525 58.4121Z" fill="white"/>
<path d="M10.4258 406V148.188H61.9883V362.055H115.016V406H10.4258Z" fill="white"/>
<path d="M135.664 406V148.188H238.789V197.992H188.105V248.236H236.738V296.723H188.105V355.756H242.158V406H135.664Z" fill="white"/>
<path d="M318.471 408.344C281.654 408.344 263.246 381.977 263.246 329.242V218.061C263.246 169.916 284.34 145.844 326.527 145.844C343.91 145.844 357.24 149.359 366.518 156.391C375.795 163.324 382.191 173.48 385.707 186.859C389.223 200.238 390.98 216.547 390.98 235.785H340.59V212.934C340.59 207.367 339.809 202.729 338.246 199.018C336.781 195.209 333.656 193.305 328.871 193.305C322.914 193.305 318.959 195.307 317.006 199.311C315.15 203.314 314.223 207.709 314.223 212.494V337.445C314.223 344.379 315.102 350.043 316.859 354.438C318.715 358.734 322.279 360.883 327.553 360.883C333.021 360.883 336.635 358.734 338.393 354.438C340.248 350.043 341.176 344.281 341.176 337.152V300.385H327.406V255.854H390.395V406H369.74L360.951 384.32C351.967 400.336 337.807 408.344 318.471 408.344Z" fill="white"/>
<path d="M416.902 406V148.188H520.027V197.992H469.344V248.236H517.977V296.723H469.344V355.756H523.396V406H416.902Z" fill="white"/>
<path d="M546.535 406V148.188H599.562L623.293 271.674V148.188H673.098V406H622.707L596.926 277.094V406H546.535Z" fill="white"/>
<path d="M701.949 406V148.188H772.848C791.402 148.188 805.367 153.363 814.742 163.715C824.117 173.969 828.805 189.008 828.805 208.832V329.535C828.805 353.949 824.508 372.797 815.914 386.078C807.418 399.359 792.477 406 771.09 406H701.949ZM753.805 360.443H762.74C772.213 360.443 776.949 355.854 776.949 346.674V213.666C776.949 205.072 775.777 199.555 773.434 197.113C771.188 194.574 766.549 193.305 759.518 193.305H753.805V360.443Z" fill="white"/>
</svg>
