<svg width="265" height="179" viewBox="0 0 265 179" fill="none" xmlns="http://www.w3.org/2000/svg">
<circle cx="84.4995" cy="89.314" r="81.314" fill="url(#paint0_linear_1271_585)"/>
<circle cx="181.279" cy="89.314" r="81.314" fill="url(#paint1_linear_1271_585)"/>
<path d="M25.117 145.339C-17.8354 95.8505 10.7235 40.6814 35.6217 24.3408C-6.39848 149.23 90.87 157.011 100.986 154.677C109.078 152.809 107.224 142.745 105.286 137.947C96.1689 116.238 98.1767 91.0586 100.986 79.1986C96.0056 119.35 119.92 146.247 132.5 154.677C85.4234 187.747 41.8485 163.236 25.117 145.339Z" fill="black" fill-opacity="0.37"/>
<path d="M122.324 146.117C79.3716 96.6288 107.93 41.4598 132.829 25.1191C90.8085 150.008 188.077 157.789 198.193 155.455C217.017 153.769 256.221 139.426 262.446 95.5394C258.088 128.843 238.843 148.841 229.765 154.677C183.466 186.969 139.056 164.014 122.324 146.117Z" fill="black" fill-opacity="0.37"/>
<path d="M245.327 113.047C255.599 91.8816 237.805 54.1685 228.597 36.4013C224.447 29.1388 220.193 18.9714 236.378 36.4013C256.609 58.1888 259.723 98.2622 248.44 114.214C242.215 118.883 244.42 114.343 245.327 113.047Z" fill="white" fill-opacity="0.37"/>
<defs>
<linearGradient id="paint0_linear_1271_585" x1="84.4995" y1="8" x2="84.4995" y2="170.628" gradientUnits="userSpaceOnUse">
<stop stop-color="#BB0101"/>
<stop offset="1" stop-color="#550000"/>
</linearGradient>
<linearGradient id="paint1_linear_1271_585" x1="204.148" y1="19.4348" x2="119.023" y2="110.913" gradientUnits="userSpaceOnUse">
<stop stop-color="#BB0101"/>
<stop offset="1" stop-color="#550000"/>
</linearGradient>
</defs>
</svg>
