<svg width="265" height="502" viewBox="0 0 265 502" fill="none" xmlns="http://www.w3.org/2000/svg">
<path d="M33.4503 38.2189C34.2352 26.0525 56.0171 17.4509 66.8099 14.6709C91.8295 9.27454 113.906 12.218 116.359 22.0297C118.812 31.8413 112.925 37.2377 111.943 39.6906C111.159 41.653 112.925 51.6281 113.906 56.3704C116.653 81.0958 135.328 109.19 144.322 120.146L196.814 178.525C211.041 192.262 233.062 245.735 234.589 257.509C239.658 296.592 250.386 381.234 252.741 407.137C255.095 433.039 240.967 451.943 233.608 458.157C204.173 491.517 141.869 490.536 114.887 489.554C93.3014 488.769 73.1875 474.51 65.8288 467.478C61.4014 462.572 49.9956 441.673 39.7915 397.325L32.1916 392.419C27.6478 377.295 23.6046 360.357 20.6946 341.889C7.93947 260.943 16.7699 212.866 25.1098 200.111C31.7818 189.907 45.8778 154.323 52.0919 137.807C52.5824 131.429 53.7598 117.301 54.5448 111.806C55.5259 104.938 53.0736 57.3516 42.7713 52.9363C34.5296 49.4042 33.1232 41.653 33.4503 38.2189Z" fill="#59210C" stroke="black" stroke-width="4"/>
<path d="M111.728 39.6918C92.5949 56.8622 56.2926 57.8434 43.5375 53.4281C33.8916 50.0892 33.1637 41.1169 33.906 36.2576C34.9234 37.1694 36.9335 38.6838 41.5744 41.654C53.8389 49.5033 66.594 47.5411 92.1043 40.673C117.615 33.8048 115.652 18.1062 116.633 24.9744C117.615 31.8425 112.709 38.2201 111.728 39.6918Z" fill="#331302"/>
<path d="M39.8706 39.2002C39.0856 40.3776 44.4493 43.2884 47.2293 44.5966C59.6571 40.5084 82.0597 31.6452 72.248 28.8979C59.9835 25.4639 40.8517 37.7284 39.8706 39.2002Z" fill="#782C11"/>
<path d="M72.248 78.4469C64.0063 58.0386 63.9081 71.9058 64.8893 81.3904C65.1446 84.3338 66.8516 94.1455 68.814 116.222C70.3838 133.883 74.3739 133.719 76.1727 131.43C78.2985 122.272 80.4898 98.8551 72.248 78.4469Z" fill="#782C11"/>
<path d="M87.9467 433.138C81.6672 420.579 79.1162 431.829 78.6256 439.025C87.2598 463.75 94.3242 462.082 96.7771 458.157C96.4501 455.05 94.2261 445.697 87.9467 433.138Z" fill="#782C11"/>
<path d="M117.07 166.925L154.845 197.341L154.871 197.362L154.894 197.387C156.266 198.931 159.107 203.822 159.899 211.351C160.389 215.999 165.539 251.677 171.059 287.863C173.818 305.953 176.669 324.163 179.075 338.679C181.484 353.211 183.442 364.002 184.414 367.283C186.391 373.957 185.812 378.285 183.797 380.951C181.784 383.613 178.438 384.485 175.194 384.485C174.589 384.485 173.223 384.629 171.21 384.898C169.209 385.166 166.598 385.555 163.523 386.036C157.375 386.999 149.38 388.333 140.726 389.814C123.418 392.778 103.477 396.334 90.3955 398.705L90.1865 398.743L90.0361 398.593C88.5259 397.083 85.9126 395.381 82.9932 395.142C80.1166 394.906 76.8582 396.084 73.9844 400.49L73.8818 400.646L73.6963 400.671L25.1289 407.048L24.9883 407.066L24.8672 406.994C24.3465 406.682 23.689 405.873 23.1631 404.497C22.631 403.105 22.2168 401.092 22.2168 398.306C22.2168 392.854 20.2621 380.397 19.2793 374.828L19.2744 374.803L19.2734 374.777L12.4053 231.527L12.4023 231.457L12.4219 231.391C13.4141 228.083 16.7751 220.007 22.3262 214.06C27.7935 208.202 40.5933 189.756 46.3242 181.241L46.418 181.103L46.5811 181.069L116.734 166.843L116.921 166.805L117.07 166.925ZM82.4766 189.318C75.974 189.318 70.7021 194.809 70.7021 201.583C70.7022 208.356 75.974 213.848 82.4766 213.848C88.9789 213.847 94.2499 208.356 94.25 201.583C94.25 194.81 88.9789 189.319 82.4766 189.318Z" fill="#F0C379"/>
<path d="M46.1734 156.941C38.7165 137.318 48.2992 123.909 54.0227 119.657C47.7426 140.458 61.0305 155.797 68.4595 160.866C70.6447 156.614 73.6618 153.411 77.5714 153.998C79.9145 154.349 81.2224 155.316 81.8693 156.638C86.6578 156.826 105.044 135.846 115.837 123.091C126.63 110.336 126.63 105.921 130.554 97.0902C134.479 88.2598 140.857 98.562 141.838 102.977C142.623 106.509 140.857 111.644 139.875 113.77C127.709 143.205 94.9053 164.627 80.0243 171.659C80.0243 175.583 81.6923 185.101 88.3642 191.773C87.7101 195.043 85.1264 201.486 80.0243 201.094C73.6468 200.603 64.8163 186.376 64.3257 174.112C54.5141 169.795 48.136 160.866 46.1734 156.941Z" fill="#CC8227"/>
<path d="M41.1704 246.012C38.4231 245.62 36.4281 251.081 35.774 253.861C34.989 258.178 37.4093 281.17 38.7175 292.127C39.0445 296.378 40.6798 305.274 44.6045 306.844C48.5291 308.414 49.1832 303.574 49.0197 300.957L44.6045 256.805C44.6045 253.371 43.9176 246.404 41.1704 246.012Z" fill="#432307"/>
<path d="M76.4923 242.087C60.7937 239.144 57.8502 269.069 57.8502 269.56C56.6728 282.903 60.9572 291.8 63.2466 294.58C67.1713 298.996 77.5716 306.747 87.7757 302.43C100.531 297.033 103.965 277.41 101.021 262.692C98.0779 247.975 90.7192 243.069 89.738 242.087C88.7569 241.106 82.3793 240.125 80.9076 242.087C79.4358 244.049 76.9829 242.088 76.4923 242.087Z" fill="#432307"/>
<path d="M115.739 237.182C111.029 236.005 109.852 241.27 109.852 244.05L111.814 273.975C111.978 282.315 116.426 298.406 132.909 296.051C153.514 293.108 147.627 261.711 146.646 255.824C145.664 249.937 145.174 239.144 141.74 234.238C138.992 230.314 137.324 233.911 136.834 236.201C137.324 244.214 138.502 261.515 139.287 266.617C140.072 271.719 139.614 275.284 139.287 276.428C138.469 279.863 135.46 286.534 129.966 285.75C123.098 284.768 120.645 274.466 119.664 262.692C118.682 250.919 121.626 238.654 115.739 237.182Z" fill="#432307"/>
<path d="M31.8494 346.091C27.5322 346.876 29.0694 348.38 30.3776 349.034C32.8302 349.525 39.2084 350.996 43.6236 350.506C48.0389 350.015 51.4729 344.619 49.5106 343.638C47.5483 342.657 37.2458 345.11 31.8494 346.091Z" fill="#432307"/>
<path d="M59.8128 322.052C56.2806 320.875 55.3976 325.159 55.3976 327.449C55.0705 339.877 55.5938 364.929 60.3034 365.714C71.0962 367.186 84.8325 361.789 84.8325 359.336C84.8325 357.374 82.5431 356.556 81.3984 356.393L65.2092 356.883C64.8822 345.764 63.345 323.23 59.8128 322.052Z" fill="#432307"/>
<path d="M128.568 313.914C125.036 312.736 124.153 317.021 124.153 319.31C123.826 331.738 124.349 356.791 129.059 357.576C139.851 359.047 153.588 353.651 153.588 351.198C153.588 349.236 151.298 348.418 150.154 348.255L133.964 348.745C133.637 337.625 132.1 315.091 128.568 313.914Z" fill="#432307"/>
<path d="M99.0032 320.359C87.1968 318.38 84.9831 338.503 84.9831 338.833C84.0977 347.806 87.3198 353.788 89.0416 355.658C91.9931 358.627 99.8148 363.839 107.489 360.936C117.082 357.307 119.664 344.112 117.451 334.215C115.237 324.319 109.703 321.02 108.965 320.359C108.227 319.699 103.431 319.04 102.324 320.359C101.217 321.679 99.3721 320.36 99.0032 320.359Z" fill="#432307"/>
<ellipse cx="79.9231" cy="272.011" rx="12.7551" ry="21.095" fill="#F0C379"/>
<ellipse cx="101.508" cy="340.692" rx="11.774" ry="15.208" fill="#F0C379"/>
<path d="M67.561 160.868C67.5312 160.947 67.5013 161.027 67.4715 161.108C66.6175 164.502 67.2582 196.602 72.9567 194.228C78.8437 191.775 77.8625 173.623 79.3342 169.699C77.7644 181.08 84.2401 189.485 87.6741 192.265C86.6932 197.662 82.1804 205.904 71.9763 195.7C61.8817 185.605 64.718 168.597 67.4715 161.108C67.4997 160.996 67.5296 160.915 67.561 160.868Z" fill="#A45713"/>
<path d="M106.316 137.32C104.027 143.534 98.2707 157.14 93.5611 161.849C97.4858 159.396 105.531 151.057 106.316 137.32Z" fill="#A45713"/>
<path d="M126.921 109.848C123.487 118.515 116.815 137.026 117.6 141.735C118.385 146.445 124.141 122.439 126.921 109.848Z" fill="#A45713"/>
<path d="M49.8993 123.584C49.0105 125.119 47.986 127.195 47.03 129.611C45.1599 140.915 53.7198 160.618 59.22 170.68C57.0943 170.026 51.4692 166.068 45.9747 155.472C41.8375 147.493 44.116 136.974 47.03 129.611C47.4393 127.136 48.3486 125.064 49.8993 123.584Z" fill="#A45713"/>
</svg>
