<svg width="366" height="268" viewBox="0 0 366 268" fill="none" xmlns="http://www.w3.org/2000/svg">
<path d="M86.3672 97.9084C61.3233 92.5193 33.377 100.837 22.5344 105.67C16.994 106.865 18.6678 115.057 20.1972 119.004L34.0124 136.419L59.7935 154.474L122.555 186.09C155.907 207.762 246.539 233.157 287.686 243.146L309.658 244.914C324.084 249.733 345.967 246.864 318.086 196.83C283.234 134.288 117.672 104.645 86.3672 97.9084Z" fill="url(#paint0_linear_1271_584)"/>
<path d="M182.96 213.337C50.7823 170.012 16.1304 125.58 15.3267 108.78L18.8469 106.517L22.5354 105.67C17.3899 111.266 23.4322 120.751 27.0966 124.795C51.1779 152.547 115.743 182.189 190.527 211.748C265.311 241.306 298.643 243.608 316.099 245.002C330.064 246.117 331.422 237.97 330.356 233.757L334.026 242.522C317.918 262.188 226.604 231.259 182.96 213.337Z" fill="#AB6816"/>
<path d="M98.9313 103.444C57.1631 94.6239 25.7897 103.327 15.324 108.781C15.5995 107.21 16.4209 105.791 17.629 104.517C28.5719 90.8447 78.9101 64.6521 218.987 42.2308C225.739 41.3318 240.65 42.1962 246.28 52.8454C279.696 98.61 342.032 196.746 335.306 237.523C335.487 239.935 335.01 241.512 334.023 242.523L329.854 233.046C294.746 164.837 151.142 114.469 98.9313 103.444Z" fill="#DC9426"/>
<path d="M98.9312 103.445C57.1629 94.625 25.7896 103.328 15.3239 108.782C16.797 100.378 33.8849 96.3482 42.2448 95.3838C111.202 79.7736 307.343 166.629 331.376 224.36C335.891 235.205 336.223 240.272 334.023 242.524L329.853 233.047C294.746 164.838 151.142 114.47 98.9312 103.445Z" fill="#AB6816"/>
<path d="M219.439 45.7562C217.69 46.2602 215.82 46.8082 213.847 47.3966C195.372 53.8979 138.163 78.1143 108.006 91.0842C125.486 76.1026 182.649 56.7003 213.847 47.3966C216.759 46.3719 218.709 45.7873 219.439 45.7562Z" fill="#A0500B"/>
<path d="M227.813 50.1437C210.526 68.942 175.729 107.334 174.839 110.515C190.049 95.6623 221.938 62.7949 227.813 50.1437Z" fill="#A0500B"/>
<path d="M239.341 138.504C237.717 136.384 236.704 80.8296 236.4 53.3173C236.353 49.3048 238.991 98.4011 240.317 123.451C240.668 129.352 240.964 140.624 239.341 138.504Z" fill="#A0500B"/>
<path d="M296.094 175.574C292.043 164.244 259.653 93.1618 243.328 57.6598C240.643 49.2643 277.647 122.695 284.427 139.733C289.197 151.719 294.252 169.123 296.094 175.574C296.262 176.043 296.381 176.41 296.448 176.668C297.076 179.065 296.87 178.292 296.094 175.574Z" fill="#A0500B"/>
<defs>
<linearGradient id="paint0_linear_1271_584" x1="172.515" y1="211.137" x2="245.655" y2="66.0864" gradientUnits="userSpaceOnUse">
<stop stop-color="#582A02"/>
<stop offset="1"/>
</linearGradient>
</defs>
</svg>
