<svg width="279" height="299" viewBox="0 0 279 299" fill="none" xmlns="http://www.w3.org/2000/svg">
<path d="M81.6308 25.2859C82.0884 18.1927 94.7875 13.1779 101.08 11.5572C115.666 8.41103 128.537 10.1271 129.967 15.8474C131.397 21.5677 127.965 24.7138 127.393 26.1439C126.936 27.288 127.965 33.1036 128.537 35.8684C130.139 50.2835 141.026 66.6626 146.27 73.0502L176.874 107.086C185.168 115.094 198.006 146.27 198.897 153.134C201.852 175.92 208.106 225.267 209.479 240.369C210.852 255.47 202.615 266.491 198.325 270.114C181.164 289.563 144.84 288.991 129.109 288.419C116.525 287.961 104.798 279.648 100.508 275.548C97.9266 272.688 91.2769 260.504 85.3278 234.648L80.897 231.788C78.2479 222.971 75.8907 213.095 74.1941 202.329C66.7578 155.136 71.906 127.107 76.7683 119.671C80.658 113.721 88.8762 92.9759 92.499 83.3467C92.785 79.6286 93.4715 71.3914 93.9291 68.188C94.5011 64.1838 93.0714 36.4404 87.0651 33.8663C82.26 31.807 81.4401 27.288 81.6308 25.2859Z" fill="#59210C" stroke="black" stroke-width="2"/>
<path d="M127.265 26.1444C116.111 36.1548 94.9463 36.7269 87.5099 34.1527C81.8862 32.2061 81.4618 26.9752 81.8947 24.1421C82.4878 24.6737 83.6597 25.5567 86.3654 27.2883C93.5157 31.8645 100.952 30.7206 115.825 26.7164C130.698 22.7122 129.554 13.5597 130.126 17.5639C130.698 21.5681 127.837 25.2863 127.265 26.1444Z" fill="#331302"/>
<path d="M85.3714 25.8575C84.9138 26.5439 88.0409 28.2409 89.6616 29.0036C96.9071 26.6202 109.968 21.4528 104.248 19.8512C97.0974 17.8491 85.9434 24.9994 85.3714 25.8575Z" fill="#782C11"/>
<path d="M104.248 48.7387C99.4428 36.8405 99.3856 44.9251 99.9576 50.4548C100.106 52.1708 101.102 57.8911 102.246 70.7618C103.161 81.0583 105.487 80.9629 106.536 79.6282C107.775 74.2893 109.053 60.6369 104.248 48.7387Z" fill="#782C11"/>
<path d="M113.4 255.527C109.739 248.205 108.252 254.764 107.966 258.959C113 273.374 117.118 272.402 118.549 270.114C118.358 268.302 117.061 262.849 113.4 255.527Z" fill="#782C11"/>
<path d="M130.36 100.349L152.383 118.081L152.396 118.092L152.407 118.104C153.202 118.999 154.857 121.843 155.318 126.227C155.604 128.938 158.605 149.74 161.823 170.836C163.432 181.382 165.095 191.999 166.498 200.462C167.902 208.933 169.044 215.227 169.611 217.143C170.763 221.029 170.422 223.539 169.257 225.081C168.093 226.621 166.155 227.128 164.269 227.128C163.913 227.128 163.113 227.212 161.94 227.369C160.774 227.525 159.251 227.753 157.459 228.033C153.874 228.595 149.212 229.372 144.167 230.236C134.076 231.964 122.451 234.038 114.824 235.42L114.72 235.438L114.645 235.363C113.76 234.479 112.229 233.482 110.517 233.342C108.826 233.203 106.915 233.897 105.233 236.475L105.183 236.553L105.09 236.565L76.7744 240.283L76.7041 240.293L76.6436 240.256C76.3493 240.079 75.9694 239.616 75.6641 238.817C75.3556 238.01 75.1143 236.841 75.1143 235.22C75.1143 232.038 73.9742 224.773 73.4014 221.526L73.3994 221.514L73.3984 221.501L69.3945 137.984L69.3926 137.949L69.4033 137.916C69.981 135.991 71.9376 131.287 75.1689 127.825C78.3587 124.408 85.8234 113.651 89.1641 108.688L89.2109 108.618L89.292 108.602L130.192 100.308L130.286 100.289L130.36 100.349ZM110.212 113.378C106.421 113.378 103.348 116.579 103.348 120.528C103.348 124.477 106.421 127.679 110.212 127.679C114.003 127.679 117.076 124.477 117.076 120.528C117.076 116.579 114.003 113.378 110.212 113.378Z" fill="#F0C379"/>
<path d="M89.0475 94.502C84.7001 83.0615 90.2869 75.2438 93.6237 72.765C89.9624 84.892 97.7094 93.8347 102.041 96.7901C103.315 94.3113 105.074 92.4441 107.353 92.786C108.719 92.9909 109.481 93.5546 109.859 94.3253C112.65 94.4346 123.37 82.2034 129.662 74.767C135.954 67.3307 135.954 64.7566 138.242 59.6083C140.531 54.4601 144.249 60.4664 144.821 63.0405C145.278 65.0998 144.249 68.0934 143.677 69.3328C136.584 86.4937 117.459 98.9829 108.783 103.082C108.783 105.371 109.755 110.919 113.645 114.809C113.264 116.716 111.758 120.472 108.783 120.243C105.065 119.957 99.9165 111.663 99.6305 104.513C93.9102 101.996 90.1917 96.7902 89.0475 94.502Z" fill="#CC8227"/>
<path d="M86.1283 146.431C84.5267 146.202 83.3635 149.386 82.9822 151.007C82.5246 153.524 83.9356 166.929 84.6983 173.316C84.8889 175.795 85.8423 180.982 88.1304 181.897C90.4185 182.812 90.7999 179.99 90.7046 178.465L88.1304 152.723C88.1304 150.721 87.73 146.66 86.1283 146.431Z" fill="#432307"/>
<path d="M106.721 144.143C97.5689 142.427 95.8528 159.874 95.8528 160.16C95.1664 167.939 97.6643 173.126 98.999 174.747C101.287 177.321 107.351 181.84 113.3 179.323C120.736 176.177 122.738 164.736 121.022 156.156C119.306 147.575 115.016 144.715 114.444 144.143C113.872 143.571 110.154 142.999 109.295 144.143C108.437 145.287 107.007 144.143 106.721 144.143Z" fill="#432307"/>
<path d="M129.602 141.283C126.857 140.597 126.17 143.667 126.17 145.287L127.314 162.734C127.41 167.596 130.003 176.977 139.613 175.604C151.626 173.888 148.193 155.583 147.621 152.151C147.049 148.719 146.763 142.427 144.761 139.567C143.16 137.279 142.187 139.376 141.901 140.711C142.187 145.383 142.874 155.469 143.331 158.444C143.789 161.418 143.522 163.497 143.331 164.164C142.854 166.166 141.1 170.056 137.897 169.598C133.893 169.026 132.463 163.02 131.891 156.156C131.319 149.292 133.035 142.141 129.602 141.283Z" fill="#432307"/>
<path d="M80.6941 204.778C78.1772 205.235 79.0733 206.113 79.836 206.494C81.2659 206.78 84.9845 207.638 87.5586 207.352C90.1327 207.066 92.1348 203.92 90.9908 203.348C89.8467 202.776 83.8402 204.206 80.6941 204.778Z" fill="#432307"/>
<path d="M96.9971 190.763C94.9378 190.077 94.4229 192.575 94.4229 193.909C94.2323 201.155 94.5373 215.761 97.2831 216.218C103.575 217.076 111.584 213.93 111.584 212.5C111.584 211.356 110.249 210.88 109.582 210.784L100.143 211.07C99.9525 204.587 99.0564 191.45 96.9971 190.763Z" fill="#432307"/>
<path d="M137.085 186.018C135.025 185.332 134.511 187.83 134.511 189.165C134.32 196.41 134.625 211.016 137.371 211.474C143.663 212.332 151.671 209.186 151.671 207.756C151.671 206.612 150.337 206.135 149.669 206.039L140.231 206.326C140.04 199.843 139.144 186.705 137.085 186.018Z" fill="#432307"/>
<path d="M119.846 189.776C112.963 188.622 111.672 200.354 111.672 200.547C111.156 205.778 113.034 209.266 114.038 210.356C115.759 212.087 120.319 215.125 124.793 213.433C130.386 211.317 131.892 203.624 130.601 197.854C129.31 192.084 126.084 190.161 125.654 189.776C125.223 189.391 122.427 189.007 121.782 189.776C121.136 190.545 120.061 189.776 119.846 189.776Z" fill="#432307"/>
<ellipse cx="108.723" cy="161.589" rx="7.43637" ry="12.2986" fill="#F0C379"/>
<ellipse cx="121.306" cy="201.63" rx="6.86434" ry="8.86644" fill="#F0C379"/>
<path d="M101.517 96.7904C101.5 96.8364 101.483 96.8831 101.465 96.9305C100.967 98.909 101.341 117.624 104.663 116.239C108.095 114.809 107.523 104.227 108.381 101.939C107.466 108.574 111.242 113.475 113.244 115.095C112.672 118.241 110.041 123.046 104.092 117.097C98.2063 111.212 99.86 101.296 101.465 96.9305C101.482 96.865 101.499 96.8179 101.517 96.7904Z" fill="#A45713"/>
<path d="M124.112 83.0617C122.777 86.6846 119.422 94.6167 116.676 97.3624C118.964 95.9324 123.655 91.0701 124.112 83.0617Z" fill="#A45713"/>
<path d="M136.125 67.0449C134.123 72.0978 130.233 82.8901 130.69 85.6358C131.148 88.3816 134.504 74.386 136.125 67.0449Z" fill="#A45713"/>
<path d="M91.2205 75.0533C90.7024 75.9483 90.1051 77.1587 89.5477 78.5672C88.4574 85.1574 93.4479 96.6446 96.6546 102.511C95.4152 102.129 92.1358 99.8221 88.9324 93.6442C86.5204 88.9926 87.8488 82.8599 89.5477 78.5672C89.7863 77.1244 90.3164 75.9163 91.2205 75.0533Z" fill="#A45713"/>
<path d="M198.001 207.5C195.201 166.7 184.501 129.833 179.501 116.5C173.001 108.5 177.001 119 179.501 124.5C182.001 130 200.001 244 200.001 248C200.001 252 205.501 256.5 203.501 245.5C201.901 236.7 199.167 216.5 198.001 207.5Z" fill="#D9D9D9" fill-opacity="0.36"/>
</svg>
