<svg width="1290" height="2796" viewBox="0 0 1290 2796" fill="none" xmlns="http://www.w3.org/2000/svg">
<rect width="1290" height="2796" fill="#BC0000"/>
<path d="M218.562 966V1035.39H164.876V1312.72H74.4705V1035.39H21V966H218.562Z" fill="white"/>
<path d="M395.293 966L447.046 1312.72H354.493L349.983 1250.4H317.557L312.189 1312.72H218.562L264.516 966H395.293ZM347.406 1188.94C342.825 1149.67 338.244 1101.2 333.663 1043.52C324.5 1109.77 318.774 1158.24 316.483 1188.94H347.406Z" fill="white"/>
<path d="M664.364 966V1312.72H585.124L538.096 1155.1V1312.72H462.507V966H538.096L588.775 1122.12V966H664.364Z" fill="white"/>
<path d="M906.376 966V1197.72C906.376 1223.99 905.517 1242.48 903.8 1253.18C902.082 1263.75 896.999 1274.67 888.553 1285.95C880.106 1297.09 868.94 1305.58 855.053 1311.43C841.31 1317.14 825.061 1320 806.307 1320C785.549 1320 767.224 1316.57 751.334 1309.72C735.443 1302.87 723.56 1293.94 715.687 1282.95C707.813 1271.96 703.16 1260.39 701.728 1248.26C700.297 1235.98 699.581 1210.28 699.581 1171.16V966H789.987V1225.99C789.987 1241.12 790.774 1250.83 792.349 1255.11C794.067 1259.25 797.431 1261.32 802.442 1261.32C808.168 1261.32 811.819 1259.04 813.394 1254.47C815.112 1249.76 815.971 1238.76 815.971 1221.49V966H906.376Z" fill="white"/>
<path d="M1156.76 966L1105.01 1122.55L1161.7 1312.72H1068.29L1031.79 1164.09V1312.72H941.379V966H1031.79V1100.7L1071.94 966H1156.76Z" fill="white"/>
<path d="M1268 966V1312.72H1177.59V966H1268Z" fill="white"/>
<path d="M437.145 1143.21C348.818 1168.11 348.473 1295.36 359.34 1355.87L515.691 1294.37C517.667 1273.87 517.617 1222.79 501.612 1182.48C485.606 1142.17 451.965 1139.5 437.145 1143.21Z" fill="#080808"/>
<path d="M838.025 1146.17C790.008 1160.4 779.98 1239.04 780.968 1276.59C845.435 1358.34 977.629 1507.48 990.67 1449.98C1006.97 1378.1 988.447 1324.01 977.332 1280.29C966.217 1236.57 898.045 1128.39 838.025 1146.17Z" fill="#080808"/>
<path d="M120 1518.15C146.923 1523.34 212.032 1519.93 257.084 1464.8C313.4 1395.89 369.716 1336.61 406.766 1321.05C400.097 1287.46 394.317 1217.16 424.55 1204.71C454.783 1192.26 474.197 1254.85 480.125 1287.7C532.735 1264.49 675.6 1231.98 826.17 1287.7C829.134 1266.96 841.731 1226.35 868.407 1229.91C901.752 1234.35 915.09 1317.34 915.09 1346.24C943.989 1370.69 1004.75 1429.97 1041.8 1479.62C1084.94 1537.43 1168.51 1564.09 1190 1558.17C1180.86 1572.99 1155.62 1604.26 1127.76 1610.78C1140.85 1613 1170.88 1616.41 1186.3 1612.26C1168.02 1660.09 1089.82 1785.28 923.241 1903.35C738.135 2034.58 568.159 2027.92 494.945 2001.4C367.475 1959.45 256.713 1832.64 188.516 1726.39C175.735 1707.04 162.111 1684.43 150.382 1661.17C134.607 1629.87 122.259 1597.38 120 1570.02C129.633 1575.7 152.752 1586.18 168.165 1582.62C140.303 1558.32 124.446 1529.52 120 1518.15Z" fill="#080808"/>
<path d="M257.084 1558.17C255.899 1584.25 278.326 1602.13 289.688 1607.81C321.057 1612.51 387.351 1613.74 401.578 1581.14C419.362 1540.38 472.714 1522.6 491.239 1519.63C506.059 1517.26 516.186 1507.28 519.397 1502.59C543.85 1451.46 504.577 1384.77 458.635 1376.62C421.882 1370.1 386.511 1381.81 373.42 1388.48C273.386 1440.35 258.566 1525.56 257.084 1558.17Z" fill="#080808"/>
<path d="M749.106 1376.62C648.33 1367.14 603.871 1447.76 594.238 1489.25C580.9 1551.5 655.74 1595.96 720.948 1592.25C756.582 1590.23 848.4 1616.21 889.896 1626.34C913.854 1623.37 958.067 1602.03 943.247 1540.38C924.722 1463.32 875.076 1388.48 749.106 1376.62Z" fill="#080808"/>
<path d="M429.739 1249.91C426.775 1250.5 427.022 1255.1 427.516 1257.32L434.926 1294.37C435.667 1297.58 437.89 1303.86 440.854 1303.26C443.818 1302.67 443.077 1297.09 442.336 1294.37L434.185 1257.32C433.938 1254.61 432.703 1249.32 429.739 1249.91Z" fill="#692F1E"/>
<path d="M396.392 1578.92C283.761 1545.72 265.483 1636.22 270.423 1685.62C272.646 1704.88 276.237 1715.87 283.709 1735.27C290.395 1751.17 313.549 1791.33 352.673 1824.71C389.229 1857.2 448.509 1893.1 560.153 1904.95C793.567 1910.88 884.709 1746.38 895.083 1727.11C905.457 1707.85 930.651 1636.71 900.27 1594.48C869.889 1552.24 812.833 1555.94 746.884 1586.33C694.125 1610.63 634.499 1612.26 611.281 1610.04L577.196 1604.11C558.177 1612.01 516.73 1626.64 503.096 1621.89C489.461 1617.15 426.279 1591.27 396.392 1578.92Z" fill="#080808"/>
<path d="M871.105 1266.15C874.113 1266.09 874.624 1270.05 874.504 1272.04L873.307 1305.01C873.106 1307.88 871.952 1313.65 868.945 1313.7C865.937 1313.76 865.748 1308.86 866.03 1306.41L867.955 1273.3C867.752 1270.94 868.098 1266.2 871.105 1266.15Z" fill="#080808"/>
<path d="M354.153 1653.76C355.932 1651.38 357.364 1653.76 357.858 1655.24C388.239 1736.75 483.086 1732.3 498.647 1729.34C511.096 1726.97 518.16 1727.36 520.136 1727.86C675.005 1773.8 809.125 1679.69 825.427 1621.15C829.873 1619.67 840.988 1633.01 843.952 1636.71C846.916 1640.42 854.326 1653.76 854.326 1640.42C854.326 1627.08 838.765 1604.85 820.24 1601.14C801.715 1597.44 789.859 1606.33 786.154 1612.26C782.449 1618.19 787.636 1621.89 795.787 1618.93C802.308 1616.56 811.348 1616.46 815.053 1616.71C744.658 1753.79 533.474 1721.93 526.805 1712.29C520.912 1703.78 514.455 1670.55 514.208 1652.27C565.337 1637.45 588.308 1595.22 590.531 1587.07C592.754 1578.91 580.898 1558.17 523.841 1552.98C466.785 1547.79 446.037 1561.13 437.145 1567.8C428.253 1574.47 424.548 1581.88 441.591 1607.07C455.225 1627.23 485.309 1645.6 498.647 1652.27C496.276 1668.28 501.117 1698.96 503.834 1712.29C431.513 1721.78 388.239 1682.16 375.642 1661.17C372.184 1656.23 365.713 1645.75 367.491 1643.38C369.714 1640.42 391.203 1642.64 393.426 1641.9C395.649 1641.16 390.462 1633.01 380.088 1628.56C369.714 1624.12 356.376 1628.56 347.484 1636.71C338.592 1644.86 337.851 1678.21 342.297 1679.69C346.743 1681.17 351.93 1656.72 354.153 1653.76Z" fill="#38231D"/>
<path d="M635.734 1521.66C633.363 1528.18 638.698 1529.32 641.662 1529.07C643.145 1528.09 645.664 1526.55 643.886 1528.33C642.107 1530.11 643.145 1530.56 643.886 1530.56C697.238 1520.92 815.056 1523.15 828.394 1525.37C839.064 1527.15 842.226 1524.63 842.473 1523.15C845.437 1494.25 792.085 1472.68 726.136 1473.5C666.116 1474.24 638.698 1513.51 635.734 1521.66Z" fill="white"/>
<path d="M317.2 1509.07C318.385 1513.81 326.092 1513.02 329.797 1512.03C329.204 1512.62 329.55 1513.27 329.797 1513.51C367.587 1511.29 461.694 1512.03 482.442 1517.22C499.04 1521.37 499.732 1512.52 498.003 1507.58C490.89 1485.06 461.447 1473.5 447.615 1470.53C386.557 1462.24 344.617 1481.4 331.279 1492.02C326.092 1495.73 316.014 1504.32 317.2 1509.07Z" fill="white"/>
<path d="M317.2 1509.07C318.385 1513.81 326.092 1513.02 329.797 1512.03C359.533 1490.35 380.829 1484.81 387.498 1483.33C394.167 1481.84 426.03 1478.88 419.361 1483.33C412.692 1487.77 406.764 1506.3 406.023 1509.26C405.43 1511.63 407.059 1512.42 407.947 1512.51C440.486 1513 471.558 1514.5 482.442 1517.22C499.04 1521.37 499.732 1512.52 498.003 1507.58C490.89 1485.06 461.447 1473.5 447.615 1470.53C386.557 1462.24 344.617 1481.4 331.279 1492.02C326.092 1495.73 316.014 1504.32 317.2 1509.07Z" fill="#3A211A"/>
<path d="M635.734 1521.66C633.363 1528.18 638.698 1529.32 641.662 1529.07C641.909 1529.09 642.7 1528.85 643.886 1527.72C674.228 1493.61 720.83 1487.79 726.855 1487.03L726.878 1487.03C732.806 1486.29 748.366 1485.55 743.921 1488.51C739.475 1491.48 732.065 1512.97 732.065 1518.89C732.065 1523.64 733.547 1524.13 734.288 1523.78C778.773 1522.82 820.748 1524.09 828.394 1525.37C839.064 1527.15 842.226 1524.63 842.473 1523.15C845.437 1494.25 792.085 1472.68 726.136 1473.5C666.116 1474.24 638.698 1513.51 635.734 1521.66Z" fill="#080808"/>
<path d="M417.145 1143.21C328.818 1168.11 328.473 1295.36 339.34 1355.87L495.691 1294.37C497.667 1273.87 497.617 1222.79 481.612 1182.48C465.606 1142.17 431.965 1139.5 417.145 1143.21Z" fill="#67311F"/>
<path d="M818.025 1146.17C770.008 1160.4 759.98 1239.04 760.968 1276.59C825.435 1358.34 957.629 1507.48 970.67 1449.98C986.972 1378.1 968.447 1324.01 957.332 1280.29C946.217 1236.57 878.045 1128.39 818.025 1146.17Z" fill="#67311F"/>
<path d="M100 1518.15C126.923 1523.34 192.032 1519.93 237.084 1464.8C293.4 1395.89 349.716 1336.61 386.766 1321.05C380.097 1287.46 374.317 1217.16 404.55 1204.71C434.783 1192.26 454.197 1254.85 460.125 1287.7C512.735 1264.49 655.6 1231.98 806.17 1287.7C809.134 1266.96 821.731 1226.35 848.407 1229.91C881.752 1234.35 895.09 1317.34 895.09 1346.24C923.989 1370.69 984.751 1429.97 1021.8 1479.62C1064.94 1537.43 1148.51 1564.09 1170 1558.17C1160.86 1572.99 1135.62 1604.26 1107.76 1610.78C1120.85 1613 1150.88 1616.41 1166.3 1612.26C1148.02 1660.09 1069.82 1785.28 903.241 1903.35C718.135 2034.58 548.159 2027.92 474.945 2001.4C347.475 1959.45 236.713 1832.64 168.516 1726.39C155.735 1707.04 142.111 1684.43 130.382 1661.17C114.607 1629.87 102.259 1597.38 100 1570.02C109.633 1575.7 132.752 1586.18 148.165 1582.62C120.303 1558.32 104.446 1529.52 100 1518.15Z" fill="url(#paint0_linear_1109_23)"/>
<path d="M237.084 1558.17C235.899 1584.25 258.326 1602.13 269.688 1607.81C301.057 1612.51 367.351 1613.74 381.578 1581.14C399.362 1540.38 452.714 1522.6 471.239 1519.63C486.059 1517.26 496.186 1507.28 499.397 1502.59C523.85 1451.46 484.577 1384.77 438.635 1376.62C401.882 1370.1 366.511 1381.81 353.42 1388.48C253.386 1440.35 238.566 1525.56 237.084 1558.17Z" fill="#5F2C1C"/>
<path d="M729.106 1376.62C628.33 1367.14 583.871 1447.76 574.238 1489.25C560.9 1551.5 635.74 1595.96 700.948 1592.25C736.582 1590.23 828.4 1616.21 869.896 1626.34C893.854 1623.37 938.067 1602.03 923.247 1540.38C904.722 1463.32 855.076 1388.48 729.106 1376.62Z" fill="#5F2C1C"/>
<path d="M409.739 1249.91C406.775 1250.5 407.022 1255.1 407.516 1257.32L414.926 1294.37C415.667 1297.58 417.89 1303.86 420.854 1303.26C423.818 1302.67 423.077 1297.09 422.336 1294.37L414.185 1257.32C413.938 1254.61 412.703 1249.32 409.739 1249.91Z" fill="#080808"/>
<path d="M376.392 1578.92C263.761 1545.72 245.483 1636.22 250.423 1685.62C252.646 1704.88 256.237 1715.87 263.709 1735.27C270.395 1751.17 293.549 1791.33 332.673 1824.71C369.229 1857.2 428.509 1893.1 540.153 1904.95C773.567 1910.88 864.709 1746.38 875.083 1727.11C885.457 1707.85 910.651 1636.71 880.27 1594.48C849.889 1552.24 792.833 1555.94 726.884 1586.33C674.125 1610.63 614.499 1612.26 591.281 1610.04L557.196 1604.11C538.177 1612.01 496.73 1626.64 483.096 1621.89C469.461 1617.15 406.279 1591.27 376.392 1578.92Z" fill="#F0CA94"/>
<path d="M851.105 1266.15C854.113 1266.09 854.624 1270.05 854.504 1272.04L853.307 1305.01C853.106 1307.88 851.952 1313.65 848.945 1313.7C845.937 1313.76 845.748 1308.86 846.03 1306.41L847.955 1273.3C847.752 1270.94 848.098 1266.2 851.105 1266.15Z" fill="#080808"/>
<path d="M334.153 1653.76C335.932 1651.38 337.364 1653.76 337.858 1655.24C368.239 1736.75 463.086 1732.3 478.647 1729.34C491.096 1726.97 498.16 1727.36 500.136 1727.86C655.005 1773.8 789.125 1679.69 805.427 1621.15C809.873 1619.67 820.988 1633.01 823.952 1636.71C826.916 1640.42 834.326 1653.76 834.326 1640.42C834.326 1627.08 818.765 1604.85 800.24 1601.14C781.715 1597.44 769.859 1606.33 766.154 1612.26C762.449 1618.19 767.636 1621.89 775.787 1618.93C782.308 1616.56 791.348 1616.46 795.053 1616.71C724.658 1753.79 513.474 1721.93 506.805 1712.29C500.912 1703.78 494.455 1670.55 494.208 1652.27C545.337 1637.45 568.308 1595.22 570.531 1587.07C572.754 1578.91 560.898 1558.17 503.841 1552.98C446.785 1547.79 426.037 1561.13 417.145 1567.8C408.253 1574.47 404.548 1581.88 421.591 1607.07C435.225 1627.23 465.309 1645.6 478.647 1652.27C476.276 1668.28 481.117 1698.96 483.834 1712.29C411.513 1721.78 368.239 1682.16 355.642 1661.17C352.184 1656.23 345.713 1645.75 347.491 1643.38C349.714 1640.42 371.203 1642.64 373.426 1641.9C375.649 1641.16 370.462 1633.01 360.088 1628.56C349.714 1624.12 336.376 1628.56 327.484 1636.71C318.592 1644.86 317.851 1678.21 322.297 1679.69C326.743 1681.17 331.93 1656.72 334.153 1653.76Z" fill="#080808"/>
<path d="M615.734 1521.66C613.363 1528.18 618.698 1529.32 621.662 1529.07C623.145 1528.09 625.664 1526.55 623.886 1528.33C622.107 1530.11 623.145 1530.56 623.886 1530.56C677.238 1520.92 795.056 1523.15 808.394 1525.37C819.064 1527.15 822.226 1524.63 822.473 1523.15C825.437 1494.25 772.085 1472.68 706.136 1473.5C646.116 1474.24 618.698 1513.51 615.734 1521.66Z" fill="white"/>
<path d="M297.2 1509.07C298.385 1513.81 306.092 1513.02 309.797 1512.03C309.204 1512.62 309.55 1513.27 309.797 1513.51C347.587 1511.29 441.694 1512.03 462.442 1517.22C479.04 1521.37 479.732 1512.52 478.003 1507.58C470.89 1485.06 441.447 1473.5 427.615 1470.53C366.557 1462.24 324.617 1481.4 311.279 1492.02C306.092 1495.73 296.014 1504.32 297.2 1509.07Z" fill="white"/>
<path d="M297.2 1509.07C298.385 1513.81 306.092 1513.02 309.797 1512.03C339.533 1490.35 360.829 1484.81 367.498 1483.33C374.167 1481.84 406.03 1478.88 399.361 1483.33C392.692 1487.77 386.764 1506.3 386.023 1509.26C385.43 1511.63 387.059 1512.42 387.947 1512.51C420.486 1513 451.558 1514.5 462.442 1517.22C479.04 1521.37 479.732 1512.52 478.003 1507.58C470.89 1485.06 441.447 1473.5 427.615 1470.53C366.557 1462.24 324.617 1481.4 311.279 1492.02C306.092 1495.73 296.014 1504.32 297.2 1509.07Z" fill="#080808"/>
<path d="M615.734 1521.66C613.363 1528.18 618.698 1529.32 621.662 1529.07C621.909 1529.09 622.7 1528.85 623.886 1527.72C654.228 1493.61 700.83 1487.79 706.855 1487.03L706.878 1487.03C712.806 1486.29 728.366 1485.55 723.921 1488.51C719.475 1491.48 712.065 1512.97 712.065 1518.89C712.065 1523.64 713.547 1524.13 714.288 1523.78C758.773 1522.82 800.748 1524.09 808.394 1525.37C819.064 1527.15 822.226 1524.63 822.473 1523.15C825.437 1494.25 772.085 1472.68 706.136 1473.5C646.116 1474.24 618.698 1513.51 615.734 1521.66Z" fill="#080808"/>
<defs>
<linearGradient id="paint0_linear_1109_23" x1="635" y1="1203.1" x2="635" y2="2015.12" gradientUnits="userSpaceOnUse">
<stop offset="0.33342" stop-color="#BE3A27"/>
<stop offset="1" stop-color="#581B12"/>
</linearGradient>
</defs>
</svg>
