<svg width="1381" height="1394" viewBox="0 0 1381 1394" fill="none" xmlns="http://www.w3.org/2000/svg">
<path d="M668.257 0.151367C729.893 39.1412 820.663 99.546 892.652 154.042C928.643 181.287 959.958 207.069 980.591 227.967C990.903 238.411 998.574 247.663 1002.82 255.285C1004.94 259.095 1006.23 262.532 1006.54 265.528C1006.86 268.539 1006.19 271.124 1004.39 273.167C987.383 292.485 953.674 311.413 871.557 317.744C860.006 318.635 847.494 319.276 833.936 319.634C836.416 332.024 838.338 347.244 838.338 364.095C838.338 385.962 843.17 401.672 849.755 414.111C855.856 425.636 863.46 434.369 870.316 442.713C864.702 447.854 859.289 454.914 856.876 463.318C855.149 469.332 854.973 476.004 857.347 483.021C858.713 487.059 860.906 491.151 864.058 495.261C859.941 498.729 855.733 501.734 851.363 504.315C828.553 509.874 775.855 504.882 742.113 440.611C730.667 418.809 717.131 407.263 705.883 404.135C700.23 402.563 694.875 403.069 690.885 405.949C686.849 408.862 684.839 413.746 684.992 419.568C685.294 431.014 693.839 447.019 713.952 464.762C732.544 481.162 761.369 499.37 803.921 517.251C780.39 518.516 751.105 515.229 711.935 509.839C693.661 507.324 681.321 510.831 673.237 517.905C665.126 525.005 661.04 535.924 659.776 548.771C657.325 573.69 665.568 605.131 674.298 627.347L675.146 629.471L675.148 629.478L675.151 629.485L675.164 629.521L675.166 629.526C741.228 817.144 720.228 959.159 699.894 1011.66C719.639 996.706 762.528 960.303 803.689 912.81C848.031 861.647 912.492 824.452 939.212 812.229L939.217 812.227L939.231 812.22L939.254 812.21L939.276 812.203C1159.33 721.642 1296.98 821.748 1340.7 886.149L1341.71 887.664L1341.71 887.667L1342.7 889.171L1342.71 889.186L1342.73 889.219L1342.75 889.255L1342.76 889.278C1399.39 996.732 1385.91 1085.79 1345.96 1153.4C1306.05 1220.91 1239.79 1266.95 1190.91 1288.69L1188.21 1289.89L1186.63 1290.59L1187.59 1289.15L1189.24 1286.7C1220.42 1240.35 1261.78 1110.94 1176.46 965.343C1133.83 892.6 1080.05 860.494 1030.23 849.817C981.904 839.461 937.186 849.248 909.812 861.869C1036.13 921.212 1091.12 1012.26 1108.38 1102.19C1125.73 1192.65 1104.89 1281.87 1080.31 1336.43L1080.15 1336.8L1080.05 1337.02L1079.82 1337.08L964.925 1366.45L964.032 1366.68L964.327 1365.81L964.828 1364.32C1046.5 1122.67 914.17 968.699 837.146 921.321C824.279 933.072 805.4 950.682 789.622 966.196C781.576 974.108 774.35 981.462 769.143 987.21C766.537 990.086 764.457 992.539 763.036 994.446C762.324 995.402 761.796 996.192 761.455 996.812C761.366 996.974 761.295 997.115 761.238 997.237C841.568 1054.52 873.194 1130.68 880.041 1202.61C886.905 1274.73 868.877 1342.63 850.106 1383.16V1383.16L849.902 1383.6L849.782 1383.86L849.498 1383.89L849.016 1383.93C303.163 1439 94.5087 1233.06 58.4766 1122.3C-22.7748 938.061 -8.52671 776.321 35.8516 654.041C80.2096 531.818 154.695 448.955 194.046 422.437C249.463 385.089 322.038 305.595 361.537 258.568C357.789 257.028 354.12 255.46 350.564 253.867C335.106 246.94 321.729 239.547 313.105 232.106C308.795 228.387 305.637 224.626 304.018 220.874C302.389 217.101 302.318 213.337 304.18 209.682C305.111 207.854 306.91 205.683 309.447 203.215C311.992 200.74 315.31 197.936 319.312 194.847C327.318 188.667 338.092 181.317 350.966 173.113C376.716 156.704 410.903 136.854 448.235 116.069C522.902 74.4992 610.177 29.1748 667.765 0.12793L668.018 0L668.257 0.151367ZM691.512 1056.13C662.308 1079.9 619.905 1107.92 602.353 1118.97H602.352L602.02 1119.17L602.267 1119.48C613.981 1134.02 633.583 1169.26 644.48 1214.55C655.377 1259.82 657.564 1315.1 634.496 1369.71L634.291 1370.2H634.818C636.883 1370.2 708.735 1369.07 744.403 1368.5L744.645 1368.5L744.727 1368.27V1368.27C756.498 1335.36 764.061 1275.04 758.316 1214.11C752.573 1153.19 733.516 1091.56 691.958 1056.13L691.737 1055.95L691.512 1056.13ZM515.702 1180.98C481.777 1203.37 435.388 1216.89 416.437 1220.85H416.436L416.071 1220.93L416.171 1221.29L416.504 1222.53C419.979 1235.66 424.195 1259.07 424.079 1282.25C424.019 1294.21 422.805 1306.09 419.748 1316.46C416.691 1326.83 411.797 1335.66 404.397 1341.54L403.814 1342.01L404.545 1342.16C421.537 1345.7 448.258 1350.97 473.193 1355.27C485.66 1357.41 497.685 1359.32 507.826 1360.65C517.96 1361.97 526.238 1362.73 531.197 1362.56L531.43 1362.55L531.512 1362.33L531.513 1362.33C537.054 1347.41 542.068 1317.76 541.281 1284.03C540.507 1250.82 534.11 1213.61 517.021 1182.57L516.199 1181.1L516.015 1180.77L515.702 1180.98ZM113.994 1093.94L106.821 1079.96L88.7129 1089.26L115.109 1140.68L133.218 1131.38L126.074 1117.47L198.451 1080.31L186.372 1056.78L113.994 1093.94ZM104.539 951.67C91.1791 955.044 82.4742 957.696 78.4258 959.626C74.3368 961.566 71.3639 965.017 69.5068 969.979C67.6092 974.95 67.7111 981.599 69.8135 989.923C71.5673 996.867 74.2929 1002.18 77.9893 1005.87C81.6855 1009.56 85.4239 1011.71 89.2041 1012.31C92.9335 1012.88 97.9252 1012.37 104.179 1010.79L109.6 1009.42L103.769 986.337L95.3027 988.475C90.7955 989.613 87.9622 990.113 86.8037 989.974C85.6047 989.844 84.7945 988.947 84.374 987.282C84.0049 985.82 84.3935 984.621 85.5391 983.684C86.6338 982.716 89.2926 981.698 93.5156 980.632C96.8861 979.781 99.1916 979.501 100.432 979.793C101.672 980.085 104.896 983.871 110.104 991.151C114.936 997.966 118.688 1002.05 121.363 1003.41C124.038 1004.76 128.402 1004.67 134.452 1003.15L141.091 1001.47C149.253 999.407 154.102 996.282 155.636 992.093C157.119 987.874 157.317 983.612 156.229 979.308C155.399 976.018 153.975 973.375 151.959 971.379C149.892 969.352 147.227 967.952 143.965 967.178L151.152 965.362L145.106 941.424L104.539 951.67ZM129.515 971.54C133.575 970.514 136.155 970.122 137.253 970.363C138.299 970.574 139.018 971.451 139.407 972.994C139.817 974.618 139.485 975.869 138.41 976.745C137.325 977.581 134.692 978.527 130.51 979.583C126.855 980.506 123.976 980.909 121.873 980.792C119.76 980.635 116.764 978.951 112.886 975.74L129.515 971.54ZM82.6777 828.396C75.392 828.545 70.2074 829.049 67.125 829.908C64.0007 830.768 61.4405 832.601 59.4453 835.407C57.4502 838.213 56.4976 841.794 56.5869 846.148C56.6582 849.624 57.4954 852.686 59.0996 855.334C60.6611 857.941 62.9895 860.134 66.084 861.914L58.4121 861.632L58.9414 887.447L142.292 885.738L141.771 860.362L85.4297 861.518C79.1487 861.646 75.2915 861.495 73.8584 861.063C72.3835 860.633 71.6277 859.517 71.5908 857.717C71.5557 856 72.162 854.941 73.4102 854.538C74.6587 854.135 78.1519 853.875 83.8887 853.758L141.612 852.574L141.092 827.198L82.6777 828.396ZM78.3652 723.045L133.277 734.542C139.959 735.941 143.877 736.955 145.029 737.581C146.19 738.167 146.578 739.381 146.191 741.226C145.831 742.947 145.014 743.889 143.739 744.05C142.473 744.17 138.663 743.565 132.309 742.234L76.7822 730.608L71.5811 755.451L126.615 766.974C133.625 768.441 138.349 769.281 140.787 769.492C143.184 769.694 145.588 769.449 148.001 768.756C150.422 768.022 152.547 766.563 154.374 764.378C156.201 762.193 157.505 759.235 158.286 755.505C158.973 752.225 158.901 749.193 158.072 746.409C157.211 743.576 155.586 741.011 153.2 738.714L159.874 740.561L165.166 715.288L83.5674 698.203L78.3652 723.045ZM116.215 609.45L135.015 626.869L96.2422 608.933L85.5859 631.968L177.899 674.673L188.556 651.638L155.599 636.392L191.879 644.453L202.14 622.272L151.021 613.368L125.184 590.063L116.215 609.45ZM166.956 529.345L232.808 580.472L248.835 559.828L182.984 508.701L166.956 529.345ZM152.466 518.095L162.937 526.225L178.965 505.581L168.494 497.451L152.466 518.095ZM694.396 410.814C696.487 409.306 699.81 408.673 704.275 409.915C713.265 412.416 725.731 422.315 736.801 443.4C764.834 496.796 805.916 511.416 834.238 511.988C832.62 512.385 831.023 512.735 829.471 513.046C825.504 513.839 821.997 514.357 819.167 514.84C817.825 515.069 816.59 515.3 815.592 515.552C768.243 496.611 737.195 477.265 717.921 460.262C698.228 442.89 691.225 428.337 690.99 419.41C690.875 415.046 692.351 412.291 694.396 410.814ZM874.02 447.458C883.657 461.271 881.564 474.747 878.982 480.198V480.199L878.933 480.304L878.903 480.364L878.859 480.416L878.784 480.5L878.785 480.501C875.392 484.447 871.993 488.024 868.55 491.259C865.9 487.735 864.125 484.334 863.03 481.098C861.08 475.333 861.225 469.915 862.644 464.975C864.635 458.037 869.166 451.989 874.02 447.458ZM753.836 341.878C753.702 341.902 753.557 341.982 753.466 342.135C753.388 342.266 753.385 342.395 753.389 342.464C753.396 342.597 753.447 342.722 753.482 342.804C753.525 342.899 753.581 343.009 753.648 343.127C753.784 343.365 753.981 343.679 754.236 344.07L754.252 344.094L754.27 344.116C762.434 353.965 772.019 357.212 780.681 357.247C789.318 357.282 797.022 354.125 801.489 351.19L801.488 351.189C802.324 350.665 803.529 349.747 804.447 348.675C805.339 347.633 806.103 346.276 805.672 344.95C805.493 344.401 804.967 344.059 804.418 343.835C803.844 343.601 803.101 343.439 802.271 343.33C800.607 343.111 798.481 343.091 796.373 343.209C794.263 343.327 792.144 343.585 790.489 343.925C789.664 344.094 788.937 344.287 788.381 344.5C788.104 344.606 787.853 344.724 787.649 344.854C787.455 344.978 787.253 345.146 787.138 345.372C786.992 345.659 786.908 346.005 786.85 346.354C786.79 346.707 786.751 347.106 786.711 347.511C786.63 348.337 786.544 349.218 786.306 350.042C786.069 350.859 785.691 351.583 785.052 352.109C784.416 352.633 783.466 353.008 782.002 353.032C772.726 353.185 764.969 349.249 760.013 346.02C757.525 344.398 755.787 342.988 754.852 342.319C754.631 342.161 754.422 342.022 754.26 341.947C754.216 341.927 754.161 341.906 754.102 341.891C754.047 341.877 753.95 341.857 753.836 341.878Z" fill="black"/>
</svg>
