<svg width="2001" height="2001" viewBox="0 0 2001 2001" fill="none" xmlns="http://www.w3.org/2000/svg">
<g clip-path="url(#clip0_1303_305)">
<circle cx="985.652" cy="999.328" r="827.863" fill="#080807" stroke="url(#paint0_linear_1303_305)" stroke-width="21.0385"/>
<circle cx="997.222" cy="999.328" r="934.108" fill="#080807" stroke="url(#paint1_linear_1303_305)" stroke-width="21.0385"/>
<g filter="url(#filter0_i_1303_305)">
<circle cx="1000.38" cy="1000.38" r="920.379" stroke="url(#paint2_linear_1303_305)" stroke-width="160"/>
</g>
<g filter="url(#filter1_i_1303_305)">
<circle cx="1000.38" cy="1000.38" r="994.067" stroke="#9E6E00" stroke-width="12.6231"/>
</g>
<path d="M1000.5 61C1518.26 61 1938 481.175 1938 999.5C1938 1517.83 1518.26 1938 1000.5 1938C482.739 1938 63 1517.83 63 999.5C63 481.175 482.739 61 1000.5 61Z" stroke="url(#paint3_linear_1303_305)" stroke-width="12"/>
<g filter="url(#filter2_f_1303_305)">
<path d="M1155.28 864.682C1155.37 866.162 1155.36 867.831 1155.24 869.623C1155.95 895.981 1171.9 902.992 1180.26 903.114C1160.91 904.667 1154.49 921.619 1153.7 929.901C1154.33 908.161 1135.2 902.985 1125.56 903.114C1147.8 901.48 1154.4 882.408 1155.24 869.623C1155.2 868.046 1155.21 866.4 1155.28 864.682Z" fill="white"/>
</g>
<ellipse cx="1000" cy="1000.33" rx="826.18" ry="828.326" fill="url(#paint4_radial_1303_305)"/>
<path d="M719.604 426.66C596.578 461.338 596.096 638.583 611.234 722.871L829.005 637.207C831.758 608.652 831.689 537.507 809.396 481.361C787.102 425.215 740.245 421.5 719.604 426.66Z" fill="url(#paint5_linear_1303_305)"/>
<path d="M1277.97 430.788C1211.09 450.605 1197.12 560.144 1198.49 612.437C1288.29 726.311 1472.41 934.037 1490.58 853.947C1513.28 753.834 1487.48 678.491 1472 617.597C1456.52 556.704 1361.57 406.018 1277.97 430.788Z" fill="url(#paint6_linear_1303_305)"/>
<path d="M468.81 874.59C406.059 951.378 315.372 956.125 277.873 948.901C284.066 964.726 306.152 1004.84 344.959 1038.69C323.492 1043.65 291.29 1029.06 277.873 1021.15C285.304 1111.15 371.105 1240.98 413.077 1294.65C466.666 1365.42 569.953 1439.08 663.876 1498.28C734.746 1548.06 936.142 1624.72 1174.76 1533.07C1413.38 1441.42 1632.81 1250.62 1712.69 1166.67C1738.46 1134.78 1754.72 1105.65 1763.06 1079.98C1741.59 1085.76 1699.75 1081.01 1681.52 1077.91C1720.33 1068.83 1755.49 1025.28 1768.22 1004.63C1738.29 1012.89 1621.89 975.755 1561.8 895.232C1510.19 826.081 1425.56 743.514 1385.31 709.455C1385.31 669.203 1366.73 553.609 1320.29 547.416C1283.13 542.462 1265.59 599.021 1261.46 627.92C1051.74 550.306 852.749 595.581 779.47 627.92C771.214 582.163 744.173 494.986 702.063 512.325C659.954 529.664 668.004 627.575 677.293 674.364C625.689 696.038 547.249 778.605 468.81 874.59Z" fill="url(#paint7_linear_1303_305)"/>
<path d="M468.801 1004.64C467.15 1040.97 498.388 1065.88 514.213 1073.79C557.905 1080.33 650.243 1082.05 670.059 1036.64C694.829 979.87 769.14 955.1 794.942 950.971C815.584 947.669 829.689 933.77 834.162 927.233C868.221 856.019 813.52 763.13 749.53 751.777C698.338 742.695 649.073 759.002 630.839 768.291C491.507 840.537 470.865 959.228 468.801 1004.64Z" fill="#69301F"/>
<path d="M1154.11 751.777C1013.75 738.566 951.82 850.858 938.403 908.655C919.826 995.351 1024.07 1057.28 1114.89 1052.12C1164.52 1049.3 1292.41 1085.49 1350.21 1099.59C1383.58 1095.46 1445.16 1065.74 1424.52 979.87C1398.72 872.532 1329.57 768.291 1154.11 751.777Z" fill="#69301F"/>
<path d="M709.292 575.285C705.164 576.11 705.508 582.509 706.196 585.606L716.517 637.21C717.549 641.683 720.645 650.421 724.774 649.595C728.902 648.77 727.87 640.995 726.838 637.21L715.485 585.606C715.141 581.821 713.421 574.459 709.292 575.285Z" fill="#692F1E"/>
<path d="M662.84 1033.54C505.961 987.3 480.503 1113.35 487.384 1182.16C490.48 1208.99 495.482 1224.29 505.89 1251.31C515.202 1273.47 547.451 1329.4 601.946 1375.89C652.863 1421.15 735.43 1471.15 890.932 1487.66C1216.04 1495.92 1342.99 1266.79 1357.44 1239.96C1371.89 1213.12 1406.98 1114.04 1364.66 1055.21C1322.35 996.383 1242.88 1001.54 1151.02 1043.86C1077.53 1077.71 994.486 1079.98 962.147 1076.89L914.67 1068.63C888.18 1079.64 830.451 1100 811.461 1093.4C792.47 1086.79 704.467 1050.74 662.84 1033.54Z" fill="#F0CA94"/>
<path d="M1324.04 597.895C1328.23 597.818 1328.94 603.335 1328.78 606.103L1327.11 652.021C1326.83 656.027 1325.22 664.058 1321.03 664.135C1316.84 664.212 1316.58 657.393 1316.97 653.973L1319.66 607.86C1319.37 604.57 1319.85 597.973 1324.04 597.895Z" fill="#692F1E"/>
<path d="M604.018 1137.78C606.496 1134.48 608.491 1137.78 609.179 1139.84C651.495 1253.37 783.603 1247.18 805.277 1243.05C822.616 1239.75 832.455 1240.3 835.207 1240.99C1050.91 1304.98 1237.72 1173.9 1260.43 1092.37C1266.62 1090.3 1282.1 1108.88 1286.23 1114.04C1290.36 1119.2 1300.68 1137.78 1300.68 1119.2C1300.68 1100.63 1279.01 1069.66 1253.21 1064.5C1227.4 1059.34 1210.89 1071.73 1205.73 1079.98C1200.57 1088.24 1207.79 1093.4 1219.15 1089.27C1228.23 1085.97 1240.82 1085.83 1245.98 1086.18C1147.93 1277.11 853.785 1232.73 844.496 1219.32C836.288 1207.46 827.294 1161.17 826.95 1135.72C898.165 1115.07 930.16 1056.25 933.256 1044.89C936.352 1033.54 919.839 1004.64 840.368 997.416C760.896 990.191 731.998 1008.77 719.613 1018.06C707.228 1027.35 702.067 1037.67 725.805 1072.76C744.796 1100.83 786.699 1126.43 805.277 1135.72C801.974 1158.01 808.717 1200.74 812.501 1219.32C711.769 1232.53 651.495 1177.34 633.949 1148.1C629.133 1141.22 620.119 1126.63 622.596 1123.33C625.692 1119.2 655.623 1122.3 658.719 1121.27C661.816 1120.23 654.591 1108.88 640.142 1102.69C625.692 1096.5 607.115 1102.69 594.73 1114.04C582.345 1125.4 581.312 1171.84 587.505 1173.9C593.698 1175.97 600.922 1141.91 604.018 1137.78Z" fill="#38231D"/>
<path d="M996.208 953.789C992.905 962.871 1000.34 964.454 1004.46 964.11C1006.53 962.734 1010.04 960.601 1007.56 963.078C1005.08 965.555 1006.53 966.174 1007.56 966.174C1081.87 952.757 1245.97 955.853 1264.55 958.949C1279.41 961.426 1283.53 958.669 1283.87 956.605C1288 916.354 1213.69 886.321 1121.84 887.455C1038.24 888.487 1000.34 942.436 996.208 953.789Z" fill="white"/>
<path d="M552.536 936.25C554.188 942.855 564.921 941.754 570.082 940.378C569.256 941.204 569.738 942.098 570.082 942.442C622.718 939.346 753.795 940.378 782.693 947.603C805.812 953.382 806.775 941.066 804.367 934.185C794.459 902.81 753.451 886.709 734.185 882.581C649.14 871.021 590.724 897.718 572.146 912.512C564.921 917.672 550.885 929.644 552.536 936.25Z" fill="white"/>
<path d="M552.536 936.25C554.188 942.855 564.921 941.754 570.082 940.378C611.499 910.176 641.162 902.462 650.451 900.398C659.74 898.334 704.12 894.205 694.831 900.398C685.542 906.59 677.286 932.393 676.254 936.521C675.428 939.824 677.696 940.915 678.933 941.047C724.256 941.727 767.533 943.813 782.693 947.603C805.812 953.382 806.775 941.066 804.367 934.185C794.459 902.81 753.451 886.709 734.185 882.581C649.14 871.021 590.724 897.718 572.146 912.512C564.921 917.672 550.885 929.644 552.536 936.25Z" fill="url(#paint8_linear_1303_305)"/>
<path d="M993.7 955.337C990.357 964.589 997.88 966.202 1002.06 965.851C1002.41 965.881 1003.52 965.539 1005.19 963.931C1047.98 915.537 1113.68 907.272 1122.18 906.204L1122.21 906.199C1130.57 905.148 1152.51 904.097 1146.24 908.302C1139.97 912.508 1129.52 942.997 1129.52 951.408C1129.52 958.137 1131.61 958.832 1132.66 958.339C1195.38 956.978 1254.57 958.786 1265.35 960.594C1280.39 963.118 1284.85 959.543 1285.2 957.44C1289.38 916.437 1214.15 885.843 1121.17 886.998C1036.54 888.05 997.88 943.772 993.7 955.337Z" fill="url(#paint9_linear_1303_305)"/>
</g>
<defs>
<filter id="filter0_i_1303_305" x="0" y="0" width="2000.76" height="2009.17" filterUnits="userSpaceOnUse" color-interpolation-filters="sRGB">
<feFlood flood-opacity="0" result="BackgroundImageFix"/>
<feBlend mode="normal" in="SourceGraphic" in2="BackgroundImageFix" result="shape"/>
<feColorMatrix in="SourceAlpha" type="matrix" values="0 0 0 0 0 0 0 0 0 0 0 0 0 0 0 0 0 0 127 0" result="hardAlpha"/>
<feOffset dy="8.41538"/>
<feGaussianBlur stdDeviation="4.20769"/>
<feComposite in2="hardAlpha" operator="arithmetic" k2="-1" k3="1"/>
<feColorMatrix type="matrix" values="0 0 0 0 0 0 0 0 0 0 0 0 0 0 0 0 0 0 0.25 0"/>
<feBlend mode="normal" in2="shape" result="effect1_innerShadow_1303_305"/>
</filter>
<filter id="filter1_i_1303_305" x="0" y="0" width="2000.76" height="2009.17" filterUnits="userSpaceOnUse" color-interpolation-filters="sRGB">
<feFlood flood-opacity="0" result="BackgroundImageFix"/>
<feBlend mode="normal" in="SourceGraphic" in2="BackgroundImageFix" result="shape"/>
<feColorMatrix in="SourceAlpha" type="matrix" values="0 0 0 0 0 0 0 0 0 0 0 0 0 0 0 0 0 0 127 0" result="hardAlpha"/>
<feOffset dy="8.41538"/>
<feGaussianBlur stdDeviation="4.20769"/>
<feComposite in2="hardAlpha" operator="arithmetic" k2="-1" k3="1"/>
<feColorMatrix type="matrix" values="0 0 0 0 0 0 0 0 0 0 0 0 0 0 0 0 0 0 0.25 0"/>
<feBlend mode="normal" in2="shape" result="effect1_innerShadow_1303_305"/>
</filter>
<filter id="filter2_f_1303_305" x="1121.35" y="860.474" width="63.1146" height="73.6341" filterUnits="userSpaceOnUse" color-interpolation-filters="sRGB">
<feFlood flood-opacity="0" result="BackgroundImageFix"/>
<feBlend mode="normal" in="SourceGraphic" in2="BackgroundImageFix" result="shape"/>
<feGaussianBlur stdDeviation="2.10385" result="effect1_foregroundBlur_1303_305"/>
</filter>
<linearGradient id="paint0_linear_1303_305" x1="985.652" y1="160.945" x2="985.652" y2="1837.71" gradientUnits="userSpaceOnUse">
<stop stop-color="#7B0D0D"/>
<stop offset="1" stop-color="#E11717"/>
</linearGradient>
<linearGradient id="paint1_linear_1303_305" x1="997.222" y1="54.7012" x2="997.222" y2="1943.95" gradientUnits="userSpaceOnUse">
<stop stop-color="#590000"/>
<stop offset="1" stop-color="#E11717"/>
</linearGradient>
<linearGradient id="paint2_linear_1303_305" x1="1000.38" y1="0" x2="1000.38" y2="2000.76" gradientUnits="userSpaceOnUse">
<stop stop-color="#F4CF35"/>
<stop offset="0.251292" stop-color="#F6D538"/>
<stop offset="0.43293" stop-color="#FEE34C"/>
<stop offset="0.612786" stop-color="#E0B621"/>
<stop offset="0.787301" stop-color="#D5A819"/>
<stop offset="1" stop-color="#C1900C"/>
</linearGradient>
<linearGradient id="paint3_linear_1303_305" x1="1000.5" y1="55" x2="1000.5" y2="1944" gradientUnits="userSpaceOnUse">
<stop stop-color="#9E6E00"/>
<stop offset="1" stop-color="#382700"/>
</linearGradient>
<radialGradient id="paint4_radial_1303_305" cx="0" cy="0" r="1" gradientUnits="userSpaceOnUse" gradientTransform="translate(1000 1000.33) rotate(90) scale(828.326 826.18)">
<stop offset="0.528846" stop-color="#242320"/>
<stop offset="0.735577" stop-color="#141412"/>
<stop offset="1"/>
</radialGradient>
<linearGradient id="paint5_linear_1303_305" x1="1226.36" y1="809.567" x2="1226.36" y2="-265.875" gradientUnits="userSpaceOnUse">
<stop offset="0.13693" stop-color="#67311F"/>
<stop offset="1" stop-color="#CD623E"/>
</linearGradient>
<linearGradient id="paint6_linear_1303_305" x1="1226.36" y1="809.567" x2="1226.36" y2="-265.875" gradientUnits="userSpaceOnUse">
<stop offset="0.13693" stop-color="#67311F"/>
<stop offset="1" stop-color="#CD623E"/>
</linearGradient>
<linearGradient id="paint7_linear_1303_305" x1="1023.04" y1="510.076" x2="1023.04" y2="1641.1" gradientUnits="userSpaceOnUse">
<stop offset="0.33342" stop-color="#BE3A27"/>
<stop offset="1" stop-color="#581B12"/>
</linearGradient>
<linearGradient id="paint8_linear_1303_305" x1="552.402" y1="914.429" x2="805.267" y2="914.429" gradientUnits="userSpaceOnUse">
<stop stop-color="#3A211A"/>
<stop offset="1" stop-color="#0D0B0A"/>
</linearGradient>
<linearGradient id="paint9_linear_1303_305" x1="992.867" y1="926.431" x2="1285.36" y2="926.431" gradientUnits="userSpaceOnUse">
<stop stop-color="#392019"/>
<stop offset="1" stop-color="#080808"/>
</linearGradient>
<clipPath id="clip0_1303_305">
<rect width="2000.76" height="2000.76" fill="white"/>
</clipPath>
</defs>
</svg>
