<svg width="1870" height="281" viewBox="0 0 1870 281" fill="none" xmlns="http://www.w3.org/2000/svg">
<path d="M20.4258 278V20.1875H98.9414L120.621 177.365L142.154 20.1875H221.402V278H174.234V92.2578L144.645 278H98.3555L67.0078 92.2578V278H20.4258Z" fill="black"/>
<path d="M275.455 278V193.186L234.293 49.4844H285.416L299.771 136.936L314.127 49.4844H365.104L324.088 193.186V278H275.455Z" fill="black"/>
<path d="M400.26 278V98.9961H369.645V49.4844H482.438V98.9961H451.822V278H400.26Z" fill="black"/>
<path d="M496.793 278V49.4844H548.062V130.637H572.379V49.4844H623.648V278H572.379V179.416H548.062V278H496.793Z" fill="black"/>
<path d="M644.156 278V49.4844H693.961V278H644.156Z" fill="black"/>
<path d="M774.527 280.344C755.875 280.344 740.836 274.533 729.41 262.912C718.082 251.291 712.418 235.031 712.418 214.133V124.484C712.418 99.4844 717.35 80.3438 727.213 67.0625C737.174 53.7812 753.336 47.1406 775.699 47.1406C787.906 47.1406 798.746 49.3867 808.219 53.8789C817.789 58.3711 825.309 65.1094 830.777 74.0938C836.246 82.9805 838.98 94.2109 838.98 107.785V148.801H787.711V112.766C787.711 105.051 786.734 99.875 784.781 97.2383C782.828 94.5039 779.801 93.1367 775.699 93.1367C770.914 93.1367 767.691 94.8945 766.031 98.4102C764.371 101.828 763.541 106.418 763.541 112.18V214.865C763.541 221.994 764.566 227.023 766.617 229.953C768.766 232.883 771.793 234.348 775.699 234.348C780.094 234.348 783.17 232.541 784.928 228.928C786.783 225.314 787.711 220.627 787.711 214.865V181.613H839.566V215.744C839.566 238.4 833.854 254.855 822.428 265.109C811.002 275.266 795.035 280.344 774.527 280.344Z" fill="black"/>
<path d="M849.82 278L874.723 49.4844H962.174L986.637 278H937.857L934.488 236.398H902.848L899.918 278H849.82ZM916.617 90.5L907.096 195.236H929.654L918.961 90.5H916.617Z" fill="black"/>
<path d="M1002.46 278V49.4844H1054.02V234.055H1107.05V278H1002.46Z" fill="black"/>
<path d="M1192.01 278V20.1875H1270.52L1292.2 177.365L1313.74 20.1875H1392.98V278H1345.82V92.2578L1316.23 278H1269.94L1238.59 92.2578V278H1192.01Z" fill="black"/>
<path d="M1415.84 278V20.1875H1518.96V69.9922H1468.28V120.236H1516.91V168.723H1468.28V227.756H1522.33V278H1415.84Z" fill="black"/>
<path d="M1539.47 278V20.1875H1617.98L1639.66 177.365L1661.2 20.1875H1740.45V278H1693.28V92.2578L1663.69 278H1617.4L1586.05 92.2578V278H1539.47Z" fill="black"/>
<path d="M1763.3 278V20.1875H1866.42V69.9922H1815.74V120.236H1864.37V168.723H1815.74V227.756H1869.79V278H1763.3Z" fill="black"/>
<path d="M0.425781 258V0.1875H78.9414L100.621 157.365L122.154 0.1875H201.402V258H154.234V72.2578L124.645 258H78.3555L47.0078 72.2578V258H0.425781Z" fill="white"/>
<path d="M255.455 258V173.186L214.293 29.4844H265.416L279.771 116.936L294.127 29.4844H345.104L304.088 173.186V258H255.455Z" fill="white"/>
<path d="M380.26 258V78.9961H349.645V29.4844H462.438V78.9961H431.822V258H380.26Z" fill="white"/>
<path d="M476.793 258V29.4844H528.062V110.637H552.379V29.4844H603.648V258H552.379V159.416H528.062V258H476.793Z" fill="white"/>
<path d="M624.156 258V29.4844H673.961V258H624.156Z" fill="white"/>
<path d="M754.527 260.344C735.875 260.344 720.836 254.533 709.41 242.912C698.082 231.291 692.418 215.031 692.418 194.133V104.484C692.418 79.4844 697.35 60.3438 707.213 47.0625C717.174 33.7812 733.336 27.1406 755.699 27.1406C767.906 27.1406 778.746 29.3867 788.219 33.8789C797.789 38.3711 805.309 45.1094 810.777 54.0938C816.246 62.9805 818.98 74.2109 818.98 87.7852V128.801H767.711V92.7656C767.711 85.0508 766.734 79.875 764.781 77.2383C762.828 74.5039 759.801 73.1367 755.699 73.1367C750.914 73.1367 747.691 74.8945 746.031 78.4102C744.371 81.8281 743.541 86.418 743.541 92.1797V194.865C743.541 201.994 744.566 207.023 746.617 209.953C748.766 212.883 751.793 214.348 755.699 214.348C760.094 214.348 763.17 212.541 764.928 208.928C766.783 205.314 767.711 200.627 767.711 194.865V161.613H819.566V195.744C819.566 218.4 813.854 234.855 802.428 245.109C791.002 255.266 775.035 260.344 754.527 260.344Z" fill="white"/>
<path d="M829.82 258L854.723 29.4844H942.174L966.637 258H917.857L914.488 216.398H882.848L879.918 258H829.82ZM896.617 70.5L887.096 175.236H909.654L898.961 70.5H896.617Z" fill="white"/>
<path d="M982.457 258V29.4844H1034.02V214.055H1087.05V258H982.457Z" fill="white"/>
<path d="M1172.01 258V0.1875H1250.52L1272.2 157.365L1293.74 0.1875H1372.98V258H1325.82V72.2578L1296.23 258H1249.94L1218.59 72.2578V258H1172.01Z" fill="white"/>
<path d="M1395.84 258V0.1875H1498.96V49.9922H1448.28V100.236H1496.91V148.723H1448.28V207.756H1502.33V258H1395.84Z" fill="white"/>
<path d="M1519.47 258V0.1875H1597.98L1619.66 157.365L1641.2 0.1875H1720.45V258H1673.28V72.2578L1643.69 258H1597.4L1566.05 72.2578V258H1519.47Z" fill="white"/>
<path d="M1743.3 258V0.1875H1846.42V49.9922H1795.74V100.236H1844.37V148.723H1795.74V207.756H1849.79V258H1743.3Z" fill="white"/>
</svg>
