<svg width="1849" height="2472" viewBox="0 0 1849 2472" fill="none" xmlns="http://www.w3.org/2000/svg">
<ellipse cx="951" cy="2423" rx="514" ry="49" fill="black" fill-opacity="0.34"/>
<path d="M213.565 414.421C206.369 379.675 229.415 376.098 241.838 378.653C276.793 380.697 305.236 406.756 315.087 419.531C319.371 427.195 324.597 445.846 311.232 459.131C297.867 472.416 280.818 500.434 273.964 512.783C280.818 512.357 303.264 511.25 338.219 510.228C381.913 508.95 447.453 500.008 470.585 487.234C493.716 474.46 509.138 493.621 529.699 512.783C550.261 531.944 539.98 561.325 534.84 566.434C529.699 571.544 507.852 606.035 502.712 626.473C497.572 646.912 437.172 755.493 433.317 764.435C429.461 773.377 425.606 766.99 460.304 804.035C495.001 841.081 464.159 887.068 453.878 897.287C443.597 907.507 426.891 903.675 415.325 896.01C403.759 888.346 387.053 858.965 379.342 852.578C373.174 847.468 366.491 851.3 363.921 853.855C300.18 930.501 175.439 989.688 121.037 1009.7C105.616 1016.94 71.9459 1028.1 60.6371 1014.81C49.3282 1001.53 67.0626 988.836 77.3434 984.152C169.871 946.341 278.676 834.694 321.513 783.597C298.381 746.551 214.849 689.067 204.568 681.403C194.288 673.738 205.854 653.299 213.565 650.745C219.735 648.701 236.697 653.299 244.407 655.854C308.662 672.461 343.359 703.119 353.64 710.784C363.921 718.448 365.206 718.448 366.491 718.448C381.913 714.36 415.754 628.177 430.746 585.596V566.434C385.768 573.247 289.642 585.851 264.968 581.764C240.294 577.676 224.702 587.725 219.99 593.26C186.577 629.028 38.7914 768.268 19.5149 758.048C4.09363 749.873 13.0893 733.351 19.5149 726.113C74.7742 696.732 222.561 457.853 213.565 414.421Z" fill="white"/>
<path d="M472.701 1061.52C454.319 1055.41 415.684 1069.17 398.664 1076.81C344.932 1084.9 216.301 1085.3 157.405 1084.47L106.345 1081.91C54.2637 1081.91 84.6444 1144.75 106.345 1176.17C111.876 1179.99 124.982 1186.87 133.151 1183.81C141.321 1180.76 168.893 1174.05 181.658 1171.07C254.164 1158.85 359.092 1149.84 402.493 1146.87C402.493 1176.17 353.986 1270.43 351.433 1278.08C348.88 1285.72 334.839 1298.46 318.244 1285.72C301.65 1272.98 217.401 1243.68 209.742 1244.96C202.083 1246.23 191.871 1265.34 217.401 1285.72C237.825 1302.03 277.822 1340.92 295.267 1358.33C242.165 1443.93 117.408 1529.03 61.6674 1560.87C45.4984 1568.09 15.2028 1586.6 23.3724 1602.91C31.542 1619.21 71.8794 1607.15 91.027 1599.09C199.274 1568.51 316.542 1466.61 361.645 1419.47C394.834 1442.4 420.364 1499.73 449.724 1513.74C479.083 1527.75 503.337 1504.82 505.89 1460.24C507.932 1424.57 442.916 1367.25 410.152 1343.04C422.407 1329.8 469.722 1239.01 491.848 1195.28C495.252 1185.94 507.166 1161.39 527.59 1137.95C553.12 1108.66 495.678 1069.17 472.701 1061.52Z" fill="white"/>
<path d="M172.203 1698.23C136.551 1670.42 159.894 1654.02 176.022 1649.29C202.506 1645.17 243.081 1651.87 260.057 1655.73C271.092 1658.31 291.379 1669.64 284.249 1694.37C277.119 1719.1 285.522 1763.92 290.616 1783.23C310.139 1779.8 358.353 1770.1 395.023 1758.76C440.86 1744.6 459.959 1749.75 482.878 1788.39C505.796 1827.02 459.959 1843.76 430.674 1842.48C407.246 1841.45 337.726 1853.21 305.895 1859.22C308.017 1885.84 314.298 1941.9 322.447 1953.23C338.999 1953.23 435.767 1926.19 486.697 1914.6C537.628 1903.01 551.633 1964.83 552.907 1976.42C554.18 1988.01 542.721 2011.19 499.43 2011.19C456.139 2011.19 338.999 2024.07 336.453 2030.51C333.906 2036.95 354.279 2169.6 365.738 2209.52C377.197 2249.45 351.732 2276.49 344.092 2281.64C336.453 2286.8 316.081 2289.37 296.982 2277.78C281.703 2268.51 273.639 2249.88 271.517 2241.72C265.15 2179.04 250.381 2052.66 242.232 2048.54C232.046 2043.39 126.365 2078.16 114.906 2079.45C103.447 2080.73 72.8884 2102.63 52.5163 2097.48C32.1442 2092.33 2.85917 2054.98 0.312653 2030.51C-2.23386 2006.04 10.4987 2003.46 48.6964 2003.46C79.2546 2003.46 184.511 1982.86 233.319 1972.55L216.767 1878.54C193.423 1883.69 138.843 1895.54 107.266 1901.72C67.7954 1909.45 44.8767 1912.02 23.2313 1884.98C1.58593 1857.93 -11.1467 1823.16 55.0627 1821.87C108.03 1820.84 175.598 1806.85 202.761 1799.98C195.63 1728.89 179.418 1702.53 172.203 1698.23Z" fill="white"/>
<path d="M593.279 330.064C486.793 325.968 378.259 380.121 337.303 407.71C315.46 416.583 328.202 448.95 337.303 464.025L406.417 525.459L525.019 580.92L804.886 665.392C957.106 730.24 1346.7 769.205 1522.47 780.582L1613.77 772.049C1676.34 781.435 1763.94 753.96 1613.77 568.975C1426.05 337.743 726.387 335.183 593.279 330.064Z" fill="#6A3608"/>
<path d="M1073.96 732.943C501.252 650.348 327.359 493.179 312 424.918L324.799 413.119L339.304 407C322.239 433.622 353.809 468.15 371.728 482.086C490.33 578.504 776.17 653.59 1103.82 720.997C1431.47 788.404 1569.7 773.899 1642.22 767.073C1700.24 761.612 1699.96 727.255 1692.56 710.758L1713.9 744.035C1662.02 836.187 1265.65 775.037 1073.96 732.943Z" fill="#AB6816"/>
<path d="M1837.15 1734.5C1874.15 1508 1812.65 1452.5 1738.15 1361.5C1701.37 1324 1664.52 1302 1629.5 1290.77C1497.1 1264.19 1434.9 1337.52 1420.35 1377.5C1383.98 1496.27 1309.01 1552.58 1272.65 1566.5C1192.81 1685.17 1073.05 1943.6 1232.65 2028C1432.15 2133.5 1800.15 1961 1837.15 1734.5Z" fill="url(#paint0_linear_1217_657)"/>
<path d="M1496 2043C1543.2 1858.6 1412.33 1693.16 1341 1633.5C1341 1630.3 1360 1562.16 1369.5 1528.5C1450.83 1581.83 1613.2 1750.1 1612 1996.5C1578.4 2018.9 1520.67 2036.83 1496 2043Z" fill="#68291A"/>
<path d="M1316 2055C1328.4 2032.6 1328.5 1888 1327 1818.5C1299.8 1826.9 1252.67 1959.17 1231 2027L1231.84 2027.42C1248.74 2035.88 1271.24 2047.13 1316 2055Z" fill="#68291A"/>
<path d="M1839.5 1722C1734.7 1439.2 1527.67 1374 1421 1376L1380 1470.5C1498.38 1471.67 1730.31 1557.28 1770 1872.5C1830.5 1795 1831.83 1751.33 1839.5 1722Z" fill="#68291A"/>
<path d="M707.5 2304.5L686 2241C727.5 2225.33 823 2203.4 873 2241L866 2321C864 2392.2 813.833 2409.33 789 2409C756.333 2412.17 676.9 2418.7 620.5 2419.5C564.1 2420.3 552.333 2396.17 553.5 2384C561.9 2302.8 659.667 2297.17 707.5 2304.5Z" fill="#63271C"/>
<path d="M1046.5 2375.5L1008.5 2241C1032.5 2190.2 1144.83 2217.5 1198 2237.5L1191.5 2304.5C1275.74 2293.6 1309.89 2339.17 1319.25 2351.67L1319.5 2352C1328.5 2364 1344 2402 1300.5 2415C1257 2428 1133 2412 1094.5 2412.5C1063.7 2412.9 1049.67 2388 1046.5 2375.5Z" fill="#63271C"/>
<path d="M436.5 1517C512.5 1155.8 639.833 1002.83 694 971.5C702.91 963.881 712.803 955.984 723.559 948L479 1522.5H478C470.4 1519.3 447.167 1517.5 436.5 1517Z" fill="url(#paint1_linear_1217_657)"/>
<path d="M418.772 1761.5C371.172 1726.3 412.704 1577.67 438.538 1510.5C449.204 1511 472.437 1512.8 480.037 1516L479.272 1790.5C454.872 1789.7 428.772 1770.83 418.772 1761.5Z" fill="#68291A"/>
<path d="M412.011 1723C405.611 1693 406.678 1712.5 408.011 1726C410.511 1747.5 424.512 1768 428.512 1772C432.512 1776 437.012 1780 437.512 1775.5C438.012 1771 420.011 1760.5 412.011 1723Z" fill="#37241E"/>
<path d="M446.512 1715.5C443.312 1693.5 443.178 1709.67 443.512 1720.5C443.593 1731.5 454.012 1768 464.512 1779C472.912 1787.8 472.012 1779 470.512 1773.5C463.845 1763.33 449.712 1737.5 446.512 1715.5Z" fill="#37241E"/>
<path d="M412.011 1723C405.611 1693 406.678 1712.5 408.011 1726C410.511 1747.5 424.512 1768 428.512 1772C432.512 1776 437.012 1780 437.512 1775.5C438.012 1771 420.011 1760.5 412.011 1723Z" stroke="#3E211D"/>
<path d="M446.512 1715.5C443.312 1693.5 443.178 1709.67 443.512 1720.5C443.593 1731.5 454.012 1768 464.512 1779C472.912 1787.8 472.012 1779 470.512 1773.5C463.845 1763.33 449.712 1737.5 446.512 1715.5Z" stroke="#3E211D"/>
<path d="M1268 939.5C1096.56 747.781 850.214 853.98 723.559 948C674 1046.5 537 1200.5 467 1556.5C458.167 1610.17 451.6 1740.6 496 1833C551.5 1948.5 565.5 1984.5 582.5 2017.5C599.5 2050.5 676 2202.5 686 2241C743 2244.17 860.2 2248.6 873 2241L898.5 2056.5C914.833 2056.83 949.3 2056.7 956.5 2053.5L1008.5 2241C1055.5 2248 1159.2 2257.1 1198 2237.5C1200.5 2193.33 1222.1 2066.3 1288.5 1911.5C1323 1856.67 1384.3 1690.6 1353.5 1465C1322.7 1239.4 1283.67 1020.67 1268 939.5Z" fill="url(#paint2_linear_1217_657)"/>
<path d="M994.5 1082.5C850.791 998.273 712.5 1105.33 665.5 1161.5C593.001 1240.5 572 1330.5 524.5 1546.5C477 1762.5 610.5 1885.5 662 1921.5C713.5 1957.5 933.5 2027.5 1055 1896C1152.2 1790.8 1118.5 1604.17 1089.5 1524C1021.5 1281 1174.5 1188 994.5 1082.5Z" fill="#EFCA95"/>
<path d="M1183.5 1618C1185.5 1552.4 1151.67 1273.33 1134.5 1142C1116.1 1054.8 1216.17 970.333 1268.5 939C1375.7 1083.8 1393.17 1430 1388.5 1585L1183.5 1618Z" fill="url(#paint3_radial_1217_657)"/>
<path d="M764.564 156.298C669.716 183.034 669.345 319.683 681.015 384.666L848.909 318.622C851.031 296.607 850.978 241.757 833.791 198.47C816.604 155.184 780.479 152.319 764.564 156.298Z" fill="url(#paint4_linear_1217_657)"/>
<path d="M1195.04 159.481C1143.48 174.758 1132.71 259.209 1133.77 299.525C1203 387.318 1344.95 547.467 1358.96 485.72C1376.46 408.537 1356.57 350.45 1344.63 303.504C1332.7 256.557 1259.49 140.384 1195.04 159.481Z" fill="url(#paint5_linear_1217_657)"/>
<path d="M571.206 501.635C522.827 560.836 452.911 564.496 424 558.926C428.774 571.127 445.802 602.053 475.721 628.152C459.17 631.972 434.344 620.726 424 614.625C429.729 684.011 495.879 784.111 528.238 825.488C569.553 880.045 649.183 936.835 721.594 982.48C776.233 1020.86 931.502 1079.95 1115.47 1009.3C1299.44 938.637 1468.6 791.537 1530.19 726.82C1550.06 702.232 1562.6 679.772 1569.02 659.981C1552.47 664.437 1520.22 660.776 1506.16 658.389C1536.08 651.387 1563.19 617.808 1573 601.894C1549.92 608.26 1460.19 579.63 1413.86 517.549C1374.07 464.237 1308.83 400.58 1277.79 374.322C1277.79 343.29 1263.47 254.17 1227.66 249.396C1199.02 245.577 1185.49 289.182 1182.31 311.461C1020.62 251.624 867.208 286.529 810.713 311.461C804.348 276.185 783.5 208.974 751.035 222.342C718.57 235.71 724.777 311.196 731.938 347.268C692.153 363.978 631.679 427.634 571.206 501.635Z" fill="url(#paint6_linear_1217_657)"/>
<path d="M571.205 601.893C569.932 629.902 594.015 649.105 606.216 655.206C639.901 660.245 711.09 661.571 726.367 626.56C745.464 582.797 802.755 563.7 822.648 560.517C838.562 557.97 849.436 547.255 852.884 542.215C879.143 487.312 836.97 415.698 787.637 406.945C748.17 399.943 710.188 412.515 696.13 419.677C588.71 475.376 572.796 566.882 571.205 601.893Z" fill="#69301F"/>
<path d="M1099.55 406.945C991.337 396.76 943.595 483.333 933.251 527.893C918.928 594.732 999.294 642.474 1069.32 638.496C1107.58 636.322 1206.18 664.224 1250.74 675.098C1276.47 671.916 1323.94 648.999 1308.03 582.797C1288.14 500.043 1234.82 419.677 1099.55 406.945Z" fill="#69301F"/>
<path d="M756.606 270.879C753.423 271.516 753.688 276.449 754.219 278.837L762.176 318.622C762.971 322.07 765.359 328.807 768.541 328.17C771.724 327.534 770.929 321.539 770.133 318.622L761.38 278.837C761.115 275.919 759.789 270.243 756.606 270.879Z" fill="#692F1E"/>
<path d="M720.8 624.174C599.852 588.526 580.225 685.708 585.529 738.755C587.917 759.444 591.773 771.239 599.797 792.068C606.977 809.151 631.84 852.276 673.853 888.112C713.108 923.006 776.764 961.553 896.651 974.284C1147.3 980.65 1245.17 804.003 1256.31 783.315C1267.45 762.626 1294.5 686.239 1261.88 640.883C1229.26 595.528 1167.99 599.507 1097.17 632.131C1040.51 658.23 976.486 659.98 951.554 657.593L914.952 651.228C894.529 659.715 850.022 675.417 835.381 670.325C820.74 665.232 752.893 637.435 720.8 624.174Z" fill="#F0CA94"/>
<path d="M1230.56 288.313C1233.79 288.253 1234.34 292.506 1234.21 294.641L1232.93 330.042C1232.71 333.13 1231.47 339.321 1228.24 339.381C1225.01 339.44 1224.81 334.183 1225.11 331.547L1227.18 295.995C1226.96 293.459 1227.33 288.372 1230.56 288.313Z" fill="#692F1E"/>
<path d="M675.445 704.54C677.354 701.993 678.893 704.54 679.423 706.131C712.047 793.659 813.897 788.884 830.607 785.702C843.975 783.155 851.561 783.58 853.683 784.11C1019.99 833.444 1164.01 732.389 1181.51 669.529C1186.29 667.937 1198.22 682.26 1201.41 686.238C1204.59 690.217 1212.55 704.54 1212.55 690.217C1212.55 675.894 1195.84 652.023 1175.94 648.044C1156.05 644.066 1143.32 653.614 1139.34 659.98C1135.36 666.346 1140.93 670.324 1149.69 667.141C1156.69 664.595 1166.4 664.489 1170.37 664.754C1094.78 811.96 868.005 777.745 860.844 767.4C854.516 758.26 847.582 722.576 847.317 702.948C902.221 687.034 926.888 641.679 929.275 632.926C931.662 624.173 918.931 601.893 857.661 596.324C796.392 590.754 774.112 605.076 764.564 612.238C755.015 619.399 751.037 627.356 769.338 654.41C783.979 676.053 816.284 695.787 830.607 702.948C828.061 720.135 833.26 753.078 836.177 767.4C758.516 777.585 712.047 735.042 698.52 712.497C694.807 707.192 687.857 695.946 689.767 693.4C692.154 690.217 715.23 692.604 717.617 691.808C720.004 691.013 714.434 682.26 703.294 677.486C692.154 672.711 677.832 677.486 668.283 686.238C658.735 694.991 657.939 730.798 662.713 732.389C667.487 733.981 673.057 707.722 675.445 704.54Z" fill="#38231D"/>
<path d="M977.814 562.695C975.268 569.697 980.997 570.917 984.18 570.652C985.771 569.591 988.477 567.947 986.567 569.856C984.658 571.766 985.772 572.244 986.567 572.244C1043.86 561.899 1170.38 564.286 1184.7 566.674C1196.16 568.583 1199.55 565.878 1199.82 564.286C1203 533.254 1145.71 510.1 1074.89 510.974C1010.44 511.77 980.997 553.942 977.814 562.695Z" fill="white"/>
<path d="M635.759 549.167C637.033 554.259 645.308 553.411 649.286 552.35C648.65 552.986 649.021 553.676 649.286 553.941C689.867 551.554 790.922 552.35 813.202 557.92C831.026 562.376 831.769 552.88 829.912 547.576C822.273 523.386 790.657 510.973 775.804 507.79C710.238 498.878 665.201 519.461 650.878 530.866C645.308 534.844 634.486 544.074 635.759 549.167Z" fill="white"/>
<path d="M635.759 549.167C637.033 554.259 645.308 553.411 649.286 552.35C681.218 529.065 704.087 523.118 711.248 521.526C718.41 519.935 752.625 516.752 745.464 521.526C738.302 526.301 731.937 546.193 731.141 549.376C730.504 551.922 732.253 552.763 733.207 552.866C768.149 553.39 801.514 554.998 813.202 557.92C831.026 562.376 831.769 552.88 829.912 547.576C822.273 523.386 790.657 510.973 775.804 507.79C710.238 498.878 665.201 519.461 650.878 530.866C645.308 534.844 634.486 544.074 635.759 549.167Z" fill="url(#paint7_linear_1217_657)"/>
<path d="M977.814 562.695C975.268 569.697 980.997 570.917 984.18 570.652C984.445 570.675 985.294 570.416 986.567 569.199C1019.15 532.573 1069.19 526.318 1075.66 525.509L1075.69 525.506C1082.05 524.71 1098.76 523.915 1093.99 527.097C1089.21 530.28 1081.26 553.356 1081.26 559.721C1081.26 564.814 1082.85 565.34 1083.64 564.967C1131.41 563.937 1176.49 565.305 1184.7 566.674C1196.16 568.583 1199.55 565.878 1199.82 564.286C1203 533.254 1145.71 510.1 1074.89 510.974C1010.44 511.77 980.997 553.942 977.814 562.695Z" fill="url(#paint8_linear_1217_657)"/>
<path d="M1250.19 1573.19C1192.14 1579.17 1181.7 1622.35 1183.73 1643.2V1743.79C1183.73 1770.98 1160 1857.31 1288.16 1836.91C1416.32 1816.52 1389.87 1607.17 1386.48 1585.42C1383.09 1563.67 1322.74 1565.71 1250.19 1573.19Z" fill="#68291A"/>
<path d="M741.944 1628.34C732.254 1610.63 734.542 1624.99 736.897 1634.38C740.128 1644.85 750.355 1661.56 755.065 1668.61C749.009 1677.67 743.962 1718.94 748 1716.93C751.23 1715.32 761.458 1690.09 766.169 1677.67C768.524 1680.35 777.07 1686.93 792.413 1691.76C807.756 1696.59 802.844 1691.09 798.47 1687.74L770.206 1663.58C773.235 1654.52 792.413 1634.38 797.46 1624.32C802.507 1614.25 797.46 1618.28 792.413 1622.3C788.376 1625.53 769.87 1645.79 761.122 1655.52C758.767 1653.85 751.634 1646.06 741.944 1628.34Z" fill="#672E1D"/>
<path d="M683.008 2002.02C704.07 2052.67 831.296 2085.78 892.277 2096L899.702 2056.01C911.583 2057.61 942.456 2056.67 956.407 2056.01C956.407 2061.34 961.358 2079.56 963.833 2088C1013.11 2083.34 1062.39 2043.34 1065.09 2042.01C1067.25 2040.94 1065.99 2038.01 1065.09 2036.68C1069.14 2033.79 1076.43 2027.61 1073.19 2026.01C1069.14 2024.01 1042.14 2032.68 1034.04 2032.68C1025.94 2032.68 1025.94 2034.68 1019.19 2032.68C1012.44 2030.68 1004.34 2040.68 932.78 2049.34C861.224 2058.01 729.587 2017.35 705.96 2005.35C687.059 1995.75 682.783 1999.13 683.008 2002.02Z" fill="black" fill-opacity="0.28"/>
<g filter="url(#filter0_f_1217_657)">
<path d="M1327.5 1822.5C1327.3 1823.04 1327.1 1823.6 1326.89 1824.17C1319.32 1844.99 1247.78 2051.38 1391 2059.5C1329.4 2065.1 1266.33 2044.83 1242.5 2034C1248 2013 1263.3 1963.1 1280.5 1931.5C1297.3 1900.64 1318.01 1848.18 1326.89 1824.17C1327.24 1823.18 1327.46 1822.61 1327.5 1822.5Z" fill="black" fill-opacity="0.18"/>
<path d="M1388 1453.5C1391 1684.5 1397 1704 1365 1781C1441 1652.2 1388.86 1511.5 1421 1376.5L1388 1453.5Z" fill="black" fill-opacity="0.18"/>
</g>
<path d="M1261.15 1724.21C1261.16 1741.86 1243.71 1803.92 1234.98 1832.75C1255.94 1831.32 1269.51 1751.21 1268.05 1729.76C1265.56 1693.35 1261.15 1702.16 1261.15 1724.21Z" fill="#37231C"/>
<path d="M1322.32 1731.9C1322.32 1749.54 1304.87 1811.61 1296.15 1840.44C1317.1 1839 1329.05 1758.95 1329.21 1737.44C1329.42 1711.04 1322.32 1709.85 1322.32 1731.9Z" fill="#37231C"/>
<g filter="url(#filter1_f_1217_657)">
<path d="M1494 589C1451.5 572 930.5 429 613.5 452C621.451 443.385 657.31 404.393 682 382.5L676.001 339L757.755 272.123H1207.03C1275.23 334.05 1389.72 456.784 1417 515C1439.83 563.716 1512.33 594.271 1553.55 601.776L1573.5 603.5C1568.44 603.827 1561.59 603.24 1553.55 601.776L1533 600L1494 589Z" fill="black" fill-opacity="0.33"/>
</g>
<path d="M650.742 343.717C473.265 337.573 350.965 395.765 312 425.629C312 418.993 314.347 412.59 318.382 406.502C353.401 342.622 540.847 199.148 1098.7 6.67979C1125.72 -1.85274 1187.44 -9.02007 1218.16 30.5709C1387.94 194.09 1713.84 551.426 1715.56 723.339C1718.04 733.091 1717.21 739.896 1713.9 744.746L1690 708.909C1497.17 454.64 872.588 351.396 650.742 343.717Z" fill="#DC9426"/>
<path d="M650.742 343.716C473.265 337.573 350.965 395.765 312 425.629C312 390.135 379.123 361.351 412.684 351.396C684.019 237.911 1550.07 452.931 1690 672.219C1716.29 713.413 1721.29 733.938 1713.9 744.746L1690 708.909C1497.17 454.639 872.588 351.396 650.742 343.716Z" fill="#AB6816"/>
<path d="M1099.98 22.123C1093.16 25.4391 1085.88 29.0219 1078.2 32.8445C1007.01 72.6929 789.508 212.8 675 287.492C735.998 213.66 956.776 93.2835 1078.2 32.8445C1089.42 26.5637 1097 22.7737 1099.98 22.123Z" fill="#A0500B"/>
<path d="M1137.53 34.0689C1080.07 123.379 964.805 305.411 963.439 319.064C1015.21 247.388 1122.51 90.0439 1137.53 34.0689Z" fill="#A0500B"/>
<path d="M1248.46 387.326C1240.27 379.817 1196.12 153.243 1175.07 40.8952C1171.99 24.5122 1218.17 223.497 1241.64 325.037C1247.33 348.928 1256.66 394.835 1248.46 387.326Z" fill="#A0500B"/>
<path d="M1508.21 498.297C1483.42 454.848 1299.24 187.243 1206.65 53.6943C1189.58 21.2698 1394.39 295.172 1434.5 360.021C1462.72 405.643 1496 473.225 1508.21 498.297C1509.23 500.097 1509.99 501.513 1510.45 502.518C1514.75 511.879 1513.35 508.863 1508.21 498.297Z" fill="#A0500B"/>
<defs>
<filter id="filter0_f_1217_657" x="1236.5" y="1370.5" width="190.5" height="695.96" filterUnits="userSpaceOnUse" color-interpolation-filters="sRGB">
<feFlood flood-opacity="0" result="BackgroundImageFix"/>
<feBlend mode="normal" in="SourceGraphic" in2="BackgroundImageFix" result="shape"/>
<feGaussianBlur stdDeviation="3" result="effect1_foregroundBlur_1217_657"/>
</filter>
<filter id="filter1_f_1217_657" x="605.5" y="264.123" width="976" height="347.465" filterUnits="userSpaceOnUse" color-interpolation-filters="sRGB">
<feFlood flood-opacity="0" result="BackgroundImageFix"/>
<feBlend mode="normal" in="SourceGraphic" in2="BackgroundImageFix" result="shape"/>
<feGaussianBlur stdDeviation="4" result="effect1_foregroundBlur_1217_657"/>
</filter>
<linearGradient id="paint0_linear_1217_657" x1="1432" y1="1096.5" x2="1692" y2="1992" gradientUnits="userSpaceOnUse">
<stop offset="0.44164" stop-color="#BD3A26"/>
<stop offset="1" stop-color="#6A2216"/>
</linearGradient>
<linearGradient id="paint1_linear_1217_657" x1="496" y1="1432" x2="406.5" y2="1444.5" gradientUnits="userSpaceOnUse">
<stop stop-color="#BE3A25"/>
<stop offset="1" stop-color="#A73224"/>
</linearGradient>
<linearGradient id="paint2_linear_1217_657" x1="911.241" y1="832.553" x2="911.241" y2="2249.33" gradientUnits="userSpaceOnUse">
<stop stop-color="#BE3926"/>
<stop offset="1" stop-color="#85291C"/>
</linearGradient>
<radialGradient id="paint3_radial_1217_657" cx="0" cy="0" r="1" gradientUnits="userSpaceOnUse" gradientTransform="translate(1178.5 1424.5) rotate(-87.1024) scale(365.968 141.36)">
<stop stop-color="#6B2D1E"/>
<stop offset="1" stop-color="#B53826"/>
</radialGradient>
<linearGradient id="paint4_linear_1217_657" x1="1155.26" y1="451.505" x2="1155.26" y2="-377.621" gradientUnits="userSpaceOnUse">
<stop offset="0.13693" stop-color="#67311F"/>
<stop offset="1" stop-color="#CD623E"/>
</linearGradient>
<linearGradient id="paint5_linear_1217_657" x1="1155.26" y1="451.505" x2="1155.26" y2="-377.621" gradientUnits="userSpaceOnUse">
<stop offset="0.13693" stop-color="#67311F"/>
<stop offset="1" stop-color="#CD623E"/>
</linearGradient>
<linearGradient id="paint6_linear_1217_657" x1="998.5" y1="220.608" x2="998.5" y2="1092.59" gradientUnits="userSpaceOnUse">
<stop offset="0.33342" stop-color="#BE3A27"/>
<stop offset="1" stop-color="#581B12"/>
</linearGradient>
<linearGradient id="paint7_linear_1217_657" x1="635.656" y1="532.344" x2="830.606" y2="532.344" gradientUnits="userSpaceOnUse">
<stop stop-color="#3A211A"/>
<stop offset="1" stop-color="#0D0B0A"/>
</linearGradient>
<linearGradient id="paint8_linear_1217_657" x1="977.18" y1="540.818" x2="1199.94" y2="540.818" gradientUnits="userSpaceOnUse">
<stop stop-color="#392019"/>
<stop offset="1" stop-color="#080808"/>
</linearGradient>
</defs>
</svg>
