<svg width="1149" height="888" viewBox="0 0 1149 888" fill="none" xmlns="http://www.w3.org/2000/svg">
<path d="M340.564 1.2979C245.716 28.0336 245.345 164.683 257.015 229.666L424.909 163.622C427.031 141.607 426.978 86.7568 409.791 43.4703C392.604 0.183904 356.479 -2.68064 340.564 1.2979Z" fill="url(#paint0_linear_1273_624)"/>
<path d="M771.042 4.4807C719.48 19.7583 708.711 104.209 709.772 144.525C778.999 232.318 920.953 392.467 934.957 330.72C952.463 253.537 932.57 195.45 920.634 148.504C908.699 101.557 835.494 -14.6162 771.042 4.4807Z" fill="url(#paint1_linear_1273_624)"/>
<path d="M147.206 346.634C98.8267 405.835 28.9107 409.495 0 403.925C4.77424 416.126 21.8024 447.052 51.7209 473.151C35.1702 476.971 10.3442 465.725 0 459.624C5.72909 529.01 71.8788 629.11 104.238 670.487C145.553 725.044 225.183 781.834 297.594 827.479C352.233 865.858 507.502 924.954 691.469 854.295C875.436 783.636 1044.6 636.536 1106.19 571.819C1126.06 547.231 1138.6 524.771 1145.02 504.98C1128.47 509.436 1096.22 505.775 1082.16 503.388C1112.08 496.386 1139.19 462.807 1149 446.893C1125.92 453.259 1036.19 424.629 989.859 362.548C950.073 309.236 884.826 245.579 853.793 219.321C853.793 188.289 839.47 99.1695 803.663 94.3952C775.018 90.5759 761.491 134.181 758.308 156.46C596.621 96.6233 443.208 131.528 386.713 156.46C380.348 121.184 359.5 53.9734 327.035 67.3412C294.57 80.7091 300.777 156.195 307.938 192.267C268.153 208.977 207.679 272.633 147.206 346.634Z" fill="url(#paint2_linear_1273_624)"/>
<path d="M147.205 446.894C145.932 474.903 170.015 494.106 182.216 500.207C215.901 505.246 287.09 506.572 302.367 471.561C321.464 427.797 378.755 408.701 398.648 405.518C414.562 402.971 425.436 392.256 428.884 387.216C455.143 332.313 412.97 260.699 363.637 251.946C324.17 244.944 286.188 257.516 272.13 264.678C164.71 320.377 148.796 411.883 147.205 446.894Z" fill="#69301F"/>
<path d="M675.553 251.946C567.337 241.761 519.595 328.334 509.251 372.894C494.928 439.733 575.294 487.475 645.317 483.497C683.581 481.323 782.178 509.225 826.738 520.099C852.465 516.917 899.943 494 884.029 427.797C864.136 345.044 810.823 264.678 675.553 251.946Z" fill="#69301F"/>
<path d="M332.606 115.879C329.423 116.516 329.688 121.449 330.219 123.837L338.176 163.622C338.971 167.07 341.359 173.807 344.541 173.17C347.724 172.534 346.929 166.539 346.133 163.622L337.38 123.837C337.115 120.919 335.789 115.243 332.606 115.879Z" fill="#692F1E"/>
<path d="M296.8 469.174C175.852 433.527 156.225 530.709 161.529 583.756C163.917 604.445 167.773 616.24 175.797 637.069C182.977 654.152 207.84 697.277 249.853 733.113C289.108 768.007 352.764 806.554 472.651 819.285C723.298 825.651 821.17 649.004 832.31 628.316C843.45 607.627 870.504 531.24 837.88 485.884C805.256 440.529 743.986 444.508 673.169 477.132C616.514 503.231 552.486 504.981 527.554 502.594L490.952 496.229C470.529 504.716 426.022 520.418 411.381 515.325C396.74 510.233 328.893 482.436 296.8 469.174Z" fill="#F0CA94"/>
<path d="M806.563 133.313C809.792 133.253 810.341 137.506 810.212 139.641L808.926 175.042C808.711 178.13 807.472 184.321 804.242 184.381C801.012 184.44 800.81 179.183 801.113 176.547L803.18 140.995C802.962 138.459 803.333 133.372 806.563 133.313Z" fill="#692F1E"/>
<path d="M251.445 549.54C253.354 546.993 254.893 549.54 255.423 551.131C288.047 638.659 389.897 633.884 406.607 630.702C419.975 628.155 427.561 628.58 429.683 629.11C595.985 678.444 740.008 577.389 757.514 514.529C762.288 512.937 774.224 527.26 777.406 531.238C780.589 535.217 788.546 549.54 788.546 535.217C788.546 520.894 771.836 497.023 751.944 493.044C732.051 489.066 719.32 498.614 715.341 504.98C711.363 511.346 716.933 515.324 725.685 512.141C732.688 509.595 742.395 509.489 746.374 509.754C670.782 656.96 444.005 622.745 436.844 612.4C430.516 603.26 423.582 567.576 423.317 547.948C478.221 532.034 502.888 486.679 505.275 477.926C507.662 469.173 494.931 446.893 433.661 441.324C372.392 435.754 350.112 450.076 340.564 457.238C331.015 464.399 327.037 472.356 345.338 499.41C359.979 521.053 392.284 540.787 406.607 547.948C404.061 565.135 409.26 598.078 412.177 612.4C334.516 622.585 288.047 580.042 274.52 557.497C270.807 552.192 263.857 540.946 265.767 538.4C268.154 535.217 291.23 537.604 293.617 536.808C296.004 536.013 290.434 527.26 279.294 522.486C268.154 517.711 253.832 522.486 244.283 531.238C234.735 539.991 233.939 575.798 238.713 577.389C243.487 578.981 249.057 552.722 251.445 549.54Z" fill="#38231D"/>
<path d="M553.814 407.694C551.268 414.696 556.997 415.916 560.18 415.651C561.771 414.59 564.477 412.946 562.567 414.855C560.658 416.765 561.772 417.243 562.567 417.243C619.858 406.898 746.375 409.286 760.698 411.673C772.156 413.582 775.551 410.877 775.817 409.286C778.999 378.253 721.709 355.099 650.891 355.973C586.439 356.769 556.997 398.941 553.814 407.694Z" fill="white"/>
<path d="M211.759 394.168C213.033 399.26 221.308 398.412 225.286 397.351C224.65 397.987 225.021 398.677 225.286 398.942C265.867 396.555 366.922 397.351 389.202 402.921C407.026 407.377 407.769 397.881 405.912 392.577C398.273 368.387 366.657 355.974 351.804 352.791C286.238 343.879 241.201 364.462 226.878 375.867C221.308 379.845 210.486 389.075 211.759 394.168Z" fill="white"/>
<path d="M211.759 394.168C213.033 399.26 221.308 398.412 225.286 397.351C257.218 374.066 280.087 368.119 287.248 366.527C294.41 364.936 328.625 361.753 321.464 366.527C314.302 371.302 307.937 391.194 307.141 394.377C306.504 396.923 308.253 397.764 309.207 397.867C344.149 398.391 377.514 399.999 389.202 402.921C407.026 407.377 407.769 397.881 405.912 392.577C398.273 368.387 366.657 355.974 351.804 352.791C286.238 343.879 241.201 364.462 226.878 375.867C221.308 379.845 210.486 389.075 211.759 394.168Z" fill="url(#paint3_linear_1273_624)"/>
<path d="M553.814 407.694C551.268 414.696 556.997 415.916 560.18 415.651C560.445 415.674 561.294 415.415 562.567 414.198C595.149 377.572 645.193 371.317 651.662 370.508L651.687 370.505C658.052 369.709 674.762 368.914 669.988 372.096C665.214 375.279 657.257 398.355 657.257 404.72C657.257 409.813 658.848 410.339 659.644 409.966C707.413 408.936 752.488 410.304 760.698 411.673C772.156 413.582 775.551 410.877 775.817 409.286C778.999 378.253 721.709 355.099 650.891 355.973C586.439 356.769 556.997 398.941 553.814 407.694Z" fill="url(#paint4_linear_1273_624)"/>
<defs>
<linearGradient id="paint0_linear_1273_624" x1="731.256" y1="296.505" x2="731.256" y2="-532.621" gradientUnits="userSpaceOnUse">
<stop offset="0.13693" stop-color="#67311F"/>
<stop offset="1" stop-color="#CD623E"/>
</linearGradient>
<linearGradient id="paint1_linear_1273_624" x1="731.256" y1="296.505" x2="731.256" y2="-532.621" gradientUnits="userSpaceOnUse">
<stop offset="0.13693" stop-color="#67311F"/>
<stop offset="1" stop-color="#CD623E"/>
</linearGradient>
<linearGradient id="paint2_linear_1273_624" x1="574.5" y1="65.6074" x2="574.5" y2="937.587" gradientUnits="userSpaceOnUse">
<stop offset="0.33342" stop-color="#BE3A27"/>
<stop offset="1" stop-color="#581B12"/>
</linearGradient>
<linearGradient id="paint3_linear_1273_624" x1="211.656" y1="377.345" x2="406.606" y2="377.345" gradientUnits="userSpaceOnUse">
<stop stop-color="#3A211A"/>
<stop offset="1" stop-color="#0D0B0A"/>
</linearGradient>
<linearGradient id="paint4_linear_1273_624" x1="553.18" y1="385.817" x2="775.943" y2="385.817" gradientUnits="userSpaceOnUse">
<stop stop-color="#392019"/>
<stop offset="1" stop-color="#080808"/>
</linearGradient>
</defs>
</svg>
