<svg width="1208" height="1208" viewBox="0 0 1208 1208" fill="none" xmlns="http://www.w3.org/2000/svg">
<g clip-path="url(#clip0_1148_2131)">
<rect width="1208" height="1208" fill="black"/>
<path d="M1262.86 1320L1262 762H-28V1320H1262.86Z" fill="black" stroke="black" stroke-width="2"/>
<path d="M135.195 198.876C123.486 198.876 115.129 195.479 110.124 188.685C105.12 181.891 102.617 172.273 102.617 159.833V151.436C102.617 145.024 103.373 139.833 104.883 135.861C106.394 131.89 109.18 128.852 113.241 126.746C109.416 125.167 106.701 122.536 105.096 118.851C103.491 115.119 102.688 110.502 102.688 105V101.698C102.688 90.5017 105.45 82.3676 110.974 77.2957C116.546 72.1761 124.619 69.6162 135.195 69.6162C146.055 69.6162 154.176 72.2478 159.558 77.5111C164.941 82.7265 167.632 91.1237 167.632 102.703C167.632 108.779 166.924 113.875 165.507 117.99C164.091 122.105 161.282 125.072 157.079 126.89C161.565 129.234 164.469 132.32 165.791 136.148C167.113 139.928 167.774 145.024 167.774 151.436V159.833C167.774 172.273 165.271 181.891 160.266 188.685C155.262 195.479 146.905 198.876 135.195 198.876ZM135.195 116.124C139.586 116.124 141.782 112.105 141.782 104.066C141.782 101.387 141.31 98.8511 140.365 96.4587C139.468 94.0663 137.745 92.8701 135.195 92.8701C132.646 92.8701 130.899 94.0663 129.955 96.4587C129.057 98.8511 128.609 101.387 128.609 104.066C128.609 112.105 130.804 116.124 135.195 116.124ZM135.195 173.9C139.728 173.9 141.994 170.192 141.994 162.775V151.22C141.994 147.392 141.475 144.402 140.436 142.249C139.445 140.096 137.698 139.019 135.195 139.019C132.599 139.019 130.828 140.096 129.884 142.249C128.939 144.402 128.467 147.392 128.467 151.22V162.775C128.467 170.192 130.71 173.9 135.195 173.9Z" fill="white"/>
<path d="M221.244 197.513V95.4539H206.443V71.1952H260.976V95.4539H246.174V197.513H221.244Z" fill="white"/>
<path d="M262.675 197.513L274.715 71.1952H316.996L328.823 197.513H305.24L303.469 177.13H288.455L286.897 197.513H262.675ZM290.225 156.962H301.557L296.103 92.7266H294.97L290.225 156.962Z" fill="white"/>
<path d="M336.472 197.513V71.1952H362.11L373.583 131.698V71.1952H397.663V197.513H373.3L360.835 134.354V197.513H336.472Z" fill="white"/>
<path d="M437.535 198.661C427.148 198.661 419.499 195.719 414.589 189.833C409.679 183.9 407.224 175.192 407.224 163.708V71.1952H431.445V162.704C431.445 164.809 431.563 166.843 431.799 168.804C432.035 170.718 432.578 172.297 433.428 173.541C434.278 174.785 435.647 175.407 437.535 175.407C439.471 175.407 440.864 174.809 441.714 173.613C442.564 172.369 443.083 170.766 443.272 168.804C443.508 166.843 443.626 164.809 443.626 162.704V71.1952H467.847V163.708C467.847 175.192 465.392 183.9 460.482 189.833C455.571 195.719 447.923 198.661 437.535 198.661Z" fill="white"/>
<path d="M477.408 197.513V71.1952H502.054V121.794L513.669 71.1952H538.74L524.788 129.043L541.644 197.513H515.794L502.196 136.364V197.513H477.408Z" fill="white"/>
<path d="M544.831 197.513V71.1952H568.911V197.513H544.831Z" fill="white"/>
<path d="M642.424 198.661C631.045 198.661 622.83 195.79 617.778 190.049C612.773 184.307 610.271 175.168 610.271 162.632V150.287H634.917V166.077C634.917 168.996 635.342 171.292 636.192 172.967C637.089 174.594 638.623 175.407 640.795 175.407C643.061 175.407 644.62 174.737 645.469 173.398C646.366 172.058 646.815 169.857 646.815 166.795C646.815 162.919 646.437 159.689 645.682 157.106C644.926 154.474 643.604 151.986 641.716 149.641C639.874 147.249 637.301 144.474 633.996 141.316L622.806 130.55C614.449 122.56 610.271 113.421 610.271 103.133C610.271 92.3677 612.726 84.1619 617.636 78.5159C622.594 72.8698 629.747 70.0468 639.095 70.0468C650.521 70.0468 658.619 73.133 663.387 79.3053C668.203 85.4777 670.611 94.8558 670.611 107.44H645.257V98.7554C645.257 97.0329 644.761 95.6931 643.77 94.7362C642.825 93.7792 641.527 93.3008 639.874 93.3008C637.891 93.3008 636.428 93.8749 635.483 95.0233C634.586 96.1238 634.138 97.5592 634.138 99.3296C634.138 101.1 634.61 103.014 635.554 105.071C636.499 107.129 638.364 109.497 641.149 112.177L655.526 126.172C658.406 128.947 661.05 131.89 663.458 135C665.866 138.062 667.802 141.651 669.266 145.766C670.729 149.833 671.461 154.809 671.461 160.694C671.461 172.56 669.289 181.867 664.945 188.613C660.649 195.312 653.142 198.661 642.424 198.661Z" fill="white"/>
<path d="M694.903 197.513V155.957L675.002 71.1952H699.719L706.66 113.971L713.6 71.1952H738.246L718.416 155.957V197.513H694.903Z" fill="white"/>
<path d="M744.55 197.513V71.1952H782.51L792.992 148.206L803.403 71.1952H841.718V197.513H818.913V106.507L804.607 197.513H782.227L767.071 106.507V197.513H744.55Z" fill="white"/>
<path d="M852.766 197.513V71.1952H886.548C895.613 71.1952 902.2 73.444 906.308 77.9417C910.462 82.3915 912.54 89.76 912.54 100.047V105.574C912.54 111.507 911.478 116.315 909.353 120C907.276 123.684 904.089 126.1 899.792 127.249C905.411 128.684 909.164 132.057 911.053 137.368C912.988 142.632 913.956 149.067 913.956 156.675C913.956 164.857 913.201 172.01 911.69 178.135C910.179 184.259 907.441 189.02 903.475 192.417C899.509 195.814 893.866 197.513 886.548 197.513H852.766ZM877.129 118.78H882.228C884.542 118.78 886.029 117.871 886.69 116.052C887.351 114.234 887.681 112.057 887.681 109.521V96.8176C887.681 92.7505 885.911 90.717 882.37 90.717H877.129V118.78ZM879.608 175.264C886.076 175.264 889.31 172.154 889.31 165.933V150.144C889.31 146.555 888.767 143.732 887.681 141.675C886.643 139.569 884.66 138.517 881.732 138.517H877.129V175.12C878.168 175.216 878.994 175.264 879.608 175.264Z" fill="white"/>
<path d="M951.917 198.661C941.955 198.661 934.33 195.623 929.042 189.546C923.801 183.422 921.18 174.594 921.18 163.063V103.062C921.18 92.2481 923.777 84.0423 928.971 78.4441C934.212 72.8459 941.86 70.0468 951.917 70.0468C961.974 70.0468 969.599 72.8459 974.793 78.4441C980.034 84.0423 982.654 92.2481 982.654 103.062V163.063C982.654 174.594 980.01 183.422 974.722 189.546C969.481 195.623 961.879 198.661 951.917 198.661ZM952.13 175.407C955.907 175.407 957.795 171.699 957.795 164.283V102.631C957.795 96.4109 955.954 93.3008 952.271 93.3008C948.116 93.3008 946.039 96.4826 946.039 102.846V164.426C946.039 168.35 946.511 171.173 947.455 172.895C948.4 174.57 949.958 175.407 952.13 175.407Z" fill="white"/>
<path d="M992.711 197.513V71.1952H1017.64V175.981H1043.28V197.513H992.711Z" fill="white"/>
<path d="M1079.96 198.661C1068.58 198.661 1060.37 195.79 1055.32 190.049C1050.31 184.307 1047.81 175.168 1047.81 162.632V150.287H1072.46V166.077C1072.46 168.996 1072.88 171.292 1073.73 172.967C1074.63 174.594 1076.16 175.407 1078.33 175.407C1080.6 175.407 1082.16 174.737 1083.01 173.398C1083.91 172.058 1084.35 169.857 1084.35 166.795C1084.35 162.919 1083.98 159.689 1083.22 157.106C1082.47 154.474 1081.14 151.986 1079.26 149.641C1077.41 147.249 1074.84 144.474 1071.54 141.316L1060.35 130.55C1051.99 122.56 1047.81 113.421 1047.81 103.133C1047.81 92.3677 1050.27 84.1619 1055.18 78.5159C1060.13 72.8698 1067.29 70.0468 1076.64 70.0468C1088.06 70.0468 1096.16 73.133 1100.93 79.3053C1105.74 85.4777 1108.15 94.8558 1108.15 107.44H1082.8V98.7554C1082.8 97.0329 1082.3 95.6931 1081.31 94.7362C1080.36 93.7792 1079.07 93.3008 1077.41 93.3008C1075.43 93.3008 1073.97 93.8749 1073.02 95.0233C1072.13 96.1238 1071.68 97.5592 1071.68 99.3296C1071.68 101.1 1072.15 103.014 1073.09 105.071C1074.04 107.129 1075.9 109.497 1078.69 112.177L1093.07 126.172C1095.95 128.947 1098.59 131.89 1101 135C1103.41 138.062 1105.34 141.651 1106.81 145.766C1108.27 149.833 1109 154.809 1109 160.694C1109 172.56 1106.83 181.867 1102.49 188.613C1098.19 195.312 1090.68 198.661 1079.96 198.661Z" fill="white"/>
<path d="M130.578 194.26C118.869 194.26 110.512 190.863 105.507 184.069C100.502 177.274 98 167.657 98 155.217V146.819C98 140.408 98.7554 135.216 100.266 131.245C101.777 127.274 104.563 124.235 108.623 122.13C104.799 120.551 102.084 117.919 100.479 114.235C98.8735 110.503 98.0708 105.886 98.0708 100.383V97.0818C98.0708 85.8855 100.833 77.7514 106.357 72.6795C111.928 67.5598 120.002 65 130.578 65C141.438 65 149.559 67.6316 154.941 72.8949C160.324 78.1102 163.015 86.5075 163.015 98.0866C163.015 104.163 162.307 109.259 160.89 113.374C159.474 117.489 156.664 120.455 152.462 122.274C156.948 124.618 159.851 127.704 161.173 131.532C162.495 135.312 163.156 140.408 163.156 146.819V155.217C163.156 167.657 160.654 177.274 155.649 184.069C150.645 190.863 142.287 194.26 130.578 194.26ZM130.578 111.508C134.969 111.508 137.165 107.489 137.165 99.4503C137.165 96.7708 136.693 94.2349 135.748 91.8425C134.851 89.4501 133.128 88.2539 130.578 88.2539C128.029 88.2539 126.282 89.4501 125.337 91.8425C124.44 94.2349 123.992 96.7708 123.992 99.4503C123.992 107.489 126.187 111.508 130.578 111.508ZM130.578 169.284C135.111 169.284 137.377 165.576 137.377 158.159V146.604C137.377 142.776 136.858 139.786 135.819 137.633C134.828 135.479 133.081 134.403 130.578 134.403C127.981 134.403 126.211 135.479 125.267 137.633C124.322 139.786 123.85 142.776 123.85 146.604V158.159C123.85 165.576 126.093 169.284 130.578 169.284Z" fill="#BB0101"/>
<path d="M216.627 192.897V90.8377H201.825V66.579H256.358V90.8377H241.557V192.897H216.627Z" fill="#BB0101"/>
<path d="M258.058 192.897L270.098 66.579H312.379L324.206 192.897H300.622L298.852 172.514H283.837L282.279 192.897H258.058ZM285.608 152.346H296.94L291.486 88.1104H290.353L285.608 152.346Z" fill="#BB0101"/>
<path d="M331.855 192.897V66.579H357.493L368.966 127.082V66.579H393.045V192.897H368.682L356.218 129.738V192.897H331.855Z" fill="#BB0101"/>
<path d="M432.918 194.045C422.531 194.045 414.882 191.102 409.972 185.217C405.061 179.284 402.606 170.576 402.606 159.092V66.579H426.828V158.087C426.828 160.193 426.946 162.226 427.182 164.188C427.418 166.102 427.961 167.681 428.811 168.925C429.66 170.169 431.03 170.791 432.918 170.791C434.854 170.791 436.247 170.193 437.097 168.997C437.947 167.753 438.466 166.15 438.655 164.188C438.891 162.226 439.009 160.193 439.009 158.087V66.579H463.23V159.092C463.23 170.576 460.775 179.284 455.865 185.217C450.954 191.102 443.305 194.045 432.918 194.045Z" fill="#BB0101"/>
<path d="M472.791 192.897V66.579H497.437V117.178L509.052 66.579H534.123L520.171 124.427L537.027 192.897H511.177L497.579 131.747V192.897H472.791Z" fill="#BB0101"/>
<path d="M540.214 192.897V66.579H564.293V192.897H540.214Z" fill="#BB0101"/>
<path d="M637.807 194.045C626.428 194.045 618.213 191.174 613.161 185.432C608.156 179.691 605.654 170.552 605.654 158.016V145.671H630.3V161.461C630.3 164.379 630.725 166.676 631.575 168.351C632.472 169.978 634.006 170.791 636.178 170.791C638.444 170.791 640.002 170.121 640.852 168.781C641.749 167.442 642.198 165.241 642.198 162.178C642.198 158.303 641.82 155.073 641.065 152.489C640.309 149.858 638.987 147.37 637.099 145.025C635.257 142.633 632.684 139.858 629.379 136.7L618.189 125.934C609.832 117.943 605.654 108.804 605.654 98.5172C605.654 87.7515 608.109 79.5457 613.019 73.8997C617.977 68.2536 625.13 65.4306 634.478 65.4306C645.904 65.4306 654.002 68.5168 658.77 74.6891C663.586 80.8615 665.994 90.2396 665.994 102.824H640.64V94.1392C640.64 92.4167 640.144 91.0769 639.152 90.12C638.208 89.163 636.91 88.6846 635.257 88.6846C633.274 88.6846 631.811 89.2587 630.866 90.4071C629.969 91.5076 629.521 92.943 629.521 94.7134C629.521 96.4837 629.993 98.3976 630.937 100.455C631.881 102.513 633.746 104.881 636.532 107.56L650.909 121.556C653.789 124.331 656.433 127.274 658.841 130.384C661.249 133.446 663.185 137.035 664.648 141.149C666.112 145.216 666.844 150.193 666.844 156.078C666.844 167.944 664.672 177.25 660.328 183.997C656.032 190.696 648.525 194.045 637.807 194.045Z" fill="#BB0101"/>
<path d="M690.286 192.897V151.341L670.385 66.579H695.102L702.043 109.355L708.983 66.579H733.629L713.799 151.341V192.897H690.286Z" fill="#BB0101"/>
<path d="M739.932 192.897V66.579H777.893L788.375 143.59L798.786 66.579H837.101V192.897H814.296V101.89L799.99 192.897H777.61L762.454 101.89V192.897H739.932Z" fill="#BB0101"/>
<path d="M848.149 192.897V66.579H881.931C890.996 66.579 897.583 68.8278 901.69 73.3255C905.845 77.7753 907.923 85.1438 907.923 95.4311V100.957C907.923 106.891 906.86 111.699 904.736 115.384C902.658 119.068 899.471 121.484 895.175 122.632C900.793 124.068 904.547 127.441 906.435 132.752C908.371 138.015 909.339 144.451 909.339 152.059C909.339 160.241 908.584 167.394 907.073 173.518C905.562 179.643 902.824 184.404 898.857 187.801C894.891 191.198 889.249 192.897 881.931 192.897H848.149ZM872.512 114.163H877.611C879.924 114.163 881.412 113.254 882.073 111.436C882.734 109.618 883.064 107.441 883.064 104.905V92.2014C883.064 88.1343 881.294 86.1008 877.753 86.1008H872.512V114.163ZM874.99 170.647C881.459 170.647 884.693 167.537 884.693 161.317V145.527C884.693 141.939 884.15 139.116 883.064 137.058C882.025 134.953 880.042 133.901 877.115 133.901H872.512V170.504C873.55 170.6 874.377 170.647 874.99 170.647Z" fill="#BB0101"/>
<path d="M947.3 194.045C937.338 194.045 929.712 191.007 924.424 184.93C919.183 178.805 916.563 169.978 916.563 158.446V98.4455C916.563 87.6319 919.16 79.426 924.354 73.8279C929.594 68.2297 937.243 65.4306 947.3 65.4306C957.357 65.4306 964.982 68.2297 970.175 73.8279C975.416 79.426 978.037 87.6319 978.037 98.4455V158.446C978.037 169.978 975.393 178.805 970.105 184.93C964.864 191.007 957.262 194.045 947.3 194.045ZM947.512 170.791C951.29 170.791 953.178 167.083 953.178 159.666V98.0148C953.178 91.7947 951.337 88.6846 947.654 88.6846C943.499 88.6846 941.422 91.8664 941.422 98.2302V159.81C941.422 163.734 941.894 166.557 942.838 168.279C943.782 169.954 945.34 170.791 947.512 170.791Z" fill="#BB0101"/>
<path d="M988.094 192.897V66.579H1013.02V171.365H1038.66V192.897H988.094Z" fill="#BB0101"/>
<path d="M1075.35 194.045C1063.97 194.045 1055.75 191.174 1050.7 185.432C1045.7 179.691 1043.19 170.552 1043.19 158.016V145.671H1067.84V161.461C1067.84 164.379 1068.26 166.676 1069.11 168.351C1070.01 169.978 1071.55 170.791 1073.72 170.791C1075.98 170.791 1077.54 170.121 1078.39 168.781C1079.29 167.442 1079.74 165.241 1079.74 162.178C1079.74 158.303 1079.36 155.073 1078.6 152.489C1077.85 149.858 1076.53 147.37 1074.64 145.025C1072.8 142.633 1070.22 139.858 1066.92 136.7L1055.73 125.934C1047.37 117.943 1043.19 108.804 1043.19 98.5172C1043.19 87.7515 1045.65 79.5457 1050.56 73.8997C1055.52 68.2536 1062.67 65.4306 1072.02 65.4306C1083.44 65.4306 1091.54 68.5168 1096.31 74.6891C1101.13 80.8615 1103.53 90.2396 1103.53 102.824H1078.18V94.1392C1078.18 92.4167 1077.68 91.0769 1076.69 90.12C1075.75 89.163 1074.45 88.6846 1072.8 88.6846C1070.81 88.6846 1069.35 89.2587 1068.41 90.4071C1067.51 91.5076 1067.06 92.943 1067.06 94.7134C1067.06 96.4837 1067.53 98.3976 1068.48 100.455C1069.42 102.513 1071.29 104.881 1074.07 107.56L1088.45 121.556C1091.33 124.331 1093.97 127.274 1096.38 130.384C1098.79 133.446 1100.72 137.035 1102.19 141.149C1103.65 145.216 1104.38 150.193 1104.38 156.078C1104.38 167.944 1102.21 177.25 1097.87 183.997C1093.57 190.696 1086.06 194.045 1075.35 194.045Z" fill="#BB0101"/>
<path d="M119.947 344V323.78H109.747V344H105.727V302H109.747V319.94H119.947V302H124.027V344H119.947ZM133.915 334.4V335.72C133.915 337.4 134.355 338.76 135.235 339.8C136.115 340.8 137.275 341.3 138.715 341.3C140.155 341.3 141.315 340.8 142.195 339.8C143.075 338.76 143.515 337.4 143.515 335.72V334.4C143.515 332.72 143.075 331.38 142.195 330.38C141.315 329.34 140.155 328.82 138.715 328.82C137.275 328.82 136.115 329.34 135.235 330.38C134.355 331.38 133.915 332.72 133.915 334.4ZM130.015 335.9V334.52C130.015 331.92 130.755 329.8 132.235 328.16C133.715 326.48 135.575 325.64 137.815 325.64C140.215 325.64 142.115 326.6 143.515 328.52V321.32C143.515 319.8 143.095 318.58 142.255 317.66C141.455 316.74 140.435 316.28 139.195 316.28C137.955 316.28 136.915 316.74 136.075 317.66C135.275 318.58 134.875 319.8 134.875 321.32V322.58H131.155V321.5C131.155 318.94 131.935 316.86 133.495 315.26C135.055 313.66 136.975 312.86 139.255 312.86C141.575 312.86 143.515 313.64 145.075 315.2C146.635 316.76 147.415 318.8 147.415 321.32V344H144.235L143.935 341C142.495 343.4 140.395 344.6 137.635 344.6C135.395 344.6 133.555 343.82 132.115 342.26C130.715 340.66 130.015 338.54 130.015 335.9ZM151.315 316.76V313.46H155.215V305.6H159.115V313.46H165.415V316.76H159.115V336.5C159.115 339.5 160.375 341 162.895 341L165.115 340.82V344.24C164.195 344.48 163.155 344.6 161.995 344.6C159.875 344.6 158.215 343.96 157.015 342.68C155.815 341.4 155.215 339.52 155.215 337.04V316.76H151.315ZM203.616 324.38H180.216V320.84H203.616V324.38Z" fill="white"/>
<path d="M217.219 344.48V340.7C217.539 340.74 217.899 340.76 218.299 340.76C221.339 340.76 222.859 339.08 222.859 335.72V302H226.999V336.44C226.999 339 226.259 341 224.779 342.44C223.339 343.88 221.519 344.6 219.319 344.6L217.219 344.48ZM236.871 321.56V325.7H246.111V321.56C246.111 319.92 245.671 318.62 244.791 317.66C243.951 316.7 242.851 316.22 241.491 316.22C240.131 316.22 239.011 316.7 238.131 317.66C237.291 318.62 236.871 319.92 236.871 321.56ZM246.111 335.66V334.1H249.771V335.72C249.771 338.36 248.951 340.5 247.311 342.14C245.711 343.78 243.711 344.6 241.311 344.6C238.911 344.6 236.911 343.8 235.311 342.2C233.751 340.6 232.971 338.5 232.971 335.9V321.68C232.971 319.08 233.791 316.96 235.431 315.32C237.071 313.68 239.091 312.86 241.491 312.86C243.891 312.86 245.871 313.66 247.431 315.26C248.991 316.82 249.771 318.92 249.771 321.56V328.52H236.871V335.66C236.871 337.3 237.291 338.6 238.131 339.56C239.011 340.52 240.131 341 241.491 341C242.851 341 243.951 340.52 244.791 339.56C245.671 338.6 246.111 337.3 246.111 335.66ZM259.079 321.56V325.7H268.319V321.56C268.319 319.92 267.879 318.62 266.999 317.66C266.159 316.7 265.059 316.22 263.699 316.22C262.339 316.22 261.219 316.7 260.339 317.66C259.499 318.62 259.079 319.92 259.079 321.56ZM268.319 335.66V334.1H271.979V335.72C271.979 338.36 271.159 340.5 269.519 342.14C267.919 343.78 265.919 344.6 263.519 344.6C261.119 344.6 259.119 343.8 257.519 342.2C255.959 340.6 255.179 338.5 255.179 335.9V321.68C255.179 319.08 255.999 316.96 257.639 315.32C259.279 313.68 261.299 312.86 263.699 312.86C266.099 312.86 268.079 313.66 269.639 315.26C271.199 316.82 271.979 318.92 271.979 321.56V328.52H259.079V335.66C259.079 337.3 259.499 338.6 260.339 339.56C261.219 340.52 262.339 341 263.699 341C265.059 341 266.159 340.52 266.999 339.56C267.879 338.6 268.319 337.3 268.319 335.66ZM275.593 316.76V313.46H279.493V305.6H283.393V313.46H289.693V316.76H283.393V336.5C283.393 339.5 284.653 341 287.173 341L289.393 340.82V344.24C288.473 344.48 287.433 344.6 286.273 344.6C284.153 344.6 282.493 343.96 281.293 342.68C280.093 341.4 279.493 339.52 279.493 337.04V316.76H275.593ZM310.313 305.66V323.6H314.693C316.533 323.6 317.953 323.04 318.953 321.92C319.993 320.76 320.513 319.12 320.513 317V312.26C320.513 310.14 319.993 308.52 318.953 307.4C317.953 306.24 316.533 305.66 314.693 305.66H310.313ZM306.293 344V302H314.753C317.793 302 320.193 302.9 321.953 304.7C323.713 306.46 324.593 308.96 324.593 312.2V316.88C324.593 320.12 323.693 322.66 321.893 324.5C320.093 326.3 317.673 327.2 314.633 327.2H310.313V344H306.293ZM340.937 312.86V317H340.097C338.177 317 336.657 317.6 335.537 318.8C334.457 319.96 333.917 321.7 333.917 324.02V344H330.017V313.46H333.377L333.617 317.18C335.017 314.3 337.457 312.86 340.937 312.86ZM347.555 321.8V335.66C347.555 337.3 347.975 338.6 348.815 339.56C349.695 340.52 350.815 341 352.175 341C353.535 341 354.635 340.52 355.475 339.56C356.355 338.6 356.795 337.3 356.795 335.66V321.8C356.795 320.16 356.355 318.86 355.475 317.9C354.635 316.94 353.535 316.46 352.175 316.46C350.815 316.46 349.695 316.94 348.815 317.9C347.975 318.86 347.555 320.16 347.555 321.8ZM343.655 335.84V321.8C343.655 319.16 344.475 317.02 346.115 315.38C347.755 313.7 349.795 312.86 352.235 312.86C354.635 312.86 356.635 313.68 358.235 315.32C359.875 316.92 360.695 319.02 360.695 321.62V335.66C360.695 338.26 359.855 340.4 358.175 342.08C356.535 343.76 354.515 344.6 352.115 344.6C349.715 344.6 347.695 343.8 346.055 342.2C344.455 340.6 343.655 338.48 343.655 335.84ZM364.304 316.76V313.46H368.204V305.6H372.104V313.46H378.404V316.76H372.104V336.5C372.104 339.5 373.364 341 375.884 341L378.104 340.82V344.24C377.184 344.48 376.144 344.6 374.984 344.6C372.864 344.6 371.204 343.96 370.004 342.68C368.804 341.4 368.204 339.52 368.204 337.04V316.76H364.304ZM385.934 321.56V325.7H395.174V321.56C395.174 319.92 394.734 318.62 393.854 317.66C393.014 316.7 391.914 316.22 390.554 316.22C389.194 316.22 388.074 316.7 387.194 317.66C386.354 318.62 385.934 319.92 385.934 321.56ZM395.174 335.66V334.1H398.834V335.72C398.834 338.36 398.014 340.5 396.374 342.14C394.774 343.78 392.774 344.6 390.374 344.6C387.974 344.6 385.974 343.8 384.374 342.2C382.814 340.6 382.034 338.5 382.034 335.9V321.68C382.034 319.08 382.854 316.96 384.494 315.32C386.134 313.68 388.154 312.86 390.554 312.86C392.954 312.86 394.934 313.66 396.494 315.26C398.054 316.82 398.834 318.92 398.834 321.56V328.52H385.934V335.66C385.934 337.3 386.354 338.6 387.194 339.56C388.074 340.52 389.194 341 390.554 341C391.914 341 393.014 340.52 393.854 339.56C394.734 338.6 395.174 337.3 395.174 335.66ZM416.901 332.3H420.621V335.9C420.621 338.42 419.821 340.5 418.221 342.14C416.661 343.78 414.741 344.6 412.461 344.6C410.101 344.6 408.141 343.82 406.581 342.26C405.021 340.66 404.241 338.6 404.241 336.08V321.56C404.241 319 405.041 316.92 406.641 315.32C408.281 313.68 410.261 312.86 412.581 312.86C414.901 312.86 416.821 313.64 418.341 315.2C419.861 316.76 420.621 318.82 420.621 321.38V324.86H416.901V321.56C416.901 320 416.481 318.76 415.641 317.84C414.841 316.92 413.801 316.46 412.521 316.46C411.241 316.46 410.181 316.92 409.341 317.84C408.541 318.76 408.141 320 408.141 321.56V335.9C408.141 337.46 408.541 338.7 409.341 339.62C410.181 340.54 411.241 341 412.521 341C413.801 341 414.841 340.54 415.641 339.62C416.481 338.7 416.901 337.46 416.901 335.9V332.3ZM424.245 316.76V313.46H428.145V305.6H432.045V313.46H438.345V316.76H432.045V336.5C432.045 339.5 433.305 341 435.825 341L438.045 340.82V344.24C437.125 344.48 436.085 344.6 434.925 344.6C432.805 344.6 431.145 343.96 429.945 342.68C428.745 341.4 428.145 339.52 428.145 337.04V316.76H424.245ZM443.754 344V313.46H447.774V344H443.754ZM443.754 302.84C444.314 302.28 444.974 302 445.734 302C446.494 302 447.154 302.28 447.714 302.84C448.314 303.4 448.614 304.08 448.614 304.88C448.614 305.64 448.334 306.3 447.774 306.86C447.214 307.42 446.534 307.7 445.734 307.7C444.974 307.7 444.314 307.44 443.754 306.92C443.194 306.36 442.914 305.68 442.914 304.88C442.914 304.08 443.194 303.4 443.754 302.84ZM457.946 321.8V335.66C457.946 337.3 458.366 338.6 459.206 339.56C460.086 340.52 461.206 341 462.566 341C463.926 341 465.026 340.52 465.866 339.56C466.746 338.6 467.186 337.3 467.186 335.66V321.8C467.186 320.16 466.746 318.86 465.866 317.9C465.026 316.94 463.926 316.46 462.566 316.46C461.206 316.46 460.086 316.94 459.206 317.9C458.366 318.86 457.946 320.16 457.946 321.8ZM454.046 335.84V321.8C454.046 319.16 454.866 317.02 456.506 315.38C458.146 313.7 460.186 312.86 462.626 312.86C465.026 312.86 467.026 313.68 468.626 315.32C470.266 316.92 471.086 319.02 471.086 321.62V335.66C471.086 338.26 470.246 340.4 468.566 342.08C466.926 343.76 464.906 344.6 462.506 344.6C460.106 344.6 458.086 343.8 456.446 342.2C454.846 340.6 454.046 338.48 454.046 335.84ZM480.987 321.68V344H477.087V313.46H480.447L480.627 316.4C481.987 314.04 484.087 312.86 486.927 312.86C488.967 312.86 490.627 313.58 491.907 315.02C493.227 316.46 493.887 318.44 493.887 320.96V344H489.987V321.68C489.987 320.04 489.587 318.76 488.787 317.84C488.027 316.92 486.987 316.46 485.667 316.46C484.307 316.46 483.187 316.92 482.307 317.84C481.427 318.76 480.987 320.04 480.987 321.68Z" fill="#919191"/>
<path d="M108.426 473.3V475.82C108.426 477.7 108.906 479.2 109.866 480.32C110.826 481.4 112.086 481.94 113.646 481.94C115.206 481.94 116.466 481.42 117.426 480.38C118.426 479.34 118.926 477.92 118.926 476.12C118.926 474.08 118.386 472.2 117.306 470.48C116.226 468.72 114.426 466.66 111.906 464.3C107.266 459.98 104.946 455.76 104.946 451.64C104.946 448.88 105.806 446.66 107.526 444.98C109.286 443.26 111.446 442.4 114.006 442.4C116.566 442.4 118.666 443.24 120.306 444.92C121.946 446.6 122.766 448.84 122.766 451.64V453.8H118.926V451.88C118.926 450.08 118.466 448.68 117.546 447.68C116.626 446.64 115.426 446.12 113.946 446.12C112.466 446.12 111.266 446.6 110.346 447.56C109.466 448.52 109.026 449.86 109.026 451.58C109.026 453.26 109.506 454.86 110.466 456.38C111.426 457.9 112.986 459.66 115.146 461.66C117.746 464.1 119.686 466.46 120.966 468.74C122.286 470.98 122.946 473.42 122.946 476.06C122.946 478.9 122.046 481.2 120.246 482.96C118.486 484.72 116.266 485.6 113.586 485.6C110.906 485.6 108.726 484.74 107.046 483.02C105.366 481.3 104.526 478.98 104.526 476.06V473.3H108.426ZM131.343 475.4V476.72C131.343 478.4 131.783 479.76 132.663 480.8C133.543 481.8 134.703 482.3 136.143 482.3C137.583 482.3 138.743 481.8 139.623 480.8C140.503 479.76 140.943 478.4 140.943 476.72V475.4C140.943 473.72 140.503 472.38 139.623 471.38C138.743 470.34 137.583 469.82 136.143 469.82C134.703 469.82 133.543 470.34 132.663 471.38C131.783 472.38 131.343 473.72 131.343 475.4ZM127.443 476.9V475.52C127.443 472.92 128.183 470.8 129.663 469.16C131.143 467.48 133.003 466.64 135.243 466.64C137.643 466.64 139.543 467.6 140.943 469.52V462.32C140.943 460.8 140.523 459.58 139.683 458.66C138.883 457.74 137.863 457.28 136.623 457.28C135.383 457.28 134.343 457.74 133.503 458.66C132.703 459.58 132.303 460.8 132.303 462.32V463.58H128.583V462.5C128.583 459.94 129.363 457.86 130.923 456.26C132.483 454.66 134.403 453.86 136.683 453.86C139.003 453.86 140.943 454.64 142.503 456.2C144.063 457.76 144.843 459.8 144.843 462.32V485H141.663L141.363 482C139.923 484.4 137.823 485.6 135.063 485.6C132.823 485.6 130.983 484.82 129.543 483.26C128.143 481.66 127.443 479.54 127.443 476.9ZM151.136 485V443H155.036V467.78L163.376 454.46H167.936L158.696 468.26L168.536 485H163.916L155.036 469.34V485H151.136ZM175.178 462.56V466.7H184.418V462.56C184.418 460.92 183.978 459.62 183.098 458.66C182.258 457.7 181.158 457.22 179.798 457.22C178.438 457.22 177.318 457.7 176.438 458.66C175.598 459.62 175.178 460.92 175.178 462.56ZM184.418 476.66V475.1H188.078V476.72C188.078 479.36 187.258 481.5 185.618 483.14C184.018 484.78 182.018 485.6 179.618 485.6C177.218 485.6 175.218 484.8 173.618 483.2C172.058 481.6 171.278 479.5 171.278 476.9V462.68C171.278 460.08 172.098 457.96 173.738 456.32C175.378 454.68 177.398 453.86 179.798 453.86C182.198 453.86 184.178 454.66 185.738 456.26C187.298 457.82 188.078 459.92 188.078 462.56V469.52H175.178V476.66C175.178 478.3 175.598 479.6 176.438 480.56C177.318 481.52 178.438 482 179.798 482C181.158 482 182.258 481.52 183.098 480.56C183.978 479.6 184.418 478.3 184.418 476.66ZM218.417 476.66V462.8C218.417 461.16 217.977 459.86 217.097 458.9C216.257 457.94 215.157 457.46 213.797 457.46C212.437 457.46 211.317 457.94 210.437 458.9C209.597 459.86 209.177 461.16 209.177 462.8V476.66C209.177 478.3 209.597 479.6 210.437 480.56C211.317 481.52 212.437 482 213.797 482C215.157 482 216.257 481.52 217.097 480.56C217.977 479.6 218.417 478.3 218.417 476.66ZM205.277 485V443H209.177V456.74C210.537 454.82 212.437 453.86 214.877 453.86C217.077 453.86 218.857 454.6 220.217 456.08C221.617 457.56 222.317 459.52 222.317 461.96V477.32C222.317 479.76 221.597 481.76 220.157 483.32C218.717 484.84 216.917 485.6 214.757 485.6C212.037 485.6 210.057 484.54 208.817 482.42L208.637 485H205.277ZM231.604 462.8V476.66C231.604 478.3 232.024 479.6 232.864 480.56C233.744 481.52 234.864 482 236.224 482C237.584 482 238.684 481.52 239.524 480.56C240.404 479.6 240.844 478.3 240.844 476.66V462.8C240.844 461.16 240.404 459.86 239.524 458.9C238.684 457.94 237.584 457.46 236.224 457.46C234.864 457.46 233.744 457.94 232.864 458.9C232.024 459.86 231.604 461.16 231.604 462.8ZM227.704 476.84V462.8C227.704 460.16 228.524 458.02 230.164 456.38C231.804 454.7 233.844 453.86 236.284 453.86C238.684 453.86 240.684 454.68 242.284 456.32C243.924 457.92 244.744 460.02 244.744 462.62V476.66C244.744 479.26 243.904 481.4 242.224 483.08C240.584 484.76 238.564 485.6 236.164 485.6C233.764 485.6 231.744 484.8 230.104 483.2C228.504 481.6 227.704 479.48 227.704 476.84ZM276.365 481.82V485.24C275.445 485.48 274.405 485.6 273.245 485.6C271.125 485.6 269.465 484.96 268.265 483.68C267.065 482.4 266.465 480.52 266.465 478.04V446.6H270.365V454.46H276.665V457.76H270.365V477.5C270.365 480.5 271.645 482 274.205 482L276.365 481.82ZM248.645 457.76V454.46H252.545V446.6H256.445V454.46H262.745V457.76H256.445V477.5C256.445 480.5 257.705 482 260.225 482L262.445 481.82V485.24C261.525 485.48 260.485 485.6 259.325 485.6C257.205 485.6 255.545 484.96 254.345 483.68C253.145 482.4 252.545 480.52 252.545 478.04V457.76H248.645ZM282.041 485V443H286.061V485H282.041ZM296.233 462.56V466.7H305.473V462.56C305.473 460.92 305.033 459.62 304.153 458.66C303.313 457.7 302.213 457.22 300.853 457.22C299.493 457.22 298.373 457.7 297.493 458.66C296.653 459.62 296.233 460.92 296.233 462.56ZM305.473 476.66V475.1H309.133V476.72C309.133 479.36 308.313 481.5 306.673 483.14C305.073 484.78 303.073 485.6 300.673 485.6C298.273 485.6 296.273 484.8 294.673 483.2C293.113 481.6 292.333 479.5 292.333 476.9V462.68C292.333 460.08 293.153 457.96 294.793 456.32C296.433 454.68 298.453 453.86 300.853 453.86C303.253 453.86 305.233 454.66 306.793 456.26C308.353 457.82 309.133 459.92 309.133 462.56V469.52H296.233V476.66C296.233 478.3 296.653 479.6 297.493 480.56C298.373 481.52 299.493 482 300.853 482C302.213 482 303.313 481.52 304.153 480.56C305.033 479.6 305.473 478.3 305.473 476.66ZM348.231 465.38H324.831V461.84H348.231V465.38Z" fill="white"/>
<path d="M370.234 485L361.834 443H366.154L372.274 476.36L378.454 443H382.534L374.134 485H370.234ZM386.748 485V454.46H390.768V485H386.748ZM386.748 443.84C387.308 443.28 387.968 443 388.728 443C389.488 443 390.148 443.28 390.708 443.84C391.308 444.4 391.608 445.08 391.608 445.88C391.608 446.64 391.328 447.3 390.768 447.86C390.208 448.42 389.528 448.7 388.728 448.7C387.968 448.7 387.308 448.44 386.748 447.92C386.188 447.36 385.908 446.68 385.908 445.88C385.908 445.08 386.188 444.4 386.748 443.84ZM422.18 481.82V485.24C421.26 485.48 420.22 485.6 419.06 485.6C416.94 485.6 415.28 484.96 414.08 483.68C412.88 482.4 412.28 480.52 412.28 478.04V446.6H416.18V454.46H422.48V457.76H416.18V477.5C416.18 480.5 417.46 482 420.02 482L422.18 481.82ZM408.56 453.86V458H407.72C405.84 458 404.34 458.58 403.22 459.74C402.1 460.86 401.54 462.54 401.54 464.78V485H397.64V454.46H401L401.24 458.18C402.64 455.3 405.08 453.86 408.56 453.86ZM440.181 476.78V454.46H444.081V485H440.721L440.541 482.06C439.181 484.42 437.081 485.6 434.241 485.6C432.201 485.6 430.521 484.88 429.201 483.44C427.921 482 427.281 480.02 427.281 477.5V454.46H431.181V476.78C431.181 478.42 431.561 479.7 432.321 480.62C433.121 481.54 434.181 482 435.501 482C436.861 482 437.981 481.54 438.861 480.62C439.741 479.7 440.181 478.42 440.181 476.78ZM453.967 462.56V466.7H463.207V462.56C463.207 460.92 462.767 459.62 461.887 458.66C461.047 457.7 459.947 457.22 458.587 457.22C457.227 457.22 456.107 457.7 455.227 458.66C454.387 459.62 453.967 460.92 453.967 462.56ZM463.207 476.66V475.1H466.867V476.72C466.867 479.36 466.047 481.5 464.407 483.14C462.807 484.78 460.807 485.6 458.407 485.6C456.007 485.6 454.007 484.8 452.407 483.2C450.847 481.6 450.067 479.5 450.067 476.9V462.68C450.067 460.08 450.887 457.96 452.527 456.32C454.167 454.68 456.187 453.86 458.587 453.86C460.987 453.86 462.967 454.66 464.527 456.26C466.087 457.82 466.867 459.92 466.867 462.56V469.52H453.967V476.66C453.967 478.3 454.387 479.6 455.227 480.56C456.107 481.52 457.227 482 458.587 482C459.947 482 461.047 481.52 461.887 480.56C462.767 479.6 463.207 478.3 463.207 476.66Z" fill="#797979"/>
<path d="M110.116 587.48V602.48H114.196C116.036 602.48 117.456 601.92 118.456 600.8C119.496 599.64 120.016 598 120.016 595.88V594.08C120.016 591.96 119.496 590.34 118.456 589.22C117.456 588.06 116.036 587.48 114.196 587.48H110.116ZM106.096 626V584H114.556C117.476 584 119.796 584.88 121.516 586.64C123.236 588.36 124.096 590.78 124.096 593.9V594.98C124.096 599.3 122.496 602.26 119.296 603.86C121.016 604.54 122.336 605.66 123.256 607.22C124.216 608.78 124.696 610.7 124.696 612.98V615.98C124.696 619.06 123.796 621.5 121.996 623.3C120.236 625.1 117.916 626 115.036 626H106.096ZM110.116 605.72V622.58H114.796C116.636 622.58 118.056 622.02 119.056 620.9C120.096 619.74 120.616 618.1 120.616 615.98V612.32C120.616 610.2 120.096 608.58 119.056 607.46C118.056 606.3 116.636 605.72 114.796 605.72H110.116ZM130.705 626V595.46H134.725V626H130.705ZM130.705 584.84C131.265 584.28 131.925 584 132.685 584C133.445 584 134.105 584.28 134.665 584.84C135.265 585.4 135.565 586.08 135.565 586.88C135.565 587.64 135.285 588.3 134.725 588.86C134.165 589.42 133.485 589.7 132.685 589.7C131.925 589.7 131.265 589.44 130.705 588.92C130.145 588.36 129.865 587.68 129.865 586.88C129.865 586.08 130.145 585.4 130.705 584.84ZM144.897 603.8V615.08C144.897 616.72 145.317 618.02 146.157 618.98C147.037 619.94 148.157 620.42 149.517 620.42C150.837 620.42 151.937 619.96 152.817 619.04C153.697 618.08 154.137 616.8 154.137 615.2V603.8C154.137 602.16 153.697 600.86 152.817 599.9C151.977 598.94 150.877 598.46 149.517 598.46C148.157 598.46 147.037 598.94 146.157 599.9C145.317 600.86 144.897 602.16 144.897 603.8ZM158.037 595.46V627.26C158.037 629.86 157.197 632 155.517 633.68C153.877 635.36 151.857 636.2 149.457 636.2C147.057 636.2 145.077 635.4 143.517 633.8C141.957 632.2 141.177 630.08 141.177 627.44V626.48H144.897V627.38C144.897 629.02 145.317 630.32 146.157 631.28C147.037 632.24 148.157 632.72 149.517 632.72C150.877 632.72 151.977 632.24 152.817 631.28C153.697 630.32 154.137 629.02 154.137 627.38V621.08C152.777 622.96 150.857 623.9 148.377 623.9C146.217 623.9 144.437 623.16 143.037 621.68C141.677 620.2 140.997 618.24 140.997 615.8V603.14C140.997 600.66 141.717 598.66 143.157 597.14C144.597 595.62 146.397 594.86 148.557 594.86C151.157 594.86 153.137 595.92 154.497 598.04L154.677 595.46H158.037ZM173.716 598.76V595.46H177.616V587.6H181.516V595.46H187.816V598.76H181.516V618.5C181.516 621.5 182.776 623 185.296 623L187.516 622.82V626.24C186.596 626.48 185.556 626.6 184.396 626.6C182.276 626.6 180.616 625.96 179.416 624.68C178.216 623.4 177.616 621.52 177.616 619.04V598.76H173.716ZM194.753 616.4V617.72C194.753 619.4 195.193 620.76 196.073 621.8C196.953 622.8 198.113 623.3 199.553 623.3C200.993 623.3 202.153 622.8 203.033 621.8C203.913 620.76 204.353 619.4 204.353 617.72V616.4C204.353 614.72 203.913 613.38 203.033 612.38C202.153 611.34 200.993 610.82 199.553 610.82C198.113 610.82 196.953 611.34 196.073 612.38C195.193 613.38 194.753 614.72 194.753 616.4ZM190.853 617.9V616.52C190.853 613.92 191.593 611.8 193.073 610.16C194.553 608.48 196.413 607.64 198.653 607.64C201.053 607.64 202.953 608.6 204.353 610.52V603.32C204.353 601.8 203.933 600.58 203.093 599.66C202.293 598.74 201.273 598.28 200.033 598.28C198.793 598.28 197.753 598.74 196.913 599.66C196.113 600.58 195.713 601.8 195.713 603.32V604.58H191.993V603.5C191.993 600.94 192.773 598.86 194.333 597.26C195.893 595.66 197.813 594.86 200.093 594.86C202.413 594.86 204.353 595.64 205.913 597.2C207.473 598.76 208.253 600.8 208.253 603.32V626H205.073L204.773 623C203.333 625.4 201.233 626.6 198.473 626.6C196.233 626.6 194.393 625.82 192.953 624.26C191.553 622.66 190.853 620.54 190.853 617.9ZM214.846 626V595.46H218.866V626H214.846ZM214.846 584.84C215.406 584.28 216.066 584 216.826 584C217.586 584 218.246 584.28 218.806 584.84C219.406 585.4 219.706 586.08 219.706 586.88C219.706 587.64 219.426 588.3 218.866 588.86C218.306 589.42 217.626 589.7 216.826 589.7C216.066 589.7 215.406 589.44 214.846 588.92C214.286 588.36 214.006 587.68 214.006 586.88C214.006 586.08 214.286 585.4 214.846 584.84ZM226.038 626V584H230.058V626H226.038ZM270.02 606.38H246.62V602.84H270.02V606.38Z" fill="white"/>
<path d="M289.023 614.3V616.82C289.023 618.7 289.503 620.2 290.463 621.32C291.423 622.4 292.683 622.94 294.243 622.94C295.803 622.94 297.063 622.42 298.023 621.38C299.023 620.34 299.523 618.92 299.523 617.12C299.523 615.08 298.983 613.2 297.903 611.48C296.823 609.72 295.023 607.66 292.503 605.3C287.863 600.98 285.543 596.76 285.543 592.64C285.543 589.88 286.403 587.66 288.123 585.98C289.883 584.26 292.043 583.4 294.603 583.4C297.163 583.4 299.263 584.24 300.903 585.92C302.543 587.6 303.363 589.84 303.363 592.64V594.8H299.523V592.88C299.523 591.08 299.063 589.68 298.143 588.68C297.223 587.64 296.023 587.12 294.543 587.12C293.063 587.12 291.863 587.6 290.943 588.56C290.063 589.52 289.623 590.86 289.623 592.58C289.623 594.26 290.103 595.86 291.063 597.38C292.023 598.9 293.583 600.66 295.743 602.66C298.343 605.1 300.283 607.46 301.563 609.74C302.883 611.98 303.543 614.42 303.543 617.06C303.543 619.9 302.643 622.2 300.843 623.96C299.083 625.72 296.863 626.6 294.183 626.6C291.503 626.6 289.323 625.74 287.643 624.02C285.963 622.3 285.123 619.98 285.123 617.06V614.3H289.023ZM306.841 598.76V595.46H310.741V587.6H314.641V595.46H320.941V598.76H314.641V618.5C314.641 621.5 315.901 623 318.421 623L320.641 622.82V626.24C319.721 626.48 318.681 626.6 317.521 626.6C315.401 626.6 313.741 625.96 312.541 624.68C311.341 623.4 310.741 621.52 310.741 619.04V598.76H306.841ZM336.97 594.86V599H336.13C334.21 599 332.69 599.6 331.57 600.8C330.49 601.96 329.95 603.7 329.95 606.02V626H326.05V595.46H329.41L329.65 599.18C331.05 596.3 333.49 594.86 336.97 594.86ZM343.588 603.56V607.7H352.828V603.56C352.828 601.92 352.388 600.62 351.508 599.66C350.668 598.7 349.568 598.22 348.208 598.22C346.848 598.22 345.728 598.7 344.848 599.66C344.008 600.62 343.588 601.92 343.588 603.56ZM352.828 617.66V616.1H356.488V617.72C356.488 620.36 355.668 622.5 354.028 624.14C352.428 625.78 350.428 626.6 348.028 626.6C345.628 626.6 343.628 625.8 342.028 624.2C340.468 622.6 339.688 620.5 339.688 617.9V603.68C339.688 601.08 340.508 598.96 342.148 597.32C343.788 595.68 345.808 594.86 348.208 594.86C350.608 594.86 352.588 595.66 354.148 597.26C355.708 598.82 356.488 600.92 356.488 603.56V610.52H343.588V617.66C343.588 619.3 344.008 620.6 344.848 621.56C345.728 622.52 346.848 623 348.208 623C349.568 623 350.668 622.52 351.508 621.56C352.388 620.6 352.828 619.3 352.828 617.66ZM366.395 603.68V626H362.495V595.46H365.855L366.035 598.4C367.395 596.04 369.495 594.86 372.335 594.86C374.375 594.86 376.035 595.58 377.315 597.02C378.635 598.46 379.295 600.44 379.295 602.96V626H375.395V603.68C375.395 602.04 374.995 600.76 374.195 599.84C373.435 598.92 372.395 598.46 371.075 598.46C369.715 598.46 368.595 598.92 367.715 599.84C366.835 600.76 366.395 602.04 366.395 603.68ZM388.881 603.8V615.08C388.881 616.72 389.301 618.02 390.141 618.98C391.021 619.94 392.141 620.42 393.501 620.42C394.821 620.42 395.921 619.96 396.801 619.04C397.681 618.08 398.121 616.8 398.121 615.2V603.8C398.121 602.16 397.681 600.86 396.801 599.9C395.961 598.94 394.861 598.46 393.501 598.46C392.141 598.46 391.021 598.94 390.141 599.9C389.301 600.86 388.881 602.16 388.881 603.8ZM402.021 595.46V627.26C402.021 629.86 401.181 632 399.501 633.68C397.861 635.36 395.841 636.2 393.441 636.2C391.041 636.2 389.061 635.4 387.501 633.8C385.941 632.2 385.161 630.08 385.161 627.44V626.48H388.881V627.38C388.881 629.02 389.301 630.32 390.141 631.28C391.021 632.24 392.141 632.72 393.501 632.72C394.861 632.72 395.961 632.24 396.801 631.28C397.681 630.32 398.121 629.02 398.121 627.38V621.08C396.761 622.96 394.841 623.9 392.361 623.9C390.201 623.9 388.421 623.16 387.021 621.68C385.661 620.2 384.981 618.24 384.981 615.8V603.14C384.981 600.66 385.701 598.66 387.141 597.14C388.581 595.62 390.381 594.86 392.541 594.86C395.141 594.86 397.121 595.92 398.481 598.04L398.661 595.46H402.021ZM406.509 598.76V595.46H410.409V587.6H414.309V595.46H420.609V598.76H414.309V618.5C414.309 621.5 415.569 623 418.089 623L420.309 622.82V626.24C419.389 626.48 418.349 626.6 417.189 626.6C415.069 626.6 413.409 625.96 412.209 624.68C411.009 623.4 410.409 621.52 410.409 619.04V598.76H406.509ZM442.518 626H438.618V603.68C438.618 602.04 438.218 600.76 437.418 599.84C436.658 598.92 435.618 598.46 434.298 598.46C432.938 598.46 431.818 598.9 430.938 599.78C430.058 600.66 429.618 601.86 429.618 603.38V626H425.718V584H429.618V598.1C430.978 595.94 432.958 594.86 435.558 594.86C437.598 594.86 439.258 595.58 440.538 597.02C441.858 598.46 442.518 600.44 442.518 602.96V626Z" fill="#797979"/>
<path d="M109.671 710.66V728.6H114.051C115.891 728.6 117.311 728.04 118.311 726.92C119.351 725.76 119.871 724.12 119.871 722V717.26C119.871 715.14 119.351 713.52 118.311 712.4C117.311 711.24 115.891 710.66 114.051 710.66H109.671ZM105.651 749V707H114.111C117.151 707 119.551 707.9 121.311 709.7C123.071 711.46 123.951 713.96 123.951 717.2V721.88C123.951 725.12 123.051 727.66 121.251 729.5C119.451 731.3 117.031 732.2 113.991 732.2H109.671V749H105.651ZM140.294 717.86V722H139.454C137.534 722 136.014 722.6 134.894 723.8C133.814 724.96 133.274 726.7 133.274 729.02V749H129.374V718.46H132.734L132.974 722.18C134.374 719.3 136.814 717.86 140.294 717.86ZM146.913 726.8V740.66C146.913 742.3 147.333 743.6 148.173 744.56C149.053 745.52 150.173 746 151.533 746C152.893 746 153.993 745.52 154.833 744.56C155.713 743.6 156.152 742.3 156.152 740.66V726.8C156.152 725.16 155.713 723.86 154.833 722.9C153.993 721.94 152.893 721.46 151.533 721.46C150.173 721.46 149.053 721.94 148.173 722.9C147.333 723.86 146.913 725.16 146.913 726.8ZM143.013 740.84V726.8C143.013 724.16 143.833 722.02 145.473 720.38C147.113 718.7 149.153 717.86 151.593 717.86C153.993 717.86 155.993 718.68 157.593 720.32C159.233 721.92 160.053 724.02 160.053 726.62V740.66C160.053 743.26 159.213 745.4 157.533 747.08C155.893 748.76 153.873 749.6 151.473 749.6C149.073 749.6 147.053 748.8 145.413 747.2C143.813 745.6 143.013 743.48 143.013 740.84ZM169.954 726.68V749H166.054V718.46H169.414L169.594 721.34C170.914 719.02 172.954 717.86 175.714 717.86C178.634 717.86 180.654 719.24 181.774 722C183.054 719.24 185.214 717.86 188.254 717.86C190.254 717.86 191.874 718.58 193.114 720.02C194.394 721.46 195.034 723.44 195.034 725.96V749H191.134V726.68C191.134 725 190.774 723.72 190.054 722.84C189.334 721.92 188.314 721.46 186.994 721.46C185.674 721.46 184.594 721.9 183.754 722.78C182.914 723.66 182.494 724.88 182.494 726.44V749H178.594V726.68C178.594 725 178.234 723.72 177.514 722.84C176.794 721.92 175.774 721.46 174.454 721.46C173.134 721.46 172.054 721.92 171.214 722.84C170.374 723.76 169.954 725.04 169.954 726.68ZM201.627 749V718.46H205.647V749H201.627ZM201.627 707.84C202.187 707.28 202.847 707 203.607 707C204.367 707 205.027 707.28 205.587 707.84C206.187 708.4 206.487 709.08 206.487 709.88C206.487 710.64 206.207 711.3 205.647 711.86C205.087 712.42 204.407 712.7 203.607 712.7C202.847 712.7 202.187 712.44 201.627 711.92C201.067 711.36 200.787 710.68 200.787 709.88C200.787 709.08 201.067 708.4 201.627 707.84ZM224.279 726.56V725.72C224.279 724.4 223.859 723.34 223.019 722.54C222.219 721.7 221.199 721.28 219.959 721.28C218.719 721.28 217.679 721.68 216.839 722.48C216.039 723.28 215.639 724.32 215.639 725.6C215.639 726.84 216.039 727.92 216.839 728.84C217.639 729.72 218.999 730.64 220.919 731.6C223.359 732.76 225.179 734.1 226.379 735.62C227.579 737.14 228.179 739 228.179 741.2C228.179 743.64 227.359 745.66 225.719 747.26C224.079 748.82 222.059 749.6 219.659 749.6C217.259 749.6 215.259 748.84 213.659 747.32C212.099 745.8 211.319 743.78 211.319 741.26V740.3H215.039V741.2C215.039 742.72 215.459 743.92 216.299 744.8C217.179 745.68 218.299 746.12 219.659 746.12C221.019 746.12 222.119 745.68 222.959 744.8C223.839 743.92 224.279 742.74 224.279 741.26C224.279 739.9 223.839 738.72 222.959 737.72C222.079 736.68 220.519 735.62 218.279 734.54C213.919 732.38 211.739 729.4 211.739 725.6C211.739 723.36 212.519 721.52 214.079 720.08C215.679 718.6 217.639 717.86 219.959 717.86C222.279 717.86 224.199 718.6 225.719 720.08C227.239 721.52 227.999 723.38 227.999 725.66V726.56H224.279ZM245.314 726.56V725.72C245.314 724.4 244.894 723.34 244.054 722.54C243.254 721.7 242.234 721.28 240.994 721.28C239.754 721.28 238.714 721.68 237.874 722.48C237.074 723.28 236.674 724.32 236.674 725.6C236.674 726.84 237.074 727.92 237.874 728.84C238.674 729.72 240.034 730.64 241.954 731.6C244.394 732.76 246.214 734.1 247.414 735.62C248.614 737.14 249.214 739 249.214 741.2C249.214 743.64 248.394 745.66 246.754 747.26C245.114 748.82 243.094 749.6 240.694 749.6C238.294 749.6 236.294 748.84 234.694 747.32C233.134 745.8 232.354 743.78 232.354 741.26V740.3H236.074V741.2C236.074 742.72 236.494 743.92 237.334 744.8C238.214 745.68 239.334 746.12 240.694 746.12C242.054 746.12 243.154 745.68 243.994 744.8C244.874 743.92 245.314 742.74 245.314 741.26C245.314 739.9 244.874 738.72 243.994 737.72C243.114 736.68 241.554 735.62 239.314 734.54C234.954 732.38 232.774 729.4 232.774 725.6C232.774 723.36 233.554 721.52 235.114 720.08C236.714 718.6 238.674 717.86 240.994 717.86C243.314 717.86 245.234 718.6 246.754 720.08C248.274 721.52 249.034 723.38 249.034 725.66V726.56H245.314ZM257.889 726.8V740.66C257.889 742.3 258.309 743.6 259.149 744.56C260.029 745.52 261.149 746 262.509 746C263.869 746 264.969 745.52 265.809 744.56C266.689 743.6 267.129 742.3 267.129 740.66V726.8C267.129 725.16 266.689 723.86 265.809 722.9C264.969 721.94 263.869 721.46 262.509 721.46C261.149 721.46 260.029 721.94 259.149 722.9C258.309 723.86 257.889 725.16 257.889 726.8ZM253.989 740.84V726.8C253.989 724.16 254.809 722.02 256.449 720.38C258.089 718.7 260.129 717.86 262.569 717.86C264.969 717.86 266.969 718.68 268.569 720.32C270.209 721.92 271.029 724.02 271.029 726.62V740.66C271.029 743.26 270.189 745.4 268.509 747.08C266.869 748.76 264.849 749.6 262.449 749.6C260.049 749.6 258.029 748.8 256.389 747.2C254.789 745.6 253.989 743.48 253.989 740.84ZM287.95 717.86V722H287.11C285.19 722 283.67 722.6 282.55 723.8C281.47 724.96 280.93 726.7 280.93 729.02V749H277.03V718.46H280.39L280.63 722.18C282.03 719.3 284.47 717.86 287.95 717.86ZM297.527 749L290.327 718.46H294.467L299.447 742.94L304.427 718.46H308.327L300.887 749.9C300.087 753.3 299.067 755.7 297.827 757.1C296.587 758.5 295.107 759.2 293.387 759.2L291.527 758.96V755.72C291.807 755.8 292.207 755.84 292.727 755.84C293.927 755.84 294.887 755.36 295.607 754.4C296.327 753.48 296.967 751.68 297.527 749ZM327.337 726.68V749H323.437V718.46H326.797L326.977 721.4C328.337 719.04 330.437 717.86 333.277 717.86C335.317 717.86 336.977 718.58 338.257 720.02C339.577 721.46 340.237 723.44 340.237 725.96V749H336.337V726.68C336.337 725.04 335.937 723.76 335.137 722.84C334.377 721.92 333.337 721.46 332.017 721.46C330.657 721.46 329.537 721.92 328.657 722.84C327.777 723.76 327.337 725.04 327.337 726.68ZM349.823 726.8V740.66C349.823 742.3 350.243 743.6 351.083 744.56C351.963 745.52 353.083 746 354.443 746C355.803 746 356.903 745.52 357.743 744.56C358.623 743.6 359.063 742.3 359.063 740.66V726.8C359.063 725.16 358.623 723.86 357.743 722.9C356.903 721.94 355.803 721.46 354.443 721.46C353.083 721.46 351.963 721.94 351.083 722.9C350.243 723.86 349.823 725.16 349.823 726.8ZM345.923 740.84V726.8C345.923 724.16 346.743 722.02 348.383 720.38C350.023 718.7 352.063 717.86 354.503 717.86C356.903 717.86 358.903 718.68 360.503 720.32C362.143 721.92 362.963 724.02 362.963 726.62V740.66C362.963 743.26 362.123 745.4 360.443 747.08C358.803 748.76 356.783 749.6 354.383 749.6C351.983 749.6 349.963 748.8 348.323 747.2C346.723 745.6 345.923 743.48 345.923 740.84ZM366.571 721.76V718.46H370.471V710.6H374.371V718.46H380.671V721.76H374.371V741.5C374.371 744.5 375.631 746 378.151 746L380.371 745.82V749.24C379.451 749.48 378.411 749.6 377.251 749.6C375.131 749.6 373.471 748.96 372.271 747.68C371.071 746.4 370.471 744.52 370.471 742.04V721.76H366.571ZM388.202 726.56V730.7H397.442V726.56C397.442 724.92 397.002 723.62 396.122 722.66C395.282 721.7 394.182 721.22 392.822 721.22C391.462 721.22 390.342 721.7 389.462 722.66C388.622 723.62 388.202 724.92 388.202 726.56ZM397.442 740.66V739.1H401.102V740.72C401.102 743.36 400.282 745.5 398.642 747.14C397.042 748.78 395.042 749.6 392.642 749.6C390.242 749.6 388.242 748.8 386.642 747.2C385.082 745.6 384.302 743.5 384.302 740.9V726.68C384.302 724.08 385.122 721.96 386.762 720.32C388.402 718.68 390.422 717.86 392.822 717.86C395.222 717.86 397.202 718.66 398.762 720.26C400.322 721.82 401.102 723.92 401.102 726.56V733.52H388.202V740.66C388.202 742.3 388.622 743.6 389.462 744.56C390.342 745.52 391.462 746 392.822 746C394.182 746 395.282 745.52 396.122 744.56C397.002 743.6 397.442 742.3 397.442 740.66ZM440.2 729.38H416.8V725.84H440.2V729.38Z" fill="white"/>
<path d="M473.123 710.84H465.803V749H461.723V710.84H454.403V707H473.123V710.84ZM485.529 717.86V722H484.689C482.769 722 481.249 722.6 480.129 723.8C479.049 724.96 478.509 726.7 478.509 729.02V749H474.609V718.46H477.969L478.209 722.18C479.609 719.3 482.049 717.86 485.529 717.86ZM502.619 740.78V718.46H506.519V749H503.159L502.979 746.06C501.619 748.42 499.519 749.6 496.679 749.6C494.639 749.6 492.959 748.88 491.639 747.44C490.359 746 489.719 744.02 489.719 741.5V718.46H493.619V740.78C493.619 742.42 493.999 743.7 494.759 744.62C495.559 745.54 496.619 746 497.939 746C499.299 746 500.419 745.54 501.299 744.62C502.179 743.7 502.619 742.42 502.619 740.78ZM524.865 726.56V725.72C524.865 724.4 524.445 723.34 523.605 722.54C522.805 721.7 521.785 721.28 520.545 721.28C519.305 721.28 518.265 721.68 517.425 722.48C516.625 723.28 516.225 724.32 516.225 725.6C516.225 726.84 516.625 727.92 517.425 728.84C518.225 729.72 519.585 730.64 521.505 731.6C523.945 732.76 525.765 734.1 526.965 735.62C528.165 737.14 528.765 739 528.765 741.2C528.765 743.64 527.945 745.66 526.305 747.26C524.665 748.82 522.645 749.6 520.245 749.6C517.845 749.6 515.845 748.84 514.245 747.32C512.685 745.8 511.905 743.78 511.905 741.26V740.3H515.625V741.2C515.625 742.72 516.045 743.92 516.885 744.8C517.765 745.68 518.885 746.12 520.245 746.12C521.605 746.12 522.705 745.68 523.545 744.8C524.425 743.92 524.865 742.74 524.865 741.26C524.865 739.9 524.425 738.72 523.545 737.72C522.665 736.68 521.105 735.62 518.865 734.54C514.505 732.38 512.325 729.4 512.325 725.6C512.325 723.36 513.105 721.52 514.665 720.08C516.265 718.6 518.225 717.86 520.545 717.86C522.865 717.86 524.785 718.6 526.305 720.08C527.825 721.52 528.585 723.38 528.585 725.66V726.56H524.865ZM532.04 721.76V718.46H535.94V710.6H539.84V718.46H546.14V721.76H539.84V741.5C539.84 744.5 541.1 746 543.62 746L545.84 745.82V749.24C544.92 749.48 543.88 749.6 542.72 749.6C540.6 749.6 538.94 748.96 537.74 747.68C536.54 746.4 535.94 744.52 535.94 742.04V721.76H532.04Z" fill="#797979"/>
<path d="M614.87 305.48V320.48H618.95C620.79 320.48 622.21 319.92 623.21 318.8C624.25 317.64 624.77 316 624.77 313.88V312.08C624.77 309.96 624.25 308.34 623.21 307.22C622.21 306.06 620.79 305.48 618.95 305.48H614.87ZM610.85 344V302H619.31C622.23 302 624.55 302.88 626.27 304.64C627.99 306.36 628.85 308.78 628.85 311.9V312.98C628.85 317.3 627.25 320.26 624.05 321.86C625.77 322.54 627.09 323.66 628.01 325.22C628.97 326.78 629.45 328.7 629.45 330.98V333.98C629.45 337.06 628.55 339.5 626.75 341.3C624.99 343.1 622.67 344 619.79 344H610.85ZM614.87 323.72V340.58H619.55C621.39 340.58 622.81 340.02 623.81 338.9C624.85 337.74 625.37 336.1 625.37 333.98V330.32C625.37 328.2 624.85 326.58 623.81 325.46C622.81 324.3 621.39 323.72 619.55 323.72H614.87ZM635.459 344V313.46H639.479V344H635.459ZM635.459 302.84C636.019 302.28 636.679 302 637.439 302C638.199 302 638.859 302.28 639.419 302.84C640.019 303.4 640.319 304.08 640.319 304.88C640.319 305.64 640.039 306.3 639.479 306.86C638.919 307.42 638.239 307.7 637.439 307.7C636.679 307.7 636.019 307.44 635.459 306.92C634.899 306.36 634.619 305.68 634.619 304.88C634.619 304.08 634.899 303.4 635.459 302.84ZM649.651 321.8V333.08C649.651 334.72 650.071 336.02 650.911 336.98C651.791 337.94 652.911 338.42 654.271 338.42C655.591 338.42 656.691 337.96 657.571 337.04C658.451 336.08 658.891 334.8 658.891 333.2V321.8C658.891 320.16 658.451 318.86 657.571 317.9C656.731 316.94 655.631 316.46 654.271 316.46C652.911 316.46 651.791 316.94 650.911 317.9C650.071 318.86 649.651 320.16 649.651 321.8ZM662.791 313.46V345.26C662.791 347.86 661.951 350 660.271 351.68C658.631 353.36 656.611 354.2 654.211 354.2C651.811 354.2 649.831 353.4 648.271 351.8C646.711 350.2 645.931 348.08 645.931 345.44V344.48H649.651V345.38C649.651 347.02 650.071 348.32 650.911 349.28C651.791 350.24 652.911 350.72 654.271 350.72C655.631 350.72 656.731 350.24 657.571 349.28C658.451 348.32 658.891 347.02 658.891 345.38V339.08C657.531 340.96 655.611 341.9 653.131 341.9C650.971 341.9 649.191 341.16 647.791 339.68C646.431 338.2 645.751 336.24 645.751 333.8V321.14C645.751 318.66 646.471 316.66 647.911 315.14C649.351 313.62 651.151 312.86 653.311 312.86C655.911 312.86 657.891 313.92 659.251 316.04L659.431 313.46H662.791ZM683.87 321.56V325.7H693.11V321.56C693.11 319.92 692.67 318.62 691.79 317.66C690.95 316.7 689.85 316.22 688.49 316.22C687.13 316.22 686.01 316.7 685.13 317.66C684.29 318.62 683.87 319.92 683.87 321.56ZM693.11 335.66V334.1H696.77V335.72C696.77 338.36 695.95 340.5 694.31 342.14C692.71 343.78 690.71 344.6 688.31 344.6C685.91 344.6 683.91 343.8 682.31 342.2C680.75 340.6 679.97 338.5 679.97 335.9V321.68C679.97 319.08 680.79 316.96 682.43 315.32C684.07 313.68 686.09 312.86 688.49 312.86C690.89 312.86 692.87 313.66 694.43 315.26C695.99 316.82 696.77 318.92 696.77 321.56V328.52H683.87V335.66C683.87 337.3 684.29 338.6 685.13 339.56C686.01 340.52 687.13 341 688.49 341C689.85 341 690.95 340.52 691.79 339.56C692.67 338.6 693.11 337.3 693.11 335.66ZM707.277 344L700.077 313.46H704.217L709.197 337.94L714.177 313.46H718.077L710.637 344.9C709.837 348.3 708.817 350.7 707.577 352.1C706.337 353.5 704.857 354.2 703.137 354.2L701.277 353.96V350.72C701.557 350.8 701.957 350.84 702.477 350.84C703.677 350.84 704.637 350.36 705.357 349.4C706.077 348.48 706.717 346.68 707.277 344ZM725.295 321.56V325.7H734.535V321.56C734.535 319.92 734.095 318.62 733.215 317.66C732.375 316.7 731.275 316.22 729.915 316.22C728.555 316.22 727.435 316.7 726.555 317.66C725.715 318.62 725.295 319.92 725.295 321.56ZM734.535 335.66V334.1H738.195V335.72C738.195 338.36 737.375 340.5 735.735 342.14C734.135 343.78 732.135 344.6 729.735 344.6C727.335 344.6 725.335 343.8 723.735 342.2C722.175 340.6 721.395 338.5 721.395 335.9V321.68C721.395 319.08 722.215 316.96 723.855 315.32C725.495 313.68 727.515 312.86 729.915 312.86C732.315 312.86 734.295 313.66 735.855 315.26C737.415 316.82 738.195 318.92 738.195 321.56V328.52H725.295V335.66C725.295 337.3 725.715 338.6 726.555 339.56C727.435 340.52 728.555 341 729.915 341C731.275 341 732.375 340.52 733.215 339.56C734.095 338.6 734.535 337.3 734.535 335.66ZM755.962 321.56V320.72C755.962 319.4 755.542 318.34 754.702 317.54C753.902 316.7 752.882 316.28 751.642 316.28C750.402 316.28 749.362 316.68 748.522 317.48C747.722 318.28 747.322 319.32 747.322 320.6C747.322 321.84 747.722 322.92 748.522 323.84C749.322 324.72 750.682 325.64 752.602 326.6C755.042 327.76 756.862 329.1 758.062 330.62C759.262 332.14 759.862 334 759.862 336.2C759.862 338.64 759.042 340.66 757.402 342.26C755.762 343.82 753.742 344.6 751.342 344.6C748.942 344.6 746.942 343.84 745.342 342.32C743.782 340.8 743.002 338.78 743.002 336.26V335.3H746.722V336.2C746.722 337.72 747.142 338.92 747.982 339.8C748.862 340.68 749.982 341.12 751.342 341.12C752.702 341.12 753.802 340.68 754.642 339.8C755.522 338.92 755.962 337.74 755.962 336.26C755.962 334.9 755.522 333.72 754.642 332.72C753.762 331.68 752.202 330.62 749.962 329.54C745.602 327.38 743.422 324.4 743.422 320.6C743.422 318.36 744.202 316.52 745.762 315.08C747.362 313.6 749.322 312.86 751.642 312.86C753.962 312.86 755.882 313.6 757.402 315.08C758.922 316.52 759.682 318.38 759.682 320.66V321.56H755.962ZM798.329 324.38H774.929V320.84H798.329V324.38Z" fill="white"/>
<path d="M826.512 337.1L818.772 312.14V344H814.932V302H819.072L827.652 329.78L836.232 302H840.132V344H836.292V312.14L828.492 337.1H826.512ZM854.894 309.56L850.934 330.02H858.794L854.894 309.56ZM856.934 302L865.634 344H861.374L859.334 333.32H850.394L848.354 344H844.334L853.034 302H856.934ZM873.854 305.66V323.06H878.234C880.074 323.06 881.494 322.5 882.494 321.38C883.534 320.22 884.054 318.58 884.054 316.46V312.26C884.054 310.14 883.534 308.52 882.494 307.4C881.494 306.24 880.074 305.66 878.234 305.66H873.854ZM889.934 344H885.674L879.494 326.36C879.214 326.4 878.694 326.42 877.934 326.42H873.854V344H869.834V302H878.294C881.334 302 883.734 302.9 885.494 304.7C887.254 306.46 888.134 308.96 888.134 312.2V316.28C888.134 320.68 886.454 323.64 883.094 325.16L889.934 344ZM894.444 344V302H898.464V321.44L908.124 302H912.744L902.184 322.16L913.344 344H908.724L898.464 323.36V344H894.444ZM931.944 344H916.944V302H931.644V305.84H920.964V320.3H929.844V323.9H920.964V340.16H931.944V344ZM953.654 305.84H946.334V344H942.254V305.84H934.934V302H953.654V305.84ZM967.454 324.38H953.054V320.84H967.454V324.38ZM976.442 321.68V344H972.542V313.46H975.902L976.082 316.34C977.402 314.02 979.442 312.86 982.202 312.86C985.122 312.86 987.142 314.24 988.262 317C989.542 314.24 991.702 312.86 994.742 312.86C996.742 312.86 998.362 313.58 999.602 315.02C1000.88 316.46 1001.52 318.44 1001.52 320.96V344H997.622V321.68C997.622 320 997.262 318.72 996.542 317.84C995.822 316.92 994.802 316.46 993.482 316.46C992.162 316.46 991.082 316.9 990.242 317.78C989.402 318.66 988.982 319.88 988.982 321.44V344H985.082V321.68C985.082 320 984.722 318.72 984.002 317.84C983.282 316.92 982.262 316.46 980.942 316.46C979.622 316.46 978.542 316.92 977.702 317.84C976.862 318.76 976.442 320.04 976.442 321.68ZM1010.82 334.4V335.72C1010.82 337.4 1011.26 338.76 1012.14 339.8C1013.02 340.8 1014.18 341.3 1015.62 341.3C1017.06 341.3 1018.22 340.8 1019.1 339.8C1019.98 338.76 1020.42 337.4 1020.42 335.72V334.4C1020.42 332.72 1019.98 331.38 1019.1 330.38C1018.22 329.34 1017.06 328.82 1015.62 328.82C1014.18 328.82 1013.02 329.34 1012.14 330.38C1011.26 331.38 1010.82 332.72 1010.82 334.4ZM1006.92 335.9V334.52C1006.92 331.92 1007.66 329.8 1009.14 328.16C1010.62 326.48 1012.48 325.64 1014.72 325.64C1017.12 325.64 1019.02 326.6 1020.42 328.52V321.32C1020.42 319.8 1020 318.58 1019.16 317.66C1018.36 316.74 1017.34 316.28 1016.1 316.28C1014.86 316.28 1013.82 316.74 1012.98 317.66C1012.18 318.58 1011.78 319.8 1011.78 321.32V322.58H1008.06V321.5C1008.06 318.94 1008.84 316.86 1010.4 315.26C1011.96 313.66 1013.88 312.86 1016.16 312.86C1018.48 312.86 1020.42 313.64 1021.98 315.2C1023.54 316.76 1024.32 318.8 1024.32 321.32V344H1021.14L1020.84 341C1019.4 343.4 1017.3 344.6 1014.54 344.6C1012.3 344.6 1010.46 343.82 1009.02 342.26C1007.62 340.66 1006.92 338.54 1006.92 335.9ZM1030.61 344V302H1034.51V326.78L1042.85 313.46H1047.41L1038.17 327.26L1048.01 344H1043.39L1034.51 328.34V344H1030.61ZM1052.24 344V313.46H1056.26V344H1052.24ZM1052.24 302.84C1052.8 302.28 1053.46 302 1054.22 302C1054.98 302 1055.64 302.28 1056.2 302.84C1056.8 303.4 1057.1 304.08 1057.1 304.88C1057.1 305.64 1056.82 306.3 1056.26 306.86C1055.7 307.42 1055.02 307.7 1054.22 307.7C1053.46 307.7 1052.8 307.44 1052.24 306.92C1051.68 306.36 1051.4 305.68 1051.4 304.88C1051.4 304.08 1051.68 303.4 1052.24 302.84ZM1067.03 321.68V344H1063.13V313.46H1066.49L1066.67 316.4C1068.03 314.04 1070.13 312.86 1072.97 312.86C1075.01 312.86 1076.67 313.58 1077.95 315.02C1079.27 316.46 1079.93 318.44 1079.93 320.96V344H1076.03V321.68C1076.03 320.04 1075.63 318.76 1074.83 317.84C1074.07 316.92 1073.03 316.46 1071.71 316.46C1070.35 316.46 1069.23 316.92 1068.35 317.84C1067.47 318.76 1067.03 320.04 1067.03 321.68ZM1089.51 321.8V333.08C1089.51 334.72 1089.93 336.02 1090.77 336.98C1091.65 337.94 1092.77 338.42 1094.13 338.42C1095.45 338.42 1096.55 337.96 1097.43 337.04C1098.31 336.08 1098.75 334.8 1098.75 333.2V321.8C1098.75 320.16 1098.31 318.86 1097.43 317.9C1096.59 316.94 1095.49 316.46 1094.13 316.46C1092.77 316.46 1091.65 316.94 1090.77 317.9C1089.93 318.86 1089.51 320.16 1089.51 321.8ZM1102.65 313.46V345.26C1102.65 347.86 1101.81 350 1100.13 351.68C1098.49 353.36 1096.47 354.2 1094.07 354.2C1091.67 354.2 1089.69 353.4 1088.13 351.8C1086.57 350.2 1085.79 348.08 1085.79 345.44V344.48H1089.51V345.38C1089.51 347.02 1089.93 348.32 1090.77 349.28C1091.65 350.24 1092.77 350.72 1094.13 350.72C1095.49 350.72 1096.59 350.24 1097.43 349.28C1098.31 348.32 1098.75 347.02 1098.75 345.38V339.08C1097.39 340.96 1095.47 341.9 1092.99 341.9C1090.83 341.9 1089.05 341.16 1087.65 339.68C1086.29 338.2 1085.61 336.24 1085.61 333.8V321.14C1085.61 318.66 1086.33 316.66 1087.77 315.14C1089.21 313.62 1091.01 312.86 1093.17 312.86C1095.77 312.86 1097.75 313.92 1099.11 316.04L1099.29 313.46H1102.65Z" fill="#797979"/>
<path d="M556.007 446.48V461.48H560.087C561.927 461.48 563.347 460.92 564.347 459.8C565.387 458.64 565.907 457 565.907 454.88V453.08C565.907 450.96 565.387 449.34 564.347 448.22C563.347 447.06 561.927 446.48 560.087 446.48H556.007ZM551.987 485V443H560.447C563.367 443 565.687 443.88 567.407 445.64C569.127 447.36 569.987 449.78 569.987 452.9V453.98C569.987 458.3 568.387 461.26 565.187 462.86C566.907 463.54 568.227 464.66 569.147 466.22C570.107 467.78 570.587 469.7 570.587 471.98V474.98C570.587 478.06 569.687 480.5 567.887 482.3C566.127 484.1 563.807 485 560.927 485H551.987ZM556.007 464.72V481.58H560.687C562.527 481.58 563.947 481.02 564.947 479.9C565.987 478.74 566.507 477.1 566.507 474.98V471.32C566.507 469.2 565.987 467.58 564.947 466.46C563.947 465.3 562.527 464.72 560.687 464.72H556.007ZM576.596 485V454.46H580.616V485H576.596ZM576.596 443.84C577.156 443.28 577.816 443 578.576 443C579.336 443 579.996 443.28 580.556 443.84C581.156 444.4 581.456 445.08 581.456 445.88C581.456 446.64 581.176 447.3 580.616 447.86C580.056 448.42 579.376 448.7 578.576 448.7C577.816 448.7 577.156 448.44 576.596 447.92C576.036 447.36 575.756 446.68 575.756 445.88C575.756 445.08 576.036 444.4 576.596 443.84ZM590.788 462.8V474.08C590.788 475.72 591.208 477.02 592.048 477.98C592.928 478.94 594.048 479.42 595.408 479.42C596.728 479.42 597.828 478.96 598.708 478.04C599.588 477.08 600.027 475.8 600.027 474.2V462.8C600.027 461.16 599.588 459.86 598.708 458.9C597.868 457.94 596.768 457.46 595.408 457.46C594.048 457.46 592.928 457.94 592.048 458.9C591.208 459.86 590.788 461.16 590.788 462.8ZM603.928 454.46V486.26C603.928 488.86 603.088 491 601.408 492.68C599.768 494.36 597.748 495.2 595.348 495.2C592.948 495.2 590.968 494.4 589.408 492.8C587.848 491.2 587.068 489.08 587.068 486.44V485.48H590.788V486.38C590.788 488.02 591.208 489.32 592.048 490.28C592.928 491.24 594.048 491.72 595.408 491.72C596.768 491.72 597.868 491.24 598.708 490.28C599.588 489.32 600.027 488.02 600.027 486.38V480.08C598.668 481.96 596.748 482.9 594.268 482.9C592.108 482.9 590.328 482.16 588.928 480.68C587.568 479.2 586.888 477.24 586.888 474.8V462.14C586.888 459.66 587.608 457.66 589.048 456.14C590.488 454.62 592.288 453.86 594.448 453.86C597.048 453.86 599.028 454.92 600.388 457.04L600.568 454.46H603.928ZM634.846 476.66V462.8C634.846 461.16 634.406 459.86 633.526 458.9C632.686 457.94 631.586 457.46 630.226 457.46C628.866 457.46 627.746 457.94 626.866 458.9C626.026 459.86 625.606 461.16 625.606 462.8V476.66C625.606 478.3 626.026 479.6 626.866 480.56C627.746 481.52 628.866 482 630.226 482C631.586 482 632.686 481.52 633.526 480.56C634.406 479.6 634.846 478.3 634.846 476.66ZM621.706 485V443H625.606V456.74C626.966 454.82 628.866 453.86 631.306 453.86C633.506 453.86 635.286 454.6 636.646 456.08C638.046 457.56 638.746 459.52 638.746 461.96V477.32C638.746 479.76 638.026 481.76 636.586 483.32C635.146 484.84 633.346 485.6 631.186 485.6C628.466 485.6 626.486 484.54 625.246 482.42L625.066 485H621.706ZM648.034 462.56V466.7H657.274V462.56C657.274 460.92 656.834 459.62 655.954 458.66C655.114 457.7 654.014 457.22 652.654 457.22C651.294 457.22 650.174 457.7 649.294 458.66C648.454 459.62 648.034 460.92 648.034 462.56ZM657.274 476.66V475.1H660.934V476.72C660.934 479.36 660.114 481.5 658.474 483.14C656.874 484.78 654.874 485.6 652.474 485.6C650.074 485.6 648.074 484.8 646.474 483.2C644.914 481.6 644.134 479.5 644.134 476.9V462.68C644.134 460.08 644.954 457.96 646.594 456.32C648.234 454.68 650.254 453.86 652.654 453.86C655.054 453.86 657.034 454.66 658.594 456.26C660.154 457.82 660.934 459.92 660.934 462.56V469.52H648.034V476.66C648.034 478.3 648.454 479.6 649.294 480.56C650.174 481.52 651.294 482 652.654 482C654.014 482 655.114 481.52 655.954 480.56C656.834 479.6 657.274 478.3 657.274 476.66ZM667.241 485V443H671.261V485H667.241ZM678.432 485V443H682.452V485H678.432ZM693.823 485L686.623 454.46H690.763L695.743 478.94L700.723 454.46H704.623L697.183 485.9C696.383 489.3 695.363 491.7 694.123 493.1C692.883 494.5 691.403 495.2 689.683 495.2L687.823 494.96V491.72C688.103 491.8 688.503 491.84 689.023 491.84C690.223 491.84 691.183 491.36 691.903 490.4C692.623 489.48 693.263 487.68 693.823 485ZM741.634 465.38H718.234V461.84H741.634V465.38Z" fill="white"/>
<path d="M762.257 446.48V461.48H766.337C768.177 461.48 769.597 460.92 770.597 459.8C771.637 458.64 772.157 457 772.157 454.88V453.08C772.157 450.96 771.637 449.34 770.597 448.22C769.597 447.06 768.177 446.48 766.337 446.48H762.257ZM758.237 485V443H766.697C769.617 443 771.937 443.88 773.657 445.64C775.377 447.36 776.237 449.78 776.237 452.9V453.98C776.237 458.3 774.637 461.26 771.437 462.86C773.157 463.54 774.477 464.66 775.397 466.22C776.357 467.78 776.837 469.7 776.837 471.98V474.98C776.837 478.06 775.937 480.5 774.137 482.3C772.377 484.1 770.057 485 767.177 485H758.237ZM762.257 464.72V481.58H766.937C768.777 481.58 770.197 481.02 771.197 479.9C772.237 478.74 772.757 477.1 772.757 474.98V471.32C772.757 469.2 772.237 467.58 771.197 466.46C770.197 465.3 768.777 464.72 766.937 464.72H762.257ZM785.846 462.8V476.66C785.846 478.3 786.266 479.6 787.106 480.56C787.986 481.52 789.106 482 790.466 482C791.826 482 792.926 481.52 793.766 480.56C794.646 479.6 795.086 478.3 795.086 476.66V462.8C795.086 461.16 794.646 459.86 793.766 458.9C792.926 457.94 791.826 457.46 790.466 457.46C789.106 457.46 787.986 457.94 787.106 458.9C786.266 459.86 785.846 461.16 785.846 462.8ZM781.946 476.84V462.8C781.946 460.16 782.766 458.02 784.406 456.38C786.046 454.7 788.086 453.86 790.526 453.86C792.926 453.86 794.926 454.68 796.526 456.32C798.166 457.92 798.986 460.02 798.986 462.62V476.66C798.986 479.26 798.146 481.4 796.466 483.08C794.826 484.76 792.806 485.6 790.406 485.6C788.006 485.6 785.986 484.8 784.346 483.2C782.746 481.6 781.946 479.48 781.946 476.84ZM805.288 485V443H809.308V485H805.288ZM819.479 462.8V476.66C819.479 478.3 819.899 479.6 820.739 480.56C821.619 481.52 822.739 482 824.099 482C825.459 482 826.559 481.52 827.399 480.56C828.279 479.6 828.719 478.3 828.719 476.66V462.8C828.719 461.16 828.279 459.86 827.399 458.9C826.559 457.94 825.459 457.46 824.099 457.46C822.739 457.46 821.619 457.94 820.739 458.9C819.899 459.86 819.479 461.16 819.479 462.8ZM832.619 443V485H829.259L829.079 482.24C827.759 484.48 825.719 485.6 822.959 485.6C820.799 485.6 819.019 484.86 817.619 483.38C816.259 481.9 815.579 479.94 815.579 477.5V462.14C815.579 459.66 816.299 457.66 817.739 456.14C819.179 454.62 820.979 453.86 823.139 453.86C825.539 453.86 827.399 454.74 828.719 456.5V443H832.619ZM843.106 462.68V485H839.206V454.46H842.566L842.746 457.4C844.106 455.04 846.206 453.86 849.046 453.86C851.086 453.86 852.746 454.58 854.026 456.02C855.346 457.46 856.006 459.44 856.006 461.96V485H852.106V462.68C852.106 461.04 851.706 459.76 850.906 458.84C850.146 457.92 849.106 457.46 847.786 457.46C846.426 457.46 845.306 457.92 844.426 458.84C843.546 459.76 843.106 461.04 843.106 462.68ZM865.592 462.56V466.7H874.832V462.56C874.832 460.92 874.392 459.62 873.512 458.66C872.672 457.7 871.572 457.22 870.212 457.22C868.852 457.22 867.732 457.7 866.852 458.66C866.012 459.62 865.592 460.92 865.592 462.56ZM874.832 476.66V475.1H878.492V476.72C878.492 479.36 877.672 481.5 876.032 483.14C874.432 484.78 872.432 485.6 870.032 485.6C867.632 485.6 865.632 484.8 864.032 483.2C862.472 481.6 861.692 479.5 861.692 476.9V462.68C861.692 460.08 862.512 457.96 864.152 456.32C865.792 454.68 867.812 453.86 870.212 453.86C872.612 453.86 874.592 454.66 876.152 456.26C877.712 457.82 878.492 459.92 878.492 462.56V469.52H865.592V476.66C865.592 478.3 866.012 479.6 866.852 480.56C867.732 481.52 868.852 482 870.212 482C871.572 482 872.672 481.52 873.512 480.56C874.392 479.6 874.832 478.3 874.832 476.66ZM896.259 462.56V461.72C896.259 460.4 895.839 459.34 894.999 458.54C894.199 457.7 893.179 457.28 891.939 457.28C890.699 457.28 889.659 457.68 888.819 458.48C888.019 459.28 887.619 460.32 887.619 461.6C887.619 462.84 888.019 463.92 888.819 464.84C889.619 465.72 890.979 466.64 892.899 467.6C895.339 468.76 897.159 470.1 898.359 471.62C899.559 473.14 900.159 475 900.159 477.2C900.159 479.64 899.339 481.66 897.699 483.26C896.059 484.82 894.039 485.6 891.639 485.6C889.239 485.6 887.239 484.84 885.639 483.32C884.079 481.8 883.299 479.78 883.299 477.26V476.3H887.019V477.2C887.019 478.72 887.439 479.92 888.279 480.8C889.159 481.68 890.279 482.12 891.639 482.12C892.999 482.12 894.099 481.68 894.939 480.8C895.819 479.92 896.259 478.74 896.259 477.26C896.259 475.9 895.819 474.72 894.939 473.72C894.059 472.68 892.499 471.62 890.259 470.54C885.899 468.38 883.719 465.4 883.719 461.6C883.719 459.36 884.499 457.52 886.059 456.08C887.659 454.6 889.619 453.86 891.939 453.86C894.259 453.86 896.179 454.6 897.699 456.08C899.219 457.52 899.979 459.38 899.979 461.66V462.56H896.259ZM917.294 462.56V461.72C917.294 460.4 916.874 459.34 916.034 458.54C915.234 457.7 914.214 457.28 912.974 457.28C911.734 457.28 910.694 457.68 909.854 458.48C909.054 459.28 908.654 460.32 908.654 461.6C908.654 462.84 909.054 463.92 909.854 464.84C910.654 465.72 912.014 466.64 913.934 467.6C916.374 468.76 918.194 470.1 919.394 471.62C920.594 473.14 921.194 475 921.194 477.2C921.194 479.64 920.374 481.66 918.734 483.26C917.094 484.82 915.074 485.6 912.674 485.6C910.274 485.6 908.274 484.84 906.674 483.32C905.114 481.8 904.334 479.78 904.334 477.26V476.3H908.054V477.2C908.054 478.72 908.474 479.92 909.314 480.8C910.194 481.68 911.314 482.12 912.674 482.12C914.034 482.12 915.134 481.68 915.974 480.8C916.854 479.92 917.294 478.74 917.294 477.26C917.294 475.9 916.854 474.72 915.974 473.72C915.094 472.68 913.534 471.62 911.294 470.54C906.934 468.38 904.754 465.4 904.754 461.6C904.754 459.36 905.534 457.52 907.094 456.08C908.694 454.6 910.654 453.86 912.974 453.86C915.294 453.86 917.214 454.6 918.734 456.08C920.254 457.52 921.014 459.38 921.014 461.66V462.56H917.294ZM940.761 475.4V476.72C940.761 478.4 941.201 479.76 942.081 480.8C942.961 481.8 944.121 482.3 945.561 482.3C947.001 482.3 948.161 481.8 949.041 480.8C949.921 479.76 950.361 478.4 950.361 476.72V475.4C950.361 473.72 949.921 472.38 949.041 471.38C948.161 470.34 947.001 469.82 945.561 469.82C944.121 469.82 942.961 470.34 942.081 471.38C941.201 472.38 940.761 473.72 940.761 475.4ZM936.861 476.9V475.52C936.861 472.92 937.601 470.8 939.081 469.16C940.561 467.48 942.421 466.64 944.661 466.64C947.061 466.64 948.961 467.6 950.361 469.52V462.32C950.361 460.8 949.941 459.58 949.101 458.66C948.301 457.74 947.281 457.28 946.041 457.28C944.801 457.28 943.761 457.74 942.921 458.66C942.121 459.58 941.721 460.8 941.721 462.32V463.58H938.001V462.5C938.001 459.94 938.781 457.86 940.341 456.26C941.901 454.66 943.821 453.86 946.101 453.86C948.421 453.86 950.361 454.64 951.921 456.2C953.481 457.76 954.261 459.8 954.261 462.32V485H951.081L950.781 482C949.341 484.4 947.241 485.6 944.481 485.6C942.241 485.6 940.401 484.82 938.961 483.26C937.561 481.66 936.861 479.54 936.861 476.9ZM964.454 462.68V485H960.554V454.46H963.914L964.094 457.4C965.454 455.04 967.554 453.86 970.394 453.86C972.434 453.86 974.094 454.58 975.374 456.02C976.694 457.46 977.354 459.44 977.354 461.96V485H973.454V462.68C973.454 461.04 973.054 459.76 972.254 458.84C971.494 457.92 970.454 457.46 969.134 457.46C967.774 457.46 966.654 457.92 965.774 458.84C964.894 459.76 964.454 461.04 964.454 462.68ZM986.94 462.8V476.66C986.94 478.3 987.36 479.6 988.2 480.56C989.08 481.52 990.2 482 991.56 482C992.92 482 994.02 481.52 994.86 480.56C995.74 479.6 996.18 478.3 996.18 476.66V462.8C996.18 461.16 995.74 459.86 994.86 458.9C994.02 457.94 992.92 457.46 991.56 457.46C990.2 457.46 989.08 457.94 988.2 458.9C987.36 459.86 986.94 461.16 986.94 462.8ZM1000.08 443V485H996.72L996.54 482.24C995.22 484.48 993.18 485.6 990.42 485.6C988.26 485.6 986.48 484.86 985.08 483.38C983.72 481.9 983.04 479.94 983.04 477.5V462.14C983.04 459.66 983.76 457.66 985.2 456.14C986.64 454.62 988.44 453.86 990.6 453.86C993 453.86 994.86 454.74 996.18 456.5V443H1000.08ZM1029.92 473.3H1033.64V476.9C1033.64 479.42 1032.84 481.5 1031.24 483.14C1029.68 484.78 1027.76 485.6 1025.48 485.6C1023.12 485.6 1021.16 484.82 1019.6 483.26C1018.04 481.66 1017.26 479.6 1017.26 477.08V462.56C1017.26 460 1018.06 457.92 1019.66 456.32C1021.3 454.68 1023.28 453.86 1025.6 453.86C1027.92 453.86 1029.84 454.64 1031.36 456.2C1032.88 457.76 1033.64 459.82 1033.64 462.38V465.86H1029.92V462.56C1029.92 461 1029.5 459.76 1028.66 458.84C1027.86 457.92 1026.82 457.46 1025.54 457.46C1024.26 457.46 1023.2 457.92 1022.36 458.84C1021.56 459.76 1021.16 461 1021.16 462.56V476.9C1021.16 478.46 1021.56 479.7 1022.36 480.62C1023.2 481.54 1024.26 482 1025.54 482C1026.82 482 1027.86 481.54 1028.66 480.62C1029.5 479.7 1029.92 478.46 1029.92 476.9V473.3ZM1042.66 475.4V476.72C1042.66 478.4 1043.1 479.76 1043.98 480.8C1044.86 481.8 1046.02 482.3 1047.46 482.3C1048.9 482.3 1050.06 481.8 1050.94 480.8C1051.82 479.76 1052.26 478.4 1052.26 476.72V475.4C1052.26 473.72 1051.82 472.38 1050.94 471.38C1050.06 470.34 1048.9 469.82 1047.46 469.82C1046.02 469.82 1044.86 470.34 1043.98 471.38C1043.1 472.38 1042.66 473.72 1042.66 475.4ZM1038.76 476.9V475.52C1038.76 472.92 1039.5 470.8 1040.98 469.16C1042.46 467.48 1044.32 466.64 1046.56 466.64C1048.96 466.64 1050.86 467.6 1052.26 469.52V462.32C1052.26 460.8 1051.84 459.58 1051 458.66C1050.2 457.74 1049.18 457.28 1047.94 457.28C1046.7 457.28 1045.66 457.74 1044.82 458.66C1044.02 459.58 1043.62 460.8 1043.62 462.32V463.58H1039.9V462.5C1039.9 459.94 1040.68 457.86 1042.24 456.26C1043.8 454.66 1045.72 453.86 1048 453.86C1050.32 453.86 1052.26 454.64 1053.82 456.2C1055.38 457.76 1056.16 459.8 1056.16 462.32V485H1052.98L1052.68 482C1051.24 484.4 1049.14 485.6 1046.38 485.6C1044.14 485.6 1042.3 484.82 1040.86 483.26C1039.46 481.66 1038.76 479.54 1038.76 476.9ZM1062.75 485V443H1066.77V485H1062.75ZM1077.54 462.68V485H1073.64V454.46H1077L1077.18 457.34C1078.5 455.02 1080.54 453.86 1083.3 453.86C1086.22 453.86 1088.24 455.24 1089.36 458C1090.64 455.24 1092.8 453.86 1095.84 453.86C1097.84 453.86 1099.46 454.58 1100.7 456.02C1101.98 457.46 1102.62 459.44 1102.62 461.96V485H1098.72V462.68C1098.72 461 1098.36 459.72 1097.64 458.84C1096.92 457.92 1095.9 457.46 1094.58 457.46C1093.26 457.46 1092.18 457.9 1091.34 458.78C1090.5 459.66 1090.08 460.88 1090.08 462.44V485H1086.18V462.68C1086.18 461 1085.82 459.72 1085.1 458.84C1084.38 457.92 1083.36 457.46 1082.04 457.46C1080.72 457.46 1079.64 457.92 1078.8 458.84C1077.96 459.76 1077.54 461.04 1077.54 462.68Z" fill="#919191"/>
<path d="M587.997 710.48V725.48H592.077C593.917 725.48 595.337 724.92 596.337 723.8C597.377 722.64 597.897 721 597.897 718.88V717.08C597.897 714.96 597.377 713.34 596.337 712.22C595.337 711.06 593.917 710.48 592.077 710.48H587.997ZM583.977 749V707H592.437C595.357 707 597.677 707.88 599.397 709.64C601.117 711.36 601.977 713.78 601.977 716.9V717.98C601.977 722.3 600.377 725.26 597.177 726.86C598.897 727.54 600.217 728.66 601.137 730.22C602.097 731.78 602.577 733.7 602.577 735.98V738.98C602.577 742.06 601.677 744.5 599.877 746.3C598.117 748.1 595.797 749 592.917 749H583.977ZM587.997 728.72V745.58H592.677C594.517 745.58 595.937 745.02 596.937 743.9C597.977 742.74 598.497 741.1 598.497 738.98V735.32C598.497 733.2 597.977 731.58 596.937 730.46C595.937 729.3 594.517 728.72 592.677 728.72H587.997ZM608.586 749V718.46H612.606V749H608.586ZM608.586 707.84C609.146 707.28 609.806 707 610.566 707C611.326 707 611.986 707.28 612.546 707.84C613.146 708.4 613.446 709.08 613.446 709.88C613.446 710.64 613.166 711.3 612.606 711.86C612.046 712.42 611.366 712.7 610.566 712.7C609.806 712.7 609.146 712.44 608.586 711.92C608.026 711.36 607.746 710.68 607.746 709.88C607.746 709.08 608.026 708.4 608.586 707.84ZM622.778 726.8V738.08C622.778 739.72 623.198 741.02 624.038 741.98C624.918 742.94 626.038 743.42 627.398 743.42C628.718 743.42 629.818 742.96 630.698 742.04C631.578 741.08 632.018 739.8 632.018 738.2V726.8C632.018 725.16 631.578 723.86 630.698 722.9C629.858 721.94 628.758 721.46 627.398 721.46C626.038 721.46 624.918 721.94 624.038 722.9C623.198 723.86 622.778 725.16 622.778 726.8ZM635.918 718.46V750.26C635.918 752.86 635.078 755 633.398 756.68C631.758 758.36 629.738 759.2 627.338 759.2C624.938 759.2 622.958 758.4 621.398 756.8C619.838 755.2 619.058 753.08 619.058 750.44V749.48H622.778V750.38C622.778 752.02 623.198 753.32 624.038 754.28C624.918 755.24 626.038 755.72 627.398 755.72C628.758 755.72 629.858 755.24 630.698 754.28C631.578 753.32 632.018 752.02 632.018 750.38V744.08C630.658 745.96 628.738 746.9 626.258 746.9C624.098 746.9 622.318 746.16 620.918 744.68C619.558 743.2 618.878 741.24 618.878 738.8V726.14C618.878 723.66 619.598 721.66 621.038 720.14C622.478 718.62 624.278 717.86 626.438 717.86C629.038 717.86 631.018 718.92 632.378 721.04L632.558 718.46H635.918ZM666.836 740.66V726.8C666.836 725.16 666.396 723.86 665.516 722.9C664.676 721.94 663.576 721.46 662.216 721.46C660.856 721.46 659.736 721.94 658.856 722.9C658.016 723.86 657.596 725.16 657.596 726.8V740.66C657.596 742.3 658.016 743.6 658.856 744.56C659.736 745.52 660.856 746 662.216 746C663.576 746 664.676 745.52 665.516 744.56C666.396 743.6 666.836 742.3 666.836 740.66ZM653.696 749V707H657.596V720.74C658.956 718.82 660.856 717.86 663.296 717.86C665.496 717.86 667.276 718.6 668.636 720.08C670.036 721.56 670.736 723.52 670.736 725.96V741.32C670.736 743.76 670.016 745.76 668.576 747.32C667.136 748.84 665.336 749.6 663.176 749.6C660.456 749.6 658.476 748.54 657.236 746.42L657.056 749H653.696ZM679.724 739.4V740.72C679.724 742.4 680.164 743.76 681.044 744.8C681.924 745.8 683.084 746.3 684.524 746.3C685.964 746.3 687.124 745.8 688.004 744.8C688.884 743.76 689.324 742.4 689.324 740.72V739.4C689.324 737.72 688.884 736.38 688.004 735.38C687.124 734.34 685.964 733.82 684.524 733.82C683.084 733.82 681.924 734.34 681.044 735.38C680.164 736.38 679.724 737.72 679.724 739.4ZM675.824 740.9V739.52C675.824 736.92 676.564 734.8 678.044 733.16C679.524 731.48 681.384 730.64 683.624 730.64C686.024 730.64 687.924 731.6 689.324 733.52V726.32C689.324 724.8 688.904 723.58 688.064 722.66C687.264 721.74 686.244 721.28 685.004 721.28C683.764 721.28 682.724 721.74 681.884 722.66C681.084 723.58 680.684 724.8 680.684 726.32V727.58H676.964V726.5C676.964 723.94 677.744 721.86 679.304 720.26C680.864 718.66 682.784 717.86 685.064 717.86C687.384 717.86 689.324 718.64 690.884 720.2C692.444 721.76 693.224 723.8 693.224 726.32V749H690.044L689.744 746C688.304 748.4 686.204 749.6 683.444 749.6C681.204 749.6 679.364 748.82 677.924 747.26C676.524 745.66 675.824 743.54 675.824 740.9ZM699.817 749V707H703.837V749H699.817ZM711.008 749V707H715.028V749H711.008ZM733.66 726.56V725.72C733.66 724.4 733.24 723.34 732.4 722.54C731.6 721.7 730.58 721.28 729.34 721.28C728.1 721.28 727.06 721.68 726.22 722.48C725.42 723.28 725.02 724.32 725.02 725.6C725.02 726.84 725.42 727.92 726.22 728.84C727.02 729.72 728.38 730.64 730.3 731.6C732.74 732.76 734.56 734.1 735.76 735.62C736.96 737.14 737.56 739 737.56 741.2C737.56 743.64 736.74 745.66 735.1 747.26C733.46 748.82 731.44 749.6 729.04 749.6C726.64 749.6 724.64 748.84 723.04 747.32C721.48 745.8 720.7 743.78 720.7 741.26V740.3H724.42V741.2C724.42 742.72 724.84 743.92 725.68 744.8C726.56 745.68 727.68 746.12 729.04 746.12C730.4 746.12 731.5 745.68 732.34 744.8C733.22 743.92 733.66 742.74 733.66 741.26C733.66 739.9 733.22 738.72 732.34 737.72C731.46 736.68 729.9 735.62 727.66 734.54C723.3 732.38 721.12 729.4 721.12 725.6C721.12 723.36 721.9 721.52 723.46 720.08C725.06 718.6 727.02 717.86 729.34 717.86C731.66 717.86 733.58 718.6 735.1 720.08C736.62 721.52 737.38 723.38 737.38 725.66V726.56H733.66ZM776.026 729.38H752.626V725.84H776.026V729.38Z" fill="white"/>
<path d="M805.229 731.06H796.649V749H792.629V707H807.029V710.84H796.649V727.28H805.229V731.06ZM811.848 749V718.46H815.868V749H811.848ZM811.848 707.84C812.408 707.28 813.068 707 813.828 707C814.588 707 815.248 707.28 815.808 707.84C816.408 708.4 816.708 709.08 816.708 709.88C816.708 710.64 816.428 711.3 815.868 711.86C815.308 712.42 814.628 712.7 813.828 712.7C813.068 712.7 812.408 712.44 811.848 711.92C811.288 711.36 811.008 710.68 811.008 709.88C811.008 709.08 811.288 708.4 811.848 707.84ZM826.639 726.68V749H822.739V718.46H826.099L826.279 721.4C827.639 719.04 829.739 717.86 832.579 717.86C834.619 717.86 836.279 718.58 837.559 720.02C838.879 721.46 839.539 723.44 839.539 725.96V749H835.639V726.68C835.639 725.04 835.239 723.76 834.439 722.84C833.679 721.92 832.639 721.46 831.319 721.46C829.959 721.46 828.839 721.92 827.959 722.84C827.079 723.76 826.639 725.04 826.639 726.68ZM848.825 739.4V740.72C848.825 742.4 849.265 743.76 850.145 744.8C851.025 745.8 852.185 746.3 853.625 746.3C855.065 746.3 856.225 745.8 857.105 744.8C857.985 743.76 858.425 742.4 858.425 740.72V739.4C858.425 737.72 857.985 736.38 857.105 735.38C856.225 734.34 855.065 733.82 853.625 733.82C852.185 733.82 851.025 734.34 850.145 735.38C849.265 736.38 848.825 737.72 848.825 739.4ZM844.925 740.9V739.52C844.925 736.92 845.665 734.8 847.145 733.16C848.625 731.48 850.485 730.64 852.725 730.64C855.125 730.64 857.025 731.6 858.425 733.52V726.32C858.425 724.8 858.005 723.58 857.165 722.66C856.365 721.74 855.345 721.28 854.105 721.28C852.865 721.28 851.825 721.74 850.985 722.66C850.185 723.58 849.785 724.8 849.785 726.32V727.58H846.065V726.5C846.065 723.94 846.845 721.86 848.405 720.26C849.965 718.66 851.885 717.86 854.165 717.86C856.485 717.86 858.425 718.64 859.985 720.2C861.545 721.76 862.325 723.8 862.325 726.32V749H859.145L858.845 746C857.405 748.4 855.305 749.6 852.545 749.6C850.305 749.6 848.465 748.82 847.025 747.26C845.625 745.66 844.925 743.54 844.925 740.9ZM872.518 726.68V749H868.618V718.46H871.978L872.158 721.4C873.518 719.04 875.618 717.86 878.458 717.86C880.498 717.86 882.158 718.58 883.438 720.02C884.758 721.46 885.418 723.44 885.418 725.96V749H881.518V726.68C881.518 725.04 881.118 723.76 880.318 722.84C879.558 721.92 878.518 721.46 877.198 721.46C875.838 721.46 874.718 721.92 873.838 722.84C872.958 723.76 872.518 725.04 872.518 726.68ZM903.764 737.3H907.484V740.9C907.484 743.42 906.684 745.5 905.084 747.14C903.524 748.78 901.604 749.6 899.324 749.6C896.964 749.6 895.004 748.82 893.444 747.26C891.884 745.66 891.104 743.6 891.104 741.08V726.56C891.104 724 891.904 721.92 893.504 720.32C895.144 718.68 897.124 717.86 899.444 717.86C901.764 717.86 903.684 718.64 905.204 720.2C906.724 721.76 907.484 723.82 907.484 726.38V729.86H903.764V726.56C903.764 725 903.344 723.76 902.504 722.84C901.704 721.92 900.664 721.46 899.384 721.46C898.104 721.46 897.044 721.92 896.204 722.84C895.404 723.76 895.004 725 895.004 726.56V740.9C895.004 742.46 895.404 743.7 896.204 744.62C897.044 745.54 898.104 746 899.384 746C900.664 746 901.704 745.54 902.504 744.62C903.344 743.7 903.764 742.46 903.764 740.9V737.3ZM913.801 749V718.46H917.821V749H913.801ZM913.801 707.84C914.361 707.28 915.021 707 915.781 707C916.541 707 917.201 707.28 917.761 707.84C918.361 708.4 918.661 709.08 918.661 709.88C918.661 710.64 918.381 711.3 917.821 711.86C917.261 712.42 916.581 712.7 915.781 712.7C915.021 712.7 914.361 712.44 913.801 711.92C913.241 711.36 912.961 710.68 912.961 709.88C912.961 709.08 913.241 708.4 913.801 707.84ZM927.693 739.4V740.72C927.693 742.4 928.133 743.76 929.013 744.8C929.893 745.8 931.053 746.3 932.493 746.3C933.933 746.3 935.093 745.8 935.973 744.8C936.853 743.76 937.293 742.4 937.293 740.72V739.4C937.293 737.72 936.853 736.38 935.973 735.38C935.093 734.34 933.933 733.82 932.493 733.82C931.053 733.82 929.893 734.34 929.013 735.38C928.133 736.38 927.693 737.72 927.693 739.4ZM923.793 740.9V739.52C923.793 736.92 924.533 734.8 926.013 733.16C927.493 731.48 929.353 730.64 931.593 730.64C933.993 730.64 935.893 731.6 937.293 733.52V726.32C937.293 724.8 936.873 723.58 936.033 722.66C935.233 721.74 934.213 721.28 932.973 721.28C931.733 721.28 930.693 721.74 929.853 722.66C929.053 723.58 928.653 724.8 928.653 726.32V727.58H924.933V726.5C924.933 723.94 925.713 721.86 927.273 720.26C928.833 718.66 930.753 717.86 933.033 717.86C935.353 717.86 937.293 718.64 938.853 720.2C940.413 721.76 941.193 723.8 941.193 726.32V749H938.013L937.713 746C936.273 748.4 934.173 749.6 931.413 749.6C929.173 749.6 927.333 748.82 925.893 747.26C924.493 745.66 923.793 743.54 923.793 740.9ZM947.786 749V707H951.806V749H947.786ZM967.768 721.76V718.46H971.668V713.96C971.668 711.48 972.268 709.6 973.468 708.32C974.668 707.04 976.328 706.4 978.448 706.4L981.568 706.76V710.12C980.768 710 980.028 709.94 979.348 709.94C976.828 709.94 975.568 711.44 975.568 714.44V718.46H981.568V721.76H975.568V749H971.668V721.76H967.768ZM988.461 726.8V740.66C988.461 742.3 988.881 743.6 989.721 744.56C990.601 745.52 991.721 746 993.081 746C994.441 746 995.541 745.52 996.381 744.56C997.261 743.6 997.701 742.3 997.701 740.66V726.8C997.701 725.16 997.261 723.86 996.381 722.9C995.541 721.94 994.441 721.46 993.081 721.46C991.721 721.46 990.601 721.94 989.721 722.9C988.881 723.86 988.461 725.16 988.461 726.8ZM984.561 740.84V726.8C984.561 724.16 985.381 722.02 987.021 720.38C988.661 718.7 990.701 717.86 993.141 717.86C995.541 717.86 997.541 718.68 999.141 720.32C1000.78 721.92 1001.6 724.02 1001.6 726.62V740.66C1001.6 743.26 1000.76 745.4 999.081 747.08C997.441 748.76 995.421 749.6 993.021 749.6C990.621 749.6 988.601 748.8 986.961 747.2C985.361 745.6 984.561 743.48 984.561 740.84ZM1032.14 745.82V749.24C1031.22 749.48 1030.18 749.6 1029.02 749.6C1026.9 749.6 1025.24 748.96 1024.04 747.68C1022.84 746.4 1022.24 744.52 1022.24 742.04V710.6H1026.14V718.46H1032.44V721.76H1026.14V741.5C1026.14 744.5 1027.42 746 1029.98 746L1032.14 745.82ZM1018.52 717.86V722H1017.68C1015.8 722 1014.3 722.58 1013.18 723.74C1012.06 724.86 1011.5 726.54 1011.5 728.78V749H1007.6V718.46H1010.96L1011.2 722.18C1012.6 719.3 1015.04 717.86 1018.52 717.86ZM1050.14 740.78V718.46H1054.04V749H1050.68L1050.5 746.06C1049.14 748.42 1047.04 749.6 1044.2 749.6C1042.16 749.6 1040.48 748.88 1039.16 747.44C1037.88 746 1037.24 744.02 1037.24 741.5V718.46H1041.14V740.78C1041.14 742.42 1041.52 743.7 1042.28 744.62C1043.08 745.54 1044.14 746 1045.46 746C1046.82 746 1047.94 745.54 1048.82 744.62C1049.7 743.7 1050.14 742.42 1050.14 740.78ZM1064.53 726.68V749H1060.63V718.46H1063.99L1064.17 721.4C1065.53 719.04 1067.63 717.86 1070.47 717.86C1072.51 717.86 1074.17 718.58 1075.45 720.02C1076.77 721.46 1077.43 723.44 1077.43 725.96V749H1073.53V726.68C1073.53 725.04 1073.13 723.76 1072.33 722.84C1071.57 721.92 1070.53 721.46 1069.21 721.46C1067.85 721.46 1066.73 721.92 1065.85 722.84C1064.97 723.76 1064.53 725.04 1064.53 726.68ZM1087.02 726.56V730.7H1096.26V726.56C1096.26 724.92 1095.82 723.62 1094.94 722.66C1094.1 721.7 1093 721.22 1091.64 721.22C1090.28 721.22 1089.16 721.7 1088.28 722.66C1087.44 723.62 1087.02 724.92 1087.02 726.56ZM1096.26 740.66V739.1H1099.92V740.72C1099.92 743.36 1099.1 745.5 1097.46 747.14C1095.86 748.78 1093.86 749.6 1091.46 749.6C1089.06 749.6 1087.06 748.8 1085.46 747.2C1083.9 745.6 1083.12 743.5 1083.12 740.9V726.68C1083.12 724.08 1083.94 721.96 1085.58 720.32C1087.22 718.68 1089.24 717.86 1091.64 717.86C1094.04 717.86 1096.02 718.66 1097.58 720.26C1099.14 721.82 1099.92 723.92 1099.92 726.56V733.52H1087.02V740.66C1087.02 742.3 1087.44 743.6 1088.28 744.56C1089.16 745.52 1090.28 746 1091.64 746C1093 746 1094.1 745.52 1094.94 744.56C1095.82 743.6 1096.26 742.3 1096.26 740.66Z" fill="#797979"/>
<path d="M596.671 608.06H588.091V626H584.071V584H598.471V587.84H588.091V604.28H596.671V608.06ZM613.324 594.86V599H612.484C610.564 599 609.044 599.6 607.924 600.8C606.844 601.96 606.304 603.7 606.304 606.02V626H602.404V595.46H605.764L606.004 599.18C607.404 596.3 609.844 594.86 613.324 594.86ZM618.114 626V595.46H622.134V626H618.114ZM618.114 584.84C618.674 584.28 619.334 584 620.094 584C620.854 584 621.514 584.28 622.074 584.84C622.674 585.4 622.974 586.08 622.974 586.88C622.974 587.64 622.694 588.3 622.134 588.86C621.574 589.42 620.894 589.7 620.094 589.7C619.334 589.7 618.674 589.44 618.114 588.92C617.554 588.36 617.274 587.68 617.274 586.88C617.274 586.08 617.554 585.4 618.114 584.84ZM632.305 603.56V607.7H641.545V603.56C641.545 601.92 641.105 600.62 640.225 599.66C639.385 598.7 638.285 598.22 636.925 598.22C635.565 598.22 634.445 598.7 633.565 599.66C632.725 600.62 632.305 601.92 632.305 603.56ZM641.545 617.66V616.1H645.205V617.72C645.205 620.36 644.385 622.5 642.745 624.14C641.145 625.78 639.145 626.6 636.745 626.6C634.345 626.6 632.345 625.8 630.745 624.2C629.185 622.6 628.405 620.5 628.405 617.9V603.68C628.405 601.08 629.225 598.96 630.865 597.32C632.505 595.68 634.525 594.86 636.925 594.86C639.325 594.86 641.305 595.66 642.865 597.26C644.425 598.82 645.205 600.92 645.205 603.56V610.52H632.305V617.66C632.305 619.3 632.725 620.6 633.565 621.56C634.445 622.52 635.565 623 636.925 623C638.285 623 639.385 622.52 640.225 621.56C641.105 620.6 641.545 619.3 641.545 617.66ZM655.112 603.68V626H651.212V595.46H654.572L654.752 598.4C656.112 596.04 658.212 594.86 661.052 594.86C663.092 594.86 664.752 595.58 666.032 597.02C667.352 598.46 668.012 600.44 668.012 602.96V626H664.112V603.68C664.112 602.04 663.712 600.76 662.912 599.84C662.152 598.92 661.112 598.46 659.792 598.46C658.432 598.46 657.312 598.92 656.432 599.84C655.552 600.76 655.112 602.04 655.112 603.68ZM677.598 603.8V617.66C677.598 619.3 678.018 620.6 678.858 621.56C679.738 622.52 680.858 623 682.218 623C683.578 623 684.678 622.52 685.518 621.56C686.398 620.6 686.838 619.3 686.838 617.66V603.8C686.838 602.16 686.398 600.86 685.518 599.9C684.678 598.94 683.578 598.46 682.218 598.46C680.858 598.46 679.738 598.94 678.858 599.9C678.018 600.86 677.598 602.16 677.598 603.8ZM690.738 584V626H687.378L687.198 623.24C685.878 625.48 683.838 626.6 681.078 626.6C678.918 626.6 677.138 625.86 675.738 624.38C674.378 622.9 673.698 620.94 673.698 618.5V603.14C673.698 600.66 674.418 598.66 675.858 597.14C677.298 595.62 679.098 594.86 681.258 594.86C683.658 594.86 685.518 595.74 686.838 597.5V584H690.738ZM697.625 626V584H701.645V626H697.625ZM713.017 626L705.817 595.46H709.957L714.937 619.94L719.917 595.46H723.817L716.377 626.9C715.577 630.3 714.557 632.7 713.317 634.1C712.077 635.5 710.597 636.2 708.877 636.2L707.017 635.96V632.72C707.297 632.8 707.697 632.84 708.217 632.84C709.417 632.84 710.377 632.36 711.097 631.4C711.817 630.48 712.457 628.68 713.017 626ZM750.687 603.56V602.72C750.687 601.4 750.267 600.34 749.427 599.54C748.627 598.7 747.607 598.28 746.367 598.28C745.127 598.28 744.087 598.68 743.247 599.48C742.447 600.28 742.047 601.32 742.047 602.6C742.047 603.84 742.447 604.92 743.247 605.84C744.047 606.72 745.407 607.64 747.327 608.6C749.767 609.76 751.587 611.1 752.787 612.62C753.987 614.14 754.587 616 754.587 618.2C754.587 620.64 753.767 622.66 752.127 624.26C750.487 625.82 748.467 626.6 746.067 626.6C743.667 626.6 741.667 625.84 740.067 624.32C738.507 622.8 737.727 620.78 737.727 618.26V617.3H741.447V618.2C741.447 619.72 741.867 620.92 742.707 621.8C743.587 622.68 744.707 623.12 746.067 623.12C747.427 623.12 748.527 622.68 749.367 621.8C750.247 620.92 750.687 619.74 750.687 618.26C750.687 616.9 750.247 615.72 749.367 614.72C748.487 613.68 746.927 612.62 744.687 611.54C740.327 609.38 738.147 606.4 738.147 602.6C738.147 600.36 738.927 598.52 740.487 597.08C742.087 595.6 744.047 594.86 746.367 594.86C748.687 594.86 750.607 595.6 752.127 597.08C753.647 598.52 754.407 600.38 754.407 602.66V603.56H750.687ZM763.862 603.68V626H759.962V595.46H763.322L763.502 598.34C764.822 596.02 766.862 594.86 769.622 594.86C772.542 594.86 774.562 596.24 775.682 599C776.962 596.24 779.122 594.86 782.162 594.86C784.162 594.86 785.782 595.58 787.022 597.02C788.302 598.46 788.942 600.44 788.942 602.96V626H785.042V603.68C785.042 602 784.682 600.72 783.962 599.84C783.242 598.92 782.222 598.46 780.902 598.46C779.582 598.46 778.502 598.9 777.662 599.78C776.822 600.66 776.402 601.88 776.402 603.44V626H772.502V603.68C772.502 602 772.142 600.72 771.422 599.84C770.702 598.92 769.682 598.46 768.362 598.46C767.042 598.46 765.962 598.92 765.122 599.84C764.282 600.76 763.862 602.04 763.862 603.68ZM795.536 626V595.46H799.556V626H795.536ZM795.536 584.84C796.096 584.28 796.756 584 797.516 584C798.276 584 798.936 584.28 799.496 584.84C800.096 585.4 800.396 586.08 800.396 586.88C800.396 587.64 800.116 588.3 799.556 588.86C798.996 589.42 798.316 589.7 797.516 589.7C796.756 589.7 796.096 589.44 795.536 588.92C794.976 588.36 794.696 587.68 794.696 586.88C794.696 586.08 794.976 585.4 795.536 584.84ZM806.727 626V584H810.747V626H806.727ZM820.918 603.56V607.7H830.158V603.56C830.158 601.92 829.718 600.62 828.838 599.66C827.998 598.7 826.898 598.22 825.538 598.22C824.178 598.22 823.058 598.7 822.178 599.66C821.338 600.62 820.918 601.92 820.918 603.56ZM830.158 617.66V616.1H833.818V617.72C833.818 620.36 832.998 622.5 831.358 624.14C829.758 625.78 827.758 626.6 825.358 626.6C822.958 626.6 820.958 625.8 819.358 624.2C817.798 622.6 817.018 620.5 817.018 617.9V603.68C817.018 601.08 817.838 598.96 819.478 597.32C821.118 595.68 823.138 594.86 825.538 594.86C827.938 594.86 829.918 595.66 831.478 597.26C833.038 598.82 833.818 600.92 833.818 603.56V610.52H820.918V617.66C820.918 619.3 821.338 620.6 822.178 621.56C823.058 622.52 824.178 623 825.538 623C826.898 623 827.998 622.52 828.838 621.56C829.718 620.6 830.158 619.3 830.158 617.66ZM872.917 606.38H849.517V602.84H872.917V606.38Z" fill="white"/>
<path d="M902.84 617.12V611.3H906.74V617.24C906.74 620.04 905.9 622.3 904.22 624.02C902.54 625.74 900.42 626.6 897.86 626.6C895.26 626.6 893.12 625.76 891.44 624.08C889.76 622.4 888.92 620.14 888.92 617.3V592.88C888.92 590.04 889.78 587.76 891.5 586.04C893.22 584.28 895.38 583.4 897.98 583.4C900.54 583.4 902.64 584.24 904.28 585.92C905.92 587.6 906.74 589.84 906.74 592.64V598.1H902.84V592.88C902.84 591.12 902.38 589.74 901.46 588.74C900.58 587.7 899.4 587.18 897.92 587.18C896.44 587.18 895.24 587.7 894.32 588.74C893.4 589.74 892.94 591.12 892.94 592.88V617.12C892.94 618.92 893.4 620.32 894.32 621.32C895.24 622.32 896.44 622.82 897.92 622.82C899.4 622.82 900.58 622.32 901.46 621.32C902.38 620.32 902.84 618.92 902.84 617.12ZM916.846 593.18V616.82C916.846 618.7 917.326 620.18 918.286 621.26C919.286 622.3 920.566 622.82 922.126 622.82C923.686 622.82 924.946 622.3 925.906 621.26C926.866 620.18 927.346 618.7 927.346 616.82V593.18C927.346 591.34 926.866 589.88 925.906 588.8C924.946 587.72 923.686 587.18 922.126 587.18C920.566 587.18 919.286 587.72 918.286 588.8C917.326 589.88 916.846 591.34 916.846 593.18ZM912.826 617V593.18C912.826 590.26 913.706 587.9 915.466 586.1C917.266 584.3 919.506 583.4 922.186 583.4C924.866 583.4 927.066 584.28 928.786 586.04C930.546 587.76 931.426 590.08 931.426 593V616.88C931.426 619.8 930.526 622.16 928.726 623.96C926.966 625.72 924.746 626.6 922.066 626.6C919.386 626.6 917.166 625.74 915.406 624.02C913.686 622.26 912.826 619.92 912.826 617ZM949.616 619.1L941.876 594.14V626H938.036V584H942.176L950.756 611.78L959.336 584H963.236V626H959.396V594.14L951.596 619.1H949.616ZM982.018 619.1L974.278 594.14V626H970.438V584H974.578L983.158 611.78L991.738 584H995.638V626H991.798V594.14L983.998 619.1H982.018ZM1016.52 584H1020.54V617.18C1020.54 620.02 1019.66 622.3 1017.9 624.02C1016.18 625.74 1014.04 626.6 1011.48 626.6C1008.88 626.6 1006.74 625.76 1005.06 624.08C1003.38 622.4 1002.54 620.14 1002.54 617.3V584H1006.62V617.12C1006.62 618.92 1007.08 620.32 1008 621.32C1008.92 622.32 1010.12 622.82 1011.6 622.82C1013.08 622.82 1014.26 622.32 1015.14 621.32C1016.06 620.32 1016.52 618.92 1016.52 617.12V584ZM1042.69 626L1031.11 593.24V626H1027.45V584H1031.35L1042.69 616.04V584H1046.35V626H1042.69ZM1053.82 626V584H1058.02V626H1053.82ZM1081.86 587.84H1074.54V626H1070.46V587.84H1063.14V584H1081.86V587.84ZM1092.78 626V609.08L1084.8 584H1089.12L1094.94 604.16L1100.82 584H1104.9L1096.86 609.2V626H1092.78Z" fill="#B80000"/>
</g>
<defs>
<clipPath id="clip0_1148_2131">
<rect width="1208" height="1208" fill="white"/>
</clipPath>
</defs>
</svg>
