<svg width="1208" height="1208" viewBox="0 0 1208 1208" fill="none" xmlns="http://www.w3.org/2000/svg">
<rect width="1208" height="1208" fill="black"/>
<path d="M176.5 318V301.08L168.52 276H172.84L178.66 296.16L184.54 276H188.62L180.58 301.2V318H176.5ZM193.446 295.56V299.7H202.686V295.56C202.686 293.92 202.246 292.62 201.366 291.66C200.526 290.7 199.426 290.22 198.066 290.22C196.706 290.22 195.586 290.7 194.706 291.66C193.866 292.62 193.446 293.92 193.446 295.56ZM202.686 309.66V308.1H206.346V309.72C206.346 312.36 205.526 314.5 203.886 316.14C202.286 317.78 200.286 318.6 197.886 318.6C195.486 318.6 193.486 317.8 191.886 316.2C190.326 314.6 189.546 312.5 189.546 309.9V295.68C189.546 293.08 190.366 290.96 192.006 289.32C193.646 287.68 195.666 286.86 198.066 286.86C200.466 286.86 202.446 287.66 204.006 289.26C205.566 290.82 206.346 292.92 206.346 295.56V302.52H193.446V309.66C193.446 311.3 193.866 312.6 194.706 313.56C195.586 314.52 196.706 315 198.066 315C199.426 315 200.526 314.52 201.366 313.56C202.246 312.6 202.686 311.3 202.686 309.66ZM224.113 295.56V294.72C224.113 293.4 223.693 292.34 222.853 291.54C222.053 290.7 221.033 290.28 219.793 290.28C218.553 290.28 217.513 290.68 216.673 291.48C215.873 292.28 215.473 293.32 215.473 294.6C215.473 295.84 215.873 296.92 216.673 297.84C217.473 298.72 218.833 299.64 220.753 300.6C223.193 301.76 225.013 303.1 226.213 304.62C227.413 306.14 228.013 308 228.013 310.2C228.013 312.64 227.193 314.66 225.553 316.26C223.913 317.82 221.893 318.6 219.493 318.6C217.093 318.6 215.093 317.84 213.493 316.32C211.933 314.8 211.153 312.78 211.153 310.26V309.3H214.873V310.2C214.873 311.72 215.293 312.92 216.133 313.8C217.013 314.68 218.133 315.12 219.493 315.12C220.853 315.12 221.953 314.68 222.793 313.8C223.673 312.92 224.113 311.74 224.113 310.26C224.113 308.9 223.673 307.72 222.793 306.72C221.913 305.68 220.353 304.62 218.113 303.54C213.753 301.38 211.573 298.4 211.573 294.6C211.573 292.36 212.353 290.52 213.913 289.08C215.513 287.6 217.473 286.86 219.793 286.86C222.113 286.86 224.033 287.6 225.553 289.08C227.073 290.52 227.833 292.38 227.833 294.66V295.56H224.113ZM235.728 325.8H232.488L232.848 312H237.228L235.728 325.8ZM258.63 318L251.43 287.46H255.57L260.55 311.94L265.53 287.46H269.43L261.99 318.9C261.19 322.3 260.17 324.7 258.93 326.1C257.69 327.5 256.21 328.2 254.49 328.2L252.63 327.96V324.72C252.91 324.8 253.31 324.84 253.83 324.84C255.03 324.84 255.99 324.36 256.71 323.4C257.43 322.48 258.07 320.68 258.63 318ZM276.649 295.8V309.66C276.649 311.3 277.069 312.6 277.909 313.56C278.789 314.52 279.909 315 281.269 315C282.629 315 283.729 314.52 284.569 313.56C285.449 312.6 285.889 311.3 285.889 309.66V295.8C285.889 294.16 285.449 292.86 284.569 291.9C283.729 290.94 282.629 290.46 281.269 290.46C279.909 290.46 278.789 290.94 277.909 291.9C277.069 292.86 276.649 294.16 276.649 295.8ZM272.749 309.84V295.8C272.749 293.16 273.569 291.02 275.209 289.38C276.849 287.7 278.889 286.86 281.329 286.86C283.729 286.86 285.729 287.68 287.329 289.32C288.969 290.92 289.789 293.02 289.789 295.62V309.66C289.789 312.26 288.949 314.4 287.269 316.08C285.629 317.76 283.609 318.6 281.209 318.6C278.809 318.6 276.789 317.8 275.149 316.2C273.549 314.6 272.749 312.48 272.749 309.84ZM308.39 309.78V287.46H312.29V318H308.93L308.75 315.06C307.39 317.42 305.29 318.6 302.45 318.6C300.41 318.6 298.73 317.88 297.41 316.44C296.13 315 295.49 313.02 295.49 310.5V287.46H299.39V309.78C299.39 311.42 299.77 312.7 300.53 313.62C301.33 314.54 302.39 315 303.71 315C305.07 315 306.19 314.54 307.07 313.62C307.95 312.7 308.39 311.42 308.39 309.78ZM346.868 318H342.968V295.68C342.968 294.04 342.568 292.76 341.768 291.84C341.008 290.92 339.968 290.46 338.648 290.46C337.288 290.46 336.168 290.9 335.288 291.78C334.408 292.66 333.968 293.86 333.968 295.38V318H330.068V276H333.968V290.1C335.328 287.94 337.308 286.86 339.908 286.86C341.948 286.86 343.608 287.58 344.888 289.02C346.208 290.46 346.868 292.44 346.868 294.96V318ZM356.454 295.56V299.7H365.694V295.56C365.694 293.92 365.254 292.62 364.374 291.66C363.534 290.7 362.434 290.22 361.074 290.22C359.714 290.22 358.594 290.7 357.714 291.66C356.874 292.62 356.454 293.92 356.454 295.56ZM365.694 309.66V308.1H369.354V309.72C369.354 312.36 368.534 314.5 366.894 316.14C365.294 317.78 363.294 318.6 360.894 318.6C358.494 318.6 356.494 317.8 354.894 316.2C353.334 314.6 352.554 312.5 352.554 309.9V295.68C352.554 293.08 353.374 290.96 355.014 289.32C356.654 287.68 358.674 286.86 361.074 286.86C363.474 286.86 365.454 287.66 367.014 289.26C368.574 290.82 369.354 292.92 369.354 295.56V302.52H356.454V309.66C356.454 311.3 356.874 312.6 357.714 313.56C358.594 314.52 359.714 315 361.074 315C362.434 315 363.534 314.52 364.374 313.56C365.254 312.6 365.694 311.3 365.694 309.66ZM378.361 308.4V309.72C378.361 311.4 378.801 312.76 379.681 313.8C380.561 314.8 381.721 315.3 383.161 315.3C384.601 315.3 385.761 314.8 386.641 313.8C387.521 312.76 387.961 311.4 387.961 309.72V308.4C387.961 306.72 387.521 305.38 386.641 304.38C385.761 303.34 384.601 302.82 383.161 302.82C381.721 302.82 380.561 303.34 379.681 304.38C378.801 305.38 378.361 306.72 378.361 308.4ZM374.461 309.9V308.52C374.461 305.92 375.201 303.8 376.681 302.16C378.161 300.48 380.021 299.64 382.261 299.64C384.661 299.64 386.561 300.6 387.961 302.52V295.32C387.961 293.8 387.541 292.58 386.701 291.66C385.901 290.74 384.881 290.28 383.641 290.28C382.401 290.28 381.361 290.74 380.521 291.66C379.721 292.58 379.321 293.8 379.321 295.32V296.58H375.601V295.5C375.601 292.94 376.381 290.86 377.941 289.26C379.501 287.66 381.421 286.86 383.701 286.86C386.021 286.86 387.961 287.64 389.521 289.2C391.081 290.76 391.861 292.8 391.861 295.32V318H388.681L388.381 315C386.941 317.4 384.841 318.6 382.081 318.6C379.841 318.6 378.001 317.82 376.561 316.26C375.161 314.66 374.461 312.54 374.461 309.9ZM409.074 286.86V291H408.234C406.314 291 404.794 291.6 403.674 292.8C402.594 293.96 402.054 295.7 402.054 298.02V318H398.154V287.46H401.514L401.754 291.18C403.154 288.3 405.594 286.86 409.074 286.86ZM415.692 295.8V309.66C415.692 311.3 416.112 312.6 416.952 313.56C417.832 314.52 418.952 315 420.312 315C421.672 315 422.772 314.52 423.612 313.56C424.492 312.6 424.932 311.3 424.932 309.66V295.8C424.932 294.16 424.492 292.86 423.612 291.9C422.772 290.94 421.672 290.46 420.312 290.46C418.952 290.46 417.832 290.94 416.952 291.9C416.112 292.86 415.692 294.16 415.692 295.8ZM428.832 276V318H425.472L425.292 315.24C423.972 317.48 421.932 318.6 419.172 318.6C417.012 318.6 415.232 317.86 413.832 316.38C412.472 314.9 411.792 312.94 411.792 310.5V295.14C411.792 292.66 412.512 290.66 413.952 289.14C415.392 287.62 417.192 286.86 419.352 286.86C421.752 286.86 423.612 287.74 424.932 289.5V276H428.832ZM444.511 290.76V287.46H448.411V279.6H452.311V287.46H458.611V290.76H452.311V310.5C452.311 313.5 453.571 315 456.091 315L458.311 314.82V318.24C457.391 318.48 456.351 318.6 455.191 318.6C453.071 318.6 451.411 317.96 450.211 316.68C449.011 315.4 448.411 313.52 448.411 311.04V290.76H444.511ZM480.52 318H476.62V295.68C476.62 294.04 476.22 292.76 475.42 291.84C474.66 290.92 473.62 290.46 472.3 290.46C470.94 290.46 469.82 290.9 468.94 291.78C468.06 292.66 467.62 293.86 467.62 295.38V318H463.72V276H467.62V290.1C468.98 287.94 470.96 286.86 473.56 286.86C475.6 286.86 477.26 287.58 478.54 289.02C479.86 290.46 480.52 292.44 480.52 294.96V318ZM489.806 308.4V309.72C489.806 311.4 490.246 312.76 491.126 313.8C492.006 314.8 493.166 315.3 494.606 315.3C496.046 315.3 497.206 314.8 498.086 313.8C498.966 312.76 499.406 311.4 499.406 309.72V308.4C499.406 306.72 498.966 305.38 498.086 304.38C497.206 303.34 496.046 302.82 494.606 302.82C493.166 302.82 492.006 303.34 491.126 304.38C490.246 305.38 489.806 306.72 489.806 308.4ZM485.906 309.9V308.52C485.906 305.92 486.646 303.8 488.126 302.16C489.606 300.48 491.466 299.64 493.706 299.64C496.106 299.64 498.006 300.6 499.406 302.52V295.32C499.406 293.8 498.986 292.58 498.146 291.66C497.346 290.74 496.326 290.28 495.086 290.28C493.846 290.28 492.806 290.74 491.966 291.66C491.166 292.58 490.766 293.8 490.766 295.32V296.58H487.046V295.5C487.046 292.94 487.826 290.86 489.386 289.26C490.946 287.66 492.866 286.86 495.146 286.86C497.466 286.86 499.406 287.64 500.966 289.2C502.526 290.76 503.306 292.8 503.306 295.32V318H500.126L499.826 315C498.386 317.4 496.286 318.6 493.526 318.6C491.286 318.6 489.446 317.82 488.006 316.26C486.606 314.66 485.906 312.54 485.906 309.9ZM507.206 290.76V287.46H511.106V279.6H515.006V287.46H521.306V290.76H515.006V310.5C515.006 313.5 516.266 315 518.786 315L521.006 314.82V318.24C520.086 318.48 519.046 318.6 517.886 318.6C515.766 318.6 514.106 317.96 512.906 316.68C511.706 315.4 511.106 313.52 511.106 311.04V290.76H507.206ZM548.527 286.86V291H547.687C545.767 291 544.247 291.6 543.127 292.8C542.047 293.96 541.507 295.7 541.507 298.02V318H537.607V287.46H540.967L541.207 291.18C542.607 288.3 545.047 286.86 548.527 286.86ZM553.317 318V287.46H557.337V318H553.317ZM553.317 276.84C553.877 276.28 554.537 276 555.297 276C556.057 276 556.717 276.28 557.277 276.84C557.877 277.4 558.177 278.08 558.177 278.88C558.177 279.64 557.897 280.3 557.337 280.86C556.777 281.42 556.097 281.7 555.297 281.7C554.537 281.7 553.877 281.44 553.317 280.92C552.757 280.36 552.477 279.68 552.477 278.88C552.477 278.08 552.757 277.4 553.317 276.84ZM567.508 295.8V307.08C567.508 308.72 567.928 310.02 568.768 310.98C569.648 311.94 570.768 312.42 572.128 312.42C573.448 312.42 574.548 311.96 575.428 311.04C576.308 310.08 576.748 308.8 576.748 307.2V295.8C576.748 294.16 576.308 292.86 575.428 291.9C574.588 290.94 573.488 290.46 572.128 290.46C570.768 290.46 569.648 290.94 568.768 291.9C567.928 292.86 567.508 294.16 567.508 295.8ZM580.648 287.46V319.26C580.648 321.86 579.808 324 578.128 325.68C576.488 327.36 574.468 328.2 572.068 328.2C569.668 328.2 567.688 327.4 566.128 325.8C564.568 324.2 563.788 322.08 563.788 319.44V318.48H567.508V319.38C567.508 321.02 567.928 322.32 568.768 323.28C569.648 324.24 570.768 324.72 572.128 324.72C573.488 324.72 574.588 324.24 575.428 323.28C576.308 322.32 576.748 321.02 576.748 319.38V313.08C575.388 314.96 573.468 315.9 570.988 315.9C568.828 315.9 567.048 315.16 565.648 313.68C564.288 312.2 563.608 310.24 563.608 307.8V295.14C563.608 292.66 564.328 290.66 565.768 289.14C567.208 287.62 569.008 286.86 571.168 286.86C573.768 286.86 575.748 287.92 577.108 290.04L577.288 287.46H580.648ZM604.036 318H600.136V295.68C600.136 294.04 599.736 292.76 598.936 291.84C598.176 290.92 597.136 290.46 595.816 290.46C594.456 290.46 593.336 290.9 592.456 291.78C591.576 292.66 591.136 293.86 591.136 295.38V318H587.236V276H591.136V290.1C592.496 287.94 594.476 286.86 597.076 286.86C599.116 286.86 600.776 287.58 602.056 289.02C603.376 290.46 604.036 292.44 604.036 294.96V318ZM607.929 290.76V287.46H611.829V279.6H615.729V287.46H622.029V290.76H615.729V310.5C615.729 313.5 616.989 315 619.509 315L621.729 314.82V318.24C620.809 318.48 619.769 318.6 618.609 318.6C616.489 318.6 614.829 317.96 613.629 316.68C612.429 315.4 611.829 313.52 611.829 311.04V290.76H607.929ZM629.344 312.9C630.144 312.9 630.824 313.2 631.384 313.8C631.944 314.36 632.224 315.02 632.224 315.78C632.224 316.54 631.944 317.2 631.384 317.76C630.824 318.32 630.144 318.6 629.344 318.6C628.544 318.6 627.864 318.32 627.304 317.76C626.784 317.2 626.524 316.54 626.524 315.78C626.524 314.98 626.804 314.3 627.364 313.74C627.924 313.18 628.584 312.9 629.344 312.9ZM653.138 279.48V294.48H657.218C659.058 294.48 660.478 293.92 661.478 292.8C662.518 291.64 663.038 290 663.038 287.88V286.08C663.038 283.96 662.518 282.34 661.478 281.22C660.478 280.06 659.058 279.48 657.218 279.48H653.138ZM649.118 318V276H657.578C660.498 276 662.818 276.88 664.538 278.64C666.258 280.36 667.118 282.78 667.118 285.9V286.98C667.118 291.3 665.518 294.26 662.318 295.86C664.038 296.54 665.358 297.66 666.278 299.22C667.238 300.78 667.718 302.7 667.718 304.98V307.98C667.718 311.06 666.818 313.5 665.018 315.3C663.258 317.1 660.938 318 658.058 318H649.118ZM653.138 297.72V314.58H657.818C659.658 314.58 661.078 314.02 662.078 312.9C663.118 311.74 663.638 310.1 663.638 307.98V304.32C663.638 302.2 663.118 300.58 662.078 299.46C661.078 298.3 659.658 297.72 657.818 297.72H653.138ZM673.727 318V287.46H677.747V318H673.727ZM673.727 276.84C674.287 276.28 674.947 276 675.707 276C676.467 276 677.127 276.28 677.687 276.84C678.287 277.4 678.587 278.08 678.587 278.88C678.587 279.64 678.307 280.3 677.747 280.86C677.187 281.42 676.507 281.7 675.707 281.7C674.947 281.7 674.287 281.44 673.727 280.92C673.167 280.36 672.887 279.68 672.887 278.88C672.887 278.08 673.167 277.4 673.727 276.84ZM687.918 295.8V307.08C687.918 308.72 688.338 310.02 689.178 310.98C690.058 311.94 691.178 312.42 692.538 312.42C693.858 312.42 694.958 311.96 695.838 311.04C696.718 310.08 697.158 308.8 697.158 307.2V295.8C697.158 294.16 696.718 292.86 695.838 291.9C694.998 290.94 693.898 290.46 692.538 290.46C691.178 290.46 690.058 290.94 689.178 291.9C688.338 292.86 687.918 294.16 687.918 295.8ZM701.058 287.46V319.26C701.058 321.86 700.218 324 698.538 325.68C696.898 327.36 694.878 328.2 692.478 328.2C690.078 328.2 688.098 327.4 686.538 325.8C684.978 324.2 684.198 322.08 684.198 319.44V318.48H687.918V319.38C687.918 321.02 688.338 322.32 689.178 323.28C690.058 324.24 691.178 324.72 692.538 324.72C693.898 324.72 694.998 324.24 695.838 323.28C696.718 322.32 697.158 321.02 697.158 319.38V313.08C695.798 314.96 693.878 315.9 691.398 315.9C689.238 315.9 687.458 315.16 686.058 313.68C684.698 312.2 684.018 310.24 684.018 307.8V295.14C684.018 292.66 684.738 290.66 686.178 289.14C687.618 287.62 689.418 286.86 691.578 286.86C694.178 286.86 696.158 287.92 697.518 290.04L697.698 287.46H701.058ZM716.737 290.76V287.46H720.637V282.96C720.637 280.48 721.237 278.6 722.437 277.32C723.637 276.04 725.297 275.4 727.417 275.4L730.537 275.76V279.12C729.737 279 728.997 278.94 728.317 278.94C725.797 278.94 724.537 280.44 724.537 283.44V287.46H730.537V290.76H724.537V318H720.637V290.76H716.737ZM747.609 309.78V287.46H751.509V318H748.149L747.969 315.06C746.609 317.42 744.509 318.6 741.669 318.6C739.629 318.6 737.949 317.88 736.629 316.44C735.349 315 734.709 313.02 734.709 310.5V287.46H738.609V309.78C738.609 311.42 738.989 312.7 739.749 313.62C740.549 314.54 741.609 315 742.929 315C744.289 315 745.409 314.54 746.289 313.62C747.169 312.7 747.609 311.42 747.609 309.78ZM770.155 306.3H773.875V309.9C773.875 312.42 773.075 314.5 771.475 316.14C769.915 317.78 767.995 318.6 765.715 318.6C763.355 318.6 761.395 317.82 759.835 316.26C758.275 314.66 757.495 312.6 757.495 310.08V295.56C757.495 293 758.295 290.92 759.895 289.32C761.535 287.68 763.515 286.86 765.835 286.86C768.155 286.86 770.075 287.64 771.595 289.2C773.115 290.76 773.875 292.82 773.875 295.38V298.86H770.155V295.56C770.155 294 769.735 292.76 768.895 291.84C768.095 290.92 767.055 290.46 765.775 290.46C764.495 290.46 763.435 290.92 762.595 291.84C761.795 292.76 761.395 294 761.395 295.56V309.9C761.395 311.46 761.795 312.7 762.595 313.62C763.435 314.54 764.495 315 765.775 315C767.055 315 768.095 314.54 768.895 313.62C769.735 312.7 770.155 311.46 770.155 309.9V306.3ZM779.892 318V276H783.792V300.78L792.132 287.46H796.692L787.452 301.26L797.292 318H792.672L783.792 302.34V318H779.892ZM801.52 318V287.46H805.54V318H801.52ZM801.52 276.84C802.08 276.28 802.74 276 803.5 276C804.26 276 804.92 276.28 805.48 276.84C806.08 277.4 806.38 278.08 806.38 278.88C806.38 279.64 806.1 280.3 805.54 280.86C804.98 281.42 804.3 281.7 803.5 281.7C802.74 281.7 802.08 281.44 801.52 280.92C800.96 280.36 800.68 279.68 800.68 278.88C800.68 278.08 800.96 277.4 801.52 276.84ZM816.311 295.68V318H812.411V287.46H815.771L815.951 290.4C817.311 288.04 819.411 286.86 822.251 286.86C824.291 286.86 825.951 287.58 827.231 289.02C828.551 290.46 829.211 292.44 829.211 294.96V318H825.311V295.68C825.311 294.04 824.911 292.76 824.111 291.84C823.351 290.92 822.311 290.46 820.991 290.46C819.631 290.46 818.511 290.92 817.631 291.84C816.751 292.76 816.311 294.04 816.311 295.68ZM838.797 295.8V307.08C838.797 308.72 839.217 310.02 840.057 310.98C840.937 311.94 842.057 312.42 843.417 312.42C844.737 312.42 845.837 311.96 846.717 311.04C847.597 310.08 848.037 308.8 848.037 307.2V295.8C848.037 294.16 847.597 292.86 846.717 291.9C845.877 290.94 844.777 290.46 843.417 290.46C842.057 290.46 840.937 290.94 840.057 291.9C839.217 292.86 838.797 294.16 838.797 295.8ZM851.937 287.46V319.26C851.937 321.86 851.097 324 849.417 325.68C847.777 327.36 845.757 328.2 843.357 328.2C840.957 328.2 838.977 327.4 837.417 325.8C835.857 324.2 835.077 322.08 835.077 319.44V318.48H838.797V319.38C838.797 321.02 839.217 322.32 840.057 323.28C840.937 324.24 842.057 324.72 843.417 324.72C844.777 324.72 845.877 324.24 846.717 323.28C847.597 322.32 848.037 321.02 848.037 319.38V313.08C846.677 314.96 844.757 315.9 842.277 315.9C840.117 315.9 838.337 315.16 836.937 313.68C835.577 312.2 834.897 310.24 834.897 307.8V295.14C834.897 292.66 835.617 290.66 837.057 289.14C838.497 287.62 840.297 286.86 842.457 286.86C845.057 286.86 847.037 287.92 848.397 290.04L848.577 287.46H851.937ZM882.856 309.66V295.8C882.856 294.16 882.416 292.86 881.536 291.9C880.696 290.94 879.596 290.46 878.236 290.46C876.876 290.46 875.756 290.94 874.876 291.9C874.036 292.86 873.616 294.16 873.616 295.8V309.66C873.616 311.3 874.036 312.6 874.876 313.56C875.756 314.52 876.876 315 878.236 315C879.596 315 880.696 314.52 881.536 313.56C882.416 312.6 882.856 311.3 882.856 309.66ZM869.716 318V276H873.616V289.74C874.976 287.82 876.876 286.86 879.316 286.86C881.516 286.86 883.296 287.6 884.656 289.08C886.056 290.56 886.756 292.52 886.756 294.96V310.32C886.756 312.76 886.036 314.76 884.596 316.32C883.156 317.84 881.356 318.6 879.196 318.6C876.476 318.6 874.496 317.54 873.256 315.42L873.076 318H869.716ZM895.743 308.4V309.72C895.743 311.4 896.183 312.76 897.063 313.8C897.943 314.8 899.103 315.3 900.543 315.3C901.983 315.3 903.143 314.8 904.023 313.8C904.903 312.76 905.343 311.4 905.343 309.72V308.4C905.343 306.72 904.903 305.38 904.023 304.38C903.143 303.34 901.983 302.82 900.543 302.82C899.103 302.82 897.943 303.34 897.063 304.38C896.183 305.38 895.743 306.72 895.743 308.4ZM891.843 309.9V308.52C891.843 305.92 892.583 303.8 894.063 302.16C895.543 300.48 897.403 299.64 899.643 299.64C902.043 299.64 903.943 300.6 905.343 302.52V295.32C905.343 293.8 904.923 292.58 904.083 291.66C903.283 290.74 902.263 290.28 901.023 290.28C899.783 290.28 898.743 290.74 897.903 291.66C897.103 292.58 896.703 293.8 896.703 295.32V296.58H892.983V295.5C892.983 292.94 893.763 290.86 895.323 289.26C896.883 287.66 898.803 286.86 901.083 286.86C903.403 286.86 905.343 287.64 906.903 289.2C908.463 290.76 909.243 292.8 909.243 295.32V318H906.063L905.763 315C904.323 317.4 902.223 318.6 899.463 318.6C897.223 318.6 895.383 317.82 893.943 316.26C892.543 314.66 891.843 312.54 891.843 309.9ZM915.836 318V276H919.856V318H915.836ZM927.028 318V276H931.048V318H927.028ZM949.679 295.56V294.72C949.679 293.4 949.259 292.34 948.419 291.54C947.619 290.7 946.599 290.28 945.359 290.28C944.119 290.28 943.079 290.68 942.239 291.48C941.439 292.28 941.039 293.32 941.039 294.6C941.039 295.84 941.439 296.92 942.239 297.84C943.039 298.72 944.399 299.64 946.319 300.6C948.759 301.76 950.579 303.1 951.779 304.62C952.979 306.14 953.579 308 953.579 310.2C953.579 312.64 952.759 314.66 951.119 316.26C949.479 317.82 947.459 318.6 945.059 318.6C942.659 318.6 940.659 317.84 939.059 316.32C937.499 314.8 936.719 312.78 936.719 310.26V309.3H940.439V310.2C940.439 311.72 940.859 312.92 941.699 313.8C942.579 314.68 943.699 315.12 945.059 315.12C946.419 315.12 947.519 314.68 948.359 313.8C949.239 312.92 949.679 311.74 949.679 310.26C949.679 308.9 949.239 307.72 948.359 306.72C947.479 305.68 945.919 304.62 943.679 303.54C939.319 301.38 937.139 298.4 937.139 294.6C937.139 292.36 937.919 290.52 939.479 289.08C941.079 287.6 943.039 286.86 945.359 286.86C947.679 286.86 949.599 287.6 951.119 289.08C952.639 290.52 953.399 292.38 953.399 294.66V295.56H949.679ZM960.574 312.9C961.374 312.9 962.054 313.2 962.614 313.8C963.174 314.36 963.454 315.02 963.454 315.78C963.454 316.54 963.174 317.2 962.614 317.76C962.054 318.32 961.374 318.6 960.574 318.6C959.774 318.6 959.094 318.32 958.534 317.76C958.014 317.2 957.754 316.54 957.754 315.78C957.754 314.98 958.034 314.3 958.594 313.74C959.154 313.18 959.814 312.9 960.574 312.9ZM995.588 318L984.008 285.24V318H980.348V276H984.248L995.588 308.04V276H999.248V318H995.588ZM1009.42 295.8V309.66C1009.42 311.3 1009.84 312.6 1010.68 313.56C1011.56 314.52 1012.68 315 1014.04 315C1015.4 315 1016.5 314.52 1017.34 313.56C1018.22 312.6 1018.66 311.3 1018.66 309.66V295.8C1018.66 294.16 1018.22 292.86 1017.34 291.9C1016.5 290.94 1015.4 290.46 1014.04 290.46C1012.68 290.46 1011.56 290.94 1010.68 291.9C1009.84 292.86 1009.42 294.16 1009.42 295.8ZM1005.52 309.84V295.8C1005.52 293.16 1006.34 291.02 1007.98 289.38C1009.62 287.7 1011.66 286.86 1014.1 286.86C1016.5 286.86 1018.5 287.68 1020.1 289.32C1021.74 290.92 1022.56 293.02 1022.56 295.62V309.66C1022.56 312.26 1021.72 314.4 1020.04 316.08C1018.4 317.76 1016.38 318.6 1013.98 318.6C1011.58 318.6 1009.56 317.8 1007.92 316.2C1006.32 314.6 1005.52 312.48 1005.52 309.84ZM1026.17 290.76V287.46H1030.07V279.6H1033.97V287.46H1040.27V290.76H1033.97V310.5C1033.97 313.5 1035.23 315 1037.75 315L1039.97 314.82V318.24C1039.05 318.48 1038.01 318.6 1036.85 318.6C1034.73 318.6 1033.07 317.96 1031.87 316.68C1030.67 315.4 1030.07 313.52 1030.07 311.04V290.76H1026.17ZM179.995 378.66V364.8C179.995 363.16 179.555 361.86 178.675 360.9C177.835 359.94 176.735 359.46 175.375 359.46C174.015 359.46 172.895 359.94 172.015 360.9C171.175 361.86 170.755 363.16 170.755 364.8V378.66C170.755 380.3 171.175 381.6 172.015 382.56C172.895 383.52 174.015 384 175.375 384C176.735 384 177.835 383.52 178.675 382.56C179.555 381.6 179.995 380.3 179.995 378.66ZM166.855 387V345H170.755V358.74C172.115 356.82 174.015 355.86 176.455 355.86C178.655 355.86 180.435 356.6 181.795 358.08C183.195 359.56 183.895 361.52 183.895 363.96V379.32C183.895 381.76 183.175 383.76 181.735 385.32C180.295 386.84 178.495 387.6 176.335 387.6C173.615 387.6 171.635 386.54 170.395 384.42L170.215 387H166.855ZM193.182 364.56V368.7H202.422V364.56C202.422 362.92 201.982 361.62 201.102 360.66C200.262 359.7 199.162 359.22 197.802 359.22C196.442 359.22 195.322 359.7 194.442 360.66C193.602 361.62 193.182 362.92 193.182 364.56ZM202.422 378.66V377.1H206.082V378.72C206.082 381.36 205.262 383.5 203.622 385.14C202.022 386.78 200.022 387.6 197.622 387.6C195.222 387.6 193.222 386.8 191.622 385.2C190.062 383.6 189.282 381.5 189.282 378.9V364.68C189.282 362.08 190.102 359.96 191.742 358.32C193.382 356.68 195.402 355.86 197.802 355.86C200.202 355.86 202.182 356.66 203.742 358.26C205.302 359.82 206.082 361.92 206.082 364.56V371.52H193.182V378.66C193.182 380.3 193.602 381.6 194.442 382.56C195.322 383.52 196.442 384 197.802 384C199.162 384 200.262 383.52 201.102 382.56C201.982 381.6 202.422 380.3 202.422 378.66ZM224.149 375.3H227.869V378.9C227.869 381.42 227.069 383.5 225.469 385.14C223.909 386.78 221.989 387.6 219.709 387.6C217.349 387.6 215.389 386.82 213.829 385.26C212.269 383.66 211.489 381.6 211.489 379.08V364.56C211.489 362 212.289 359.92 213.889 358.32C215.529 356.68 217.509 355.86 219.829 355.86C222.149 355.86 224.069 356.64 225.589 358.2C227.109 359.76 227.869 361.82 227.869 364.38V367.86H224.149V364.56C224.149 363 223.729 361.76 222.889 360.84C222.089 359.92 221.049 359.46 219.769 359.46C218.489 359.46 217.429 359.92 216.589 360.84C215.789 361.76 215.389 363 215.389 364.56V378.9C215.389 380.46 215.789 381.7 216.589 382.62C217.429 383.54 218.489 384 219.769 384C221.049 384 222.089 383.54 222.889 382.62C223.729 381.7 224.149 380.46 224.149 378.9V375.3ZM236.886 377.4V378.72C236.886 380.4 237.326 381.76 238.206 382.8C239.086 383.8 240.246 384.3 241.686 384.3C243.126 384.3 244.286 383.8 245.166 382.8C246.046 381.76 246.486 380.4 246.486 378.72V377.4C246.486 375.72 246.046 374.38 245.166 373.38C244.286 372.34 243.126 371.82 241.686 371.82C240.246 371.82 239.086 372.34 238.206 373.38C237.326 374.38 236.886 375.72 236.886 377.4ZM232.986 378.9V377.52C232.986 374.92 233.726 372.8 235.206 371.16C236.686 369.48 238.546 368.64 240.786 368.64C243.186 368.64 245.086 369.6 246.486 371.52V364.32C246.486 362.8 246.066 361.58 245.226 360.66C244.426 359.74 243.406 359.28 242.166 359.28C240.926 359.28 239.886 359.74 239.046 360.66C238.246 361.58 237.846 362.8 237.846 364.32V365.58H234.126V364.5C234.126 361.94 234.906 359.86 236.466 358.26C238.026 356.66 239.946 355.86 242.226 355.86C244.546 355.86 246.486 356.64 248.046 358.2C249.606 359.76 250.386 361.8 250.386 364.32V387H247.206L246.906 384C245.466 386.4 243.366 387.6 240.606 387.6C238.366 387.6 236.526 386.82 235.086 385.26C233.686 383.66 232.986 381.54 232.986 378.9ZM269.279 378.78V356.46H273.179V387H269.819L269.639 384.06C268.279 386.42 266.179 387.6 263.339 387.6C261.299 387.6 259.619 386.88 258.299 385.44C257.019 384 256.379 382.02 256.379 379.5V356.46H260.279V378.78C260.279 380.42 260.659 381.7 261.419 382.62C262.219 383.54 263.279 384 264.599 384C265.959 384 267.079 383.54 267.959 382.62C268.839 381.7 269.279 380.42 269.279 378.78ZM291.525 364.56V363.72C291.525 362.4 291.105 361.34 290.265 360.54C289.465 359.7 288.445 359.28 287.205 359.28C285.965 359.28 284.925 359.68 284.085 360.48C283.285 361.28 282.885 362.32 282.885 363.6C282.885 364.84 283.285 365.92 284.085 366.84C284.885 367.72 286.245 368.64 288.165 369.6C290.605 370.76 292.425 372.1 293.625 373.62C294.825 375.14 295.425 377 295.425 379.2C295.425 381.64 294.605 383.66 292.965 385.26C291.325 386.82 289.305 387.6 286.905 387.6C284.505 387.6 282.505 386.84 280.905 385.32C279.345 383.8 278.565 381.78 278.565 379.26V378.3H282.285V379.2C282.285 380.72 282.705 381.92 283.545 382.8C284.425 383.68 285.545 384.12 286.905 384.12C288.265 384.12 289.365 383.68 290.205 382.8C291.085 381.92 291.525 380.74 291.525 379.26C291.525 377.9 291.085 376.72 290.205 375.72C289.325 374.68 287.765 373.62 285.525 372.54C281.165 370.38 278.985 367.4 278.985 363.6C278.985 361.36 279.765 359.52 281.325 358.08C282.925 356.6 284.885 355.86 287.205 355.86C289.525 355.86 291.445 356.6 292.965 358.08C294.485 359.52 295.245 361.38 295.245 363.66V364.56H291.525ZM304.1 364.56V368.7H313.34V364.56C313.34 362.92 312.9 361.62 312.02 360.66C311.18 359.7 310.08 359.22 308.72 359.22C307.36 359.22 306.24 359.7 305.36 360.66C304.52 361.62 304.1 362.92 304.1 364.56ZM313.34 378.66V377.1H317V378.72C317 381.36 316.18 383.5 314.54 385.14C312.94 386.78 310.94 387.6 308.54 387.6C306.14 387.6 304.14 386.8 302.54 385.2C300.98 383.6 300.2 381.5 300.2 378.9V364.68C300.2 362.08 301.02 359.96 302.66 358.32C304.3 356.68 306.32 355.86 308.72 355.86C311.12 355.86 313.1 356.66 314.66 358.26C316.22 359.82 317 361.92 317 364.56V371.52H304.1V378.66C304.1 380.3 304.52 381.6 305.36 382.56C306.24 383.52 307.36 384 308.72 384C310.08 384 311.18 383.52 312.02 382.56C312.9 381.6 313.34 380.3 313.34 378.66ZM350.998 387H347.098V364.68C347.098 363.04 346.698 361.76 345.898 360.84C345.138 359.92 344.098 359.46 342.778 359.46C341.418 359.46 340.298 359.9 339.418 360.78C338.538 361.66 338.098 362.86 338.098 364.38V387H334.198V345H338.098V359.1C339.458 356.94 341.438 355.86 344.038 355.86C346.078 355.86 347.738 356.58 349.018 358.02C350.338 359.46 350.998 361.44 350.998 363.96V387ZM360.584 364.56V368.7H369.824V364.56C369.824 362.92 369.384 361.62 368.504 360.66C367.664 359.7 366.564 359.22 365.204 359.22C363.844 359.22 362.724 359.7 361.844 360.66C361.004 361.62 360.584 362.92 360.584 364.56ZM369.824 378.66V377.1H373.484V378.72C373.484 381.36 372.664 383.5 371.024 385.14C369.424 386.78 367.424 387.6 365.024 387.6C362.624 387.6 360.624 386.8 359.024 385.2C357.464 383.6 356.684 381.5 356.684 378.9V364.68C356.684 362.08 357.504 359.96 359.144 358.32C360.784 356.68 362.804 355.86 365.204 355.86C367.604 355.86 369.584 356.66 371.144 358.26C372.704 359.82 373.484 361.92 373.484 364.56V371.52H360.584V378.66C360.584 380.3 361.004 381.6 361.844 382.56C362.724 383.52 363.844 384 365.204 384C366.564 384 367.664 383.52 368.504 382.56C369.384 381.6 369.824 380.3 369.824 378.66ZM381.831 358.8H378.591L378.951 345H383.331L381.831 358.8ZM400.802 364.56V363.72C400.802 362.4 400.382 361.34 399.542 360.54C398.742 359.7 397.722 359.28 396.482 359.28C395.242 359.28 394.202 359.68 393.362 360.48C392.562 361.28 392.162 362.32 392.162 363.6C392.162 364.84 392.562 365.92 393.362 366.84C394.162 367.72 395.522 368.64 397.442 369.6C399.882 370.76 401.702 372.1 402.902 373.62C404.102 375.14 404.702 377 404.702 379.2C404.702 381.64 403.882 383.66 402.242 385.26C400.602 386.82 398.582 387.6 396.182 387.6C393.782 387.6 391.782 386.84 390.182 385.32C388.622 383.8 387.842 381.78 387.842 379.26V378.3H391.562V379.2C391.562 380.72 391.982 381.92 392.822 382.8C393.702 383.68 394.822 384.12 396.182 384.12C397.542 384.12 398.642 383.68 399.482 382.8C400.362 381.92 400.802 380.74 400.802 379.26C400.802 377.9 400.362 376.72 399.482 375.72C398.602 374.68 397.042 373.62 394.802 372.54C390.442 370.38 388.262 367.4 388.262 363.6C388.262 361.36 389.042 359.52 390.602 358.08C392.202 356.6 394.162 355.86 396.482 355.86C398.802 355.86 400.722 356.6 402.242 358.08C403.762 359.52 404.522 361.38 404.522 363.66V364.56H400.802ZM432.189 355.86V360H431.349C429.429 360 427.909 360.6 426.789 361.8C425.709 362.96 425.169 364.7 425.169 367.02V387H421.269V356.46H424.629L424.869 360.18C426.269 357.3 428.709 355.86 432.189 355.86ZM438.807 364.56V368.7H448.047V364.56C448.047 362.92 447.607 361.62 446.727 360.66C445.887 359.7 444.787 359.22 443.427 359.22C442.067 359.22 440.947 359.7 440.067 360.66C439.227 361.62 438.807 362.92 438.807 364.56ZM448.047 378.66V377.1H451.707V378.72C451.707 381.36 450.887 383.5 449.247 385.14C447.647 386.78 445.647 387.6 443.247 387.6C440.847 387.6 438.847 386.8 437.247 385.2C435.687 383.6 434.907 381.5 434.907 378.9V364.68C434.907 362.08 435.727 359.96 437.367 358.32C439.007 356.68 441.027 355.86 443.427 355.86C445.827 355.86 447.807 356.66 449.367 358.26C450.927 359.82 451.707 361.92 451.707 364.56V371.52H438.807V378.66C438.807 380.3 439.227 381.6 440.067 382.56C440.947 383.52 442.067 384 443.427 384C444.787 384 445.887 383.52 446.727 382.56C447.607 381.6 448.047 380.3 448.047 378.66ZM460.714 377.4V378.72C460.714 380.4 461.154 381.76 462.034 382.8C462.914 383.8 464.074 384.3 465.514 384.3C466.954 384.3 468.114 383.8 468.994 382.8C469.874 381.76 470.314 380.4 470.314 378.72V377.4C470.314 375.72 469.874 374.38 468.994 373.38C468.114 372.34 466.954 371.82 465.514 371.82C464.074 371.82 462.914 372.34 462.034 373.38C461.154 374.38 460.714 375.72 460.714 377.4ZM456.814 378.9V377.52C456.814 374.92 457.554 372.8 459.034 371.16C460.514 369.48 462.374 368.64 464.614 368.64C467.014 368.64 468.914 369.6 470.314 371.52V364.32C470.314 362.8 469.894 361.58 469.054 360.66C468.254 359.74 467.234 359.28 465.994 359.28C464.754 359.28 463.714 359.74 462.874 360.66C462.074 361.58 461.674 362.8 461.674 364.32V365.58H457.954V364.5C457.954 361.94 458.734 359.86 460.294 358.26C461.854 356.66 463.774 355.86 466.054 355.86C468.374 355.86 470.314 356.64 471.874 358.2C473.434 359.76 474.214 361.8 474.214 364.32V387H471.034L470.734 384C469.294 386.4 467.194 387.6 464.434 387.6C462.194 387.6 460.354 386.82 458.914 385.26C457.514 383.66 456.814 381.54 456.814 378.9ZM483.807 364.8V378.66C483.807 380.3 484.227 381.6 485.067 382.56C485.947 383.52 487.067 384 488.427 384C489.787 384 490.887 383.52 491.727 382.56C492.607 381.6 493.047 380.3 493.047 378.66V364.8C493.047 363.16 492.607 361.86 491.727 360.9C490.887 359.94 489.787 359.46 488.427 359.46C487.067 359.46 485.947 359.94 485.067 360.9C484.227 361.86 483.807 363.16 483.807 364.8ZM496.947 345V387H493.587L493.407 384.24C492.087 386.48 490.047 387.6 487.287 387.6C485.127 387.6 483.347 386.86 481.947 385.38C480.587 383.9 479.907 381.94 479.907 379.5V364.14C479.907 361.66 480.627 359.66 482.067 358.14C483.507 356.62 485.307 355.86 487.467 355.86C489.867 355.86 491.727 356.74 493.047 358.5V345H496.947ZM508.034 387L500.834 356.46H504.974L509.954 380.94L514.934 356.46H518.834L511.394 387.9C510.594 391.3 509.574 393.7 508.334 395.1C507.094 396.5 505.614 397.2 503.894 397.2L502.034 396.96V393.72C502.314 393.8 502.714 393.84 503.234 393.84C504.434 393.84 505.394 393.36 506.114 392.4C506.834 391.48 507.474 389.68 508.034 387ZM531.845 359.76V356.46H535.745V348.6H539.645V356.46H545.945V359.76H539.645V379.5C539.645 382.5 540.905 384 543.425 384L545.645 383.82V387.24C544.725 387.48 543.685 387.6 542.525 387.6C540.405 387.6 538.745 386.96 537.545 385.68C536.345 384.4 535.745 382.52 535.745 380.04V359.76H531.845ZM553.475 364.8V378.66C553.475 380.3 553.895 381.6 554.735 382.56C555.615 383.52 556.735 384 558.095 384C559.455 384 560.555 383.52 561.395 382.56C562.275 381.6 562.715 380.3 562.715 378.66V364.8C562.715 363.16 562.275 361.86 561.395 360.9C560.555 359.94 559.455 359.46 558.095 359.46C556.735 359.46 555.615 359.94 554.735 360.9C553.895 361.86 553.475 363.16 553.475 364.8ZM549.575 378.84V364.8C549.575 362.16 550.395 360.02 552.035 358.38C553.675 356.7 555.715 355.86 558.155 355.86C560.555 355.86 562.555 356.68 564.155 358.32C565.795 359.92 566.615 362.02 566.615 364.62V378.66C566.615 381.26 565.775 383.4 564.095 385.08C562.455 386.76 560.435 387.6 558.035 387.6C555.635 387.6 553.615 386.8 551.975 385.2C550.375 383.6 549.575 381.48 549.575 378.84ZM596.408 378.78V356.46H600.308V387H596.948L596.768 384.06C595.408 386.42 593.308 387.6 590.468 387.6C588.428 387.6 586.748 386.88 585.428 385.44C584.148 384 583.508 382.02 583.508 379.5V356.46H587.408V378.78C587.408 380.42 587.788 381.7 588.548 382.62C589.348 383.54 590.408 384 591.728 384C593.088 384 594.208 383.54 595.088 382.62C595.968 381.7 596.408 380.42 596.408 378.78ZM610.794 364.68V387H606.894V356.46H610.254L610.434 359.4C611.794 357.04 613.894 355.86 616.734 355.86C618.774 355.86 620.434 356.58 621.714 358.02C623.034 359.46 623.694 361.44 623.694 363.96V387H619.794V364.68C619.794 363.04 619.394 361.76 618.594 360.84C617.834 359.92 616.794 359.46 615.474 359.46C614.114 359.46 612.994 359.92 612.114 360.84C611.234 361.76 610.794 363.04 610.794 364.68ZM630.28 387V345H634.3V387H630.28ZM644.471 364.8V378.66C644.471 380.3 644.891 381.6 645.731 382.56C646.611 383.52 647.731 384 649.091 384C650.451 384 651.551 383.52 652.391 382.56C653.271 381.6 653.711 380.3 653.711 378.66V364.8C653.711 363.16 653.271 361.86 652.391 360.9C651.551 359.94 650.451 359.46 649.091 359.46C647.731 359.46 646.611 359.94 645.731 360.9C644.891 361.86 644.471 363.16 644.471 364.8ZM640.571 378.84V364.8C640.571 362.16 641.391 360.02 643.031 358.38C644.671 356.7 646.711 355.86 649.151 355.86C651.551 355.86 653.551 356.68 655.151 358.32C656.791 359.92 657.611 362.02 657.611 364.62V378.66C657.611 381.26 656.771 383.4 655.091 385.08C653.451 386.76 651.431 387.6 649.031 387.6C646.631 387.6 644.611 386.8 642.971 385.2C641.371 383.6 640.571 381.48 640.571 378.84ZM666.613 377.4V378.72C666.613 380.4 667.053 381.76 667.933 382.8C668.813 383.8 669.973 384.3 671.413 384.3C672.853 384.3 674.013 383.8 674.893 382.8C675.773 381.76 676.213 380.4 676.213 378.72V377.4C676.213 375.72 675.773 374.38 674.893 373.38C674.013 372.34 672.853 371.82 671.413 371.82C669.973 371.82 668.813 372.34 667.933 373.38C667.053 374.38 666.613 375.72 666.613 377.4ZM662.713 378.9V377.52C662.713 374.92 663.453 372.8 664.933 371.16C666.413 369.48 668.273 368.64 670.513 368.64C672.913 368.64 674.813 369.6 676.213 371.52V364.32C676.213 362.8 675.793 361.58 674.953 360.66C674.153 359.74 673.133 359.28 671.893 359.28C670.653 359.28 669.613 359.74 668.773 360.66C667.973 361.58 667.573 362.8 667.573 364.32V365.58H663.853V364.5C663.853 361.94 664.633 359.86 666.193 358.26C667.753 356.66 669.673 355.86 671.953 355.86C674.273 355.86 676.213 356.64 677.773 358.2C679.333 359.76 680.113 361.8 680.113 364.32V387H676.933L676.633 384C675.193 386.4 673.093 387.6 670.333 387.6C668.093 387.6 666.253 386.82 664.813 385.26C663.413 383.66 662.713 381.54 662.713 378.9ZM689.705 364.8V378.66C689.705 380.3 690.125 381.6 690.965 382.56C691.845 383.52 692.965 384 694.325 384C695.685 384 696.785 383.52 697.625 382.56C698.505 381.6 698.945 380.3 698.945 378.66V364.8C698.945 363.16 698.505 361.86 697.625 360.9C696.785 359.94 695.685 359.46 694.325 359.46C692.965 359.46 691.845 359.94 690.965 360.9C690.125 361.86 689.705 363.16 689.705 364.8ZM702.845 345V387H699.485L699.305 384.24C697.985 386.48 695.945 387.6 693.185 387.6C691.025 387.6 689.245 386.86 687.845 385.38C686.485 383.9 685.805 381.94 685.805 379.5V364.14C685.805 361.66 686.525 359.66 687.965 358.14C689.405 356.62 691.205 355.86 693.365 355.86C695.765 355.86 697.625 356.74 698.945 358.5V345H702.845ZM711.053 381.9C711.853 381.9 712.533 382.2 713.093 382.8C713.653 383.36 713.933 384.02 713.933 384.78C713.933 385.54 713.653 386.2 713.093 386.76C712.533 387.32 711.853 387.6 711.053 387.6C710.253 387.6 709.573 387.32 709.013 386.76C708.493 386.2 708.233 385.54 708.233 384.78C708.233 383.98 708.513 383.3 709.073 382.74C709.633 382.18 710.293 381.9 711.053 381.9ZM734.847 348.48V363.48H738.927C740.767 363.48 742.187 362.92 743.187 361.8C744.227 360.64 744.747 359 744.747 356.88V355.08C744.747 352.96 744.227 351.34 743.187 350.22C742.187 349.06 740.767 348.48 738.927 348.48H734.847ZM730.827 387V345H739.287C742.207 345 744.527 345.88 746.247 347.64C747.967 349.36 748.827 351.78 748.827 354.9V355.98C748.827 360.3 747.227 363.26 744.027 364.86C745.747 365.54 747.067 366.66 747.987 368.22C748.947 369.78 749.427 371.7 749.427 373.98V376.98C749.427 380.06 748.527 382.5 746.727 384.3C744.967 386.1 742.647 387 739.767 387H730.827ZM734.847 366.72V383.58H739.527C741.367 383.58 742.787 383.02 743.787 381.9C744.827 380.74 745.347 379.1 745.347 376.98V373.32C745.347 371.2 744.827 369.58 743.787 368.46C742.787 367.3 741.367 366.72 739.527 366.72H734.847ZM767.736 378.78V356.46H771.636V387H768.276L768.096 384.06C766.736 386.42 764.636 387.6 761.796 387.6C759.756 387.6 758.076 386.88 756.756 385.44C755.476 384 754.836 382.02 754.836 379.5V356.46H758.736V378.78C758.736 380.42 759.116 381.7 759.876 382.62C760.676 383.54 761.736 384 763.056 384C764.416 384 765.536 383.54 766.416 382.62C767.296 381.7 767.736 380.42 767.736 378.78ZM776.122 359.76V356.46H780.022V348.6H783.922V356.46H790.222V359.76H783.922V379.5C783.922 382.5 785.182 384 787.702 384L789.922 383.82V387.24C789.002 387.48 787.962 387.6 786.802 387.6C784.682 387.6 783.022 386.96 781.822 385.68C780.622 384.4 780.022 382.52 780.022 380.04V359.76H776.122ZM819.663 378.66V364.8C819.663 363.16 819.223 361.86 818.343 360.9C817.503 359.94 816.403 359.46 815.043 359.46C813.683 359.46 812.563 359.94 811.683 360.9C810.843 361.86 810.423 363.16 810.423 364.8V378.66C810.423 380.3 810.843 381.6 811.683 382.56C812.563 383.52 813.683 384 815.043 384C816.403 384 817.503 383.52 818.343 382.56C819.223 381.6 819.663 380.3 819.663 378.66ZM806.523 387V345H810.423V358.74C811.783 356.82 813.683 355.86 816.123 355.86C818.323 355.86 820.103 356.6 821.463 358.08C822.863 359.56 823.563 361.52 823.563 363.96V379.32C823.563 381.76 822.843 383.76 821.403 385.32C819.963 386.84 818.163 387.6 816.003 387.6C813.283 387.6 811.303 386.54 810.063 384.42L809.883 387H806.523ZM832.85 364.56V368.7H842.09V364.56C842.09 362.92 841.65 361.62 840.77 360.66C839.93 359.7 838.83 359.22 837.47 359.22C836.11 359.22 834.99 359.7 834.11 360.66C833.27 361.62 832.85 362.92 832.85 364.56ZM842.09 378.66V377.1H845.75V378.72C845.75 381.36 844.93 383.5 843.29 385.14C841.69 386.78 839.69 387.6 837.29 387.6C834.89 387.6 832.89 386.8 831.29 385.2C829.73 383.6 828.95 381.5 828.95 378.9V364.68C828.95 362.08 829.77 359.96 831.41 358.32C833.05 356.68 835.07 355.86 837.47 355.86C839.87 355.86 841.85 356.66 843.41 358.26C844.97 359.82 845.75 361.92 845.75 364.56V371.52H832.85V378.66C832.85 380.3 833.27 381.6 834.11 382.56C834.99 383.52 836.11 384 837.47 384C838.83 384 839.93 383.52 840.77 382.56C841.65 381.6 842.09 380.3 842.09 378.66ZM863.817 375.3H867.537V378.9C867.537 381.42 866.737 383.5 865.137 385.14C863.577 386.78 861.657 387.6 859.377 387.6C857.017 387.6 855.057 386.82 853.497 385.26C851.937 383.66 851.157 381.6 851.157 379.08V364.56C851.157 362 851.957 359.92 853.557 358.32C855.197 356.68 857.177 355.86 859.497 355.86C861.817 355.86 863.737 356.64 865.257 358.2C866.777 359.76 867.537 361.82 867.537 364.38V367.86H863.817V364.56C863.817 363 863.397 361.76 862.557 360.84C861.757 359.92 860.717 359.46 859.437 359.46C858.157 359.46 857.097 359.92 856.257 360.84C855.457 361.76 855.057 363 855.057 364.56V378.9C855.057 380.46 855.457 381.7 856.257 382.62C857.097 383.54 858.157 384 859.437 384C860.717 384 861.757 383.54 862.557 382.62C863.397 381.7 863.817 380.46 863.817 378.9V375.3ZM876.554 377.4V378.72C876.554 380.4 876.994 381.76 877.874 382.8C878.754 383.8 879.914 384.3 881.354 384.3C882.794 384.3 883.954 383.8 884.834 382.8C885.714 381.76 886.154 380.4 886.154 378.72V377.4C886.154 375.72 885.714 374.38 884.834 373.38C883.954 372.34 882.794 371.82 881.354 371.82C879.914 371.82 878.754 372.34 877.874 373.38C876.994 374.38 876.554 375.72 876.554 377.4ZM872.654 378.9V377.52C872.654 374.92 873.394 372.8 874.874 371.16C876.354 369.48 878.214 368.64 880.454 368.64C882.854 368.64 884.754 369.6 886.154 371.52V364.32C886.154 362.8 885.734 361.58 884.894 360.66C884.094 359.74 883.074 359.28 881.834 359.28C880.594 359.28 879.554 359.74 878.714 360.66C877.914 361.58 877.514 362.8 877.514 364.32V365.58H873.794V364.5C873.794 361.94 874.574 359.86 876.134 358.26C877.694 356.66 879.614 355.86 881.894 355.86C884.214 355.86 886.154 356.64 887.714 358.2C889.274 359.76 890.054 361.8 890.054 364.32V387H886.874L886.574 384C885.134 386.4 883.034 387.6 880.274 387.6C878.034 387.6 876.194 386.82 874.754 385.26C873.354 383.66 872.654 381.54 872.654 378.9ZM908.947 378.78V356.46H912.847V387H909.487L909.307 384.06C907.947 386.42 905.847 387.6 903.007 387.6C900.967 387.6 899.287 386.88 897.967 385.44C896.687 384 896.047 382.02 896.047 379.5V356.46H899.947V378.78C899.947 380.42 900.327 381.7 901.087 382.62C901.887 383.54 902.947 384 904.267 384C905.627 384 906.747 383.54 907.627 382.62C908.507 381.7 908.947 380.42 908.947 378.78ZM931.193 364.56V363.72C931.193 362.4 930.773 361.34 929.933 360.54C929.133 359.7 928.113 359.28 926.873 359.28C925.633 359.28 924.593 359.68 923.753 360.48C922.953 361.28 922.553 362.32 922.553 363.6C922.553 364.84 922.953 365.92 923.753 366.84C924.553 367.72 925.913 368.64 927.833 369.6C930.273 370.76 932.093 372.1 933.293 373.62C934.493 375.14 935.093 377 935.093 379.2C935.093 381.64 934.273 383.66 932.633 385.26C930.993 386.82 928.973 387.6 926.573 387.6C924.173 387.6 922.173 386.84 920.573 385.32C919.013 383.8 918.233 381.78 918.233 379.26V378.3H921.953V379.2C921.953 380.72 922.373 381.92 923.213 382.8C924.093 383.68 925.213 384.12 926.573 384.12C927.933 384.12 929.033 383.68 929.873 382.8C930.753 381.92 931.193 380.74 931.193 379.26C931.193 377.9 930.753 376.72 929.873 375.72C928.993 374.68 927.433 373.62 925.193 372.54C920.833 370.38 918.653 367.4 918.653 363.6C918.653 361.36 919.433 359.52 920.993 358.08C922.593 356.6 924.553 355.86 926.873 355.86C929.193 355.86 931.113 356.6 932.633 358.08C934.153 359.52 934.913 361.38 934.913 363.66V364.56H931.193ZM943.768 364.56V368.7H953.008V364.56C953.008 362.92 952.568 361.62 951.688 360.66C950.848 359.7 949.748 359.22 948.388 359.22C947.028 359.22 945.908 359.7 945.028 360.66C944.188 361.62 943.768 362.92 943.768 364.56ZM953.008 378.66V377.1H956.668V378.72C956.668 381.36 955.848 383.5 954.208 385.14C952.608 386.78 950.608 387.6 948.208 387.6C945.808 387.6 943.808 386.8 942.208 385.2C940.648 383.6 939.868 381.5 939.868 378.9V364.68C939.868 362.08 940.688 359.96 942.328 358.32C943.968 356.68 945.988 355.86 948.388 355.86C950.788 355.86 952.768 356.66 954.328 358.26C955.888 359.82 956.668 361.92 956.668 364.56V371.52H943.768V378.66C943.768 380.3 944.188 381.6 945.028 382.56C945.908 383.52 947.028 384 948.388 384C949.748 384 950.848 383.52 951.688 382.56C952.568 381.6 953.008 380.3 953.008 378.66ZM990.666 387H986.766V364.68C986.766 363.04 986.366 361.76 985.566 360.84C984.806 359.92 983.766 359.46 982.446 359.46C981.086 359.46 979.966 359.9 979.086 360.78C978.206 361.66 977.766 362.86 977.766 364.38V387H973.866V345H977.766V359.1C979.126 356.94 981.106 355.86 983.706 355.86C985.746 355.86 987.406 356.58 988.686 358.02C990.006 359.46 990.666 361.44 990.666 363.96V387ZM1000.25 364.56V368.7H1009.49V364.56C1009.49 362.92 1009.05 361.62 1008.17 360.66C1007.33 359.7 1006.23 359.22 1004.87 359.22C1003.51 359.22 1002.39 359.7 1001.51 360.66C1000.67 361.62 1000.25 362.92 1000.25 364.56ZM1009.49 378.66V377.1H1013.15V378.72C1013.15 381.36 1012.33 383.5 1010.69 385.14C1009.09 386.78 1007.09 387.6 1004.69 387.6C1002.29 387.6 1000.29 386.8 998.692 385.2C997.132 383.6 996.352 381.5 996.352 378.9V364.68C996.352 362.08 997.172 359.96 998.812 358.32C1000.45 356.68 1002.47 355.86 1004.87 355.86C1007.27 355.86 1009.25 356.66 1010.81 358.26C1012.37 359.82 1013.15 361.92 1013.15 364.56V371.52H1000.25V378.66C1000.25 380.3 1000.67 381.6 1001.51 382.56C1002.39 383.52 1003.51 384 1004.87 384C1006.23 384 1007.33 383.52 1008.17 382.56C1009.05 381.6 1009.49 380.3 1009.49 378.66ZM1021.5 358.8H1018.26L1018.62 345H1023L1021.5 358.8ZM1040.47 364.56V363.72C1040.47 362.4 1040.05 361.34 1039.21 360.54C1038.41 359.7 1037.39 359.28 1036.15 359.28C1034.91 359.28 1033.87 359.68 1033.03 360.48C1032.23 361.28 1031.83 362.32 1031.83 363.6C1031.83 364.84 1032.23 365.92 1033.03 366.84C1033.83 367.72 1035.19 368.64 1037.11 369.6C1039.55 370.76 1041.37 372.1 1042.57 373.62C1043.77 375.14 1044.37 377 1044.37 379.2C1044.37 381.64 1043.55 383.66 1041.91 385.26C1040.27 386.82 1038.25 387.6 1035.85 387.6C1033.45 387.6 1031.45 386.84 1029.85 385.32C1028.29 383.8 1027.51 381.78 1027.51 379.26V378.3H1031.23V379.2C1031.23 380.72 1031.65 381.92 1032.49 382.8C1033.37 383.68 1034.49 384.12 1035.85 384.12C1037.21 384.12 1038.31 383.68 1039.15 382.8C1040.03 381.92 1040.47 380.74 1040.47 379.26C1040.47 377.9 1040.03 376.72 1039.15 375.72C1038.27 374.68 1036.71 373.62 1034.47 372.54C1030.11 370.38 1027.93 367.4 1027.93 363.6C1027.93 361.36 1028.71 359.52 1030.27 358.08C1031.87 356.6 1033.83 355.86 1036.15 355.86C1038.47 355.86 1040.39 356.6 1041.91 358.08C1043.43 359.52 1044.19 361.38 1044.19 363.66V364.56H1040.47ZM179.811 456V414H183.831V456H179.811ZM194.002 433.8V447.66C194.002 449.3 194.422 450.6 195.262 451.56C196.142 452.52 197.262 453 198.622 453C199.982 453 201.082 452.52 201.922 451.56C202.802 450.6 203.242 449.3 203.242 447.66V433.8C203.242 432.16 202.802 430.86 201.922 429.9C201.082 428.94 199.982 428.46 198.622 428.46C197.262 428.46 196.142 428.94 195.262 429.9C194.422 430.86 194.002 432.16 194.002 433.8ZM190.102 447.84V433.8C190.102 431.16 190.922 429.02 192.562 427.38C194.202 425.7 196.242 424.86 198.682 424.86C201.082 424.86 203.082 425.68 204.682 427.32C206.322 428.92 207.142 431.02 207.142 433.62V447.66C207.142 450.26 206.302 452.4 204.622 454.08C202.982 455.76 200.962 456.6 198.562 456.6C196.162 456.6 194.142 455.8 192.502 454.2C190.902 452.6 190.102 450.48 190.102 447.84ZM216.144 446.4V447.72C216.144 449.4 216.584 450.76 217.464 451.8C218.344 452.8 219.504 453.3 220.944 453.3C222.384 453.3 223.544 452.8 224.424 451.8C225.304 450.76 225.744 449.4 225.744 447.72V446.4C225.744 444.72 225.304 443.38 224.424 442.38C223.544 441.34 222.384 440.82 220.944 440.82C219.504 440.82 218.344 441.34 217.464 442.38C216.584 443.38 216.144 444.72 216.144 446.4ZM212.244 447.9V446.52C212.244 443.92 212.984 441.8 214.464 440.16C215.944 438.48 217.804 437.64 220.044 437.64C222.444 437.64 224.344 438.6 225.744 440.52V433.32C225.744 431.8 225.324 430.58 224.484 429.66C223.684 428.74 222.664 428.28 221.424 428.28C220.184 428.28 219.144 428.74 218.304 429.66C217.504 430.58 217.104 431.8 217.104 433.32V434.58H213.384V433.5C213.384 430.94 214.164 428.86 215.724 427.26C217.284 425.66 219.204 424.86 221.484 424.86C223.804 424.86 225.744 425.64 227.304 427.2C228.864 428.76 229.644 430.8 229.644 433.32V456H226.464L226.164 453C224.724 455.4 222.624 456.6 219.864 456.6C217.624 456.6 215.784 455.82 214.344 454.26C212.944 452.66 212.244 450.54 212.244 447.9ZM239.237 433.8V447.66C239.237 449.3 239.657 450.6 240.497 451.56C241.377 452.52 242.497 453 243.857 453C245.217 453 246.317 452.52 247.157 451.56C248.037 450.6 248.477 449.3 248.477 447.66V433.8C248.477 432.16 248.037 430.86 247.157 429.9C246.317 428.94 245.217 428.46 243.857 428.46C242.497 428.46 241.377 428.94 240.497 429.9C239.657 430.86 239.237 432.16 239.237 433.8ZM252.377 414V456H249.017L248.837 453.24C247.517 455.48 245.477 456.6 242.717 456.6C240.557 456.6 238.777 455.86 237.377 454.38C236.017 452.9 235.337 450.94 235.337 448.5V433.14C235.337 430.66 236.057 428.66 237.497 427.14C238.937 425.62 240.737 424.86 242.897 424.86C245.297 424.86 247.157 425.74 248.477 427.5V414H252.377ZM262.264 433.56V437.7H271.504V433.56C271.504 431.92 271.064 430.62 270.184 429.66C269.344 428.7 268.244 428.22 266.884 428.22C265.524 428.22 264.404 428.7 263.524 429.66C262.684 430.62 262.264 431.92 262.264 433.56ZM271.504 447.66V446.1H275.164V447.72C275.164 450.36 274.344 452.5 272.704 454.14C271.104 455.78 269.104 456.6 266.704 456.6C264.304 456.6 262.304 455.8 260.704 454.2C259.144 452.6 258.364 450.5 258.364 447.9V433.68C258.364 431.08 259.184 428.96 260.824 427.32C262.464 425.68 264.484 424.86 266.884 424.86C269.284 424.86 271.264 425.66 272.824 427.26C274.384 428.82 275.164 430.92 275.164 433.56V440.52H262.264V447.66C262.264 449.3 262.684 450.6 263.524 451.56C264.404 452.52 265.524 453 266.884 453C268.244 453 269.344 452.52 270.184 451.56C271.064 450.6 271.504 449.3 271.504 447.66ZM284.471 433.8V447.66C284.471 449.3 284.891 450.6 285.731 451.56C286.611 452.52 287.731 453 289.091 453C290.451 453 291.551 452.52 292.391 451.56C293.271 450.6 293.711 449.3 293.711 447.66V433.8C293.711 432.16 293.271 430.86 292.391 429.9C291.551 428.94 290.451 428.46 289.091 428.46C287.731 428.46 286.611 428.94 285.731 429.9C284.891 430.86 284.471 432.16 284.471 433.8ZM297.611 414V456H294.251L294.071 453.24C292.751 455.48 290.711 456.6 287.951 456.6C285.791 456.6 284.011 455.86 282.611 454.38C281.251 452.9 280.571 450.94 280.571 448.5V433.14C280.571 430.66 281.291 428.66 282.731 427.14C284.171 425.62 285.971 424.86 288.131 424.86C290.531 424.86 292.391 425.74 293.711 427.5V414H297.611ZM305.818 450.9C306.618 450.9 307.298 451.2 307.858 451.8C308.418 452.36 308.698 453.02 308.698 453.78C308.698 454.54 308.418 455.2 307.858 455.76C307.298 456.32 306.618 456.6 305.818 456.6C305.018 456.6 304.338 456.32 303.778 455.76C303.258 455.2 302.998 454.54 302.998 453.78C302.998 452.98 303.278 452.3 303.838 451.74C304.398 451.18 305.058 450.9 305.818 450.9ZM329.612 456L322.592 414H326.912L331.712 446.52L336.692 414H339.872L344.852 446.52L349.712 414H353.792L346.772 456H343.052L338.192 425.64L333.332 456H329.612ZM360.116 433.56V437.7H369.356V433.56C369.356 431.92 368.916 430.62 368.036 429.66C367.196 428.7 366.096 428.22 364.736 428.22C363.376 428.22 362.256 428.7 361.376 429.66C360.536 430.62 360.116 431.92 360.116 433.56ZM369.356 447.66V446.1H373.016V447.72C373.016 450.36 372.196 452.5 370.556 454.14C368.956 455.78 366.956 456.6 364.556 456.6C362.156 456.6 360.156 455.8 358.556 454.2C356.996 452.6 356.216 450.5 356.216 447.9V433.68C356.216 431.08 357.036 428.96 358.676 427.32C360.316 425.68 362.336 424.86 364.736 424.86C367.136 424.86 369.116 425.66 370.676 427.26C372.236 428.82 373.016 430.92 373.016 433.56V440.52H360.116V447.66C360.116 449.3 360.536 450.6 361.376 451.56C362.256 452.52 363.376 453 364.736 453C366.096 453 367.196 452.52 368.036 451.56C368.916 450.6 369.356 449.3 369.356 447.66ZM379.323 456V414H383.343V456H379.323ZM390.514 456V414H394.534V456H390.514ZM415.897 433.56V437.7H425.137V433.56C425.137 431.92 424.697 430.62 423.817 429.66C422.977 428.7 421.877 428.22 420.517 428.22C419.157 428.22 418.037 428.7 417.157 429.66C416.317 430.62 415.897 431.92 415.897 433.56ZM425.137 447.66V446.1H428.797V447.72C428.797 450.36 427.977 452.5 426.337 454.14C424.737 455.78 422.737 456.6 420.337 456.6C417.937 456.6 415.937 455.8 414.337 454.2C412.777 452.6 411.997 450.5 411.997 447.9V433.68C411.997 431.08 412.817 428.96 414.457 427.32C416.097 425.68 418.117 424.86 420.517 424.86C422.917 424.86 424.897 425.66 426.457 427.26C428.017 428.82 428.797 430.92 428.797 433.56V440.52H415.897V447.66C415.897 449.3 416.317 450.6 417.157 451.56C418.037 452.52 419.157 453 420.517 453C421.877 453 422.977 452.52 423.817 451.56C424.697 450.6 425.137 449.3 425.137 447.66ZM438.704 433.68V456H434.804V425.46H438.164L438.344 428.4C439.704 426.04 441.804 424.86 444.644 424.86C446.684 424.86 448.344 425.58 449.624 427.02C450.944 428.46 451.604 430.44 451.604 432.96V456H447.704V433.68C447.704 432.04 447.304 430.76 446.504 429.84C445.744 428.92 444.704 428.46 443.384 428.46C442.024 428.46 440.904 428.92 440.024 429.84C439.144 430.76 438.704 432.04 438.704 433.68ZM461.19 433.8V447.66C461.19 449.3 461.61 450.6 462.45 451.56C463.33 452.52 464.45 453 465.81 453C467.17 453 468.27 452.52 469.11 451.56C469.99 450.6 470.43 449.3 470.43 447.66V433.8C470.43 432.16 469.99 430.86 469.11 429.9C468.27 428.94 467.17 428.46 465.81 428.46C464.45 428.46 463.33 428.94 462.45 429.9C461.61 430.86 461.19 432.16 461.19 433.8ZM474.33 414V456H470.97L470.79 453.24C469.47 455.48 467.43 456.6 464.67 456.6C462.51 456.6 460.73 455.86 459.33 454.38C457.97 452.9 457.29 450.94 457.29 448.5V433.14C457.29 430.66 458.01 428.66 459.45 427.14C460.89 425.62 462.69 424.86 464.85 424.86C467.25 424.86 469.11 425.74 470.43 427.5V414H474.33ZM484.217 433.8V447.66C484.217 449.3 484.637 450.6 485.477 451.56C486.357 452.52 487.477 453 488.837 453C490.197 453 491.297 452.52 492.137 451.56C493.017 450.6 493.457 449.3 493.457 447.66V433.8C493.457 432.16 493.017 430.86 492.137 429.9C491.297 428.94 490.197 428.46 488.837 428.46C487.477 428.46 486.357 428.94 485.477 429.9C484.637 430.86 484.217 432.16 484.217 433.8ZM480.317 447.84V433.8C480.317 431.16 481.137 429.02 482.777 427.38C484.417 425.7 486.457 424.86 488.897 424.86C491.297 424.86 493.297 425.68 494.897 427.32C496.537 428.92 497.357 431.02 497.357 433.62V447.66C497.357 450.26 496.517 452.4 494.837 454.08C493.197 455.76 491.177 456.6 488.777 456.6C486.377 456.6 484.357 455.8 482.717 454.2C481.117 452.6 480.317 450.48 480.317 447.84ZM507.019 456L500.659 425.46H504.739L508.879 448.26L513.079 425.46H515.779L519.979 448.26L524.059 425.46H527.959L521.539 456H518.179L514.279 434.46L510.379 456H507.019ZM535.135 433.56V437.7H544.375V433.56C544.375 431.92 543.935 430.62 543.055 429.66C542.215 428.7 541.115 428.22 539.755 428.22C538.395 428.22 537.275 428.7 536.395 429.66C535.555 430.62 535.135 431.92 535.135 433.56ZM544.375 447.66V446.1H548.035V447.72C548.035 450.36 547.215 452.5 545.575 454.14C543.975 455.78 541.975 456.6 539.575 456.6C537.175 456.6 535.175 455.8 533.575 454.2C532.015 452.6 531.235 450.5 531.235 447.9V433.68C531.235 431.08 532.055 428.96 533.695 427.32C535.335 425.68 537.355 424.86 539.755 424.86C542.155 424.86 544.135 425.66 545.695 427.26C547.255 428.82 548.035 430.92 548.035 433.56V440.52H535.135V447.66C535.135 449.3 535.555 450.6 536.395 451.56C537.275 452.52 538.395 453 539.755 453C541.115 453 542.215 452.52 543.055 451.56C543.935 450.6 544.375 449.3 544.375 447.66ZM557.342 433.8V447.66C557.342 449.3 557.762 450.6 558.602 451.56C559.482 452.52 560.602 453 561.962 453C563.322 453 564.422 452.52 565.262 451.56C566.142 450.6 566.582 449.3 566.582 447.66V433.8C566.582 432.16 566.142 430.86 565.262 429.9C564.422 428.94 563.322 428.46 561.962 428.46C560.602 428.46 559.482 428.94 558.602 429.9C557.762 430.86 557.342 432.16 557.342 433.8ZM570.482 414V456H567.122L566.942 453.24C565.622 455.48 563.582 456.6 560.822 456.6C558.662 456.6 556.882 455.86 555.482 454.38C554.122 452.9 553.442 450.94 553.442 448.5V433.14C553.442 430.66 554.162 428.66 555.602 427.14C557.042 425.62 558.842 424.86 561.002 424.86C563.402 424.86 565.262 425.74 566.582 427.5V414H570.482ZM578.69 450.9C579.49 450.9 580.17 451.2 580.73 451.8C581.29 452.36 581.57 453.02 581.57 453.78C581.57 454.54 581.29 455.2 580.73 455.76C580.17 456.32 579.49 456.6 578.69 456.6C577.89 456.6 577.21 456.32 576.65 455.76C576.13 455.2 575.87 454.54 575.87 453.78C575.87 452.98 576.15 452.3 576.71 451.74C577.27 451.18 577.93 450.9 578.69 450.9ZM602.483 417.48V432.48H606.563C608.403 432.48 609.823 431.92 610.823 430.8C611.863 429.64 612.383 428 612.383 425.88V424.08C612.383 421.96 611.863 420.34 610.823 419.22C609.823 418.06 608.403 417.48 606.563 417.48H602.483ZM598.463 456V414H606.923C609.843 414 612.163 414.88 613.883 416.64C615.603 418.36 616.463 420.78 616.463 423.9V424.98C616.463 429.3 614.863 432.26 611.663 433.86C613.383 434.54 614.703 435.66 615.623 437.22C616.583 438.78 617.063 440.7 617.063 442.98V445.98C617.063 449.06 616.163 451.5 614.363 453.3C612.603 455.1 610.283 456 607.403 456H598.463ZM602.483 435.72V452.58H607.163C609.003 452.58 610.423 452.02 611.423 450.9C612.463 449.74 612.983 448.1 612.983 445.98V442.32C612.983 440.2 612.463 438.58 611.423 437.46C610.423 436.3 609.003 435.72 607.163 435.72H602.483ZM623.073 456V425.46H627.093V456H623.073ZM623.073 414.84C623.633 414.28 624.293 414 625.053 414C625.813 414 626.473 414.28 627.033 414.84C627.633 415.4 627.933 416.08 627.933 416.88C627.933 417.64 627.653 418.3 627.093 418.86C626.533 419.42 625.853 419.7 625.053 419.7C624.293 419.7 623.633 419.44 623.073 418.92C622.513 418.36 622.233 417.68 622.233 416.88C622.233 416.08 622.513 415.4 623.073 414.84ZM637.264 433.8V445.08C637.264 446.72 637.684 448.02 638.524 448.98C639.404 449.94 640.524 450.42 641.884 450.42C643.204 450.42 644.304 449.96 645.184 449.04C646.064 448.08 646.504 446.8 646.504 445.2V433.8C646.504 432.16 646.064 430.86 645.184 429.9C644.344 428.94 643.244 428.46 641.884 428.46C640.524 428.46 639.404 428.94 638.524 429.9C637.684 430.86 637.264 432.16 637.264 433.8ZM650.404 425.46V457.26C650.404 459.86 649.564 462 647.884 463.68C646.244 465.36 644.224 466.2 641.824 466.2C639.424 466.2 637.444 465.4 635.884 463.8C634.324 462.2 633.544 460.08 633.544 457.44V456.48H637.264V457.38C637.264 459.02 637.684 460.32 638.524 461.28C639.404 462.24 640.524 462.72 641.884 462.72C643.244 462.72 644.344 462.24 645.184 461.28C646.064 460.32 646.504 459.02 646.504 457.38V451.08C645.144 452.96 643.224 453.9 640.744 453.9C638.584 453.9 636.804 453.16 635.404 451.68C634.044 450.2 633.364 448.24 633.364 445.8V433.14C633.364 430.66 634.084 428.66 635.524 427.14C636.964 425.62 638.764 424.86 640.924 424.86C643.524 424.86 645.504 425.92 646.864 428.04L647.044 425.46H650.404ZM681.323 447.66V433.8C681.323 432.16 680.883 430.86 680.003 429.9C679.163 428.94 678.063 428.46 676.703 428.46C675.343 428.46 674.223 428.94 673.343 429.9C672.503 430.86 672.083 432.16 672.083 433.8V447.66C672.083 449.3 672.503 450.6 673.343 451.56C674.223 452.52 675.343 453 676.703 453C678.063 453 679.163 452.52 680.003 451.56C680.883 450.6 681.323 449.3 681.323 447.66ZM668.183 456V414H672.083V427.74C673.443 425.82 675.343 424.86 677.783 424.86C679.983 424.86 681.763 425.6 683.123 427.08C684.523 428.56 685.223 430.52 685.223 432.96V448.32C685.223 450.76 684.503 452.76 683.063 454.32C681.623 455.84 679.823 456.6 677.663 456.6C674.943 456.6 672.963 455.54 671.723 453.42L671.543 456H668.183ZM694.21 446.4V447.72C694.21 449.4 694.65 450.76 695.53 451.8C696.41 452.8 697.57 453.3 699.01 453.3C700.45 453.3 701.61 452.8 702.49 451.8C703.37 450.76 703.81 449.4 703.81 447.72V446.4C703.81 444.72 703.37 443.38 702.49 442.38C701.61 441.34 700.45 440.82 699.01 440.82C697.57 440.82 696.41 441.34 695.53 442.38C694.65 443.38 694.21 444.72 694.21 446.4ZM690.31 447.9V446.52C690.31 443.92 691.05 441.8 692.53 440.16C694.01 438.48 695.87 437.64 698.11 437.64C700.51 437.64 702.41 438.6 703.81 440.52V433.32C703.81 431.8 703.39 430.58 702.55 429.66C701.75 428.74 700.73 428.28 699.49 428.28C698.25 428.28 697.21 428.74 696.37 429.66C695.57 430.58 695.17 431.8 695.17 433.32V434.58H691.45V433.5C691.45 430.94 692.23 428.86 693.79 427.26C695.35 425.66 697.27 424.86 699.55 424.86C701.87 424.86 703.81 425.64 705.37 427.2C706.93 428.76 707.71 430.8 707.71 433.32V456H704.53L704.23 453C702.79 455.4 700.69 456.6 697.93 456.6C695.69 456.6 693.85 455.82 692.41 454.26C691.01 452.66 690.31 450.54 690.31 447.9ZM714.303 456V414H718.323V456H714.303ZM725.495 456V414H729.515V456H725.495ZM748.146 433.56V432.72C748.146 431.4 747.726 430.34 746.886 429.54C746.086 428.7 745.066 428.28 743.826 428.28C742.586 428.28 741.546 428.68 740.706 429.48C739.906 430.28 739.506 431.32 739.506 432.6C739.506 433.84 739.906 434.92 740.706 435.84C741.506 436.72 742.866 437.64 744.786 438.6C747.226 439.76 749.046 441.1 750.246 442.62C751.446 444.14 752.046 446 752.046 448.2C752.046 450.64 751.226 452.66 749.586 454.26C747.946 455.82 745.926 456.6 743.526 456.6C741.126 456.6 739.126 455.84 737.526 454.32C735.966 452.8 735.186 450.78 735.186 448.26V447.3H738.906V448.2C738.906 449.72 739.326 450.92 740.166 451.8C741.046 452.68 742.166 453.12 743.526 453.12C744.886 453.12 745.986 452.68 746.826 451.8C747.706 450.92 748.146 449.74 748.146 448.26C748.146 446.9 747.706 445.72 746.826 444.72C745.946 443.68 744.386 442.62 742.146 441.54C737.786 439.38 735.606 436.4 735.606 432.6C735.606 430.36 736.386 428.52 737.946 427.08C739.546 425.6 741.506 424.86 743.826 424.86C746.146 424.86 748.066 425.6 749.586 427.08C751.106 428.52 751.866 430.38 751.866 432.66V433.56H748.146ZM771.613 446.4V447.72C771.613 449.4 772.053 450.76 772.933 451.8C773.813 452.8 774.973 453.3 776.413 453.3C777.853 453.3 779.013 452.8 779.893 451.8C780.773 450.76 781.213 449.4 781.213 447.72V446.4C781.213 444.72 780.773 443.38 779.893 442.38C779.013 441.34 777.853 440.82 776.413 440.82C774.973 440.82 773.813 441.34 772.933 442.38C772.053 443.38 771.613 444.72 771.613 446.4ZM767.713 447.9V446.52C767.713 443.92 768.453 441.8 769.933 440.16C771.413 438.48 773.273 437.64 775.513 437.64C777.913 437.64 779.813 438.6 781.213 440.52V433.32C781.213 431.8 780.793 430.58 779.953 429.66C779.153 428.74 778.133 428.28 776.893 428.28C775.653 428.28 774.613 428.74 773.773 429.66C772.973 430.58 772.573 431.8 772.573 433.32V434.58H768.853V433.5C768.853 430.94 769.633 428.86 771.193 427.26C772.753 425.66 774.673 424.86 776.953 424.86C779.273 424.86 781.213 425.64 782.773 427.2C784.333 428.76 785.113 430.8 785.113 433.32V456H781.933L781.633 453C780.193 455.4 778.093 456.6 775.333 456.6C773.093 456.6 771.253 455.82 769.813 454.26C768.413 452.66 767.713 450.54 767.713 447.9ZM802.325 424.86V429H801.485C799.565 429 798.045 429.6 796.925 430.8C795.845 431.96 795.305 433.7 795.305 436.02V456H791.405V425.46H794.765L795.005 429.18C796.405 426.3 798.845 424.86 802.325 424.86ZM808.944 433.56V437.7H818.184V433.56C818.184 431.92 817.744 430.62 816.864 429.66C816.024 428.7 814.924 428.22 813.564 428.22C812.204 428.22 811.084 428.7 810.204 429.66C809.364 430.62 808.944 431.92 808.944 433.56ZM818.184 447.66V446.1H821.844V447.72C821.844 450.36 821.024 452.5 819.384 454.14C817.784 455.78 815.784 456.6 813.384 456.6C810.984 456.6 808.984 455.8 807.384 454.2C805.824 452.6 805.044 450.5 805.044 447.9V433.68C805.044 431.08 805.864 428.96 807.504 427.32C809.144 425.68 811.164 424.86 813.564 424.86C815.964 424.86 817.944 425.66 819.504 427.26C821.064 428.82 821.844 430.92 821.844 433.56V440.52H808.944V447.66C808.944 449.3 809.364 450.6 810.204 451.56C811.084 452.52 812.204 453 813.564 453C814.924 453 816.024 452.52 816.864 451.56C817.744 450.6 818.184 449.3 818.184 447.66ZM836.942 428.76V425.46H840.842V420.96C840.842 418.48 841.442 416.6 842.642 415.32C843.842 414.04 845.502 413.4 847.622 413.4L850.742 413.76V417.12C849.942 417 849.202 416.94 848.522 416.94C846.002 416.94 844.742 418.44 844.742 421.44V425.46H850.742V428.76H844.742V456H840.842V428.76H836.942ZM867.814 447.78V425.46H871.714V456H868.354L868.174 453.06C866.814 455.42 864.714 456.6 861.874 456.6C859.834 456.6 858.154 455.88 856.834 454.44C855.554 453 854.914 451.02 854.914 448.5V425.46H858.814V447.78C858.814 449.42 859.194 450.7 859.954 451.62C860.754 452.54 861.814 453 863.134 453C864.494 453 865.614 452.54 866.494 451.62C867.374 450.7 867.814 449.42 867.814 447.78ZM882.2 433.68V456H878.3V425.46H881.66L881.84 428.4C883.2 426.04 885.3 424.86 888.14 424.86C890.18 424.86 891.84 425.58 893.12 427.02C894.44 428.46 895.1 430.44 895.1 432.96V456H891.2V433.68C891.2 432.04 890.8 430.76 890 429.84C889.24 428.92 888.2 428.46 886.88 428.46C885.52 428.46 884.4 428.92 883.52 429.84C882.64 430.76 882.2 432.04 882.2 433.68ZM905.286 433.68V456H901.386V425.46H904.746L904.926 428.4C906.286 426.04 908.386 424.86 911.226 424.86C913.266 424.86 914.926 425.58 916.206 427.02C917.526 428.46 918.186 430.44 918.186 432.96V456H914.286V433.68C914.286 432.04 913.886 430.76 913.086 429.84C912.326 428.92 911.286 428.46 909.966 428.46C908.606 428.46 907.486 428.92 906.606 429.84C905.726 430.76 905.286 432.04 905.286 433.68ZM928.972 456L921.772 425.46H925.912L930.892 449.94L935.872 425.46H939.772L932.332 456.9C931.532 460.3 930.512 462.7 929.272 464.1C928.032 465.5 926.552 466.2 924.832 466.2L922.972 465.96V462.72C923.252 462.8 923.652 462.84 924.172 462.84C925.372 462.84 926.332 462.36 927.052 461.4C927.772 460.48 928.412 458.68 928.972 456ZM952.782 428.76V425.46H956.682V417.6H960.582V425.46H966.882V428.76H960.582V448.5C960.582 451.5 961.842 453 964.362 453L966.582 452.82V456.24C965.662 456.48 964.622 456.6 963.462 456.6C961.342 456.6 959.682 455.96 958.482 454.68C957.282 453.4 956.682 451.52 956.682 449.04V428.76H952.782ZM974.413 433.8V447.66C974.413 449.3 974.833 450.6 975.673 451.56C976.553 452.52 977.673 453 979.033 453C980.393 453 981.493 452.52 982.333 451.56C983.213 450.6 983.652 449.3 983.652 447.66V433.8C983.652 432.16 983.213 430.86 982.333 429.9C981.493 428.94 980.393 428.46 979.033 428.46C977.673 428.46 976.553 428.94 975.673 429.9C974.833 430.86 974.413 432.16 974.413 433.8ZM970.513 447.84V433.8C970.513 431.16 971.333 429.02 972.973 427.38C974.613 425.7 976.653 424.86 979.093 424.86C981.493 424.86 983.493 425.68 985.093 427.32C986.733 428.92 987.553 431.02 987.553 433.62V447.66C987.553 450.26 986.713 452.4 985.033 454.08C983.393 455.76 981.373 456.6 978.973 456.6C976.573 456.6 974.553 455.8 972.913 454.2C971.313 452.6 970.513 450.48 970.513 447.84ZM996.854 433.8V447.66C996.854 449.3 997.274 450.6 998.114 451.56C998.994 452.52 1000.11 453 1001.47 453C1002.83 453 1003.93 452.52 1004.77 451.56C1005.65 450.6 1006.09 449.3 1006.09 447.66V433.8C1006.09 432.16 1005.65 430.86 1004.77 429.9C1003.93 428.94 1002.83 428.46 1001.47 428.46C1000.11 428.46 998.994 428.94 998.114 429.9C997.274 430.86 996.854 432.16 996.854 433.8ZM992.954 447.84V433.8C992.954 431.16 993.774 429.02 995.414 427.38C997.054 425.7 999.094 424.86 1001.53 424.86C1003.93 424.86 1005.93 425.68 1007.53 427.32C1009.17 428.92 1009.99 431.02 1009.99 433.62V447.66C1009.99 450.26 1009.15 452.4 1007.47 454.08C1005.83 455.76 1003.81 456.6 1001.41 456.6C999.014 456.6 996.994 455.8 995.354 454.2C993.754 452.6 992.954 450.48 992.954 447.84ZM1017.62 450.9C1018.42 450.9 1019.1 451.2 1019.66 451.8C1020.22 452.36 1020.5 453.02 1020.5 453.78C1020.5 454.54 1020.22 455.2 1019.66 455.76C1019.1 456.32 1018.42 456.6 1017.62 456.6C1016.82 456.6 1016.14 456.32 1015.58 455.76C1015.06 455.2 1014.8 454.54 1014.8 453.78C1014.8 452.98 1015.08 452.3 1015.64 451.74C1016.2 451.18 1016.86 450.9 1017.62 450.9Z" fill="white"/>
<path d="M645.518 324H682.227V327H645.518V324ZM702.852 324H833.102V327H702.852V324ZM853.734 324H955.654V327H853.734V324Z" fill="white"/>
<path d="M271.287 510.706V565.294H278.137C281.015 565.294 283.236 564.413 284.799 562.65C286.426 560.824 287.239 558.243 287.239 554.906V521.094C287.239 517.757 286.426 515.207 284.799 513.444C283.236 511.619 281.015 510.706 278.137 510.706H271.287ZM265 571.056V504.944H278.512C283.079 504.944 286.739 506.33 289.491 509.1C292.244 511.87 293.62 515.774 293.62 520.811V555C293.62 560.037 292.213 563.972 289.397 566.806C286.582 569.639 282.86 571.056 278.231 571.056H265Z" fill="url(#paint0_linear_1148_1940)"/>
<path d="M308.638 536.111V557.928C308.638 560.509 309.294 562.556 310.608 564.067C311.984 565.578 313.736 566.333 315.863 566.333C317.99 566.333 319.71 565.578 321.024 564.067C322.4 562.556 323.088 560.509 323.088 557.928V536.111C323.088 533.53 322.4 531.483 321.024 529.972C319.71 528.461 317.99 527.706 315.863 527.706C313.736 527.706 311.984 528.461 310.608 529.972C309.294 531.483 308.638 533.53 308.638 536.111ZM302.538 558.211V536.111C302.538 531.956 303.821 528.587 306.385 526.006C308.95 523.361 312.141 522.039 315.957 522.039C319.71 522.039 322.838 523.33 325.34 525.911C327.905 528.43 329.188 531.735 329.188 535.828V557.928C329.188 562.02 327.874 565.389 325.247 568.033C322.682 570.678 319.523 572 315.769 572C312.016 572 308.856 570.741 306.292 568.222C303.789 565.704 302.538 562.367 302.538 558.211Z" fill="url(#paint1_linear_1148_1940)"/>
<path d="M361.8 571.056L351.854 522.983H358.234L364.709 558.872L371.278 522.983H375.5L382.069 558.872L388.45 522.983H394.549L384.509 571.056H379.254L373.154 537.15L367.055 571.056H361.8Z" fill="url(#paint2_linear_1148_1940)"/>
<path d="M405.773 535.733V542.25H420.224V535.733C420.224 533.152 419.535 531.106 418.159 529.594C416.845 528.083 415.125 527.328 412.998 527.328C410.871 527.328 409.12 528.083 407.743 529.594C406.43 531.106 405.773 533.152 405.773 535.733ZM420.224 557.928V555.472H425.948V558.022C425.948 562.178 424.665 565.546 422.1 568.128C419.598 570.709 416.47 572 412.717 572C408.963 572 405.835 570.741 403.333 568.222C400.893 565.704 399.673 562.398 399.673 558.306V535.922C399.673 531.83 400.956 528.493 403.521 525.911C406.086 523.33 409.245 522.039 412.998 522.039C416.752 522.039 419.848 523.298 422.288 525.817C424.728 528.272 425.948 531.578 425.948 535.733V546.689H405.773V557.928C405.773 560.509 406.43 562.556 407.743 564.067C409.12 565.578 410.871 566.333 412.998 566.333C415.125 566.333 416.845 565.578 418.159 564.067C419.535 562.556 420.224 560.509 420.224 557.928Z" fill="url(#paint3_linear_1148_1940)"/>
<path d="M458.944 535.922V571.056H452.845V522.983H458.1L458.381 527.611C460.508 523.896 463.792 522.039 468.234 522.039C471.424 522.039 474.021 523.172 476.022 525.439C478.087 527.706 479.119 530.822 479.119 534.789V571.056H473.02V535.922C473.02 533.341 472.394 531.326 471.143 529.878C469.954 528.43 468.328 527.706 466.263 527.706C464.137 527.706 462.385 528.43 461.009 529.878C459.632 531.326 458.944 533.341 458.944 535.922Z" fill="url(#paint4_linear_1148_1940)"/>
<path d="M494.111 535.733V542.25H508.562V535.733C508.562 533.152 507.874 531.106 506.497 529.594C505.184 528.083 503.463 527.328 501.336 527.328C499.209 527.328 497.458 528.083 496.081 529.594C494.768 531.106 494.111 533.152 494.111 535.733ZM508.562 557.928V555.472H514.286V558.022C514.286 562.178 513.003 565.546 510.438 568.128C507.936 570.709 504.808 572 501.055 572C497.301 572 494.173 570.741 491.671 568.222C489.231 565.704 488.011 562.398 488.011 558.306V535.922C488.011 531.83 489.294 528.493 491.859 525.911C494.424 523.33 497.583 522.039 501.336 522.039C505.09 522.039 508.186 523.298 510.626 525.817C513.066 528.272 514.286 531.578 514.286 535.733V546.689H494.111V557.928C494.111 560.509 494.768 562.556 496.081 564.067C497.458 565.578 499.209 566.333 501.336 566.333C503.463 566.333 505.184 565.578 506.497 564.067C507.874 562.556 508.562 560.509 508.562 557.928Z" fill="url(#paint5_linear_1148_1940)"/>
<path d="M528.841 535.733V542.25H543.292V535.733C543.292 533.152 542.604 531.106 541.228 529.594C539.914 528.083 538.194 527.328 536.067 527.328C533.94 527.328 532.188 528.083 530.812 529.594C529.498 531.106 528.841 533.152 528.841 535.733ZM543.292 557.928V555.472H549.016V558.022C549.016 562.178 547.734 565.546 545.169 568.128C542.667 570.709 539.539 572 535.785 572C532.032 572 528.904 570.741 526.402 568.222C523.962 565.704 522.742 562.398 522.742 558.306V535.922C522.742 531.83 524.024 528.493 526.589 525.911C529.154 523.33 532.313 522.039 536.067 522.039C539.82 522.039 542.917 523.298 545.356 525.817C547.796 528.272 549.016 531.578 549.016 535.733V546.689H528.841V557.928C528.841 560.509 529.498 562.556 530.812 564.067C532.188 565.578 533.94 566.333 536.067 566.333C538.194 566.333 539.914 565.578 541.228 564.067C542.604 562.556 543.292 560.509 543.292 557.928Z" fill="url(#paint6_linear_1148_1940)"/>
<path d="M563.572 536.111V557.928C563.572 560.509 564.229 562.556 565.542 564.067C566.919 565.578 568.67 566.333 570.797 566.333C572.924 566.333 574.644 565.578 575.958 564.067C577.334 562.556 578.022 560.509 578.022 557.928V536.111C578.022 533.53 577.334 531.483 575.958 529.972C574.644 528.461 572.924 527.706 570.797 527.706C568.67 527.706 566.919 528.461 565.542 529.972C564.229 531.483 563.572 533.53 563.572 536.111ZM584.122 504.944V571.056H578.867L578.586 566.711C576.521 570.237 573.331 572 569.014 572C565.636 572 562.852 570.835 560.663 568.506C558.536 566.176 557.472 563.091 557.472 559.25V535.072C557.472 531.169 558.598 528.02 560.85 525.628C563.103 523.235 565.918 522.039 569.296 522.039C573.049 522.039 575.958 523.424 578.022 526.194V504.944H584.122Z" fill="url(#paint7_linear_1148_1940)"/>
<path d="M608.642 528.178V522.983H614.742V510.611H620.841V522.983H630.694V528.178H620.841V559.25C620.841 563.972 622.812 566.333 626.753 566.333L630.225 566.05V571.433C628.786 571.811 627.159 572 625.345 572C622.03 572 619.434 570.993 617.557 568.978C615.68 566.963 614.742 564.004 614.742 560.1V528.178H608.642Z" fill="url(#paint8_linear_1148_1940)"/>
<path d="M642.471 536.111V557.928C642.471 560.509 643.128 562.556 644.442 564.067C645.818 565.578 647.57 566.333 649.697 566.333C651.824 566.333 653.544 565.578 654.858 564.067C656.234 562.556 656.922 560.509 656.922 557.928V536.111C656.922 533.53 656.234 531.483 654.858 529.972C653.544 528.461 651.824 527.706 649.697 527.706C647.57 527.706 645.818 528.461 644.442 529.972C643.128 531.483 642.471 533.53 642.471 536.111ZM636.372 558.211V536.111C636.372 531.956 637.654 528.587 640.219 526.006C642.784 523.361 645.974 522.039 649.79 522.039C653.544 522.039 656.672 523.33 659.174 525.911C661.739 528.43 663.021 531.735 663.021 535.828V557.928C663.021 562.02 661.708 565.389 659.08 568.033C656.515 570.678 653.356 572 649.603 572C645.849 572 642.69 570.741 640.125 568.222C637.623 565.704 636.372 562.367 636.372 558.211Z" fill="url(#paint9_linear_1148_1940)"/>
<path d="M708.302 535.733V534.411C708.302 532.333 707.645 530.665 706.331 529.406C705.08 528.083 703.485 527.422 701.546 527.422C699.606 527.422 697.98 528.052 696.666 529.311C695.415 530.57 694.789 532.207 694.789 534.222C694.789 536.174 695.415 537.874 696.666 539.322C697.917 540.707 700.044 542.156 703.047 543.667C706.863 545.493 709.709 547.602 711.586 549.994C713.463 552.387 714.401 555.315 714.401 558.778C714.401 562.619 713.119 565.798 710.554 568.317C707.989 570.772 704.83 572 701.076 572C697.323 572 694.195 570.804 691.693 568.411C689.253 566.019 688.033 562.839 688.033 558.872V557.361H693.851V558.778C693.851 561.17 694.508 563.059 695.822 564.444C697.198 565.83 698.949 566.522 701.076 566.522C703.203 566.522 704.924 565.83 706.237 564.444C707.614 563.059 708.302 561.202 708.302 558.872C708.302 556.731 707.614 554.874 706.237 553.3C704.861 551.663 702.421 549.994 698.918 548.294C692.099 544.894 688.69 540.204 688.69 534.222C688.69 530.696 689.91 527.8 692.35 525.533C694.852 523.204 697.917 522.039 701.546 522.039C705.174 522.039 708.177 523.204 710.554 525.533C712.931 527.8 714.12 530.728 714.12 534.317V535.733H708.302Z" fill="url(#paint10_linear_1148_1940)"/>
<path d="M727.968 535.733V542.25H742.419V535.733C742.419 533.152 741.731 531.106 740.355 529.594C739.041 528.083 737.321 527.328 735.194 527.328C733.067 527.328 731.315 528.083 729.939 529.594C728.625 531.106 727.968 533.152 727.968 535.733ZM742.419 557.928V555.472H748.143V558.022C748.143 562.178 746.861 565.546 744.296 568.128C741.794 570.709 738.666 572 734.912 572C731.159 572 728.031 570.741 725.529 568.222C723.089 565.704 721.869 562.398 721.869 558.306V535.922C721.869 531.83 723.152 528.493 725.716 525.911C728.281 523.33 731.44 522.039 735.194 522.039C738.947 522.039 742.044 523.298 744.484 525.817C746.923 528.272 748.143 531.578 748.143 535.733V546.689H727.968V557.928C727.968 560.509 728.625 562.556 729.939 564.067C731.315 565.578 733.067 566.333 735.194 566.333C737.321 566.333 739.041 565.578 740.355 564.067C741.731 562.556 742.419 560.509 742.419 557.928Z" fill="url(#paint11_linear_1148_1940)"/>
<path d="M758.007 571.056V504.944H764.294V571.056H758.007Z" fill="url(#paint12_linear_1148_1940)"/>
<path d="M775.51 571.056V504.944H781.797V571.056H775.51Z" fill="url(#paint13_linear_1148_1940)"/>
<path d="M806.762 528.178V522.983H812.861V510.611H818.96V522.983H828.813V528.178H818.96V559.25C818.96 563.972 820.931 566.333 824.872 566.333L828.344 566.05V571.433C826.905 571.811 825.279 572 823.465 572C820.149 572 817.553 570.993 815.676 568.978C813.799 566.963 812.861 564.004 812.861 560.1V528.178H806.762Z" fill="url(#paint14_linear_1148_1940)"/>
<path d="M863.078 571.056H856.979V535.922C856.979 533.341 856.353 531.326 855.102 529.878C853.913 528.43 852.287 527.706 850.223 527.706C848.096 527.706 846.344 528.398 844.968 529.783C843.591 531.169 842.903 533.057 842.903 535.45V571.056H836.804V504.944H842.903V527.139C845.03 523.739 848.127 522.039 852.193 522.039C855.384 522.039 857.98 523.172 859.982 525.439C862.046 527.706 863.078 530.822 863.078 534.789V571.056Z" fill="url(#paint15_linear_1148_1940)"/>
<path d="M873.378 571.056V522.983H879.665V571.056H873.378ZM873.378 506.267C874.254 505.385 875.286 504.944 876.475 504.944C877.663 504.944 878.695 505.385 879.571 506.267C880.51 507.148 880.979 508.219 880.979 509.478C880.979 510.674 880.541 511.713 879.665 512.594C878.789 513.476 877.726 513.917 876.475 513.917C875.286 513.917 874.254 513.507 873.378 512.689C872.502 511.807 872.064 510.737 872.064 509.478C872.064 508.219 872.502 507.148 873.378 506.267Z" fill="url(#paint16_linear_1148_1940)"/>
<path d="M908.803 535.733V534.411C908.803 532.333 908.147 530.665 906.833 529.406C905.582 528.083 903.987 527.422 902.047 527.422C900.108 527.422 898.482 528.052 897.168 529.311C895.917 530.57 895.291 532.207 895.291 534.222C895.291 536.174 895.917 537.874 897.168 539.322C898.419 540.707 900.546 542.156 903.549 543.667C907.365 545.493 910.211 547.602 912.088 549.994C913.964 552.387 914.903 555.315 914.903 558.778C914.903 562.619 913.62 565.798 911.056 568.317C908.491 570.772 905.332 572 901.578 572C897.825 572 894.697 570.804 892.194 568.411C889.755 566.019 888.535 562.839 888.535 558.872V557.361H894.353V558.778C894.353 561.17 895.01 563.059 896.323 564.444C897.7 565.83 899.451 566.522 901.578 566.522C903.705 566.522 905.425 565.83 906.739 564.444C908.115 563.059 908.803 561.202 908.803 558.872C908.803 556.731 908.115 554.874 906.739 553.3C905.363 551.663 902.923 549.994 899.42 548.294C892.601 544.894 889.192 540.204 889.192 534.222C889.192 530.696 890.412 527.8 892.851 525.533C895.354 523.204 898.419 522.039 902.047 522.039C905.676 522.039 908.678 523.204 911.056 525.533C913.433 527.8 914.621 530.728 914.621 534.317V535.733H908.803Z" fill="url(#paint17_linear_1148_1940)"/>
<path d="M933.581 563.028C934.833 563.028 935.896 563.5 936.772 564.444C937.648 565.326 938.086 566.365 938.086 567.561C938.086 568.757 937.648 569.796 936.772 570.678C935.896 571.559 934.833 572 933.581 572C932.33 572 931.267 571.559 930.391 570.678C929.578 569.796 929.171 568.757 929.171 567.561C929.171 566.302 929.609 565.231 930.485 564.35C931.361 563.469 932.393 563.028 933.581 563.028ZM936.49 548.861V551.506H930.672V548.672C930.672 546.28 931.204 543.761 932.268 541.117C933.331 538.409 934.489 536.048 935.74 534.033C937.053 532.019 938.242 529.626 939.305 526.856C940.369 524.022 940.901 521.283 940.901 518.639C940.901 515.869 940.212 513.728 938.836 512.217C937.523 510.643 935.771 509.856 933.581 509.856C931.454 509.856 929.734 510.643 928.42 512.217C927.107 513.728 926.45 515.869 926.45 518.639V523.833H920.538V518.544C920.538 514.137 921.789 510.611 924.292 507.967C926.794 505.322 929.953 504 933.769 504C937.585 504 940.744 505.354 943.247 508.061C945.749 510.706 947 514.2 947 518.544C947 521.378 946.437 524.243 945.311 527.139C944.247 530.035 943.059 532.491 941.745 534.506C940.431 536.52 939.212 538.85 938.086 541.494C937.022 544.076 936.49 546.531 936.49 548.861Z" fill="url(#paint18_linear_1148_1940)"/>
<path d="M281.875 224.624V73.2477H322.929C333.946 73.2477 341.95 75.9427 346.942 81.3326C351.991 86.6651 354.515 95.4954 354.515 107.823V114.446C354.515 121.556 353.224 127.319 350.642 131.734C348.118 136.149 344.245 139.045 339.023 140.421C345.851 142.141 350.413 146.183 352.708 152.548C355.06 158.856 356.237 166.568 356.237 175.685C356.237 185.49 355.319 194.062 353.483 201.401C351.647 208.741 348.319 214.446 343.499 218.517C338.679 222.588 331.823 224.624 322.929 224.624H281.875ZM311.482 130.272H317.679C320.491 130.272 322.298 129.182 323.101 127.003C323.904 124.825 324.306 122.216 324.306 119.177V103.953C324.306 99.0791 322.154 96.6422 317.851 96.6422H311.482V130.272ZM314.495 197.961C322.355 197.961 326.286 194.234 326.286 186.78V167.858C326.286 163.557 325.626 160.174 324.306 157.709C323.044 155.186 320.634 153.924 317.077 153.924H311.482V197.789C312.745 197.904 313.749 197.961 314.495 197.961Z" fill="white"/>
<path d="M364.843 224.624V73.2477H394.106V224.624H364.843Z" fill="white"/>
<path d="M437.397 226C415.766 226 404.95 210.518 404.95 179.555V114.274C404.95 86.0057 417.344 71.8716 442.131 71.8716C452.344 71.8716 460.176 73.9358 465.627 78.0642C471.078 82.1353 474.836 88.0986 476.902 95.9541C478.967 103.81 480 113.385 480 124.681H450.393V111.264C450.393 107.995 449.934 105.272 449.016 103.093C448.155 100.857 446.319 99.7385 443.508 99.7385C440.008 99.7385 437.684 100.914 436.537 103.265C435.446 105.616 434.901 108.196 434.901 111.006V184.372C434.901 188.443 435.418 191.768 436.45 194.349C437.541 196.872 439.635 198.133 442.733 198.133C445.946 198.133 448.069 196.872 449.102 194.349C450.192 191.768 450.737 188.385 450.737 184.2V162.611H442.647V136.464H479.656V224.624H467.52L462.356 211.895C457.078 221.298 448.758 226 437.397 226Z" fill="white"/>
<path d="M276 218.752V67.3761H317.054C328.07 67.3761 336.074 70.0711 341.066 75.461C346.115 80.7936 348.64 89.6239 348.64 101.952V108.575C348.64 115.685 347.349 121.447 344.767 125.862C342.242 130.278 338.369 133.173 333.148 134.549C339.976 136.269 344.537 140.312 346.833 146.677C349.185 152.984 350.361 160.696 350.361 169.813C350.361 179.618 349.443 188.19 347.607 195.53C345.771 202.869 342.443 208.575 337.623 212.646C332.804 216.717 325.947 218.752 317.054 218.752H276ZM305.607 124.4H311.804C314.615 124.4 316.422 123.311 317.226 121.132C318.029 118.953 318.431 116.344 318.431 113.305V98.0814C318.431 93.2076 316.279 90.7706 311.976 90.7706H305.607V124.4ZM308.619 192.089C316.48 192.089 320.41 188.362 320.41 180.908V161.986C320.41 157.686 319.75 154.303 318.431 151.837C317.168 149.314 314.759 148.053 311.201 148.053H305.607V191.917C306.869 192.032 307.873 192.089 308.619 192.089Z" fill="#BC0000"/>
<path d="M358.968 218.752V67.3761H388.23V218.752H358.968Z" fill="#BC0000"/>
<path d="M431.522 220.128C409.89 220.128 399.075 204.647 399.075 173.683V108.403C399.075 80.1342 411.468 66 436.255 66C446.469 66 454.301 68.0642 459.751 72.1927C465.202 76.2638 468.961 82.2271 471.026 90.0826C473.092 97.9381 474.125 107.514 474.125 118.81H444.518V105.392C444.518 102.124 444.059 99.4002 443.141 97.2213C442.28 94.9851 440.444 93.867 437.632 93.867C434.132 93.867 431.809 95.0424 430.661 97.3933C429.571 99.7443 429.026 102.325 429.026 105.134V178.5C429.026 182.571 429.542 185.897 430.575 188.477C431.665 191 433.759 192.261 436.858 192.261C440.071 192.261 442.194 191 443.227 188.477C444.317 185.897 444.862 182.514 444.862 178.328V156.74H436.772V130.593H473.78V218.752H461.645L456.481 206.023C451.202 215.427 442.882 220.128 431.522 220.128Z" fill="#BC0000"/>
<path d="M549.888 224.624V73.2477H591.032C602.073 73.2477 610.095 75.9427 615.097 81.3326C620.158 86.6651 622.688 95.4954 622.688 107.823V114.446C622.688 121.556 621.394 127.319 618.806 131.734C616.276 136.149 612.395 139.045 607.162 140.421C614.005 142.141 618.576 146.183 620.877 152.548C623.234 158.856 624.413 166.568 624.413 175.685C624.413 185.49 623.493 194.062 621.653 201.401C619.813 208.741 616.478 214.446 611.647 218.517C606.817 222.588 599.945 224.624 591.032 224.624H549.888ZM579.56 130.272H585.771C588.588 130.272 590.4 129.182 591.205 127.003C592.01 124.825 592.412 122.216 592.412 119.177V103.953C592.412 99.0791 590.256 96.6422 585.943 96.6422H579.56V130.272ZM582.579 197.961C590.457 197.961 594.396 194.234 594.396 186.78V167.858C594.396 163.557 593.735 160.174 592.412 157.709C591.147 155.186 588.732 153.924 585.167 153.924H579.56V197.789C580.825 197.904 581.832 197.961 582.579 197.961Z" fill="white"/>
<path d="M630.278 224.624L644.942 73.2477H696.436L710.841 224.624H682.118L679.962 200.197H661.675L659.778 224.624H630.278ZM663.832 176.029H677.633L670.991 99.0505H669.611L663.832 176.029Z" fill="white"/>
<path d="M720.157 224.624V73.2477H750.519V198.821H781.743V224.624H720.157Z" fill="white"/>
<path d="M790.369 224.624V73.2477H820.73V198.821H851.955V224.624H790.369Z" fill="white"/>
<path d="M896.635 226C882.777 226 872.771 222.56 866.618 215.679C860.523 208.798 857.475 197.846 857.475 182.823V168.03H887.492V186.952C887.492 190.45 888.01 193.202 889.045 195.209C890.137 197.158 892.006 198.133 894.651 198.133C897.412 198.133 899.309 197.33 900.344 195.725C901.437 194.119 901.983 191.482 901.983 187.812C901.983 183.167 901.523 179.297 900.603 176.201C899.683 173.047 898.073 170.065 895.773 167.256C893.53 164.389 890.396 161.063 886.371 157.279L872.743 144.377C862.564 134.802 857.475 123.85 857.475 111.522C857.475 98.6204 860.465 88.7867 866.446 82.0206C872.484 75.2546 881.196 71.8716 892.581 71.8716C906.497 71.8716 916.359 75.57 922.167 82.9667C928.032 90.3635 930.965 101.602 930.965 116.682H900.085V106.275C900.085 104.211 899.482 102.606 898.274 101.459C897.124 100.312 895.543 99.7385 893.53 99.7385C891.115 99.7385 889.332 100.427 888.182 101.803C887.09 103.122 886.543 104.842 886.543 106.963C886.543 109.085 887.118 111.378 888.268 113.844C889.419 116.31 891.69 119.148 895.083 122.359L912.593 139.131C916.1 142.456 919.32 145.983 922.253 149.71C925.186 153.38 927.543 157.68 929.326 162.611C931.109 167.485 932 173.448 932 180.501C932 194.721 929.355 205.874 924.065 213.959C918.832 221.986 909.689 226 896.635 226Z" fill="white"/>
<path d="M544 218.752V67.3761H585.144C596.185 67.3761 604.206 70.0711 609.209 75.461C614.269 80.7936 616.8 89.6239 616.8 101.952V108.575C616.8 115.685 615.506 121.447 612.918 125.862C610.388 130.278 606.506 133.173 601.274 134.549C608.117 136.269 612.688 140.312 614.988 146.677C617.346 152.984 618.525 160.696 618.525 169.813C618.525 179.618 617.605 188.19 615.765 195.53C613.924 202.869 610.589 208.575 605.759 212.646C600.929 216.717 594.057 218.752 585.144 218.752H544ZM573.672 124.4H579.882C582.7 124.4 584.511 123.311 585.316 121.132C586.121 118.953 586.524 116.344 586.524 113.305V98.0814C586.524 93.2076 584.368 90.7706 580.055 90.7706H573.672V124.4ZM576.691 192.089C584.569 192.089 588.508 188.362 588.508 180.908V161.986C588.508 157.686 587.847 154.303 586.524 151.837C585.259 149.314 582.844 148.053 579.278 148.053H573.672V191.917C574.937 192.032 575.943 192.089 576.691 192.089Z" fill="#BC0000"/>
<path d="M624.39 218.752L639.054 67.3761H690.548L704.953 218.752H676.23L674.073 194.326H655.787L653.889 218.752H624.39ZM657.943 170.157H671.744L665.103 93.1789H663.723L657.943 170.157Z" fill="#BC0000"/>
<path d="M714.268 218.752V67.3761H744.63V192.95H775.855V218.752H714.268Z" fill="#BC0000"/>
<path d="M784.48 218.752V67.3761H814.842V192.95H846.067V218.752H784.48Z" fill="#BC0000"/>
<path d="M890.747 220.128C876.889 220.128 866.883 216.688 860.73 209.807C854.635 202.927 851.587 191.975 851.587 176.952V162.158H881.604V181.08C881.604 184.578 882.121 187.33 883.156 189.337C884.249 191.287 886.118 192.261 888.763 192.261C891.523 192.261 893.421 191.459 894.456 189.853C895.548 188.248 896.095 185.61 896.095 181.94C896.095 177.296 895.635 173.425 894.715 170.329C893.795 167.175 892.184 164.194 889.884 161.384C887.642 158.517 884.508 155.192 880.483 151.407L866.854 138.506C856.676 128.93 851.587 117.978 851.587 105.65C851.587 92.7489 854.577 82.9151 860.557 76.1491C866.595 69.383 875.307 66 886.693 66C900.609 66 910.471 69.6984 916.279 77.0952C922.144 84.492 925.077 95.7305 925.077 110.811H894.197V100.404C894.197 98.3395 893.593 96.7339 892.386 95.5872C891.236 94.4404 889.654 93.867 887.642 93.867C885.227 93.867 883.444 94.555 882.294 95.9312C881.201 97.25 880.655 98.9702 880.655 101.092C880.655 103.213 881.23 105.507 882.38 107.972C883.53 110.438 885.802 113.276 889.194 116.487L906.704 133.259C910.212 136.585 913.432 140.111 916.365 143.838C919.297 147.508 921.655 151.808 923.438 156.74C925.22 161.614 926.112 167.577 926.112 174.63C926.112 188.85 923.466 200.002 918.176 208.087C912.943 216.115 903.8 220.128 890.747 220.128Z" fill="#BC0000"/>
<defs>
<linearGradient id="paint0_linear_1148_1940" x1="265" y1="538" x2="947" y2="538" gradientUnits="userSpaceOnUse">
<stop stop-color="white"/>
<stop offset="1" stop-color="#999999"/>
</linearGradient>
<linearGradient id="paint1_linear_1148_1940" x1="265" y1="538" x2="947" y2="538" gradientUnits="userSpaceOnUse">
<stop stop-color="white"/>
<stop offset="1" stop-color="#999999"/>
</linearGradient>
<linearGradient id="paint2_linear_1148_1940" x1="265" y1="538" x2="947" y2="538" gradientUnits="userSpaceOnUse">
<stop stop-color="white"/>
<stop offset="1" stop-color="#999999"/>
</linearGradient>
<linearGradient id="paint3_linear_1148_1940" x1="265" y1="538" x2="947" y2="538" gradientUnits="userSpaceOnUse">
<stop stop-color="white"/>
<stop offset="1" stop-color="#999999"/>
</linearGradient>
<linearGradient id="paint4_linear_1148_1940" x1="265" y1="538" x2="947" y2="538" gradientUnits="userSpaceOnUse">
<stop stop-color="white"/>
<stop offset="1" stop-color="#999999"/>
</linearGradient>
<linearGradient id="paint5_linear_1148_1940" x1="265" y1="538" x2="947" y2="538" gradientUnits="userSpaceOnUse">
<stop stop-color="white"/>
<stop offset="1" stop-color="#999999"/>
</linearGradient>
<linearGradient id="paint6_linear_1148_1940" x1="265" y1="538" x2="947" y2="538" gradientUnits="userSpaceOnUse">
<stop stop-color="white"/>
<stop offset="1" stop-color="#999999"/>
</linearGradient>
<linearGradient id="paint7_linear_1148_1940" x1="265" y1="538" x2="947" y2="538" gradientUnits="userSpaceOnUse">
<stop stop-color="white"/>
<stop offset="1" stop-color="#999999"/>
</linearGradient>
<linearGradient id="paint8_linear_1148_1940" x1="265" y1="538" x2="947" y2="538" gradientUnits="userSpaceOnUse">
<stop stop-color="white"/>
<stop offset="1" stop-color="#999999"/>
</linearGradient>
<linearGradient id="paint9_linear_1148_1940" x1="265" y1="538" x2="947" y2="538" gradientUnits="userSpaceOnUse">
<stop stop-color="white"/>
<stop offset="1" stop-color="#999999"/>
</linearGradient>
<linearGradient id="paint10_linear_1148_1940" x1="265" y1="538" x2="947" y2="538" gradientUnits="userSpaceOnUse">
<stop stop-color="white"/>
<stop offset="1" stop-color="#999999"/>
</linearGradient>
<linearGradient id="paint11_linear_1148_1940" x1="265" y1="538" x2="947" y2="538" gradientUnits="userSpaceOnUse">
<stop stop-color="white"/>
<stop offset="1" stop-color="#999999"/>
</linearGradient>
<linearGradient id="paint12_linear_1148_1940" x1="265" y1="538" x2="947" y2="538" gradientUnits="userSpaceOnUse">
<stop stop-color="white"/>
<stop offset="1" stop-color="#999999"/>
</linearGradient>
<linearGradient id="paint13_linear_1148_1940" x1="265" y1="538" x2="947" y2="538" gradientUnits="userSpaceOnUse">
<stop stop-color="white"/>
<stop offset="1" stop-color="#999999"/>
</linearGradient>
<linearGradient id="paint14_linear_1148_1940" x1="265" y1="538" x2="947" y2="538" gradientUnits="userSpaceOnUse">
<stop stop-color="white"/>
<stop offset="1" stop-color="#999999"/>
</linearGradient>
<linearGradient id="paint15_linear_1148_1940" x1="265" y1="538" x2="947" y2="538" gradientUnits="userSpaceOnUse">
<stop stop-color="white"/>
<stop offset="1" stop-color="#999999"/>
</linearGradient>
<linearGradient id="paint16_linear_1148_1940" x1="265" y1="538" x2="947" y2="538" gradientUnits="userSpaceOnUse">
<stop stop-color="white"/>
<stop offset="1" stop-color="#999999"/>
</linearGradient>
<linearGradient id="paint17_linear_1148_1940" x1="265" y1="538" x2="947" y2="538" gradientUnits="userSpaceOnUse">
<stop stop-color="white"/>
<stop offset="1" stop-color="#999999"/>
</linearGradient>
<linearGradient id="paint18_linear_1148_1940" x1="265" y1="538" x2="947" y2="538" gradientUnits="userSpaceOnUse">
<stop stop-color="white"/>
<stop offset="1" stop-color="#999999"/>
</linearGradient>
</defs>
</svg>
