<svg width="1208" height="1208" viewBox="0 0 1208 1208" fill="none" xmlns="http://www.w3.org/2000/svg">
<g clip-path="url(#clip0_1148_2069)">
<rect width="1208" height="1208" fill="black"/>
<path d="M1265.86 1320L1265 762H-25V1320H1265.86Z" fill="black" stroke="black" stroke-width="2"/>
<path d="M113.62 560.66V595.34H118C119.84 595.34 121.26 594.78 122.26 593.66C123.3 592.5 123.82 590.86 123.82 588.74V567.26C123.82 565.14 123.3 563.52 122.26 562.4C121.26 561.24 119.84 560.66 118 560.66H113.62ZM109.6 599V557H118.24C121.16 557 123.5 557.88 125.26 559.64C127.02 561.4 127.9 563.88 127.9 567.08V588.8C127.9 592 127 594.5 125.2 596.3C123.4 598.1 121.02 599 118.06 599H109.6ZM137.502 576.8V590.66C137.502 592.3 137.922 593.6 138.762 594.56C139.642 595.52 140.762 596 142.122 596C143.482 596 144.582 595.52 145.422 594.56C146.302 593.6 146.742 592.3 146.742 590.66V576.8C146.742 575.16 146.302 573.86 145.422 572.9C144.582 571.94 143.482 571.46 142.122 571.46C140.762 571.46 139.642 571.94 138.762 572.9C137.922 573.86 137.502 575.16 137.502 576.8ZM133.602 590.84V576.8C133.602 574.16 134.422 572.02 136.062 570.38C137.702 568.7 139.742 567.86 142.182 567.86C144.582 567.86 146.582 568.68 148.182 570.32C149.822 571.92 150.642 574.02 150.642 576.62V590.66C150.642 593.26 149.802 595.4 148.122 597.08C146.482 598.76 144.462 599.6 142.062 599.6C139.662 599.6 137.642 598.8 136.002 597.2C134.402 595.6 133.602 593.48 133.602 590.84ZM160.544 576.68V599H156.644V568.46H160.004L160.184 571.4C161.544 569.04 163.644 567.86 166.484 567.86C168.524 567.86 170.184 568.58 171.464 570.02C172.784 571.46 173.444 573.44 173.444 575.96V599H169.544V576.68C169.544 575.04 169.144 573.76 168.344 572.84C167.584 571.92 166.544 571.46 165.224 571.46C163.864 571.46 162.744 571.92 161.864 572.84C160.984 573.76 160.544 575.04 160.544 576.68ZM182.07 570.8H178.83L179.19 557H183.57L182.07 570.8ZM188.997 571.76V568.46H192.897V560.6H196.797V568.46H203.097V571.76H196.797V591.5C196.797 594.5 198.057 596 200.577 596L202.797 595.82V599.24C201.877 599.48 200.837 599.6 199.677 599.6C197.557 599.6 195.897 598.96 194.697 597.68C193.497 596.4 192.897 594.52 192.897 592.04V571.76H188.997ZM232.538 590.66V576.8C232.538 575.16 232.098 573.86 231.218 572.9C230.378 571.94 229.278 571.46 227.918 571.46C226.558 571.46 225.438 571.94 224.558 572.9C223.718 573.86 223.298 575.16 223.298 576.8V590.66C223.298 592.3 223.718 593.6 224.558 594.56C225.438 595.52 226.558 596 227.918 596C229.278 596 230.378 595.52 231.218 594.56C232.098 593.6 232.538 592.3 232.538 590.66ZM219.398 599V557H223.298V570.74C224.658 568.82 226.558 567.86 228.998 567.86C231.198 567.86 232.978 568.6 234.338 570.08C235.738 571.56 236.438 573.52 236.438 575.96V591.32C236.438 593.76 235.718 595.76 234.278 597.32C232.838 598.84 231.038 599.6 228.878 599.6C226.158 599.6 224.178 598.54 222.938 596.42L222.758 599H219.398ZM245.725 576.56V580.7H254.965V576.56C254.965 574.92 254.525 573.62 253.645 572.66C252.805 571.7 251.705 571.22 250.345 571.22C248.985 571.22 247.865 571.7 246.985 572.66C246.145 573.62 245.725 574.92 245.725 576.56ZM254.965 590.66V589.1H258.625V590.72C258.625 593.36 257.805 595.5 256.165 597.14C254.565 598.78 252.565 599.6 250.165 599.6C247.765 599.6 245.765 598.8 244.165 597.2C242.605 595.6 241.825 593.5 241.825 590.9V576.68C241.825 574.08 242.645 571.96 244.285 570.32C245.925 568.68 247.945 567.86 250.345 567.86C252.745 567.86 254.725 568.66 256.285 570.26C257.845 571.82 258.625 573.92 258.625 576.56V583.52H245.725V590.66C245.725 592.3 246.145 593.6 246.985 594.56C247.865 595.52 248.985 596 250.345 596C251.705 596 252.805 595.52 253.645 594.56C254.525 593.6 254.965 592.3 254.965 590.66ZM287.583 576.56V575.72C287.583 574.4 287.163 573.34 286.323 572.54C285.523 571.7 284.503 571.28 283.263 571.28C282.023 571.28 280.983 571.68 280.143 572.48C279.343 573.28 278.943 574.32 278.943 575.6C278.943 576.84 279.343 577.92 280.143 578.84C280.943 579.72 282.303 580.64 284.223 581.6C286.663 582.76 288.483 584.1 289.683 585.62C290.883 587.14 291.483 589 291.483 591.2C291.483 593.64 290.663 595.66 289.023 597.26C287.383 598.82 285.363 599.6 282.963 599.6C280.563 599.6 278.563 598.84 276.963 597.32C275.403 595.8 274.623 593.78 274.623 591.26V590.3H278.343V591.2C278.343 592.72 278.763 593.92 279.603 594.8C280.483 595.68 281.603 596.12 282.963 596.12C284.323 596.12 285.423 595.68 286.263 594.8C287.143 593.92 287.583 592.74 287.583 591.26C287.583 589.9 287.143 588.72 286.263 587.72C285.383 586.68 283.823 585.62 281.583 584.54C277.223 582.38 275.043 579.4 275.043 575.6C275.043 573.36 275.823 571.52 277.383 570.08C278.983 568.6 280.943 567.86 283.263 567.86C285.583 567.86 287.503 568.6 289.023 570.08C290.543 571.52 291.303 573.38 291.303 575.66V576.56H287.583ZM309.459 590.78V568.46H313.359V599H309.999L309.819 596.06C308.459 598.42 306.359 599.6 303.519 599.6C301.479 599.6 299.799 598.88 298.479 597.44C297.199 596 296.559 594.02 296.559 591.5V568.46H300.459V590.78C300.459 592.42 300.839 593.7 301.599 594.62C302.399 595.54 303.459 596 304.779 596C306.139 596 307.259 595.54 308.139 594.62C309.019 593.7 309.459 592.42 309.459 590.78ZM330.865 567.86V572H330.025C328.105 572 326.585 572.6 325.465 573.8C324.385 574.96 323.845 576.7 323.845 579.02V599H319.945V568.46H323.305L323.545 572.18C324.945 569.3 327.385 567.86 330.865 567.86ZM348.495 590.66V576.8C348.495 575.16 348.055 573.86 347.175 572.9C346.335 571.94 345.235 571.46 343.875 571.46C342.515 571.46 341.395 571.94 340.515 572.9C339.675 573.86 339.255 575.16 339.255 576.8V590.66C339.255 592.3 339.675 593.6 340.515 594.56C341.395 595.52 342.515 596 343.875 596C345.235 596 346.335 595.52 347.175 594.56C348.055 593.6 348.495 592.3 348.495 590.66ZM335.355 608.6V568.46H338.715L338.895 571.22C340.255 568.98 342.275 567.86 344.955 567.86C347.155 567.86 348.935 568.6 350.295 570.08C351.695 571.56 352.395 573.52 352.395 575.96V591.32C352.395 593.76 351.675 595.76 350.235 597.32C348.795 598.84 346.995 599.6 344.835 599.6C342.435 599.6 340.575 598.72 339.255 596.96V608.6H335.355ZM369.302 567.86V572H368.462C366.542 572 365.022 572.6 363.902 573.8C362.822 574.96 362.282 576.7 362.282 579.02V599H358.382V568.46H361.742L361.982 572.18C363.382 569.3 365.822 567.86 369.302 567.86ZM374.092 599V568.46H378.112V599H374.092ZM374.092 557.84C374.652 557.28 375.312 557 376.072 557C376.832 557 377.492 557.28 378.052 557.84C378.652 558.4 378.952 559.08 378.952 559.88C378.952 560.64 378.672 561.3 378.112 561.86C377.552 562.42 376.872 562.7 376.072 562.7C375.312 562.7 374.652 562.44 374.092 561.92C373.532 561.36 373.252 560.68 373.252 559.88C373.252 559.08 373.532 558.4 374.092 557.84ZM396.744 576.56V575.72C396.744 574.4 396.324 573.34 395.484 572.54C394.684 571.7 393.664 571.28 392.424 571.28C391.184 571.28 390.144 571.68 389.304 572.48C388.504 573.28 388.104 574.32 388.104 575.6C388.104 576.84 388.504 577.92 389.304 578.84C390.104 579.72 391.464 580.64 393.384 581.6C395.824 582.76 397.644 584.1 398.844 585.62C400.044 587.14 400.644 589 400.644 591.2C400.644 593.64 399.824 595.66 398.184 597.26C396.544 598.82 394.524 599.6 392.124 599.6C389.724 599.6 387.724 598.84 386.124 597.32C384.564 595.8 383.784 593.78 383.784 591.26V590.3H387.504V591.2C387.504 592.72 387.924 593.92 388.764 594.8C389.644 595.68 390.764 596.12 392.124 596.12C393.484 596.12 394.584 595.68 395.424 594.8C396.304 593.92 396.744 592.74 396.744 591.26C396.744 589.9 396.304 588.72 395.424 587.72C394.544 586.68 392.984 585.62 390.744 584.54C386.384 582.38 384.204 579.4 384.204 575.6C384.204 573.36 384.984 571.52 386.544 570.08C388.144 568.6 390.104 567.86 392.424 567.86C394.744 567.86 396.664 568.6 398.184 570.08C399.704 571.52 400.464 573.38 400.464 575.66V576.56H396.744ZM409.319 576.56V580.7H418.559V576.56C418.559 574.92 418.119 573.62 417.239 572.66C416.399 571.7 415.299 571.22 413.939 571.22C412.579 571.22 411.459 571.7 410.579 572.66C409.739 573.62 409.319 574.92 409.319 576.56ZM418.559 590.66V589.1H422.219V590.72C422.219 593.36 421.399 595.5 419.759 597.14C418.159 598.78 416.159 599.6 413.759 599.6C411.359 599.6 409.359 598.8 407.759 597.2C406.199 595.6 405.419 593.5 405.419 590.9V576.68C405.419 574.08 406.239 571.96 407.879 570.32C409.519 568.68 411.539 567.86 413.939 567.86C416.339 567.86 418.319 568.66 419.879 570.26C421.439 571.82 422.219 573.92 422.219 576.56V583.52H409.319V590.66C409.319 592.3 409.739 593.6 410.579 594.56C411.459 595.52 412.579 596 413.939 596C415.299 596 416.399 595.52 417.239 594.56C418.119 593.6 418.559 592.3 418.559 590.66ZM431.526 576.8V590.66C431.526 592.3 431.946 593.6 432.786 594.56C433.666 595.52 434.786 596 436.146 596C437.506 596 438.606 595.52 439.446 594.56C440.326 593.6 440.766 592.3 440.766 590.66V576.8C440.766 575.16 440.326 573.86 439.446 572.9C438.606 571.94 437.506 571.46 436.146 571.46C434.786 571.46 433.666 571.94 432.786 572.9C431.946 573.86 431.526 575.16 431.526 576.8ZM444.666 557V599H441.306L441.126 596.24C439.806 598.48 437.766 599.6 435.006 599.6C432.846 599.6 431.066 598.86 429.666 597.38C428.306 595.9 427.626 593.94 427.626 591.5V576.14C427.626 573.66 428.346 571.66 429.786 570.14C431.226 568.62 433.026 567.86 435.186 567.86C437.586 567.86 439.446 568.74 440.766 570.5V557H444.666ZM462.745 599V568.46H466.765V599H462.745ZM462.745 557.84C463.305 557.28 463.965 557 464.725 557C465.485 557 466.145 557.28 466.705 557.84C467.305 558.4 467.605 559.08 467.605 559.88C467.605 560.64 467.325 561.3 466.765 561.86C466.205 562.42 465.525 562.7 464.725 562.7C463.965 562.7 463.305 562.44 462.745 561.92C462.185 561.36 461.905 560.68 461.905 559.88C461.905 559.08 462.185 558.4 462.745 557.84ZM471.536 571.76V568.46H475.436V563.96C475.436 561.48 476.036 559.6 477.236 558.32C478.436 557.04 480.096 556.4 482.216 556.4L485.336 556.76V560.12C484.536 560 483.796 559.94 483.116 559.94C480.596 559.94 479.336 561.44 479.336 564.44V568.46H485.336V571.76H479.336V599H475.436V571.76H471.536ZM113.8 668L106.6 637.46H110.74L115.72 661.94L120.7 637.46H124.6L117.16 668.9C116.36 672.3 115.34 674.7 114.1 676.1C112.86 677.5 111.38 678.2 109.66 678.2L107.8 677.96V674.72C108.08 674.8 108.48 674.84 109 674.84C110.2 674.84 111.16 674.36 111.88 673.4C112.6 672.48 113.24 670.68 113.8 668ZM131.819 645.8V659.66C131.819 661.3 132.239 662.6 133.079 663.56C133.959 664.52 135.079 665 136.439 665C137.799 665 138.899 664.52 139.739 663.56C140.619 662.6 141.059 661.3 141.059 659.66V645.8C141.059 644.16 140.619 642.86 139.739 641.9C138.899 640.94 137.799 640.46 136.439 640.46C135.079 640.46 133.959 640.94 133.079 641.9C132.239 642.86 131.819 644.16 131.819 645.8ZM127.919 659.84V645.8C127.919 643.16 128.739 641.02 130.379 639.38C132.019 637.7 134.059 636.86 136.499 636.86C138.899 636.86 140.899 637.68 142.499 639.32C144.139 640.92 144.959 643.02 144.959 645.62V659.66C144.959 662.26 144.119 664.4 142.439 666.08C140.799 667.76 138.779 668.6 136.379 668.6C133.979 668.6 131.959 667.8 130.319 666.2C128.719 664.6 127.919 662.48 127.919 659.84ZM163.56 659.78V637.46H167.46V668H164.1L163.92 665.06C162.56 667.42 160.46 668.6 157.62 668.6C155.58 668.6 153.9 667.88 152.58 666.44C151.3 665 150.66 663.02 150.66 660.5V637.46H154.56V659.78C154.56 661.42 154.94 662.7 155.7 663.62C156.5 664.54 157.56 665 158.88 665C160.24 665 161.36 664.54 162.24 663.62C163.12 662.7 163.56 661.42 163.56 659.78ZM176.386 639.8H173.146L173.506 626H177.886L176.386 639.8ZM194.517 636.86V641H193.677C191.757 641 190.237 641.6 189.117 642.8C188.037 643.96 187.497 645.7 187.497 648.02V668H183.597V637.46H186.957L187.197 641.18C188.597 638.3 191.037 636.86 194.517 636.86ZM201.135 645.56V649.7H210.375V645.56C210.375 643.92 209.935 642.62 209.055 641.66C208.215 640.7 207.115 640.22 205.755 640.22C204.395 640.22 203.275 640.7 202.395 641.66C201.555 642.62 201.135 643.92 201.135 645.56ZM210.375 659.66V658.1H214.035V659.72C214.035 662.36 213.215 664.5 211.575 666.14C209.975 667.78 207.975 668.6 205.575 668.6C203.175 668.6 201.175 667.8 199.575 666.2C198.015 664.6 197.235 662.5 197.235 659.9V645.68C197.235 643.08 198.055 640.96 199.695 639.32C201.335 637.68 203.355 636.86 205.755 636.86C208.155 636.86 210.135 637.66 211.695 639.26C213.255 640.82 214.035 642.92 214.035 645.56V652.52H201.135V659.66C201.135 661.3 201.555 662.6 202.395 663.56C203.275 664.52 204.395 665 205.755 665C207.115 665 208.215 664.52 209.055 663.56C209.935 662.6 210.375 661.3 210.375 659.66ZM242.994 645.56V644.72C242.994 643.4 242.574 642.34 241.734 641.54C240.934 640.7 239.914 640.28 238.674 640.28C237.434 640.28 236.394 640.68 235.554 641.48C234.754 642.28 234.354 643.32 234.354 644.6C234.354 645.84 234.754 646.92 235.554 647.84C236.354 648.72 237.714 649.64 239.634 650.6C242.074 651.76 243.894 653.1 245.094 654.62C246.294 656.14 246.894 658 246.894 660.2C246.894 662.64 246.074 664.66 244.434 666.26C242.794 667.82 240.774 668.6 238.374 668.6C235.974 668.6 233.974 667.84 232.374 666.32C230.814 664.8 230.034 662.78 230.034 660.26V659.3H233.754V660.2C233.754 661.72 234.174 662.92 235.014 663.8C235.894 664.68 237.014 665.12 238.374 665.12C239.734 665.12 240.834 664.68 241.674 663.8C242.554 662.92 242.994 661.74 242.994 660.26C242.994 658.9 242.554 657.72 241.674 656.72C240.794 655.68 239.234 654.62 236.994 653.54C232.634 651.38 230.454 648.4 230.454 644.6C230.454 642.36 231.234 640.52 232.794 639.08C234.394 637.6 236.354 636.86 238.674 636.86C240.994 636.86 242.914 637.6 244.434 639.08C245.954 640.52 246.714 642.38 246.714 644.66V645.56H242.994ZM250.169 640.76V637.46H254.069V629.6H257.969V637.46H264.269V640.76H257.969V660.5C257.969 663.5 259.229 665 261.749 665L263.969 664.82V668.24C263.049 668.48 262.009 668.6 260.849 668.6C258.729 668.6 257.069 667.96 255.869 666.68C254.669 665.4 254.069 663.52 254.069 661.04V640.76H250.169ZM269.678 668V637.46H273.698V668H269.678ZM269.678 626.84C270.238 626.28 270.898 626 271.658 626C272.418 626 273.078 626.28 273.638 626.84C274.238 627.4 274.538 628.08 274.538 628.88C274.538 629.64 274.258 630.3 273.698 630.86C273.138 631.42 272.458 631.7 271.658 631.7C270.898 631.7 270.238 631.44 269.678 630.92C269.118 630.36 268.838 629.68 268.838 628.88C268.838 628.08 269.118 627.4 269.678 626.84ZM280.87 668V626H284.89V668H280.87ZM292.061 668V626H296.081V668H292.061ZM317.804 668L311.444 637.46H315.524L319.664 660.26L323.864 637.46H326.564L330.764 660.26L334.844 637.46H338.744L332.324 668H328.964L325.064 646.46L321.164 668H317.804ZM345.034 658.4V659.72C345.034 661.4 345.474 662.76 346.354 663.8C347.234 664.8 348.394 665.3 349.834 665.3C351.274 665.3 352.434 664.8 353.314 663.8C354.194 662.76 354.634 661.4 354.634 659.72V658.4C354.634 656.72 354.194 655.38 353.314 654.38C352.434 653.34 351.274 652.82 349.834 652.82C348.394 652.82 347.234 653.34 346.354 654.38C345.474 655.38 345.034 656.72 345.034 658.4ZM341.134 659.9V658.52C341.134 655.92 341.874 653.8 343.354 652.16C344.834 650.48 346.694 649.64 348.934 649.64C351.334 649.64 353.234 650.6 354.634 652.52V645.32C354.634 643.8 354.214 642.58 353.374 641.66C352.574 640.74 351.554 640.28 350.314 640.28C349.074 640.28 348.034 640.74 347.194 641.66C346.394 642.58 345.994 643.8 345.994 645.32V646.58H342.274V645.5C342.274 642.94 343.054 640.86 344.614 639.26C346.174 637.66 348.094 636.86 350.374 636.86C352.694 636.86 354.634 637.64 356.194 639.2C357.754 640.76 358.534 642.8 358.534 645.32V668H355.354L355.054 665C353.614 667.4 351.514 668.6 348.754 668.6C346.514 668.6 344.674 667.82 343.234 666.26C341.834 664.66 341.134 662.54 341.134 659.9ZM365.127 668V637.46H369.147V668H365.127ZM365.127 626.84C365.687 626.28 366.347 626 367.107 626C367.867 626 368.527 626.28 369.087 626.84C369.687 627.4 369.987 628.08 369.987 628.88C369.987 629.64 369.707 630.3 369.147 630.86C368.587 631.42 367.907 631.7 367.107 631.7C366.347 631.7 365.687 631.44 365.127 630.92C364.567 630.36 364.287 629.68 364.287 628.88C364.287 628.08 364.567 627.4 365.127 626.84ZM373.919 640.76V637.46H377.819V629.6H381.719V637.46H388.019V640.76H381.719V660.5C381.719 663.5 382.979 665 385.499 665L387.719 664.82V668.24C386.799 668.48 385.759 668.6 384.599 668.6C382.479 668.6 380.819 667.96 379.619 666.68C378.419 665.4 377.819 663.52 377.819 661.04V640.76H373.919ZM393.428 668V637.46H397.448V668H393.428ZM393.428 626.84C393.988 626.28 394.648 626 395.408 626C396.168 626 396.828 626.28 397.388 626.84C397.988 627.4 398.288 628.08 398.288 628.88C398.288 629.64 398.008 630.3 397.448 630.86C396.888 631.42 396.208 631.7 395.408 631.7C394.648 631.7 393.988 631.44 393.428 630.92C392.868 630.36 392.588 629.68 392.588 628.88C392.588 628.08 392.868 627.4 393.428 626.84ZM408.22 645.68V668H404.32V637.46H407.68L407.86 640.4C409.22 638.04 411.32 636.86 414.16 636.86C416.2 636.86 417.86 637.58 419.14 639.02C420.46 640.46 421.12 642.44 421.12 644.96V668H417.22V645.68C417.22 644.04 416.82 642.76 416.02 641.84C415.26 640.92 414.22 640.46 412.9 640.46C411.54 640.46 410.42 640.92 409.54 641.84C408.66 642.76 408.22 644.04 408.22 645.68ZM430.705 645.8V657.08C430.705 658.72 431.125 660.02 431.965 660.98C432.845 661.94 433.965 662.42 435.325 662.42C436.645 662.42 437.745 661.96 438.625 661.04C439.505 660.08 439.945 658.8 439.945 657.2V645.8C439.945 644.16 439.505 642.86 438.625 641.9C437.785 640.94 436.685 640.46 435.325 640.46C433.965 640.46 432.845 640.94 431.965 641.9C431.125 642.86 430.705 644.16 430.705 645.8ZM443.845 637.46V669.26C443.845 671.86 443.005 674 441.325 675.68C439.685 677.36 437.665 678.2 435.265 678.2C432.865 678.2 430.885 677.4 429.325 675.8C427.765 674.2 426.985 672.08 426.985 669.44V668.48H430.705V669.38C430.705 671.02 431.125 672.32 431.965 673.28C432.845 674.24 433.965 674.72 435.325 674.72C436.685 674.72 437.785 674.24 438.625 673.28C439.505 672.32 439.945 671.02 439.945 669.38V663.08C438.585 664.96 436.665 665.9 434.185 665.9C432.025 665.9 430.245 665.16 428.845 663.68C427.485 662.2 426.805 660.24 426.805 657.8V645.14C426.805 642.66 427.525 640.66 428.965 639.14C430.405 637.62 432.205 636.86 434.365 636.86C436.965 636.86 438.945 637.92 440.305 640.04L440.485 637.46H443.845ZM107.2 709.76V706.46H111.1V698.6H115V706.46H121.3V709.76H115V729.5C115 732.5 116.26 734 118.78 734L121 733.82V737.24C120.08 737.48 119.04 737.6 117.88 737.6C115.76 737.6 114.1 736.96 112.9 735.68C111.7 734.4 111.1 732.52 111.1 730.04V709.76H107.2ZM143.209 737H139.309V714.68C139.309 713.04 138.909 711.76 138.109 710.84C137.349 709.92 136.309 709.46 134.989 709.46C133.629 709.46 132.509 709.9 131.629 710.78C130.749 711.66 130.309 712.86 130.309 714.38V737H126.409V695H130.309V709.1C131.669 706.94 133.649 705.86 136.249 705.86C138.289 705.86 139.949 706.58 141.229 708.02C142.549 709.46 143.209 711.44 143.209 713.96V737ZM152.795 714.8V728.66C152.795 730.3 153.215 731.6 154.055 732.56C154.935 733.52 156.055 734 157.415 734C158.775 734 159.875 733.52 160.715 732.56C161.595 731.6 162.035 730.3 162.035 728.66V714.8C162.035 713.16 161.595 711.86 160.715 710.9C159.875 709.94 158.775 709.46 157.415 709.46C156.055 709.46 154.935 709.94 154.055 710.9C153.215 711.86 152.795 713.16 152.795 714.8ZM148.895 728.84V714.8C148.895 712.16 149.715 710.02 151.355 708.38C152.995 706.7 155.035 705.86 157.475 705.86C159.875 705.86 161.875 706.68 163.475 708.32C165.115 709.92 165.935 712.02 165.935 714.62V728.66C165.935 731.26 165.095 733.4 163.415 735.08C161.775 736.76 159.755 737.6 157.355 737.6C154.955 737.6 152.935 736.8 151.295 735.2C149.695 733.6 148.895 731.48 148.895 728.84ZM184.537 728.78V706.46H188.437V737H185.077L184.897 734.06C183.537 736.42 181.437 737.6 178.597 737.6C176.557 737.6 174.877 736.88 173.557 735.44C172.277 734 171.637 732.02 171.637 729.5V706.46H175.537V728.78C175.537 730.42 175.917 731.7 176.677 732.62C177.477 733.54 178.537 734 179.857 734C181.217 734 182.337 733.54 183.217 732.62C184.097 731.7 184.537 730.42 184.537 728.78ZM198.323 714.8V726.08C198.323 727.72 198.743 729.02 199.583 729.98C200.463 730.94 201.583 731.42 202.943 731.42C204.263 731.42 205.363 730.96 206.243 730.04C207.123 729.08 207.563 727.8 207.563 726.2V714.8C207.563 713.16 207.123 711.86 206.243 710.9C205.403 709.94 204.303 709.46 202.943 709.46C201.583 709.46 200.463 709.94 199.583 710.9C198.743 711.86 198.323 713.16 198.323 714.8ZM211.463 706.46V738.26C211.463 740.86 210.623 743 208.943 744.68C207.303 746.36 205.283 747.2 202.883 747.2C200.483 747.2 198.503 746.4 196.943 744.8C195.383 743.2 194.603 741.08 194.603 738.44V737.48H198.323V738.38C198.323 740.02 198.743 741.32 199.583 742.28C200.463 743.24 201.583 743.72 202.943 743.72C204.303 743.72 205.403 743.24 206.243 742.28C207.123 741.32 207.563 740.02 207.563 738.38V732.08C206.203 733.96 204.283 734.9 201.803 734.9C199.643 734.9 197.863 734.16 196.463 732.68C195.103 731.2 194.423 729.24 194.423 726.8V714.14C194.423 711.66 195.143 709.66 196.583 708.14C198.023 706.62 199.823 705.86 201.983 705.86C204.583 705.86 206.563 706.92 207.923 709.04L208.103 706.46H211.463ZM234.85 737H230.95V714.68C230.95 713.04 230.55 711.76 229.75 710.84C228.99 709.92 227.95 709.46 226.63 709.46C225.27 709.46 224.15 709.9 223.27 710.78C222.39 711.66 221.95 712.86 221.95 714.38V737H218.05V695H221.95V709.1C223.31 706.94 225.29 705.86 227.89 705.86C229.93 705.86 231.59 706.58 232.87 708.02C234.19 709.46 234.85 711.44 234.85 713.96V737ZM242.756 731.9C243.556 731.9 244.236 732.2 244.796 732.8C245.356 733.36 245.636 734.02 245.636 734.78C245.636 735.54 245.356 736.2 244.796 736.76C244.236 737.32 243.556 737.6 242.756 737.6C241.956 737.6 241.276 737.32 240.716 736.76C240.196 736.2 239.936 735.54 239.936 734.78C239.936 733.98 240.216 733.3 240.776 732.74C241.336 732.18 241.996 731.9 242.756 731.9ZM254.756 731.9C255.556 731.9 256.236 732.2 256.796 732.8C257.356 733.36 257.636 734.02 257.636 734.78C257.636 735.54 257.356 736.2 256.796 736.76C256.236 737.32 255.556 737.6 254.756 737.6C253.956 737.6 253.276 737.32 252.716 736.76C252.196 736.2 251.936 735.54 251.936 734.78C251.936 733.98 252.216 733.3 252.776 732.74C253.336 732.18 253.996 731.9 254.756 731.9ZM266.756 731.9C267.556 731.9 268.236 732.2 268.796 732.8C269.356 733.36 269.636 734.02 269.636 734.78C269.636 735.54 269.356 736.2 268.796 736.76C268.236 737.32 267.556 737.6 266.756 737.6C265.956 737.6 265.276 737.32 264.716 736.76C264.196 736.2 263.936 735.54 263.936 734.78C263.936 733.98 264.216 733.3 264.776 732.74C265.336 732.18 265.996 731.9 266.756 731.9Z" fill="white"/>
<path d="M127.92 297.84H120.6V336H116.52V297.84H109.2V294H127.92V297.84ZM131.175 326.4V327.72C131.175 329.4 131.615 330.76 132.495 331.8C133.375 332.8 134.535 333.3 135.975 333.3C137.415 333.3 138.575 332.8 139.455 331.8C140.335 330.76 140.775 329.4 140.775 327.72V326.4C140.775 324.72 140.335 323.38 139.455 322.38C138.575 321.34 137.415 320.82 135.975 320.82C134.535 320.82 133.375 321.34 132.495 322.38C131.615 323.38 131.175 324.72 131.175 326.4ZM127.275 327.9V326.52C127.275 323.92 128.015 321.8 129.495 320.16C130.975 318.48 132.835 317.64 135.075 317.64C137.475 317.64 139.375 318.6 140.775 320.52V313.32C140.775 311.8 140.355 310.58 139.515 309.66C138.715 308.74 137.695 308.28 136.455 308.28C135.215 308.28 134.175 308.74 133.335 309.66C132.535 310.58 132.135 311.8 132.135 313.32V314.58H128.415V313.5C128.415 310.94 129.195 308.86 130.755 307.26C132.315 305.66 134.235 304.86 136.515 304.86C138.835 304.86 140.775 305.64 142.335 307.2C143.895 308.76 144.675 310.8 144.675 313.32V336H141.495L141.195 333C139.755 335.4 137.655 336.6 134.895 336.6C132.655 336.6 130.815 335.82 129.375 334.26C127.975 332.66 127.275 330.54 127.275 327.9ZM154.868 313.68V336H150.968V305.46H154.328L154.508 308.4C155.868 306.04 157.968 304.86 160.808 304.86C162.848 304.86 164.508 305.58 165.788 307.02C167.108 308.46 167.768 310.44 167.768 312.96V336H163.868V313.68C163.868 312.04 163.468 310.76 162.668 309.84C161.908 308.92 160.868 308.46 159.548 308.46C158.188 308.46 157.068 308.92 156.188 309.84C155.308 310.76 154.868 312.04 154.868 313.68ZM186.654 327.78V305.46H190.554V336H187.194L187.014 333.06C185.654 335.42 183.554 336.6 180.714 336.6C178.674 336.6 176.994 335.88 175.674 334.44C174.394 333 173.754 331.02 173.754 328.5V305.46H177.654V327.78C177.654 329.42 178.034 330.7 178.794 331.62C179.594 332.54 180.654 333 181.974 333C183.334 333 184.454 332.54 185.334 331.62C186.214 330.7 186.654 329.42 186.654 327.78ZM197.14 336V294H201.04V318.78L209.38 305.46H213.94L204.7 319.26L214.54 336H209.92L201.04 320.34V336H197.14ZM218.768 336V305.46H222.788V336H218.768ZM218.768 294.84C219.328 294.28 219.988 294 220.748 294C221.508 294 222.168 294.28 222.728 294.84C223.328 295.4 223.628 296.08 223.628 296.88C223.628 297.64 223.348 298.3 222.788 298.86C222.228 299.42 221.548 299.7 220.748 299.7C219.988 299.7 219.328 299.44 218.768 298.92C218.208 298.36 217.928 297.68 217.928 296.88C217.928 296.08 218.208 295.4 218.768 294.84ZM241.151 336V305.46H245.171V336H241.151ZM241.151 294.84C241.711 294.28 242.371 294 243.131 294C243.891 294 244.551 294.28 245.111 294.84C245.711 295.4 246.011 296.08 246.011 296.88C246.011 297.64 245.731 298.3 245.171 298.86C244.611 299.42 243.931 299.7 243.131 299.7C242.371 299.7 241.711 299.44 241.151 298.92C240.591 298.36 240.311 297.68 240.311 296.88C240.311 296.08 240.591 295.4 241.151 294.84ZM263.802 313.56V312.72C263.802 311.4 263.382 310.34 262.542 309.54C261.742 308.7 260.722 308.28 259.482 308.28C258.242 308.28 257.202 308.68 256.362 309.48C255.562 310.28 255.162 311.32 255.162 312.6C255.162 313.84 255.562 314.92 256.362 315.84C257.162 316.72 258.522 317.64 260.442 318.6C262.882 319.76 264.702 321.1 265.902 322.62C267.102 324.14 267.702 326 267.702 328.2C267.702 330.64 266.882 332.66 265.242 334.26C263.602 335.82 261.582 336.6 259.182 336.6C256.782 336.6 254.782 335.84 253.182 334.32C251.622 332.8 250.842 330.78 250.842 328.26V327.3H254.562V328.2C254.562 329.72 254.982 330.92 255.822 331.8C256.702 332.68 257.822 333.12 259.182 333.12C260.542 333.12 261.642 332.68 262.482 331.8C263.362 330.92 263.802 329.74 263.802 328.26C263.802 326.9 263.362 325.72 262.482 324.72C261.602 323.68 260.042 322.62 257.802 321.54C253.442 319.38 251.262 316.4 251.262 312.6C251.262 310.36 252.042 308.52 253.602 307.08C255.202 305.6 257.162 304.86 259.482 304.86C261.802 304.86 263.722 305.6 265.242 307.08C266.762 308.52 267.522 310.38 267.522 312.66V313.56H263.802ZM280.069 345.96V342.54C280.469 342.62 280.929 342.66 281.449 342.66C282.409 342.66 283.169 342.34 283.729 341.7C284.289 341.1 284.569 340.22 284.569 339.06V305.46H288.589V339.36C288.589 341.48 287.989 343.14 286.789 344.34C285.629 345.58 284.129 346.2 282.289 346.2L280.069 345.96ZM284.569 294.84C285.129 294.28 285.789 294 286.549 294C287.309 294 287.969 294.28 288.529 294.84C289.129 295.4 289.429 296.08 289.429 296.88C289.429 297.64 289.149 298.3 288.589 298.86C288.029 299.42 287.349 299.7 286.549 299.7C285.789 299.7 285.129 299.44 284.569 298.92C284.009 298.36 283.729 297.68 283.729 296.88C283.729 296.08 284.009 295.4 284.569 294.84ZM298.76 313.8V327.66C298.76 329.3 299.18 330.6 300.02 331.56C300.9 332.52 302.02 333 303.38 333C304.74 333 305.84 332.52 306.68 331.56C307.56 330.6 308 329.3 308 327.66V313.8C308 312.16 307.56 310.86 306.68 309.9C305.84 308.94 304.74 308.46 303.38 308.46C302.02 308.46 300.9 308.94 300.02 309.9C299.18 310.86 298.76 312.16 298.76 313.8ZM294.86 327.84V313.8C294.86 311.16 295.68 309.02 297.32 307.38C298.96 305.7 301 304.86 303.44 304.86C305.84 304.86 307.84 305.68 309.44 307.32C311.08 308.92 311.9 311.02 311.9 313.62V327.66C311.9 330.26 311.06 332.4 309.38 334.08C307.74 335.76 305.72 336.6 303.32 336.6C300.92 336.6 298.9 335.8 297.26 334.2C295.66 332.6 294.86 330.48 294.86 327.84ZM318.202 336V294H322.222V336H318.202ZM329.393 336V294H333.413V336H329.393ZM344.784 336L337.584 305.46H341.724L346.704 329.94L351.684 305.46H355.584L348.144 336.9C347.344 340.3 346.324 342.7 345.084 344.1C343.844 345.5 342.364 346.2 340.644 346.2L338.784 345.96V342.72C339.064 342.8 339.464 342.84 339.984 342.84C341.184 342.84 342.144 342.36 342.864 341.4C343.584 340.48 344.224 338.68 344.784 336ZM373.695 326.4V327.72C373.695 329.4 374.135 330.76 375.015 331.8C375.895 332.8 377.055 333.3 378.495 333.3C379.935 333.3 381.095 332.8 381.975 331.8C382.855 330.76 383.295 329.4 383.295 327.72V326.4C383.295 324.72 382.855 323.38 381.975 322.38C381.095 321.34 379.935 320.82 378.495 320.82C377.055 320.82 375.895 321.34 375.015 322.38C374.135 323.38 373.695 324.72 373.695 326.4ZM369.795 327.9V326.52C369.795 323.92 370.535 321.8 372.015 320.16C373.495 318.48 375.355 317.64 377.595 317.64C379.995 317.64 381.895 318.6 383.295 320.52V313.32C383.295 311.8 382.875 310.58 382.035 309.66C381.235 308.74 380.215 308.28 378.975 308.28C377.735 308.28 376.695 308.74 375.855 309.66C375.055 310.58 374.655 311.8 374.655 313.32V314.58H370.935V313.5C370.935 310.94 371.715 308.86 373.275 307.26C374.835 305.66 376.755 304.86 379.035 304.86C381.355 304.86 383.295 305.64 384.855 307.2C386.415 308.76 387.195 310.8 387.195 313.32V336H384.015L383.715 333C382.275 335.4 380.175 336.6 377.415 336.6C375.175 336.6 373.335 335.82 371.895 334.26C370.495 332.66 369.795 330.54 369.795 327.9ZM397.388 313.68V336H393.488V305.46H396.848L397.028 308.4C398.388 306.04 400.488 304.86 403.328 304.86C405.368 304.86 407.028 305.58 408.308 307.02C409.628 308.46 410.288 310.44 410.288 312.96V336H406.388V313.68C406.388 312.04 405.988 310.76 405.188 309.84C404.428 308.92 403.388 308.46 402.068 308.46C400.708 308.46 399.588 308.92 398.708 309.84C397.828 310.76 397.388 312.04 397.388 313.68ZM419.873 313.8V327.66C419.873 329.3 420.293 330.6 421.133 331.56C422.013 332.52 423.133 333 424.493 333C425.853 333 426.953 332.52 427.793 331.56C428.673 330.6 429.113 329.3 429.113 327.66V313.8C429.113 312.16 428.673 310.86 427.793 309.9C426.953 308.94 425.853 308.46 424.493 308.46C423.133 308.46 422.013 308.94 421.133 309.9C420.293 310.86 419.873 312.16 419.873 313.8ZM433.013 294V336H429.653L429.473 333.24C428.153 335.48 426.113 336.6 423.353 336.6C421.193 336.6 419.413 335.86 418.013 334.38C416.653 332.9 415.973 330.94 415.973 328.5V313.14C415.973 310.66 416.693 308.66 418.133 307.14C419.573 305.62 421.373 304.86 423.533 304.86C425.933 304.86 427.793 305.74 429.113 307.5V294H433.013ZM451.092 336V294H455.112V336H451.092ZM465.284 313.8V327.66C465.284 329.3 465.704 330.6 466.544 331.56C467.424 332.52 468.544 333 469.904 333C471.264 333 472.364 332.52 473.204 331.56C474.084 330.6 474.524 329.3 474.524 327.66V313.8C474.524 312.16 474.084 310.86 473.204 309.9C472.364 308.94 471.264 308.46 469.904 308.46C468.544 308.46 467.424 308.94 466.544 309.9C465.704 310.86 465.284 312.16 465.284 313.8ZM461.384 327.84V313.8C461.384 311.16 462.204 309.02 463.844 307.38C465.484 305.7 467.524 304.86 469.964 304.86C472.364 304.86 474.364 305.68 475.964 307.32C477.604 308.92 478.424 311.02 478.424 313.62V327.66C478.424 330.26 477.584 332.4 475.904 334.08C474.264 335.76 472.244 336.6 469.844 336.6C467.444 336.6 465.424 335.8 463.784 334.2C462.184 332.6 461.384 330.48 461.384 327.84ZM488.925 336L481.725 305.46H485.865L490.845 329.22L495.825 305.46H499.725L492.525 336H488.925ZM506.944 313.56V317.7H516.184V313.56C516.184 311.92 515.744 310.62 514.864 309.66C514.024 308.7 512.924 308.22 511.564 308.22C510.204 308.22 509.084 308.7 508.204 309.66C507.364 310.62 506.944 311.92 506.944 313.56ZM516.184 327.66V326.1H519.844V327.72C519.844 330.36 519.024 332.5 517.384 334.14C515.784 335.78 513.784 336.6 511.384 336.6C508.984 336.6 506.984 335.8 505.384 334.2C503.824 332.6 503.044 330.5 503.044 327.9V313.68C503.044 311.08 503.864 308.96 505.504 307.32C507.144 305.68 509.164 304.86 511.564 304.86C513.964 304.86 515.944 305.66 517.504 307.26C519.064 308.82 519.844 310.92 519.844 313.56V320.52H506.944V327.66C506.944 329.3 507.364 330.6 508.204 331.56C509.084 332.52 510.204 333 511.564 333C512.924 333 514.024 332.52 514.864 331.56C515.744 330.6 516.184 329.3 516.184 327.66ZM528.191 307.8H524.951L525.311 294H529.691L528.191 307.8ZM547.162 313.56V312.72C547.162 311.4 546.742 310.34 545.902 309.54C545.102 308.7 544.082 308.28 542.842 308.28C541.602 308.28 540.562 308.68 539.722 309.48C538.922 310.28 538.522 311.32 538.522 312.6C538.522 313.84 538.922 314.92 539.722 315.84C540.522 316.72 541.882 317.64 543.802 318.6C546.242 319.76 548.062 321.1 549.262 322.62C550.462 324.14 551.062 326 551.062 328.2C551.062 330.64 550.242 332.66 548.602 334.26C546.962 335.82 544.942 336.6 542.542 336.6C540.142 336.6 538.142 335.84 536.542 334.32C534.982 332.8 534.202 330.78 534.202 328.26V327.3H537.922V328.2C537.922 329.72 538.342 330.92 539.182 331.8C540.062 332.68 541.182 333.12 542.542 333.12C543.902 333.12 545.002 332.68 545.842 331.8C546.722 330.92 547.162 329.74 547.162 328.26C547.162 326.9 546.722 325.72 545.842 324.72C544.962 323.68 543.402 322.62 541.162 321.54C536.802 319.38 534.622 316.4 534.622 312.6C534.622 310.36 535.402 308.52 536.962 307.08C538.562 305.6 540.522 304.86 542.842 304.86C545.162 304.86 547.082 305.6 548.602 307.08C550.122 308.52 550.882 310.38 550.882 312.66V313.56H547.162ZM570.928 313.8V327.66C570.928 329.3 571.348 330.6 572.188 331.56C573.068 332.52 574.188 333 575.548 333C576.908 333 578.008 332.52 578.848 331.56C579.728 330.6 580.168 329.3 580.168 327.66V313.8C580.168 312.16 579.728 310.86 578.848 309.9C578.008 308.94 576.908 308.46 575.548 308.46C574.188 308.46 573.068 308.94 572.188 309.9C571.348 310.86 570.928 312.16 570.928 313.8ZM584.068 294V336H580.708L580.528 333.24C579.208 335.48 577.168 336.6 574.408 336.6C572.248 336.6 570.468 335.86 569.068 334.38C567.708 332.9 567.028 330.94 567.028 328.5V313.14C567.028 310.66 567.748 308.66 569.188 307.14C570.628 305.62 572.428 304.86 574.588 304.86C576.988 304.86 578.848 305.74 580.168 307.5V294H584.068ZM601.575 304.86V309H600.735C598.815 309 597.295 309.6 596.175 310.8C595.095 311.96 594.555 313.7 594.555 316.02V336H590.655V305.46H594.015L594.255 309.18C595.655 306.3 598.095 304.86 601.575 304.86ZM606.366 336V305.46H610.386V336H606.366ZM606.366 294.84C606.926 294.28 607.586 294 608.346 294C609.106 294 609.766 294.28 610.326 294.84C610.926 295.4 611.226 296.08 611.226 296.88C611.226 297.64 610.946 298.3 610.386 298.86C609.826 299.42 609.146 299.7 608.346 299.7C607.586 299.7 606.926 299.44 606.366 298.92C605.806 298.36 605.526 297.68 605.526 296.88C605.526 296.08 605.806 295.4 606.366 294.84ZM621.157 313.68V336H617.257V305.46H620.617L620.797 308.4C622.157 306.04 624.257 304.86 627.097 304.86C629.137 304.86 630.797 305.58 632.077 307.02C633.397 308.46 634.057 310.44 634.057 312.96V336H630.157V313.68C630.157 312.04 629.757 310.76 628.957 309.84C628.197 308.92 627.157 308.46 625.837 308.46C624.477 308.46 623.357 308.92 622.477 309.84C621.597 310.76 621.157 312.04 621.157 313.68ZM640.343 336V294H644.243V318.78L652.583 305.46H657.143L647.903 319.26L657.743 336H653.123L644.243 320.34V336H640.343ZM661.971 336V305.46H665.991V336H661.971ZM661.971 294.84C662.531 294.28 663.191 294 663.951 294C664.711 294 665.371 294.28 665.931 294.84C666.531 295.4 666.831 296.08 666.831 296.88C666.831 297.64 666.551 298.3 665.991 298.86C665.431 299.42 664.751 299.7 663.951 299.7C663.191 299.7 662.531 299.44 661.971 298.92C661.411 298.36 661.131 297.68 661.131 296.88C661.131 296.08 661.411 295.4 661.971 294.84ZM676.763 313.68V336H672.863V305.46H676.223L676.403 308.4C677.763 306.04 679.863 304.86 682.703 304.86C684.743 304.86 686.403 305.58 687.683 307.02C689.003 308.46 689.663 310.44 689.663 312.96V336H685.763V313.68C685.763 312.04 685.363 310.76 684.562 309.84C683.803 308.92 682.763 308.46 681.443 308.46C680.083 308.46 678.963 308.92 678.083 309.84C677.203 310.76 676.763 312.04 676.763 313.68ZM699.248 313.8V325.08C699.248 326.72 699.668 328.02 700.508 328.98C701.388 329.94 702.508 330.42 703.868 330.42C705.188 330.42 706.288 329.96 707.168 329.04C708.048 328.08 708.488 326.8 708.488 325.2V313.8C708.488 312.16 708.048 310.86 707.168 309.9C706.328 308.94 705.228 308.46 703.868 308.46C702.508 308.46 701.388 308.94 700.508 309.9C699.668 310.86 699.248 312.16 699.248 313.8ZM712.388 305.46V337.26C712.388 339.86 711.548 342 709.868 343.68C708.228 345.36 706.208 346.2 703.808 346.2C701.408 346.2 699.428 345.4 697.868 343.8C696.308 342.2 695.528 340.08 695.528 337.44V336.48H699.248V337.38C699.248 339.02 699.668 340.32 700.508 341.28C701.388 342.24 702.508 342.72 703.868 342.72C705.228 342.72 706.328 342.24 707.168 341.28C708.048 340.32 708.488 339.02 708.488 337.38V331.08C707.128 332.96 705.208 333.9 702.728 333.9C700.568 333.9 698.788 333.16 697.388 331.68C696.028 330.2 695.348 328.24 695.348 325.8V313.14C695.348 310.66 696.068 308.66 697.508 307.14C698.948 305.62 700.748 304.86 702.908 304.86C705.508 304.86 707.488 305.92 708.848 308.04L709.028 305.46H712.388ZM720.596 330.9C721.396 330.9 722.076 331.2 722.636 331.8C723.196 332.36 723.476 333.02 723.476 333.78C723.476 334.54 723.196 335.2 722.636 335.76C722.076 336.32 721.396 336.6 720.596 336.6C719.796 336.6 719.116 336.32 718.556 335.76C718.036 335.2 717.776 334.54 717.776 333.78C717.776 332.98 718.056 332.3 718.616 331.74C719.176 331.18 719.836 330.9 720.596 330.9ZM744.39 336L737.37 294H741.69L746.49 326.52L751.47 294H754.65L759.63 326.52L764.49 294H768.57L761.55 336H757.83L752.97 305.64L748.11 336H744.39ZM789.272 336H785.372V313.68C785.372 312.04 784.972 310.76 784.172 309.84C783.412 308.92 782.372 308.46 781.052 308.46C779.692 308.46 778.572 308.9 777.692 309.78C776.812 310.66 776.372 311.86 776.372 313.38V336H772.472V294H776.372V308.1C777.732 305.94 779.712 304.86 782.312 304.86C784.352 304.86 786.012 305.58 787.292 307.02C788.612 308.46 789.272 310.44 789.272 312.96V336ZM798.858 313.8V327.66C798.858 329.3 799.278 330.6 800.118 331.56C800.998 332.52 802.118 333 803.478 333C804.838 333 805.938 332.52 806.778 331.56C807.658 330.6 808.098 329.3 808.098 327.66V313.8C808.098 312.16 807.658 310.86 806.778 309.9C805.938 308.94 804.838 308.46 803.478 308.46C802.118 308.46 800.998 308.94 800.118 309.9C799.278 310.86 798.858 312.16 798.858 313.8ZM794.958 327.84V313.8C794.958 311.16 795.778 309.02 797.418 307.38C799.058 305.7 801.098 304.86 803.538 304.86C805.938 304.86 807.938 305.68 809.538 307.32C811.178 308.92 811.998 311.02 811.998 313.62V327.66C811.998 330.26 811.158 332.4 809.478 334.08C807.838 335.76 805.818 336.6 803.418 336.6C801.018 336.6 798.998 335.8 797.358 334.2C795.758 332.6 794.958 330.48 794.958 327.84ZM832.491 313.8V327.66C832.491 329.3 832.911 330.6 833.751 331.56C834.631 332.52 835.751 333 837.111 333C838.471 333 839.571 332.52 840.411 331.56C841.291 330.6 841.731 329.3 841.731 327.66V313.8C841.731 312.16 841.291 310.86 840.411 309.9C839.571 308.94 838.471 308.46 837.111 308.46C835.751 308.46 834.631 308.94 833.751 309.9C832.911 310.86 832.491 312.16 832.491 313.8ZM845.631 294V336H842.271L842.091 333.24C840.771 335.48 838.731 336.6 835.971 336.6C833.811 336.6 832.031 335.86 830.631 334.38C829.271 332.9 828.591 330.94 828.591 328.5V313.14C828.591 310.66 829.311 308.66 830.751 307.14C832.191 305.62 833.991 304.86 836.151 304.86C838.551 304.86 840.411 305.74 841.731 307.5V294H845.631ZM855.518 313.8V327.66C855.518 329.3 855.938 330.6 856.778 331.56C857.658 332.52 858.778 333 860.138 333C861.498 333 862.598 332.52 863.438 331.56C864.318 330.6 864.758 329.3 864.758 327.66V313.8C864.758 312.16 864.318 310.86 863.438 309.9C862.598 308.94 861.498 308.46 860.138 308.46C858.778 308.46 857.658 308.94 856.778 309.9C855.938 310.86 855.518 312.16 855.518 313.8ZM851.618 327.84V313.8C851.618 311.16 852.438 309.02 854.078 307.38C855.718 305.7 857.758 304.86 860.198 304.86C862.598 304.86 864.598 305.68 866.198 307.32C867.838 308.92 868.658 311.02 868.658 313.62V327.66C868.658 330.26 867.818 332.4 866.138 334.08C864.498 335.76 862.478 336.6 860.078 336.6C857.678 336.6 855.658 335.8 854.018 334.2C852.418 332.6 851.618 330.48 851.618 327.84ZM877.959 313.56V317.7H887.199V313.56C887.199 311.92 886.759 310.62 885.879 309.66C885.039 308.7 883.939 308.22 882.579 308.22C881.219 308.22 880.099 308.7 879.219 309.66C878.379 310.62 877.959 311.92 877.959 313.56ZM887.199 327.66V326.1H890.859V327.72C890.859 330.36 890.039 332.5 888.399 334.14C886.799 335.78 884.799 336.6 882.399 336.6C879.999 336.6 877.999 335.8 876.399 334.2C874.839 332.6 874.059 330.5 874.059 327.9V313.68C874.059 311.08 874.879 308.96 876.519 307.32C878.159 305.68 880.179 304.86 882.579 304.86C884.979 304.86 886.959 305.66 888.519 307.26C890.079 308.82 890.859 310.92 890.859 313.56V320.52H877.959V327.66C877.959 329.3 878.379 330.6 879.219 331.56C880.099 332.52 881.219 333 882.579 333C883.939 333 885.039 332.52 885.879 331.56C886.759 330.6 887.199 329.3 887.199 327.66ZM908.626 313.56V312.72C908.626 311.4 908.206 310.34 907.366 309.54C906.566 308.7 905.546 308.28 904.306 308.28C903.066 308.28 902.026 308.68 901.186 309.48C900.386 310.28 899.986 311.32 899.986 312.6C899.986 313.84 900.386 314.92 901.186 315.84C901.986 316.72 903.346 317.64 905.266 318.6C907.706 319.76 909.526 321.1 910.726 322.62C911.926 324.14 912.526 326 912.526 328.2C912.526 330.64 911.706 332.66 910.066 334.26C908.426 335.82 906.406 336.6 904.006 336.6C901.606 336.6 899.606 335.84 898.006 334.32C896.446 332.8 895.666 330.78 895.666 328.26V327.3H899.386V328.2C899.386 329.72 899.806 330.92 900.646 331.8C901.526 332.68 902.646 333.12 904.006 333.12C905.366 333.12 906.466 332.68 907.306 331.8C908.186 330.92 908.626 329.74 908.626 328.26C908.626 326.9 908.186 325.72 907.306 324.72C906.426 323.68 904.866 322.62 902.626 321.54C898.266 319.38 896.086 316.4 896.086 312.6C896.086 310.36 896.866 308.52 898.426 307.08C900.026 305.6 901.986 304.86 904.306 304.86C906.626 304.86 908.546 305.6 910.066 307.08C911.586 308.52 912.346 310.38 912.346 312.66V313.56H908.626ZM921.802 313.68V336H917.902V305.46H921.262L921.442 308.4C922.802 306.04 924.902 304.86 927.742 304.86C929.782 304.86 931.442 305.58 932.722 307.02C934.042 308.46 934.702 310.44 934.702 312.96V336H930.802V313.68C930.802 312.04 930.402 310.76 929.602 309.84C928.842 308.92 927.802 308.46 926.482 308.46C925.122 308.46 924.002 308.92 923.122 309.84C922.242 310.76 921.802 312.04 921.802 313.68ZM943.328 307.8H940.088L940.448 294H944.828L943.328 307.8ZM950.255 308.76V305.46H954.155V297.6H958.055V305.46H964.355V308.76H958.055V328.5C958.055 331.5 959.315 333 961.835 333L964.055 332.82V336.24C963.135 336.48 962.095 336.6 960.935 336.6C958.815 336.6 957.155 335.96 955.955 334.68C954.755 333.4 954.155 331.52 954.155 329.04V308.76H950.255ZM970.964 323.58L970.004 294H974.624L973.664 323.58H970.964ZM972.284 330.9C973.084 330.9 973.764 331.2 974.324 331.8C974.884 332.36 975.164 333.02 975.164 333.78C975.164 334.54 974.884 335.2 974.324 335.76C973.764 336.32 973.084 336.6 972.284 336.6C971.484 336.6 970.804 336.32 970.244 335.76C969.724 335.2 969.464 334.54 969.464 333.78C969.464 332.98 969.744 332.3 970.304 331.74C970.864 331.18 971.524 330.9 972.284 330.9ZM125.82 405V384.78H115.62V405H111.6V363H115.62V380.94H125.82V363H129.9V405H125.82ZM140.088 382.56V386.7H149.328V382.56C149.328 380.92 148.888 379.62 148.008 378.66C147.168 377.7 146.068 377.22 144.708 377.22C143.348 377.22 142.228 377.7 141.348 378.66C140.508 379.62 140.088 380.92 140.088 382.56ZM149.328 396.66V395.1H152.988V396.72C152.988 399.36 152.168 401.5 150.528 403.14C148.928 404.78 146.928 405.6 144.528 405.6C142.128 405.6 140.128 404.8 138.528 403.2C136.968 401.6 136.188 399.5 136.188 396.9V382.68C136.188 380.08 137.008 377.96 138.648 376.32C140.288 374.68 142.308 373.86 144.708 373.86C147.108 373.86 149.088 374.66 150.648 376.26C152.208 377.82 152.988 379.92 152.988 382.56V389.52H140.088V396.66C140.088 398.3 140.508 399.6 141.348 400.56C142.228 401.52 143.348 402 144.708 402C146.068 402 147.168 401.52 148.008 400.56C148.888 399.6 149.328 398.3 149.328 396.66ZM170.487 405V363H174.507V405H170.487ZM184.678 382.8V396.66C184.678 398.3 185.098 399.6 185.938 400.56C186.818 401.52 187.938 402 189.298 402C190.658 402 191.758 401.52 192.598 400.56C193.478 399.6 193.918 398.3 193.918 396.66V382.8C193.918 381.16 193.478 379.86 192.598 378.9C191.758 377.94 190.658 377.46 189.298 377.46C187.938 377.46 186.818 377.94 185.938 378.9C185.098 379.86 184.678 381.16 184.678 382.8ZM180.778 396.84V382.8C180.778 380.16 181.598 378.02 183.238 376.38C184.878 374.7 186.918 373.86 189.358 373.86C191.758 373.86 193.758 374.68 195.358 376.32C196.998 377.92 197.818 380.02 197.818 382.62V396.66C197.818 399.26 196.978 401.4 195.298 403.08C193.658 404.76 191.638 405.6 189.238 405.6C186.838 405.6 184.818 404.8 183.178 403.2C181.578 401.6 180.778 399.48 180.778 396.84ZM208.32 405L201.12 374.46H205.26L210.24 398.22L215.22 374.46H219.12L211.92 405H208.32ZM226.338 382.56V386.7H235.578V382.56C235.578 380.92 235.138 379.62 234.258 378.66C233.418 377.7 232.318 377.22 230.958 377.22C229.598 377.22 228.478 377.7 227.598 378.66C226.758 379.62 226.338 380.92 226.338 382.56ZM235.578 396.66V395.1H239.238V396.72C239.238 399.36 238.418 401.5 236.778 403.14C235.178 404.78 233.178 405.6 230.778 405.6C228.378 405.6 226.378 404.8 224.778 403.2C223.218 401.6 222.438 399.5 222.438 396.9V382.68C222.438 380.08 223.258 377.96 224.898 376.32C226.538 374.68 228.558 373.86 230.958 373.86C233.358 373.86 235.338 374.66 236.898 376.26C238.458 377.82 239.238 379.92 239.238 382.56V389.52H226.338V396.66C226.338 398.3 226.758 399.6 227.598 400.56C228.478 401.52 229.598 402 230.958 402C232.318 402 233.418 401.52 234.258 400.56C235.138 399.6 235.578 398.3 235.578 396.66ZM257.005 382.56V381.72C257.005 380.4 256.585 379.34 255.745 378.54C254.945 377.7 253.925 377.28 252.685 377.28C251.445 377.28 250.405 377.68 249.565 378.48C248.765 379.28 248.365 380.32 248.365 381.6C248.365 382.84 248.765 383.92 249.565 384.84C250.365 385.72 251.725 386.64 253.645 387.6C256.085 388.76 257.905 390.1 259.105 391.62C260.305 393.14 260.905 395 260.905 397.2C260.905 399.64 260.085 401.66 258.445 403.26C256.805 404.82 254.785 405.6 252.385 405.6C249.985 405.6 247.985 404.84 246.385 403.32C244.825 401.8 244.045 399.78 244.045 397.26V396.3H247.765V397.2C247.765 398.72 248.185 399.92 249.025 400.8C249.905 401.68 251.025 402.12 252.385 402.12C253.745 402.12 254.845 401.68 255.685 400.8C256.565 399.92 257.005 398.74 257.005 397.26C257.005 395.9 256.565 394.72 255.685 393.72C254.805 392.68 253.245 391.62 251.005 390.54C246.645 388.38 244.465 385.4 244.465 381.6C244.465 379.36 245.245 377.52 246.805 376.08C248.405 374.6 250.365 373.86 252.685 373.86C255.005 373.86 256.925 374.6 258.445 376.08C259.965 377.52 260.725 379.38 260.725 381.66V382.56H257.005ZM289.232 382.56V381.72C289.232 380.4 288.812 379.34 287.972 378.54C287.172 377.7 286.152 377.28 284.912 377.28C283.672 377.28 282.632 377.68 281.792 378.48C280.992 379.28 280.592 380.32 280.592 381.6C280.592 382.84 280.992 383.92 281.792 384.84C282.592 385.72 283.952 386.64 285.872 387.6C288.312 388.76 290.132 390.1 291.332 391.62C292.532 393.14 293.132 395 293.132 397.2C293.132 399.64 292.312 401.66 290.672 403.26C289.032 404.82 287.012 405.6 284.612 405.6C282.212 405.6 280.212 404.84 278.612 403.32C277.052 401.8 276.272 399.78 276.272 397.26V396.3H279.992V397.2C279.992 398.72 280.412 399.92 281.252 400.8C282.132 401.68 283.252 402.12 284.612 402.12C285.972 402.12 287.072 401.68 287.912 400.8C288.792 399.92 289.232 398.74 289.232 397.26C289.232 395.9 288.792 394.72 287.912 393.72C287.032 392.68 285.472 391.62 283.232 390.54C278.872 388.38 276.692 385.4 276.692 381.6C276.692 379.36 277.472 377.52 279.032 376.08C280.632 374.6 282.592 373.86 284.912 373.86C287.232 373.86 289.152 374.6 290.672 376.08C292.192 377.52 292.952 379.38 292.952 381.66V382.56H289.232ZM301.507 395.4V396.72C301.507 398.4 301.947 399.76 302.827 400.8C303.707 401.8 304.867 402.3 306.307 402.3C307.747 402.3 308.907 401.8 309.787 400.8C310.667 399.76 311.107 398.4 311.107 396.72V395.4C311.107 393.72 310.667 392.38 309.787 391.38C308.907 390.34 307.747 389.82 306.307 389.82C304.867 389.82 303.707 390.34 302.827 391.38C301.947 392.38 301.507 393.72 301.507 395.4ZM297.607 396.9V395.52C297.607 392.92 298.347 390.8 299.827 389.16C301.307 387.48 303.167 386.64 305.407 386.64C307.807 386.64 309.707 387.6 311.107 389.52V382.32C311.107 380.8 310.687 379.58 309.847 378.66C309.047 377.74 308.027 377.28 306.787 377.28C305.547 377.28 304.507 377.74 303.667 378.66C302.867 379.58 302.467 380.8 302.467 382.32V383.58H298.747V382.5C298.747 379.94 299.527 377.86 301.087 376.26C302.647 374.66 304.567 373.86 306.847 373.86C309.167 373.86 311.107 374.64 312.667 376.2C314.227 377.76 315.007 379.8 315.007 382.32V405H311.827L311.527 402C310.087 404.4 307.987 405.6 305.227 405.6C302.987 405.6 301.147 404.82 299.707 403.26C298.307 401.66 297.607 399.54 297.607 396.9ZM321.3 405V363H325.2V387.78L333.54 374.46H338.1L328.86 388.26L338.7 405H334.08L325.2 389.34V405H321.3ZM345.342 382.56V386.7H354.582V382.56C354.582 380.92 354.142 379.62 353.262 378.66C352.422 377.7 351.322 377.22 349.962 377.22C348.602 377.22 347.482 377.7 346.602 378.66C345.762 379.62 345.342 380.92 345.342 382.56ZM354.582 396.66V395.1H358.242V396.72C358.242 399.36 357.422 401.5 355.782 403.14C354.182 404.78 352.182 405.6 349.782 405.6C347.382 405.6 345.382 404.8 343.782 403.2C342.222 401.6 341.442 399.5 341.442 396.9V382.68C341.442 380.08 342.262 377.96 343.902 376.32C345.542 374.68 347.562 373.86 349.962 373.86C352.362 373.86 354.342 374.66 355.902 376.26C357.462 377.82 358.242 379.92 358.242 382.56V389.52H345.342V396.66C345.342 398.3 345.762 399.6 346.602 400.56C347.482 401.52 348.602 402 349.962 402C351.322 402 352.422 401.52 353.262 400.56C354.142 399.6 354.582 398.3 354.582 396.66ZM387.621 408.66L385.041 411C384.761 410.76 384.381 410.42 383.901 409.98C383.461 409.54 382.661 408.52 381.501 406.92C380.341 405.32 379.301 403.58 378.381 401.7C377.501 399.82 376.681 397.3 375.921 394.14C375.201 390.98 374.841 387.66 374.841 384.18C374.841 380.7 375.181 377.4 375.861 374.28C376.581 371.12 377.441 368.54 378.441 366.54C379.441 364.54 380.441 362.78 381.441 361.26C382.441 359.74 383.301 358.64 384.021 357.96L385.041 357L387.621 359.34C387.381 359.54 387.061 359.86 386.661 360.3C386.261 360.74 385.541 361.72 384.501 363.24C383.501 364.76 382.601 366.4 381.801 368.16C381.041 369.88 380.341 372.18 379.701 375.06C379.061 377.9 378.741 380.88 378.741 384C378.741 387.12 379.041 390.1 379.641 392.94C380.241 395.74 380.981 398.06 381.861 399.9C382.741 401.74 383.621 403.36 384.501 404.76C385.381 406.12 386.121 407.12 386.721 407.76L387.621 408.66ZM403.353 373.86V378H402.513C400.593 378 399.073 378.6 397.953 379.8C396.873 380.96 396.333 382.7 396.333 385.02V405H392.433V374.46H395.793L396.033 378.18C397.433 375.3 399.873 373.86 403.353 373.86ZM408.143 405V374.46H412.163V405H408.143ZM408.143 363.84C408.703 363.28 409.363 363 410.123 363C410.883 363 411.543 363.28 412.103 363.84C412.703 364.4 413.003 365.08 413.003 365.88C413.003 366.64 412.723 367.3 412.163 367.86C411.603 368.42 410.923 368.7 410.123 368.7C409.363 368.7 408.703 368.44 408.143 367.92C407.583 367.36 407.303 366.68 407.303 365.88C407.303 365.08 407.583 364.4 408.143 363.84ZM431.094 393.3H434.814V396.9C434.814 399.42 434.014 401.5 432.414 403.14C430.854 404.78 428.934 405.6 426.654 405.6C424.294 405.6 422.334 404.82 420.774 403.26C419.214 401.66 418.434 399.6 418.434 397.08V382.56C418.434 380 419.234 377.92 420.834 376.32C422.474 374.68 424.454 373.86 426.774 373.86C429.094 373.86 431.014 374.64 432.534 376.2C434.054 377.76 434.814 379.82 434.814 382.38V385.86H431.094V382.56C431.094 381 430.674 379.76 429.834 378.84C429.034 377.92 427.994 377.46 426.714 377.46C425.434 377.46 424.374 377.92 423.534 378.84C422.734 379.76 422.334 381 422.334 382.56V396.9C422.334 398.46 422.734 399.7 423.534 400.62C424.374 401.54 425.434 402 426.714 402C427.994 402 429.034 401.54 429.834 400.62C430.674 399.7 431.094 398.46 431.094 396.9V393.3ZM444.131 382.56V386.7H453.371V382.56C453.371 380.92 452.931 379.62 452.051 378.66C451.211 377.7 450.111 377.22 448.751 377.22C447.391 377.22 446.271 377.7 445.391 378.66C444.551 379.62 444.131 380.92 444.131 382.56ZM453.371 396.66V395.1H457.031V396.72C457.031 399.36 456.211 401.5 454.571 403.14C452.971 404.78 450.971 405.6 448.571 405.6C446.171 405.6 444.171 404.8 442.571 403.2C441.011 401.6 440.231 399.5 440.231 396.9V382.68C440.231 380.08 441.051 377.96 442.691 376.32C444.331 374.68 446.351 373.86 448.751 373.86C451.151 373.86 453.131 374.66 454.691 376.26C456.251 377.82 457.031 379.92 457.031 382.56V389.52H444.131V396.66C444.131 398.3 444.551 399.6 445.391 400.56C446.271 401.52 447.391 402 448.751 402C450.111 402 451.211 401.52 452.051 400.56C452.931 399.6 453.371 398.3 453.371 396.66ZM477.89 405L471.53 374.46H475.61L479.75 397.26L483.95 374.46H486.65L490.85 397.26L494.93 374.46H498.83L492.41 405H489.05L485.15 383.46L481.25 405H477.89ZM503.006 405V374.46H507.026V405H503.006ZM503.006 363.84C503.566 363.28 504.226 363 504.986 363C505.746 363 506.406 363.28 506.966 363.84C507.566 364.4 507.866 365.08 507.866 365.88C507.866 366.64 507.586 367.3 507.026 367.86C506.466 368.42 505.786 368.7 504.986 368.7C504.226 368.7 503.566 368.44 503.006 367.92C502.446 367.36 502.166 366.68 502.166 365.88C502.166 365.08 502.446 364.4 503.006 363.84ZM517.798 382.68V405H513.898V374.46H517.258L517.438 377.4C518.798 375.04 520.898 373.86 523.738 373.86C525.778 373.86 527.438 374.58 528.718 376.02C530.038 377.46 530.698 379.44 530.698 381.96V405H526.798V382.68C526.798 381.04 526.398 379.76 525.598 378.84C524.838 377.92 523.798 377.46 522.478 377.46C521.118 377.46 519.998 377.92 519.118 378.84C518.238 379.76 517.798 381.04 517.798 382.68ZM540.284 382.56V386.7H549.524V382.56C549.524 380.92 549.084 379.62 548.204 378.66C547.364 377.7 546.264 377.22 544.904 377.22C543.544 377.22 542.424 377.7 541.544 378.66C540.704 379.62 540.284 380.92 540.284 382.56ZM549.524 396.66V395.1H553.184V396.72C553.184 399.36 552.364 401.5 550.724 403.14C549.124 404.78 547.124 405.6 544.724 405.6C542.324 405.6 540.324 404.8 538.724 403.2C537.164 401.6 536.384 399.5 536.384 396.9V382.68C536.384 380.08 537.204 377.96 538.844 376.32C540.484 374.68 542.504 373.86 544.904 373.86C547.304 373.86 549.284 374.66 550.844 376.26C552.404 377.82 553.184 379.92 553.184 382.56V389.52H540.284V396.66C540.284 398.3 540.704 399.6 541.544 400.56C542.424 401.52 543.544 402 544.904 402C546.264 402 547.364 401.52 548.204 400.56C549.084 399.6 549.524 398.3 549.524 396.66ZM556.219 359.34L558.799 357C559.079 357.24 559.439 357.58 559.879 358.02C560.359 358.46 561.179 359.48 562.339 361.08C563.499 362.68 564.519 364.42 565.399 366.3C566.319 368.18 567.139 370.7 567.859 373.86C568.619 377.02 568.999 380.34 568.999 383.82C568.999 387.3 568.639 390.62 567.919 393.78C567.239 396.9 566.399 399.46 565.399 401.46C564.399 403.46 563.399 405.22 562.399 406.74C561.399 408.26 560.559 409.36 559.879 410.04L558.799 411L556.219 408.66C556.459 408.46 556.779 408.14 557.179 407.7C557.579 407.26 558.279 406.28 559.279 404.76C560.319 403.24 561.219 401.62 561.979 399.9C562.779 398.14 563.499 395.84 564.139 393C564.779 390.12 565.099 387.12 565.099 384C565.099 380.88 564.799 377.92 564.199 375.12C563.599 372.28 562.859 369.94 561.979 368.1C561.099 366.26 560.219 364.66 559.339 363.3C558.459 361.9 557.719 360.88 557.119 360.24L556.219 359.34ZM576.631 399.9C577.431 399.9 578.111 400.2 578.671 400.8C579.231 401.36 579.511 402.02 579.511 402.78C579.511 403.54 579.231 404.2 578.671 404.76C578.111 405.32 577.431 405.6 576.631 405.6C575.831 405.6 575.151 405.32 574.591 404.76C574.071 404.2 573.811 403.54 573.811 402.78C573.811 401.98 574.091 401.3 574.651 400.74C575.211 400.18 575.871 399.9 576.631 399.9ZM610.625 405V384.78H600.425V405H596.405V363H600.425V380.94H610.625V363H614.705V405H610.625ZM624.893 382.56V386.7H634.133V382.56C634.133 380.92 633.693 379.62 632.813 378.66C631.973 377.7 630.873 377.22 629.513 377.22C628.153 377.22 627.033 377.7 626.153 378.66C625.313 379.62 624.893 380.92 624.893 382.56ZM634.133 396.66V395.1H637.793V396.72C637.793 399.36 636.973 401.5 635.333 403.14C633.733 404.78 631.733 405.6 629.333 405.6C626.933 405.6 624.933 404.8 623.333 403.2C621.773 401.6 620.993 399.5 620.993 396.9V382.68C620.993 380.08 621.813 377.96 623.453 376.32C625.093 374.68 627.113 373.86 629.513 373.86C631.913 373.86 633.893 374.66 635.453 376.26C637.013 377.82 637.793 379.92 637.793 382.56V389.52H624.893V396.66C624.893 398.3 625.313 399.6 626.153 400.56C627.033 401.52 628.153 402 629.513 402C630.873 402 631.973 401.52 632.813 400.56C633.693 399.6 634.133 398.3 634.133 396.66ZM646.14 376.8H642.9L643.26 363H647.64L646.14 376.8ZM653.651 405V363H657.671V405H653.651ZM664.842 405V363H668.862V405H664.842ZM690.225 382.8V396.66C690.225 398.3 690.645 399.6 691.485 400.56C692.365 401.52 693.485 402 694.845 402C696.205 402 697.305 401.52 698.145 400.56C699.025 399.6 699.465 398.3 699.465 396.66V382.8C699.465 381.16 699.025 379.86 698.145 378.9C697.305 377.94 696.205 377.46 694.845 377.46C693.485 377.46 692.365 377.94 691.485 378.9C690.645 379.86 690.225 381.16 690.225 382.8ZM703.365 363V405H700.005L699.825 402.24C698.505 404.48 696.465 405.6 693.705 405.6C691.545 405.6 689.765 404.86 688.365 403.38C687.005 401.9 686.325 399.94 686.325 397.5V382.14C686.325 379.66 687.045 377.66 688.485 376.14C689.925 374.62 691.725 373.86 693.885 373.86C696.285 373.86 698.145 374.74 699.465 376.5V363H703.365ZM720.872 373.86V378H720.032C718.112 378 716.592 378.6 715.472 379.8C714.392 380.96 713.852 382.7 713.852 385.02V405H709.952V374.46H713.312L713.552 378.18C714.952 375.3 717.392 373.86 720.872 373.86ZM725.663 405V374.46H729.683V405H725.663ZM725.663 363.84C726.223 363.28 726.883 363 727.643 363C728.403 363 729.063 363.28 729.623 363.84C730.223 364.4 730.523 365.08 730.523 365.88C730.523 366.64 730.243 367.3 729.683 367.86C729.123 368.42 728.443 368.7 727.643 368.7C726.883 368.7 726.223 368.44 725.663 367.92C725.103 367.36 724.823 366.68 724.823 365.88C724.823 365.08 725.103 364.4 725.663 363.84ZM740.454 382.68V405H736.554V374.46H739.914L740.094 377.4C741.454 375.04 743.554 373.86 746.394 373.86C748.434 373.86 750.094 374.58 751.374 376.02C752.694 377.46 753.354 379.44 753.354 381.96V405H749.454V382.68C749.454 381.04 749.054 379.76 748.254 378.84C747.494 377.92 746.454 377.46 745.134 377.46C743.774 377.46 742.654 377.92 741.774 378.84C740.894 379.76 740.454 381.04 740.454 382.68ZM759.64 405V363H763.54V387.78L771.88 374.46H776.44L767.2 388.26L777.04 405H772.42L763.54 389.34V405H759.64ZM795.159 395.4V396.72C795.159 398.4 795.599 399.76 796.479 400.8C797.359 401.8 798.519 402.3 799.959 402.3C801.399 402.3 802.559 401.8 803.439 400.8C804.319 399.76 804.759 398.4 804.759 396.72V395.4C804.759 393.72 804.319 392.38 803.439 391.38C802.559 390.34 801.399 389.82 799.959 389.82C798.519 389.82 797.359 390.34 796.479 391.38C795.599 392.38 795.159 393.72 795.159 395.4ZM791.259 396.9V395.52C791.259 392.92 791.999 390.8 793.479 389.16C794.959 387.48 796.819 386.64 799.059 386.64C801.459 386.64 803.359 387.6 804.759 389.52V382.32C804.759 380.8 804.339 379.58 803.499 378.66C802.699 377.74 801.679 377.28 800.439 377.28C799.199 377.28 798.159 377.74 797.319 378.66C796.519 379.58 796.119 380.8 796.119 382.32V383.58H792.399V382.5C792.399 379.94 793.179 377.86 794.739 376.26C796.299 374.66 798.219 373.86 800.499 373.86C802.819 373.86 804.759 374.64 806.319 376.2C807.879 377.76 808.659 379.8 808.659 382.32V405H805.479L805.179 402C803.739 404.4 801.639 405.6 798.879 405.6C796.639 405.6 794.799 404.82 793.359 403.26C791.959 401.66 791.259 399.54 791.259 396.9ZM818.852 382.68V405H814.952V374.46H818.312L818.492 377.4C819.852 375.04 821.952 373.86 824.792 373.86C826.832 373.86 828.492 374.58 829.772 376.02C831.092 377.46 831.752 379.44 831.752 381.96V405H827.852V382.68C827.852 381.04 827.452 379.76 826.652 378.84C825.892 377.92 824.852 377.46 823.532 377.46C822.172 377.46 821.052 377.92 820.172 378.84C819.292 379.76 818.852 381.04 818.852 382.68ZM841.338 382.8V396.66C841.338 398.3 841.758 399.6 842.598 400.56C843.478 401.52 844.598 402 845.958 402C847.318 402 848.418 401.52 849.258 400.56C850.138 399.6 850.578 398.3 850.578 396.66V382.8C850.578 381.16 850.138 379.86 849.258 378.9C848.418 377.94 847.318 377.46 845.958 377.46C844.598 377.46 843.478 377.94 842.598 378.9C841.758 379.86 841.338 381.16 841.338 382.8ZM854.478 363V405H851.118L850.938 402.24C849.618 404.48 847.578 405.6 844.818 405.6C842.658 405.6 840.878 404.86 839.478 403.38C838.118 401.9 837.438 399.94 837.438 397.5V382.14C837.438 379.66 838.158 377.66 839.598 376.14C841.038 374.62 842.838 373.86 844.998 373.86C847.398 373.86 849.258 374.74 850.578 376.5V363H854.478ZM875.917 405L869.557 374.46H873.637L877.777 397.26L881.977 374.46H884.677L888.877 397.26L892.957 374.46H896.857L890.437 405H887.077L883.177 383.46L879.277 405H875.917ZM901.034 405V374.46H905.054V405H901.034ZM901.034 363.84C901.594 363.28 902.254 363 903.014 363C903.774 363 904.434 363.28 904.994 363.84C905.594 364.4 905.894 365.08 905.894 365.88C905.894 366.64 905.614 367.3 905.054 367.86C904.494 368.42 903.814 368.7 903.014 368.7C902.254 368.7 901.594 368.44 901.034 367.92C900.474 367.36 900.194 366.68 900.194 365.88C900.194 365.08 900.474 364.4 901.034 363.84ZM912.225 405V363H916.245V405H912.225ZM923.416 405V363H927.436V405H923.416ZM114.6 451.56V455.7H123.84V451.56C123.84 449.92 123.4 448.62 122.52 447.66C121.68 446.7 120.58 446.22 119.22 446.22C117.86 446.22 116.74 446.7 115.86 447.66C115.02 448.62 114.6 449.92 114.6 451.56ZM123.84 465.66V464.1H127.5V465.72C127.5 468.36 126.68 470.5 125.04 472.14C123.44 473.78 121.44 474.6 119.04 474.6C116.64 474.6 114.64 473.8 113.04 472.2C111.48 470.6 110.7 468.5 110.7 465.9V451.68C110.7 449.08 111.52 446.96 113.16 445.32C114.8 443.68 116.82 442.86 119.22 442.86C121.62 442.86 123.6 443.66 125.16 445.26C126.72 446.82 127.5 448.92 127.5 451.56V458.52H114.6V465.66C114.6 467.3 115.02 468.6 115.86 469.56C116.74 470.52 117.86 471 119.22 471C120.58 471 121.68 470.52 122.52 469.56C123.4 468.6 123.84 467.3 123.84 465.66ZM138.007 474L130.807 443.46H134.947L139.927 467.22L144.907 443.46H148.807L141.607 474H138.007ZM156.026 451.56V455.7H165.266V451.56C165.266 449.92 164.826 448.62 163.946 447.66C163.106 446.7 162.006 446.22 160.646 446.22C159.286 446.22 158.166 446.7 157.286 447.66C156.446 448.62 156.026 449.92 156.026 451.56ZM165.266 465.66V464.1H168.926V465.72C168.926 468.36 168.106 470.5 166.466 472.14C164.866 473.78 162.866 474.6 160.466 474.6C158.066 474.6 156.066 473.8 154.466 472.2C152.906 470.6 152.126 468.5 152.126 465.9V451.68C152.126 449.08 152.946 446.96 154.586 445.32C156.226 443.68 158.246 442.86 160.646 442.86C163.046 442.86 165.026 443.66 166.586 445.26C168.146 446.82 168.926 448.92 168.926 451.56V458.52H156.026V465.66C156.026 467.3 156.446 468.6 157.286 469.56C158.166 470.52 159.286 471 160.646 471C162.006 471 163.106 470.52 163.946 469.56C164.826 468.6 165.266 467.3 165.266 465.66ZM178.833 451.68V474H174.933V443.46H178.293L178.473 446.4C179.833 444.04 181.933 442.86 184.773 442.86C186.813 442.86 188.473 443.58 189.753 445.02C191.073 446.46 191.733 448.44 191.733 450.96V474H187.833V451.68C187.833 450.04 187.433 448.76 186.633 447.84C185.873 446.92 184.833 446.46 183.513 446.46C182.153 446.46 181.033 446.92 180.153 447.84C179.273 448.76 178.833 450.04 178.833 451.68ZM222.35 465.66V451.8C222.35 450.16 221.91 448.86 221.03 447.9C220.19 446.94 219.09 446.46 217.73 446.46C216.37 446.46 215.25 446.94 214.37 447.9C213.53 448.86 213.11 450.16 213.11 451.8V465.66C213.11 467.3 213.53 468.6 214.37 469.56C215.25 470.52 216.37 471 217.73 471C219.09 471 220.19 470.52 221.03 469.56C221.91 468.6 222.35 467.3 222.35 465.66ZM209.21 483.6V443.46H212.57L212.75 446.22C214.11 443.98 216.13 442.86 218.81 442.86C221.01 442.86 222.79 443.6 224.15 445.08C225.55 446.56 226.25 448.52 226.25 450.96V466.32C226.25 468.76 225.53 470.76 224.09 472.32C222.65 473.84 220.85 474.6 218.69 474.6C216.29 474.6 214.43 473.72 213.11 471.96V483.6H209.21ZM243.158 442.86V447H242.318C240.398 447 238.878 447.6 237.757 448.8C236.678 449.96 236.138 451.7 236.138 454.02V474H232.238V443.46H235.598L235.838 447.18C237.238 444.3 239.678 442.86 243.158 442.86ZM249.776 451.8V465.66C249.776 467.3 250.196 468.6 251.036 469.56C251.916 470.52 253.036 471 254.396 471C255.756 471 256.856 470.52 257.696 469.56C258.576 468.6 259.016 467.3 259.016 465.66V451.8C259.016 450.16 258.576 448.86 257.696 447.9C256.856 446.94 255.756 446.46 254.396 446.46C253.036 446.46 251.916 446.94 251.036 447.9C250.196 448.86 249.776 450.16 249.776 451.8ZM245.876 465.84V451.8C245.876 449.16 246.696 447.02 248.336 445.38C249.976 443.7 252.016 442.86 254.456 442.86C256.856 442.86 258.856 443.68 260.456 445.32C262.096 446.92 262.916 449.02 262.916 451.62V465.66C262.916 468.26 262.076 470.4 260.396 472.08C258.756 473.76 256.736 474.6 254.336 474.6C251.936 474.6 249.916 473.8 248.276 472.2C246.676 470.6 245.876 468.48 245.876 465.84ZM272.817 451.68V474H268.917V443.46H272.277L272.457 446.34C273.777 444.02 275.817 442.86 278.577 442.86C281.497 442.86 283.517 444.24 284.637 447C285.917 444.24 288.077 442.86 291.117 442.86C293.117 442.86 294.737 443.58 295.977 445.02C297.257 446.46 297.897 448.44 297.897 450.96V474H293.997V451.68C293.997 450 293.637 448.72 292.917 447.84C292.197 446.92 291.177 446.46 289.857 446.46C288.537 446.46 287.457 446.9 286.617 447.78C285.777 448.66 285.357 449.88 285.357 451.44V474H281.457V451.68C281.457 450 281.097 448.72 280.377 447.84C279.657 446.92 278.637 446.46 277.317 446.46C275.997 446.46 274.917 446.92 274.077 447.84C273.237 448.76 272.817 450.04 272.817 451.68ZM304.491 474V443.46H308.511V474H304.491ZM304.491 432.84C305.051 432.28 305.711 432 306.471 432C307.231 432 307.891 432.28 308.451 432.84C309.051 433.4 309.351 434.08 309.351 434.88C309.351 435.64 309.071 436.3 308.511 436.86C307.951 437.42 307.271 437.7 306.471 437.7C305.711 437.7 305.051 437.44 304.491 436.92C303.931 436.36 303.651 435.68 303.651 434.88C303.651 434.08 303.931 433.4 304.491 432.84ZM327.142 451.56V450.72C327.142 449.4 326.722 448.34 325.882 447.54C325.082 446.7 324.062 446.28 322.822 446.28C321.582 446.28 320.542 446.68 319.702 447.48C318.902 448.28 318.502 449.32 318.502 450.6C318.502 451.84 318.902 452.92 319.702 453.84C320.502 454.72 321.862 455.64 323.782 456.6C326.222 457.76 328.042 459.1 329.242 460.62C330.442 462.14 331.042 464 331.042 466.2C331.042 468.64 330.222 470.66 328.582 472.26C326.942 473.82 324.922 474.6 322.522 474.6C320.122 474.6 318.122 473.84 316.522 472.32C314.962 470.8 314.182 468.78 314.182 466.26V465.3H317.902V466.2C317.902 467.72 318.322 468.92 319.162 469.8C320.042 470.68 321.162 471.12 322.522 471.12C323.882 471.12 324.982 470.68 325.822 469.8C326.702 468.92 327.142 467.74 327.142 466.26C327.142 464.9 326.702 463.72 325.822 462.72C324.942 461.68 323.382 460.62 321.142 459.54C316.782 457.38 314.602 454.4 314.602 450.6C314.602 448.36 315.382 446.52 316.942 445.08C318.542 443.6 320.502 442.86 322.822 442.86C325.142 442.86 327.062 443.6 328.582 445.08C330.102 446.52 330.862 448.38 330.862 450.66V451.56H327.142ZM339.717 451.56V455.7H348.957V451.56C348.957 449.92 348.517 448.62 347.637 447.66C346.797 446.7 345.697 446.22 344.337 446.22C342.977 446.22 341.857 446.7 340.977 447.66C340.137 448.62 339.717 449.92 339.717 451.56ZM348.957 465.66V464.1H352.617V465.72C352.617 468.36 351.797 470.5 350.157 472.14C348.557 473.78 346.557 474.6 344.157 474.6C341.757 474.6 339.757 473.8 338.157 472.2C336.597 470.6 335.817 468.5 335.817 465.9V451.68C335.817 449.08 336.637 446.96 338.277 445.32C339.917 443.68 341.937 442.86 344.337 442.86C346.737 442.86 348.717 443.66 350.277 445.26C351.837 446.82 352.617 448.92 352.617 451.56V458.52H339.717V465.66C339.717 467.3 340.137 468.6 340.977 469.56C341.857 470.52 342.977 471 344.337 471C345.697 471 346.797 470.52 347.637 469.56C348.517 468.6 348.957 467.3 348.957 465.66ZM367.716 446.76V443.46H371.616V435.6H375.516V443.46H381.816V446.76H375.516V466.5C375.516 469.5 376.776 471 379.296 471L381.516 470.82V474.24C380.596 474.48 379.556 474.6 378.396 474.6C376.276 474.6 374.616 473.96 373.416 472.68C372.216 471.4 371.616 469.52 371.616 467.04V446.76H367.716ZM389.346 451.8V465.66C389.346 467.3 389.766 468.6 390.606 469.56C391.486 470.52 392.606 471 393.966 471C395.326 471 396.426 470.52 397.266 469.56C398.146 468.6 398.586 467.3 398.586 465.66V451.8C398.586 450.16 398.146 448.86 397.266 447.9C396.426 446.94 395.326 446.46 393.966 446.46C392.606 446.46 391.486 446.94 390.606 447.9C389.766 448.86 389.346 450.16 389.346 451.8ZM385.446 465.84V451.8C385.446 449.16 386.266 447.02 387.906 445.38C389.546 443.7 391.586 442.86 394.026 442.86C396.426 442.86 398.426 443.68 400.026 445.32C401.666 446.92 402.486 449.02 402.486 451.62V465.66C402.486 468.26 401.646 470.4 399.966 472.08C398.326 473.76 396.306 474.6 393.906 474.6C391.506 474.6 389.486 473.8 387.846 472.2C386.246 470.6 385.446 468.48 385.446 465.84ZM432.819 465.66V451.8C432.819 450.16 432.379 448.86 431.499 447.9C430.659 446.94 429.559 446.46 428.199 446.46C426.839 446.46 425.719 446.94 424.839 447.9C423.999 448.86 423.579 450.16 423.579 451.8V465.66C423.579 467.3 423.999 468.6 424.839 469.56C425.719 470.52 426.839 471 428.199 471C429.559 471 430.659 470.52 431.499 469.56C432.379 468.6 432.819 467.3 432.819 465.66ZM419.679 483.6V443.46H423.039L423.219 446.22C424.579 443.98 426.599 442.86 429.279 442.86C431.479 442.86 433.259 443.6 434.619 445.08C436.019 446.56 436.719 448.52 436.719 450.96V466.32C436.719 468.76 435.999 470.76 434.559 472.32C433.119 473.84 431.319 474.6 429.159 474.6C426.759 474.6 424.899 473.72 423.579 471.96V483.6H419.679ZM445.706 464.4V465.72C445.706 467.4 446.146 468.76 447.026 469.8C447.906 470.8 449.066 471.3 450.506 471.3C451.946 471.3 453.106 470.8 453.986 469.8C454.866 468.76 455.306 467.4 455.306 465.72V464.4C455.306 462.72 454.866 461.38 453.986 460.38C453.106 459.34 451.946 458.82 450.506 458.82C449.066 458.82 447.906 459.34 447.026 460.38C446.146 461.38 445.706 462.72 445.706 464.4ZM441.806 465.9V464.52C441.806 461.92 442.546 459.8 444.026 458.16C445.506 456.48 447.366 455.64 449.606 455.64C452.006 455.64 453.906 456.6 455.306 458.52V451.32C455.306 449.8 454.886 448.58 454.046 447.66C453.246 446.74 452.226 446.28 450.986 446.28C449.746 446.28 448.706 446.74 447.866 447.66C447.066 448.58 446.666 449.8 446.666 451.32V452.58H442.946V451.5C442.946 448.94 443.726 446.86 445.286 445.26C446.846 443.66 448.766 442.86 451.046 442.86C453.366 442.86 455.306 443.64 456.866 445.2C458.426 446.76 459.206 448.8 459.206 451.32V474H456.026L455.726 471C454.286 473.4 452.186 474.6 449.426 474.6C447.186 474.6 445.346 473.82 443.906 472.26C442.506 470.66 441.806 468.54 441.806 465.9ZM469.999 474L462.799 443.46H466.939L471.919 467.94L476.899 443.46H480.799L473.359 474.9C472.559 478.3 471.539 480.7 470.299 482.1C469.059 483.5 467.579 484.2 465.859 484.2L463.999 483.96V480.72C464.279 480.8 464.679 480.84 465.199 480.84C466.399 480.84 467.359 480.36 468.079 479.4C468.799 478.48 469.439 476.68 469.999 474ZM500.409 474L493.209 443.46H497.349L502.329 467.94L507.309 443.46H511.209L503.769 474.9C502.969 478.3 501.949 480.7 500.709 482.1C499.469 483.5 497.989 484.2 496.269 484.2L494.409 483.96V480.72C494.689 480.8 495.089 480.84 495.609 480.84C496.809 480.84 497.769 480.36 498.489 479.4C499.209 478.48 499.849 476.68 500.409 474ZM518.428 451.8V465.66C518.428 467.3 518.848 468.6 519.688 469.56C520.568 470.52 521.688 471 523.048 471C524.408 471 525.508 470.52 526.348 469.56C527.228 468.6 527.668 467.3 527.668 465.66V451.8C527.668 450.16 527.228 448.86 526.348 447.9C525.508 446.94 524.408 446.46 523.048 446.46C521.688 446.46 520.568 446.94 519.688 447.9C518.848 448.86 518.428 450.16 518.428 451.8ZM514.528 465.84V451.8C514.528 449.16 515.348 447.02 516.988 445.38C518.628 443.7 520.668 442.86 523.108 442.86C525.508 442.86 527.508 443.68 529.108 445.32C530.748 446.92 531.568 449.02 531.568 451.62V465.66C531.568 468.26 530.728 470.4 529.048 472.08C527.408 473.76 525.388 474.6 522.988 474.6C520.588 474.6 518.568 473.8 516.928 472.2C515.328 470.6 514.528 468.48 514.528 465.84ZM550.17 465.78V443.46H554.07V474H550.71L550.53 471.06C549.17 473.42 547.07 474.6 544.23 474.6C542.19 474.6 540.51 473.88 539.19 472.44C537.91 471 537.27 469.02 537.27 466.5V443.46H541.17V465.78C541.17 467.42 541.55 468.7 542.31 469.62C543.11 470.54 544.17 471 545.49 471C546.85 471 547.97 470.54 548.85 469.62C549.73 468.7 550.17 467.42 550.17 465.78ZM562.155 461.58L561.195 432H565.815L564.855 461.58H562.155ZM563.475 468.9C564.275 468.9 564.955 469.2 565.515 469.8C566.075 470.36 566.355 471.02 566.355 471.78C566.355 472.54 566.075 473.2 565.515 473.76C564.955 474.32 564.275 474.6 563.475 474.6C562.675 474.6 561.995 474.32 561.435 473.76C560.915 473.2 560.655 472.54 560.655 471.78C560.655 470.98 560.935 470.3 561.495 469.74C562.055 469.18 562.715 468.9 563.475 468.9Z" fill="white"/>
<path d="M291.783 201.768V92.2612H275.672V66.2321H335.028V92.2612H318.917V201.768H291.783Z" fill="white"/>
<path d="M342.582 201.768V66.2321H384.208C391.146 66.2321 396.387 67.8237 399.933 71.0067C403.479 74.1384 405.843 78.5536 407.025 84.2522C408.259 89.8996 408.875 96.548 408.875 104.198C408.875 111.59 407.925 117.494 406.023 121.91C404.173 126.325 400.653 129.379 395.462 131.074C399.728 131.946 402.708 134.077 404.404 137.465C406.152 140.802 407.025 145.141 407.025 150.48V201.768H380.277V148.709C380.277 144.756 379.454 142.317 377.81 141.393C376.217 140.417 373.622 139.93 370.024 139.93V201.768H342.582ZM370.178 116.442H376.731C380.482 116.442 382.358 112.36 382.358 104.198C382.358 98.9096 381.947 95.4442 381.125 93.8013C380.302 92.1585 378.761 91.3371 376.499 91.3371H370.178V116.442Z" fill="white"/>
<path d="M449.191 203C437.885 203 429.56 199.843 424.215 193.528C418.871 187.162 416.198 177.818 416.198 165.497V66.2321H442.562V164.419C442.562 166.677 442.69 168.859 442.947 170.964C443.204 173.018 443.795 174.712 444.72 176.047C445.645 177.382 447.135 178.049 449.191 178.049C451.298 178.049 452.814 177.407 453.739 176.124C454.664 174.789 455.229 173.069 455.435 170.964C455.692 168.859 455.82 166.677 455.82 164.419V66.2321H482.183V165.497C482.183 177.818 479.511 187.162 474.167 193.528C468.822 199.843 460.497 203 449.191 203Z" fill="white"/>
<path d="M524.812 203C512.427 203 503.485 199.92 497.986 193.759C492.539 187.598 489.815 177.792 489.815 164.342V151.096H516.641V168.038C516.641 171.17 517.103 173.634 518.028 175.431C519.004 177.176 520.675 178.049 523.039 178.049C525.505 178.049 527.201 177.33 528.126 175.893C529.103 174.455 529.591 172.094 529.591 168.808C529.591 164.65 529.18 161.184 528.357 158.412C527.535 155.588 526.096 152.919 524.041 150.403C522.036 147.836 519.236 144.858 515.638 141.47L503.459 129.919C494.363 121.345 489.815 111.539 489.815 100.501C489.815 88.9498 492.487 80.1451 497.832 74.0871C503.228 68.029 511.013 65 521.189 65C533.625 65 542.438 68.3114 547.629 74.9342C552.871 81.5569 555.492 91.6194 555.492 105.122H527.895V95.8036C527.895 93.9554 527.355 92.5179 526.276 91.4911C525.248 90.4643 523.835 89.9509 522.037 89.9509C519.878 89.9509 518.285 90.567 517.257 91.7991C516.281 92.9799 515.793 94.5201 515.793 96.4196C515.793 98.3192 516.306 100.373 517.334 102.58C518.362 104.788 520.392 107.329 523.424 110.204L539.072 125.221C542.207 128.199 545.085 131.356 547.706 134.693C550.327 137.979 552.434 141.829 554.027 146.244C555.62 150.608 556.417 155.948 556.417 162.262C556.417 174.994 554.053 184.98 549.325 192.219C544.648 199.406 536.477 203 524.812 203Z" fill="white"/>
<path d="M577.152 201.768V92.2612H561.042V66.2321H620.397V92.2612H604.286V201.768H577.152Z" fill="white"/>
<path d="M664.953 201.768V66.2321H706.27L717.679 148.863L729.011 66.2321H770.714V201.768H745.892V104.121L730.321 201.768H705.962L689.466 104.121V201.768H664.953Z" fill="white"/>
<path d="M782.739 201.768V66.2321H837.007V92.4152H810.336V118.829H835.928V144.319H810.336V175.354H838.78V201.768H782.739Z" fill="white"/>
<path d="M884.8 201.768V66.2321H921.57C931.437 66.2321 938.605 68.6451 943.076 73.471C947.599 78.2455 949.86 86.1518 949.86 97.1897V103.119C949.86 109.485 948.704 114.645 946.391 118.598C944.13 122.551 940.661 125.144 935.985 126.376C942.1 127.916 946.185 131.536 948.241 137.234C950.348 142.882 951.402 149.787 951.402 157.95C951.402 166.729 950.579 174.404 948.935 180.975C947.29 187.547 944.31 192.655 939.993 196.3C935.676 199.945 929.535 201.768 921.57 201.768H884.8ZM911.317 117.289H916.867C919.385 117.289 921.004 116.314 921.724 114.363C922.443 112.412 922.803 110.076 922.803 107.355V93.7243C922.803 89.3605 920.876 87.1786 917.022 87.1786H911.317V117.289ZM914.015 177.895C921.056 177.895 924.576 174.558 924.576 167.884V150.942C924.576 147.092 923.985 144.062 922.803 141.855C921.672 139.596 919.514 138.467 916.328 138.467H911.317V177.741C912.448 177.844 913.347 177.895 914.015 177.895Z" fill="white"/>
<path d="M960.344 201.768V66.2321H1001.97C1008.91 66.2321 1014.15 67.8237 1017.69 71.0067C1021.24 74.1384 1023.6 78.5536 1024.79 84.2522C1026.02 89.8996 1026.64 96.548 1026.64 104.198C1026.64 111.59 1025.69 117.494 1023.78 121.91C1021.93 126.325 1018.41 129.379 1013.22 131.074C1017.49 131.946 1020.47 134.077 1022.17 137.465C1023.91 140.802 1024.79 145.141 1024.79 150.48V201.768H998.038V148.709C998.038 144.756 997.216 142.317 995.572 141.393C993.978 140.417 991.383 139.93 987.786 139.93V201.768H960.344ZM987.94 116.442H994.492C998.244 116.442 1000.12 112.36 1000.12 104.198C1000.12 98.9096 999.708 95.4442 998.886 93.8013C998.064 92.1585 996.522 91.3371 994.261 91.3371H987.94V116.442Z" fill="white"/>
<path d="M1067.95 203C1057.11 203 1048.81 199.74 1043.06 193.22C1037.35 186.648 1034.5 177.176 1034.5 164.804V100.424C1034.5 88.8214 1037.33 80.0167 1042.98 74.01C1048.68 68.0033 1057.01 65 1067.95 65C1078.9 65 1087.2 68.0033 1092.85 74.01C1098.56 80.0167 1101.41 88.8214 1101.41 100.424V164.804C1101.41 177.176 1098.53 186.648 1092.78 193.22C1087.07 199.74 1078.8 203 1067.95 203ZM1068.19 178.049C1072.3 178.049 1074.35 174.07 1074.35 166.113V99.9621C1074.35 93.2879 1072.35 89.9509 1068.34 89.9509C1063.82 89.9509 1061.56 93.365 1061.56 100.193V166.267C1061.56 170.477 1062.07 173.506 1063.1 175.354C1064.13 177.151 1065.82 178.049 1068.19 178.049Z" fill="white"/>
<path d="M108.262 128.379V70.0546H119.927V118.438H131.923V128.379H108.262Z" fill="white"/>
<path d="M149.155 128.91C144.494 128.91 140.926 127.507 138.451 124.701C135.999 121.873 134.773 117.797 134.773 112.473V84.7684C134.773 79.7754 135.988 75.9865 138.418 73.4017C140.871 70.8168 144.45 69.5244 149.155 69.5244C153.861 69.5244 157.429 70.8168 159.859 73.4017C162.312 75.9865 163.538 79.7754 163.538 84.7684V112.473C163.538 117.797 162.301 121.873 159.826 124.701C157.374 127.507 153.817 128.91 149.155 128.91ZM149.255 118.173C151.022 118.173 151.906 116.46 151.906 113.036V84.5696C151.906 81.6975 151.044 80.2615 149.321 80.2615C147.377 80.2615 146.405 81.7306 146.405 84.669V113.102C146.405 114.914 146.626 116.217 147.068 117.013C147.509 117.786 148.239 118.173 149.255 118.173Z" fill="white"/>
<path d="M173.612 128.379L166.421 70.0215H177.522L181.797 109.722L185.608 70.0215H196.71L189.519 128.379H173.612Z" fill="white"/>
<path d="M200.123 128.379V70.0546H223.453V81.3219H211.987V92.6886H222.989V103.658H211.987V117.013H224.215V128.379H200.123Z" fill="white"/>
<path d="M241.945 128.91C236.62 128.91 232.776 127.584 230.412 124.933C228.071 122.282 226.9 118.062 226.9 112.274V106.574H238.432V113.865C238.432 115.212 238.631 116.273 239.029 117.046C239.448 117.797 240.166 118.173 241.183 118.173C242.243 118.173 242.972 117.863 243.37 117.245C243.79 116.626 243.999 115.61 243.999 114.196C243.999 112.406 243.823 110.915 243.469 109.722C243.116 108.507 242.497 107.358 241.613 106.276C240.752 105.171 239.548 103.89 238.001 102.432L232.765 97.4607C228.855 93.7712 226.9 89.5515 226.9 84.8015C226.9 79.8307 228.048 76.0418 230.346 73.4348C232.666 70.8279 236.013 69.5244 240.387 69.5244C245.734 69.5244 249.523 70.9494 251.754 73.7994C254.007 76.6493 255.134 80.9795 255.134 86.7899H243.27V82.78C243.27 81.9847 243.038 81.3661 242.574 80.9243C242.133 80.4824 241.525 80.2615 240.752 80.2615C239.824 80.2615 239.139 80.5266 238.697 81.0568C238.277 81.5649 238.068 82.2277 238.068 83.0452C238.068 83.8626 238.288 84.7463 238.73 85.6963C239.172 86.6463 240.045 87.7399 241.348 88.9771L248.076 95.4392C249.423 96.7206 250.66 98.0793 251.787 99.5153C252.914 100.929 253.82 102.586 254.505 104.486C255.189 106.364 255.532 108.662 255.532 111.379C255.532 116.858 254.516 121.155 252.483 124.27C250.473 127.363 246.96 128.91 241.945 128.91Z" fill="white"/>
<path d="M114.275 202.045L108.012 143.721H119.412L122.626 180.538L125.907 143.721H136.776L139.892 180.538L143.007 143.721H154.539L148.176 202.045H134.192L131.275 173.977L128.492 202.045H114.275Z" fill="white"/>
<path d="M157.488 202.045V143.721H168.756V202.045H157.488Z" fill="white"/>
<path d="M173.395 202.045V143.721H185.391L190.76 171.657V143.721H202.027V202.045H190.627L184.795 172.883V202.045H173.395Z" fill="white"/>
<path d="M207.197 202.045V143.721H230.527V154.988H219.061V166.355H230.063V177.324H219.061V190.679H231.289V202.045H207.197Z" fill="white"/>
<path d="M106 126.118V67.7929H117.665V116.176H129.661V126.118H106Z" fill="#BB0101"/>
<path d="M146.894 126.648C142.232 126.648 138.664 125.245 136.19 122.439C133.737 119.611 132.511 115.535 132.511 110.211V82.5067C132.511 77.5137 133.726 73.7248 136.157 71.14C138.609 68.5551 142.188 67.2627 146.894 67.2627C151.599 67.2627 155.167 68.5551 157.598 71.14C160.05 73.7248 161.276 77.5137 161.276 82.5067V110.211C161.276 115.535 160.039 119.611 157.564 122.439C155.112 125.245 151.555 126.648 146.894 126.648ZM146.993 115.911C148.76 115.911 149.644 114.199 149.644 110.774V82.3078C149.644 79.4358 148.783 77.9998 147.059 77.9998C145.115 77.9998 144.143 79.4689 144.143 82.4073V110.841C144.143 112.652 144.364 113.956 144.806 114.751C145.248 115.524 145.977 115.911 146.993 115.911Z" fill="#BB0101"/>
<path d="M171.35 126.118L164.159 67.7598H175.261L179.536 107.46L183.347 67.7598H194.448L187.257 126.118H171.35Z" fill="#BB0101"/>
<path d="M197.862 126.118V67.7929H221.191V79.0602H209.725V90.4269H220.728V101.396H209.725V114.751H221.954V126.118H197.862Z" fill="#BB0101"/>
<path d="M239.683 126.648C234.359 126.648 230.515 125.322 228.151 122.671C225.809 120.02 224.638 115.8 224.638 110.012V104.312H236.17V111.603C236.17 112.95 236.369 114.011 236.767 114.784C237.187 115.535 237.905 115.911 238.921 115.911C239.981 115.911 240.71 115.602 241.108 114.983C241.528 114.364 241.738 113.348 241.738 111.934C241.738 110.145 241.561 108.653 241.207 107.46C240.854 106.245 240.235 105.096 239.352 104.014C238.49 102.909 237.286 101.628 235.74 100.17L230.504 95.1989C226.593 91.5095 224.638 87.2898 224.638 82.5398C224.638 77.569 225.787 73.78 228.084 71.1731C230.404 68.5662 233.751 67.2627 238.126 67.2627C243.472 67.2627 247.261 68.6877 249.492 71.5376C251.746 74.3876 252.872 78.7178 252.872 84.5282H241.009V80.5183C241.009 79.723 240.777 79.1044 240.313 78.6625C239.871 78.2207 239.263 77.9998 238.49 77.9998C237.562 77.9998 236.877 78.2649 236.435 78.7951C236.016 79.3032 235.806 79.966 235.806 80.7834C235.806 81.6009 236.027 82.4846 236.469 83.4346C236.91 84.3846 237.783 85.4781 239.087 86.7153L245.814 93.1775C247.161 94.4588 248.399 95.8175 249.525 97.2536C250.652 98.6675 251.558 100.324 252.243 102.224C252.928 104.102 253.27 106.4 253.27 109.117C253.27 114.596 252.254 118.893 250.221 122.008C248.211 125.101 244.698 126.648 239.683 126.648Z" fill="#BB0101"/>
<path d="M112.263 200.278L106 141.953H117.4L120.614 178.771L123.895 141.953H134.765L137.88 178.771L140.995 141.953H152.527L146.165 200.278H132.18L129.264 172.209L126.48 200.278H112.263Z" fill="#BB0101"/>
<path d="M155.477 200.278V141.953H166.744V200.278H155.477Z" fill="#BB0101"/>
<path d="M171.383 200.278V141.953H183.38L188.748 169.889V141.953H200.016V200.278H188.616L182.783 171.116V200.278H171.383Z" fill="#BB0101"/>
<path d="M205.185 200.278V141.953H228.515V153.22H217.049V164.587H228.051V175.556H217.049V188.911H229.277V200.278H205.185Z" fill="#BB0101"/>
</g>
<defs>
<clipPath id="clip0_1148_2069">
<rect width="1208" height="1208" fill="white"/>
</clipPath>
</defs>
</svg>
