<svg width="1208" height="1208" viewBox="0 0 1208 1208" fill="none" xmlns="http://www.w3.org/2000/svg">
<g clip-path="url(#clip0_1148_1914)">
<rect width="1208" height="1208" fill="#B80000"/>
<path d="M1266 1246L1265.14 521H-25V1246H1266Z" fill="black" stroke="black" stroke-width="2"/>
<path d="M142.602 293.84H135.282V332H131.202V293.84H123.882V290H142.602V293.84ZM145.857 322.4V323.72C145.857 325.4 146.297 326.76 147.177 327.8C148.057 328.8 149.217 329.3 150.657 329.3C152.097 329.3 153.257 328.8 154.137 327.8C155.017 326.76 155.457 325.4 155.457 323.72V322.4C155.457 320.72 155.017 319.38 154.137 318.38C153.257 317.34 152.097 316.82 150.657 316.82C149.217 316.82 148.057 317.34 147.177 318.38C146.297 319.38 145.857 320.72 145.857 322.4ZM141.957 323.9V322.52C141.957 319.92 142.697 317.8 144.177 316.16C145.657 314.48 147.517 313.64 149.757 313.64C152.157 313.64 154.057 314.6 155.457 316.52V309.32C155.457 307.8 155.037 306.58 154.197 305.66C153.397 304.74 152.377 304.28 151.137 304.28C149.897 304.28 148.857 304.74 148.017 305.66C147.217 306.58 146.817 307.8 146.817 309.32V310.58H143.097V309.5C143.097 306.94 143.877 304.86 145.437 303.26C146.997 301.66 148.917 300.86 151.197 300.86C153.517 300.86 155.457 301.64 157.017 303.2C158.577 304.76 159.357 306.8 159.357 309.32V332H156.177L155.877 329C154.437 331.4 152.337 332.6 149.577 332.6C147.337 332.6 145.497 331.82 144.057 330.26C142.657 328.66 141.957 326.54 141.957 323.9ZM169.55 309.68V332H165.65V301.46H169.01L169.19 304.4C170.55 302.04 172.65 300.86 175.49 300.86C177.53 300.86 179.19 301.58 180.47 303.02C181.79 304.46 182.45 306.44 182.45 308.96V332H178.55V309.68C178.55 308.04 178.15 306.76 177.35 305.84C176.59 304.92 175.55 304.46 174.23 304.46C172.87 304.46 171.75 304.92 170.87 305.84C169.99 306.76 169.55 308.04 169.55 309.68ZM201.336 323.78V301.46H205.236V332H201.876L201.696 329.06C200.336 331.42 198.236 332.6 195.396 332.6C193.356 332.6 191.676 331.88 190.356 330.44C189.076 329 188.436 327.02 188.436 324.5V301.46H192.336V323.78C192.336 325.42 192.716 326.7 193.476 327.62C194.276 328.54 195.336 329 196.656 329C198.016 329 199.136 328.54 200.016 327.62C200.896 326.7 201.336 325.42 201.336 323.78ZM211.821 332V290H215.721V314.78L224.061 301.46H228.621L219.381 315.26L229.221 332H224.601L215.721 316.34V332H211.821ZM233.45 332V301.46H237.47V332H233.45ZM233.45 290.84C234.01 290.28 234.67 290 235.43 290C236.19 290 236.85 290.28 237.41 290.84C238.01 291.4 238.31 292.08 238.31 292.88C238.31 293.64 238.03 294.3 237.47 294.86C236.91 295.42 236.23 295.7 235.43 295.7C234.67 295.7 234.01 295.44 233.45 294.92C232.89 294.36 232.61 293.68 232.61 292.88C232.61 292.08 232.89 291.4 233.45 290.84ZM258.532 322.4V323.72C258.532 325.4 258.972 326.76 259.852 327.8C260.732 328.8 261.892 329.3 263.332 329.3C264.772 329.3 265.932 328.8 266.812 327.8C267.692 326.76 268.132 325.4 268.132 323.72V322.4C268.132 320.72 267.692 319.38 266.812 318.38C265.932 317.34 264.772 316.82 263.332 316.82C261.892 316.82 260.732 317.34 259.852 318.38C258.972 319.38 258.532 320.72 258.532 322.4ZM254.632 323.9V322.52C254.632 319.92 255.372 317.8 256.852 316.16C258.332 314.48 260.192 313.64 262.432 313.64C264.832 313.64 266.732 314.6 268.132 316.52V309.32C268.132 307.8 267.712 306.58 266.872 305.66C266.072 304.74 265.052 304.28 263.812 304.28C262.572 304.28 261.532 304.74 260.692 305.66C259.892 306.58 259.492 307.8 259.492 309.32V310.58H255.772V309.5C255.772 306.94 256.552 304.86 258.112 303.26C259.672 301.66 261.592 300.86 263.872 300.86C266.192 300.86 268.132 301.64 269.692 303.2C271.252 304.76 272.032 306.8 272.032 309.32V332H268.852L268.552 329C267.112 331.4 265.012 332.6 262.252 332.6C260.012 332.6 258.172 331.82 256.732 330.26C255.332 328.66 254.632 326.54 254.632 323.9ZM289.245 300.86V305H288.405C286.485 305 284.965 305.6 283.845 306.8C282.765 307.96 282.225 309.7 282.225 312.02V332H278.325V301.46H281.685L281.925 305.18C283.325 302.3 285.765 300.86 289.245 300.86ZM295.864 309.56V313.7H305.104V309.56C305.104 307.92 304.664 306.62 303.784 305.66C302.944 304.7 301.844 304.22 300.484 304.22C299.124 304.22 298.004 304.7 297.124 305.66C296.284 306.62 295.864 307.92 295.864 309.56ZM305.104 323.66V322.1H308.764V323.72C308.764 326.36 307.944 328.5 306.304 330.14C304.704 331.78 302.704 332.6 300.304 332.6C297.904 332.6 295.904 331.8 294.304 330.2C292.744 328.6 291.964 326.5 291.964 323.9V309.68C291.964 307.08 292.784 304.96 294.424 303.32C296.064 301.68 298.084 300.86 300.484 300.86C302.884 300.86 304.864 301.66 306.424 303.26C307.984 304.82 308.764 306.92 308.764 309.56V316.52H295.864V323.66C295.864 325.3 296.284 326.6 297.124 327.56C298.004 328.52 299.124 329 300.484 329C301.844 329 302.944 328.52 303.784 327.56C304.664 326.6 305.104 325.3 305.104 323.66ZM323.862 304.76V301.46H327.762V296.96C327.762 294.48 328.362 292.6 329.562 291.32C330.762 290.04 332.422 289.4 334.542 289.4L337.662 289.76V293.12C336.862 293 336.122 292.94 335.442 292.94C332.922 292.94 331.662 294.44 331.662 297.44V301.46H337.662V304.76H331.662V332H327.762V304.76H323.862ZM343.962 322.4V323.72C343.962 325.4 344.402 326.76 345.282 327.8C346.162 328.8 347.322 329.3 348.762 329.3C350.202 329.3 351.362 328.8 352.242 327.8C353.122 326.76 353.562 325.4 353.562 323.72V322.4C353.562 320.72 353.122 319.38 352.242 318.38C351.362 317.34 350.202 316.82 348.762 316.82C347.322 316.82 346.162 317.34 345.282 318.38C344.402 319.38 343.962 320.72 343.962 322.4ZM340.062 323.9V322.52C340.062 319.92 340.802 317.8 342.282 316.16C343.762 314.48 345.622 313.64 347.862 313.64C350.262 313.64 352.162 314.6 353.562 316.52V309.32C353.562 307.8 353.142 306.58 352.302 305.66C351.502 304.74 350.482 304.28 349.242 304.28C348.002 304.28 346.962 304.74 346.122 305.66C345.322 306.58 344.922 307.8 344.922 309.32V310.58H341.202V309.5C341.202 306.94 341.982 304.86 343.542 303.26C345.102 301.66 347.022 300.86 349.302 300.86C351.622 300.86 353.562 301.64 355.122 303.2C356.682 304.76 357.462 306.8 357.462 309.32V332H354.282L353.982 329C352.542 331.4 350.442 332.6 347.682 332.6C345.442 332.6 343.602 331.82 342.162 330.26C340.762 328.66 340.062 326.54 340.062 323.9ZM367.655 309.68V332H363.755V301.46H367.115L367.295 304.34C368.615 302.02 370.655 300.86 373.415 300.86C376.335 300.86 378.355 302.24 379.475 305C380.755 302.24 382.915 300.86 385.955 300.86C387.955 300.86 389.575 301.58 390.815 303.02C392.095 304.46 392.735 306.44 392.735 308.96V332H388.835V309.68C388.835 308 388.475 306.72 387.755 305.84C387.035 304.92 386.015 304.46 384.695 304.46C383.375 304.46 382.295 304.9 381.455 305.78C380.615 306.66 380.195 307.88 380.195 309.44V332H376.295V309.68C376.295 308 375.935 306.72 375.215 305.84C374.495 304.92 373.475 304.46 372.155 304.46C370.835 304.46 369.755 304.92 368.915 305.84C368.075 306.76 367.655 308.04 367.655 309.68ZM402.329 309.8V323.66C402.329 325.3 402.749 326.6 403.589 327.56C404.469 328.52 405.589 329 406.949 329C408.309 329 409.409 328.52 410.249 327.56C411.129 326.6 411.569 325.3 411.569 323.66V309.8C411.569 308.16 411.129 306.86 410.249 305.9C409.409 304.94 408.309 304.46 406.949 304.46C405.589 304.46 404.469 304.94 403.589 305.9C402.749 306.86 402.329 308.16 402.329 309.8ZM398.429 323.84V309.8C398.429 307.16 399.249 305.02 400.889 303.38C402.529 301.7 404.569 300.86 407.009 300.86C409.409 300.86 411.409 301.68 413.009 303.32C414.649 304.92 415.469 307.02 415.469 309.62V323.66C415.469 326.26 414.629 328.4 412.949 330.08C411.309 331.76 409.289 332.6 406.889 332.6C404.489 332.6 402.469 331.8 400.829 330.2C399.229 328.6 398.429 326.48 398.429 323.84ZM434.07 323.78V301.46H437.97V332H434.61L434.43 329.06C433.07 331.42 430.97 332.6 428.13 332.6C426.09 332.6 424.41 331.88 423.09 330.44C421.81 329 421.17 327.02 421.17 324.5V301.46H425.07V323.78C425.07 325.42 425.45 326.7 426.21 327.62C427.01 328.54 428.07 329 429.39 329C430.75 329 431.87 328.54 432.75 327.62C433.63 326.7 434.07 325.42 434.07 323.78ZM456.316 309.56V308.72C456.316 307.4 455.896 306.34 455.056 305.54C454.256 304.7 453.236 304.28 451.996 304.28C450.756 304.28 449.716 304.68 448.876 305.48C448.076 306.28 447.676 307.32 447.676 308.6C447.676 309.84 448.076 310.92 448.876 311.84C449.676 312.72 451.036 313.64 452.956 314.6C455.396 315.76 457.216 317.1 458.416 318.62C459.616 320.14 460.216 322 460.216 324.2C460.216 326.64 459.396 328.66 457.756 330.26C456.116 331.82 454.096 332.6 451.696 332.6C449.296 332.6 447.296 331.84 445.696 330.32C444.136 328.8 443.356 326.78 443.356 324.26V323.3H447.076V324.2C447.076 325.72 447.496 326.92 448.336 327.8C449.216 328.68 450.336 329.12 451.696 329.12C453.056 329.12 454.156 328.68 454.996 327.8C455.876 326.92 456.316 325.74 456.316 324.26C456.316 322.9 455.876 321.72 454.996 320.72C454.116 319.68 452.556 318.62 450.316 317.54C445.956 315.38 443.776 312.4 443.776 308.6C443.776 306.36 444.556 304.52 446.116 303.08C447.716 301.6 449.676 300.86 451.996 300.86C454.316 300.86 456.236 301.6 457.756 303.08C459.276 304.52 460.036 306.38 460.036 308.66V309.56H456.316ZM474.682 304.76V301.46H478.582V296.96C478.582 294.48 479.182 292.6 480.382 291.32C481.582 290.04 483.242 289.4 485.362 289.4L488.482 289.76V293.12C487.682 293 486.942 292.94 486.262 292.94C483.742 292.94 482.482 294.44 482.482 297.44V301.46H488.482V304.76H482.482V332H478.582V304.76H474.682ZM495.375 309.8V323.66C495.375 325.3 495.795 326.6 496.635 327.56C497.515 328.52 498.635 329 499.995 329C501.355 329 502.455 328.52 503.295 327.56C504.175 326.6 504.615 325.3 504.615 323.66V309.8C504.615 308.16 504.175 306.86 503.295 305.9C502.455 304.94 501.355 304.46 499.995 304.46C498.635 304.46 497.515 304.94 496.635 305.9C495.795 306.86 495.375 308.16 495.375 309.8ZM491.475 323.84V309.8C491.475 307.16 492.295 305.02 493.935 303.38C495.575 301.7 497.615 300.86 500.055 300.86C502.455 300.86 504.455 301.68 506.055 303.32C507.695 304.92 508.515 307.02 508.515 309.62V323.66C508.515 326.26 507.675 328.4 505.995 330.08C504.355 331.76 502.335 332.6 499.935 332.6C497.535 332.6 495.515 331.8 493.875 330.2C492.275 328.6 491.475 326.48 491.475 323.84ZM525.437 300.86V305H524.597C522.677 305 521.157 305.6 520.037 306.8C518.957 307.96 518.417 309.7 518.417 312.02V332H514.517V301.46H517.877L518.117 305.18C519.517 302.3 521.957 300.86 525.437 300.86ZM539.018 304.76V301.46H542.918V293.6H546.818V301.46H553.118V304.76H546.818V324.5C546.818 327.5 548.078 329 550.598 329L552.818 328.82V332.24C551.898 332.48 550.858 332.6 549.698 332.6C547.578 332.6 545.918 331.96 544.718 330.68C543.518 329.4 542.918 327.52 542.918 325.04V304.76H539.018ZM575.028 332H571.128V309.68C571.128 308.04 570.728 306.76 569.928 305.84C569.168 304.92 568.128 304.46 566.808 304.46C565.448 304.46 564.328 304.9 563.448 305.78C562.568 306.66 562.128 307.86 562.128 309.38V332H558.228V290H562.128V304.1C563.488 301.94 565.468 300.86 568.068 300.86C570.108 300.86 571.768 301.58 573.048 303.02C574.368 304.46 575.028 306.44 575.028 308.96V332ZM584.614 309.56V313.7H593.854V309.56C593.854 307.92 593.414 306.62 592.534 305.66C591.694 304.7 590.594 304.22 589.234 304.22C587.874 304.22 586.754 304.7 585.874 305.66C585.034 306.62 584.614 307.92 584.614 309.56ZM593.854 323.66V322.1H597.514V323.72C597.514 326.36 596.694 328.5 595.054 330.14C593.454 331.78 591.454 332.6 589.054 332.6C586.654 332.6 584.654 331.8 583.054 330.2C581.494 328.6 580.714 326.5 580.714 323.9V309.68C580.714 307.08 581.534 304.96 583.174 303.32C584.814 301.68 586.834 300.86 589.234 300.86C591.634 300.86 593.614 301.66 595.174 303.26C596.734 304.82 597.514 306.92 597.514 309.56V316.52H584.614V323.66C584.614 325.3 585.034 326.6 585.874 327.56C586.754 328.52 587.874 329 589.234 329C590.594 329 591.694 328.52 592.534 327.56C593.414 326.6 593.854 325.3 593.854 323.66ZM603.821 332V301.46H607.841V332H603.821ZM603.821 290.84C604.381 290.28 605.041 290 605.801 290C606.561 290 607.221 290.28 607.781 290.84C608.381 291.4 608.681 292.08 608.681 292.88C608.681 293.64 608.401 294.3 607.841 294.86C607.281 295.42 606.601 295.7 605.801 295.7C605.041 295.7 604.381 295.44 603.821 294.92C603.261 294.36 602.981 293.68 602.981 292.88C602.981 292.08 603.261 291.4 603.821 290.84ZM625.632 300.86V305H624.792C622.872 305 621.352 305.6 620.232 306.8C619.152 307.96 618.612 309.7 618.612 312.02V332H614.712V301.46H618.072L618.312 305.18C619.712 302.3 622.152 300.86 625.632 300.86ZM644.314 322.4V323.72C644.314 325.4 644.754 326.76 645.634 327.8C646.514 328.8 647.674 329.3 649.114 329.3C650.554 329.3 651.714 328.8 652.594 327.8C653.474 326.76 653.914 325.4 653.914 323.72V322.4C653.914 320.72 653.474 319.38 652.594 318.38C651.714 317.34 650.554 316.82 649.114 316.82C647.674 316.82 646.514 317.34 645.634 318.38C644.754 319.38 644.314 320.72 644.314 322.4ZM640.414 323.9V322.52C640.414 319.92 641.154 317.8 642.634 316.16C644.114 314.48 645.974 313.64 648.214 313.64C650.614 313.64 652.514 314.6 653.914 316.52V309.32C653.914 307.8 653.494 306.58 652.654 305.66C651.854 304.74 650.834 304.28 649.594 304.28C648.354 304.28 647.314 304.74 646.474 305.66C645.674 306.58 645.274 307.8 645.274 309.32V310.58H641.554V309.5C641.554 306.94 642.334 304.86 643.894 303.26C645.454 301.66 647.374 300.86 649.654 300.86C651.974 300.86 653.914 301.64 655.474 303.2C657.034 304.76 657.814 306.8 657.814 309.32V332H654.634L654.334 329C652.894 331.4 650.794 332.6 648.034 332.6C645.794 332.6 643.954 331.82 642.514 330.26C641.114 328.66 640.414 326.54 640.414 323.9ZM677.247 323.66V309.8C677.247 308.16 676.807 306.86 675.927 305.9C675.087 304.94 673.987 304.46 672.627 304.46C671.267 304.46 670.147 304.94 669.267 305.9C668.427 306.86 668.007 308.16 668.007 309.8V323.66C668.007 325.3 668.427 326.6 669.267 327.56C670.147 328.52 671.267 329 672.627 329C673.987 329 675.087 328.52 675.927 327.56C676.807 326.6 677.247 325.3 677.247 323.66ZM664.107 332V290H668.007V303.74C669.367 301.82 671.267 300.86 673.707 300.86C675.907 300.86 677.687 301.6 679.047 303.08C680.447 304.56 681.147 306.52 681.147 308.96V324.32C681.147 326.76 680.427 328.76 678.987 330.32C677.547 331.84 675.747 332.6 673.587 332.6C670.867 332.6 668.887 331.54 667.647 329.42L667.467 332H664.107ZM687.434 332V301.46H691.454V332H687.434ZM687.434 290.84C687.994 290.28 688.654 290 689.414 290C690.174 290 690.834 290.28 691.394 290.84C691.994 291.4 692.294 292.08 692.294 292.88C692.294 293.64 692.014 294.3 691.454 294.86C690.894 295.42 690.214 295.7 689.414 295.7C688.654 295.7 687.994 295.44 687.434 294.92C686.874 294.36 686.594 293.68 686.594 292.88C686.594 292.08 686.874 291.4 687.434 290.84ZM698.625 332V290H702.645V332H698.625ZM709.817 332V301.46H713.837V332H709.817ZM709.817 290.84C710.377 290.28 711.037 290 711.797 290C712.557 290 713.217 290.28 713.777 290.84C714.377 291.4 714.677 292.08 714.677 292.88C714.677 293.64 714.397 294.3 713.837 294.86C713.277 295.42 712.597 295.7 711.797 295.7C711.037 295.7 710.377 295.44 709.817 294.92C709.257 294.36 708.977 293.68 708.977 292.88C708.977 292.08 709.257 291.4 709.817 290.84ZM718.608 304.76V301.46H722.508V293.6H726.408V301.46H732.708V304.76H726.408V324.5C726.408 327.5 727.668 329 730.188 329L732.408 328.82V332.24C731.488 332.48 730.448 332.6 729.288 332.6C727.168 332.6 725.508 331.96 724.308 330.68C723.108 329.4 722.508 327.52 722.508 325.04V304.76H718.608ZM742.318 332L735.118 301.46H739.258L744.238 325.94L749.218 301.46H753.118L745.678 332.9C744.878 336.3 743.858 338.7 742.618 340.1C741.378 341.5 739.898 342.2 738.178 342.2L736.318 341.96V338.72C736.598 338.8 736.998 338.84 737.518 338.84C738.718 338.84 739.678 338.36 740.398 337.4C741.118 336.48 741.758 334.68 742.318 332ZM766.128 304.76V301.46H770.028V293.6H773.928V301.46H780.228V304.76H773.928V324.5C773.928 327.5 775.188 329 777.708 329L779.928 328.82V332.24C779.008 332.48 777.968 332.6 776.808 332.6C774.688 332.6 773.028 331.96 771.828 330.68C770.628 329.4 770.028 327.52 770.028 325.04V304.76H766.128ZM787.758 309.8V323.66C787.758 325.3 788.178 326.6 789.018 327.56C789.898 328.52 791.018 329 792.378 329C793.738 329 794.838 328.52 795.678 327.56C796.558 326.6 796.998 325.3 796.998 323.66V309.8C796.998 308.16 796.558 306.86 795.678 305.9C794.838 304.94 793.738 304.46 792.378 304.46C791.018 304.46 789.898 304.94 789.018 305.9C788.178 306.86 787.758 308.16 787.758 309.8ZM783.858 323.84V309.8C783.858 307.16 784.678 305.02 786.318 303.38C787.958 301.7 789.998 300.86 792.438 300.86C794.838 300.86 796.838 301.68 798.438 303.32C800.078 304.92 800.898 307.02 800.898 309.62V323.66C800.898 326.26 800.058 328.4 798.378 330.08C796.738 331.76 794.718 332.6 792.318 332.6C789.918 332.6 787.898 331.8 786.258 330.2C784.658 328.6 783.858 326.48 783.858 323.84ZM815.991 304.76V301.46H819.891V293.6H823.791V301.46H830.091V304.76H823.791V324.5C823.791 327.5 825.051 329 827.571 329L829.791 328.82V332.24C828.871 332.48 827.831 332.6 826.671 332.6C824.551 332.6 822.891 331.96 821.691 330.68C820.491 329.4 819.891 327.52 819.891 325.04V304.76H815.991ZM846.12 300.86V305H845.28C843.36 305 841.84 305.6 840.72 306.8C839.64 307.96 839.1 309.7 839.1 312.02V332H835.2V301.46H838.56L838.8 305.18C840.2 302.3 842.64 300.86 846.12 300.86ZM852.439 322.4V323.72C852.439 325.4 852.879 326.76 853.759 327.8C854.639 328.8 855.799 329.3 857.239 329.3C858.679 329.3 859.839 328.8 860.719 327.8C861.599 326.76 862.039 325.4 862.039 323.72V322.4C862.039 320.72 861.599 319.38 860.719 318.38C859.839 317.34 858.679 316.82 857.239 316.82C855.799 316.82 854.639 317.34 853.759 318.38C852.879 319.38 852.439 320.72 852.439 322.4ZM848.539 323.9V322.52C848.539 319.92 849.279 317.8 850.759 316.16C852.239 314.48 854.099 313.64 856.339 313.64C858.739 313.64 860.639 314.6 862.039 316.52V309.32C862.039 307.8 861.619 306.58 860.779 305.66C859.979 304.74 858.959 304.28 857.719 304.28C856.479 304.28 855.439 304.74 854.599 305.66C853.799 306.58 853.399 307.8 853.399 309.32V310.58H849.679V309.5C849.679 306.94 850.459 304.86 852.019 303.26C853.579 301.66 855.499 300.86 857.779 300.86C860.099 300.86 862.039 301.64 863.599 303.2C865.159 304.76 865.939 306.8 865.939 309.32V332H862.759L862.459 329C861.019 331.4 858.919 332.6 856.159 332.6C853.919 332.6 852.079 331.82 850.639 330.26C849.239 328.66 848.539 326.54 848.539 323.9ZM876.132 309.68V332H872.232V301.46H875.592L875.772 304.4C877.132 302.04 879.232 300.86 882.072 300.86C884.112 300.86 885.772 301.58 887.052 303.02C888.372 304.46 889.032 306.44 889.032 308.96V332H885.132V309.68C885.132 308.04 884.732 306.76 883.932 305.84C883.172 304.92 882.132 304.46 880.812 304.46C879.452 304.46 878.332 304.92 877.452 305.84C876.572 306.76 876.132 308.04 876.132 309.68ZM907.078 309.56V308.72C907.078 307.4 906.658 306.34 905.818 305.54C905.018 304.7 903.998 304.28 902.758 304.28C901.518 304.28 900.478 304.68 899.638 305.48C898.838 306.28 898.438 307.32 898.438 308.6C898.438 309.84 898.838 310.92 899.638 311.84C900.438 312.72 901.798 313.64 903.718 314.6C906.158 315.76 907.978 317.1 909.178 318.62C910.378 320.14 910.978 322 910.978 324.2C910.978 326.64 910.158 328.66 908.518 330.26C906.878 331.82 904.858 332.6 902.458 332.6C900.058 332.6 898.058 331.84 896.458 330.32C894.898 328.8 894.118 326.78 894.118 324.26V323.3H897.838V324.2C897.838 325.72 898.258 326.92 899.098 327.8C899.978 328.68 901.098 329.12 902.458 329.12C903.818 329.12 904.918 328.68 905.758 327.8C906.638 326.92 907.078 325.74 907.078 324.26C907.078 322.9 906.638 321.72 905.758 320.72C904.878 319.68 903.318 318.62 901.078 317.54C896.718 315.38 894.538 312.4 894.538 308.6C894.538 306.36 895.318 304.52 896.878 303.08C898.478 301.6 900.438 300.86 902.758 300.86C905.078 300.86 906.998 301.6 908.518 303.08C910.038 304.52 910.798 306.38 910.798 308.66V309.56H907.078ZM914.253 304.76V301.46H918.153V296.96C918.153 294.48 918.753 292.6 919.953 291.32C921.153 290.04 922.813 289.4 924.933 289.4L928.053 289.76V293.12C927.253 293 926.513 292.94 925.833 292.94C923.313 292.94 922.053 294.44 922.053 297.44V301.46H928.053V304.76H922.053V332H918.153V304.76H914.253ZM934.946 309.8V323.66C934.946 325.3 935.366 326.6 936.206 327.56C937.086 328.52 938.206 329 939.566 329C940.926 329 942.026 328.52 942.866 327.56C943.746 326.6 944.186 325.3 944.186 323.66V309.8C944.186 308.16 943.746 306.86 942.866 305.9C942.026 304.94 940.926 304.46 939.566 304.46C938.206 304.46 937.086 304.94 936.206 305.9C935.366 306.86 934.946 308.16 934.946 309.8ZM931.046 323.84V309.8C931.046 307.16 931.866 305.02 933.506 303.38C935.146 301.7 937.186 300.86 939.626 300.86C942.026 300.86 944.026 301.68 945.626 303.32C947.266 304.92 948.086 307.02 948.086 309.62V323.66C948.086 326.26 947.246 328.4 945.566 330.08C943.926 331.76 941.906 332.6 939.506 332.6C937.106 332.6 935.086 331.8 933.446 330.2C931.846 328.6 931.046 326.48 931.046 323.84ZM965.007 300.86V305H964.167C962.247 305 960.727 305.6 959.607 306.8C958.527 307.96 957.987 309.7 957.987 312.02V332H954.087V301.46H957.447L957.687 305.18C959.087 302.3 961.527 300.86 965.007 300.86ZM973.397 309.68V332H969.497V301.46H972.857L973.037 304.34C974.357 302.02 976.397 300.86 979.157 300.86C982.077 300.86 984.097 302.24 985.217 305C986.497 302.24 988.657 300.86 991.697 300.86C993.697 300.86 995.317 301.58 996.557 303.02C997.837 304.46 998.477 306.44 998.477 308.96V332H994.577V309.68C994.577 308 994.217 306.72 993.497 305.84C992.777 304.92 991.757 304.46 990.437 304.46C989.117 304.46 988.037 304.9 987.197 305.78C986.357 306.66 985.937 307.88 985.937 309.44V332H982.037V309.68C982.037 308 981.677 306.72 980.957 305.84C980.237 304.92 979.217 304.46 977.897 304.46C976.577 304.46 975.497 304.92 974.657 305.84C973.817 306.76 973.397 308.04 973.397 309.68ZM1016.26 332V301.46H1020.28V332H1016.26ZM1016.26 290.84C1016.82 290.28 1017.48 290 1018.24 290C1019 290 1019.66 290.28 1020.22 290.84C1020.82 291.4 1021.12 292.08 1021.12 292.88C1021.12 293.64 1020.84 294.3 1020.28 294.86C1019.72 295.42 1019.04 295.7 1018.24 295.7C1017.48 295.7 1016.82 295.44 1016.26 294.92C1015.7 294.36 1015.42 293.68 1015.42 292.88C1015.42 292.08 1015.7 291.4 1016.26 290.84ZM1031.05 309.68V332H1027.15V301.46H1030.51L1030.69 304.4C1032.05 302.04 1034.15 300.86 1036.99 300.86C1039.03 300.86 1040.69 301.58 1041.97 303.02C1043.29 304.46 1043.95 306.44 1043.95 308.96V332H1040.05V309.68C1040.05 308.04 1039.65 306.76 1038.85 305.84C1038.09 304.92 1037.05 304.46 1035.73 304.46C1034.37 304.46 1033.25 304.92 1032.37 305.84C1031.49 306.76 1031.05 308.04 1031.05 309.68ZM1047.85 304.76V301.46H1051.75V293.6H1055.65V301.46H1061.95V304.76H1055.65V324.5C1055.65 327.5 1056.91 329 1059.43 329L1061.65 328.82V332.24C1060.73 332.48 1059.69 332.6 1058.53 332.6C1056.41 332.6 1054.75 331.96 1053.55 330.68C1052.35 329.4 1051.75 327.52 1051.75 325.04V304.76H1047.85ZM1069.48 309.8V323.66C1069.48 325.3 1069.9 326.6 1070.74 327.56C1071.62 328.52 1072.74 329 1074.1 329C1075.46 329 1076.56 328.52 1077.4 327.56C1078.28 326.6 1078.72 325.3 1078.72 323.66V309.8C1078.72 308.16 1078.28 306.86 1077.4 305.9C1076.56 304.94 1075.46 304.46 1074.1 304.46C1072.74 304.46 1071.62 304.94 1070.74 305.9C1069.9 306.86 1069.48 308.16 1069.48 309.8ZM1065.58 323.84V309.8C1065.58 307.16 1066.4 305.02 1068.04 303.38C1069.68 301.7 1071.72 300.86 1074.16 300.86C1076.56 300.86 1078.56 301.68 1080.16 303.32C1081.8 304.92 1082.62 307.02 1082.62 309.62V323.66C1082.62 326.26 1081.78 328.4 1080.1 330.08C1078.46 331.76 1076.44 332.6 1074.04 332.6C1071.64 332.6 1069.62 331.8 1067.98 330.2C1066.38 328.6 1065.58 326.48 1065.58 323.84ZM125.487 378.68V401H121.587V370.46H124.947L125.127 373.34C126.447 371.02 128.487 369.86 131.247 369.86C134.167 369.86 136.187 371.24 137.307 374C138.587 371.24 140.747 369.86 143.787 369.86C145.787 369.86 147.407 370.58 148.647 372.02C149.927 373.46 150.567 375.44 150.567 377.96V401H146.667V378.68C146.667 377 146.307 375.72 145.587 374.84C144.867 373.92 143.847 373.46 142.527 373.46C141.207 373.46 140.127 373.9 139.287 374.78C138.447 375.66 138.027 376.88 138.027 378.44V401H134.127V378.68C134.127 377 133.767 375.72 133.047 374.84C132.327 373.92 131.307 373.46 129.987 373.46C128.667 373.46 127.587 373.92 126.747 374.84C125.907 375.76 125.487 377.04 125.487 378.68ZM160.161 378.8V392.66C160.161 394.3 160.581 395.6 161.421 396.56C162.301 397.52 163.421 398 164.781 398C166.141 398 167.241 397.52 168.081 396.56C168.961 395.6 169.401 394.3 169.401 392.66V378.8C169.401 377.16 168.961 375.86 168.081 374.9C167.241 373.94 166.141 373.46 164.781 373.46C163.421 373.46 162.301 373.94 161.421 374.9C160.581 375.86 160.161 377.16 160.161 378.8ZM156.261 392.84V378.8C156.261 376.16 157.081 374.02 158.721 372.38C160.361 370.7 162.401 369.86 164.841 369.86C167.241 369.86 169.241 370.68 170.841 372.32C172.481 373.92 173.301 376.02 173.301 378.62V392.66C173.301 395.26 172.461 397.4 170.781 399.08C169.141 400.76 167.121 401.6 164.721 401.6C162.321 401.6 160.301 400.8 158.661 399.2C157.061 397.6 156.261 395.48 156.261 392.84ZM183.202 378.68V401H179.302V370.46H182.662L182.842 373.4C184.202 371.04 186.302 369.86 189.142 369.86C191.182 369.86 192.842 370.58 194.122 372.02C195.442 373.46 196.102 375.44 196.102 377.96V401H192.202V378.68C192.202 377.04 191.802 375.76 191.002 374.84C190.242 373.92 189.202 373.46 187.882 373.46C186.522 373.46 185.402 373.92 184.522 374.84C183.642 375.76 183.202 377.04 183.202 378.68ZM202.388 401V359H206.288V383.78L214.628 370.46H219.188L209.948 384.26L219.788 401H215.168L206.288 385.34V401H202.388ZM234.89 378.56V377.72C234.89 376.4 234.47 375.34 233.63 374.54C232.83 373.7 231.81 373.28 230.57 373.28C229.33 373.28 228.29 373.68 227.45 374.48C226.65 375.28 226.25 376.32 226.25 377.6C226.25 378.84 226.65 379.92 227.45 380.84C228.25 381.72 229.61 382.64 231.53 383.6C233.97 384.76 235.79 386.1 236.99 387.62C238.19 389.14 238.79 391 238.79 393.2C238.79 395.64 237.97 397.66 236.33 399.26C234.69 400.82 232.67 401.6 230.27 401.6C227.87 401.6 225.87 400.84 224.27 399.32C222.71 397.8 221.93 395.78 221.93 393.26V392.3H225.65V393.2C225.65 394.72 226.07 395.92 226.91 396.8C227.79 397.68 228.91 398.12 230.27 398.12C231.63 398.12 232.73 397.68 233.57 396.8C234.45 395.92 234.89 394.74 234.89 393.26C234.89 391.9 234.45 390.72 233.57 389.72C232.69 388.68 231.13 387.62 228.89 386.54C224.53 384.38 222.35 381.4 222.35 377.6C222.35 375.36 223.13 373.52 224.69 372.08C226.29 370.6 228.25 369.86 230.57 369.86C232.89 369.86 234.81 370.6 236.33 372.08C237.85 373.52 238.61 375.38 238.61 377.66V378.56H234.89ZM246.505 408.8H243.265L243.625 395H248.005L246.505 408.8ZM268.567 401L262.207 370.46H266.287L270.427 393.26L274.627 370.46H277.327L281.527 393.26L285.607 370.46H289.507L283.087 401H279.727L275.827 379.46L271.927 401H268.567ZM296.684 378.8V392.66C296.684 394.3 297.104 395.6 297.944 396.56C298.824 397.52 299.944 398 301.304 398C302.664 398 303.764 397.52 304.604 396.56C305.484 395.6 305.924 394.3 305.924 392.66V378.8C305.924 377.16 305.484 375.86 304.604 374.9C303.764 373.94 302.664 373.46 301.304 373.46C299.944 373.46 298.824 373.94 297.944 374.9C297.104 375.86 296.684 377.16 296.684 378.8ZM292.784 392.84V378.8C292.784 376.16 293.604 374.02 295.244 372.38C296.884 370.7 298.924 369.86 301.364 369.86C303.764 369.86 305.764 370.68 307.364 372.32C309.004 373.92 309.824 376.02 309.824 378.62V392.66C309.824 395.26 308.984 397.4 307.304 399.08C305.664 400.76 303.644 401.6 301.244 401.6C298.844 401.6 296.824 400.8 295.184 399.2C293.584 397.6 292.784 395.48 292.784 392.84ZM319.725 378.68V401H315.825V370.46H319.185L319.365 373.34C320.685 371.02 322.725 369.86 325.485 369.86C328.405 369.86 330.425 371.24 331.545 374C332.825 371.24 334.985 369.86 338.025 369.86C340.025 369.86 341.645 370.58 342.885 372.02C344.165 373.46 344.805 375.44 344.805 377.96V401H340.905V378.68C340.905 377 340.545 375.72 339.825 374.84C339.105 373.92 338.085 373.46 336.765 373.46C335.445 373.46 334.365 373.9 333.525 374.78C332.685 375.66 332.265 376.88 332.265 378.44V401H328.365V378.68C328.365 377 328.005 375.72 327.285 374.84C326.565 373.92 325.545 373.46 324.225 373.46C322.905 373.46 321.825 373.92 320.985 374.84C320.145 375.76 319.725 377.04 319.725 378.68ZM354.399 378.56V382.7H363.639V378.56C363.639 376.92 363.199 375.62 362.319 374.66C361.479 373.7 360.379 373.22 359.019 373.22C357.659 373.22 356.539 373.7 355.659 374.66C354.819 375.62 354.399 376.92 354.399 378.56ZM363.639 392.66V391.1H367.299V392.72C367.299 395.36 366.479 397.5 364.839 399.14C363.239 400.78 361.239 401.6 358.839 401.6C356.439 401.6 354.439 400.8 352.839 399.2C351.279 397.6 350.499 395.5 350.499 392.9V378.68C350.499 376.08 351.319 373.96 352.959 372.32C354.599 370.68 356.619 369.86 359.019 369.86C361.419 369.86 363.399 370.66 364.959 372.26C366.519 373.82 367.299 375.92 367.299 378.56V385.52H354.399V392.66C354.399 394.3 354.819 395.6 355.659 396.56C356.539 397.52 357.659 398 359.019 398C360.379 398 361.479 397.52 362.319 396.56C363.199 395.6 363.639 394.3 363.639 392.66ZM377.206 378.68V401H373.306V370.46H376.666L376.846 373.4C378.206 371.04 380.306 369.86 383.146 369.86C385.186 369.86 386.846 370.58 388.126 372.02C389.446 373.46 390.106 375.44 390.106 377.96V401H386.206V378.68C386.206 377.04 385.806 375.76 385.006 374.84C384.246 373.92 383.206 373.46 381.886 373.46C380.526 373.46 379.406 373.92 378.526 374.84C377.646 375.76 377.206 377.04 377.206 378.68ZM398.732 408.8H395.492L395.852 395H400.232L398.732 408.8ZM415.034 373.76V370.46H418.934V362.6H422.834V370.46H429.134V373.76H422.834V393.5C422.834 396.5 424.094 398 426.614 398L428.834 397.82V401.24C427.914 401.48 426.874 401.6 425.714 401.6C423.594 401.6 421.934 400.96 420.734 399.68C419.534 398.4 418.934 396.52 418.934 394.04V373.76H415.034ZM436.664 378.56V382.7H445.904V378.56C445.904 376.92 445.464 375.62 444.584 374.66C443.744 373.7 442.644 373.22 441.284 373.22C439.924 373.22 438.804 373.7 437.924 374.66C437.084 375.62 436.664 376.92 436.664 378.56ZM445.904 392.66V391.1H449.564V392.72C449.564 395.36 448.744 397.5 447.104 399.14C445.504 400.78 443.504 401.6 441.104 401.6C438.704 401.6 436.704 400.8 435.104 399.2C433.544 397.6 432.764 395.5 432.764 392.9V378.68C432.764 376.08 433.584 373.96 435.224 372.32C436.864 370.68 438.884 369.86 441.284 369.86C443.684 369.86 445.664 370.66 447.224 372.26C448.784 373.82 449.564 375.92 449.564 378.56V385.52H436.664V392.66C436.664 394.3 437.084 395.6 437.924 396.56C438.804 397.52 439.924 398 441.284 398C442.644 398 443.744 397.52 444.584 396.56C445.464 395.6 445.904 394.3 445.904 392.66ZM458.571 391.4V392.72C458.571 394.4 459.011 395.76 459.891 396.8C460.771 397.8 461.931 398.3 463.371 398.3C464.811 398.3 465.971 397.8 466.851 396.8C467.731 395.76 468.171 394.4 468.171 392.72V391.4C468.171 389.72 467.731 388.38 466.851 387.38C465.971 386.34 464.811 385.82 463.371 385.82C461.931 385.82 460.771 386.34 459.891 387.38C459.011 388.38 458.571 389.72 458.571 391.4ZM454.671 392.9V391.52C454.671 388.92 455.411 386.8 456.891 385.16C458.371 383.48 460.231 382.64 462.471 382.64C464.871 382.64 466.771 383.6 468.171 385.52V378.32C468.171 376.8 467.751 375.58 466.911 374.66C466.111 373.74 465.091 373.28 463.851 373.28C462.611 373.28 461.571 373.74 460.731 374.66C459.931 375.58 459.531 376.8 459.531 378.32V379.58H455.811V378.5C455.811 375.94 456.591 373.86 458.151 372.26C459.711 370.66 461.631 369.86 463.911 369.86C466.231 369.86 468.171 370.64 469.731 372.2C471.291 373.76 472.071 375.8 472.071 378.32V401H468.891L468.591 398C467.151 400.4 465.051 401.6 462.291 401.6C460.051 401.6 458.211 400.82 456.771 399.26C455.371 397.66 454.671 395.54 454.671 392.9ZM491.504 392.66V378.8C491.504 377.16 491.064 375.86 490.184 374.9C489.344 373.94 488.244 373.46 486.884 373.46C485.524 373.46 484.404 373.94 483.524 374.9C482.684 375.86 482.264 377.16 482.264 378.8V392.66C482.264 394.3 482.684 395.6 483.524 396.56C484.404 397.52 485.524 398 486.884 398C488.244 398 489.344 397.52 490.184 396.56C491.064 395.6 491.504 394.3 491.504 392.66ZM478.364 410.6V370.46H481.724L481.904 373.22C483.264 370.98 485.284 369.86 487.964 369.86C490.164 369.86 491.944 370.6 493.304 372.08C494.704 373.56 495.404 375.52 495.404 377.96V393.32C495.404 395.76 494.684 397.76 493.244 399.32C491.804 400.84 490.004 401.6 487.844 401.6C485.444 401.6 483.584 400.72 482.264 398.96V410.6H478.364ZM504.692 378.8V392.66C504.692 394.3 505.112 395.6 505.952 396.56C506.832 397.52 507.952 398 509.312 398C510.672 398 511.772 397.52 512.612 396.56C513.492 395.6 513.932 394.3 513.932 392.66V378.8C513.932 377.16 513.492 375.86 512.612 374.9C511.772 373.94 510.672 373.46 509.312 373.46C507.952 373.46 506.832 373.94 505.952 374.9C505.112 375.86 504.692 377.16 504.692 378.8ZM500.792 392.84V378.8C500.792 376.16 501.612 374.02 503.252 372.38C504.892 370.7 506.932 369.86 509.372 369.86C511.772 369.86 513.772 370.68 515.372 372.32C517.012 373.92 517.832 376.02 517.832 378.62V392.66C517.832 395.26 516.992 397.4 515.312 399.08C513.672 400.76 511.652 401.6 509.252 401.6C506.852 401.6 504.832 400.8 503.192 399.2C501.592 397.6 500.792 395.48 500.792 392.84ZM521.44 373.76V370.46H525.34V362.6H529.24V370.46H535.54V373.76H529.24V393.5C529.24 396.5 530.5 398 533.02 398L535.24 397.82V401.24C534.32 401.48 533.28 401.6 532.12 401.6C530 401.6 528.34 400.96 527.14 399.68C525.94 398.4 525.34 396.52 525.34 394.04V373.76H521.44ZM551.824 378.56V377.72C551.824 376.4 551.404 375.34 550.564 374.54C549.764 373.7 548.744 373.28 547.504 373.28C546.264 373.28 545.224 373.68 544.384 374.48C543.584 375.28 543.184 376.32 543.184 377.6C543.184 378.84 543.584 379.92 544.384 380.84C545.184 381.72 546.544 382.64 548.464 383.6C550.904 384.76 552.724 386.1 553.924 387.62C555.124 389.14 555.724 391 555.724 393.2C555.724 395.64 554.904 397.66 553.264 399.26C551.624 400.82 549.604 401.6 547.204 401.6C544.804 401.6 542.804 400.84 541.204 399.32C539.644 397.8 538.864 395.78 538.864 393.26V392.3H542.584V393.2C542.584 394.72 543.004 395.92 543.844 396.8C544.724 397.68 545.844 398.12 547.204 398.12C548.564 398.12 549.664 397.68 550.504 396.8C551.384 395.92 551.824 394.74 551.824 393.26C551.824 391.9 551.384 390.72 550.504 389.72C549.624 388.68 548.064 387.62 545.824 386.54C541.464 384.38 539.284 381.4 539.284 377.6C539.284 375.36 540.064 373.52 541.624 372.08C543.224 370.6 545.184 369.86 547.504 369.86C549.824 369.86 551.744 370.6 553.264 372.08C554.784 373.52 555.544 375.38 555.544 377.66V378.56H551.824ZM563.439 408.8H560.199L560.559 395H564.939L563.439 408.8ZM585.141 378.56V382.7H594.381V378.56C594.381 376.92 593.941 375.62 593.061 374.66C592.221 373.7 591.121 373.22 589.761 373.22C588.401 373.22 587.281 373.7 586.401 374.66C585.561 375.62 585.141 376.92 585.141 378.56ZM594.381 392.66V391.1H598.041V392.72C598.041 395.36 597.221 397.5 595.581 399.14C593.981 400.78 591.981 401.6 589.581 401.6C587.181 401.6 585.181 400.8 583.581 399.2C582.021 397.6 581.241 395.5 581.241 392.9V378.68C581.241 376.08 582.061 373.96 583.701 372.32C585.341 370.68 587.361 369.86 589.761 369.86C592.161 369.86 594.141 370.66 595.701 372.26C597.261 373.82 598.041 375.92 598.041 378.56V385.52H585.141V392.66C585.141 394.3 585.561 395.6 586.401 396.56C587.281 397.52 588.401 398 589.761 398C591.121 398 592.221 397.52 593.061 396.56C593.941 395.6 594.381 394.3 594.381 392.66ZM608.548 401L601.348 370.46H605.488L610.468 394.22L615.448 370.46H619.348L612.148 401H608.548ZM626.567 378.56V382.7H635.807V378.56C635.807 376.92 635.367 375.62 634.487 374.66C633.647 373.7 632.547 373.22 631.187 373.22C629.827 373.22 628.707 373.7 627.827 374.66C626.987 375.62 626.567 376.92 626.567 378.56ZM635.807 392.66V391.1H639.467V392.72C639.467 395.36 638.647 397.5 637.007 399.14C635.407 400.78 633.407 401.6 631.007 401.6C628.607 401.6 626.607 400.8 625.007 399.2C623.447 397.6 622.667 395.5 622.667 392.9V378.68C622.667 376.08 623.487 373.96 625.127 372.32C626.767 370.68 628.787 369.86 631.187 369.86C633.587 369.86 635.567 370.66 637.127 372.26C638.687 373.82 639.467 375.92 639.467 378.56V385.52H626.567V392.66C626.567 394.3 626.987 395.6 627.827 396.56C628.707 397.52 629.827 398 631.187 398C632.547 398 633.647 397.52 634.487 396.56C635.367 395.6 635.807 394.3 635.807 392.66ZM649.374 378.68V401H645.474V370.46H648.834L649.014 373.4C650.374 371.04 652.474 369.86 655.314 369.86C657.354 369.86 659.014 370.58 660.294 372.02C661.614 373.46 662.274 375.44 662.274 377.96V401H658.374V378.68C658.374 377.04 657.974 375.76 657.174 374.84C656.414 373.92 655.374 373.46 654.054 373.46C652.694 373.46 651.574 373.92 650.694 374.84C649.814 375.76 649.374 377.04 649.374 378.68ZM683.651 378.68V401H679.751V370.46H683.111L683.291 373.34C684.611 371.02 686.651 369.86 689.411 369.86C692.331 369.86 694.351 371.24 695.471 374C696.751 371.24 698.911 369.86 701.951 369.86C703.951 369.86 705.571 370.58 706.811 372.02C708.091 373.46 708.731 375.44 708.731 377.96V401H704.831V378.68C704.831 377 704.471 375.72 703.751 374.84C703.031 373.92 702.011 373.46 700.691 373.46C699.371 373.46 698.291 373.9 697.451 374.78C696.611 375.66 696.191 376.88 696.191 378.44V401H692.291V378.68C692.291 377 691.931 375.72 691.211 374.84C690.491 373.92 689.471 373.46 688.151 373.46C686.831 373.46 685.751 373.92 684.911 374.84C684.071 375.76 683.651 377.04 683.651 378.68ZM718.325 378.8V392.66C718.325 394.3 718.745 395.6 719.585 396.56C720.465 397.52 721.585 398 722.945 398C724.305 398 725.405 397.52 726.245 396.56C727.125 395.6 727.565 394.3 727.565 392.66V378.8C727.565 377.16 727.125 375.86 726.245 374.9C725.405 373.94 724.305 373.46 722.945 373.46C721.585 373.46 720.465 373.94 719.585 374.9C718.745 375.86 718.325 377.16 718.325 378.8ZM714.425 392.84V378.8C714.425 376.16 715.245 374.02 716.885 372.38C718.525 370.7 720.565 369.86 723.005 369.86C725.405 369.86 727.405 370.68 729.005 372.32C730.645 373.92 731.465 376.02 731.465 378.62V392.66C731.465 395.26 730.625 397.4 728.945 399.08C727.305 400.76 725.285 401.6 722.885 401.6C720.485 401.6 718.465 400.8 716.825 399.2C715.225 397.6 714.425 395.48 714.425 392.84ZM740.766 378.8V392.66C740.766 394.3 741.186 395.6 742.026 396.56C742.906 397.52 744.026 398 745.386 398C746.746 398 747.846 397.52 748.686 396.56C749.566 395.6 750.006 394.3 750.006 392.66V378.8C750.006 377.16 749.566 375.86 748.686 374.9C747.846 373.94 746.746 373.46 745.386 373.46C744.026 373.46 742.906 373.94 742.026 374.9C741.186 375.86 740.766 377.16 740.766 378.8ZM736.866 392.84V378.8C736.866 376.16 737.686 374.02 739.326 372.38C740.966 370.7 743.006 369.86 745.446 369.86C747.846 369.86 749.846 370.68 751.446 372.32C753.086 373.92 753.906 376.02 753.906 378.62V392.66C753.906 395.26 753.066 397.4 751.386 399.08C749.746 400.76 747.726 401.6 745.326 401.6C742.926 401.6 740.906 400.8 739.266 399.2C737.666 397.6 736.866 395.48 736.866 392.84ZM763.807 378.68V401H759.907V370.46H763.267L763.447 373.4C764.807 371.04 766.907 369.86 769.747 369.86C771.787 369.86 773.447 370.58 774.727 372.02C776.047 373.46 776.707 375.44 776.707 377.96V401H772.807V378.68C772.807 377.04 772.407 375.76 771.607 374.84C770.847 373.92 769.807 373.46 768.487 373.46C767.127 373.46 766.007 373.92 765.127 374.84C764.247 375.76 763.807 377.04 763.807 378.68ZM794.753 378.56V377.72C794.753 376.4 794.333 375.34 793.493 374.54C792.693 373.7 791.673 373.28 790.433 373.28C789.193 373.28 788.153 373.68 787.313 374.48C786.513 375.28 786.113 376.32 786.113 377.6C786.113 378.84 786.513 379.92 787.313 380.84C788.113 381.72 789.473 382.64 791.393 383.6C793.833 384.76 795.653 386.1 796.853 387.62C798.053 389.14 798.653 391 798.653 393.2C798.653 395.64 797.833 397.66 796.193 399.26C794.553 400.82 792.533 401.6 790.133 401.6C787.733 401.6 785.733 400.84 784.133 399.32C782.573 397.8 781.793 395.78 781.793 393.26V392.3H785.513V393.2C785.513 394.72 785.933 395.92 786.773 396.8C787.653 397.68 788.773 398.12 790.133 398.12C791.493 398.12 792.593 397.68 793.433 396.8C794.313 395.92 794.753 394.74 794.753 393.26C794.753 391.9 794.313 390.72 793.433 389.72C792.553 388.68 790.993 387.62 788.753 386.54C784.393 384.38 782.213 381.4 782.213 377.6C782.213 375.36 782.993 373.52 784.553 372.08C786.153 370.6 788.113 369.86 790.433 369.86C792.753 369.86 794.673 370.6 796.193 372.08C797.713 373.52 798.473 375.38 798.473 377.66V378.56H794.753ZM841.32 381.38H813.72V377.84H841.32V381.38ZM860.883 378.8V392.66C860.883 394.3 861.303 395.6 862.143 396.56C863.023 397.52 864.143 398 865.503 398C866.863 398 867.963 397.52 868.803 396.56C869.683 395.6 870.123 394.3 870.123 392.66V378.8C870.123 377.16 869.683 375.86 868.803 374.9C867.963 373.94 866.863 373.46 865.503 373.46C864.143 373.46 863.023 373.94 862.143 374.9C861.303 375.86 860.883 377.16 860.883 378.8ZM856.983 392.84V378.8C856.983 376.16 857.803 374.02 859.443 372.38C861.083 370.7 863.123 369.86 865.563 369.86C867.963 369.86 869.963 370.68 871.563 372.32C873.203 373.92 874.023 376.02 874.023 378.62V392.66C874.023 395.26 873.183 397.4 871.503 399.08C869.863 400.76 867.843 401.6 865.443 401.6C863.043 401.6 861.023 400.8 859.383 399.2C857.783 397.6 856.983 395.48 856.983 392.84ZM905.052 397.82V401.24C904.132 401.48 903.092 401.6 901.932 401.6C899.812 401.6 898.152 400.96 896.952 399.68C895.752 398.4 895.152 396.52 895.152 394.04V362.6H899.052V370.46H905.352V373.76H899.052V393.5C899.052 396.5 900.332 398 902.892 398L905.052 397.82ZM877.632 373.76V370.46H881.532V365.96C881.532 363.48 882.132 361.6 883.332 360.32C884.532 359.04 886.192 358.4 888.312 358.4L891.432 358.76V362.12C890.632 362 889.892 361.94 889.212 361.94C886.692 361.94 885.432 363.44 885.432 366.44V370.46H891.432V373.76H885.432V401H881.532V373.76H877.632ZM913.735 378.56V382.7H922.975V378.56C922.975 376.92 922.535 375.62 921.655 374.66C920.815 373.7 919.715 373.22 918.355 373.22C916.995 373.22 915.875 373.7 914.995 374.66C914.155 375.62 913.735 376.92 913.735 378.56ZM922.975 392.66V391.1H926.635V392.72C926.635 395.36 925.815 397.5 924.175 399.14C922.575 400.78 920.575 401.6 918.175 401.6C915.775 401.6 913.775 400.8 912.175 399.2C910.615 397.6 909.835 395.5 909.835 392.9V378.68C909.835 376.08 910.655 373.96 912.295 372.32C913.935 370.68 915.955 369.86 918.355 369.86C920.755 369.86 922.735 370.66 924.295 372.26C925.855 373.82 926.635 375.92 926.635 378.56V385.52H913.735V392.66C913.735 394.3 914.155 395.6 914.995 396.56C915.875 397.52 916.995 398 918.355 398C919.715 398 920.815 397.52 921.655 396.56C922.535 395.6 922.975 394.3 922.975 392.66ZM936.542 378.68V401H932.642V370.46H936.002L936.182 373.4C937.542 371.04 939.642 369.86 942.482 369.86C944.522 369.86 946.182 370.58 947.462 372.02C948.782 373.46 949.442 375.44 949.442 377.96V401H945.542V378.68C945.542 377.04 945.142 375.76 944.342 374.84C943.582 373.92 942.542 373.46 941.222 373.46C939.862 373.46 938.742 373.92 937.862 374.84C936.982 375.76 936.542 377.04 936.542 378.68ZM964.819 373.76V370.46H968.719V362.6H972.619V370.46H978.919V373.76H972.619V393.5C972.619 396.5 973.879 398 976.399 398L978.619 397.82V401.24C977.699 401.48 976.659 401.6 975.499 401.6C973.379 401.6 971.719 400.96 970.519 399.68C969.319 398.4 968.719 396.52 968.719 394.04V373.76H964.819ZM986.45 378.8V392.66C986.45 394.3 986.87 395.6 987.71 396.56C988.59 397.52 989.71 398 991.07 398C992.43 398 993.53 397.52 994.37 396.56C995.25 395.6 995.69 394.3 995.69 392.66V378.8C995.69 377.16 995.25 375.86 994.37 374.9C993.53 373.94 992.43 373.46 991.07 373.46C989.71 373.46 988.59 373.94 987.71 374.9C986.87 375.86 986.45 377.16 986.45 378.8ZM982.55 392.84V378.8C982.55 376.16 983.37 374.02 985.01 372.38C986.65 370.7 988.69 369.86 991.13 369.86C993.53 369.86 995.53 370.68 997.13 372.32C998.77 373.92 999.59 376.02 999.59 378.62V392.66C999.59 395.26 998.75 397.4 997.07 399.08C995.43 400.76 993.41 401.6 991.01 401.6C988.61 401.6 986.59 400.8 984.95 399.2C983.35 397.6 982.55 395.48 982.55 392.84ZM1029.92 392.66V378.8C1029.92 377.16 1029.48 375.86 1028.6 374.9C1027.76 373.94 1026.66 373.46 1025.3 373.46C1023.94 373.46 1022.82 373.94 1021.94 374.9C1021.1 375.86 1020.68 377.16 1020.68 378.8V392.66C1020.68 394.3 1021.1 395.6 1021.94 396.56C1022.82 397.52 1023.94 398 1025.3 398C1026.66 398 1027.76 397.52 1028.6 396.56C1029.48 395.6 1029.92 394.3 1029.92 392.66ZM1016.78 410.6V370.46H1020.14L1020.32 373.22C1021.68 370.98 1023.7 369.86 1026.38 369.86C1028.58 369.86 1030.36 370.6 1031.72 372.08C1033.12 373.56 1033.82 375.52 1033.82 377.96V393.32C1033.82 395.76 1033.1 397.76 1031.66 399.32C1030.22 400.84 1028.42 401.6 1026.26 401.6C1023.86 401.6 1022 400.72 1020.68 398.96V410.6H1016.78ZM1040.11 401V359H1044.13V401H1040.11ZM1054 391.4V392.72C1054 394.4 1054.44 395.76 1055.32 396.8C1056.2 397.8 1057.36 398.3 1058.8 398.3C1060.24 398.3 1061.4 397.8 1062.28 396.8C1063.16 395.76 1063.6 394.4 1063.6 392.72V391.4C1063.6 389.72 1063.16 388.38 1062.28 387.38C1061.4 386.34 1060.24 385.82 1058.8 385.82C1057.36 385.82 1056.2 386.34 1055.32 387.38C1054.44 388.38 1054 389.72 1054 391.4ZM1050.1 392.9V391.52C1050.1 388.92 1050.84 386.8 1052.32 385.16C1053.8 383.48 1055.66 382.64 1057.9 382.64C1060.3 382.64 1062.2 383.6 1063.6 385.52V378.32C1063.6 376.8 1063.18 375.58 1062.34 374.66C1061.54 373.74 1060.52 373.28 1059.28 373.28C1058.04 373.28 1057 373.74 1056.16 374.66C1055.36 375.58 1054.96 376.8 1054.96 378.32V379.58H1051.24V378.5C1051.24 375.94 1052.02 373.86 1053.58 372.26C1055.14 370.66 1057.06 369.86 1059.34 369.86C1061.66 369.86 1063.6 370.64 1065.16 372.2C1066.72 373.76 1067.5 375.8 1067.5 378.32V401H1064.32L1064.02 398C1062.58 400.4 1060.48 401.6 1057.72 401.6C1055.48 401.6 1053.64 400.82 1052.2 399.26C1050.8 397.66 1050.1 395.54 1050.1 392.9ZM1078.29 401L1071.09 370.46H1075.23L1080.21 394.94L1085.19 370.46H1089.09L1081.65 401.9C1080.85 405.3 1079.83 407.7 1078.59 409.1C1077.35 410.5 1075.87 411.2 1074.15 411.2L1072.29 410.96V407.72C1072.57 407.8 1072.97 407.84 1073.49 407.84C1074.69 407.84 1075.65 407.36 1076.37 406.4C1077.09 405.48 1077.73 403.68 1078.29 401ZM221.825 470H217.925V447.68C217.925 446.04 217.525 444.76 216.725 443.84C215.965 442.92 214.925 442.46 213.605 442.46C212.245 442.46 211.125 442.9 210.245 443.78C209.365 444.66 208.925 445.86 208.925 447.38V470H205.025V428H208.925V442.1C210.285 439.94 212.265 438.86 214.865 438.86C216.905 438.86 218.565 439.58 219.845 441.02C221.165 442.46 221.825 444.44 221.825 446.96V470ZM231.111 460.4V461.72C231.111 463.4 231.551 464.76 232.431 465.8C233.311 466.8 234.471 467.3 235.911 467.3C237.351 467.3 238.511 466.8 239.391 465.8C240.271 464.76 240.711 463.4 240.711 461.72V460.4C240.711 458.72 240.271 457.38 239.391 456.38C238.511 455.34 237.351 454.82 235.911 454.82C234.471 454.82 233.311 455.34 232.431 456.38C231.551 457.38 231.111 458.72 231.111 460.4ZM227.211 461.9V460.52C227.211 457.92 227.951 455.8 229.431 454.16C230.911 452.48 232.771 451.64 235.011 451.64C237.411 451.64 239.311 452.6 240.711 454.52V447.32C240.711 445.8 240.291 444.58 239.451 443.66C238.651 442.74 237.631 442.28 236.391 442.28C235.151 442.28 234.111 442.74 233.271 443.66C232.471 444.58 232.071 445.8 232.071 447.32V448.58H228.351V447.5C228.351 444.94 229.131 442.86 230.691 441.26C232.251 439.66 234.171 438.86 236.451 438.86C238.771 438.86 240.711 439.64 242.271 441.2C243.831 442.76 244.611 444.8 244.611 447.32V470H241.431L241.131 467C239.691 469.4 237.591 470.6 234.831 470.6C232.591 470.6 230.751 469.82 229.311 468.26C227.911 466.66 227.211 464.54 227.211 461.9ZM261.824 438.86V443H260.984C259.064 443 257.544 443.6 256.424 444.8C255.344 445.96 254.804 447.7 254.804 450.02V470H250.904V439.46H254.264L254.504 443.18C255.904 440.3 258.344 438.86 261.824 438.86ZM270.214 447.68V470H266.314V439.46H269.674L269.854 442.34C271.174 440.02 273.214 438.86 275.974 438.86C278.894 438.86 280.914 440.24 282.034 443C283.314 440.24 285.474 438.86 288.514 438.86C290.514 438.86 292.134 439.58 293.374 441.02C294.654 442.46 295.294 444.44 295.294 446.96V470H291.394V447.68C291.394 446 291.034 444.72 290.314 443.84C289.594 442.92 288.574 442.46 287.254 442.46C285.934 442.46 284.854 442.9 284.014 443.78C283.174 444.66 282.754 445.88 282.754 447.44V470H278.854V447.68C278.854 446 278.494 444.72 277.774 443.84C277.054 442.92 276.034 442.46 274.714 442.46C273.394 442.46 272.314 442.92 271.474 443.84C270.634 444.76 270.214 446.04 270.214 447.68ZM301.887 470V428H305.907V470H301.887ZM316.079 447.56V451.7H325.319V447.56C325.319 445.92 324.879 444.62 323.999 443.66C323.159 442.7 322.059 442.22 320.699 442.22C319.339 442.22 318.219 442.7 317.339 443.66C316.499 444.62 316.079 445.92 316.079 447.56ZM325.319 461.66V460.1H328.979V461.72C328.979 464.36 328.159 466.5 326.519 468.14C324.919 469.78 322.919 470.6 320.519 470.6C318.119 470.6 316.119 469.8 314.519 468.2C312.959 466.6 312.179 464.5 312.179 461.9V447.68C312.179 445.08 312.999 442.96 314.639 441.32C316.279 439.68 318.299 438.86 320.699 438.86C323.099 438.86 325.079 439.66 326.639 441.26C328.199 442.82 328.979 444.92 328.979 447.56V454.52H316.079V461.66C316.079 463.3 316.499 464.6 317.339 465.56C318.219 466.52 319.339 467 320.699 467C322.059 467 323.159 466.52 323.999 465.56C324.879 464.6 325.319 463.3 325.319 461.66ZM346.746 447.56V446.72C346.746 445.4 346.326 444.34 345.486 443.54C344.686 442.7 343.666 442.28 342.426 442.28C341.186 442.28 340.146 442.68 339.306 443.48C338.506 444.28 338.106 445.32 338.106 446.6C338.106 447.84 338.506 448.92 339.306 449.84C340.106 450.72 341.466 451.64 343.386 452.6C345.826 453.76 347.646 455.1 348.846 456.62C350.046 458.14 350.646 460 350.646 462.2C350.646 464.64 349.826 466.66 348.186 468.26C346.546 469.82 344.526 470.6 342.126 470.6C339.726 470.6 337.726 469.84 336.126 468.32C334.566 466.8 333.786 464.78 333.786 462.26V461.3H337.506V462.2C337.506 463.72 337.926 464.92 338.766 465.8C339.646 466.68 340.766 467.12 342.126 467.12C343.486 467.12 344.586 466.68 345.426 465.8C346.306 464.92 346.746 463.74 346.746 462.26C346.746 460.9 346.306 459.72 345.426 458.72C344.546 457.68 342.986 456.62 340.746 455.54C336.386 453.38 334.206 450.4 334.206 446.6C334.206 444.36 334.986 442.52 336.546 441.08C338.146 439.6 340.106 438.86 342.426 438.86C344.746 438.86 346.666 439.6 348.186 441.08C349.706 442.52 350.466 444.38 350.466 446.66V447.56H346.746ZM367.781 447.56V446.72C367.781 445.4 367.361 444.34 366.521 443.54C365.721 442.7 364.701 442.28 363.461 442.28C362.221 442.28 361.181 442.68 360.341 443.48C359.541 444.28 359.141 445.32 359.141 446.6C359.141 447.84 359.541 448.92 360.341 449.84C361.141 450.72 362.501 451.64 364.421 452.6C366.861 453.76 368.681 455.1 369.881 456.62C371.081 458.14 371.681 460 371.681 462.2C371.681 464.64 370.861 466.66 369.221 468.26C367.581 469.82 365.561 470.6 363.161 470.6C360.761 470.6 358.761 469.84 357.161 468.32C355.601 466.8 354.821 464.78 354.821 462.26V461.3H358.541V462.2C358.541 463.72 358.961 464.92 359.801 465.8C360.681 466.68 361.801 467.12 363.161 467.12C364.521 467.12 365.621 466.68 366.461 465.8C367.341 464.92 367.781 463.74 367.781 462.26C367.781 460.9 367.341 459.72 366.461 458.72C365.581 457.68 364.021 456.62 361.781 455.54C357.421 453.38 355.241 450.4 355.241 446.6C355.241 444.36 356.021 442.52 357.581 441.08C359.181 439.6 361.141 438.86 363.461 438.86C365.781 438.86 367.701 439.6 369.221 441.08C370.741 442.52 371.501 444.38 371.501 446.66V447.56H367.781ZM401.387 461.66V447.8C401.387 446.16 400.947 444.86 400.067 443.9C399.227 442.94 398.127 442.46 396.767 442.46C395.407 442.46 394.287 442.94 393.407 443.9C392.567 444.86 392.147 446.16 392.147 447.8V461.66C392.147 463.3 392.567 464.6 393.407 465.56C394.287 466.52 395.407 467 396.767 467C398.127 467 399.227 466.52 400.067 465.56C400.947 464.6 401.387 463.3 401.387 461.66ZM388.247 470V428H392.147V441.74C393.507 439.82 395.407 438.86 397.847 438.86C400.047 438.86 401.827 439.6 403.187 441.08C404.587 442.56 405.287 444.52 405.287 446.96V462.32C405.287 464.76 404.567 466.76 403.127 468.32C401.687 469.84 399.887 470.6 397.727 470.6C395.007 470.6 393.027 469.54 391.787 467.42L391.607 470H388.247ZM423.875 461.78V439.46H427.775V470H424.415L424.235 467.06C422.875 469.42 420.775 470.6 417.935 470.6C415.895 470.6 414.215 469.88 412.895 468.44C411.615 467 410.975 465.02 410.975 462.5V439.46H414.875V461.78C414.875 463.42 415.255 464.7 416.015 465.62C416.815 466.54 417.875 467 419.195 467C420.555 467 421.675 466.54 422.555 465.62C423.435 464.7 423.875 463.42 423.875 461.78ZM432.261 442.76V439.46H436.161V431.6H440.061V439.46H446.361V442.76H440.061V462.5C440.061 465.5 441.321 467 443.841 467L446.061 466.82V470.24C445.141 470.48 444.101 470.6 442.941 470.6C440.821 470.6 439.161 469.96 437.961 468.68C436.761 467.4 436.161 465.52 436.161 463.04V442.76H432.261ZM474.721 458.3H478.441V461.9C478.441 464.42 477.641 466.5 476.041 468.14C474.481 469.78 472.561 470.6 470.281 470.6C467.921 470.6 465.961 469.82 464.401 468.26C462.841 466.66 462.061 464.6 462.061 462.08V447.56C462.061 445 462.861 442.92 464.461 441.32C466.101 439.68 468.081 438.86 470.401 438.86C472.721 438.86 474.641 439.64 476.161 441.2C477.681 442.76 478.441 444.82 478.441 447.38V450.86H474.721V447.56C474.721 446 474.301 444.76 473.461 443.84C472.661 442.92 471.621 442.46 470.341 442.46C469.061 442.46 468.001 442.92 467.161 443.84C466.361 444.76 465.961 446 465.961 447.56V461.9C465.961 463.46 466.361 464.7 467.161 465.62C468.001 466.54 469.061 467 470.341 467C471.621 467 472.661 466.54 473.461 465.62C474.301 464.7 474.721 463.46 474.721 461.9V458.3ZM487.758 447.8V461.66C487.758 463.3 488.178 464.6 489.018 465.56C489.898 466.52 491.018 467 492.378 467C493.738 467 494.838 466.52 495.678 465.56C496.558 464.6 496.998 463.3 496.998 461.66V447.8C496.998 446.16 496.558 444.86 495.678 443.9C494.838 442.94 493.738 442.46 492.378 442.46C491.018 442.46 489.898 442.94 489.018 443.9C488.178 444.86 487.758 446.16 487.758 447.8ZM483.858 461.84V447.8C483.858 445.16 484.678 443.02 486.318 441.38C487.958 439.7 489.998 438.86 492.438 438.86C494.838 438.86 496.838 439.68 498.438 441.32C500.078 442.92 500.898 445.02 500.898 447.62V461.66C500.898 464.26 500.058 466.4 498.378 468.08C496.738 469.76 494.718 470.6 492.318 470.6C489.918 470.6 487.898 469.8 486.258 468.2C484.658 466.6 483.858 464.48 483.858 461.84ZM510.8 447.68V470H506.9V439.46H510.26L510.44 442.4C511.8 440.04 513.9 438.86 516.74 438.86C518.78 438.86 520.44 439.58 521.72 441.02C523.04 442.46 523.7 444.44 523.7 446.96V470H519.8V447.68C519.8 446.04 519.4 444.76 518.6 443.84C517.84 442.92 516.8 442.46 515.48 442.46C514.12 442.46 513 442.92 512.12 443.84C511.24 444.76 510.8 446.04 510.8 447.68ZM527.593 442.76V439.46H531.493V434.96C531.493 432.48 532.093 430.6 533.293 429.32C534.493 428.04 536.153 427.4 538.273 427.4L541.393 427.76V431.12C540.593 431 539.853 430.94 539.173 430.94C536.653 430.94 535.393 432.44 535.393 435.44V439.46H541.393V442.76H535.393V470H531.493V442.76H527.593ZM558.464 461.78V439.46H562.364V470H559.004L558.824 467.06C557.464 469.42 555.364 470.6 552.524 470.6C550.484 470.6 548.804 469.88 547.484 468.44C546.204 467 545.564 465.02 545.564 462.5V439.46H549.464V461.78C549.464 463.42 549.844 464.7 550.604 465.62C551.404 466.54 552.464 467 553.784 467C555.144 467 556.264 466.54 557.144 465.62C558.024 464.7 558.464 463.42 558.464 461.78ZM580.71 447.56V446.72C580.71 445.4 580.29 444.34 579.45 443.54C578.65 442.7 577.63 442.28 576.39 442.28C575.15 442.28 574.11 442.68 573.27 443.48C572.47 444.28 572.07 445.32 572.07 446.6C572.07 447.84 572.47 448.92 573.27 449.84C574.07 450.72 575.43 451.64 577.35 452.6C579.79 453.76 581.61 455.1 582.81 456.62C584.01 458.14 584.61 460 584.61 462.2C584.61 464.64 583.79 466.66 582.15 468.26C580.51 469.82 578.49 470.6 576.09 470.6C573.69 470.6 571.69 469.84 570.09 468.32C568.53 466.8 567.75 464.78 567.75 462.26V461.3H571.47V462.2C571.47 463.72 571.89 464.92 572.73 465.8C573.61 466.68 574.73 467.12 576.09 467.12C577.45 467.12 578.55 466.68 579.39 465.8C580.27 464.92 580.71 463.74 580.71 462.26C580.71 460.9 580.27 459.72 579.39 458.72C578.51 457.68 576.95 456.62 574.71 455.54C570.35 453.38 568.17 450.4 568.17 446.6C568.17 444.36 568.95 442.52 570.51 441.08C572.11 439.6 574.07 438.86 576.39 438.86C578.71 438.86 580.63 439.6 582.15 441.08C583.67 442.52 584.43 444.38 584.43 446.66V447.56H580.71ZM590.286 470V439.46H594.306V470H590.286ZM590.286 428.84C590.846 428.28 591.506 428 592.266 428C593.026 428 593.686 428.28 594.246 428.84C594.846 429.4 595.146 430.08 595.146 430.88C595.146 431.64 594.866 432.3 594.306 432.86C593.746 433.42 593.066 433.7 592.266 433.7C591.506 433.7 590.846 433.44 590.286 432.92C589.726 432.36 589.446 431.68 589.446 430.88C589.446 430.08 589.726 429.4 590.286 428.84ZM605.077 447.68V470H601.177V439.46H604.537L604.717 442.4C606.077 440.04 608.177 438.86 611.017 438.86C613.057 438.86 614.717 439.58 615.997 441.02C617.317 442.46 617.977 444.44 617.977 446.96V470H614.077V447.68C614.077 446.04 613.677 444.76 612.877 443.84C612.117 442.92 611.077 442.46 609.757 442.46C608.397 442.46 607.277 442.92 606.397 443.84C605.517 444.76 605.077 446.04 605.077 447.68ZM627.563 447.8V459.08C627.563 460.72 627.983 462.02 628.823 462.98C629.703 463.94 630.823 464.42 632.183 464.42C633.503 464.42 634.603 463.96 635.483 463.04C636.363 462.08 636.803 460.8 636.803 459.2V447.8C636.803 446.16 636.363 444.86 635.483 443.9C634.643 442.94 633.543 442.46 632.183 442.46C630.823 442.46 629.703 442.94 628.823 443.9C627.983 444.86 627.563 446.16 627.563 447.8ZM640.703 439.46V471.26C640.703 473.86 639.863 476 638.183 477.68C636.543 479.36 634.523 480.2 632.123 480.2C629.723 480.2 627.743 479.4 626.183 477.8C624.623 476.2 623.843 474.08 623.843 471.44V470.48H627.563V471.38C627.563 473.02 627.983 474.32 628.823 475.28C629.703 476.24 630.823 476.72 632.183 476.72C633.543 476.72 634.643 476.24 635.483 475.28C636.363 474.32 636.803 473.02 636.803 471.38V465.08C635.443 466.96 633.523 467.9 631.043 467.9C628.883 467.9 627.103 467.16 625.703 465.68C624.343 464.2 623.663 462.24 623.663 459.8V447.14C623.663 444.66 624.383 442.66 625.823 441.14C627.263 439.62 629.063 438.86 631.223 438.86C633.823 438.86 635.803 439.92 637.163 442.04L637.343 439.46H640.703ZM671.622 461.66V447.8C671.622 446.16 671.182 444.86 670.302 443.9C669.462 442.94 668.362 442.46 667.002 442.46C665.642 442.46 664.522 442.94 663.642 443.9C662.802 444.86 662.382 446.16 662.382 447.8V461.66C662.382 463.3 662.802 464.6 663.642 465.56C664.522 466.52 665.642 467 667.002 467C668.362 467 669.462 466.52 670.302 465.56C671.182 464.6 671.622 463.3 671.622 461.66ZM658.482 479.6V439.46H661.842L662.022 442.22C663.382 439.98 665.402 438.86 668.082 438.86C670.282 438.86 672.062 439.6 673.422 441.08C674.822 442.56 675.522 444.52 675.522 446.96V462.32C675.522 464.76 674.802 466.76 673.362 468.32C671.922 469.84 670.122 470.6 667.962 470.6C665.562 470.6 663.702 469.72 662.382 467.96V479.6H658.482ZM692.429 438.86V443H691.589C689.669 443 688.149 443.6 687.029 444.8C685.949 445.96 685.409 447.7 685.409 450.02V470H681.509V439.46H684.869L685.109 443.18C686.509 440.3 688.949 438.86 692.429 438.86ZM698.747 460.4V461.72C698.747 463.4 699.187 464.76 700.067 465.8C700.947 466.8 702.107 467.3 703.547 467.3C704.987 467.3 706.147 466.8 707.027 465.8C707.907 464.76 708.347 463.4 708.347 461.72V460.4C708.347 458.72 707.907 457.38 707.027 456.38C706.147 455.34 704.987 454.82 703.547 454.82C702.107 454.82 700.947 455.34 700.067 456.38C699.187 457.38 698.747 458.72 698.747 460.4ZM694.847 461.9V460.52C694.847 457.92 695.587 455.8 697.067 454.16C698.547 452.48 700.407 451.64 702.647 451.64C705.047 451.64 706.947 452.6 708.347 454.52V447.32C708.347 445.8 707.927 444.58 707.087 443.66C706.287 442.74 705.267 442.28 704.027 442.28C702.787 442.28 701.747 442.74 700.907 443.66C700.107 444.58 699.707 445.8 699.707 447.32V448.58H695.987V447.5C695.987 444.94 696.767 442.86 698.327 441.26C699.887 439.66 701.807 438.86 704.087 438.86C706.407 438.86 708.347 439.64 709.907 441.2C711.467 442.76 712.247 444.8 712.247 447.32V470H709.067L708.767 467C707.327 469.4 705.227 470.6 702.467 470.6C700.227 470.6 698.387 469.82 696.947 468.26C695.547 466.66 694.847 464.54 694.847 461.9ZM722.44 447.68V470H718.54V439.46H721.9L722.08 442.4C723.44 440.04 725.54 438.86 728.38 438.86C730.42 438.86 732.08 439.58 733.36 441.02C734.68 442.46 735.34 444.44 735.34 446.96V470H731.44V447.68C731.44 446.04 731.04 444.76 730.24 443.84C729.48 442.92 728.44 442.46 727.12 442.46C725.76 442.46 724.64 442.92 723.76 443.84C722.88 444.76 722.44 446.04 722.44 447.68ZM741.626 470V428H745.526V452.78L753.866 439.46H758.426L749.186 453.26L759.026 470H754.406L745.526 454.34V470H741.626ZM774.128 447.56V446.72C774.128 445.4 773.708 444.34 772.868 443.54C772.068 442.7 771.048 442.28 769.808 442.28C768.568 442.28 767.528 442.68 766.688 443.48C765.888 444.28 765.488 445.32 765.488 446.6C765.488 447.84 765.888 448.92 766.688 449.84C767.488 450.72 768.848 451.64 770.768 452.6C773.208 453.76 775.028 455.1 776.228 456.62C777.428 458.14 778.028 460 778.028 462.2C778.028 464.64 777.208 466.66 775.568 468.26C773.928 469.82 771.908 470.6 769.508 470.6C767.108 470.6 765.108 469.84 763.508 468.32C761.948 466.8 761.168 464.78 761.168 462.26V461.3H764.888V462.2C764.888 463.72 765.308 464.92 766.148 465.8C767.028 466.68 768.148 467.12 769.508 467.12C770.868 467.12 771.968 466.68 772.808 465.8C773.688 464.92 774.128 463.74 774.128 462.26C774.128 460.9 773.688 459.72 772.808 458.72C771.928 457.68 770.368 456.62 768.128 455.54C763.768 453.38 761.588 450.4 761.588 446.6C761.588 444.36 762.368 442.52 763.928 441.08C765.528 439.6 767.488 438.86 769.808 438.86C772.128 438.86 774.048 439.6 775.568 441.08C777.088 442.52 777.848 444.38 777.848 446.66V447.56H774.128ZM797.895 447.8V461.66C797.895 463.3 798.315 464.6 799.155 465.56C800.035 466.52 801.155 467 802.515 467C803.875 467 804.975 466.52 805.815 465.56C806.695 464.6 807.135 463.3 807.135 461.66V447.8C807.135 446.16 806.695 444.86 805.815 443.9C804.975 442.94 803.875 442.46 802.515 442.46C801.155 442.46 800.035 442.94 799.155 443.9C798.315 444.86 797.895 446.16 797.895 447.8ZM793.995 461.84V447.8C793.995 445.16 794.815 443.02 796.455 441.38C798.095 439.7 800.135 438.86 802.575 438.86C804.975 438.86 806.975 439.68 808.575 441.32C810.215 442.92 811.035 445.02 811.035 447.62V461.66C811.035 464.26 810.195 466.4 808.515 468.08C806.875 469.76 804.855 470.6 802.455 470.6C800.055 470.6 798.035 469.8 796.395 468.2C794.795 466.6 793.995 464.48 793.995 461.84ZM820.936 447.68V470H817.036V439.46H820.396L820.576 442.4C821.936 440.04 824.036 438.86 826.876 438.86C828.916 438.86 830.576 439.58 831.856 441.02C833.176 442.46 833.836 444.44 833.836 446.96V470H829.936V447.68C829.936 446.04 829.536 444.76 828.736 443.84C827.976 442.92 826.936 442.46 825.616 442.46C824.256 442.46 823.136 442.92 822.256 443.84C821.376 444.76 820.936 446.04 820.936 447.68ZM868.114 470H864.214V447.68C864.214 446.04 863.814 444.76 863.014 443.84C862.254 442.92 861.214 442.46 859.894 442.46C858.534 442.46 857.414 442.9 856.534 443.78C855.654 444.66 855.214 445.86 855.214 447.38V470H851.314V428H855.214V442.1C856.574 439.94 858.554 438.86 861.154 438.86C863.194 438.86 864.854 439.58 866.134 441.02C867.454 442.46 868.114 444.44 868.114 446.96V470ZM887 461.78V439.46H890.9V470H887.54L887.36 467.06C886 469.42 883.9 470.6 881.06 470.6C879.02 470.6 877.34 469.88 876.02 468.44C874.74 467 874.1 465.02 874.1 462.5V439.46H878V461.78C878 463.42 878.38 464.7 879.14 465.62C879.94 466.54 881 467 882.32 467C883.68 467 884.8 466.54 885.68 465.62C886.56 464.7 887 463.42 887 461.78ZM901.386 447.68V470H897.486V439.46H900.846L901.026 442.34C902.346 440.02 904.386 438.86 907.146 438.86C910.066 438.86 912.086 440.24 913.206 443C914.486 440.24 916.646 438.86 919.686 438.86C921.686 438.86 923.306 439.58 924.546 441.02C925.826 442.46 926.466 444.44 926.466 446.96V470H922.566V447.68C922.566 446 922.206 444.72 921.486 443.84C920.766 442.92 919.746 442.46 918.426 442.46C917.106 442.46 916.026 442.9 915.186 443.78C914.346 444.66 913.926 445.88 913.926 447.44V470H910.026V447.68C910.026 446 909.666 444.72 908.946 443.84C908.226 442.92 907.206 442.46 905.886 442.46C904.566 442.46 903.486 442.92 902.646 443.84C901.806 444.76 901.386 446.04 901.386 447.68ZM935.759 460.4V461.72C935.759 463.4 936.199 464.76 937.079 465.8C937.959 466.8 939.119 467.3 940.559 467.3C941.999 467.3 943.159 466.8 944.039 465.8C944.919 464.76 945.359 463.4 945.359 461.72V460.4C945.359 458.72 944.919 457.38 944.039 456.38C943.159 455.34 941.999 454.82 940.559 454.82C939.119 454.82 937.959 455.34 937.079 456.38C936.199 457.38 935.759 458.72 935.759 460.4ZM931.859 461.9V460.52C931.859 457.92 932.599 455.8 934.079 454.16C935.559 452.48 937.419 451.64 939.659 451.64C942.059 451.64 943.959 452.6 945.359 454.52V447.32C945.359 445.8 944.939 444.58 944.099 443.66C943.299 442.74 942.279 442.28 941.039 442.28C939.799 442.28 938.759 442.74 937.919 443.66C937.119 444.58 936.719 445.8 936.719 447.32V448.58H932.999V447.5C932.999 444.94 933.779 442.86 935.339 441.26C936.899 439.66 938.819 438.86 941.099 438.86C943.419 438.86 945.359 439.64 946.919 441.2C948.479 442.76 949.259 444.8 949.259 447.32V470H946.079L945.779 467C944.339 469.4 942.239 470.6 939.479 470.6C937.239 470.6 935.399 469.82 933.959 468.26C932.559 466.66 931.859 464.54 931.859 461.9ZM959.452 447.68V470H955.552V439.46H958.912L959.092 442.4C960.452 440.04 962.552 438.86 965.392 438.86C967.432 438.86 969.092 439.58 970.372 441.02C971.692 442.46 972.352 444.44 972.352 446.96V470H968.452V447.68C968.452 446.04 968.052 444.76 967.252 443.84C966.492 442.92 965.452 442.46 964.132 442.46C962.772 442.46 961.652 442.92 960.772 443.84C959.892 444.76 959.452 446.04 959.452 447.68ZM990.398 447.56V446.72C990.398 445.4 989.978 444.34 989.138 443.54C988.338 442.7 987.318 442.28 986.078 442.28C984.838 442.28 983.798 442.68 982.958 443.48C982.158 444.28 981.758 445.32 981.758 446.6C981.758 447.84 982.158 448.92 982.958 449.84C983.758 450.72 985.118 451.64 987.038 452.6C989.478 453.76 991.298 455.1 992.498 456.62C993.698 458.14 994.298 460 994.298 462.2C994.298 464.64 993.478 466.66 991.838 468.26C990.198 469.82 988.178 470.6 985.778 470.6C983.378 470.6 981.378 469.84 979.778 468.32C978.218 466.8 977.438 464.78 977.438 462.26V461.3H981.158V462.2C981.158 463.72 981.578 464.92 982.418 465.8C983.298 466.68 984.418 467.12 985.778 467.12C987.138 467.12 988.238 466.68 989.078 465.8C989.958 464.92 990.398 463.74 990.398 462.26C990.398 460.9 989.958 459.72 989.078 458.72C988.198 457.68 986.638 456.62 984.398 455.54C980.038 453.38 977.858 450.4 977.858 446.6C977.858 444.36 978.638 442.52 980.198 441.08C981.798 439.6 983.758 438.86 986.078 438.86C988.398 438.86 990.318 439.6 991.838 441.08C993.358 442.52 994.118 444.38 994.118 446.66V447.56H990.398ZM1001.29 464.9C1002.09 464.9 1002.77 465.2 1003.33 465.8C1003.89 466.36 1004.17 467.02 1004.17 467.78C1004.17 468.54 1003.89 469.2 1003.33 469.76C1002.77 470.32 1002.09 470.6 1001.29 470.6C1000.49 470.6 999.813 470.32 999.253 469.76C998.733 469.2 998.473 468.54 998.473 467.78C998.473 466.98 998.753 466.3 999.313 465.74C999.873 465.18 1000.53 464.9 1001.29 464.9Z" fill="black"/>
<path d="M116.551 161C108.12 161 102.033 158.918 98.2895 154.755C94.5811 150.592 92.7269 143.965 92.7269 134.876V125.924H110.989V137.373C110.989 139.49 111.304 141.155 111.933 142.369C112.598 143.549 113.735 144.139 115.344 144.139C117.024 144.139 118.178 143.653 118.808 142.682C119.473 141.71 119.805 140.114 119.805 137.894C119.805 135.084 119.525 132.742 118.965 130.868C118.406 128.96 117.426 127.156 116.027 125.456C114.662 123.721 112.756 121.709 110.307 119.419L102.015 111.613C95.823 105.819 92.7269 99.1929 92.7269 91.7337C92.7269 83.9276 94.5461 77.9776 98.1845 73.8837C101.858 69.7898 107.158 67.7429 114.085 67.7429C122.551 67.7429 128.551 69.9806 132.084 74.4561C135.653 78.9316 137.437 85.7316 137.437 94.8561H118.65V88.5592C118.65 87.3102 118.283 86.3388 117.548 85.6449C116.849 84.951 115.887 84.6041 114.662 84.6041C113.193 84.6041 112.108 85.0204 111.409 85.8531C110.744 86.651 110.412 87.6918 110.412 88.9755C110.412 90.2592 110.761 91.6469 111.461 93.1388C112.161 94.6306 113.543 96.348 115.607 98.2908L126.26 108.439C128.394 110.451 130.353 112.585 132.137 114.84C133.921 117.06 135.355 119.662 136.44 122.646C137.525 125.595 138.067 129.203 138.067 133.47C138.067 142.074 136.457 148.822 133.239 153.714C130.055 158.571 124.493 161 116.551 161Z" fill="white"/>
<path d="M144.259 160.167V68.5755H162.626V101.309H171.337V68.5755H189.704V160.167H171.337V118.639H162.626V160.167H144.259Z" fill="white"/>
<path d="M195.371 160.167L204.292 68.5755H235.621L244.385 160.167H226.91L225.598 145.388H214.473L213.318 160.167H195.371ZM215.785 130.764H224.181L220.14 84.1878H219.301L215.785 130.764Z" fill="white"/>
<path d="M250.052 160.167V68.5755H274.454C279.561 68.5755 283.602 69.7031 286.576 71.9582C289.584 74.2133 291.736 77.4224 293.03 81.5857C294.325 85.749 294.972 90.7102 294.972 96.4694C294.972 102.02 294.43 106.86 293.345 110.989C292.261 115.083 290.319 118.257 287.52 120.512C284.757 122.767 280.821 123.895 275.713 123.895H268.209V160.167H250.052ZM268.209 107.45H269.258C272.687 107.45 274.786 106.496 275.556 104.588C276.325 102.68 276.71 99.8694 276.71 96.1571C276.71 92.6878 276.325 90.0163 275.556 88.1429C274.821 86.2347 273.054 85.2806 270.256 85.2806H268.209V107.45Z" fill="white"/>
<path d="M300.849 160.167V68.5755H337.793V86.2694H319.636V104.119H337.058V121.345H319.636V142.317H339V160.167H300.849Z" fill="white"/>
<path d="M113.824 158.257C105.393 158.257 99.3059 156.176 95.5625 152.012C91.8542 147.849 90 141.222 90 132.133V123.182H108.262V134.631C108.262 136.747 108.577 138.412 109.206 139.627C109.871 140.806 111.008 141.396 112.617 141.396C114.297 141.396 115.451 140.91 116.081 139.939C116.746 138.967 117.078 137.371 117.078 135.151C117.078 132.341 116.798 129.999 116.238 128.126C115.679 126.217 114.699 124.413 113.3 122.713C111.935 120.979 110.029 118.966 107.58 116.677L99.2884 108.87C93.0961 103.077 90 96.45 90 88.9908C90 81.1847 91.8192 75.2347 95.4576 71.1408C99.1309 67.0469 104.431 65 111.358 65C119.824 65 125.824 67.2378 129.358 71.7133C132.926 76.1888 134.71 82.9888 134.71 92.1133H115.923V85.8163C115.923 84.5673 115.556 83.5959 114.821 82.902C114.122 82.2082 113.16 81.8612 111.935 81.8612C110.466 81.8612 109.381 82.2776 108.682 83.1102C108.017 83.9082 107.685 84.949 107.685 86.2327C107.685 87.5163 108.034 88.9041 108.734 90.3959C109.434 91.8878 110.816 93.6051 112.88 95.548L123.533 105.696C125.667 107.708 127.626 109.842 129.41 112.097C131.194 114.317 132.629 116.919 133.713 119.903C134.798 122.852 135.34 126.46 135.34 130.728C135.34 139.332 133.731 146.08 130.512 150.971C127.328 155.829 121.766 158.257 113.824 158.257Z" fill="black"/>
<path d="M141.532 157.424V65.8327H159.899V98.5663H168.61V65.8327H186.977V157.424H168.61V115.896H159.899V157.424H141.532Z" fill="black"/>
<path d="M192.644 157.424L201.565 65.8327H232.894L241.658 157.424H224.183L222.871 142.645H211.746L210.591 157.424H192.644ZM213.058 128.021H221.454L217.413 81.4449H216.574L213.058 128.021Z" fill="black"/>
<path d="M247.325 157.424V65.8327H271.727C276.834 65.8327 280.875 66.9602 283.849 69.2153C286.858 71.4704 289.009 74.6796 290.304 78.8429C291.598 83.0061 292.245 87.9673 292.245 93.7265C292.245 99.2776 291.703 104.117 290.618 108.246C289.534 112.34 287.592 115.514 284.793 117.769C282.03 120.024 278.094 121.152 272.986 121.152H265.482V157.424H247.325ZM265.482 104.707H266.532C269.96 104.707 272.059 103.753 272.829 101.845C273.598 99.9367 273.983 97.1265 273.983 93.4143C273.983 89.9449 273.598 87.2735 272.829 85.4C272.094 83.4918 270.327 82.5378 267.529 82.5378H265.482V104.707Z" fill="black"/>
<path d="M298.123 157.424V65.8327H335.066V83.5265H316.909V101.377H334.331V118.602H316.909V139.574H336.273V157.424H298.123Z" fill="black"/>
<path d="M379.661 240.42V99.9654H359V66.5804H435.121V99.9654H414.46V240.42H379.661Z" fill="black"/>
<path d="M444.809 240.42V66.5804H498.193C507.09 66.5804 513.812 68.6217 518.36 72.7042C522.907 76.721 525.939 82.3839 527.455 89.6931C529.036 96.9364 529.827 105.464 529.827 115.275C529.827 124.757 528.608 132.33 526.169 137.993C523.797 143.656 519.282 147.574 512.626 149.747C518.096 150.866 521.919 153.599 524.093 157.945C526.334 162.225 527.455 167.789 527.455 174.637V240.42H493.151V172.366C493.151 167.295 492.096 164.167 489.987 162.982C487.944 161.731 484.616 161.105 480.003 161.105V240.42H444.809ZM480.2 130.98H488.603C493.414 130.98 495.82 125.745 495.82 115.275C495.82 108.493 495.293 104.048 494.238 101.941C493.184 99.8337 491.207 98.7801 488.307 98.7801H480.2V130.98Z" fill="black"/>
<path d="M539.713 240.42V66.5804H573.325V240.42H539.713Z" fill="black"/>
<path d="M627.697 242C615.109 242 604.96 238.082 597.249 230.246C589.604 222.41 585.781 211.446 585.781 197.355V117.152C585.781 100.295 589.109 87.3884 595.766 78.433C602.488 69.4777 613.395 65 628.488 65C636.726 65 644.042 66.5145 650.434 69.5435C656.893 72.5725 661.968 77.1161 665.659 83.1741C669.349 89.1663 671.195 96.7388 671.195 105.892V135.919H636.594V110.238C636.594 105.036 635.935 101.546 634.617 99.7679C633.299 97.9241 631.256 97.0022 628.488 97.0022C625.258 97.0022 623.084 98.1875 621.963 100.558C620.843 102.863 620.283 105.958 620.283 109.843V196.861C620.283 201.668 620.975 205.059 622.359 207.035C623.809 209.01 625.852 209.998 628.488 209.998C631.454 209.998 633.53 208.78 634.716 206.343C635.968 203.907 636.594 200.746 636.594 196.861V165.55H671.59V198.441C671.59 213.718 667.735 224.814 660.024 231.728C652.313 238.576 641.537 242 627.697 242Z" fill="black"/>
<path d="M683.255 240.42V66.5804H717.658V136.215L733.871 66.5804H768.867L749.392 146.191L772.92 240.42H736.837L717.856 156.266V240.42H683.255Z" fill="black"/>
<path d="M820.273 242C804.39 242 792.922 238.049 785.87 230.147C778.884 222.246 775.391 209.669 775.391 192.416V175.427H809.794V197.157C809.794 201.174 810.387 204.335 811.573 206.64C812.826 208.878 814.968 209.998 817.999 209.998C821.163 209.998 823.338 209.076 824.524 207.232C825.776 205.388 826.402 202.359 826.402 198.145C826.402 192.811 825.875 188.367 824.82 184.811C823.766 181.189 821.921 177.765 819.284 174.539C816.714 171.246 813.122 167.427 808.509 163.081L792.889 148.265C781.224 137.268 775.391 124.691 775.391 110.534C775.391 95.7182 778.818 84.4252 785.673 76.6551C792.593 68.885 802.577 65 815.627 65C831.576 65 842.879 69.2472 849.535 77.7416C856.257 86.236 859.619 99.1423 859.619 116.46H824.227V104.509C824.227 102.138 823.535 100.295 822.151 98.9777C820.833 97.6607 819.021 97.0022 816.714 97.0022C813.946 97.0022 811.903 97.7924 810.585 99.3728C809.333 100.887 808.707 102.863 808.707 105.299C808.707 107.735 809.366 110.369 810.684 113.201C812.002 116.032 814.605 119.292 818.494 122.979L838.562 142.24C842.582 146.059 846.273 150.109 849.634 154.389C852.995 158.603 855.697 163.542 857.74 169.205C859.783 174.802 860.805 181.65 860.805 189.749C860.805 206.08 857.773 218.887 851.71 228.172C845.713 237.391 835.234 242 820.273 242Z" fill="black"/>
<path d="M887.398 240.42V99.9654H866.736V66.5804H942.857V99.9654H922.196V240.42H887.398Z" fill="black"/>
<path d="M952.545 240.42V66.5804H1022.14V100.163H987.937V134.042H1020.76V166.735H987.937V206.541H1024.42V240.42H952.545Z" fill="black"/>
<path d="M1035.98 240.42V66.5804H1089.37C1098.26 66.5804 1104.98 68.6217 1109.53 72.7042C1114.08 76.721 1117.11 82.3839 1118.63 89.6931C1120.21 96.9364 1121 105.464 1121 115.275C1121 124.757 1119.78 132.33 1117.34 137.993C1114.97 143.656 1110.46 147.574 1103.8 149.747C1109.27 150.866 1113.09 153.599 1115.27 157.945C1117.51 162.225 1118.63 167.789 1118.63 174.637V240.42H1084.32V172.366C1084.32 167.295 1083.27 164.167 1081.16 162.982C1079.12 161.731 1075.79 161.105 1071.18 161.105V240.42H1035.98ZM1071.37 130.98H1079.78C1084.59 130.98 1086.99 125.745 1086.99 115.275C1086.99 108.493 1086.47 104.048 1085.41 101.941C1084.36 99.8337 1082.38 98.7801 1079.48 98.7801H1071.37V130.98Z" fill="black"/>
<path d="M107.259 244C101.075 244 96.6103 242.482 93.8649 239.446C91.1451 236.411 89.7852 231.579 89.7852 224.951V218.424H103.179V226.772C103.179 228.315 103.41 229.53 103.872 230.415C104.359 231.275 105.193 231.705 106.373 231.705C107.605 231.705 108.452 231.351 108.914 230.643C109.401 229.935 109.645 228.771 109.645 227.152C109.645 225.103 109.44 223.395 109.029 222.029C108.619 220.638 107.9 219.322 106.874 218.083C105.873 216.818 104.475 215.35 102.679 213.681L96.5975 207.989C92.0559 203.764 89.7852 198.932 89.7852 193.493C89.7852 187.801 91.1194 183.463 93.7879 180.478C96.482 177.493 100.369 176 105.45 176C111.659 176 116.06 177.632 118.651 180.895C121.268 184.158 122.577 189.117 122.577 195.77H108.798V191.179C108.798 190.268 108.529 189.56 107.99 189.054C107.477 188.548 106.771 188.295 105.873 188.295C104.795 188.295 104 188.598 103.487 189.205C102.999 189.787 102.756 190.546 102.756 191.482C102.756 192.418 103.012 193.43 103.525 194.518C104.038 195.606 105.052 196.858 106.566 198.275L114.379 205.674C115.944 207.141 117.381 208.697 118.69 210.342C119.998 211.961 121.05 213.858 121.846 216.033C122.641 218.184 123.039 220.815 123.039 223.926C123.039 230.2 121.858 235.121 119.498 238.688C117.163 242.229 113.083 244 107.259 244Z" fill="white"/>
<path d="M127.58 243.393V176.607H141.051V200.475H147.44V176.607H160.911V243.393H147.44V213.112H141.051V243.393H127.58Z" fill="white"/>
<path d="M166.299 243.393V176.607H179.385V243.393H166.299Z" fill="white"/>
<path d="M184.773 243.393V176.607H211.869V189.623H198.398V200.248H211.176V213.112H198.398V243.393H184.773Z" fill="white"/>
<path d="M222.068 243.393V189.433H214.024V176.607H243.66V189.433H235.616V243.393H222.068Z" fill="white"/>
<path d="M246.816 243.393V176.607H259.901V243.393H246.816Z" fill="white"/>
<path d="M265.29 243.393V176.607H279.222L285.457 208.596V176.607H298.543V243.393H285.303L278.53 210V243.393H265.29Z" fill="white"/>
<path d="M318.518 244C308.845 244 304.009 237.17 304.009 223.509V194.708C304.009 182.236 309.551 176 320.635 176C325.203 176 328.705 176.911 331.143 178.732C333.58 180.528 335.261 183.159 336.184 186.625C337.108 190.091 337.57 194.315 337.57 199.299H324.33V193.379C324.33 191.938 324.125 190.736 323.714 189.775C323.329 188.788 322.508 188.295 321.251 188.295C319.686 188.295 318.647 188.813 318.134 189.85C317.646 190.888 317.402 192.026 317.402 193.266V225.634C317.402 227.43 317.633 228.897 318.095 230.036C318.583 231.149 319.519 231.705 320.905 231.705C322.342 231.705 323.291 231.149 323.753 230.036C324.24 228.897 324.484 227.405 324.484 225.558V216.033H320.866V204.498H337.416V243.393H331.989L329.68 237.777C327.319 241.926 323.599 244 318.518 244Z" fill="white"/>
<path d="M105.473 242C99.2898 242 94.8252 240.482 92.0797 237.446C89.3599 234.411 88 229.579 88 222.951V216.424H101.394V224.772C101.394 226.315 101.625 227.53 102.087 228.415C102.574 229.275 103.408 229.705 104.588 229.705C105.82 229.705 106.667 229.351 107.128 228.643C107.616 227.935 107.86 226.771 107.86 225.152C107.86 223.103 107.654 221.395 107.244 220.029C106.833 218.638 106.115 217.322 105.089 216.083C104.088 214.818 102.69 213.35 100.893 211.681L94.8123 205.989C90.2708 201.764 88 196.932 88 191.493C88 185.801 89.3342 181.463 92.0027 178.478C94.6969 175.493 98.5842 174 103.665 174C109.874 174 114.274 175.632 116.866 178.895C119.483 182.158 120.792 187.117 120.792 193.77H107.013V189.179C107.013 188.268 106.744 187.56 106.205 187.054C105.692 186.548 104.986 186.295 104.088 186.295C103.01 186.295 102.215 186.598 101.702 187.205C101.214 187.787 100.97 188.546 100.97 189.482C100.97 190.418 101.227 191.43 101.74 192.518C102.253 193.606 103.267 194.858 104.781 196.275L112.594 203.674C114.159 205.141 115.596 206.697 116.904 208.342C118.213 209.961 119.265 211.858 120.06 214.033C120.856 216.184 121.254 218.815 121.254 221.926C121.254 228.2 120.073 233.121 117.713 236.688C115.378 240.229 111.298 242 105.473 242Z" fill="black"/>
<path d="M125.795 241.393V174.607H139.266V198.475H145.655V174.607H159.126V241.393H145.655V211.112H139.266V241.393H125.795Z" fill="black"/>
<path d="M164.514 241.393V174.607H177.6V241.393H164.514Z" fill="black"/>
<path d="M182.988 241.393V174.607H210.083V187.623H196.613V198.248H209.391V211.112H196.613V241.393H182.988Z" fill="black"/>
<path d="M220.283 241.393V187.433H212.239V174.607H241.874V187.433H233.83V241.393H220.283Z" fill="black"/>
<path d="M245.03 241.393V174.607H258.116V241.393H245.03Z" fill="black"/>
<path d="M263.505 241.393V174.607H277.437L283.672 206.596V174.607H296.758V241.393H283.518L276.744 208V241.393H263.505Z" fill="black"/>
<path d="M316.733 242C307.06 242 302.223 235.17 302.223 221.509V192.708C302.223 180.236 307.766 174 318.85 174C323.417 174 326.92 174.911 329.357 176.732C331.795 178.528 333.476 181.159 334.399 184.625C335.323 188.091 335.785 192.315 335.785 197.299H322.545V191.379C322.545 189.938 322.34 188.736 321.929 187.775C321.544 186.788 320.723 186.295 319.466 186.295C317.901 186.295 316.862 186.813 316.348 187.85C315.861 188.888 315.617 190.026 315.617 191.266V223.634C315.617 225.43 315.848 226.897 316.31 228.036C316.797 229.149 317.734 229.705 319.12 229.705C320.556 229.705 321.506 229.149 321.968 228.036C322.455 226.897 322.699 225.405 322.699 223.558V214.033H319.081V202.498H335.631V241.393H330.204L327.895 235.777C325.534 239.926 321.814 242 316.733 242Z" fill="black"/>
</g>
<defs>
<clipPath id="clip0_1148_1914">
<rect width="1208" height="1208" fill="white"/>
</clipPath>
</defs>
</svg>
