<svg width="22" height="21" viewBox="0 0 22 21" fill="none" xmlns="http://www.w3.org/2000/svg">
<path d="M17.3685 5.14051L4.22492 9.91745C4.22492 9.91745 3.63086 10.1251 3.63086 10.4713C3.70512 10.8175 4.22492 11.0251 4.22492 11.0251L7.5665 12.0636L15.512 7.3559C15.512 7.3559 15.9576 7.07898 15.9576 7.3559C15.9576 7.3559 16.0318 7.42513 15.8091 7.63283C15.5863 7.84052 9.57145 12.8944 9.57145 12.8944L9.12591 16.3559C9.27442 16.4252 9.4972 16.2867 9.4972 16.2867L11.6507 14.4867L14.9922 16.9098C15.8833 17.2559 16.2546 16.4944 16.2546 16.4944L18.6309 5.48667C18.4823 4.65589 17.3685 5.14051 17.3685 5.14051Z" fill="black"/>
</svg>
