<svg width="21" height="21" viewBox="0 0 21 21" fill="none" xmlns="http://www.w3.org/2000/svg">
<path d="M16.7376 5.14051L3.59406 9.91745C3.59406 9.91745 3 10.1251 3 10.4713C3.07426 10.8175 3.59406 11.0251 3.59406 11.0251L6.93564 12.0636L14.8812 7.3559C14.8812 7.3559 15.3267 7.07898 15.3267 7.3559C15.3267 7.3559 15.401 7.42513 15.1782 7.63283C14.9554 7.84052 8.94059 12.8944 8.94059 12.8944L8.49505 16.3559C8.64356 16.4252 8.86634 16.2867 8.86634 16.2867L11.0198 14.4867L14.3614 16.9098C15.2525 17.2559 15.6238 16.4944 15.6238 16.4944L18 5.48667C17.8515 4.65589 16.7376 5.14051 16.7376 5.14051Z" fill="#83C4D8"/>
</svg>
